<svg width="12" height="14" viewBox="0 0 12 14" fill="none" xmlns="http://www.w3.org/2000/svg">
<mask id="mask0_24_2416" style="mask-type:luminance" maskUnits="userSpaceOnUse" x="0" y="0" width="12" height="14">
<path d="M0 0H11.8958V13.3333H0V0Z" fill="white"/>
</mask>
<g mask="url(#mask0_24_2416)">
<path d="M3.26774 13.0148C3.16878 13.0148 3.10628 12.9627 3.08024 12.8481L0.788574 1.03564V1.01481C0.788574 0.905437 0.840657 0.848145 0.955241 0.848145H1.87191C1.98128 0.848145 2.04378 0.905437 2.05941 1.01481L3.68441 10.1398C3.69482 10.1711 3.71045 10.1815 3.72607 10.1815C3.73649 10.1815 3.75212 10.1711 3.76774 10.1398L5.16357 1.01481C5.18962 0.905437 5.25212 0.848145 5.35107 0.848145H6.14274C6.25212 0.848145 6.30941 0.905437 6.30941 1.01481L7.78857 10.1398C7.79899 10.1711 7.81462 10.1815 7.83024 10.1815C7.84066 10.1815 7.85628 10.1711 7.87191 10.1398L9.35107 1.01481C9.37712 0.905437 9.43962 0.848145 9.53857 0.848145H10.4552C10.5073 0.848145 10.549 0.868978 10.5802 0.910645C10.6063 0.941894 10.6115 0.983561 10.6011 1.03564L8.45524 12.8481C8.43962 12.9627 8.37712 13.0148 8.26774 13.0148H7.41357C7.31462 13.0148 7.25732 12.9627 7.24691 12.8481L5.78857 3.68148C5.77295 3.65544 5.75212 3.63981 5.72607 3.63981C5.71045 3.63981 5.70524 3.65544 5.70524 3.68148L4.28857 12.8481C4.27295 12.9627 4.21045 13.0148 4.10107 13.0148H3.26774Z" fill="#D72333"/>
</g>
</svg>
