<svg width="29" height="9" viewBox="0 0 29 9" fill="none" xmlns="http://www.w3.org/2000/svg">
<mask id="mask0_25_16249" style="mask-type:luminance" maskUnits="userSpaceOnUse" x="0" y="0" width="29" height="9">
<path d="M0 0H28.4531V8.89062H0V0Z" fill="white"/>
</mask>
<g mask="url(#mask0_25_16249)">
<path d="M0.572754 4.95322C0.572754 4.95322 2.0415 5.65113 3.39046 7.17197C5.27588 7.94801 6.64567 8.49488 8.17171 8.36468C9.5415 7.77092 11.7394 6.81259 13.1353 4.79697C15.2811 3.73447 17.4269 2.67717 19.6509 1.6928C22.0519 1.82301 23.6821 1.92717 25.0259 2.93238C26.3436 3.81259 27.5832 5.28655 27.9478 5.23447C28.104 5.00009 28.0519 4.51051 27.9998 4.17717C27.7394 4.02092 27.6613 4.27613 27.6092 4.27613C27.6092 4.27613 27.8957 4.07301 27.9738 4.17717C28.078 4.27613 25.9842 1.6928 24.0675 0.968841C22.2082 0.734465 19.8019 0.453216 17.63 1.58863C15.4634 2.49488 13.0311 3.53134 11.4269 5.62509C9.104 6.91676 8.58317 7.19801 7.96338 7.19801C7.36963 7.25009 4.70817 7.58863 2.89567 5.26051C0.775879 4.07301 1.14046 4.22926 1.08838 4.20322C1.08838 4.20322 0.801919 3.9428 0.697754 3.89072C0.593586 3.89072 0.593587 4.2553 0.645671 4.3803" fill="#D72333"/>
</g>
</svg>
