<svg width="11" height="20" viewBox="0 0 11 20" fill="none" xmlns="http://www.w3.org/2000/svg">
<mask id="mask0_24_4834" style="mask-type:luminance" maskUnits="userSpaceOnUse" x="0" y="0" width="11" height="20">
<path d="M0 0H10.849V19.2396H0V0Z" fill="white"/>
</mask>
<g mask="url(#mask0_24_4834)">
<mask id="mask1_24_4834" style="mask-type:luminance" maskUnits="userSpaceOnUse" x="0" y="-1" width="12" height="21">
<path d="M12 -0.760254H0V19.2397H12V-0.760254Z" fill="white"/>
</mask>
<g mask="url(#mask1_24_4834)">
<mask id="mask2_24_4834" style="mask-type:luminance" maskUnits="userSpaceOnUse" x="0" y="3" width="4" height="13">
<path d="M0.0727539 3.23975H3.99984V15.2397H0.0727539V3.23975Z" fill="white"/>
</mask>
<g mask="url(#mask2_24_4834)">
<path d="M2.15999 4.15837C2.2277 4.13232 2.29541 4.1167 2.36833 4.1167H3.22249C3.31624 4.1167 3.36833 4.16878 3.36833 4.26253V14.9292C3.36833 15.0438 3.31624 15.0959 3.22249 15.0959H2.40999C2.31103 15.0959 2.26416 15.0438 2.26416 14.9292V5.4292C2.26416 5.41878 2.25374 5.40316 2.24333 5.38753C2.2277 5.37712 2.20687 5.37712 2.18083 5.38753L0.70166 5.8667L0.659993 5.88753C0.587076 5.88753 0.540201 5.84066 0.51416 5.7417L0.45166 5.15837V5.13753C0.45166 5.08545 0.482911 5.02816 0.555827 4.97087L2.15999 4.15837Z" fill="#D72333"/>
</g>
<path d="M10.3001 11.075C10.4095 11.075 10.4668 11.1323 10.4668 11.2417V11.9292C10.4668 12.0282 10.4095 12.075 10.3001 12.075H9.82096C9.7793 12.075 9.75846 12.0959 9.75846 12.1375V14.9292C9.75846 15.0438 9.70638 15.0959 9.61263 15.0959H8.80013C8.70117 15.0959 8.6543 15.0438 8.6543 14.9292V12.1375C8.6543 12.0959 8.63346 12.075 8.5918 12.075H4.80013C4.70117 12.075 4.6543 12.0282 4.6543 11.9292V11.325C4.6543 11.2834 4.6595 11.2209 4.67513 11.1375L7.0293 4.2417C7.05534 4.15837 7.11784 4.1167 7.2168 4.1167H8.07096C8.19596 4.1167 8.23763 4.17399 8.19596 4.28337L5.94596 10.9917C5.93034 11.0229 5.93034 11.0438 5.94596 11.0542C5.95638 11.0698 5.972 11.075 5.98763 11.075H8.5918C8.63346 11.075 8.6543 11.0542 8.6543 11.0125V8.6167C8.6543 8.50732 8.70117 8.45003 8.80013 8.45003H9.61263C9.70638 8.45003 9.75846 8.50732 9.75846 8.6167V11.0125C9.75846 11.0542 9.7793 11.075 9.82096 11.075H10.3001Z" fill="#D72333"/>
</g>
</g>
</svg>
