<svg width="8" height="12" viewBox="0 0 8 12" fill="none" xmlns="http://www.w3.org/2000/svg">
<mask id="mask0_25_8507" style="mask-type:luminance" maskUnits="userSpaceOnUse" x="0" y="0" width="8" height="12">
<path d="M0 0H7.89583V12H0V0Z" fill="white"/>
</mask>
<g mask="url(#mask0_25_8507)">
<path d="M5.16471 0.888672C5.16471 0.836589 5.18555 0.794923 5.22721 0.763672C5.26888 0.722005 5.31575 0.701172 5.37305 0.701172H7.18555C7.23763 0.701172 7.2793 0.722005 7.31055 0.763672C7.35221 0.794923 7.37305 0.836589 7.37305 0.888672V11.4928C7.37305 11.5501 7.35221 11.597 7.31055 11.6387C7.2793 11.6699 7.23763 11.6803 7.18555 11.6803H5.10221C5.00325 11.6803 4.94075 11.6283 4.91471 11.5137L2.95638 5.45117C2.95638 5.42513 2.94075 5.41992 2.91471 5.43034C2.88346 5.43034 2.87305 5.44596 2.87305 5.47201L2.89388 11.4928C2.89388 11.5501 2.87305 11.597 2.83138 11.6387C2.78971 11.6699 2.74805 11.6803 2.70638 11.6803H0.873047C0.815755 11.6803 0.76888 11.6699 0.727214 11.6387C0.695964 11.597 0.685547 11.5501 0.685547 11.4928V0.888672C0.685547 0.836589 0.695964 0.794923 0.727214 0.763672C0.76888 0.722005 0.815755 0.701172 0.873047 0.701172H2.93555C3.0293 0.701172 3.10221 0.753256 3.14388 0.847005L5.10221 6.93034C5.10221 6.96159 5.11263 6.97201 5.14388 6.97201C5.16992 6.96159 5.18555 6.94075 5.18555 6.90951L5.16471 0.888672Z" fill="#D72333"/>
</g>
</svg>
