<svg width="177" height="64" viewBox="0 0 177 64" fill="none" xmlns="http://www.w3.org/2000/svg">
<mask id="mask0_24_6438" style="mask-type:luminance" maskUnits="userSpaceOnUse" x="0" y="0" width="177" height="64">
<path d="M0 0H176.354V64H0V0Z" fill="white"/>
</mask>
<g mask="url(#mask0_24_6438)">
<mask id="mask1_24_6438" style="mask-type:luminance" maskUnits="userSpaceOnUse" x="-1" y="0" width="178" height="64">
<path d="M176.354 0H-0.979004V64H176.354V0Z" fill="white"/>
</mask>
<g mask="url(#mask1_24_6438)">
<path d="M3.64616 15.7848C2.71387 15.7848 1.96387 15.5088 1.39616 14.9515C0.823243 14.3838 0.541992 13.6338 0.541992 12.7015V7.61816C0.541992 6.69108 0.823243 5.94629 1.39616 5.389C1.96387 4.83691 2.71387 4.55566 3.64616 4.55566C4.60449 4.55566 5.36491 4.83691 5.93783 5.389C6.50553 5.94629 6.79199 6.69108 6.79199 7.61816V7.78483C6.79199 7.84212 6.77116 7.889 6.72949 7.93066C6.69824 7.96191 6.65658 7.97233 6.60449 7.97233L4.77116 8.05566C4.64616 8.05566 4.58366 8.00358 4.58366 7.889V7.47233C4.58366 7.17025 4.50033 6.92546 4.33366 6.74316C4.16699 6.55046 3.93783 6.4515 3.64616 6.4515C3.38053 6.4515 3.16699 6.55046 3.00033 6.74316C2.83366 6.92546 2.75033 7.17025 2.75033 7.47233V12.889C2.75033 13.1963 2.83366 13.4411 3.00033 13.6182C3.16699 13.8005 3.38053 13.889 3.64616 13.889C3.93783 13.889 4.16699 13.8005 4.33366 13.6182C4.50033 13.4411 4.58366 13.1963 4.58366 12.889V12.4515C4.58366 12.4098 4.59408 12.3682 4.62533 12.3265C4.66699 12.2848 4.71387 12.264 4.77116 12.264L6.60449 12.3473C6.65658 12.3473 6.69824 12.3682 6.72949 12.4098C6.77116 12.4411 6.79199 12.4827 6.79199 12.5348V12.7015C6.79199 13.6338 6.50033 14.3838 5.91699 14.9515C5.34408 15.5088 4.58887 15.7848 3.64616 15.7848Z" fill="#D72333"/>
<path d="M12.3016 15.6598C12.187 15.6598 12.1141 15.6077 12.0724 15.4932L10.8641 11.1807C10.8485 11.139 10.8276 11.1182 10.8016 11.1182H10.2599C10.2026 11.1182 10.1766 11.139 10.1766 11.1807V15.4723C10.1766 15.5296 10.1558 15.5765 10.1141 15.6182C10.0828 15.6494 10.0412 15.6598 9.9891 15.6598H8.15576C8.09847 15.6598 8.0516 15.6494 8.00993 15.6182C7.97868 15.5765 7.96826 15.5296 7.96826 15.4723V4.86816C7.96826 4.81608 7.97868 4.77441 8.00993 4.74316C8.0516 4.7015 8.09847 4.68066 8.15576 4.68066H11.3224C11.9058 4.68066 12.4162 4.82129 12.8641 5.09733C13.3068 5.37858 13.6558 5.764 13.9058 6.264C14.1558 6.764 14.2808 7.34212 14.2808 7.99316C14.2808 8.60775 14.161 9.14942 13.9266 9.61816C13.687 10.0921 13.3641 10.4619 12.9474 10.7223C12.9162 10.738 12.8953 10.7536 12.8849 10.764C12.8849 10.7796 12.8901 10.7952 12.9058 10.8057L14.3433 15.4307L14.3641 15.4932C14.3641 15.6077 14.3016 15.6598 14.1766 15.6598H12.3016ZM10.2599 6.5765C10.2026 6.5765 10.1766 6.60775 10.1766 6.65983V9.34733C10.1766 9.389 10.2026 9.40983 10.2599 9.40983H10.9683C11.286 9.40983 11.5516 9.28483 11.7599 9.03483C11.9683 8.77442 12.0724 8.43066 12.0724 8.014C12.0724 7.57129 11.9683 7.22233 11.7599 6.97233C11.5516 6.71191 11.286 6.5765 10.9683 6.5765H10.2599Z" fill="#D72333"/>
<path d="M18.3796 15.7848C17.4056 15.7848 16.6348 15.5088 16.0671 14.9515C15.4941 14.3838 15.2129 13.6286 15.2129 12.6807V7.65983C15.2129 6.71712 15.4941 5.96712 16.0671 5.40983C16.6348 4.84212 17.4056 4.55566 18.3796 4.55566C19.3379 4.55566 20.1087 4.84212 20.6921 5.40983C21.2754 5.96712 21.5671 6.71712 21.5671 7.65983V12.6807C21.5671 13.6286 21.2754 14.3838 20.6921 14.9515C20.1087 15.5088 19.3379 15.7848 18.3796 15.7848ZM18.3796 13.889C18.6712 13.889 18.9004 13.7952 19.0671 13.5973C19.2441 13.389 19.3379 13.113 19.3379 12.764V7.55566C19.3379 7.22233 19.2441 6.96191 19.0671 6.764C18.9004 6.55566 18.6712 6.4515 18.3796 6.4515C18.0879 6.4515 17.8483 6.55566 17.6712 6.764C17.5046 6.96191 17.4212 7.22233 17.4212 7.55566V12.764C17.4212 13.113 17.5046 13.389 17.6712 13.5973C17.8483 13.7952 18.0879 13.889 18.3796 13.889Z" fill="#D72333"/>
<path d="M22.9683 15.6598C22.911 15.6598 22.8641 15.6494 22.8224 15.6182C22.7912 15.5765 22.7808 15.5296 22.7808 15.4723V4.86816C22.7808 4.81608 22.7912 4.77441 22.8224 4.74316C22.8641 4.7015 22.911 4.68066 22.9683 4.68066H24.8016C24.8537 4.68066 24.8953 4.7015 24.9266 4.74316C24.9683 4.77441 24.9891 4.81608 24.9891 4.86816V15.4723C24.9891 15.5296 24.9683 15.5765 24.9266 15.6182C24.8953 15.6494 24.8537 15.6598 24.8016 15.6598H22.9683Z" fill="#D72333"/>
<path d="M29.2228 15.7848C28.6082 15.7848 28.077 15.665 27.6187 15.4307C27.1603 15.1807 26.8062 14.8421 26.5562 14.4098C26.3062 13.9827 26.1812 13.4827 26.1812 12.9098V12.4515C26.1812 12.4098 26.1916 12.3682 26.2228 12.3265C26.2645 12.2848 26.3114 12.264 26.3687 12.264H28.1603C28.2124 12.264 28.2541 12.2848 28.2853 12.3265C28.327 12.3682 28.3478 12.4098 28.3478 12.4515V12.8057C28.3478 13.1286 28.4312 13.389 28.5978 13.5973C28.7645 13.7952 28.9728 13.889 29.2228 13.889C29.4728 13.889 29.6812 13.8005 29.8478 13.6182C30.0249 13.4255 30.1187 13.1755 30.1187 12.8682C30.1187 12.5505 30.0041 12.2796 29.7853 12.0557C29.577 11.8369 29.1707 11.5036 28.577 11.0557C28.0457 10.6807 27.6187 10.3473 27.2853 10.0557C26.9624 9.764 26.6864 9.40462 26.452 8.97233C26.228 8.54525 26.1187 8.05046 26.1187 7.49316C26.1187 6.60775 26.3947 5.89941 26.952 5.36816C27.5041 4.8265 28.2437 4.55566 29.1603 4.55566C30.077 4.55566 30.8114 4.83691 31.3687 5.389C31.9207 5.94629 32.202 6.67025 32.202 7.55566V7.9515C32.202 7.99316 32.1812 8.03483 32.1395 8.0765C32.1082 8.11816 32.0666 8.139 32.0145 8.139H30.2228C30.1655 8.139 30.1187 8.11816 30.077 8.0765C30.0457 8.03483 30.0353 7.99316 30.0353 7.9515V7.514C30.0353 7.19629 29.952 6.94108 29.7853 6.74316C29.6187 6.55046 29.4103 6.4515 29.1603 6.4515C28.9103 6.4515 28.702 6.54525 28.5353 6.72233C28.3791 6.90462 28.3062 7.15983 28.3062 7.49316C28.3062 7.80046 28.3999 8.0765 28.5978 8.3265C28.8062 8.56608 29.202 8.89942 29.7853 9.3265C30.4207 9.80046 30.9103 10.1911 31.2437 10.4932C31.577 10.7848 31.8322 11.113 32.0145 11.4723C32.1916 11.8369 32.2853 12.264 32.2853 12.764C32.2853 13.6963 31.9989 14.4307 31.4312 14.9723C30.8739 15.514 30.1395 15.7848 29.2228 15.7848Z" fill="#D72333"/>
<path d="M36.1896 15.7848C35.575 15.7848 35.0438 15.665 34.5854 15.4307C34.1271 15.1807 33.7729 14.8421 33.5229 14.4098C33.2729 13.9827 33.1479 13.4827 33.1479 12.9098V12.4515C33.1479 12.4098 33.1584 12.3682 33.1896 12.3265C33.2313 12.2848 33.2782 12.264 33.3354 12.264H35.1271C35.1792 12.264 35.2209 12.2848 35.2521 12.3265C35.2938 12.3682 35.3146 12.4098 35.3146 12.4515V12.8057C35.3146 13.1286 35.3979 13.389 35.5646 13.5973C35.7313 13.7952 35.9396 13.889 36.1896 13.889C36.4396 13.889 36.6479 13.8005 36.8146 13.6182C36.9917 13.4255 37.0854 13.1755 37.0854 12.8682C37.0854 12.5505 36.9709 12.2796 36.7521 12.0557C36.5438 11.8369 36.1375 11.5036 35.5438 11.0557C35.0125 10.6807 34.5854 10.3473 34.2521 10.0557C33.9292 9.764 33.6532 9.40462 33.4188 8.97233C33.1948 8.54525 33.0854 8.05046 33.0854 7.49316C33.0854 6.60775 33.3615 5.89941 33.9188 5.36816C34.4709 4.8265 35.2104 4.55566 36.1271 4.55566C37.0438 4.55566 37.7782 4.83691 38.3354 5.389C38.8875 5.94629 39.1688 6.67025 39.1688 7.55566V7.9515C39.1688 7.99316 39.1479 8.03483 39.1063 8.0765C39.075 8.11816 39.0334 8.139 38.9813 8.139H37.1896C37.1323 8.139 37.0854 8.11816 37.0438 8.0765C37.0125 8.03483 37.0021 7.99316 37.0021 7.9515V7.514C37.0021 7.19629 36.9188 6.94108 36.7521 6.74316C36.5854 6.55046 36.3771 6.4515 36.1271 6.4515C35.8771 6.4515 35.6688 6.54525 35.5021 6.72233C35.3459 6.90462 35.2729 7.15983 35.2729 7.49316C35.2729 7.80046 35.3667 8.0765 35.5646 8.3265C35.7729 8.56608 36.1688 8.89942 36.7521 9.3265C37.3875 9.80046 37.8771 10.1911 38.2104 10.4932C38.5438 10.7848 38.799 11.113 38.9813 11.4723C39.1584 11.8369 39.2521 12.264 39.2521 12.764C39.2521 13.6963 38.9657 14.4307 38.3979 14.9723C37.8407 15.514 37.1063 15.7848 36.1896 15.7848Z" fill="#D72333"/>
<path d="M44.9481 15.6598C44.8074 15.6598 44.7397 15.6077 44.7397 15.4932L44.4897 13.9723C44.4897 13.9307 44.4533 13.9098 44.3856 13.9098H42.4064C42.3335 13.9098 42.3022 13.9307 42.3022 13.9723L42.0522 15.4932C42.0366 15.6077 41.9689 15.6598 41.8439 15.6598H40.0106C39.8699 15.6598 39.8231 15.5921 39.8647 15.4515L42.1564 4.84733C42.1824 4.73796 42.2502 4.68066 42.3647 4.68066H44.4897C44.5991 4.68066 44.6616 4.73796 44.6772 4.84733L46.9689 15.4515L46.9897 15.514C46.9897 15.613 46.9324 15.6598 46.8231 15.6598H44.9481ZM42.6147 12.1182C42.6147 12.1755 42.6356 12.2015 42.6772 12.2015H44.0939C44.146 12.2015 44.1668 12.1755 44.1564 12.1182L43.4064 7.8265C43.4064 7.80046 43.3908 7.78483 43.3647 7.78483C43.3491 7.78483 43.3335 7.80046 43.3231 7.8265L42.6147 12.1182Z" fill="#D72333"/>
<path d="M52.3654 4.86816C52.3654 4.81608 52.3862 4.77441 52.4279 4.74316C52.4696 4.7015 52.5164 4.68066 52.5737 4.68066H54.3862C54.4383 4.68066 54.48 4.7015 54.5112 4.74316C54.5529 4.77441 54.5737 4.81608 54.5737 4.86816V15.4723C54.5737 15.5296 54.5529 15.5765 54.5112 15.6182C54.48 15.6494 54.4383 15.6598 54.3862 15.6598H52.3029C52.2039 15.6598 52.1414 15.6077 52.1154 15.4932L50.1571 9.43066C50.1571 9.40462 50.1414 9.39942 50.1154 9.40983C50.0841 9.40983 50.0737 9.42546 50.0737 9.4515L50.0946 15.4723C50.0946 15.5296 50.0737 15.5765 50.0321 15.6182C49.9904 15.6494 49.9487 15.6598 49.9071 15.6598H48.0737C48.0164 15.6598 47.9696 15.6494 47.9279 15.6182C47.8966 15.5765 47.8862 15.5296 47.8862 15.4723V4.86816C47.8862 4.81608 47.8966 4.77441 47.9279 4.74316C47.9696 4.7015 48.0164 4.68066 48.0737 4.68066H50.1362C50.23 4.68066 50.3029 4.73275 50.3446 4.8265L52.3029 10.9098C52.3029 10.9411 52.3133 10.9515 52.3446 10.9515C52.3706 10.9411 52.3862 10.9202 52.3862 10.889L52.3654 4.86816Z" fill="#D72333"/>
<path d="M62.035 4.68066C62.0871 4.68066 62.1287 4.7015 62.16 4.74316C62.2017 4.77441 62.2225 4.81608 62.2225 4.86816V6.389C62.2225 6.44629 62.2017 6.49316 62.16 6.53483C62.1287 6.56608 62.0871 6.5765 62.035 6.5765H60.0767C60.0194 6.5765 59.9933 6.60775 59.9933 6.65983V15.4723C59.9933 15.5296 59.9725 15.5765 59.9308 15.6182C59.8996 15.6494 59.8579 15.6598 59.8058 15.6598H57.9725C57.9308 15.6598 57.8892 15.6494 57.8475 15.6182C57.8058 15.5765 57.785 15.5296 57.785 15.4723V6.65983C57.785 6.60775 57.7537 6.5765 57.7017 6.5765H55.8267C55.7694 6.5765 55.7225 6.56608 55.6808 6.53483C55.6496 6.49316 55.6392 6.44629 55.6392 6.389V4.86816C55.6392 4.81608 55.6496 4.77441 55.6808 4.74316C55.7225 4.7015 55.7694 4.68066 55.8267 4.68066H62.035Z" fill="#D72333"/>
<path d="M18.5208 27.8644C18.5208 28.1978 18.4531 28.5207 18.3281 28.8332C18.1979 29.1405 18.0156 29.4165 17.7812 29.6509C17.5417 29.8853 17.2708 30.0675 16.9583 30.1978C16.651 30.328 16.3281 30.3905 15.9948 30.3905C15.6615 30.3905 15.3385 30.328 15.026 30.1978C14.7187 30.0675 14.4427 29.8853 14.2083 29.6509C13.974 29.4165 13.7865 29.1405 13.6615 28.8332C13.5312 28.5207 13.4688 28.1978 13.4688 27.8644C13.4688 27.5311 13.5312 27.2082 13.6615 26.9009C13.7865 26.5884 13.974 26.3175 14.2083 26.078C14.4427 25.8436 14.7187 25.6613 15.026 25.5311C15.3385 25.4061 15.6615 25.3384 15.9948 25.3384C16.3281 25.3384 16.651 25.4061 16.9583 25.5311C17.2708 25.6613 17.5417 25.8436 17.7812 26.078C18.0156 26.3175 18.1979 26.5884 18.3281 26.9009C18.4531 27.2082 18.5208 27.5311 18.5208 27.8644Z" fill="#D72333"/>
<path d="M33.9928 24.8745C34.6178 24.8745 35.1022 25.1037 35.4512 25.562C35.7949 26.0203 35.972 26.661 35.972 27.4787V32.7495C35.972 32.8641 35.9147 32.9162 35.8053 32.9162H35.0345C34.9199 32.9162 34.8678 32.8641 34.8678 32.7495V27.562C34.8678 27.036 34.7533 26.6193 34.5345 26.312C34.3105 25.9943 34.0137 25.8328 33.6387 25.8328C33.248 25.8328 32.9355 25.9891 32.7012 26.2912C32.4772 26.5985 32.3678 27.0151 32.3678 27.5412V32.7495C32.3678 32.8641 32.3105 32.9162 32.2012 32.9162H31.4095C31.2949 32.9162 31.2428 32.8641 31.2428 32.7495V27.562C31.2428 27.036 31.1283 26.6193 30.9095 26.312C30.6855 25.9943 30.3939 25.8328 30.0345 25.8328C29.6439 25.8328 29.3314 25.9891 29.097 26.2912C28.8574 26.5985 28.7428 27.0151 28.7428 27.5412V32.7495C28.7428 32.8641 28.6855 32.9162 28.5762 32.9162H27.7845C27.6855 32.9162 27.6387 32.8641 27.6387 32.7495V25.1453C27.6387 25.036 27.6855 24.9787 27.7845 24.9787H28.5762C28.6855 24.9787 28.7428 25.036 28.7428 25.1453V25.6245C28.7428 25.6401 28.748 25.6558 28.7637 25.6662C28.7741 25.6662 28.7897 25.661 28.8053 25.6453C29.0137 25.3849 29.248 25.187 29.5137 25.062C29.7897 24.937 30.0814 24.8745 30.3887 24.8745C30.7741 24.8745 31.1178 24.9735 31.4095 25.1662C31.7012 25.3641 31.9303 25.6349 32.097 25.9787C32.1074 26.0099 32.123 26.0203 32.1387 26.0203C32.1647 26.0203 32.1803 25.9995 32.1803 25.9578C32.373 25.5828 32.6283 25.312 32.9512 25.1453C33.2845 24.9683 33.6283 24.8745 33.9928 24.8745Z" fill="#D72333"/>
<path d="M38.4731 23.5409C38.2075 23.5409 37.994 23.4575 37.8273 23.2909C37.6711 23.1242 37.5981 22.9159 37.5981 22.6659C37.5981 22.4054 37.6711 22.1867 37.8273 22.02C37.994 21.8534 38.2075 21.77 38.4731 21.77C38.7231 21.77 38.9315 21.8534 39.0981 22.02C39.2648 22.1867 39.3481 22.4054 39.3481 22.6659C39.3481 22.9159 39.2648 23.1242 39.0981 23.2909C38.9315 23.4575 38.7231 23.5409 38.4731 23.5409ZM38.0773 32.9159C37.9784 32.9159 37.9315 32.8638 37.9315 32.7492V25.145C37.9315 25.0356 37.9784 24.9784 38.0773 24.9784H38.8898C38.9836 24.9784 39.0356 25.0356 39.0356 25.145V32.7492C39.0356 32.8638 38.9836 32.9159 38.8898 32.9159H38.0773Z" fill="#D72333"/>
<path d="M43.8617 25.6453C43.8617 25.7599 43.8044 25.812 43.695 25.812H42.5075C42.4658 25.812 42.445 25.8328 42.445 25.8745V30.6662C42.445 31.1558 42.5283 31.4891 42.695 31.6662C42.8617 31.8485 43.1169 31.937 43.4658 31.937H43.6325C43.7262 31.937 43.7783 31.9891 43.7783 32.0828V32.7495C43.7783 32.8641 43.7262 32.9162 43.6325 32.9162H43.2367C42.6117 32.9162 42.1377 32.786 41.82 32.5203C41.4971 32.2599 41.3408 31.7495 41.3408 30.9995V25.8745C41.3408 25.8328 41.32 25.812 41.2783 25.812H40.6742C40.5752 25.812 40.5283 25.7599 40.5283 25.6453V25.1453C40.5283 25.036 40.5752 24.9787 40.6742 24.9787H41.2783C41.32 24.9787 41.3408 24.9578 41.3408 24.9162V23.1662C41.3408 23.0568 41.3929 22.9995 41.5075 22.9995H42.2992C42.3929 22.9995 42.445 23.0568 42.445 23.1662V24.9162C42.445 24.9578 42.4658 24.9787 42.5075 24.9787H43.695C43.8044 24.9787 43.8617 25.036 43.8617 25.1453V25.6453Z" fill="#D72333"/>
<path d="M53.356 22.0412C53.382 21.9735 53.4445 21.937 53.5435 21.937H54.356C54.4653 21.937 54.5226 21.9891 54.5226 22.0828V32.7495C54.5226 32.8641 54.4653 32.9162 54.356 32.9162H53.5643C53.4497 32.9162 53.3976 32.8641 53.3976 32.7495V24.3537C53.3976 24.3276 53.3872 24.312 53.3768 24.312C53.3612 24.312 53.3403 24.3224 53.3143 24.3328L51.6893 27.7287C51.658 27.8016 51.6112 27.8328 51.5435 27.8328C51.4601 27.8328 51.3976 27.8016 51.356 27.7287L49.731 24.3537C49.6997 24.3276 49.6789 24.312 49.6685 24.312C49.6528 24.312 49.6476 24.3328 49.6476 24.3745V32.7495C49.6476 32.8641 49.5955 32.9162 49.5018 32.9162H48.6893C48.5903 32.9162 48.5435 32.8641 48.5435 32.7495V22.0828C48.5435 21.9891 48.5903 21.937 48.6893 21.937H49.5018C49.5955 21.937 49.658 21.9735 49.6893 22.0412L51.481 25.6662C51.4914 25.6974 51.507 25.7078 51.5226 25.7078C51.5487 25.7078 51.5695 25.6974 51.5851 25.6662L53.356 22.0412Z" fill="#D72333"/>
<path d="M58.8851 24.8535C59.6195 24.8535 60.2028 25.0931 60.6351 25.5618C61.0778 26.0358 61.3018 26.6764 61.3018 27.4785V32.7493C61.3018 32.8639 61.2497 32.916 61.1559 32.916H60.3434C60.2445 32.916 60.1976 32.8639 60.1976 32.7493V32.291C60.1976 32.265 60.1872 32.2493 60.1768 32.2493C60.1611 32.2493 60.1403 32.2598 60.1143 32.2702C59.7236 32.7858 59.1455 33.041 58.3851 33.041C57.8018 33.041 57.2913 32.8848 56.8643 32.5618C56.4476 32.2285 56.2393 31.64 56.2393 30.791C56.2393 29.9056 56.4945 29.2598 57.0101 28.8535C57.5205 28.4368 58.1976 28.2285 59.0309 28.2285H60.1351C60.1768 28.2285 60.1976 28.2077 60.1976 28.166V27.541C60.1976 27.0306 60.0726 26.6191 59.8226 26.3118C59.583 25.9941 59.2653 25.8327 58.8643 25.8327C58.5413 25.8327 58.2705 25.9368 58.0518 26.1452C57.8278 26.3535 57.6976 26.6191 57.6559 26.9368C57.6559 27.0514 57.5986 27.1035 57.4893 27.1035L56.6143 27.0827C56.557 27.0827 56.5153 27.0723 56.4893 27.041C56.4736 26.9993 56.4684 26.9577 56.4684 26.916C56.5205 26.3066 56.7705 25.8118 57.2184 25.4368C57.6768 25.0514 58.2288 24.8535 58.8851 24.8535ZM58.6143 32.0618C59.0413 32.0618 59.4111 31.9264 59.7184 31.6452C60.0361 31.3691 60.1976 30.9889 60.1976 30.4993V29.1868C60.1976 29.1452 60.1768 29.1243 60.1351 29.1243H59.0101C58.5101 29.1243 58.1143 29.2598 57.8226 29.5202C57.5309 29.7858 57.3851 30.1816 57.3851 30.7077C57.3851 31.166 57.4945 31.5098 57.7184 31.7285C57.9372 31.9525 58.2393 32.0618 58.6143 32.0618Z" fill="#D72333"/>
<path d="M65.7407 24.895C66.0011 24.895 66.2251 24.9523 66.4074 25.0617C66.4751 25.119 66.5011 25.1867 66.4907 25.27L66.3032 26.0825C66.2876 26.1815 66.2251 26.2179 66.1157 26.1867C65.9907 26.119 65.8293 26.0825 65.6366 26.0825C65.5532 26.0825 65.4907 26.0929 65.4491 26.1034C65.0741 26.1346 64.7616 26.3325 64.5116 26.7075C64.272 27.0721 64.1574 27.52 64.1574 28.0617V32.7492C64.1574 32.8638 64.1053 32.9159 64.0116 32.9159H63.1991C63.1001 32.9159 63.0532 32.8638 63.0532 32.7492V25.145C63.0532 25.0356 63.1001 24.9784 63.1991 24.9784H64.0116C64.1053 24.9784 64.1574 25.0356 64.1574 25.145V26.0825C64.1574 26.1138 64.1626 26.1242 64.1782 26.1242C64.2043 26.1242 64.2251 26.1138 64.2407 26.0825C64.5428 25.2909 65.0428 24.895 65.7407 24.895Z" fill="#D72333"/>
<path d="M73.9889 24.8745C74.6139 24.8745 75.0983 25.1037 75.4473 25.562C75.791 26.0203 75.9681 26.661 75.9681 27.4787V32.7495C75.9681 32.8641 75.9108 32.9162 75.8014 32.9162H75.0306C74.916 32.9162 74.8639 32.8641 74.8639 32.7495V27.562C74.8639 27.036 74.7494 26.6193 74.5306 26.312C74.3066 25.9943 74.0098 25.8328 73.6348 25.8328C73.2441 25.8328 72.9316 25.9891 72.6973 26.2912C72.4733 26.5985 72.3639 27.0151 72.3639 27.5412V32.7495C72.3639 32.8641 72.3066 32.9162 72.1973 32.9162H71.4056C71.291 32.9162 71.2389 32.8641 71.2389 32.7495V27.562C71.2389 27.036 71.1244 26.6193 70.9056 26.312C70.6816 25.9943 70.39 25.8328 70.0306 25.8328C69.64 25.8328 69.3275 25.9891 69.0931 26.2912C68.8535 26.5985 68.7389 27.0151 68.7389 27.5412V32.7495C68.7389 32.8641 68.6816 32.9162 68.5723 32.9162H67.7806C67.6816 32.9162 67.6348 32.8641 67.6348 32.7495V25.1453C67.6348 25.036 67.6816 24.9787 67.7806 24.9787H68.5723C68.6816 24.9787 68.7389 25.036 68.7389 25.1453V25.6245C68.7389 25.6401 68.7441 25.6558 68.7598 25.6662C68.7702 25.6662 68.7858 25.661 68.8014 25.6453C69.0098 25.3849 69.2441 25.187 69.5098 25.062C69.7858 24.937 70.0775 24.8745 70.3848 24.8745C70.7702 24.8745 71.1139 24.9735 71.4056 25.1662C71.6973 25.3641 71.9264 25.6349 72.0931 25.9787C72.1035 26.0099 72.1191 26.0203 72.1348 26.0203C72.1608 26.0203 72.1764 25.9995 72.1764 25.9578C72.3691 25.5828 72.6244 25.312 72.9473 25.1453C73.2806 24.9683 73.6244 24.8745 73.9889 24.8745Z" fill="#D72333"/>
<path d="M82.5321 29.2077C82.5321 29.3223 82.48 29.3743 82.3862 29.3743H78.8029C78.7612 29.3743 78.7404 29.3952 78.7404 29.4368V30.5827C78.7404 31.015 78.8654 31.3691 79.1154 31.6452C79.3654 31.9264 79.6831 32.0618 80.0737 32.0618C80.4071 32.0618 80.6883 31.9681 80.9279 31.7702C81.1623 31.5618 81.3133 31.3014 81.3862 30.9785C81.4279 30.8848 81.4904 30.8327 81.5737 30.8327L82.3446 30.8535C82.3862 30.8535 82.4175 30.8743 82.4487 30.916C82.4904 30.9473 82.5008 30.9889 82.4904 31.041C82.4071 31.6556 82.1466 32.14 81.7196 32.4993C81.3029 32.8639 80.7508 33.041 80.0737 33.041C79.3341 33.041 78.7456 32.8275 78.3029 32.3952C77.855 31.9525 77.6362 31.3691 77.6362 30.6452V27.2493C77.6362 26.541 77.855 25.9681 78.3029 25.5202C78.7456 25.0775 79.3341 24.8535 80.0737 24.8535C80.8237 24.8535 81.4175 25.0775 81.8654 25.5202C82.3081 25.9681 82.5321 26.541 82.5321 27.2493V29.2077ZM80.0737 25.8327C79.6831 25.8327 79.3654 25.9733 79.1154 26.2493C78.8654 26.5306 78.7404 26.89 78.7404 27.3327V28.3743C78.7404 28.416 78.7612 28.4368 78.8029 28.4368H81.3862C81.4279 28.4368 81.4487 28.416 81.4487 28.3743V27.3327C81.4487 26.89 81.3133 26.5306 81.0529 26.2493C80.8029 25.9733 80.4748 25.8327 80.0737 25.8327Z" fill="#D72333"/>
<path d="M84.2511 32.9162C84.1366 32.9162 84.0845 32.8641 84.0845 32.7495V22.0828C84.0845 21.9891 84.1366 21.937 84.2511 21.937H85.0428C85.1522 21.937 85.2095 21.9891 85.2095 22.0828V32.7495C85.2095 32.8641 85.1522 32.9162 85.0428 32.9162H84.2511Z" fill="#D72333"/>
<path d="M89.3416 24.8535C90.076 24.8535 90.6593 25.0931 91.0916 25.5618C91.5343 26.0358 91.7583 26.6764 91.7583 27.4785V32.7493C91.7583 32.8639 91.7062 32.916 91.6125 32.916H90.8C90.701 32.916 90.6541 32.8639 90.6541 32.7493V32.291C90.6541 32.265 90.6437 32.2493 90.6333 32.2493C90.6177 32.2493 90.5968 32.2598 90.5708 32.2702C90.1802 32.7858 89.6021 33.041 88.8416 33.041C88.2583 33.041 87.7479 32.8848 87.3208 32.5618C86.9041 32.2285 86.6958 31.64 86.6958 30.791C86.6958 29.9056 86.951 29.2598 87.4666 28.8535C87.9771 28.4368 88.6541 28.2285 89.4875 28.2285H90.5916C90.6333 28.2285 90.6541 28.2077 90.6541 28.166V27.541C90.6541 27.0306 90.5291 26.6191 90.2791 26.3118C90.0396 25.9941 89.7218 25.8327 89.3208 25.8327C88.9979 25.8327 88.7271 25.9368 88.5083 26.1452C88.2843 26.3535 88.1541 26.6191 88.1125 26.9368C88.1125 27.0514 88.0552 27.1035 87.9458 27.1035L87.0708 27.0827C87.0135 27.0827 86.9718 27.0723 86.9458 27.041C86.9302 26.9993 86.925 26.9577 86.925 26.916C86.9771 26.3066 87.2271 25.8118 87.675 25.4368C88.1333 25.0514 88.6854 24.8535 89.3416 24.8535ZM89.0708 32.0618C89.4979 32.0618 89.8677 31.9264 90.175 31.6452C90.4927 31.3691 90.6541 30.9889 90.6541 30.4993V29.1868C90.6541 29.1452 90.6333 29.1243 90.5916 29.1243H89.4666C88.9666 29.1243 88.5708 29.2598 88.2791 29.5202C87.9875 29.7858 87.8416 30.1816 87.8416 30.7077C87.8416 31.166 87.951 31.5098 88.175 31.7285C88.3937 31.9525 88.6958 32.0618 89.0708 32.0618Z" fill="#D72333"/>
<path d="M97.1136 22.0828C97.1136 21.9891 97.1657 21.937 97.2803 21.937H98.0719C98.1813 21.937 98.2386 21.9891 98.2386 22.0828V32.7495C98.2386 32.8641 98.1813 32.9162 98.0719 32.9162H97.2803C97.1657 32.9162 97.1136 32.8641 97.1136 32.7495V32.4162C97.1136 32.3901 97.1032 32.3745 97.0928 32.3745C97.0771 32.3641 97.0563 32.3641 97.0303 32.3745C96.6396 32.8224 96.1396 33.0412 95.5303 33.0412C94.8636 33.0412 94.3271 32.8224 93.9261 32.3745C93.5355 31.9318 93.3428 31.3537 93.3428 30.6453V27.2495C93.3428 26.5151 93.5355 25.9318 93.9261 25.4995C94.3271 25.0724 94.8636 24.8537 95.5303 24.8537C96.1396 24.8537 96.6396 25.0776 97.0303 25.5203C97.0563 25.5516 97.0771 25.5568 97.0928 25.5412C97.1032 25.5308 97.1136 25.5151 97.1136 25.4995V22.0828ZM95.8011 32.062C96.1865 32.062 96.499 31.9266 96.7386 31.6453C96.9886 31.3693 97.1136 31.0151 97.1136 30.5828V27.3328C97.1136 26.8901 96.9886 26.5308 96.7386 26.2495C96.499 25.9735 96.1865 25.8328 95.8011 25.8328C95.3949 25.8328 95.0615 25.9735 94.8011 26.2495C94.5511 26.5308 94.4261 26.8901 94.4261 27.3328V30.5828C94.4261 31.0151 94.5511 31.3693 94.8011 31.6453C95.0615 31.9266 95.3949 32.062 95.8011 32.062Z" fill="#D72333"/>
<path d="M104.876 29.2077C104.876 29.3223 104.824 29.3743 104.73 29.3743H101.147C101.105 29.3743 101.084 29.3952 101.084 29.4368V30.5827C101.084 31.015 101.209 31.3691 101.459 31.6452C101.709 31.9264 102.027 32.0618 102.417 32.0618C102.751 32.0618 103.032 31.9681 103.272 31.7702C103.506 31.5618 103.657 31.3014 103.73 30.9785C103.772 30.8848 103.834 30.8327 103.917 30.8327L104.688 30.8535C104.73 30.8535 104.761 30.8743 104.792 30.916C104.834 30.9473 104.845 30.9889 104.834 31.041C104.751 31.6556 104.49 32.14 104.063 32.4993C103.647 32.8639 103.095 33.041 102.417 33.041C101.678 33.041 101.089 32.8275 100.647 32.3952C100.199 31.9525 99.98 31.3691 99.98 30.6452V27.2493C99.98 26.541 100.199 25.9681 100.647 25.5202C101.089 25.0775 101.678 24.8535 102.417 24.8535C103.167 24.8535 103.761 25.0775 104.209 25.5202C104.652 25.9681 104.876 26.541 104.876 27.2493V29.2077ZM102.417 25.8327C102.027 25.8327 101.709 25.9733 101.459 26.2493C101.209 26.5306 101.084 26.89 101.084 27.3327V28.3743C101.084 28.416 101.105 28.4368 101.147 28.4368H103.73C103.772 28.4368 103.792 28.416 103.792 28.3743V27.3327C103.792 26.89 103.657 26.5306 103.397 26.2493C103.147 25.9733 102.819 25.8327 102.417 25.8327Z" fill="#D72333"/>
<path d="M116.421 32.7287C116.447 32.7443 116.463 32.7703 116.463 32.812C116.463 32.8433 116.447 32.8693 116.421 32.8953C116.405 32.911 116.379 32.9162 116.338 32.9162H115.483C115.4 32.9162 115.338 32.8849 115.296 32.812L114.65 31.8745C114.65 31.8641 114.634 31.8537 114.608 31.8537C114.593 31.8537 114.577 31.8641 114.567 31.8745C114.176 32.2912 113.775 32.5985 113.358 32.7912C112.952 32.9683 112.494 33.062 111.983 33.062C111.176 33.062 110.535 32.8433 110.067 32.3953C109.593 31.937 109.358 31.3016 109.358 30.4787C109.358 29.7703 109.525 29.161 109.858 28.6453C110.192 28.1349 110.65 27.6245 111.233 27.1245C111.259 27.1141 111.265 27.0828 111.254 27.0412C110.879 26.4891 110.598 26.0568 110.421 25.7495C110.239 25.4318 110.119 25.1662 110.067 24.9578C110.009 24.7391 109.983 24.4943 109.983 24.2287C109.983 23.4943 110.192 22.911 110.608 22.4787C111.025 22.036 111.572 21.812 112.254 21.812C112.931 21.812 113.489 22.036 113.921 22.4787C114.364 22.9266 114.588 23.4995 114.588 24.2078C114.588 24.8485 114.421 25.3953 114.088 25.8537C113.765 26.312 113.301 26.7912 112.692 27.2912C112.66 27.3068 112.66 27.3328 112.692 27.3745C113.108 27.9578 113.41 28.4058 113.608 28.7078L114.588 30.0828C114.588 30.0985 114.593 30.1037 114.608 30.1037C114.634 30.1037 114.655 30.0985 114.671 30.0828C114.822 29.8745 115.072 29.4526 115.421 28.812C115.447 28.7703 115.483 28.7495 115.525 28.7495C115.567 28.7391 115.608 28.7391 115.65 28.7495L116.233 29.1037C116.317 29.161 116.338 29.2391 116.296 29.3328C115.963 29.9474 115.619 30.4943 115.275 30.9787C115.259 31.0099 115.259 31.036 115.275 31.062L116.421 32.7287ZM112.296 22.8328C111.931 22.8328 111.64 22.9683 111.421 23.2287C111.197 23.4787 111.088 23.8224 111.088 24.2495C111.088 24.5412 111.14 24.8224 111.254 25.0828C111.364 25.3485 111.619 25.786 112.025 26.3953C112.035 26.437 112.067 26.4474 112.108 26.4162C112.535 26.0308 112.869 25.6662 113.108 25.3328C113.343 24.9995 113.463 24.6245 113.463 24.2078C113.463 23.7912 113.348 23.4578 113.129 23.2078C112.921 22.9578 112.64 22.8328 112.296 22.8328ZM112.088 32.0828C112.431 32.0828 112.754 31.9995 113.046 31.8328C113.348 31.6558 113.66 31.3901 113.983 31.0412C114.009 30.9995 114.009 30.9683 113.983 30.937L113.233 29.8537L111.921 28.0203C111.905 27.9943 111.884 27.9943 111.858 28.0203C111.4 28.411 111.051 28.7912 110.817 29.1662C110.577 29.5412 110.463 29.9683 110.463 30.437C110.463 30.9266 110.598 31.3224 110.879 31.6245C111.171 31.9318 111.572 32.0828 112.088 32.0828Z" fill="#D72333"/>
<path d="M126.855 29.937C126.855 30.8849 126.595 31.6193 126.085 32.1453C125.585 32.661 124.902 32.9162 124.043 32.9162H121.647C121.533 32.9162 121.48 32.8641 121.48 32.7495V22.0828C121.48 21.9891 121.533 21.937 121.647 21.937H123.897C124.798 21.937 125.507 22.187 126.022 22.687C126.533 23.1766 126.793 23.8849 126.793 24.812C126.793 25.9787 126.355 26.7808 125.48 27.2078C125.465 27.2235 125.46 27.2391 125.46 27.2495C125.46 27.2495 125.46 27.2599 125.46 27.2703C126.387 27.8016 126.855 28.687 126.855 29.937ZM122.668 22.9162C122.626 22.9162 122.605 22.937 122.605 22.9787V26.7495C122.605 26.7912 122.626 26.812 122.668 26.812H123.897C124.465 26.812 124.902 26.6453 125.21 26.312C125.527 25.9787 125.689 25.5099 125.689 24.8953C125.689 24.2703 125.527 23.786 125.21 23.437C124.902 23.0933 124.465 22.9162 123.897 22.9162H122.668ZM123.96 31.937C124.512 31.937 124.944 31.7495 125.251 31.3745C125.569 30.9995 125.73 30.4787 125.73 29.812C125.73 29.1349 125.569 28.6037 125.251 28.2287C124.944 27.8537 124.512 27.6662 123.96 27.6662H122.668C122.626 27.6662 122.605 27.687 122.605 27.7287V31.8745C122.605 31.9162 122.626 31.937 122.668 31.937H123.96Z" fill="#D72333"/>
<path d="M129.025 23.5409C128.76 23.5409 128.546 23.4575 128.38 23.2909C128.223 23.1242 128.15 22.9159 128.15 22.6659C128.15 22.4054 128.223 22.1867 128.38 22.02C128.546 21.8534 128.76 21.77 129.025 21.77C129.275 21.77 129.484 21.8534 129.65 22.02C129.817 22.1867 129.9 22.4054 129.9 22.6659C129.9 22.9159 129.817 23.1242 129.65 23.2909C129.484 23.4575 129.275 23.5409 129.025 23.5409ZM128.63 32.9159C128.531 32.9159 128.484 32.8638 128.484 32.7492V25.145C128.484 25.0356 128.531 24.9784 128.63 24.9784H129.442C129.536 24.9784 129.588 25.0356 129.588 25.145V32.7492C129.588 32.8638 129.536 32.9159 129.442 32.9159H128.63Z" fill="#D72333"/>
<path d="M133.914 33.041C133.164 33.041 132.565 32.8275 132.123 32.3952C131.675 31.9525 131.456 31.3691 131.456 30.6452V27.2702C131.456 26.5618 131.675 25.9889 132.123 25.541C132.565 25.0827 133.164 24.8535 133.914 24.8535C134.664 24.8535 135.258 25.0827 135.706 25.541C136.164 25.9889 136.394 26.5618 136.394 27.2702V30.6452C136.394 31.3691 136.164 31.9525 135.706 32.3952C135.258 32.8275 134.664 33.041 133.914 33.041ZM133.914 32.0618C134.3 32.0618 134.623 31.9264 134.873 31.6452C135.133 31.3691 135.269 31.0098 135.269 30.5618V27.3327C135.269 26.89 135.133 26.5306 134.873 26.2493C134.623 25.9733 134.3 25.8327 133.914 25.8327C133.508 25.8327 133.185 25.9733 132.935 26.2493C132.685 26.5306 132.56 26.89 132.56 27.3327V30.5618C132.56 31.0098 132.685 31.3691 132.935 31.6452C133.185 31.9264 133.508 32.0618 133.914 32.0618Z" fill="#D72333"/>
<path d="M137.843 28.5202C137.728 28.5202 137.676 28.4733 137.676 28.3743V27.7077C137.676 27.5983 137.728 27.541 137.843 27.541H141.426C141.536 27.541 141.593 27.5983 141.593 27.7077V28.3743C141.593 28.4733 141.536 28.5202 141.426 28.5202H137.843Z" fill="#D72333"/>
<path d="M148.587 29.937C148.587 30.8849 148.327 31.6193 147.817 32.1453C147.317 32.661 146.634 32.9162 145.775 32.9162H143.379C143.264 32.9162 143.212 32.8641 143.212 32.7495V22.0828C143.212 21.9891 143.264 21.937 143.379 21.937H145.629C146.53 21.937 147.238 22.187 147.754 22.687C148.264 23.1766 148.525 23.8849 148.525 24.812C148.525 25.9787 148.087 26.7808 147.212 27.2078C147.197 27.2235 147.192 27.2391 147.192 27.2495C147.192 27.2495 147.192 27.2599 147.192 27.2703C148.119 27.8016 148.587 28.687 148.587 29.937ZM144.4 22.9162C144.358 22.9162 144.337 22.937 144.337 22.9787V26.7495C144.337 26.7912 144.358 26.812 144.4 26.812H145.629C146.197 26.812 146.634 26.6453 146.942 26.312C147.259 25.9787 147.421 25.5099 147.421 24.8953C147.421 24.2703 147.259 23.786 146.942 23.437C146.634 23.0933 146.197 22.9162 145.629 22.9162H144.4ZM145.692 31.937C146.244 31.937 146.676 31.7495 146.983 31.3745C147.301 30.9995 147.462 30.4787 147.462 29.812C147.462 29.1349 147.301 28.6037 146.983 28.2287C146.676 27.8537 146.244 27.6662 145.692 27.6662H144.4C144.358 27.6662 144.337 27.687 144.337 27.7287V31.8745C144.337 31.9162 144.358 31.937 144.4 31.937H145.692Z" fill="#D72333"/>
<path d="M153.716 25.1452C153.716 25.0358 153.763 24.9785 153.862 24.9785H154.674C154.768 24.9785 154.82 25.0358 154.82 25.1452V32.7493C154.82 32.8639 154.768 32.916 154.674 32.916H153.862C153.763 32.916 153.716 32.8639 153.716 32.7493V32.2285C153.716 32.2025 153.706 32.1868 153.695 32.1868C153.68 32.1868 153.659 32.1973 153.633 32.2077C153.31 32.7493 152.789 33.0202 152.07 33.0202C151.445 33.0202 150.945 32.8327 150.57 32.4577C150.195 32.0723 150.008 31.4941 150.008 30.7285V25.1452C150.008 25.0358 150.06 24.9785 150.174 24.9785H150.966C151.076 24.9785 151.133 25.0358 151.133 25.1452V30.4785C151.133 30.9941 151.237 31.39 151.445 31.666C151.664 31.9316 151.977 32.0618 152.383 32.0618C152.799 32.0618 153.122 31.9108 153.362 31.6035C153.596 31.3014 153.716 30.8848 153.716 30.3535V25.1452Z" fill="#D72333"/>
<path d="M159.535 25.6453C159.535 25.7599 159.478 25.812 159.369 25.812H158.181C158.14 25.812 158.119 25.8328 158.119 25.8745V30.6662C158.119 31.1558 158.202 31.4891 158.369 31.6662C158.535 31.8485 158.791 31.937 159.14 31.937H159.306C159.4 31.937 159.452 31.9891 159.452 32.0828V32.7495C159.452 32.8641 159.4 32.9162 159.306 32.9162H158.91C158.285 32.9162 157.812 32.786 157.494 32.5203C157.171 32.2599 157.015 31.7495 157.015 30.9995V25.8745C157.015 25.8328 156.994 25.812 156.952 25.812H156.348C156.249 25.812 156.202 25.7599 156.202 25.6453V25.1453C156.202 25.036 156.249 24.9787 156.348 24.9787H156.952C156.994 24.9787 157.015 24.9578 157.015 24.9162V23.1662C157.015 23.0568 157.067 22.9995 157.181 22.9995H157.973C158.067 22.9995 158.119 23.0568 158.119 23.1662V24.9162C158.119 24.9578 158.14 24.9787 158.181 24.9787H159.369C159.478 24.9787 159.535 25.036 159.535 25.1453V25.6453Z" fill="#D72333"/>
<path d="M163.725 25.6453C163.725 25.7599 163.668 25.812 163.558 25.812H162.371C162.329 25.812 162.308 25.8328 162.308 25.8745V30.6662C162.308 31.1558 162.392 31.4891 162.558 31.6662C162.725 31.8485 162.98 31.937 163.329 31.937H163.496C163.59 31.937 163.642 31.9891 163.642 32.0828V32.7495C163.642 32.8641 163.59 32.9162 163.496 32.9162H163.1C162.475 32.9162 162.001 32.786 161.683 32.5203C161.36 32.2599 161.204 31.7495 161.204 30.9995V25.8745C161.204 25.8328 161.183 25.812 161.142 25.812H160.537C160.438 25.812 160.392 25.7599 160.392 25.6453V25.1453C160.392 25.036 160.438 24.9787 160.537 24.9787H161.142C161.183 24.9787 161.204 24.9578 161.204 24.9162V23.1662C161.204 23.0568 161.256 22.9995 161.371 22.9995H162.162C162.256 22.9995 162.308 23.0568 162.308 23.1662V24.9162C162.308 24.9578 162.329 24.9787 162.371 24.9787H163.558C163.668 24.9787 163.725 25.036 163.725 25.1453V25.6453Z" fill="#D72333"/>
<path d="M169.852 29.2077C169.852 29.3223 169.8 29.3743 169.706 29.3743H166.123C166.081 29.3743 166.06 29.3952 166.06 29.4368V30.5827C166.06 31.015 166.185 31.3691 166.435 31.6452C166.685 31.9264 167.003 32.0618 167.394 32.0618C167.727 32.0618 168.008 31.9681 168.248 31.7702C168.482 31.5618 168.633 31.3014 168.706 30.9785C168.748 30.8848 168.81 30.8327 168.894 30.8327L169.664 30.8535C169.706 30.8535 169.737 30.8743 169.769 30.916C169.81 30.9473 169.821 30.9889 169.81 31.041C169.727 31.6556 169.466 32.14 169.039 32.4993C168.623 32.8639 168.071 33.041 167.394 33.041C166.654 33.041 166.065 32.8275 165.623 32.3952C165.175 31.9525 164.956 31.3691 164.956 30.6452V27.2493C164.956 26.541 165.175 25.9681 165.623 25.5202C166.065 25.0775 166.654 24.8535 167.394 24.8535C168.144 24.8535 168.737 25.0775 169.185 25.5202C169.628 25.9681 169.852 26.541 169.852 27.2493V29.2077ZM167.394 25.8327C167.003 25.8327 166.685 25.9733 166.435 26.2493C166.185 26.5306 166.06 26.89 166.06 27.3327V28.3743C166.06 28.416 166.081 28.4368 166.123 28.4368H168.706C168.748 28.4368 168.769 28.416 168.769 28.3743V27.3327C168.769 26.89 168.633 26.5306 168.373 26.2493C168.123 25.9733 167.795 25.8327 167.394 25.8327Z" fill="#D72333"/>
<path d="M174.197 24.895C174.457 24.895 174.681 24.9523 174.863 25.0617C174.931 25.119 174.957 25.1867 174.947 25.27L174.759 26.0825C174.744 26.1815 174.681 26.2179 174.572 26.1867C174.447 26.119 174.285 26.0825 174.093 26.0825C174.009 26.0825 173.947 26.0929 173.905 26.1034C173.53 26.1346 173.218 26.3325 172.968 26.7075C172.728 27.0721 172.613 27.52 172.613 28.0617V32.7492C172.613 32.8638 172.561 32.9159 172.468 32.9159H171.655C171.556 32.9159 171.509 32.8638 171.509 32.7492V25.145C171.509 25.0356 171.556 24.9784 171.655 24.9784H172.468C172.561 24.9784 172.613 25.0356 172.613 25.145V26.0825C172.613 26.1138 172.619 26.1242 172.634 26.1242C172.66 26.1242 172.681 26.1138 172.697 26.0825C172.999 25.2909 173.499 24.895 174.197 24.895Z" fill="#D72333"/>
<path d="M18.5208 45.1198C18.5208 45.4583 18.4531 45.776 18.3281 46.0885C18.1979 46.3958 18.0156 46.6719 17.7812 46.9062C17.5417 47.1458 17.2708 47.3281 16.9583 47.4531C16.651 47.5833 16.3281 47.6458 15.9948 47.6458C15.6615 47.6458 15.3385 47.5833 15.026 47.4531C14.7187 47.3281 14.4427 47.1458 14.2083 46.9062C13.974 46.6719 13.7865 46.3958 13.6615 46.0885C13.5312 45.776 13.4688 45.4583 13.4688 45.1198C13.4688 44.7865 13.5312 44.4635 13.6615 44.1562C13.7865 43.8437 13.974 43.5729 14.2083 43.3333C14.4427 43.099 14.7187 42.9167 15.026 42.7865C15.3385 42.6615 15.6615 42.5938 15.9948 42.5938C16.3281 42.5938 16.651 42.6615 16.9583 42.7865C17.2708 42.9167 17.5417 43.099 17.7812 43.3333C18.0156 43.5729 18.1979 43.8437 18.3281 44.1562C18.4531 44.4635 18.5208 44.7865 18.5208 45.1198Z" fill="#D72333"/>
<path d="M33.9928 42.1304C34.6178 42.1304 35.1022 42.3595 35.4512 42.8179C35.7949 43.2762 35.972 43.9168 35.972 44.7345V50.0054C35.972 50.12 35.9147 50.172 35.8053 50.172H35.0345C34.9199 50.172 34.8678 50.12 34.8678 50.0054V44.8179C34.8678 44.2918 34.7533 43.8752 34.5345 43.5679C34.3105 43.2502 34.0137 43.0887 33.6387 43.0887C33.248 43.0887 32.9355 43.245 32.7012 43.547C32.4772 43.8543 32.3678 44.271 32.3678 44.797V50.0054C32.3678 50.12 32.3105 50.172 32.2012 50.172H31.4095C31.2949 50.172 31.2428 50.12 31.2428 50.0054V44.8179C31.2428 44.2918 31.1283 43.8752 30.9095 43.5679C30.6855 43.2502 30.3939 43.0887 30.0345 43.0887C29.6439 43.0887 29.3314 43.245 29.097 43.547C28.8574 43.8543 28.7428 44.271 28.7428 44.797V50.0054C28.7428 50.12 28.6855 50.172 28.5762 50.172H27.7845C27.6855 50.172 27.6387 50.12 27.6387 50.0054V42.4012C27.6387 42.2918 27.6855 42.2345 27.7845 42.2345H28.5762C28.6855 42.2345 28.7428 42.2918 28.7428 42.4012V42.8804C28.7428 42.896 28.748 42.9116 28.7637 42.922C28.7741 42.922 28.7897 42.9168 28.8053 42.9012C29.0137 42.6408 29.248 42.4429 29.5137 42.3179C29.7897 42.1929 30.0814 42.1304 30.3887 42.1304C30.7741 42.1304 31.1178 42.2293 31.4095 42.422C31.7012 42.62 31.9303 42.8908 32.097 43.2345C32.1074 43.2658 32.123 43.2762 32.1387 43.2762C32.1647 43.2762 32.1803 43.2554 32.1803 43.2137C32.373 42.8387 32.6283 42.5679 32.9512 42.4012C33.2845 42.2241 33.6283 42.1304 33.9928 42.1304Z" fill="#D72333"/>
<path d="M38.4731 40.7972C38.2075 40.7972 37.994 40.7139 37.8273 40.5472C37.6711 40.3805 37.5981 40.1722 37.5981 39.9222C37.5981 39.6618 37.6711 39.443 37.8273 39.2764C37.994 39.1097 38.2075 39.0264 38.4731 39.0264C38.7231 39.0264 38.9315 39.1097 39.0981 39.2764C39.2648 39.443 39.3481 39.6618 39.3481 39.9222C39.3481 40.1722 39.2648 40.3805 39.0981 40.5472C38.9315 40.7139 38.7231 40.7972 38.4731 40.7972ZM38.0773 50.1722C37.9784 50.1722 37.9315 50.1201 37.9315 50.0055V42.4014C37.9315 42.292 37.9784 42.2347 38.0773 42.2347H38.8898C38.9836 42.2347 39.0356 42.292 39.0356 42.4014V50.0055C39.0356 50.1201 38.9836 50.1722 38.8898 50.1722H38.0773Z" fill="#D72333"/>
<path d="M43.8617 42.9012C43.8617 43.0158 43.8044 43.0679 43.695 43.0679H42.5075C42.4658 43.0679 42.445 43.0887 42.445 43.1304V47.922C42.445 48.4116 42.5283 48.745 42.695 48.922C42.8617 49.1043 43.1169 49.1929 43.4658 49.1929H43.6325C43.7262 49.1929 43.7783 49.245 43.7783 49.3387V50.0054C43.7783 50.12 43.7262 50.172 43.6325 50.172H43.2367C42.6117 50.172 42.1377 50.0418 41.82 49.7762C41.4971 49.5158 41.3408 49.0054 41.3408 48.2554V43.1304C41.3408 43.0887 41.32 43.0679 41.2783 43.0679H40.6742C40.5752 43.0679 40.5283 43.0158 40.5283 42.9012V42.4012C40.5283 42.2918 40.5752 42.2345 40.6742 42.2345H41.2783C41.32 42.2345 41.3408 42.2137 41.3408 42.172V40.422C41.3408 40.3127 41.3929 40.2554 41.5075 40.2554H42.2992C42.3929 40.2554 42.445 40.3127 42.445 40.422V42.172C42.445 42.2137 42.4658 42.2345 42.5075 42.2345H43.695C43.8044 42.2345 43.8617 42.2918 43.8617 42.4012V42.9012Z" fill="#D72333"/>
<path d="M52.9603 39.3387C52.9603 39.245 53.0124 39.1929 53.127 39.1929H53.8978C54.0072 39.1929 54.0645 39.245 54.0645 39.3387V50.0054C54.0645 50.12 54.0072 50.172 53.8978 50.172H52.9811C52.8978 50.172 52.8405 50.1304 52.8145 50.047L49.752 41.9429C49.7363 41.9012 49.7155 41.8908 49.6895 41.9012C49.6738 41.9012 49.6686 41.9168 49.6686 41.9429L49.6895 50.0054C49.6895 50.12 49.6322 50.172 49.5228 50.172H48.7311C48.6165 50.172 48.5645 50.12 48.5645 50.0054V39.3387C48.5645 39.245 48.6165 39.1929 48.7311 39.1929H49.627C49.7103 39.1929 49.7728 39.2345 49.8145 39.3179L52.877 47.4429C52.8874 47.4741 52.903 47.4845 52.9186 47.4845C52.9447 47.4741 52.9603 47.4533 52.9603 47.422V39.3387Z" fill="#D72333"/>
<path d="M58.4251 50.2969C57.6751 50.2969 57.0762 50.0833 56.6335 49.651C56.1855 49.2083 55.9668 48.625 55.9668 47.901V44.526C55.9668 43.8177 56.1855 43.2448 56.6335 42.7969C57.0762 42.3385 57.6751 42.1094 58.4251 42.1094C59.1751 42.1094 59.7689 42.3385 60.2168 42.7969C60.6751 43.2448 60.9043 43.8177 60.9043 44.526V47.901C60.9043 48.625 60.6751 49.2083 60.2168 49.651C59.7689 50.0833 59.1751 50.2969 58.4251 50.2969ZM58.4251 49.3177C58.8105 49.3177 59.1335 49.1823 59.3835 48.901C59.6439 48.625 59.7793 48.2656 59.7793 47.8177V44.5885C59.7793 44.1458 59.6439 43.7865 59.3835 43.5052C59.1335 43.2292 58.8105 43.0885 58.4251 43.0885C58.0189 43.0885 57.696 43.2292 57.446 43.5052C57.196 43.7865 57.071 44.1458 57.071 44.5885V47.8177C57.071 48.2656 57.196 48.625 57.446 48.901C57.696 49.1823 58.0189 49.3177 58.4251 49.3177Z" fill="#D72333"/>
<path d="M66.2703 42.401C66.2703 42.2917 66.3172 42.2344 66.4162 42.2344H67.2287C67.3224 42.2344 67.3745 42.2917 67.3745 42.401V50.0052C67.3745 50.1198 67.3224 50.1719 67.2287 50.1719H66.4162C66.3172 50.1719 66.2703 50.1198 66.2703 50.0052V49.4844C66.2703 49.4583 66.2599 49.4427 66.2495 49.4427C66.2339 49.4427 66.2131 49.4531 66.187 49.4635C65.8641 50.0052 65.3433 50.276 64.6245 50.276C63.9995 50.276 63.4995 50.0885 63.1245 49.7135C62.7495 49.3281 62.562 48.75 62.562 47.9844V42.401C62.562 42.2917 62.6141 42.2344 62.7287 42.2344H63.5203C63.6297 42.2344 63.687 42.2917 63.687 42.401V47.7344C63.687 48.25 63.7912 48.6458 63.9995 48.9219C64.2183 49.1875 64.5308 49.3177 64.937 49.3177C65.3537 49.3177 65.6766 49.1667 65.9162 48.8594C66.1506 48.5573 66.2703 48.1406 66.2703 47.6094V42.401Z" fill="#D72333"/>
<path d="M72.9022 42.401C72.9022 42.2917 72.9543 42.2344 73.0688 42.2344H73.8605C73.9699 42.2344 74.0272 42.2917 74.0272 42.401V50.0052C74.0272 51.1302 73.7616 51.9844 73.2355 52.5677C72.7199 53.151 71.8605 53.4115 70.6522 53.3594C70.5376 53.3438 70.4855 53.2865 70.4855 53.1927V52.5052C70.4855 52.4062 70.5376 52.3594 70.6522 52.3594C71.4855 52.3698 72.0688 52.1771 72.4022 51.776C72.7355 51.3698 72.9022 50.7552 72.9022 49.9219V49.4427C72.9022 49.4323 72.8918 49.4167 72.8813 49.401C72.8657 49.3906 72.8449 49.3958 72.8188 49.4219C72.6522 49.6875 72.4282 49.8906 72.1522 50.026C71.8709 50.151 71.5741 50.2135 71.2563 50.2135C70.6001 50.2135 70.0793 50 69.6938 49.5677C69.3188 49.125 69.1313 48.5417 69.1313 47.8177V44.5052C69.1313 43.7708 69.3188 43.1875 69.6938 42.7552C70.0793 42.3281 70.6001 42.1094 71.2563 42.1094C71.5741 42.1094 71.8709 42.1823 72.1522 42.3177C72.4282 42.4427 72.6522 42.6406 72.8188 42.901C72.8449 42.9323 72.8657 42.9427 72.8813 42.9427C72.8918 42.9323 72.9022 42.9115 72.9022 42.8802V42.401ZM71.5897 49.2552C71.9751 49.2552 72.2876 49.1198 72.5272 48.8385C72.7772 48.5625 72.9022 48.2031 72.9022 47.7552V44.5885C72.9022 44.1458 72.7772 43.7865 72.5272 43.5052C72.2876 43.2292 71.9751 43.0885 71.5897 43.0885C71.1834 43.0885 70.8605 43.2292 70.6105 43.5052C70.3605 43.7865 70.2355 44.1458 70.2355 44.5885V47.7552C70.2355 48.2031 70.3605 48.5625 70.6105 48.8385C70.8605 49.1198 71.1834 49.2552 71.5897 49.2552Z" fill="#D72333"/>
<path d="M78.0911 42.1094C78.8255 42.1094 79.4089 42.349 79.8411 42.8177C80.2839 43.2917 80.5078 43.9323 80.5078 44.7344V50.0052C80.5078 50.1198 80.4557 50.1719 80.362 50.1719H79.5495C79.4505 50.1719 79.4036 50.1198 79.4036 50.0052V49.5469C79.4036 49.5208 79.3932 49.5052 79.3828 49.5052C79.3672 49.5052 79.3464 49.5156 79.3203 49.526C78.9297 50.0417 78.3516 50.2969 77.5911 50.2969C77.0078 50.2969 76.4974 50.1406 76.0703 49.8177C75.6536 49.4844 75.4453 48.8958 75.4453 48.0469C75.4453 47.1615 75.7005 46.5156 76.2161 46.1094C76.7266 45.6927 77.4036 45.4844 78.237 45.4844H79.3411C79.3828 45.4844 79.4036 45.4635 79.4036 45.4219V44.7969C79.4036 44.2865 79.2786 43.875 79.0286 43.5677C78.7891 43.25 78.4714 43.0885 78.0703 43.0885C77.7474 43.0885 77.4766 43.1927 77.2578 43.401C77.0339 43.6094 76.9036 43.875 76.862 44.1927C76.862 44.3073 76.8047 44.3594 76.6953 44.3594L75.8203 44.3385C75.763 44.3385 75.7214 44.3281 75.6953 44.2969C75.6797 44.2552 75.6745 44.2135 75.6745 44.1719C75.7266 43.5625 75.9766 43.0677 76.4245 42.6927C76.8828 42.3073 77.4349 42.1094 78.0911 42.1094ZM77.8203 49.3177C78.2474 49.3177 78.6172 49.1823 78.9245 48.901C79.2422 48.625 79.4036 48.2448 79.4036 47.7552V46.4427C79.4036 46.401 79.3828 46.3802 79.3411 46.3802H78.2161C77.7161 46.3802 77.3203 46.5156 77.0286 46.776C76.737 47.0417 76.5911 47.4375 76.5911 47.9635C76.5911 48.4219 76.7005 48.7656 76.9245 48.9844C77.1432 49.2083 77.4453 49.3177 77.8203 49.3177Z" fill="#D72333"/>
<path d="M85.0506 42.9012C85.0506 43.0158 84.9933 43.0679 84.884 43.0679H83.6965C83.6548 43.0679 83.634 43.0887 83.634 43.1304V47.922C83.634 48.4116 83.7173 48.745 83.884 48.922C84.0506 49.1043 84.3058 49.1929 84.6548 49.1929H84.8215C84.9152 49.1929 84.9673 49.245 84.9673 49.3387V50.0054C84.9673 50.12 84.9152 50.172 84.8215 50.172H84.4256C83.8006 50.172 83.3267 50.0418 83.009 49.7762C82.686 49.5158 82.5298 49.0054 82.5298 48.2554V43.1304C82.5298 43.0887 82.509 43.0679 82.4673 43.0679H81.8631C81.7642 43.0679 81.7173 43.0158 81.7173 42.9012V42.4012C81.7173 42.2918 81.7642 42.2345 81.8631 42.2345H82.4673C82.509 42.2345 82.5298 42.2137 82.5298 42.172V40.422C82.5298 40.3127 82.5819 40.2554 82.6965 40.2554H83.4881C83.5819 40.2554 83.634 40.3127 83.634 40.422V42.172C83.634 42.2137 83.6548 42.2345 83.6965 42.2345H84.884C84.9933 42.2345 85.0506 42.2918 85.0506 42.4012V42.9012Z" fill="#D72333"/>
<path d="M88.7192 50.2969C87.9797 50.2969 87.3911 50.0833 86.9484 49.651C86.5005 49.2083 86.2817 48.625 86.2817 47.901V44.5052C86.2817 43.7969 86.5005 43.224 86.9484 42.776C87.3911 42.3333 87.9797 42.1094 88.7192 42.1094C89.2192 42.1094 89.6567 42.2135 90.0317 42.4219C90.4067 42.6198 90.688 42.8802 90.8859 43.2135C91.0942 43.5365 91.1984 43.8958 91.1984 44.2969V44.4427C91.1984 44.5573 91.1463 44.6094 91.0526 44.6094L90.2401 44.6302C90.1411 44.6302 90.0942 44.5833 90.0942 44.4844V44.3594C90.0942 44.026 89.9588 43.7344 89.6984 43.4844C89.4484 43.224 89.1203 43.0885 88.7192 43.0885C88.3286 43.0885 88.0109 43.2292 87.7609 43.5052C87.5109 43.7865 87.3859 44.1458 87.3859 44.5885V47.8177C87.3859 48.2656 87.5109 48.625 87.7609 48.901C88.0109 49.1823 88.3286 49.3177 88.7192 49.3177C89.1203 49.3177 89.4484 49.1927 89.6984 48.9427C89.9588 48.6823 90.0942 48.3802 90.0942 48.0469V47.9219C90.0942 47.8281 90.1411 47.776 90.2401 47.776L91.0526 47.7969C91.1463 47.7969 91.1984 47.849 91.1984 47.9427V48.1094C91.1984 48.75 90.9692 49.276 90.5109 49.6927C90.063 50.099 89.4692 50.2969 88.7192 50.2969Z" fill="#D72333"/>
<path d="M95.4438 42.1514C95.7043 42.1514 95.9282 42.2087 96.1105 42.318C96.1782 42.3753 96.2043 42.443 96.1938 42.5264L96.0063 43.3389C95.9907 43.4378 95.9282 43.4743 95.8188 43.443C95.6938 43.3753 95.5324 43.3389 95.3397 43.3389C95.2563 43.3389 95.1938 43.3493 95.1522 43.3597C94.7772 43.3909 94.4647 43.5889 94.2147 43.9639C93.9751 44.3285 93.8605 44.7764 93.8605 45.318V50.0055C93.8605 50.1201 93.8084 50.1722 93.7147 50.1722H92.9022C92.8032 50.1722 92.7563 50.1201 92.7563 50.0055V42.4014C92.7563 42.292 92.8032 42.2347 92.9022 42.2347H93.7147C93.8084 42.2347 93.8605 42.292 93.8605 42.4014V43.3389C93.8605 43.3701 93.8657 43.3805 93.8813 43.3805C93.9074 43.3805 93.9282 43.3701 93.9438 43.3389C94.2459 42.5472 94.7459 42.1514 95.4438 42.1514Z" fill="#D72333"/>
<path d="M102.067 46.4635C102.067 46.5781 102.015 46.6302 101.921 46.6302H98.3381C98.2964 46.6302 98.2756 46.651 98.2756 46.6927V47.8385C98.2756 48.2708 98.4006 48.625 98.6506 48.901C98.9006 49.1823 99.2183 49.3177 99.6089 49.3177C99.9422 49.3177 100.223 49.224 100.463 49.026C100.697 48.8177 100.848 48.5573 100.921 48.2344C100.963 48.1406 101.026 48.0885 101.109 48.0885L101.88 48.1094C101.921 48.1094 101.953 48.1302 101.984 48.1719C102.026 48.2031 102.036 48.2448 102.026 48.2969C101.942 48.9115 101.682 49.3958 101.255 49.7552C100.838 50.1198 100.286 50.2969 99.6089 50.2969C98.8693 50.2969 98.2808 50.0833 97.8381 49.651C97.3901 49.2083 97.1714 48.625 97.1714 47.901V44.5052C97.1714 43.7969 97.3901 43.224 97.8381 42.776C98.2808 42.3333 98.8693 42.1094 99.6089 42.1094C100.359 42.1094 100.953 42.3333 101.401 42.776C101.843 43.224 102.067 43.7969 102.067 44.5052V46.4635ZM99.6089 43.0885C99.2183 43.0885 98.9006 43.2292 98.6506 43.5052C98.4006 43.7865 98.2756 44.1458 98.2756 44.5885V45.6302C98.2756 45.6719 98.2964 45.6927 98.3381 45.6927H100.921C100.963 45.6927 100.984 45.6719 100.984 45.6302V44.5885C100.984 44.1458 100.848 43.7865 100.588 43.5052C100.338 43.2292 100.01 43.0885 99.6089 43.0885Z" fill="#D72333"/>
<path d="M110.078 42.1304C110.703 42.1304 111.188 42.3595 111.537 42.8179C111.88 43.2762 112.057 43.9168 112.057 44.7345V50.0054C112.057 50.12 112 50.172 111.891 50.172H111.12C111.005 50.172 110.953 50.12 110.953 50.0054V44.8179C110.953 44.2918 110.839 43.8752 110.62 43.5679C110.396 43.2502 110.099 43.0887 109.724 43.0887C109.333 43.0887 109.021 43.245 108.787 43.547C108.563 43.8543 108.453 44.271 108.453 44.797V50.0054C108.453 50.12 108.396 50.172 108.287 50.172H107.495C107.38 50.172 107.328 50.12 107.328 50.0054V44.8179C107.328 44.2918 107.214 43.8752 106.995 43.5679C106.771 43.2502 106.479 43.0887 106.12 43.0887C105.729 43.0887 105.417 43.245 105.182 43.547C104.943 43.8543 104.828 44.271 104.828 44.797V50.0054C104.828 50.12 104.771 50.172 104.662 50.172H103.87C103.771 50.172 103.724 50.12 103.724 50.0054V42.4012C103.724 42.2918 103.771 42.2345 103.87 42.2345H104.662C104.771 42.2345 104.828 42.2918 104.828 42.4012V42.8804C104.828 42.896 104.833 42.9116 104.849 42.922C104.86 42.922 104.875 42.9168 104.891 42.9012C105.099 42.6408 105.333 42.4429 105.599 42.3179C105.875 42.1929 106.167 42.1304 106.474 42.1304C106.86 42.1304 107.203 42.2293 107.495 42.422C107.787 42.62 108.016 42.8908 108.182 43.2345C108.193 43.2658 108.208 43.2762 108.224 43.2762C108.25 43.2762 108.266 43.2554 108.266 43.2137C108.458 42.8387 108.714 42.5679 109.037 42.4012C109.37 42.2241 109.714 42.1304 110.078 42.1304Z" fill="#D72333"/>
<path d="M118.621 46.4635C118.621 46.5781 118.569 46.6302 118.475 46.6302H114.892C114.85 46.6302 114.829 46.651 114.829 46.6927V47.8385C114.829 48.2708 114.954 48.625 115.204 48.901C115.454 49.1823 115.772 49.3177 116.163 49.3177C116.496 49.3177 116.777 49.224 117.017 49.026C117.251 48.8177 117.402 48.5573 117.475 48.2344C117.517 48.1406 117.579 48.0885 117.663 48.0885L118.433 48.1094C118.475 48.1094 118.506 48.1302 118.538 48.1719C118.579 48.2031 118.59 48.2448 118.579 48.2969C118.496 48.9115 118.236 49.3958 117.808 49.7552C117.392 50.1198 116.84 50.2969 116.163 50.2969C115.423 50.2969 114.834 50.0833 114.392 49.651C113.944 49.2083 113.725 48.625 113.725 47.901V44.5052C113.725 43.7969 113.944 43.224 114.392 42.776C114.834 42.3333 115.423 42.1094 116.163 42.1094C116.913 42.1094 117.506 42.3333 117.954 42.776C118.397 43.224 118.621 43.7969 118.621 44.5052V46.4635ZM116.163 43.0885C115.772 43.0885 115.454 43.2292 115.204 43.5052C114.954 43.7865 114.829 44.1458 114.829 44.5885V45.6302C114.829 45.6719 114.85 45.6927 114.892 45.6927H117.475C117.517 45.6927 117.538 45.6719 117.538 45.6302V44.5885C117.538 44.1458 117.402 43.7865 117.142 43.5052C116.892 43.2292 116.564 43.0885 116.163 43.0885Z" fill="#D72333"/>
<mask id="mask2_24_6438" style="mask-type:luminance" maskUnits="userSpaceOnUse" x="0" y="54" width="5" height="8">
<path d="M0 54.6665H4.35417V61.3332H0V54.6665Z" fill="white"/>
</mask>
<g mask="url(#mask2_24_6438)">
<path d="M3.04216 61.1151C2.98486 61.1151 2.94841 61.089 2.93799 61.0317L2.70882 59.9067C2.70882 59.8963 2.69841 59.8859 2.68799 59.8859C2.68799 59.8859 2.67757 59.8859 2.66716 59.8859H1.02132C1.02132 59.8859 1.0109 59.8859 1.00049 59.8859C0.984863 59.8859 0.979655 59.8963 0.979655 59.9067L0.750488 61.0317C0.750488 61.089 0.719238 61.1151 0.667155 61.1151H0.208822C0.167155 61.1151 0.135904 61.1099 0.125488 61.0942C0.109863 61.0682 0.109863 61.0422 0.125488 61.0109L1.47966 54.8651C1.49007 54.813 1.52653 54.7817 1.58382 54.7817H2.12549C2.17757 54.7817 2.20882 54.813 2.20882 54.8651L3.58382 61.0109V61.0317C3.58382 61.089 3.55257 61.1151 3.50049 61.1151H3.04216ZM1.10466 59.3234C1.10466 59.339 1.10986 59.3442 1.12549 59.3442H2.56299C2.57341 59.3442 2.58382 59.339 2.58382 59.3234L1.85466 55.7609C1.85466 55.7505 1.84424 55.7401 1.83382 55.7401C1.83382 55.7401 1.83382 55.7505 1.83382 55.7609L1.10466 59.3234Z" fill="#D72333"/>
</g>
<path d="M7.55387 61.1776C7.07992 61.1776 6.70492 61.0422 6.42887 60.7609C6.14762 60.4849 6.01221 60.1047 6.01221 59.6151V56.2609C6.01221 55.8026 6.14762 55.438 6.42887 55.1567C6.70492 54.8651 7.07992 54.7192 7.55387 54.7192C8.02262 54.7192 8.39762 54.8599 8.67887 55.1359C8.95492 55.4172 9.09554 55.7922 9.09554 56.2609V56.4276C9.09554 56.4849 9.06429 56.5109 9.01221 56.5109L8.53304 56.5317C8.47575 56.5317 8.44971 56.5057 8.44971 56.4484V56.2192C8.44971 55.9432 8.36637 55.7192 8.19971 55.5526C8.03304 55.3755 7.81429 55.2817 7.55387 55.2817C7.28825 55.2817 7.07471 55.3755 6.90804 55.5526C6.74137 55.7192 6.65804 55.9432 6.65804 56.2192V59.6776C6.65804 59.9588 6.74137 60.188 6.90804 60.3651C7.07471 60.5474 7.28825 60.6359 7.55387 60.6359C7.81429 60.6359 8.03304 60.5474 8.19971 60.3651C8.36637 60.188 8.44971 59.9588 8.44971 59.6776V59.4484C8.44971 59.3963 8.47575 59.3651 8.53304 59.3651L9.01221 59.3859C9.06429 59.3859 9.09554 59.4172 9.09554 59.4692V59.6151C9.09554 60.1047 8.94971 60.4849 8.65804 60.7609C8.37679 61.0422 8.01221 61.1776 7.55387 61.1776Z" fill="#D72333"/>
<path d="M13.3908 61.1776C12.9168 61.1776 12.5418 61.0474 12.2658 60.7817C11.9845 60.5057 11.8491 60.1359 11.8491 59.6776V56.2192C11.8491 55.7609 11.9845 55.4015 12.2658 55.1359C12.5418 54.8599 12.9168 54.7192 13.3908 54.7192C13.8491 54.7192 14.2137 54.8599 14.495 55.1359C14.771 55.4172 14.9116 55.7817 14.9116 56.2401V56.6151C14.9116 56.688 14.8804 56.7192 14.8283 56.7192H14.37C14.3127 56.7192 14.2866 56.688 14.2866 56.6151V56.2192C14.2866 55.9276 14.2033 55.6984 14.0366 55.5317C13.87 55.3651 13.6512 55.2817 13.3908 55.2817C13.1252 55.2817 12.9116 55.3755 12.745 55.5526C12.5783 55.7192 12.495 55.9432 12.495 56.2192V59.6776C12.495 59.9588 12.5783 60.188 12.745 60.3651C12.9116 60.5474 13.1252 60.6359 13.3908 60.6359C13.6512 60.6359 13.87 60.5526 14.0366 60.3859C14.2033 60.2088 14.2866 59.9692 14.2866 59.6776V58.5317C14.2866 58.5057 14.271 58.4901 14.245 58.4901H13.4741C13.4012 58.4901 13.37 58.464 13.37 58.4067V58.0317C13.37 57.964 13.4012 57.9276 13.4741 57.9276H14.8283C14.8804 57.9276 14.9116 57.964 14.9116 58.0317V59.6776C14.9116 60.1359 14.771 60.5057 14.495 60.7817C14.2137 61.0474 13.8491 61.1776 13.3908 61.1776Z" fill="#D72333"/>
<path d="M20.2108 54.8859C20.2108 54.8182 20.2368 54.7817 20.2941 54.7817H20.7524C20.8201 54.7817 20.8566 54.8182 20.8566 54.8859V61.0317C20.8566 61.089 20.8201 61.1151 20.7524 61.1151H20.2941C20.2368 61.1151 20.2108 61.089 20.2108 61.0317V58.2609C20.2108 58.2505 20.1951 58.2401 20.1691 58.2401H18.5649C18.5337 58.2401 18.5233 58.2505 18.5233 58.2609V61.0317C18.5233 61.089 18.492 61.1151 18.4399 61.1151H17.9816C17.9087 61.1151 17.8774 61.089 17.8774 61.0317V54.8859C17.8774 54.8182 17.9087 54.7817 17.9816 54.7817H18.4399C18.492 54.7817 18.5233 54.8182 18.5233 54.8859V57.6151C18.5233 57.6463 18.5337 57.6567 18.5649 57.6567H20.1691C20.1951 57.6567 20.2108 57.6463 20.2108 57.6151V54.8859Z" fill="#D72333"/>
</g>
</g>
</svg>
