<svg width="21" height="22" viewBox="0 0 21 22" fill="none" xmlns="http://www.w3.org/2000/svg">
<mask id="mask0_24_3879" style="mask-type:luminance" maskUnits="userSpaceOnUse" x="0" y="0" width="21" height="22">
<path d="M0 0H20.1823V21.3333H0V0Z" fill="white"/>
</mask>
<g mask="url(#mask0_24_3879)">
<mask id="mask1_24_3879" style="mask-type:luminance" maskUnits="userSpaceOnUse" x="0" y="0" width="22" height="22">
<path d="M21.3333 0H0V21.3333H21.3333V0Z" fill="white"/>
</mask>
<g mask="url(#mask1_24_3879)">
<mask id="mask2_24_3879" style="mask-type:luminance" maskUnits="userSpaceOnUse" x="0" y="5" width="4" height="13">
<path d="M0.140625 5.3335H4V17.3335H0.140625V5.3335Z" fill="white"/>
</mask>
<g mask="url(#mask2_24_3879)">
<path d="M2.30648 5.64518C2.37419 5.61914 2.44189 5.60352 2.51481 5.60352H3.36898C3.46273 5.60352 3.51481 5.6556 3.51481 5.74935V16.416C3.51481 16.5306 3.46273 16.5827 3.36898 16.5827H2.55648C2.45752 16.5827 2.41064 16.5306 2.41064 16.416V6.91602C2.41064 6.9056 2.40023 6.88997 2.38981 6.87435C2.37419 6.86393 2.35335 6.86393 2.32731 6.87435L0.848145 7.35352L0.806478 7.37435C0.733561 7.37435 0.686686 7.32747 0.660645 7.22852L0.598145 6.64518V6.62435C0.598145 6.57227 0.629395 6.51497 0.702311 6.45768L2.30648 5.64518Z" fill="#D72333"/>
</g>
<path d="M6.42578 15.541C6.41016 15.5566 6.41016 15.5723 6.42578 15.5827C6.4362 15.5983 6.45182 15.6035 6.46745 15.6035H10.1549C10.2643 15.6035 10.3216 15.6608 10.3216 15.7702V16.416C10.3216 16.5306 10.2643 16.5827 10.1549 16.5827H5.23828C5.1237 16.5827 5.07161 16.5306 5.07161 16.416V15.7285C5.07161 15.6452 5.09245 15.5775 5.13411 15.5202C5.45182 15.0098 5.63411 14.7181 5.67578 14.6452C6.60287 13.1868 7.33203 11.9993 7.86328 11.0827C8.52995 9.94727 8.86328 8.99414 8.86328 8.22852C8.86328 7.68685 8.73828 7.25977 8.48828 6.93685C8.23828 6.61914 7.91016 6.45768 7.50911 6.45768C7.10287 6.45768 6.77995 6.61914 6.52995 6.93685C6.29036 7.24414 6.18099 7.66081 6.19661 8.18685V8.79102C6.19661 8.88997 6.13932 8.93685 6.02995 8.93685H5.21745C5.10287 8.93685 5.05078 8.88997 5.05078 8.79102V8.16602C5.07682 7.36393 5.3112 6.7181 5.75911 6.22852C6.21745 5.72852 6.8112 5.47852 7.55078 5.47852C8.28516 5.47852 8.8737 5.73893 9.32161 6.24935C9.77995 6.74935 10.0091 7.41081 10.0091 8.22852C10.0091 9.2181 9.63411 10.3275 8.88411 11.5618C8.50911 12.2025 7.97787 13.0618 7.30078 14.1452L6.42578 15.541Z" fill="#D72333"/>
<path d="M12.2515 16.5614C11.9858 16.5614 11.7723 16.478 11.6056 16.3114C11.4494 16.1447 11.3765 15.9364 11.3765 15.6864C11.3765 15.4259 11.4494 15.2072 11.6056 15.0405C11.7723 14.8739 11.9858 14.7905 12.2515 14.7905C12.5015 14.7905 12.7098 14.8739 12.8765 15.0405C13.0431 15.2072 13.1265 15.4259 13.1265 15.6864C13.1265 15.9364 13.0431 16.1447 12.8765 16.3114C12.7098 16.478 12.5015 16.5614 12.2515 16.5614Z" fill="#D72333"/>
<path d="M19.4191 11.7285C19.5129 12.1191 19.5649 12.6243 19.5649 13.2493C19.5649 13.7077 19.5337 14.14 19.4816 14.541C19.367 15.2493 19.1066 15.791 18.6899 16.166C18.2837 16.5306 17.742 16.7077 17.0649 16.7077C16.3826 16.7077 15.8358 16.5306 15.4191 16.166C15.0024 15.791 14.7368 15.2441 14.6274 14.5202L14.5858 14.041V14.0202C14.5858 13.9264 14.6274 13.8743 14.7108 13.8743H15.5233C15.617 13.8743 15.6743 13.9316 15.6899 14.041L15.7316 14.416C15.8983 15.291 16.341 15.7285 17.0649 15.7285C17.3983 15.7285 17.6691 15.6243 17.8774 15.416C18.0962 15.1973 18.2524 14.8848 18.3358 14.4785C18.4191 14.1452 18.4608 13.7285 18.4608 13.2285C18.4608 12.7025 18.4087 12.2493 18.3149 11.8743C18.117 11.14 17.7004 10.7702 17.0649 10.7702C16.341 10.7702 15.8879 11.1348 15.7108 11.8535C15.6795 11.9525 15.6274 11.9993 15.5441 11.9993H14.7108C14.6118 11.9993 14.5649 11.9525 14.5649 11.8535V5.74935C14.5649 5.6556 14.6118 5.60352 14.7108 5.60352H19.1691C19.2629 5.60352 19.3149 5.6556 19.3149 5.74935V6.41602C19.3149 6.5306 19.2629 6.58268 19.1691 6.58268H15.7316C15.6899 6.58268 15.6691 6.60352 15.6691 6.64518V10.5202C15.6691 10.5514 15.6743 10.5723 15.6899 10.5827C15.7004 10.5827 15.716 10.5775 15.7316 10.5618C15.8983 10.3118 16.117 10.1243 16.3983 9.99935C16.6743 9.86393 16.9868 9.79102 17.3358 9.79102C17.8879 9.79102 18.341 9.95768 18.6899 10.291C19.0493 10.6243 19.2941 11.1035 19.4191 11.7285Z" fill="#D72333"/>
</g>
</g>
</svg>
