<svg width="28" height="9" viewBox="0 0 28 9" fill="none" xmlns="http://www.w3.org/2000/svg">
<mask id="mask0_25_16260" style="mask-type:luminance" maskUnits="userSpaceOnUse" x="0" y="0" width="28" height="9">
<path d="M0 0H27.625V8.89062H0V0Z" fill="white"/>
</mask>
<g mask="url(#mask0_25_16260)">
<path d="M0.0522461 4.38014C0.0522461 4.38014 1.5262 5.07805 2.86995 6.60409C4.75537 7.38014 6.12516 7.9218 7.6512 7.7968C9.021 7.19785 11.2189 6.24472 12.6147 4.22909C14.7606 3.16659 16.9064 2.1093 19.1304 1.12493C21.5366 1.25514 23.1616 1.3593 24.5106 2.36451C25.8283 3.24472 27.0679 4.71868 27.4272 4.66659C27.5835 4.43222 27.5314 3.94264 27.4793 3.60409C27.2241 3.45305 27.146 3.70826 27.0939 3.70826C27.0939 3.70826 27.3804 3.50514 27.4533 3.60409C27.5575 3.70826 25.4637 1.12493 23.5522 0.400969C21.6929 0.166595 19.2866 -0.114655 17.1147 1.02076C14.9429 1.92701 12.5106 2.95826 10.9116 5.05201C8.5835 6.34889 8.06787 6.63014 7.44808 6.63014C6.84912 6.68222 4.18766 7.02076 2.38037 4.69264C0.260579 3.50514 0.619955 3.65618 0.567871 3.63014C0.567871 3.63014 0.286621 3.37493 0.182454 3.32285C0.0782878 3.32285 0.0782884 3.68222 0.130371 3.81243" fill="#D72333"/>
</g>
</svg>
