<svg width="29" height="8" viewBox="0 0 29 8" fill="none" xmlns="http://www.w3.org/2000/svg">
<mask id="mask0_25_16169" style="mask-type:luminance" maskUnits="userSpaceOnUse" x="0" y="0" width="29" height="8">
<path d="M0 0H28.5885V8H0V0Z" fill="white"/>
</mask>
<g mask="url(#mask0_25_16169)">
<path d="M0.0522461 4.46331C0.0522461 4.46331 1.521 5.16123 2.86995 6.68727C4.75537 7.46331 6.12516 8.00498 7.6512 7.87477C9.021 7.28102 11.2189 6.32269 12.6147 4.30706C14.7606 3.24456 16.9064 2.18727 19.1304 1.2029C21.5314 1.3331 23.1616 1.43727 24.5054 2.44769C25.8231 3.32269 27.0627 4.79665 27.4272 4.74456C27.5835 4.5154 27.5314 4.0206 27.4793 3.68727C27.2189 3.53102 27.1408 3.79144 27.0887 3.79144C27.0887 3.79144 27.3752 3.5831 27.4533 3.68727C27.5575 3.79144 25.4637 1.2029 23.547 0.478938C21.6877 0.249772 19.2814 -0.0366871 17.1095 1.10394C14.9429 2.00498 12.5106 3.04144 10.9064 5.13519C8.57829 6.42686 8.06266 6.71331 7.44287 6.71331C6.84912 6.7654 4.18766 7.09873 2.37516 4.77061C0.255371 3.5831 0.619955 3.73936 0.567871 3.71331C0.567871 3.71331 0.281413 3.4529 0.177246 3.40081C0.0730794 3.40081 0.0730788 3.7654 0.125163 3.8956" fill="#D72333"/>
</g>
</svg>
