<svg width="4" height="8" viewBox="0 0 4 8" fill="none" xmlns="http://www.w3.org/2000/svg">
<mask id="mask0_25_10333" style="mask-type:luminance" maskUnits="userSpaceOnUse" x="0" y="0" width="4" height="8">
<path d="M0 0H3.89583V8H0V0Z" fill="white"/>
</mask>
<g mask="url(#mask0_25_10333)">
<path d="M3.03971 7.3973C2.98242 7.3973 2.94596 7.37126 2.93555 7.31396L2.70638 6.18896C2.70638 6.17855 2.69596 6.16813 2.68555 6.16813C2.68555 6.16813 2.67513 6.16813 2.66471 6.16813H1.01888C1.01888 6.16813 1.00846 6.16813 0.998047 6.16813C0.982422 6.16813 0.977214 6.17855 0.977214 6.18896L0.748047 7.31396C0.748047 7.37126 0.716796 7.3973 0.664714 7.3973H0.20638C0.164714 7.3973 0.133463 7.39209 0.123047 7.37646C0.107422 7.35042 0.107422 7.32438 0.123047 7.29313L1.47721 1.1473C1.48763 1.09522 1.52409 1.06396 1.58138 1.06396H2.12305C2.17513 1.06396 2.20638 1.09522 2.20638 1.1473L3.58138 7.29313V7.31396C3.58138 7.37126 3.55013 7.3973 3.49805 7.3973H3.03971ZM1.10221 5.60563C1.10221 5.62126 1.10742 5.62646 1.12305 5.62646H2.56055C2.57096 5.62646 2.58138 5.62126 2.58138 5.60563L1.85221 2.04313C1.85221 2.03271 1.8418 2.0223 1.83138 2.0223C1.83138 2.0223 1.83138 2.03271 1.83138 2.04313L1.10221 5.60563Z" fill="#D72333"/>
</g>
</svg>
