<svg width="28" height="9" viewBox="0 0 28 9" fill="none" xmlns="http://www.w3.org/2000/svg">
<mask id="mask0_25_16282" style="mask-type:luminance" maskUnits="userSpaceOnUse" x="0" y="0" width="28" height="9">
<path d="M0 0H27.9583V8.89062H0V0Z" fill="white"/>
</mask>
<g mask="url(#mask0_25_16282)">
<path d="M0.078125 4.95322C0.078125 4.95322 1.54687 5.65113 2.89583 7.17197C4.78125 7.94801 6.15104 8.49488 7.67708 8.36468C9.04688 7.77092 11.2448 6.81259 12.6406 4.79697C14.7865 3.73447 16.9323 2.67717 19.1562 1.6928C21.5573 1.82301 23.1875 1.92717 24.5312 2.93238C25.849 3.81259 27.0885 5.28655 27.4531 5.23447C27.6094 5.00009 27.5573 4.51051 27.5052 4.17717C27.2448 4.02092 27.1667 4.27613 27.1146 4.27613C27.1146 4.27613 27.401 4.07301 27.4792 4.17717C27.5833 4.27613 25.4896 1.6928 23.5729 0.968841C21.7135 0.734465 19.3073 0.453216 17.1354 1.58863C14.9688 2.49488 12.5365 3.53134 10.9323 5.62509C8.60938 6.91676 8.08854 7.19801 7.46875 7.19801C6.875 7.25009 4.21354 7.58863 2.40104 5.26051C0.281251 4.07301 0.645834 4.22926 0.59375 4.20322C0.59375 4.20322 0.307292 3.9428 0.203125 3.89072C0.0989583 3.89072 0.098959 4.2553 0.151042 4.3803" fill="#D72333"/>
</g>
</svg>
