<svg width="7" height="14" viewBox="0 0 7 14" fill="none" xmlns="http://www.w3.org/2000/svg">
<mask id="mask0_25_9055" style="mask-type:luminance" maskUnits="userSpaceOnUse" x="0" y="0" width="7" height="14">
<path d="M0 0H6.5625V13.3333H0V0Z" fill="white"/>
</mask>
<g mask="url(#mask0_25_9055)">
<path d="M2.95671 12.3493C2.17546 12.3493 1.54525 12.1097 1.06087 11.6201C0.586914 11.1357 0.352539 10.4951 0.352539 9.70345V8.39095C0.352539 8.28158 0.399414 8.22428 0.498372 8.22428H1.29004C1.39941 8.22428 1.45671 8.28158 1.45671 8.39095V9.72428C1.45671 10.2139 1.58691 10.6097 1.85254 10.9118C2.12858 11.2191 2.49837 11.3701 2.95671 11.3701C3.38379 11.3701 3.73796 11.2191 4.01921 10.9118C4.29525 10.6097 4.43587 10.2139 4.43587 9.72428V1.39095C4.43587 1.2972 4.48796 1.24512 4.60254 1.24512H5.39421C5.50358 1.24512 5.56087 1.2972 5.56087 1.39095V9.70345C5.56087 10.4951 5.31608 11.1357 4.83171 11.6201C4.34212 12.1097 3.71712 12.3493 2.95671 12.3493Z" fill="#D72333"/>
</g>
</svg>
