<svg width="7" height="14" viewBox="0 0 7 14" fill="none" xmlns="http://www.w3.org/2000/svg">
<mask id="mask0_25_9944" style="mask-type:luminance" maskUnits="userSpaceOnUse" x="0" y="0" width="7" height="14">
<path d="M0 0H6.5625V13.3333H0V0Z" fill="white"/>
</mask>
<g mask="url(#mask0_25_9944)">
<path d="M3.26904 12.4694C2.48779 12.4694 1.85758 12.2142 1.37321 11.6986C0.899251 11.1882 0.664876 10.5215 0.664876 9.69857V9.32357C0.664876 9.22982 0.711751 9.17773 0.81071 9.17773H1.58154C1.69092 9.17773 1.74821 9.22982 1.74821 9.32357V9.63607C1.74821 10.1934 1.88363 10.6465 2.16488 10.9902C2.44092 11.3236 2.81071 11.4902 3.26904 11.4902C3.69613 11.4902 4.06071 11.334 4.35238 11.0111C4.64404 10.6934 4.78988 10.2611 4.78988 9.7194C4.78988 9.37565 4.71696 9.07357 4.58154 8.82357C4.44092 8.56315 4.25863 8.33399 4.03988 8.13607C3.81592 7.94336 3.44092 7.64648 2.91488 7.24023C2.38363 6.85482 1.96696 6.52669 1.66488 6.26107C1.37321 5.98503 1.12842 5.65169 0.93571 5.26107C0.737794 4.87565 0.644043 4.41732 0.644043 3.88607C0.644043 3.06836 0.878418 2.42253 1.35238 1.94857C1.82113 1.47982 2.43571 1.24023 3.18571 1.24023C3.97738 1.24023 4.60758 1.50065 5.08154 2.01107C5.56592 2.52669 5.81071 3.21419 5.81071 4.07357V4.4694C5.81071 4.58399 5.75342 4.63607 5.64404 4.63607H4.85238C4.75342 4.63607 4.70654 4.58399 4.70654 4.4694V4.05273C4.70654 3.51107 4.56592 3.07357 4.28988 2.74023C4.00863 2.39648 3.64404 2.2194 3.18571 2.2194C2.76904 2.2194 2.42008 2.36523 2.14404 2.6569C1.87842 2.94857 1.74821 3.37565 1.74821 3.92773C1.74821 4.25065 1.80029 4.5319 1.91488 4.7819C2.03988 5.02148 2.21696 5.25065 2.45654 5.4694C2.70654 5.69336 3.06071 5.98503 3.51904 6.3444C4.15446 6.80273 4.62842 7.17773 4.93571 7.4694C5.23779 7.75065 5.47738 8.06315 5.64404 8.4069C5.81071 8.74023 5.89404 9.15169 5.89404 9.63607C5.89404 10.485 5.64404 11.1725 5.14404 11.6986C4.65446 12.2142 4.02946 12.4694 3.26904 12.4694Z" fill="#D72333"/>
</g>
</svg>
