<svg width="30" height="9" viewBox="0 0 30 9" fill="none" xmlns="http://www.w3.org/2000/svg">
<mask id="mask0_25_16205" style="mask-type:luminance" maskUnits="userSpaceOnUse" x="0" y="0" width="30" height="9">
<path d="M0 0H29.3333V8.89062H0V0Z" fill="white"/>
</mask>
<g mask="url(#mask0_25_16205)">
<path d="M0.875 4.66647C0.875 4.66647 2.34896 5.36439 3.69271 6.89043C5.57813 7.66647 6.94792 8.20814 8.47396 8.07793C9.84375 7.48418 12.0417 6.52585 13.4375 4.51022C15.5833 3.45293 17.7292 2.39043 19.9531 1.41126C22.3542 1.53626 23.9844 1.64043 25.3281 2.65085C26.6458 3.53105 27.8906 4.9998 28.25 4.95293C28.4063 4.71855 28.3542 4.22897 28.3021 3.89043C28.0417 3.73418 27.9688 3.9946 27.9167 3.9946C27.9167 3.9946 28.1979 3.78626 28.276 3.89043C28.3802 3.9946 26.2865 1.41126 24.375 0.687304C22.5104 0.452929 20.1094 0.166471 17.9375 1.3071C15.7656 2.20814 13.3333 3.2446 11.7292 5.33835C9.40625 6.63001 8.88542 6.91647 8.26562 6.91647C7.67187 6.96855 5.01042 7.30189 3.19792 4.97897C1.07812 3.78626 1.44271 3.94251 1.39062 3.91647C1.39062 3.91647 1.10417 3.65605 1 3.60397C0.901041 3.60397 0.901041 3.96855 0.953125 4.09876" fill="#D72333"/>
</g>
</svg>
