<svg width="28" height="9" viewBox="0 0 28 9" fill="none" xmlns="http://www.w3.org/2000/svg">
<mask id="mask0_25_16308" style="mask-type:luminance" maskUnits="userSpaceOnUse" x="0" y="0" width="28" height="9">
<path d="M0 0H28V8.89062H0V0Z" fill="white"/>
</mask>
<g mask="url(#mask0_25_16308)">
<path d="M0.5 4.66647C0.5 4.66647 1.97396 5.36439 3.31771 6.89043C5.20313 7.66647 6.57292 8.20814 8.09896 8.07793C9.46875 7.48418 11.6667 6.52585 13.0625 4.51022C15.2083 3.45293 17.3542 2.39043 19.5781 1.41126C21.9844 1.53626 23.6094 1.64043 24.9583 2.65085C26.276 3.53105 27.5156 4.9998 27.875 4.95293C28.0313 4.71855 27.9792 4.22897 27.9271 3.89043C27.6719 3.73418 27.5938 3.9946 27.5417 3.9946C27.5417 3.9946 27.8281 3.78626 27.901 3.89043C28.0052 3.9946 25.9115 1.41126 24 0.687304C22.1406 0.452929 19.7344 0.166471 17.5625 1.3071C15.3906 2.20814 12.9583 3.2446 11.3594 5.33835C9.03125 6.63001 8.51563 6.91647 7.89583 6.91647C7.29688 6.96855 4.63542 7.30189 2.82812 4.97897C0.708333 3.78626 1.06771 3.94251 1.01562 3.91647C1.01562 3.91647 0.734375 3.65605 0.630208 3.60397C0.526042 3.60397 0.526041 3.96855 0.578125 4.09876" fill="#D72333"/>
</g>
</svg>
