<svg width="17" height="20" viewBox="0 0 17 20" fill="none" xmlns="http://www.w3.org/2000/svg">
<mask id="mask0_24_5684" style="mask-type:luminance" maskUnits="userSpaceOnUse" x="0" y="0" width="17" height="20">
<path d="M0 0H16.1823V19.5625H0V0Z" fill="white"/>
</mask>
<g mask="url(#mask0_24_5684)">
<mask id="mask1_24_5684" style="mask-type:luminance" maskUnits="userSpaceOnUse" x="0" y="-1" width="18" height="21">
<path d="M17.3333 -0.4375H0V19.5625H17.3333V-0.4375Z" fill="white"/>
</mask>
<g mask="url(#mask1_24_5684)">
<path d="M2.75814 15.0959C2.70085 15.0959 2.65918 15.0854 2.63314 15.0542C2.60189 15.0125 2.59668 14.9709 2.6123 14.9292L5.2998 5.15837C5.2998 5.14795 5.28939 5.13232 5.27897 5.1167C5.26335 5.10628 5.24772 5.09587 5.2373 5.09587H2.3623C2.32064 5.09587 2.2998 5.1167 2.2998 5.15837V5.78337C2.2998 5.89795 2.24251 5.95003 2.13314 5.95003H1.52897C1.41439 5.95003 1.3623 5.89795 1.3623 5.78337V4.26253C1.3623 4.16878 1.41439 4.1167 1.52897 4.1167H6.32064C6.43001 4.1167 6.4873 4.16878 6.4873 4.26253V4.9917C6.4873 5.02295 6.47168 5.08545 6.44564 5.1792L3.77897 14.95C3.76335 15.049 3.70606 15.0959 3.6123 15.0959H2.75814Z" fill="#D72333"/>
<path d="M8.24854 15.075C7.98291 15.075 7.76937 14.9917 7.6027 14.825C7.44645 14.6584 7.37354 14.45 7.37354 14.2C7.37354 13.9396 7.44645 13.7209 7.6027 13.5542C7.76937 13.3875 7.98291 13.3042 8.24854 13.3042C8.49854 13.3042 8.70687 13.3875 8.87354 13.5542C9.0402 13.7209 9.12354 13.9396 9.12354 14.2C9.12354 14.45 9.0402 14.6584 8.87354 14.825C8.70687 14.9917 8.49854 15.075 8.24854 15.075Z" fill="#D72333"/>
<path d="M15.4162 10.2417C15.5099 10.6323 15.562 11.1375 15.562 11.7625C15.562 12.2209 15.5308 12.6532 15.4787 13.0542C15.3641 13.7625 15.1037 14.3042 14.687 14.6792C14.2808 15.0438 13.7391 15.2209 13.062 15.2209C12.3797 15.2209 11.8328 15.0438 11.4162 14.6792C10.9995 14.3042 10.7339 13.7573 10.6245 13.0334L10.5828 12.5542V12.5334C10.5828 12.4396 10.6245 12.3875 10.7078 12.3875H11.5203C11.6141 12.3875 11.6714 12.4448 11.687 12.5542L11.7287 12.9292C11.8953 13.8042 12.3381 14.2417 13.062 14.2417C13.3953 14.2417 13.6662 14.1375 13.8745 13.9292C14.0933 13.7105 14.2495 13.3979 14.3328 12.9917C14.4162 12.6584 14.4578 12.2417 14.4578 11.7417C14.4578 11.2157 14.4058 10.7625 14.312 10.3875C14.1141 9.65316 13.6974 9.28337 13.062 9.28337C12.3381 9.28337 11.8849 9.64795 11.7078 10.3667C11.6766 10.4657 11.6245 10.5125 11.5412 10.5125H10.7078C10.6089 10.5125 10.562 10.4657 10.562 10.3667V4.26253C10.562 4.16878 10.6089 4.1167 10.7078 4.1167H15.1662C15.2599 4.1167 15.312 4.16878 15.312 4.26253V4.9292C15.312 5.04378 15.2599 5.09587 15.1662 5.09587H11.7287C11.687 5.09587 11.6662 5.1167 11.6662 5.15837V9.03337C11.6662 9.06462 11.6714 9.08545 11.687 9.09587C11.6974 9.09587 11.7131 9.09066 11.7287 9.07503C11.8953 8.82503 12.1141 8.63753 12.3953 8.51253C12.6714 8.37712 12.9839 8.3042 13.3328 8.3042C13.8849 8.3042 14.3381 8.47087 14.687 8.8042C15.0464 9.13753 15.2912 9.6167 15.4162 10.2417Z" fill="#D72333"/>
</g>
</g>
</svg>
