<svg width="29" height="10" viewBox="0 0 29 10" fill="none" xmlns="http://www.w3.org/2000/svg">
<mask id="mask0_25_16154" style="mask-type:luminance" maskUnits="userSpaceOnUse" x="0" y="0" width="29" height="10">
<path d="M0 0H28.8646V9.33333H0V0Z" fill="white"/>
</mask>
<g mask="url(#mask0_25_16154)">
<path d="M0.979004 5.03122C0.979004 5.03122 2.45296 5.72913 3.79671 7.25517C5.68213 8.03122 7.05192 8.57288 8.57796 8.44267C9.94775 7.84893 12.1457 6.89059 13.5415 4.87497C15.6873 3.81767 17.8332 2.75517 20.0571 1.77601C22.4634 1.90101 24.0884 2.00517 25.4321 3.01559C26.7498 3.8958 27.9946 5.36976 28.354 5.31768C28.5103 5.0833 28.4582 4.59372 28.4061 4.25518C28.1509 4.09893 28.0728 4.35934 28.0207 4.35934C28.0207 4.35934 28.3019 4.15101 28.38 4.25518C28.4842 4.35934 26.3905 1.77601 24.479 1.05205C22.6144 0.817675 20.2134 0.531217 18.0415 1.67184C15.8696 2.57288 13.4373 3.60934 11.8384 5.70309C9.51025 6.99476 8.99463 7.28122 8.36963 7.28122C7.77588 7.3333 5.11442 7.66663 3.30713 5.34372C1.18734 4.15101 1.54671 4.30726 1.49463 4.28122C1.49463 4.28122 1.20817 4.0208 1.10921 3.96872C1.00505 3.96872 1.00504 4.3333 1.05713 4.46351" fill="#D72333"/>
</g>
</svg>
