<svg width="21" height="19" viewBox="0 0 21 19" fill="none" xmlns="http://www.w3.org/2000/svg">
<mask id="mask0_24_4300" style="mask-type:luminance" maskUnits="userSpaceOnUse" x="0" y="0" width="21" height="19">
<path d="M0 0H20.1823V18.9062H0V0Z" fill="white"/>
</mask>
<g mask="url(#mask0_24_4300)">
<mask id="mask1_24_4300" style="mask-type:luminance" maskUnits="userSpaceOnUse" x="0" y="-2" width="22" height="21">
<path d="M21.3333 -1.09375H0V18.9062H21.3333V-1.09375Z" fill="white"/>
</mask>
<g mask="url(#mask1_24_4300)">
<mask id="mask2_24_4300" style="mask-type:luminance" maskUnits="userSpaceOnUse" x="0" y="2" width="4" height="15">
<path d="M0.140625 2.90625H4V16.2396H0.140625V2.90625Z" fill="white"/>
</mask>
<g mask="url(#mask2_24_4300)">
<path d="M2.30648 4.15592C2.37419 4.12988 2.44189 4.11426 2.51481 4.11426H3.36898C3.46273 4.11426 3.51481 4.16634 3.51481 4.26009V14.9268C3.51481 15.0413 3.46273 15.0934 3.36898 15.0934H2.55648C2.45752 15.0934 2.41064 15.0413 2.41064 14.9268V5.42676C2.41064 5.41634 2.40023 5.40072 2.38981 5.38509C2.37419 5.37468 2.35335 5.37468 2.32731 5.38509L0.848145 5.86426L0.806478 5.88509C0.733561 5.88509 0.686686 5.83822 0.660645 5.73926L0.598145 5.15592V5.13509C0.598145 5.08301 0.629395 5.02572 0.702311 4.96842L2.30648 4.15592Z" fill="#D72333"/>
</g>
<path d="M6.42578 14.0518C6.41016 14.0674 6.41016 14.083 6.42578 14.0934C6.4362 14.109 6.45182 14.1143 6.46745 14.1143H10.1549C10.2643 14.1143 10.3216 14.1715 10.3216 14.2809V14.9268C10.3216 15.0413 10.2643 15.0934 10.1549 15.0934H5.23828C5.1237 15.0934 5.07161 15.0413 5.07161 14.9268V14.2393C5.07161 14.1559 5.09245 14.0882 5.13411 14.0309C5.45182 13.5205 5.63411 13.2288 5.67578 13.1559C6.60287 11.6976 7.33203 10.5101 7.86328 9.59342C8.52995 8.45801 8.86328 7.50488 8.86328 6.73926C8.86328 6.19759 8.73828 5.77051 8.48828 5.44759C8.23828 5.12988 7.91016 4.96842 7.50911 4.96842C7.10287 4.96842 6.77995 5.12988 6.52995 5.44759C6.29036 5.75488 6.18099 6.17155 6.19661 6.69759V7.30176C6.19661 7.40072 6.13932 7.44759 6.02995 7.44759H5.21745C5.10287 7.44759 5.05078 7.40072 5.05078 7.30176V6.67676C5.07682 5.87468 5.3112 5.22884 5.75911 4.73926C6.21745 4.23926 6.8112 3.98926 7.55078 3.98926C8.28516 3.98926 8.8737 4.24968 9.32161 4.76009C9.77995 5.26009 10.0091 5.92155 10.0091 6.73926C10.0091 7.72884 9.63411 8.83822 8.88411 10.0726C8.50911 10.7132 7.97787 11.5726 7.30078 12.6559L6.42578 14.0518Z" fill="#D72333"/>
<path d="M12.2515 15.0726C11.9858 15.0726 11.7723 14.9893 11.6056 14.8226C11.4494 14.6559 11.3765 14.4476 11.3765 14.1976C11.3765 13.9372 11.4494 13.7184 11.6056 13.5518C11.7723 13.3851 11.9858 13.3018 12.2515 13.3018C12.5015 13.3018 12.7098 13.3851 12.8765 13.5518C13.0431 13.7184 13.1265 13.9372 13.1265 14.1976C13.1265 14.4476 13.0431 14.6559 12.8765 14.8226C12.7098 14.9893 12.5015 15.0726 12.2515 15.0726Z" fill="#D72333"/>
<path d="M19.4191 10.2393C19.5129 10.6299 19.5649 11.1351 19.5649 11.7601C19.5649 12.2184 19.5337 12.6507 19.4816 13.0518C19.367 13.7601 19.1066 14.3018 18.6899 14.6768C18.2837 15.0413 17.742 15.2184 17.0649 15.2184C16.3826 15.2184 15.8358 15.0413 15.4191 14.6768C15.0024 14.3018 14.7368 13.7549 14.6274 13.0309L14.5858 12.5518V12.5309C14.5858 12.4372 14.6274 12.3851 14.7108 12.3851H15.5233C15.617 12.3851 15.6743 12.4424 15.6899 12.5518L15.7316 12.9268C15.8983 13.8018 16.341 14.2393 17.0649 14.2393C17.3983 14.2393 17.6691 14.1351 17.8774 13.9268C18.0962 13.708 18.2524 13.3955 18.3358 12.9893C18.4191 12.6559 18.4608 12.2393 18.4608 11.7393C18.4608 11.2132 18.4087 10.7601 18.3149 10.3851C18.117 9.65072 17.7004 9.28092 17.0649 9.28092C16.341 9.28092 15.8879 9.64551 15.7108 10.3643C15.6795 10.4632 15.6274 10.5101 15.5441 10.5101H14.7108C14.6118 10.5101 14.5649 10.4632 14.5649 10.3643V4.26009C14.5649 4.16634 14.6118 4.11426 14.7108 4.11426H19.1691C19.2629 4.11426 19.3149 4.16634 19.3149 4.26009V4.92676C19.3149 5.04134 19.2629 5.09342 19.1691 5.09342H15.7316C15.6899 5.09342 15.6691 5.11426 15.6691 5.15592V9.03092C15.6691 9.06217 15.6743 9.08301 15.6899 9.09342C15.7004 9.09342 15.716 9.08822 15.7316 9.07259C15.8983 8.82259 16.117 8.63509 16.3983 8.51009C16.6743 8.37468 16.9868 8.30176 17.3358 8.30176C17.8879 8.30176 18.341 8.46842 18.6899 8.80176C19.0493 9.13509 19.2941 9.61426 19.4191 10.2393Z" fill="#D72333"/>
</g>
</g>
</svg>
