<svg width="17" height="20" viewBox="0 0 17 20" fill="none" xmlns="http://www.w3.org/2000/svg">
<mask id="mask0_25_9463" style="mask-type:luminance" maskUnits="userSpaceOnUse" x="0" y="0" width="17" height="20">
<path d="M0 0H16.3073V19.3281H0V0Z" fill="white"/>
</mask>
<g mask="url(#mask0_25_9463)">
<mask id="mask1_25_9463" style="mask-type:luminance" maskUnits="userSpaceOnUse" x="0" y="-1" width="18" height="21">
<path d="M17.3333 -0.671875H0V19.3281H17.3333V-0.671875Z" fill="white"/>
</mask>
<g mask="url(#mask1_25_9463)">
<path d="M6.7098 9.61865C6.79313 10.0353 6.8348 10.5041 6.8348 11.0145C6.8348 11.4624 6.81396 11.8426 6.7723 12.1603C6.68896 12.9103 6.42855 13.4884 6.00146 13.8895C5.5848 14.2801 5.0223 14.4728 4.31396 14.4728C3.67334 14.4728 3.13688 14.2957 2.7098 13.9312C2.29313 13.5562 2.03271 13.0145 1.93896 12.3062C1.86605 11.9728 1.8348 11.5666 1.8348 11.077L1.81396 5.93115C1.81396 5.11344 2.04313 4.4624 2.50146 3.97282C2.9598 3.48844 3.56396 3.24365 4.31396 3.24365C4.99105 3.24365 5.55355 3.49365 6.00146 3.99365C6.44417 4.48324 6.66813 5.12907 6.66813 5.93115V6.18115C6.66813 6.28011 6.61605 6.32699 6.5223 6.32699H5.7098C5.61084 6.32699 5.56396 6.28011 5.56396 6.18115V5.95199C5.56396 5.45199 5.43896 5.04574 5.18896 4.72282C4.94938 4.40511 4.65771 4.24365 4.31396 4.24365C3.8973 4.24365 3.56396 4.40511 3.31396 4.72282C3.06396 5.03011 2.93896 5.44157 2.93896 5.95199V8.05615C2.93896 8.0874 2.94417 8.09782 2.9598 8.09782C2.97022 8.09782 2.99105 8.09261 3.0223 8.07699C3.15771 7.86865 3.34522 7.7124 3.5848 7.59782C3.81917 7.48844 4.07438 7.43115 4.35563 7.43115C4.99105 7.43115 5.51188 7.62907 5.91813 8.01449C6.3348 8.40511 6.59522 8.94157 6.7098 9.61865ZM5.6473 12.077C5.68896 11.6603 5.7098 11.2801 5.7098 10.9312C5.7098 10.4468 5.66813 9.99365 5.5848 9.57699C5.50146 9.19157 5.34522 8.8999 5.12646 8.70199C4.91813 8.50928 4.6473 8.41032 4.31396 8.41032C3.63167 8.41032 3.2098 8.82178 3.04313 9.63949C2.97022 9.97282 2.93896 10.4051 2.93896 10.9312C2.93896 11.4207 2.96501 11.827 3.0223 12.1603C3.19938 13.0509 3.63167 13.4937 4.31396 13.4937C4.67334 13.4937 4.96501 13.3791 5.18896 13.1395C5.40771 12.9051 5.56396 12.5509 5.6473 12.077Z" fill="#D72333"/>
<path d="M8.90967 14.327C8.64404 14.327 8.4305 14.2437 8.26383 14.077C8.10759 13.9103 8.03467 13.702 8.03467 13.452C8.03467 13.1916 8.10759 12.9728 8.26383 12.8062C8.4305 12.6395 8.64404 12.5562 8.90967 12.5562C9.15967 12.5562 9.368 12.6395 9.53467 12.8062C9.70133 12.9728 9.78467 13.1916 9.78467 13.452C9.78467 13.702 9.70133 13.9103 9.53467 14.077C9.368 14.2437 9.15967 14.327 8.90967 14.327Z" fill="#D72333"/>
<path d="M12.139 14.3478C12.0817 14.3478 12.04 14.3374 12.014 14.3062C11.9827 14.2645 11.9775 14.2228 11.9932 14.1812L14.6807 4.41032C14.6807 4.3999 14.6702 4.38428 14.6598 4.36865C14.6442 4.35824 14.6286 4.34782 14.6182 4.34782H11.7432C11.7015 4.34782 11.6807 4.36865 11.6807 4.41032V5.03532C11.6807 5.1499 11.6234 5.20199 11.514 5.20199H10.9098C10.7952 5.20199 10.7432 5.1499 10.7432 5.03532V3.51449C10.7432 3.42074 10.7952 3.36865 10.9098 3.36865H15.7015C15.8109 3.36865 15.8682 3.42074 15.8682 3.51449V4.24365C15.8682 4.2749 15.8525 4.3374 15.8265 4.43115L13.1598 14.202C13.1442 14.3009 13.0869 14.3478 12.9932 14.3478H12.139Z" fill="#D72333"/>
</g>
</g>
</svg>
