<svg width="7" height="12" viewBox="0 0 7 12" fill="none" xmlns="http://www.w3.org/2000/svg">
<mask id="mask0_25_10027" style="mask-type:luminance" maskUnits="userSpaceOnUse" x="0" y="0" width="7" height="12">
<path d="M0 0H6.5625V12H0V0Z" fill="white"/>
</mask>
<g mask="url(#mask0_25_10027)">
<path d="M6.43555 2.42952C6.43555 2.48682 6.41471 2.53369 6.37305 2.57536C6.33138 2.60661 6.28971 2.61702 6.24805 2.61702H2.97721C2.91992 2.61702 2.89388 2.64828 2.89388 2.70036V5.17952C2.89388 5.23682 2.91992 5.26286 2.97721 5.26286H4.85221C4.89388 5.26286 4.93555 5.28369 4.97721 5.32536C5.01888 5.35661 5.03971 5.39828 5.03971 5.45036V6.97119C5.03971 7.01286 5.01888 7.05452 4.97721 7.09619C4.93555 7.13786 4.89388 7.15869 4.85221 7.15869H2.97721C2.91992 7.15869 2.89388 7.17952 2.89388 7.22119V11.5129C2.89388 11.5702 2.87305 11.617 2.83138 11.6587C2.80013 11.6899 2.75846 11.7004 2.70638 11.7004H0.873047C0.815755 11.7004 0.76888 11.6899 0.727214 11.6587C0.695964 11.617 0.685547 11.5702 0.685547 11.5129V0.908691C0.685547 0.856609 0.695964 0.814942 0.727214 0.783691C0.76888 0.742025 0.815755 0.721191 0.873047 0.721191H6.24805C6.28971 0.721191 6.33138 0.742025 6.37305 0.783691C6.41471 0.814942 6.43555 0.856609 6.43555 0.908691V2.42952Z" fill="#D72333"/>
</g>
</svg>
