<svg width="90" height="30" viewBox="0 0 90 30" fill="none" xmlns="http://www.w3.org/2000/svg">
<mask id="mask0_25_9442" style="mask-type:luminance" maskUnits="userSpaceOnUse" x="0" y="0" width="90" height="30">
<path d="M0 0H89.2292V29.3333H0V0Z" fill="white"/>
</mask>
<g mask="url(#mask0_25_9442)">
<mask id="mask1_25_9442" style="mask-type:luminance" maskUnits="userSpaceOnUse" x="-1" y="0" width="91" height="30">
<path d="M89.2293 0H-0.104004V29.3333H89.2293V0Z" fill="white"/>
</mask>
<g mask="url(#mask1_25_9442)">
<mask id="mask2_25_9442" style="mask-type:luminance" maskUnits="userSpaceOnUse" x="0" y="4" width="8" height="14">
<path d="M0 4H7.89583V17.3333H0V4Z" fill="white"/>
</mask>
<g mask="url(#mask2_25_9442)">
<path d="M3.70671 16.1471C2.73275 16.1471 1.96191 15.8711 1.39421 15.3138C0.82129 14.7461 0.540039 13.9909 0.540039 13.043V8.02214C0.540039 7.07943 0.82129 6.32943 1.39421 5.77214C1.96191 5.20443 2.73275 4.91797 3.70671 4.91797C4.66504 4.91797 5.43587 5.20443 6.01921 5.77214C6.60254 6.32943 6.89421 7.07943 6.89421 8.02214V13.043C6.89421 13.9909 6.60254 14.7461 6.01921 15.3138C5.43587 15.8711 4.66504 16.1471 3.70671 16.1471ZM3.70671 14.2513C3.99837 14.2513 4.22754 14.1576 4.39421 13.9596C4.57129 13.7513 4.66504 13.4753 4.66504 13.1263V7.91797C4.66504 7.58464 4.57129 7.32422 4.39421 7.1263C4.22754 6.91797 3.99837 6.8138 3.70671 6.8138C3.41504 6.8138 3.17546 6.91797 2.99837 7.1263C2.83171 7.32422 2.74837 7.58464 2.74837 7.91797V13.1263C2.74837 13.4753 2.83171 13.7513 2.99837 13.9596C3.17546 14.1576 3.41504 14.2513 3.70671 14.2513Z" fill="#D72333"/>
</g>
<path d="M8.29004 16.0221C8.23275 16.0221 8.18587 16.0117 8.14421 15.9805C8.11296 15.9388 8.10254 15.8919 8.10254 15.8346V5.23047C8.10254 5.17839 8.11296 5.13672 8.14421 5.10547C8.18587 5.0638 8.23275 5.04297 8.29004 5.04297H10.1234C10.1755 5.04297 10.2171 5.0638 10.2484 5.10547C10.29 5.13672 10.3109 5.17839 10.3109 5.23047V14.043C10.3109 14.1003 10.3369 14.1263 10.3942 14.1263H13.6859C13.738 14.1263 13.7796 14.1471 13.8109 14.1888C13.8525 14.2201 13.8734 14.2617 13.8734 14.3138V15.8346C13.8734 15.8919 13.8525 15.9388 13.8109 15.9805C13.7796 16.0117 13.738 16.0221 13.6859 16.0221H8.29004Z" fill="#D72333"/>
<path d="M14.9697 16.0221C14.9124 16.0221 14.8656 16.0117 14.8239 15.9805C14.7926 15.9388 14.7822 15.8919 14.7822 15.8346V5.23047C14.7822 5.17839 14.7926 5.13672 14.8239 5.10547C14.8656 5.0638 14.9124 5.04297 14.9697 5.04297H16.8031C16.8551 5.04297 16.8968 5.0638 16.9281 5.10547C16.9697 5.13672 16.9906 5.17839 16.9906 5.23047V15.8346C16.9906 15.8919 16.9697 15.9388 16.9281 15.9805C16.8968 16.0117 16.8551 16.0221 16.8031 16.0221H14.9697Z" fill="#D72333"/>
<path d="M20.5135 16.0221C20.3989 16.0221 20.3312 15.9701 20.3052 15.8555L18.0552 5.2513V5.1888C18.0552 5.09505 18.1073 5.04297 18.2218 5.04297H20.2427C20.3677 5.04297 20.4354 5.10026 20.451 5.20964L21.5343 12.1263C21.5343 12.168 21.5396 12.1888 21.5552 12.1888C21.5812 12.1888 21.6021 12.168 21.6177 12.1263L22.6802 5.20964C22.6802 5.10026 22.7427 5.04297 22.8677 5.04297H24.8468C24.9718 5.04297 25.0187 5.11588 24.9927 5.2513L22.7427 15.8555C22.7114 15.9701 22.6437 16.0221 22.5343 16.0221H20.5135Z" fill="#D72333"/>
<path d="M31.7905 6.7513C31.7905 6.80859 31.7697 6.85547 31.728 6.89714C31.6968 6.92839 31.6551 6.9388 31.603 6.9388H28.3322C28.2749 6.9388 28.2489 6.97005 28.2489 7.02214V9.5013C28.2489 9.55859 28.2749 9.58464 28.3322 9.58464H30.2072C30.2593 9.58464 30.3009 9.60547 30.3322 9.64714C30.3739 9.67839 30.3947 9.72005 30.3947 9.77214V11.293C30.3947 11.3346 30.3739 11.3763 30.3322 11.418C30.3009 11.4596 30.2593 11.4805 30.2072 11.4805H28.3322C28.2749 11.4805 28.2489 11.5013 28.2489 11.543V14.043C28.2489 14.1003 28.2749 14.1263 28.3322 14.1263H31.603C31.6551 14.1263 31.6968 14.1471 31.728 14.1888C31.7697 14.2201 31.7905 14.2617 31.7905 14.3138V15.8346C31.7905 15.8919 31.7697 15.9388 31.728 15.9805C31.6968 16.0117 31.6551 16.0221 31.603 16.0221H26.228C26.1707 16.0221 26.1239 16.0117 26.0822 15.9805C26.0509 15.9388 26.0405 15.8919 26.0405 15.8346V5.23047C26.0405 5.17839 26.0509 5.13672 26.0822 5.10547C26.1239 5.0638 26.1707 5.04297 26.228 5.04297H31.603C31.6551 5.04297 31.6968 5.0638 31.728 5.10547C31.7697 5.13672 31.7905 5.17839 31.7905 5.23047V6.7513Z" fill="#D72333"/>
<path d="M37.3874 5.23047C37.3874 5.17839 37.4082 5.13672 37.4499 5.10547C37.4915 5.0638 37.5384 5.04297 37.5957 5.04297H39.4082C39.4603 5.04297 39.502 5.0638 39.5332 5.10547C39.5749 5.13672 39.5957 5.17839 39.5957 5.23047V15.8346C39.5957 15.8919 39.5749 15.9388 39.5332 15.9805C39.502 16.0117 39.4603 16.0221 39.4082 16.0221H37.3249C37.2259 16.0221 37.1634 15.9701 37.1374 15.8555L35.179 9.79297C35.179 9.76693 35.1634 9.76172 35.1374 9.77214C35.1061 9.77214 35.0957 9.78776 35.0957 9.8138L35.1165 15.8346C35.1165 15.8919 35.0957 15.9388 35.054 15.9805C35.0124 16.0117 34.9707 16.0221 34.929 16.0221H33.0957C33.0384 16.0221 32.9915 16.0117 32.9499 15.9805C32.9186 15.9388 32.9082 15.8919 32.9082 15.8346V5.23047C32.9082 5.17839 32.9186 5.13672 32.9499 5.10547C32.9915 5.0638 33.0384 5.04297 33.0957 5.04297H35.1582C35.252 5.04297 35.3249 5.09505 35.3665 5.1888L37.3249 11.2721C37.3249 11.3034 37.3353 11.3138 37.3665 11.3138C37.3926 11.3034 37.4082 11.2826 37.4082 11.2513L37.3874 5.23047Z" fill="#D72333"/>
<path d="M52.3122 15.793C52.3382 15.8346 52.3538 15.8763 52.3538 15.918C52.3538 15.9909 52.3018 16.0221 52.208 16.0221H50.208C50.109 16.0221 50.0309 15.9909 49.9788 15.918L49.6038 15.418C49.5622 15.3919 49.5205 15.3919 49.4788 15.418C48.7132 15.918 47.8538 16.168 46.8955 16.168C45.9476 16.168 45.1976 15.9336 44.6455 15.4596C44.1038 14.9909 43.833 14.293 43.833 13.3763C43.833 12.7096 43.9788 12.1419 44.2705 11.668C44.5726 11.1992 44.9893 10.7617 45.5205 10.3555C45.5622 10.3294 45.5674 10.293 45.5413 10.2513C45.0518 9.60026 44.7393 9.11588 44.6038 8.79297C44.4632 8.47526 44.3955 8.12109 44.3955 7.73047C44.3955 6.88672 44.6559 6.20443 45.1872 5.6888C45.7132 5.17839 46.4059 4.91797 47.2705 4.91797C47.8538 4.91797 48.3747 5.04297 48.833 5.29297C49.2913 5.53255 49.6507 5.86588 49.9163 6.29297C50.1768 6.72526 50.3122 7.22526 50.3122 7.79297C50.3122 8.43359 50.1455 8.99088 49.8122 9.45964C49.4893 9.91797 49.0465 10.3503 48.4788 10.7513C48.4215 10.7826 48.4163 10.8138 48.458 10.8555L48.8955 11.418L49.3747 12.043L49.6247 12.3763C49.6663 12.418 49.6976 12.418 49.7288 12.3763C49.9632 12.0742 50.208 11.6836 50.458 11.2096C50.5101 11.1003 50.5934 11.0742 50.708 11.1263L52.083 11.8971C52.1768 11.9544 52.1976 12.043 52.1455 12.168C51.7705 12.8659 51.3851 13.4753 50.9997 14.0013C50.958 14.0326 50.958 14.0638 50.9997 14.1055L52.3122 15.793ZM47.333 6.91797C47.109 6.91797 46.9268 7.0013 46.7913 7.16797C46.6663 7.33464 46.6038 7.55339 46.6038 7.8138C46.6038 8.01172 46.6299 8.1888 46.6872 8.35547C46.7549 8.51172 46.9163 8.76693 47.1663 9.1263C47.1924 9.15755 47.2288 9.15755 47.2705 9.1263C47.8122 8.70964 48.083 8.26693 48.083 7.79297C48.083 7.54297 48.0101 7.33464 47.8747 7.16797C47.734 7.0013 47.5518 6.91797 47.333 6.91797ZM47.1247 14.2721C47.4424 14.2721 47.8226 14.1419 48.2705 13.8763C48.3122 13.8346 48.3122 13.8034 48.2705 13.7721L47.833 13.1888L46.8747 11.9805C46.833 11.9388 46.7913 11.9388 46.7497 11.9805C46.2913 12.3867 46.0622 12.793 46.0622 13.2096C46.0622 13.5169 46.1507 13.7721 46.333 13.9805C46.5257 14.1784 46.7913 14.2721 47.1247 14.2721Z" fill="#D72333"/>
<path d="M63.0078 13.0013C63.0078 13.9753 62.7161 14.7253 62.1328 15.2513C61.5495 15.7669 60.7839 16.0221 59.8411 16.0221H56.8828C56.8255 16.0221 56.7786 16.0117 56.737 15.9805C56.7057 15.9388 56.6953 15.8919 56.6953 15.8346V5.23047C56.6953 5.17839 56.7057 5.13672 56.737 5.10547C56.7786 5.0638 56.8255 5.04297 56.8828 5.04297H59.5078C60.5495 5.04297 61.362 5.29297 61.9453 5.79297C62.5391 6.29297 62.8411 7.04297 62.8411 8.04297C62.8411 9.07422 62.487 9.82422 61.7786 10.293C61.737 10.3242 61.7266 10.3555 61.7578 10.3971C62.5911 10.9805 63.0078 11.8503 63.0078 13.0013ZM58.987 6.9388C58.9297 6.9388 58.9036 6.97005 58.9036 7.02214V9.48047C58.9036 9.53776 58.9297 9.5638 58.987 9.5638H59.5495C59.9089 9.5638 60.1849 9.45443 60.3828 9.23047C60.5755 8.99609 60.6745 8.67839 60.6745 8.27214C60.6745 7.84505 60.5755 7.51693 60.3828 7.29297C60.2005 7.05859 59.9245 6.9388 59.5495 6.9388H58.987ZM59.6745 14.1055C60.0182 14.1055 60.2891 13.9805 60.487 13.7305C60.6953 13.4805 60.7995 13.1263 60.7995 12.668C60.7995 12.2096 60.6953 11.8503 60.487 11.5846C60.2891 11.3086 60.0286 11.168 59.6953 11.168H58.987C58.9297 11.168 58.9036 11.1888 58.9036 11.2305V14.0221C58.9036 14.0794 58.9297 14.1055 58.987 14.1055H59.6745Z" fill="#D72333"/>
<path d="M68.3983 16.0221C68.2837 16.0221 68.2108 15.9701 68.1691 15.8555L66.9608 11.543C66.9451 11.5013 66.9243 11.4805 66.8983 11.4805H66.3566C66.2993 11.4805 66.2733 11.5013 66.2733 11.543V15.8346C66.2733 15.8919 66.2524 15.9388 66.2108 15.9805C66.1795 16.0117 66.1379 16.0221 66.0858 16.0221H64.2524C64.1951 16.0221 64.1483 16.0117 64.1066 15.9805C64.0754 15.9388 64.0649 15.8919 64.0649 15.8346V5.23047C64.0649 5.17839 64.0754 5.13672 64.1066 5.10547C64.1483 5.0638 64.1951 5.04297 64.2524 5.04297H67.4191C68.0024 5.04297 68.5129 5.18359 68.9608 5.45964C69.4035 5.74088 69.7524 6.1263 70.0024 6.6263C70.2524 7.1263 70.3774 7.70443 70.3774 8.35547C70.3774 8.97005 70.2576 9.51172 70.0233 9.98047C69.7837 10.4544 69.4608 10.8242 69.0441 11.0846C69.0129 11.1003 68.992 11.1159 68.9816 11.1263C68.9816 11.1419 68.9868 11.1576 69.0024 11.168L70.4399 15.793L70.4608 15.8555C70.4608 15.9701 70.3983 16.0221 70.2733 16.0221H68.3983ZM66.3566 6.9388C66.2993 6.9388 66.2733 6.97005 66.2733 7.02214V9.70964C66.2733 9.7513 66.2993 9.77214 66.3566 9.77214H67.0649C67.3826 9.77214 67.6483 9.64714 67.8566 9.39714C68.0649 9.13672 68.1691 8.79297 68.1691 8.3763C68.1691 7.93359 68.0649 7.58464 67.8566 7.33464C67.6483 7.07422 67.3826 6.9388 67.0649 6.9388H66.3566Z" fill="#D72333"/>
<path d="M74.4714 16.1471C73.4974 16.1471 72.7266 15.8711 72.1589 15.3138C71.5859 14.7461 71.3047 13.9909 71.3047 13.043V8.02214C71.3047 7.07943 71.5859 6.32943 72.1589 5.77214C72.7266 5.20443 73.4974 4.91797 74.4714 4.91797C75.4297 4.91797 76.2005 5.20443 76.7839 5.77214C77.3672 6.32943 77.6589 7.07943 77.6589 8.02214V13.043C77.6589 13.9909 77.3672 14.7461 76.7839 15.3138C76.2005 15.8711 75.4297 16.1471 74.4714 16.1471ZM74.4714 14.2513C74.763 14.2513 74.9922 14.1576 75.1589 13.9596C75.3359 13.7513 75.4297 13.4753 75.4297 13.1263V7.91797C75.4297 7.58464 75.3359 7.32422 75.1589 7.1263C74.9922 6.91797 74.763 6.8138 74.4714 6.8138C74.1797 6.8138 73.9401 6.91797 73.763 7.1263C73.5964 7.32422 73.513 7.58464 73.513 7.91797V13.1263C73.513 13.4753 73.5964 13.7513 73.763 13.9596C73.9401 14.1576 74.1797 14.2513 74.4714 14.2513Z" fill="#D72333"/>
<path d="M84.9505 5.04297C85.0026 5.04297 85.0443 5.0638 85.0755 5.10547C85.1172 5.13672 85.138 5.17839 85.138 5.23047V6.7513C85.138 6.80859 85.1172 6.85547 85.0755 6.89714C85.0443 6.92839 85.0026 6.9388 84.9505 6.9388H82.9922C82.9349 6.9388 82.9089 6.97005 82.9089 7.02214V15.8346C82.9089 15.8919 82.888 15.9388 82.8464 15.9805C82.8151 16.0117 82.7734 16.0221 82.7214 16.0221H80.888C80.8464 16.0221 80.8047 16.0117 80.763 15.9805C80.7214 15.9388 80.7005 15.8919 80.7005 15.8346V7.02214C80.7005 6.97005 80.6693 6.9388 80.6172 6.9388H78.7422C78.6849 6.9388 78.638 6.92839 78.5964 6.89714C78.5651 6.85547 78.5547 6.80859 78.5547 6.7513V5.23047C78.5547 5.17839 78.5651 5.13672 78.5964 5.10547C78.638 5.0638 78.6849 5.04297 78.7422 5.04297H84.9505Z" fill="#D72333"/>
<mask id="mask3_25_9442" style="mask-type:luminance" maskUnits="userSpaceOnUse" x="0" y="20" width="4" height="7">
<path d="M0 20H3.89583V26.6667H0V20Z" fill="white"/>
</mask>
<g mask="url(#mask3_25_9442)">
<path d="M3.03971 26.5697C2.98242 26.5697 2.94596 26.5436 2.93555 26.4863L2.70638 25.3613C2.70638 25.3509 2.69596 25.3405 2.68555 25.3405C2.68555 25.3405 2.67513 25.3405 2.66471 25.3405H1.01888C1.01888 25.3405 1.00846 25.3405 0.998047 25.3405C0.982422 25.3405 0.977214 25.3509 0.977214 25.3613L0.748047 26.4863C0.748047 26.5436 0.716796 26.5697 0.664714 26.5697H0.20638C0.164714 26.5697 0.133463 26.5645 0.123047 26.5488C0.107422 26.5228 0.107422 26.4967 0.123047 26.4655L1.47721 20.3197C1.48763 20.2676 1.52409 20.2363 1.58138 20.2363H2.12305C2.17513 20.2363 2.20638 20.2676 2.20638 20.3197L3.58138 26.4655V26.4863C3.58138 26.5436 3.55013 26.5697 3.49805 26.5697H3.03971ZM1.10221 24.778C1.10221 24.7936 1.10742 24.7988 1.12305 24.7988H2.56055C2.57096 24.7988 2.58138 24.7936 2.58138 24.778L1.85221 21.2155C1.85221 21.2051 1.8418 21.1947 1.83138 21.1947C1.83138 21.1947 1.83138 21.2051 1.83138 21.2155L1.10221 24.778Z" fill="#D72333"/>
</g>
<path d="M7.57568 26.6322C7.10172 26.6322 6.72152 26.4967 6.42985 26.2155C6.1486 25.9238 6.01318 25.5436 6.01318 25.0697V21.7572C6.01318 21.2728 6.1486 20.8926 6.42985 20.6113C6.72152 20.3197 7.10172 20.1738 7.57568 20.1738C8.03402 20.1738 8.40902 20.3197 8.70068 20.6113C8.99235 20.8926 9.13818 21.2728 9.13818 21.7572V25.0697C9.13818 25.528 8.99235 25.903 8.70068 26.1947C8.40902 26.4863 8.03402 26.6322 7.57568 26.6322ZM7.57568 26.0905C7.8361 26.0905 8.05485 26.002 8.22152 25.8197C8.3986 25.627 8.49235 25.3822 8.49235 25.0905V21.7155C8.49235 21.4238 8.3986 21.1895 8.22152 21.0072C8.05485 20.8301 7.8361 20.7363 7.57568 20.7363C7.29443 20.7363 7.07568 20.8301 6.90902 21.0072C6.74235 21.1895 6.65902 21.4238 6.65902 21.7155V25.0905C6.65902 25.3822 6.74235 25.627 6.90902 25.8197C7.07568 26.002 7.29443 26.0905 7.57568 26.0905Z" fill="#D72333"/>
</g>
</g>
</svg>
