<svg width="17" height="20" viewBox="0 0 17 20" fill="none" xmlns="http://www.w3.org/2000/svg">
<mask id="mask0_25_9361" style="mask-type:luminance" maskUnits="userSpaceOnUse" x="0" y="0" width="17" height="20">
<path d="M0 0H16.3073V19.3542H0V0Z" fill="white"/>
</mask>
<g mask="url(#mask0_25_9361)">
<mask id="mask1_25_9361" style="mask-type:luminance" maskUnits="userSpaceOnUse" x="0" y="-1" width="18" height="21">
<path d="M17.3333 -0.645996H0V19.354H17.3333V-0.645996Z" fill="white"/>
</mask>
<g mask="url(#mask1_25_9361)">
<path d="M2.84798 14.3483C2.79069 14.3483 2.74902 14.3379 2.72298 14.3066C2.69173 14.265 2.68652 14.2233 2.70215 14.1816L5.38965 4.41081C5.38965 4.40039 5.37923 4.38477 5.36882 4.36914C5.35319 4.35872 5.33757 4.34831 5.32715 4.34831H2.45215C2.41048 4.34831 2.38965 4.36914 2.38965 4.41081V5.03581C2.38965 5.15039 2.33236 5.20247 2.22298 5.20247H1.61882C1.50423 5.20247 1.45215 5.15039 1.45215 5.03581V3.51497C1.45215 3.42122 1.50423 3.36914 1.61882 3.36914H6.41048C6.51986 3.36914 6.57715 3.42122 6.57715 3.51497V4.24414C6.57715 4.27539 6.56152 4.33789 6.53548 4.43164L3.86882 14.2025C3.85319 14.3014 3.7959 14.3483 3.70215 14.3483H2.84798Z" fill="#D72333"/>
<path d="M8.33691 14.3275C8.07129 14.3275 7.85775 14.2441 7.69108 14.0775C7.53483 13.9108 7.46191 13.7025 7.46191 13.4525C7.46191 13.1921 7.53483 12.9733 7.69108 12.8066C7.85775 12.64 8.07129 12.5566 8.33691 12.5566C8.58691 12.5566 8.79525 12.64 8.96191 12.8066C9.12858 12.9733 9.21191 13.1921 9.21191 13.4525C9.21191 13.7025 9.12858 13.9108 8.96191 14.0775C8.79525 14.2441 8.58691 14.3275 8.33691 14.3275Z" fill="#D72333"/>
<path d="M11.7954 13.3066C11.7798 13.3223 11.7798 13.3379 11.7954 13.3483C11.8058 13.3639 11.8215 13.3691 11.8371 13.3691H15.5246C15.634 13.3691 15.6912 13.4264 15.6912 13.5358V14.1816C15.6912 14.2962 15.634 14.3483 15.5246 14.3483H10.6079C10.4933 14.3483 10.4412 14.2962 10.4412 14.1816V13.4941C10.4412 13.4108 10.4621 13.3431 10.5037 13.2858C10.8215 12.7754 11.0037 12.4837 11.0454 12.4108C11.9725 10.9525 12.7017 9.76497 13.2329 8.84831C13.8996 7.71289 14.2329 6.75977 14.2329 5.99414C14.2329 5.45247 14.1079 5.02539 13.8579 4.70247C13.6079 4.38477 13.2798 4.22331 12.8787 4.22331C12.4725 4.22331 12.1496 4.38477 11.8996 4.70247C11.66 5.00977 11.5506 5.42643 11.5662 5.95247V6.55664C11.5662 6.6556 11.509 6.70247 11.3996 6.70247H10.5871C10.4725 6.70247 10.4204 6.6556 10.4204 6.55664V5.93164C10.4465 5.12956 10.6808 4.48372 11.1287 3.99414C11.5871 3.49414 12.1808 3.24414 12.9204 3.24414C13.6548 3.24414 14.2433 3.50456 14.6912 4.01497C15.1496 4.51497 15.3787 5.17643 15.3787 5.99414C15.3787 6.98372 15.0037 8.0931 14.2537 9.32747C13.8787 9.9681 13.3475 10.8275 12.6704 11.9108L11.7954 13.3066Z" fill="#D72333"/>
</g>
</g>
</svg>
