<svg width="29" height="9" viewBox="0 0 29 9" fill="none" xmlns="http://www.w3.org/2000/svg">
<mask id="mask0_25_16255" style="mask-type:luminance" maskUnits="userSpaceOnUse" x="0" y="0" width="29" height="9">
<path d="M0 0H28.4531V8.38542H0V0Z" fill="white"/>
</mask>
<g mask="url(#mask0_25_16255)">
<path d="M0.619629 4.61462C0.619629 4.61462 2.09359 5.31253 3.43734 6.83858C5.32796 7.61462 6.69775 8.15628 8.2238 8.02608C9.59359 7.43233 11.7915 6.47399 13.1873 4.45837C15.3332 3.39587 17.479 2.33858 19.703 1.3542C22.104 1.48441 23.7342 1.58857 25.078 2.59899C26.3957 3.47399 27.6353 4.94795 27.9998 4.89587C28.1561 4.6667 28.104 4.17191 28.0519 3.83858C27.7915 3.68233 27.7134 3.94274 27.6873 3.94274C27.6873 3.94274 27.9738 3.73441 28.0519 3.83858C28.1561 3.94274 26.0623 1.3542 24.1457 0.630242C22.2863 0.401075 19.88 0.114618 17.7082 1.25003C15.5363 2.15628 13.1092 3.19274 11.505 5.28649C9.17692 6.57816 8.6613 6.86462 8.0415 6.86462C7.44775 6.91149 4.7863 7.25003 2.9738 4.92191C0.854004 3.73441 1.21859 3.89066 1.1665 3.86462C1.1665 3.86462 0.880046 3.6042 0.775879 3.57816C0.671712 3.57816 0.671712 3.94274 0.723796 4.06774" fill="#D72333"/>
</g>
</svg>
