<svg width="229" height="19" viewBox="0 0 229 19" fill="none" xmlns="http://www.w3.org/2000/svg">
<mask id="mask0_25_16775" style="mask-type:luminance" maskUnits="userSpaceOnUse" x="0" y="0" width="229" height="19">
<path d="M0 0H228.333V18.8073H0V0Z" fill="white"/>
</mask>
<g mask="url(#mask0_25_16775)">
<mask id="mask1_25_16775" style="mask-type:luminance" maskUnits="userSpaceOnUse" x="0" y="0" width="229" height="19">
<path d="M9.40625 0H218.917C224.109 0 228.318 4.20833 228.318 9.40104C228.318 14.599 224.109 18.8073 218.917 18.8073H9.40625C4.20833 18.8073 0 14.599 0 9.40104C0 4.20833 4.20833 0 9.40625 0Z" fill="white"/>
</mask>
<g mask="url(#mask1_25_16775)">
<mask id="mask2_25_16775" style="mask-type:luminance" maskUnits="userSpaceOnUse" x="-2" y="-1" width="232" height="21">
<path d="M229.495 -0.255371H-1.17188V19.7446H229.495V-0.255371Z" fill="white"/>
</mask>
<g mask="url(#mask2_25_16775)">
<mask id="mask3_25_16775" style="mask-type:luminance" maskUnits="userSpaceOnUse" x="0" y="0" width="229" height="19">
<path d="M0 0H228.333V18.8073H0V0Z" fill="white"/>
</mask>
<g mask="url(#mask3_25_16775)">
<mask id="mask4_25_16775" style="mask-type:luminance" maskUnits="userSpaceOnUse" x="0" y="0" width="229" height="19">
<path d="M9.40625 0H218.917C224.109 0 228.318 4.20833 228.318 9.40104C228.318 14.599 224.109 18.8073 218.917 18.8073H9.40625C4.20833 18.8073 0 14.599 0 9.40104C0 4.20833 4.20833 0 9.40625 0Z" fill="white"/>
</mask>
<g mask="url(#mask4_25_16775)">
<path d="M0 0H228.333V18.8073H0V0Z" fill="#D72333"/>
</g>
</g>
</g>
</g>
</g>
</svg>
