<svg width="45" height="20" viewBox="0 0 45 20" fill="none" xmlns="http://www.w3.org/2000/svg">
<mask id="mask0_24_6528" style="mask-type:luminance" maskUnits="userSpaceOnUse" x="0" y="0" width="45" height="20">
<path d="M0 0H44.3542V20H0V0Z" fill="white"/>
</mask>
<g mask="url(#mask0_24_6528)">
<mask id="mask1_24_6528" style="mask-type:luminance" maskUnits="userSpaceOnUse" x="-1" y="0" width="46" height="20">
<path d="M44.3543 0H-0.979004V20H44.3543V0Z" fill="white"/>
</mask>
<g mask="url(#mask1_24_6528)">
<path d="M6.43799 6.30355C6.43799 6.36084 6.41716 6.40771 6.37549 6.44938C6.34424 6.48063 6.30257 6.49105 6.25049 6.49105H2.97966C2.92236 6.49105 2.89632 6.5223 2.89632 6.57438V9.05355C2.89632 9.11084 2.92236 9.13688 2.97966 9.13688H4.85466C4.90674 9.13688 4.94841 9.15771 4.97966 9.19938C5.02132 9.23063 5.04216 9.2723 5.04216 9.32438V10.8452C5.04216 10.8869 5.02132 10.9285 4.97966 10.9702C4.94841 11.0119 4.90674 11.0327 4.85466 11.0327H2.97966C2.92236 11.0327 2.89632 11.0535 2.89632 11.0952V13.5952C2.89632 13.6525 2.92236 13.6785 2.97966 13.6785H6.25049C6.30257 13.6785 6.34424 13.6994 6.37549 13.741C6.41716 13.7723 6.43799 13.814 6.43799 13.866V15.3869C6.43799 15.4442 6.41716 15.491 6.37549 15.5327C6.34424 15.564 6.30257 15.5744 6.25049 15.5744H0.875488C0.818196 15.5744 0.771322 15.564 0.729655 15.5327C0.698406 15.491 0.687988 15.4442 0.687988 15.3869V4.78271C0.687988 4.73063 0.698406 4.68897 0.729655 4.65771C0.771322 4.61605 0.818196 4.59521 0.875488 4.59521H6.25049C6.30257 4.59521 6.34424 4.61605 6.37549 4.65771C6.41716 4.68897 6.43799 4.73063 6.43799 4.78271V6.30355Z" fill="#D72333"/>
<path d="M7.41462 15.5744C7.3417 15.5744 7.29483 15.5535 7.26879 15.5119C7.25316 15.4702 7.25837 15.4181 7.28962 15.3452L9.41462 10.1369C9.42504 10.0952 9.42504 10.064 9.41462 10.0327L7.28962 4.80355C7.27399 4.79313 7.26879 4.76188 7.26879 4.72021C7.26879 4.63688 7.31566 4.59521 7.41462 4.59521H9.31045C9.4042 4.59521 9.47712 4.6473 9.51879 4.74105L10.5605 7.76188C10.5709 7.79313 10.5865 7.80355 10.6021 7.80355C10.6282 7.80355 10.6438 7.79313 10.6438 7.76188L11.7063 4.74105C11.7323 4.6473 11.8 4.59521 11.9146 4.59521H13.7688C13.8521 4.59521 13.899 4.61605 13.9146 4.65771C13.9407 4.69938 13.9407 4.75146 13.9146 4.80355L11.7896 10.0327C11.774 10.064 11.774 10.0952 11.7896 10.1369L13.9146 15.3452C13.925 15.3765 13.9355 15.4077 13.9355 15.4494C13.9355 15.5327 13.8782 15.5744 13.7688 15.5744H11.9146C11.8 15.5744 11.7323 15.5223 11.7063 15.4077L10.6438 12.4285C10.6438 12.3869 10.6282 12.366 10.6021 12.366C10.5865 12.366 10.5709 12.3869 10.5605 12.4285L9.49795 15.4077C9.45629 15.5223 9.38337 15.5744 9.28962 15.5744H7.41462Z" fill="#D72333"/>
<path d="M21.097 4.59521C21.1491 4.59521 21.1908 4.61605 21.222 4.65771C21.2637 4.68897 21.2845 4.73063 21.2845 4.78271V6.30355C21.2845 6.36084 21.2637 6.40771 21.222 6.44938C21.1908 6.48063 21.1491 6.49105 21.097 6.49105H19.1387C19.0814 6.49105 19.0553 6.5223 19.0553 6.57438V15.3869C19.0553 15.4442 19.0345 15.491 18.9928 15.5327C18.9616 15.564 18.9199 15.5744 18.8678 15.5744H17.0345C16.9928 15.5744 16.9512 15.564 16.9095 15.5327C16.8678 15.491 16.847 15.4442 16.847 15.3869V6.57438C16.847 6.5223 16.8158 6.49105 16.7637 6.49105H14.8887C14.8314 6.49105 14.7845 6.48063 14.7428 6.44938C14.7116 6.40771 14.7012 6.36084 14.7012 6.30355V4.78271C14.7012 4.73063 14.7116 4.68897 14.7428 4.65771C14.7845 4.61605 14.8314 4.59521 14.8887 4.59521H21.097Z" fill="#D72333"/>
<path d="M26.6908 15.5744C26.5762 15.5744 26.5033 15.5223 26.4616 15.4077L25.2533 11.0952C25.2376 11.0535 25.2168 11.0327 25.1908 11.0327H24.6491C24.5918 11.0327 24.5658 11.0535 24.5658 11.0952V15.3869C24.5658 15.4442 24.5449 15.491 24.5033 15.5327C24.472 15.564 24.4303 15.5744 24.3783 15.5744H22.5449C22.4876 15.5744 22.4408 15.564 22.3991 15.5327C22.3678 15.491 22.3574 15.4442 22.3574 15.3869V4.78271C22.3574 4.73063 22.3678 4.68897 22.3991 4.65771C22.4408 4.61605 22.4876 4.59521 22.5449 4.59521H25.7116C26.2949 4.59521 26.8053 4.73584 27.2533 5.01188C27.696 5.29313 28.0449 5.67855 28.2949 6.17855C28.5449 6.67855 28.6699 7.25667 28.6699 7.90771C28.6699 8.5223 28.5501 9.06397 28.3158 9.53271C28.0762 10.0067 27.7533 10.3765 27.3366 10.6369C27.3053 10.6525 27.2845 10.6681 27.2741 10.6785C27.2741 10.6942 27.2793 10.7098 27.2949 10.7202L28.7324 15.3452L28.7533 15.4077C28.7533 15.5223 28.6908 15.5744 28.5658 15.5744H26.6908ZM24.6491 6.49105C24.5918 6.49105 24.5658 6.5223 24.5658 6.57438V9.26188C24.5658 9.30355 24.5918 9.32438 24.6491 9.32438H25.3574C25.6751 9.32438 25.9408 9.19938 26.1491 8.94938C26.3574 8.68897 26.4616 8.34521 26.4616 7.92855C26.4616 7.48584 26.3574 7.13688 26.1491 6.88688C25.9408 6.62646 25.6751 6.49105 25.3574 6.49105H24.6491Z" fill="#D72333"/>
<path d="M34.3729 15.5744C34.2322 15.5744 34.1645 15.5223 34.1645 15.4077L33.9145 13.8869C33.9145 13.8452 33.8781 13.8244 33.8104 13.8244H31.8312C31.7583 13.8244 31.727 13.8452 31.727 13.8869L31.477 15.4077C31.4614 15.5223 31.3937 15.5744 31.2687 15.5744H29.4354C29.2947 15.5744 29.2479 15.5067 29.2895 15.366L31.5812 4.76188C31.6072 4.65251 31.675 4.59521 31.7895 4.59521H33.9145C34.0239 4.59521 34.0864 4.65251 34.102 4.76188L36.3937 15.366L36.4145 15.4285C36.4145 15.5275 36.3572 15.5744 36.2479 15.5744H34.3729ZM32.0395 12.0327C32.0395 12.09 32.0604 12.116 32.102 12.116H33.5187C33.5708 12.116 33.5916 12.09 33.5812 12.0327L32.8312 7.74105C32.8312 7.71501 32.8156 7.69938 32.7895 7.69938C32.7739 7.69938 32.7583 7.71501 32.7479 7.74105L32.0395 12.0327Z" fill="#D72333"/>
<mask id="mask2_24_6528" style="mask-type:luminance" maskUnits="userSpaceOnUse" x="36" y="4" width="8" height="12">
<path d="M36.3545 4H43.9066V16H36.3545V4Z" fill="white"/>
</mask>
<g mask="url(#mask2_24_6528)">
<path d="M40.1442 15.6994C39.5296 15.6994 38.9984 15.5796 38.54 15.3452C38.0817 15.0952 37.7275 14.7567 37.4775 14.3244C37.2275 13.8973 37.1025 13.3973 37.1025 12.8244V12.366C37.1025 12.3244 37.113 12.2827 37.1442 12.241C37.1859 12.1994 37.2327 12.1785 37.29 12.1785H39.0817C39.1338 12.1785 39.1755 12.1994 39.2067 12.241C39.2484 12.2827 39.2692 12.3244 39.2692 12.366V12.7202C39.2692 13.0431 39.3525 13.3035 39.5192 13.5119C39.6859 13.7098 39.8942 13.8035 40.1442 13.8035C40.3942 13.8035 40.6025 13.715 40.7692 13.5327C40.9463 13.34 41.04 13.09 41.04 12.7827C41.04 12.465 40.9255 12.1942 40.7067 11.9702C40.4984 11.7515 40.0921 11.4181 39.4984 10.9702C38.9671 10.5952 38.54 10.2619 38.2067 9.97021C37.8838 9.67855 37.6077 9.31917 37.3734 8.88688C37.1494 8.4598 37.04 7.96501 37.04 7.40771C37.04 6.5223 37.3161 5.81397 37.8734 5.28271C38.4255 4.74105 39.165 4.47021 40.0817 4.47021C40.9984 4.47021 41.7327 4.75146 42.29 5.30355C42.8421 5.86084 43.1234 6.5848 43.1234 7.47021V7.86605C43.1234 7.90771 43.1025 7.94938 43.0609 7.99105C43.0296 8.03271 42.988 8.05355 42.9359 8.05355H41.1442C41.0869 8.05355 41.04 8.03271 40.9984 7.99105C40.9671 7.94938 40.9567 7.90771 40.9567 7.86605V7.42855C40.9567 7.11084 40.8734 6.85563 40.7067 6.65771C40.54 6.46501 40.3317 6.36605 40.0817 6.36605C39.8317 6.36605 39.6234 6.4598 39.4567 6.63688C39.3005 6.81917 39.2275 7.07438 39.2275 7.40771C39.2275 7.71501 39.3213 7.99105 39.5192 8.24105C39.7275 8.48063 40.1234 8.81397 40.7067 9.24105C41.3421 9.71501 41.8317 10.1056 42.165 10.4077C42.4984 10.6994 42.7536 11.0275 42.9359 11.3869C43.113 11.7515 43.2067 12.1785 43.2067 12.6785C43.2067 13.6108 42.9202 14.3452 42.3525 14.8869C41.7952 15.4285 41.0609 15.6994 40.1442 15.6994Z" fill="#D72333"/>
</g>
</g>
</g>
</svg>
