<svg width="29" height="8" viewBox="0 0 29 8" fill="none" xmlns="http://www.w3.org/2000/svg">
<mask id="mask0_25_16102" style="mask-type:luminance" maskUnits="userSpaceOnUse" x="0" y="0" width="29" height="8">
<path d="M0 0H28.4531V8H0V0Z" fill="white"/>
</mask>
<g mask="url(#mask0_25_16102)">
<path d="M0.619629 4.24977C0.619629 4.24977 2.09359 4.94768 3.43734 6.47372C5.32796 7.24977 6.69775 7.79143 8.2238 7.66122C9.59359 7.06747 11.7915 6.11435 13.1873 4.09352C15.3332 3.03622 17.479 1.97372 19.703 0.994557C22.104 1.12477 23.7342 1.22372 25.078 2.23414C26.3957 3.11435 27.6353 4.58831 27.9998 4.53622C28.1561 4.30185 28.104 3.81227 28.0519 3.47372C27.7915 3.31747 27.7134 3.57789 27.6873 3.57789C27.6873 3.57789 27.9738 3.36956 28.0519 3.47372C28.1561 3.57789 26.0623 0.994557 24.1457 0.270599C22.2863 0.036224 19.88 -0.245027 17.7082 0.89039C15.5363 1.79664 13.1092 2.82789 11.505 4.92164C9.17692 6.21331 8.6613 6.49977 8.0415 6.49977C7.44775 6.55185 4.7863 6.88518 2.9738 4.56227C0.854004 3.36956 1.21859 3.52581 1.1665 3.49977C1.1665 3.49977 0.880046 3.24456 0.775879 3.21852C0.671712 3.21852 0.671712 3.57789 0.723796 3.7081" fill="#D72333"/>
</g>
</svg>
