<svg width="116" height="47" viewBox="0 0 116 47" fill="none" xmlns="http://www.w3.org/2000/svg">
<mask id="mask0_24_6165" style="mask-type:luminance" maskUnits="userSpaceOnUse" x="0" y="0" width="116" height="47">
<path d="M0 0H115.021V46.6667H0V0Z" fill="white"/>
</mask>
<g mask="url(#mask0_24_6165)">
<mask id="mask1_24_6165" style="mask-type:luminance" maskUnits="userSpaceOnUse" x="-1" y="0" width="117" height="47">
<path d="M115.021 0H-0.979004V46.6667H115.021V0Z" fill="white"/>
</mask>
<g mask="url(#mask1_24_6165)">
<path d="M3.52116 15.3254C2.90658 15.3254 2.37533 15.2056 1.91699 14.9712C1.45866 14.7212 1.10449 14.3827 0.854492 13.9504C0.604492 13.5233 0.479492 13.0233 0.479492 12.4504V11.992C0.479492 11.9504 0.48991 11.9087 0.521159 11.867C0.562826 11.8254 0.6097 11.8045 0.666992 11.8045H2.45866C2.51074 11.8045 2.55241 11.8254 2.58366 11.867C2.62533 11.9087 2.64616 11.9504 2.64616 11.992V12.3462C2.64616 12.6691 2.72949 12.9295 2.89616 13.1379C3.06283 13.3358 3.27116 13.4295 3.52116 13.4295C3.77116 13.4295 3.97949 13.341 4.14616 13.1587C4.32324 12.966 4.41699 12.716 4.41699 12.4087C4.41699 12.091 4.30241 11.8202 4.08366 11.5962C3.87533 11.3774 3.46907 11.0441 2.87533 10.5962C2.34407 10.2212 1.91699 9.88786 1.58366 9.59619C1.26074 9.30452 0.9847 8.94515 0.750326 8.51286C0.526367 8.08577 0.416992 7.59098 0.416992 7.03369C0.416992 6.14828 0.693034 5.43994 1.25033 4.90869C1.80241 4.36702 2.54199 4.09619 3.45866 4.09619C4.37533 4.09619 5.1097 4.37744 5.66699 4.92952C6.21908 5.48682 6.50033 6.21077 6.50033 7.09619V7.49202C6.50033 7.53369 6.47949 7.57536 6.43783 7.61702C6.40658 7.65869 6.36491 7.67952 6.31283 7.67952H4.52116C4.46387 7.67952 4.41699 7.65869 4.37533 7.61702C4.34407 7.57536 4.33366 7.53369 4.33366 7.49202V7.05452C4.33366 6.73682 4.25033 6.48161 4.08366 6.28369C3.91699 6.09098 3.70866 5.99202 3.45866 5.99202C3.20866 5.99202 3.00033 6.08577 2.83366 6.26286C2.67741 6.44515 2.60449 6.70036 2.60449 7.03369C2.60449 7.34098 2.69824 7.61702 2.89616 7.86702C3.10449 8.10661 3.50033 8.43994 4.08366 8.86702C4.71908 9.34098 5.20866 9.73161 5.54199 10.0337C5.87533 10.3254 6.13053 10.6535 6.31283 11.0129C6.48991 11.3774 6.58366 11.8045 6.58366 12.3045C6.58366 13.2368 6.2972 13.9712 5.72949 14.5129C5.1722 15.0545 4.43783 15.3254 3.52116 15.3254Z" fill="#D72333"/>
<path d="M10.61 15.3254C9.67773 15.3254 8.92773 15.0493 8.36003 14.492C7.78711 13.9243 7.50586 13.1743 7.50586 12.242V7.15869C7.50586 6.23161 7.78711 5.48682 8.36003 4.92952C8.92773 4.37744 9.67773 4.09619 10.61 4.09619C11.5684 4.09619 12.3288 4.37744 12.9017 4.92952C13.4694 5.48682 13.7559 6.23161 13.7559 7.15869V7.32536C13.7559 7.38265 13.735 7.42952 13.6934 7.47119C13.6621 7.50244 13.6204 7.51286 13.5684 7.51286L11.735 7.59619C11.61 7.59619 11.5475 7.54411 11.5475 7.42952V7.01286C11.5475 6.71077 11.4642 6.46598 11.2975 6.28369C11.1309 6.09098 10.9017 5.99202 10.61 5.99202C10.3444 5.99202 10.1309 6.09098 9.96419 6.28369C9.79753 6.46598 9.71419 6.71077 9.71419 7.01286V12.4295C9.71419 12.7368 9.79753 12.9816 9.96419 13.1587C10.1309 13.341 10.3444 13.4295 10.61 13.4295C10.9017 13.4295 11.1309 13.341 11.2975 13.1587C11.4642 12.9816 11.5475 12.7368 11.5475 12.4295V11.992C11.5475 11.9504 11.5579 11.9087 11.5892 11.867C11.6309 11.8254 11.6777 11.8045 11.735 11.8045L13.5684 11.8879C13.6204 11.8879 13.6621 11.9087 13.6934 11.9504C13.735 11.9816 13.7559 12.0233 13.7559 12.0754V12.242C13.7559 13.1743 13.4642 13.9243 12.8809 14.492C12.3079 15.0493 11.5527 15.3254 10.61 15.3254Z" fill="#D72333"/>
<path d="M18.8667 4.40869C18.8667 4.35661 18.8771 4.31494 18.9084 4.28369C18.95 4.24202 18.9969 4.22119 19.0542 4.22119H20.8875C20.9396 4.22119 20.9813 4.24202 21.0125 4.28369C21.0542 4.31494 21.075 4.35661 21.075 4.40869V15.0129C21.075 15.0702 21.0542 15.117 21.0125 15.1587C20.9813 15.1899 20.9396 15.2004 20.8875 15.2004H19.0542C18.9969 15.2004 18.95 15.1899 18.9084 15.1587C18.8771 15.117 18.8667 15.0702 18.8667 15.0129V10.7212C18.8667 10.6795 18.8354 10.6587 18.7834 10.6587H17.2209C17.1636 10.6587 17.1375 10.6795 17.1375 10.7212V15.0129C17.1375 15.0702 17.1167 15.117 17.075 15.1587C17.0438 15.1899 17.0021 15.2004 16.95 15.2004H15.1167C15.0594 15.2004 15.0125 15.1899 14.9709 15.1587C14.9396 15.117 14.9292 15.0702 14.9292 15.0129V4.40869C14.9292 4.35661 14.9396 4.31494 14.9709 4.28369C15.0125 4.24202 15.0594 4.22119 15.1167 4.22119H16.95C17.0021 4.22119 17.0438 4.24202 17.075 4.28369C17.1167 4.31494 17.1375 4.35661 17.1375 4.40869V8.67952C17.1375 8.73682 17.1636 8.76286 17.2209 8.76286H18.7834C18.8354 8.76286 18.8667 8.73682 18.8667 8.67952V4.40869Z" fill="#D72333"/>
<path d="M26.9367 4.40869C26.9367 4.35661 26.9575 4.31494 26.9992 4.28369C27.0409 4.24202 27.0877 4.22119 27.145 4.22119H28.9575C29.0096 4.22119 29.0513 4.24202 29.0825 4.28369C29.1242 4.31494 29.145 4.35661 29.145 4.40869V15.0129C29.145 15.0702 29.1242 15.117 29.0825 15.1587C29.0513 15.1899 29.0096 15.2004 28.9575 15.2004H26.8742C26.7752 15.2004 26.7127 15.1483 26.6867 15.0337L24.7284 8.97119C24.7284 8.94515 24.7127 8.93994 24.6867 8.95036C24.6554 8.95036 24.645 8.96598 24.645 8.99202L24.6659 15.0129C24.6659 15.0702 24.645 15.117 24.6034 15.1587C24.5617 15.1899 24.52 15.2004 24.4784 15.2004H22.645C22.5877 15.2004 22.5409 15.1899 22.4992 15.1587C22.4679 15.117 22.4575 15.0702 22.4575 15.0129V4.40869C22.4575 4.35661 22.4679 4.31494 22.4992 4.28369C22.5409 4.24202 22.5877 4.22119 22.645 4.22119H24.7075C24.8013 4.22119 24.8742 4.27328 24.9159 4.36702L26.8742 10.4504C26.8742 10.4816 26.8846 10.492 26.9159 10.492C26.9419 10.4816 26.9575 10.4608 26.9575 10.4295L26.9367 4.40869Z" fill="#D72333"/>
<path d="M30.707 15.2004C30.6497 15.2004 30.6029 15.1899 30.5612 15.1587C30.5299 15.117 30.5195 15.0702 30.5195 15.0129V4.40869C30.5195 4.35661 30.5299 4.31494 30.5612 4.28369C30.6029 4.24202 30.6497 4.22119 30.707 4.22119H32.5404C32.5924 4.22119 32.6341 4.24202 32.6654 4.28369C32.707 4.31494 32.7279 4.35661 32.7279 4.40869V15.0129C32.7279 15.0702 32.707 15.117 32.6654 15.1587C32.6341 15.1899 32.5924 15.2004 32.5404 15.2004H30.707Z" fill="#D72333"/>
<path d="M40.2103 4.22119C40.2624 4.22119 40.304 4.24202 40.3353 4.28369C40.377 4.31494 40.3978 4.35661 40.3978 4.40869V5.92952C40.3978 5.98682 40.377 6.03369 40.3353 6.07536C40.304 6.10661 40.2624 6.11702 40.2103 6.11702H38.252C38.1947 6.11702 38.1686 6.14828 38.1686 6.20036V15.0129C38.1686 15.0702 38.1478 15.117 38.1061 15.1587C38.0749 15.1899 38.0332 15.2004 37.9811 15.2004H36.1478C36.1061 15.2004 36.0645 15.1899 36.0228 15.1587C35.9811 15.117 35.9603 15.0702 35.9603 15.0129V6.20036C35.9603 6.14828 35.929 6.11702 35.877 6.11702H34.002C33.9447 6.11702 33.8978 6.10661 33.8561 6.07536C33.8249 6.03369 33.8145 5.98682 33.8145 5.92952V4.40869C33.8145 4.35661 33.8249 4.31494 33.8561 4.28369C33.8978 4.24202 33.9447 4.22119 34.002 4.22119H40.2103Z" fill="#D72333"/>
<path d="M47.5506 4.22119C47.6027 4.22119 47.6444 4.24202 47.6756 4.28369C47.7173 4.31494 47.7381 4.35661 47.7381 4.40869V5.92952C47.7381 5.98682 47.7173 6.03369 47.6756 6.07536C47.6444 6.10661 47.6027 6.11702 47.5506 6.11702H45.5923C45.535 6.11702 45.509 6.14828 45.509 6.20036V15.0129C45.509 15.0702 45.4881 15.117 45.4465 15.1587C45.4152 15.1899 45.3735 15.2004 45.3215 15.2004H43.4881C43.4465 15.2004 43.4048 15.1899 43.3631 15.1587C43.3215 15.117 43.3006 15.0702 43.3006 15.0129V6.20036C43.3006 6.14828 43.2694 6.11702 43.2173 6.11702H41.3423C41.285 6.11702 41.2381 6.10661 41.1965 6.07536C41.1652 6.03369 41.1548 5.98682 41.1548 5.92952V4.40869C41.1548 4.35661 41.1652 4.31494 41.1965 4.28369C41.2381 4.24202 41.285 4.22119 41.3423 4.22119H47.5506Z" fill="#D72333"/>
<path d="M48.9951 15.2004C48.9378 15.2004 48.891 15.1899 48.8493 15.1587C48.818 15.117 48.8076 15.0702 48.8076 15.0129V4.40869C48.8076 4.35661 48.818 4.31494 48.8493 4.28369C48.891 4.24202 48.9378 4.22119 48.9951 4.22119H50.8285C50.8805 4.22119 50.9222 4.24202 50.9535 4.28369C50.9951 4.31494 51.016 4.35661 51.016 4.40869V13.2212C51.016 13.2785 51.042 13.3045 51.0993 13.3045H54.391C54.443 13.3045 54.4847 13.3254 54.516 13.367C54.5576 13.3983 54.5785 13.4399 54.5785 13.492V15.0129C54.5785 15.0702 54.5576 15.117 54.516 15.1587C54.4847 15.1899 54.443 15.2004 54.391 15.2004H48.9951Z" fill="#D72333"/>
<path d="M60.1141 15.2004C59.9735 15.2004 59.9058 15.1483 59.9058 15.0337L59.6558 13.5129C59.6558 13.4712 59.6193 13.4504 59.5516 13.4504H57.5724C57.4995 13.4504 57.4683 13.4712 57.4683 13.5129L57.2183 15.0337C57.2026 15.1483 57.1349 15.2004 57.0099 15.2004H55.1766C55.036 15.2004 54.9891 15.1327 55.0308 14.992L57.3224 4.38786C57.3485 4.27848 57.4162 4.22119 57.5308 4.22119H59.6558C59.7651 4.22119 59.8276 4.27848 59.8433 4.38786L62.1349 14.992L62.1558 15.0545C62.1558 15.1535 62.0985 15.2004 61.9891 15.2004H60.1141ZM57.7808 11.6587C57.7808 11.716 57.8016 11.742 57.8433 11.742H59.2599C59.312 11.742 59.3328 11.716 59.3224 11.6587L58.5724 7.36702C58.5724 7.34098 58.5568 7.32536 58.5308 7.32536C58.5151 7.32536 58.4995 7.34098 58.4891 7.36702L57.7808 11.6587Z" fill="#D72333"/>
<path d="M66.1323 15.3254C65.1844 15.3254 64.4292 15.0337 63.8615 14.4504C63.2886 13.8566 63.0073 13.0649 63.0073 12.0754V4.40869C63.0073 4.35661 63.0177 4.31494 63.049 4.28369C63.0907 4.24202 63.1375 4.22119 63.1948 4.22119H65.0282C65.0802 4.22119 65.1219 4.24202 65.1532 4.28369C65.1948 4.31494 65.2157 4.35661 65.2157 4.40869V12.3045C65.2157 12.6379 65.299 12.9087 65.4657 13.117C65.6323 13.3254 65.8511 13.4295 66.1323 13.4295C66.3927 13.4295 66.6115 13.3254 66.7782 13.117C66.9448 12.9087 67.0282 12.6379 67.0282 12.3045V4.40869C67.0282 4.35661 67.0386 4.31494 67.0698 4.28369C67.1115 4.24202 67.1584 4.22119 67.2157 4.22119H69.049C69.1011 4.22119 69.1427 4.24202 69.174 4.28369C69.2157 4.31494 69.2365 4.35661 69.2365 4.40869V12.0754C69.2365 13.0649 68.95 13.8566 68.3823 14.4504C67.8094 15.0337 67.0594 15.3254 66.1323 15.3254Z" fill="#D72333"/>
<path d="M73.5202 15.3254C72.5879 15.3254 71.8379 15.0493 71.2702 14.492C70.6973 13.9243 70.416 13.1743 70.416 12.242V7.15869C70.416 6.23161 70.6973 5.48682 71.2702 4.92952C71.8379 4.37744 72.5879 4.09619 73.5202 4.09619C74.4785 4.09619 75.2389 4.37744 75.8118 4.92952C76.3796 5.48682 76.666 6.23161 76.666 7.15869V7.32536C76.666 7.38265 76.6452 7.42952 76.6035 7.47119C76.5723 7.50244 76.5306 7.51286 76.4785 7.51286L74.6452 7.59619C74.5202 7.59619 74.4577 7.54411 74.4577 7.42952V7.01286C74.4577 6.71077 74.3743 6.46598 74.2077 6.28369C74.041 6.09098 73.8118 5.99202 73.5202 5.99202C73.2546 5.99202 73.041 6.09098 72.8743 6.28369C72.7077 6.46598 72.6243 6.71077 72.6243 7.01286V12.4295C72.6243 12.7368 72.7077 12.9816 72.8743 13.1587C73.041 13.341 73.2546 13.4295 73.5202 13.4295C73.8118 13.4295 74.041 13.341 74.2077 13.1587C74.3743 12.9816 74.4577 12.7368 74.4577 12.4295V11.992C74.4577 11.9504 74.4681 11.9087 74.4993 11.867C74.541 11.8254 74.5879 11.8045 74.6452 11.8045L76.4785 11.8879C76.5306 11.8879 76.5723 11.9087 76.6035 11.9504C76.6452 11.9816 76.666 12.0233 76.666 12.0754V12.242C76.666 13.1743 76.3743 13.9243 75.791 14.492C75.2181 15.0493 74.4629 15.3254 73.5202 15.3254Z" fill="#D72333"/>
<path d="M81.7769 4.40869C81.7769 4.35661 81.7873 4.31494 81.8185 4.28369C81.8602 4.24202 81.9071 4.22119 81.9644 4.22119H83.7977C83.8498 4.22119 83.8914 4.24202 83.9227 4.28369C83.9644 4.31494 83.9852 4.35661 83.9852 4.40869V15.0129C83.9852 15.0702 83.9644 15.117 83.9227 15.1587C83.8914 15.1899 83.8498 15.2004 83.7977 15.2004H81.9644C81.9071 15.2004 81.8602 15.1899 81.8185 15.1587C81.7873 15.117 81.7769 15.0702 81.7769 15.0129V10.7212C81.7769 10.6795 81.7456 10.6587 81.6935 10.6587H80.131C80.0737 10.6587 80.0477 10.6795 80.0477 10.7212V15.0129C80.0477 15.0702 80.0269 15.117 79.9852 15.1587C79.9539 15.1899 79.9123 15.2004 79.8602 15.2004H78.0269C77.9696 15.2004 77.9227 15.1899 77.881 15.1587C77.8498 15.117 77.8394 15.0702 77.8394 15.0129V4.40869C77.8394 4.35661 77.8498 4.31494 77.881 4.28369C77.9227 4.24202 77.9696 4.22119 78.0269 4.22119H79.8602C79.9123 4.22119 79.9539 4.24202 79.9852 4.28369C80.0269 4.31494 80.0477 4.35661 80.0477 4.40869V8.67952C80.0477 8.73682 80.0737 8.76286 80.131 8.76286H81.6935C81.7456 8.76286 81.7769 8.73682 81.7769 8.67952V4.40869Z" fill="#D72333"/>
<path d="M91.6802 12.1795C91.6802 13.1535 91.3885 13.9035 90.8052 14.4295C90.2218 14.9452 89.4562 15.2004 88.5135 15.2004H85.5552C85.4979 15.2004 85.451 15.1899 85.4093 15.1587C85.3781 15.117 85.3677 15.0702 85.3677 15.0129V4.40869C85.3677 4.35661 85.3781 4.31494 85.4093 4.28369C85.451 4.24202 85.4979 4.22119 85.5552 4.22119H88.1802C89.2218 4.22119 90.0343 4.47119 90.6177 4.97119C91.2114 5.47119 91.5135 6.22119 91.5135 7.22119C91.5135 8.25244 91.1593 9.00244 90.451 9.47119C90.4093 9.50244 90.3989 9.53369 90.4302 9.57536C91.2635 10.1587 91.6802 11.0285 91.6802 12.1795ZM87.6593 6.11702C87.6021 6.11702 87.576 6.14828 87.576 6.20036V8.65869C87.576 8.71598 87.6021 8.74202 87.6593 8.74202H88.2218C88.5812 8.74202 88.8573 8.63265 89.0552 8.40869C89.2479 8.17432 89.3468 7.85661 89.3468 7.45036C89.3468 7.02328 89.2479 6.69515 89.0552 6.47119C88.8729 6.23682 88.5968 6.11702 88.2218 6.11702H87.6593ZM88.3468 13.2837C88.6906 13.2837 88.9614 13.1587 89.1593 12.9087C89.3677 12.6587 89.4718 12.3045 89.4718 11.8462C89.4718 11.3879 89.3677 11.0285 89.1593 10.7629C88.9614 10.4868 88.701 10.3462 88.3677 10.3462H87.6593C87.6021 10.3462 87.576 10.367 87.576 10.4087V13.2004C87.576 13.2577 87.6021 13.2837 87.6593 13.2837H88.3468Z" fill="#D72333"/>
<path d="M97.0726 15.2004C96.958 15.2004 96.8851 15.1483 96.8434 15.0337L95.6351 10.7212C95.6195 10.6795 95.5986 10.6587 95.5726 10.6587H95.0309C94.9736 10.6587 94.9476 10.6795 94.9476 10.7212V15.0129C94.9476 15.0702 94.9268 15.117 94.8851 15.1587C94.8538 15.1899 94.8122 15.2004 94.7601 15.2004H92.9268C92.8695 15.2004 92.8226 15.1899 92.7809 15.1587C92.7497 15.117 92.7393 15.0702 92.7393 15.0129V4.40869C92.7393 4.35661 92.7497 4.31494 92.7809 4.28369C92.8226 4.24202 92.8695 4.22119 92.9268 4.22119H96.0934C96.6768 4.22119 97.1872 4.36182 97.6351 4.63786C98.0778 4.91911 98.4268 5.30452 98.6768 5.80452C98.9268 6.30452 99.0518 6.88265 99.0518 7.53369C99.0518 8.14828 98.932 8.68994 98.6976 9.15869C98.458 9.63265 98.1351 10.0024 97.7184 10.2629C97.6872 10.2785 97.6663 10.2941 97.6559 10.3045C97.6559 10.3202 97.6611 10.3358 97.6768 10.3462L99.1143 14.9712L99.1351 15.0337C99.1351 15.1483 99.0726 15.2004 98.9476 15.2004H97.0726ZM95.0309 6.11702C94.9736 6.11702 94.9476 6.14828 94.9476 6.20036V8.88786C94.9476 8.92952 94.9736 8.95036 95.0309 8.95036H95.7393C96.057 8.95036 96.3226 8.82536 96.5309 8.57536C96.7393 8.31494 96.8434 7.97119 96.8434 7.55452C96.8434 7.11182 96.7393 6.76286 96.5309 6.51286C96.3226 6.25244 96.057 6.11702 95.7393 6.11702H95.0309Z" fill="#D72333"/>
<path d="M103.148 15.3254C102.174 15.3254 101.403 15.0493 100.835 14.492C100.262 13.9243 99.981 13.1691 99.981 12.2212V7.20036C99.981 6.25765 100.262 5.50765 100.835 4.95036C101.403 4.38265 102.174 4.09619 103.148 4.09619C104.106 4.09619 104.877 4.38265 105.46 4.95036C106.043 5.50765 106.335 6.25765 106.335 7.20036V12.2212C106.335 13.1691 106.043 13.9243 105.46 14.492C104.877 15.0493 104.106 15.3254 103.148 15.3254ZM103.148 13.4295C103.439 13.4295 103.668 13.3358 103.835 13.1379C104.012 12.9295 104.106 12.6535 104.106 12.3045V7.09619C104.106 6.76286 104.012 6.50244 103.835 6.30452C103.668 6.09619 103.439 5.99202 103.148 5.99202C102.856 5.99202 102.616 6.09619 102.439 6.30452C102.273 6.50244 102.189 6.76286 102.189 7.09619V12.3045C102.189 12.6535 102.273 12.9295 102.439 13.1379C102.616 13.3358 102.856 13.4295 103.148 13.4295Z" fill="#D72333"/>
<mask id="mask2_24_6165" style="mask-type:luminance" maskUnits="userSpaceOnUse" x="107" y="4" width="8" height="12">
<path d="M107.021 4H114.5V16H107.021V4Z" fill="white"/>
</mask>
<g mask="url(#mask2_24_6165)">
<path d="M113.629 4.22119C113.681 4.22119 113.722 4.24202 113.754 4.28369C113.795 4.31494 113.816 4.35661 113.816 4.40869V5.92952C113.816 5.98682 113.795 6.03369 113.754 6.07536C113.722 6.10661 113.681 6.11702 113.629 6.11702H111.67C111.613 6.11702 111.587 6.14828 111.587 6.20036V15.0129C111.587 15.0702 111.566 15.117 111.525 15.1587C111.493 15.1899 111.452 15.2004 111.4 15.2004H109.566C109.525 15.2004 109.483 15.1899 109.441 15.1587C109.4 15.117 109.379 15.0702 109.379 15.0129V6.20036C109.379 6.14828 109.347 6.11702 109.295 6.11702H107.42C107.363 6.11702 107.316 6.10661 107.275 6.07536C107.243 6.03369 107.233 5.98682 107.233 5.92952V4.40869C107.233 4.35661 107.243 4.31494 107.275 4.28369C107.316 4.24202 107.363 4.22119 107.42 4.22119H113.629Z" fill="#D72333"/>
</g>
<path d="M7.31266 24.415C7.93766 24.415 8.42204 24.6442 8.771 25.1025C9.11475 25.5609 9.29183 26.2015 9.29183 27.0192V32.29C9.29183 32.4046 9.23454 32.4567 9.12516 32.4567H8.35433C8.23975 32.4567 8.18766 32.4046 8.18766 32.29V27.1025C8.18766 26.5765 8.07308 26.1598 7.85433 25.8525C7.63037 25.5348 7.3335 25.3734 6.9585 25.3734C6.56787 25.3734 6.25537 25.5296 6.021 25.8317C5.79704 26.139 5.68766 26.5557 5.68766 27.0817V32.29C5.68766 32.4046 5.63037 32.4567 5.521 32.4567H4.72933C4.61475 32.4567 4.56266 32.4046 4.56266 32.29V27.1025C4.56266 26.5765 4.44808 26.1598 4.22933 25.8525C4.00537 25.5348 3.7137 25.3734 3.35433 25.3734C2.9637 25.3734 2.6512 25.5296 2.41683 25.8317C2.17725 26.139 2.06266 26.5557 2.06266 27.0817V32.29C2.06266 32.4046 2.00537 32.4567 1.896 32.4567H1.10433C1.00537 32.4567 0.958496 32.4046 0.958496 32.29V24.6859C0.958496 24.5765 1.00537 24.5192 1.10433 24.5192H1.896C2.00537 24.5192 2.06266 24.5765 2.06266 24.6859V25.165C2.06266 25.1807 2.06787 25.1963 2.0835 25.2067C2.09391 25.2067 2.10954 25.2015 2.12516 25.1859C2.3335 24.9255 2.56787 24.7275 2.8335 24.6025C3.10954 24.4775 3.4012 24.415 3.7085 24.415C4.09391 24.415 4.43766 24.514 4.72933 24.7067C5.021 24.9046 5.25016 25.1755 5.41683 25.5192C5.42725 25.5505 5.44287 25.5609 5.4585 25.5609C5.48454 25.5609 5.50016 25.54 5.50016 25.4984C5.69287 25.1234 5.94808 24.8525 6.271 24.6859C6.60433 24.5088 6.94808 24.415 7.31266 24.415Z" fill="#D72333"/>
<path d="M11.7886 23.0819C11.5229 23.0819 11.3094 22.9985 11.1427 22.8319C10.9865 22.6652 10.9136 22.4569 10.9136 22.2069C10.9136 21.9465 10.9865 21.7277 11.1427 21.561C11.3094 21.3944 11.5229 21.311 11.7886 21.311C12.0386 21.311 12.2469 21.3944 12.4136 21.561C12.5802 21.7277 12.6636 21.9465 12.6636 22.2069C12.6636 22.4569 12.5802 22.6652 12.4136 22.8319C12.2469 22.9985 12.0386 23.0819 11.7886 23.0819ZM11.3927 32.4569C11.2938 32.4569 11.2469 32.4048 11.2469 32.2902V24.686C11.2469 24.5767 11.2938 24.5194 11.3927 24.5194H12.2052C12.299 24.5194 12.3511 24.5767 12.3511 24.686V32.2902C12.3511 32.4048 12.299 32.4569 12.2052 32.4569H11.3927Z" fill="#D72333"/>
<path d="M17.1761 25.1859C17.1761 25.3005 17.1188 25.3525 17.0094 25.3525H15.8219C15.7803 25.3525 15.7594 25.3734 15.7594 25.415V30.2067C15.7594 30.6963 15.8428 31.0296 16.0094 31.2067C16.1761 31.389 16.4313 31.4775 16.7803 31.4775H16.9469C17.0407 31.4775 17.0928 31.5296 17.0928 31.6234V32.29C17.0928 32.4046 17.0407 32.4567 16.9469 32.4567H16.5511C15.9261 32.4567 15.4521 32.3265 15.1344 32.0609C14.8115 31.8005 14.6553 31.29 14.6553 30.54V25.415C14.6553 25.3734 14.6344 25.3525 14.5928 25.3525H13.9886C13.8896 25.3525 13.8428 25.3005 13.8428 25.1859V24.6859C13.8428 24.5765 13.8896 24.5192 13.9886 24.5192H14.5928C14.6344 24.5192 14.6553 24.4984 14.6553 24.4567V22.7067C14.6553 22.5973 14.7074 22.54 14.8219 22.54H15.6136C15.7074 22.54 15.7594 22.5973 15.7594 22.7067V24.4567C15.7594 24.4984 15.7803 24.5192 15.8219 24.5192H17.0094C17.1188 24.5192 17.1761 24.5765 17.1761 24.6859V25.1859Z" fill="#D72333"/>
<path d="M27.251 29.4775C27.251 30.4255 26.9906 31.1598 26.4801 31.6859C25.9801 32.2015 25.2979 32.4567 24.4385 32.4567H22.0426C21.9281 32.4567 21.876 32.4046 21.876 32.29V21.6234C21.876 21.5296 21.9281 21.4775 22.0426 21.4775H24.2926C25.1937 21.4775 25.902 21.7275 26.4176 22.2275C26.9281 22.7171 27.1885 23.4255 27.1885 24.3525C27.1885 25.5192 26.751 26.3213 25.876 26.7484C25.8604 26.764 25.8551 26.7796 25.8551 26.79C25.8551 26.79 25.8551 26.8005 25.8551 26.8109C26.7822 27.3421 27.251 28.2275 27.251 29.4775ZM23.0635 22.4567C23.0218 22.4567 23.001 22.4775 23.001 22.5192V26.29C23.001 26.3317 23.0218 26.3525 23.0635 26.3525H24.2926C24.8604 26.3525 25.2979 26.1859 25.6051 25.8525C25.9229 25.5192 26.0843 25.0505 26.0843 24.4359C26.0843 23.8109 25.9229 23.3265 25.6051 22.9775C25.2979 22.6338 24.8604 22.4567 24.2926 22.4567H23.0635ZM24.3551 31.4775C24.9072 31.4775 25.3395 31.29 25.6468 30.915C25.9645 30.54 26.126 30.0192 26.126 29.3525C26.126 28.6755 25.9645 28.1442 25.6468 27.7692C25.3395 27.3942 24.9072 27.2067 24.3551 27.2067H23.0635C23.0218 27.2067 23.001 27.2275 23.001 27.2692V31.415C23.001 31.4567 23.0218 31.4775 23.0635 31.4775H24.3551Z" fill="#D72333"/>
<path d="M29.418 23.0819C29.1523 23.0819 28.9388 22.9985 28.7721 22.8319C28.6159 22.6652 28.543 22.4569 28.543 22.2069C28.543 21.9465 28.6159 21.7277 28.7721 21.561C28.9388 21.3944 29.1523 21.311 29.418 21.311C29.668 21.311 29.8763 21.3944 30.043 21.561C30.2096 21.7277 30.293 21.9465 30.293 22.2069C30.293 22.4569 30.2096 22.6652 30.043 22.8319C29.8763 22.9985 29.668 23.0819 29.418 23.0819ZM29.0221 32.4569C28.9232 32.4569 28.8763 32.4048 28.8763 32.2902V24.686C28.8763 24.5767 28.9232 24.5194 29.0221 24.5194H29.8346C29.9284 24.5194 29.9805 24.5767 29.9805 24.686V32.2902C29.9805 32.4048 29.9284 32.4569 29.8346 32.4569H29.0221Z" fill="#D72333"/>
<path d="M34.3055 32.5815C33.5555 32.5815 32.9565 32.368 32.5138 31.9357C32.0659 31.493 31.8472 30.9097 31.8472 30.1857V26.8107C31.8472 26.1024 32.0659 25.5295 32.5138 25.0815C32.9565 24.6232 33.5555 24.394 34.3055 24.394C35.0555 24.394 35.6493 24.6232 36.0972 25.0815C36.5555 25.5295 36.7847 26.1024 36.7847 26.8107V30.1857C36.7847 30.9097 36.5555 31.493 36.0972 31.9357C35.6493 32.368 35.0555 32.5815 34.3055 32.5815ZM34.3055 31.6024C34.6909 31.6024 35.0138 31.467 35.2638 31.1857C35.5243 30.9097 35.6597 30.5503 35.6597 30.1024V26.8732C35.6597 26.4305 35.5243 26.0711 35.2638 25.7899C35.0138 25.5138 34.6909 25.3732 34.3055 25.3732C33.8993 25.3732 33.5763 25.5138 33.3263 25.7899C33.0763 26.0711 32.9513 26.4305 32.9513 26.8732V30.1024C32.9513 30.5503 33.0763 30.9097 33.3263 31.1857C33.5763 31.467 33.8993 31.6024 34.3055 31.6024Z" fill="#D72333"/>
<path d="M38.2311 28.0607C38.1165 28.0607 38.0645 28.0138 38.0645 27.9149V27.2482C38.0645 27.1388 38.1165 27.0815 38.2311 27.0815H41.8145C41.9238 27.0815 41.9811 27.1388 41.9811 27.2482V27.9149C41.9811 28.0138 41.9238 28.0607 41.8145 28.0607H38.2311Z" fill="#D72333"/>
<path d="M48.5778 22.29C48.5778 22.4046 48.5205 22.4567 48.4111 22.4567H44.7861C44.7445 22.4567 44.7236 22.4775 44.7236 22.5192V26.3942C44.7236 26.4359 44.7445 26.4567 44.7861 26.4567H47.0778C47.1716 26.4567 47.2236 26.514 47.2236 26.6234V27.29C47.2236 27.4046 47.1716 27.4567 47.0778 27.4567H44.7861C44.7445 27.4567 44.7236 27.4775 44.7236 27.5192V31.415C44.7236 31.4567 44.7445 31.4775 44.7861 31.4775H48.4111C48.5205 31.4775 48.5778 31.5348 48.5778 31.6442V32.29C48.5778 32.4046 48.5205 32.4567 48.4111 32.4567H43.7653C43.6507 32.4567 43.5986 32.4046 43.5986 32.29V21.6234C43.5986 21.5296 43.6507 21.4775 43.7653 21.4775H48.4111C48.5205 21.4775 48.5778 21.5296 48.5778 21.6234V22.29Z" fill="#D72333"/>
<path d="M50.8271 23.0819C50.5615 23.0819 50.348 22.9985 50.1813 22.8319C50.0251 22.6652 49.9521 22.4569 49.9521 22.2069C49.9521 21.9465 50.0251 21.7277 50.1813 21.561C50.348 21.3944 50.5615 21.311 50.8271 21.311C51.0771 21.311 51.2855 21.3944 51.4521 21.561C51.6188 21.7277 51.7021 21.9465 51.7021 22.2069C51.7021 22.4569 51.6188 22.6652 51.4521 22.8319C51.2855 22.9985 51.0771 23.0819 50.8271 23.0819ZM50.4313 32.4569C50.3324 32.4569 50.2855 32.4048 50.2855 32.2902V24.686C50.2855 24.5767 50.3324 24.5194 50.4313 24.5194H51.2438C51.3376 24.5194 51.3896 24.5767 51.3896 24.686V32.2902C51.3896 32.4048 51.3376 32.4569 51.2438 32.4569H50.4313Z" fill="#D72333"/>
<mask id="mask3_24_6165" style="mask-type:luminance" maskUnits="userSpaceOnUse" x="0" y="36" width="5" height="8">
<path d="M0 36H4.35417V44H0V36Z" fill="white"/>
</mask>
<g mask="url(#mask3_24_6165)">
<path d="M3.04216 43.3997C2.98486 43.3997 2.94841 43.3737 2.93799 43.3164L2.70882 42.1914C2.70882 42.181 2.69841 42.1706 2.68799 42.1706C2.68799 42.1706 2.67757 42.1706 2.66716 42.1706H1.02132C1.02132 42.1706 1.0109 42.1706 1.00049 42.1706C0.984863 42.1706 0.979655 42.181 0.979655 42.1914L0.750488 43.3164C0.750488 43.3737 0.719238 43.3997 0.667155 43.3997H0.208822C0.167155 43.3997 0.135904 43.3945 0.125488 43.3789C0.109863 43.3529 0.109863 43.3268 0.125488 43.2956L1.47966 37.1497C1.49007 37.0977 1.52653 37.0664 1.58382 37.0664H2.12549C2.17757 37.0664 2.20882 37.0977 2.20882 37.1497L3.58382 43.2956V43.3164C3.58382 43.3737 3.55257 43.3997 3.50049 43.3997H3.04216ZM1.10466 41.6081C1.10466 41.6237 1.10986 41.6289 1.12549 41.6289H2.56299C2.57341 41.6289 2.58382 41.6237 2.58382 41.6081L1.85466 38.0456C1.85466 38.0352 1.84424 38.0247 1.83382 38.0247C1.83382 38.0247 1.83382 38.0352 1.83382 38.0456L1.10466 41.6081Z" fill="#D72333"/>
</g>
<path d="M7.55387 43.4622C7.07992 43.4622 6.70492 43.332 6.42887 43.0664C6.14762 42.7904 6.01221 42.4206 6.01221 41.9622V38.5039C6.01221 38.0456 6.14762 37.6862 6.42887 37.4206C6.70492 37.1445 7.07992 37.0039 7.55387 37.0039C8.01221 37.0039 8.37679 37.1445 8.65804 37.4206C8.93408 37.7018 9.07471 38.0664 9.07471 38.5247V38.8997C9.07471 38.9727 9.04346 39.0039 8.99137 39.0039H8.53304C8.47575 39.0039 8.44971 38.9727 8.44971 38.8997V38.5039C8.44971 38.2122 8.36637 37.9831 8.19971 37.8164C8.03304 37.6497 7.81429 37.5664 7.55387 37.5664C7.28825 37.5664 7.07471 37.6602 6.90804 37.8372C6.74137 38.0039 6.65804 38.2279 6.65804 38.5039V41.9622C6.65804 42.2435 6.74137 42.4727 6.90804 42.6497C7.07471 42.832 7.28825 42.9206 7.55387 42.9206C7.81429 42.9206 8.03304 42.8372 8.19971 42.6706C8.36637 42.4935 8.44971 42.2539 8.44971 41.9622V40.8164C8.44971 40.7904 8.43408 40.7747 8.40804 40.7747H7.63721C7.56429 40.7747 7.53304 40.7487 7.53304 40.6914V40.3164C7.53304 40.2487 7.56429 40.2122 7.63721 40.2122H8.99137C9.04346 40.2122 9.07471 40.2487 9.07471 40.3164V41.9622C9.07471 42.4206 8.93408 42.7904 8.65804 43.0664C8.37679 43.332 8.01221 43.4622 7.55387 43.4622Z" fill="#D72333"/>
<path d="M13.4362 43.4622C12.9622 43.4622 12.5872 43.3268 12.3112 43.0456C12.0299 42.7695 11.8945 42.3893 11.8945 41.8997V38.5456C11.8945 38.0872 12.0299 37.7227 12.3112 37.4414C12.5872 37.1497 12.9622 37.0039 13.4362 37.0039C13.9049 37.0039 14.2799 37.1445 14.5612 37.4206C14.8372 37.7018 14.9779 38.0768 14.9779 38.5456V38.7122C14.9779 38.7695 14.9466 38.7956 14.8945 38.7956L14.4154 38.8164C14.3581 38.8164 14.332 38.7904 14.332 38.7331V38.5039C14.332 38.2279 14.2487 38.0039 14.082 37.8372C13.9154 37.6602 13.6966 37.5664 13.4362 37.5664C13.1706 37.5664 12.957 37.6602 12.7904 37.8372C12.6237 38.0039 12.5404 38.2279 12.5404 38.5039V41.9622C12.5404 42.2435 12.6237 42.4727 12.7904 42.6497C12.957 42.832 13.1706 42.9206 13.4362 42.9206C13.6966 42.9206 13.9154 42.832 14.082 42.6497C14.2487 42.4727 14.332 42.2435 14.332 41.9622V41.7331C14.332 41.681 14.3581 41.6497 14.4154 41.6497L14.8945 41.6706C14.9466 41.6706 14.9779 41.7018 14.9779 41.7539V41.8997C14.9779 42.3893 14.832 42.7695 14.5404 43.0456C14.2591 43.3268 13.8945 43.4622 13.4362 43.4622Z" fill="#D72333"/>
</g>
</g>
</svg>
