<svg width="28" height="9" viewBox="0 0 28 9" fill="none" xmlns="http://www.w3.org/2000/svg">
<mask id="mask0_25_16292" style="mask-type:luminance" maskUnits="userSpaceOnUse" x="0" y="0" width="28" height="9">
<path d="M0 0H27.9583V8.38542H0V0Z" fill="white"/>
</mask>
<g mask="url(#mask0_25_16292)">
<path d="M0.125 4.61462C0.125 4.61462 1.59896 5.31253 2.94271 6.83858C4.83333 7.61462 6.20313 8.15628 7.72917 8.02608C9.09896 7.43233 11.2969 6.47399 12.6927 4.45837C14.8385 3.39587 16.9844 2.33858 19.2083 1.3542C21.6094 1.48441 23.2396 1.58857 24.5833 2.59899C25.901 3.47399 27.1406 4.94795 27.5052 4.89587C27.6615 4.6667 27.6094 4.17191 27.5573 3.83858C27.2969 3.68233 27.2188 3.94274 27.1927 3.94274C27.1927 3.94274 27.4792 3.73441 27.5573 3.83858C27.6615 3.94274 25.5677 1.3542 23.651 0.630242C21.7917 0.401075 19.3854 0.114618 17.2135 1.25003C15.0417 2.15628 12.6146 3.19274 11.0104 5.28649C8.68229 6.57816 8.16667 6.86462 7.54688 6.86462C6.95313 6.91149 4.29167 7.25003 2.47917 4.92191C0.359375 3.73441 0.723959 3.89066 0.671875 3.86462C0.671875 3.86462 0.385415 3.6042 0.28125 3.57816C0.177082 3.57816 0.177083 3.94274 0.229167 4.06774" fill="#D72333"/>
</g>
</svg>
