<svg width="8" height="12" viewBox="0 0 8 12" fill="none" xmlns="http://www.w3.org/2000/svg">
<mask id="mask0_25_9016" style="mask-type:luminance" maskUnits="userSpaceOnUse" x="0" y="0" width="8" height="12">
<path d="M0 0H7.89583V12H0V0Z" fill="white"/>
</mask>
<g mask="url(#mask0_25_9016)">
<path d="M4.04004 0.649414C4.60775 0.649414 5.11296 0.795247 5.56087 1.08691C6.01921 1.36816 6.36296 1.764 6.60254 2.27441C6.85254 2.77441 6.97754 3.35254 6.97754 4.00358C6.97754 4.97754 6.71191 5.75358 6.18587 6.33691C5.67025 6.92025 4.98796 7.21191 4.14421 7.21191H2.95671C2.91504 7.21191 2.89421 7.24316 2.89421 7.29525V11.4619C2.89421 11.5192 2.87337 11.5661 2.83171 11.6077C2.79004 11.639 2.74837 11.6494 2.70671 11.6494H0.852539C0.810872 11.6494 0.769206 11.639 0.727539 11.6077C0.685872 11.5661 0.665039 11.5192 0.665039 11.4619V0.836914C0.665039 0.78483 0.685872 0.743163 0.727539 0.711914C0.769206 0.670247 0.810872 0.649414 0.852539 0.649414H4.04004ZM3.64421 5.48275C3.98796 5.48275 4.25879 5.35775 4.45671 5.10775C4.66504 4.84733 4.76921 4.49316 4.76921 4.04525C4.76921 3.58691 4.66504 3.22754 4.45671 2.96191C4.25879 2.7015 3.98796 2.56608 3.64421 2.56608H2.95671C2.91504 2.56608 2.89421 2.59733 2.89421 2.64941V5.39941C2.89421 5.45671 2.91504 5.48275 2.95671 5.48275H3.64421Z" fill="#D72333"/>
</g>
</svg>
