<svg width="9" height="12" viewBox="0 0 9 12" fill="none" xmlns="http://www.w3.org/2000/svg">
<mask id="mask0_24_3890" style="mask-type:luminance" maskUnits="userSpaceOnUse" x="0" y="0" width="9" height="12">
<path d="M0 0H8.35417V12H0V0Z" fill="white"/>
</mask>
<g mask="url(#mask0_24_3890)">
<path d="M5.31282 11.8454C5.17219 11.8454 5.10448 11.7933 5.10448 11.6787L4.85448 10.1579C4.85448 10.1162 4.81802 10.0954 4.75032 10.0954H2.77115C2.69823 10.0954 2.66698 10.1162 2.66698 10.1579L2.41698 11.6787C2.40136 11.7933 2.33365 11.8454 2.20865 11.8454H0.375316C0.234691 11.8454 0.187816 11.7777 0.229483 11.637L2.52115 1.03288C2.54719 0.923503 2.6149 0.866211 2.72948 0.866211H4.85448C4.96386 0.866211 5.02636 0.923503 5.04198 1.03288L7.33365 11.637L7.35448 11.6995C7.35448 11.7985 7.29719 11.8454 7.18782 11.8454H5.31282ZM2.97948 8.30371C2.97948 8.361 3.00032 8.38704 3.04198 8.38704H4.45865C4.51073 8.38704 4.53157 8.361 4.52115 8.30371L3.77115 4.01204C3.77115 3.986 3.75552 3.97038 3.72948 3.97038C3.71386 3.97038 3.69823 3.986 3.68782 4.01204L2.97948 8.30371Z" fill="#D72333"/>
</g>
</svg>
