<svg width="11" height="19" viewBox="0 0 11 19" fill="none" xmlns="http://www.w3.org/2000/svg">
<mask id="mask0_25_10378" style="mask-type:luminance" maskUnits="userSpaceOnUse" x="0" y="0" width="11" height="19">
<path d="M0 0H10.5104V18.375H0V0Z" fill="white"/>
</mask>
<g mask="url(#mask0_25_10378)">
<mask id="mask1_25_10378" style="mask-type:luminance" maskUnits="userSpaceOnUse" x="0" y="-1" width="11" height="20">
<path d="M10.6667 -0.291504H0V18.3752H10.6667V-0.291504Z" fill="white"/>
</mask>
<g mask="url(#mask1_25_10378)">
<mask id="mask2_25_10378" style="mask-type:luminance" maskUnits="userSpaceOnUse" x="0" y="2" width="4" height="13">
<path d="M0.00537109 2.375H4.00016V14.375H0.00537109V2.375Z" fill="white"/>
</mask>
<g mask="url(#mask2_25_10378)">
<path d="M2.24251 3.40934C2.31022 3.3833 2.37793 3.36768 2.45085 3.36768H3.30501C3.39876 3.36768 3.45085 3.41976 3.45085 3.51351V14.1802C3.45085 14.2948 3.39876 14.3468 3.30501 14.3468H2.49251C2.39355 14.3468 2.34668 14.2948 2.34668 14.1802V4.68018C2.34668 4.66976 2.33626 4.65413 2.32585 4.63851C2.31022 4.62809 2.28939 4.62809 2.26335 4.63851L0.78418 5.11768L0.742513 5.13851C0.669596 5.13851 0.622721 5.09163 0.59668 4.99268L0.53418 4.40934V4.38851C0.53418 4.33643 0.56543 4.27913 0.638346 4.22184L2.24251 3.40934Z" fill="#D72333"/>
</g>
<mask id="mask3_25_10378" style="mask-type:luminance" maskUnits="userSpaceOnUse" x="4" y="2" width="7" height="14">
<path d="M4 2.375H10.5104V15.7083H4V2.375Z" fill="white"/>
</mask>
<g mask="url(#mask3_25_10378)">
<path d="M9.71484 9.24268C9.88151 9.77393 9.96484 10.3625 9.96484 11.0135C9.96484 11.5708 9.90755 12.076 9.79818 12.5343C9.50651 13.826 8.72526 14.4718 7.46484 14.4718C6.80859 14.4718 6.26693 14.2948 5.83984 13.9302C5.42318 13.5552 5.15755 13.05 5.04818 12.4093C4.99089 12.0343 4.96484 11.6333 4.96484 11.201C4.96484 11.0916 5.01172 11.0343 5.11068 11.0343H5.92318C6.01693 11.0343 6.06901 11.0916 6.06901 11.201C6.06901 11.576 6.10026 11.9198 6.17318 12.2218C6.35026 13.0708 6.78255 13.4927 7.46484 13.4927C7.79818 13.4927 8.06901 13.3989 8.27734 13.201C8.49609 13.0083 8.65755 12.7218 8.75651 12.3468C8.83984 11.9041 8.88151 11.4302 8.88151 10.9302C8.88151 10.2635 8.81901 9.71663 8.69401 9.28434C8.59505 8.95101 8.43359 8.70101 8.21484 8.53434C8.00651 8.35726 7.75651 8.26351 7.46484 8.26351C7.38151 8.26351 7.26172 8.29476 7.11068 8.34684C7.01172 8.40413 6.93359 8.40413 6.88151 8.34684L6.48568 7.90934C6.42839 7.84163 6.42318 7.77393 6.46484 7.70101L8.54818 4.40934C8.55859 4.40934 8.55859 4.40413 8.54818 4.38851C8.54818 4.36247 8.53255 4.34684 8.50651 4.34684H5.19401C5.09505 4.34684 5.04818 4.29476 5.04818 4.18018V3.51351C5.04818 3.41976 5.09505 3.36768 5.19401 3.36768H9.77734C9.88672 3.36768 9.94401 3.41976 9.94401 3.51351V4.22184C9.94401 4.27913 9.92318 4.34684 9.88151 4.43018L7.92318 7.47184C7.90755 7.50309 7.90234 7.52393 7.90234 7.53434C7.91276 7.54997 7.93359 7.55518 7.96484 7.55518C8.38151 7.59684 8.74089 7.77393 9.04818 8.07601C9.35026 8.36768 9.57422 8.7583 9.71484 9.24268Z" fill="#D72333"/>
</g>
</g>
</g>
</svg>
