<svg width="29" height="10" viewBox="0 0 29 10" fill="none" xmlns="http://www.w3.org/2000/svg">
<mask id="mask0_25_16174" style="mask-type:luminance" maskUnits="userSpaceOnUse" x="0" y="0" width="29" height="10">
<path d="M0 0H28.5885V9.33333H0V0Z" fill="white"/>
</mask>
<g mask="url(#mask0_25_16174)">
<path d="M0 4.89587C0 4.89587 1.47396 5.59378 2.81771 7.11983C4.70313 7.89066 6.07292 8.43753 7.59896 8.30733C8.96875 7.71358 11.1667 6.78128 12.5625 4.73962C14.7083 3.67712 16.8542 2.61983 19.0781 1.63545C21.4792 1.76566 23.1094 1.86983 24.4531 2.87503C25.7708 3.75524 27.0156 5.2292 27.375 5.17712C27.5312 4.94795 27.4792 4.45316 27.4271 4.11983C27.1667 3.96358 27.0885 4.22399 27.0365 4.22399C27.0365 4.22399 27.3229 4.01566 27.401 4.11983C27.5052 4.22399 25.4115 1.63545 23.4948 0.911492C21.6354 0.682326 19.2292 0.395867 17.0625 1.53128C14.8906 2.43753 12.4583 3.47399 10.8542 5.56774C8.53125 6.85941 8.01042 7.14066 7.39062 7.14066C6.79688 7.19274 4.13542 7.53128 2.32292 5.20316C0.203126 4.01566 0.567709 4.17191 0.515625 4.14587C0.515625 4.14587 0.229167 3.88545 0.125 3.85941C0.0260413 3.85941 0.026042 4.22399 0.0729167 4.34899" fill="#D72333"/>
</g>
</svg>
