<svg width="30" height="8" viewBox="0 0 30 8" fill="none" xmlns="http://www.w3.org/2000/svg">
<mask id="mask0_25_16217" style="mask-type:luminance" maskUnits="userSpaceOnUse" x="0" y="0" width="30" height="8">
<path d="M0 0H29.2344V8H0V0Z" fill="white"/>
</mask>
<g mask="url(#mask0_25_16217)">
<path d="M1.30225 4.46363C1.30225 4.46363 2.771 5.16155 4.11995 6.68759C6.00537 7.46363 7.37516 8.0053 8.9012 7.8803C10.271 7.28134 12.4689 6.35426 13.8647 4.31259C16.0106 3.25009 18.1564 2.1928 20.3804 1.20842C22.7814 1.33863 24.4116 1.4428 25.7554 2.44801C27.0731 3.32822 28.3127 4.80217 28.6772 4.75009C28.8335 4.51572 28.7814 4.02613 28.7293 3.6928C28.4689 3.53655 28.3908 3.79176 28.3387 3.79176C28.3387 3.79176 28.6252 3.58863 28.7033 3.6928C28.8075 3.79176 26.7137 1.20842 24.797 0.484466C22.9377 0.250091 20.5314 -0.0311594 18.3595 1.10426C16.1929 2.01051 13.7606 3.04176 12.1564 5.14072C9.82829 6.43238 9.31266 6.71363 8.69287 6.71363C8.09912 6.76572 5.43766 7.10426 3.62516 4.77613C1.50537 3.58863 1.86996 3.73968 1.81787 3.71884C1.81787 3.71884 1.53141 3.45843 1.42725 3.43238C1.32308 3.43238 1.32308 3.79176 1.37516 3.92197" fill="#D72333"/>
</g>
</svg>
