<svg width="29" height="9" viewBox="0 0 29 9" fill="none" xmlns="http://www.w3.org/2000/svg">
<mask id="mask0_25_16325" style="mask-type:luminance" maskUnits="userSpaceOnUse" x="0" y="0" width="29" height="9">
<path d="M0 0H28.8646V8.38542H0V0Z" fill="white"/>
</mask>
<g mask="url(#mask0_25_16325)">
<path d="M1.03125 4.61462C1.03125 4.61462 2.50521 5.31253 3.84896 6.83858C5.73437 7.61462 7.10417 8.15628 8.63021 8.02608C10 7.43233 12.1979 6.47399 13.5938 4.45837C15.7396 3.39587 17.8854 2.33858 20.1094 1.3542C22.5104 1.48441 24.1406 1.58857 25.4844 2.59899C26.8021 3.47399 28.0469 4.94795 28.4062 4.89587C28.5625 4.6667 28.5104 4.17191 28.4583 3.83858C28.1979 3.68233 28.125 3.94274 28.099 3.94274C28.099 3.94274 28.3802 3.73441 28.4583 3.83858C28.5625 3.94274 26.4688 1.3542 24.5573 0.630242C22.6927 0.401075 20.2917 0.114618 18.1198 1.25003C15.9479 2.15628 13.5156 3.19274 11.9115 5.28649C9.58854 6.57816 9.06771 6.86462 8.44792 6.86462C7.85417 6.91149 5.19271 7.25003 3.38021 4.92191C1.26042 3.73441 1.625 3.89066 1.57292 3.86462C1.57292 3.86462 1.28646 3.6042 1.1875 3.57816C1.08333 3.57816 1.08333 3.94274 1.13542 4.06774" fill="#D72333"/>
</g>
</svg>
