<svg width="114" height="8" viewBox="0 0 114 8" fill="none" xmlns="http://www.w3.org/2000/svg">
<mask id="mask0_24_6580" style="mask-type:luminance" maskUnits="userSpaceOnUse" x="0" y="0" width="114" height="8">
<path d="M0 0H113.37V7.97917H0V0Z" fill="white"/>
</mask>
<g mask="url(#mask0_24_6580)">
<path d="M26.2917 8.11979L21.224 3.52604L16.1406 8.11979L11.0677 3.52604L6 8.11979L0.046875 2.73438L1.80208 0.791667L6 4.57812L11.0677 0L16.1406 4.57812L21.224 0L26.2917 4.57812L31.3646 0L36.4323 4.57812L41.5156 0L46.5885 4.57812L51.6562 0L56.7396 4.57812L61.8125 0L66.8802 4.57812L71.9479 0L77.0365 4.57812L82.1042 0L87.1719 4.57812L92.2604 0L97.3281 4.57812L102.396 0L107.484 4.57812L111.667 0.791667L113.417 2.73438L107.484 8.11979L102.396 3.52604L97.3281 8.11979L92.2604 3.52604L87.1719 8.11979L82.1042 3.52604L77.0365 8.11979L71.9479 3.52604L66.8802 8.11979L61.8125 3.52604L56.7396 8.11979L51.6562 3.52604L46.5885 8.11979L41.5156 3.52604L36.4323 8.11979L31.3646 3.52604L26.2917 8.11979Z" fill="#D72333"/>
</g>
</svg>
