<svg width="5" height="8" viewBox="0 0 5 8" fill="none" xmlns="http://www.w3.org/2000/svg">
<mask id="mask0_24_4762" style="mask-type:luminance" maskUnits="userSpaceOnUse" x="0" y="0" width="5" height="8">
<path d="M0 0H4.35417V8H0V0Z" fill="white"/>
</mask>
<g mask="url(#mask0_24_4762)">
<path d="M3.08382 6.79476C3.02653 6.79476 2.99007 6.76872 2.97966 6.71143L2.75049 5.58643C2.75049 5.57601 2.74007 5.56559 2.72966 5.56559C2.71403 5.55518 2.70882 5.54476 2.70882 5.54476H1.04216C1.02653 5.54476 1.0109 5.55518 1.00049 5.56559C1.00049 5.56559 1.00049 5.57601 1.00049 5.58643L0.771322 6.71143C0.755696 6.76872 0.719238 6.79476 0.667155 6.79476H0.208822C0.167155 6.79476 0.135904 6.78955 0.125488 6.77393C0.109863 6.74788 0.109863 6.72184 0.125488 6.69059L1.50049 0.482259C1.50049 0.430175 1.52653 0.398926 1.58382 0.398926H2.14632C2.19841 0.398926 2.23486 0.430175 2.25049 0.482259L3.62549 6.69059V6.71143C3.62549 6.76872 3.59424 6.79476 3.54216 6.79476H3.08382ZM1.12549 4.98226C1.12549 4.99788 1.1307 5.00309 1.14632 5.00309H2.58382C2.60986 5.00309 2.62549 4.99788 2.62549 4.98226L1.87549 1.37809C1.87549 1.36768 1.86507 1.35726 1.85466 1.35726C1.85466 1.35726 1.85466 1.36768 1.85466 1.37809L1.12549 4.98226Z" fill="#D72333"/>
</g>
</svg>
