<svg width="29" height="10" viewBox="0 0 29 10" fill="none" xmlns="http://www.w3.org/2000/svg">
<mask id="mask0_25_16159" style="mask-type:luminance" maskUnits="userSpaceOnUse" x="0" y="0" width="29" height="10">
<path d="M0 0H28.8646V9.33333H0V0Z" fill="white"/>
</mask>
<g mask="url(#mask0_25_16159)">
<path d="M0.927246 5.43747C0.927246 5.43747 2.4012 6.13538 3.74495 7.66143C5.63037 8.43747 7.00016 8.97913 8.5262 8.84893C9.896 8.25517 12.0939 7.32288 13.4897 5.28122C15.6356 4.22393 17.7814 3.16143 20.0054 2.17705C22.4116 2.30726 24.0366 2.41143 25.3804 3.42184C26.7033 4.29684 27.9429 5.7708 28.3022 5.71872C28.4585 5.48955 28.4064 4.99997 28.3543 4.66143C28.0991 4.50517 28.021 4.76559 27.9689 4.76559C27.9689 4.76559 28.2502 4.55726 28.3283 4.66143C28.4325 4.76559 26.3387 2.17705 24.4272 1.4583C22.5627 1.22393 20.1616 0.937467 17.9897 2.07809C15.8179 2.97913 13.3856 4.01559 11.7866 6.10934C9.4585 7.40101 8.94287 7.68747 8.31787 7.68747C7.72412 7.73955 5.06266 8.07288 3.25537 5.74476C1.13558 4.55726 1.49496 4.71351 1.44287 4.68747C1.44287 4.68747 1.16162 4.42705 1.05745 4.40101C0.953288 4.40101 0.953288 4.76559 1.00537 4.8958" fill="#D72333"/>
</g>
</svg>
