<svg width="94" height="31" viewBox="0 0 94 31" fill="none" xmlns="http://www.w3.org/2000/svg">
<mask id="mask0_25_9541" style="mask-type:luminance" maskUnits="userSpaceOnUse" x="0" y="0" width="94" height="31">
<path d="M0 0H93.2292V30.6667H0V0Z" fill="white"/>
</mask>
<g mask="url(#mask0_25_9541)">
<mask id="mask1_25_9541" style="mask-type:luminance" maskUnits="userSpaceOnUse" x="-1" y="0" width="95" height="31">
<path d="M93.2293 0H-0.104004V30.6667H93.2293V0Z" fill="white"/>
</mask>
<g mask="url(#mask1_25_9541)">
<mask id="mask2_25_9541" style="mask-type:luminance" maskUnits="userSpaceOnUse" x="0" y="5" width="8" height="13">
<path d="M0 5.3335H7.89583V17.3335H0V5.3335Z" fill="white"/>
</mask>
<g mask="url(#mask2_25_9541)">
<path d="M4.62305 5.625C4.62305 5.57292 4.63346 5.53125 4.66471 5.5C4.70638 5.45833 4.75325 5.4375 4.81055 5.4375H6.64388C6.69596 5.4375 6.73763 5.45833 6.76888 5.5C6.81055 5.53125 6.83138 5.57292 6.83138 5.625V16.2292C6.83138 16.2865 6.81055 16.3333 6.76888 16.375C6.73763 16.4062 6.69596 16.4167 6.64388 16.4167H4.81055C4.75325 16.4167 4.70638 16.4062 4.66471 16.375C4.63346 16.3333 4.62305 16.2865 4.62305 16.2292V11.9375C4.62305 11.8958 4.5918 11.875 4.53971 11.875H2.97721C2.91992 11.875 2.89388 11.8958 2.89388 11.9375V16.2292C2.89388 16.2865 2.87305 16.3333 2.83138 16.375C2.80013 16.4062 2.75846 16.4167 2.70638 16.4167H0.873047C0.815755 16.4167 0.76888 16.4062 0.727214 16.375C0.695964 16.3333 0.685547 16.2865 0.685547 16.2292V5.625C0.685547 5.57292 0.695964 5.53125 0.727214 5.5C0.76888 5.45833 0.815755 5.4375 0.873047 5.4375H2.70638C2.75846 5.4375 2.80013 5.45833 2.83138 5.5C2.87305 5.53125 2.89388 5.57292 2.89388 5.625V9.89583C2.89388 9.95313 2.91992 9.97917 2.97721 9.97917H4.53971C4.5918 9.97917 4.62305 9.95313 4.62305 9.89583V5.625Z" fill="#D72333"/>
</g>
<path d="M11.2954 16.5417C10.3475 16.5417 9.59228 16.25 9.02458 15.6667C8.45166 15.0729 8.17041 14.2813 8.17041 13.2917V5.625C8.17041 5.57292 8.18083 5.53125 8.21208 5.5C8.25374 5.45833 8.30062 5.4375 8.35791 5.4375H10.1912C10.2433 5.4375 10.285 5.45833 10.3162 5.5C10.3579 5.53125 10.3787 5.57292 10.3787 5.625V13.5208C10.3787 13.8542 10.4621 14.125 10.6287 14.3333C10.7954 14.5417 11.0142 14.6458 11.2954 14.6458C11.5558 14.6458 11.7746 14.5417 11.9412 14.3333C12.1079 14.125 12.1912 13.8542 12.1912 13.5208V5.625C12.1912 5.57292 12.2017 5.53125 12.2329 5.5C12.2746 5.45833 12.3215 5.4375 12.3787 5.4375H14.2121C14.2642 5.4375 14.3058 5.45833 14.3371 5.5C14.3787 5.53125 14.3996 5.57292 14.3996 5.625V13.2917C14.3996 14.2813 14.1131 15.0729 13.5454 15.6667C12.9725 16.25 12.2225 16.5417 11.2954 16.5417Z" fill="#D72333"/>
<path d="M20.7437 5.5625C20.7853 5.47917 20.8582 5.4375 20.9728 5.4375H22.8062C22.8582 5.4375 22.8999 5.45833 22.9312 5.5C22.9728 5.53125 22.9937 5.57292 22.9937 5.625V16.2292C22.9937 16.2865 22.9728 16.3333 22.9312 16.375C22.8999 16.4062 22.8582 16.4167 22.8062 16.4167H20.9728C20.9155 16.4167 20.8687 16.4062 20.827 16.375C20.7957 16.3333 20.7853 16.2865 20.7853 16.2292V9.1875C20.7853 9.14583 20.7697 9.125 20.7437 9.125C20.728 9.125 20.7072 9.14063 20.6812 9.16667L19.452 11.3333C19.4103 11.4167 19.3687 11.4583 19.327 11.4583C19.2957 11.4583 19.2541 11.4167 19.202 11.3333L17.9937 9.16667C17.9624 9.14063 17.9364 9.125 17.9103 9.125C17.8947 9.125 17.8895 9.14583 17.8895 9.1875V16.2292C17.8895 16.2865 17.8687 16.3333 17.827 16.375C17.7957 16.4062 17.7541 16.4167 17.702 16.4167H15.8687C15.8114 16.4167 15.7645 16.4062 15.7228 16.375C15.6916 16.3333 15.6812 16.2865 15.6812 16.2292V5.625C15.6812 5.57292 15.6916 5.53125 15.7228 5.5C15.7645 5.45833 15.8114 5.4375 15.8687 5.4375H17.6812C17.7749 5.4375 17.853 5.47917 17.9103 5.5625L19.3062 8.0625C19.3322 8.10417 19.3582 8.10417 19.3895 8.0625L20.7437 5.5625Z" fill="#D72333"/>
<path d="M29.3364 5.5625C29.3781 5.47917 29.451 5.4375 29.5656 5.4375H31.3989C31.451 5.4375 31.4927 5.45833 31.5239 5.5C31.5656 5.53125 31.5864 5.57292 31.5864 5.625V16.2292C31.5864 16.2865 31.5656 16.3333 31.5239 16.375C31.4927 16.4062 31.451 16.4167 31.3989 16.4167H29.5656C29.5083 16.4167 29.4614 16.4062 29.4198 16.375C29.3885 16.3333 29.3781 16.2865 29.3781 16.2292V9.1875C29.3781 9.14583 29.3625 9.125 29.3364 9.125C29.3208 9.125 29.3 9.14063 29.2739 9.16667L28.0448 11.3333C28.0031 11.4167 27.9614 11.4583 27.9198 11.4583C27.8885 11.4583 27.8468 11.4167 27.7948 11.3333L26.5864 9.16667C26.5552 9.14063 26.5291 9.125 26.5031 9.125C26.4875 9.125 26.4823 9.14583 26.4823 9.1875V16.2292C26.4823 16.2865 26.4614 16.3333 26.4198 16.375C26.3885 16.4062 26.3468 16.4167 26.2948 16.4167H24.4614C24.4041 16.4167 24.3573 16.4062 24.3156 16.375C24.2843 16.3333 24.2739 16.2865 24.2739 16.2292V5.625C24.2739 5.57292 24.2843 5.53125 24.3156 5.5C24.3573 5.45833 24.4041 5.4375 24.4614 5.4375H26.2739C26.3677 5.4375 26.4458 5.47917 26.5031 5.5625L27.8989 8.0625C27.925 8.10417 27.951 8.10417 27.9823 8.0625L29.3364 5.5625Z" fill="#D72333"/>
<path d="M35.9917 16.5417C35.0438 16.5417 34.2886 16.25 33.7209 15.6667C33.1479 15.0729 32.8667 14.2813 32.8667 13.2917V5.625C32.8667 5.57292 32.8771 5.53125 32.9084 5.5C32.95 5.45833 32.9969 5.4375 33.0542 5.4375H34.8875C34.9396 5.4375 34.9813 5.45833 35.0125 5.5C35.0542 5.53125 35.075 5.57292 35.075 5.625V13.5208C35.075 13.8542 35.1584 14.125 35.325 14.3333C35.4917 14.5417 35.7104 14.6458 35.9917 14.6458C36.2521 14.6458 36.4709 14.5417 36.6375 14.3333C36.8042 14.125 36.8875 13.8542 36.8875 13.5208V5.625C36.8875 5.57292 36.8979 5.53125 36.9292 5.5C36.9709 5.45833 37.0177 5.4375 37.075 5.4375H38.9084C38.9605 5.4375 39.0021 5.45833 39.0334 5.5C39.075 5.53125 39.0959 5.57292 39.0959 5.625V13.2917C39.0959 14.2813 38.8094 15.0729 38.2417 15.6667C37.6688 16.25 36.9188 16.5417 35.9917 16.5417Z" fill="#D72333"/>
<path d="M43.2526 16.5417C42.638 16.5417 42.1068 16.4219 41.6484 16.1875C41.1901 15.9375 40.8359 15.599 40.5859 15.1667C40.3359 14.7396 40.2109 14.2396 40.2109 13.6667V13.2083C40.2109 13.1667 40.2214 13.125 40.2526 13.0833C40.2943 13.0417 40.3411 13.0208 40.3984 13.0208H42.1901C42.2422 13.0208 42.2839 13.0417 42.3151 13.0833C42.3568 13.125 42.3776 13.1667 42.3776 13.2083V13.5625C42.3776 13.8854 42.4609 14.1458 42.6276 14.3542C42.7943 14.5521 43.0026 14.6458 43.2526 14.6458C43.5026 14.6458 43.7109 14.5573 43.8776 14.375C44.0547 14.1823 44.1484 13.9323 44.1484 13.625C44.1484 13.3073 44.0339 13.0365 43.8151 12.8125C43.6068 12.5937 43.2005 12.2604 42.6068 11.8125C42.0755 11.4375 41.6484 11.1042 41.3151 10.8125C40.9922 10.5208 40.7161 10.1615 40.4818 9.72917C40.2578 9.30208 40.1484 8.80729 40.1484 8.25C40.1484 7.36458 40.4245 6.65625 40.9818 6.125C41.5339 5.58333 42.2734 5.3125 43.1901 5.3125C44.1068 5.3125 44.8411 5.59375 45.3984 6.14583C45.9505 6.70313 46.2318 7.42708 46.2318 8.3125V8.70833C46.2318 8.75 46.2109 8.79167 46.1693 8.83333C46.138 8.875 46.0964 8.89583 46.0443 8.89583H44.2526C44.1953 8.89583 44.1484 8.875 44.1068 8.83333C44.0755 8.79167 44.0651 8.75 44.0651 8.70833V8.27083C44.0651 7.95313 43.9818 7.69792 43.8151 7.5C43.6484 7.30729 43.4401 7.20833 43.1901 7.20833C42.9401 7.20833 42.7318 7.30208 42.5651 7.47917C42.4089 7.66146 42.3359 7.91667 42.3359 8.25C42.3359 8.55729 42.4297 8.83333 42.6276 9.08333C42.8359 9.32292 43.2318 9.65625 43.8151 10.0833C44.4505 10.5573 44.9401 10.9479 45.2734 11.25C45.6068 11.5417 45.862 11.8698 46.0443 12.2292C46.2214 12.5937 46.3151 13.0208 46.3151 13.5208C46.3151 14.4531 46.0286 15.1875 45.4609 15.7292C44.9036 16.2708 44.1693 16.5417 43.2526 16.5417Z" fill="#D72333"/>
<path d="M58.7257 16.1875C58.7518 16.2292 58.7674 16.2708 58.7674 16.3125C58.7674 16.3854 58.7153 16.4167 58.6216 16.4167H56.6216C56.5226 16.4167 56.4445 16.3854 56.3924 16.3125L56.0174 15.8125C55.9757 15.7865 55.9341 15.7865 55.8924 15.8125C55.1268 16.3125 54.2674 16.5625 53.3091 16.5625C52.3612 16.5625 51.6112 16.3281 51.0591 15.8542C50.5174 15.3854 50.2466 14.6875 50.2466 13.7708C50.2466 13.1042 50.3924 12.5365 50.6841 12.0625C50.9862 11.5937 51.4028 11.1563 51.9341 10.75C51.9757 10.724 51.981 10.6875 51.9549 10.6458C51.4653 9.99479 51.1528 9.51042 51.0174 9.1875C50.8768 8.86979 50.8091 8.51563 50.8091 8.125C50.8091 7.28125 51.0695 6.59896 51.6007 6.08333C52.1268 5.57292 52.8195 5.3125 53.6841 5.3125C54.2674 5.3125 54.7882 5.4375 55.2466 5.6875C55.7049 5.92708 56.0643 6.26042 56.3299 6.6875C56.5903 7.11979 56.7257 7.61979 56.7257 8.1875C56.7257 8.82813 56.5591 9.38542 56.2257 9.85417C55.9028 10.3125 55.4601 10.7448 54.8924 11.1458C54.8351 11.1771 54.8299 11.2083 54.8716 11.25L55.3091 11.8125L55.7882 12.4375L56.0382 12.7708C56.0799 12.8125 56.1112 12.8125 56.1424 12.7708C56.3768 12.4687 56.6216 12.0781 56.8716 11.6042C56.9237 11.4948 57.007 11.4687 57.1216 11.5208L58.4966 12.2917C58.5903 12.349 58.6112 12.4375 58.5591 12.5625C58.1841 13.2604 57.7987 13.8698 57.4132 14.3958C57.3716 14.4271 57.3716 14.4583 57.4132 14.5L58.7257 16.1875ZM53.7466 7.3125C53.5226 7.3125 53.3403 7.39583 53.2049 7.5625C53.0799 7.72917 53.0174 7.94792 53.0174 8.20833C53.0174 8.40625 53.0435 8.58333 53.1007 8.75C53.1685 8.90625 53.3299 9.16146 53.5799 9.52083C53.606 9.55208 53.6424 9.55208 53.6841 9.52083C54.2257 9.10417 54.4966 8.66146 54.4966 8.1875C54.4966 7.9375 54.4237 7.72917 54.2882 7.5625C54.1476 7.39583 53.9653 7.3125 53.7466 7.3125ZM53.5382 14.6667C53.856 14.6667 54.2362 14.5365 54.6841 14.2708C54.7257 14.2292 54.7257 14.1979 54.6841 14.1667L54.2466 13.5833L53.2882 12.375C53.2466 12.3333 53.2049 12.3333 53.1632 12.375C52.7049 12.7813 52.4757 13.1875 52.4757 13.6042C52.4757 13.9115 52.5643 14.1667 52.7466 14.375C52.9393 14.5729 53.2049 14.6667 53.5382 14.6667Z" fill="#D72333"/>
<path d="M69.4209 13.3958C69.4209 14.3698 69.1292 15.1198 68.5459 15.6458C67.9626 16.1615 67.1969 16.4167 66.2542 16.4167H63.2959C63.2386 16.4167 63.1917 16.4062 63.1501 16.375C63.1188 16.3333 63.1084 16.2865 63.1084 16.2292V5.625C63.1084 5.57292 63.1188 5.53125 63.1501 5.5C63.1917 5.45833 63.2386 5.4375 63.2959 5.4375H65.9209C66.9626 5.4375 67.7751 5.6875 68.3584 6.1875C68.9521 6.6875 69.2542 7.4375 69.2542 8.4375C69.2542 9.46875 68.9001 10.2187 68.1917 10.6875C68.1501 10.7187 68.1396 10.75 68.1709 10.7917C69.0042 11.375 69.4209 12.2448 69.4209 13.3958ZM65.4001 7.33333C65.3428 7.33333 65.3167 7.36458 65.3167 7.41667V9.875C65.3167 9.93229 65.3428 9.95833 65.4001 9.95833H65.9626C66.3219 9.95833 66.598 9.84896 66.7959 9.625C66.9886 9.39063 67.0876 9.07292 67.0876 8.66667C67.0876 8.23958 66.9886 7.91146 66.7959 7.6875C66.6136 7.45313 66.3376 7.33333 65.9626 7.33333H65.4001ZM66.0876 14.5C66.4313 14.5 66.7021 14.375 66.9001 14.125C67.1084 13.875 67.2126 13.5208 67.2126 13.0625C67.2126 12.6042 67.1084 12.2448 66.9001 11.9792C66.7021 11.7031 66.4417 11.5625 66.1084 11.5625H65.4001C65.3428 11.5625 65.3167 11.5833 65.3167 11.625V14.4167C65.3167 14.474 65.3428 14.5 65.4001 14.5H66.0876Z" fill="#D72333"/>
<path d="M74.8114 16.4167C74.6968 16.4167 74.6239 16.3646 74.5822 16.25L73.3739 11.9375C73.3582 11.8958 73.3374 11.875 73.3114 11.875H72.7697C72.7124 11.875 72.6864 11.8958 72.6864 11.9375V16.2292C72.6864 16.2865 72.6655 16.3333 72.6239 16.375C72.5926 16.4062 72.5509 16.4167 72.4989 16.4167H70.6655C70.6082 16.4167 70.5614 16.4062 70.5197 16.375C70.4884 16.3333 70.478 16.2865 70.478 16.2292V5.625C70.478 5.57292 70.4884 5.53125 70.5197 5.5C70.5614 5.45833 70.6082 5.4375 70.6655 5.4375H73.8322C74.4155 5.4375 74.9259 5.57813 75.3739 5.85417C75.8166 6.13542 76.1655 6.52083 76.4155 7.02083C76.6655 7.52083 76.7905 8.09896 76.7905 8.75C76.7905 9.36458 76.6707 9.90625 76.4364 10.375C76.1968 10.849 75.8739 11.2187 75.4572 11.4792C75.4259 11.4948 75.4051 11.5104 75.3947 11.5208C75.3947 11.5365 75.3999 11.5521 75.4155 11.5625L76.853 16.1875L76.8739 16.25C76.8739 16.3646 76.8114 16.4167 76.6864 16.4167H74.8114ZM72.7697 7.33333C72.7124 7.33333 72.6864 7.36458 72.6864 7.41667V10.1042C72.6864 10.1458 72.7124 10.1667 72.7697 10.1667H73.478C73.7957 10.1667 74.0614 10.0417 74.2697 9.79167C74.478 9.53125 74.5822 9.1875 74.5822 8.77083C74.5822 8.32813 74.478 7.97917 74.2697 7.72917C74.0614 7.46875 73.7957 7.33333 73.478 7.33333H72.7697Z" fill="#D72333"/>
<path d="M80.8844 16.5417C79.9105 16.5417 79.1396 16.2656 78.5719 15.7083C77.999 15.1406 77.7178 14.3854 77.7178 13.4375V8.41667C77.7178 7.47396 77.999 6.72396 78.5719 6.16667C79.1396 5.59896 79.9105 5.3125 80.8844 5.3125C81.8428 5.3125 82.6136 5.59896 83.1969 6.16667C83.7803 6.72396 84.0719 7.47396 84.0719 8.41667V13.4375C84.0719 14.3854 83.7803 15.1406 83.1969 15.7083C82.6136 16.2656 81.8428 16.5417 80.8844 16.5417ZM80.8844 14.6458C81.1761 14.6458 81.4053 14.5521 81.5719 14.3542C81.749 14.1458 81.8428 13.8698 81.8428 13.5208V8.3125C81.8428 7.97917 81.749 7.71875 81.5719 7.52083C81.4053 7.3125 81.1761 7.20833 80.8844 7.20833C80.5928 7.20833 80.3532 7.3125 80.1761 7.52083C80.0094 7.71875 79.9261 7.97917 79.9261 8.3125V13.5208C79.9261 13.8698 80.0094 14.1458 80.1761 14.3542C80.3532 14.5521 80.5928 14.6458 80.8844 14.6458Z" fill="#D72333"/>
<path d="M91.3636 5.4375C91.4157 5.4375 91.4574 5.45833 91.4886 5.5C91.5303 5.53125 91.5511 5.57292 91.5511 5.625V7.14583C91.5511 7.20313 91.5303 7.25 91.4886 7.29167C91.4574 7.32292 91.4157 7.33333 91.3636 7.33333H89.4053C89.348 7.33333 89.3219 7.36458 89.3219 7.41667V16.2292C89.3219 16.2865 89.3011 16.3333 89.2594 16.375C89.2282 16.4062 89.1865 16.4167 89.1344 16.4167H87.3011C87.2594 16.4167 87.2178 16.4062 87.1761 16.375C87.1344 16.3333 87.1136 16.2865 87.1136 16.2292V7.41667C87.1136 7.36458 87.0824 7.33333 87.0303 7.33333H85.1553C85.098 7.33333 85.0511 7.32292 85.0094 7.29167C84.9782 7.25 84.9678 7.20313 84.9678 7.14583V5.625C84.9678 5.57292 84.9782 5.53125 85.0094 5.5C85.0511 5.45833 85.098 5.4375 85.1553 5.4375H91.3636Z" fill="#D72333"/>
<mask id="mask3_25_9541" style="mask-type:luminance" maskUnits="userSpaceOnUse" x="0" y="20" width="4" height="8">
<path d="M0 20H3.89583V28H0V20Z" fill="white"/>
</mask>
<g mask="url(#mask3_25_9541)">
<path d="M3.03971 26.9642C2.98242 26.9642 2.94596 26.9382 2.93555 26.8809L2.70638 25.7559C2.70638 25.7454 2.69596 25.735 2.68555 25.735C2.68555 25.735 2.67513 25.735 2.66471 25.735H1.01888C1.01888 25.735 1.00846 25.735 0.998047 25.735C0.982422 25.735 0.977214 25.7454 0.977214 25.7559L0.748047 26.8809C0.748047 26.9382 0.716796 26.9642 0.664714 26.9642H0.20638C0.164714 26.9642 0.133463 26.959 0.123047 26.9434C0.107422 26.9173 0.107422 26.8913 0.123047 26.86L1.47721 20.7142C1.48763 20.6621 1.52409 20.6309 1.58138 20.6309H2.12305C2.17513 20.6309 2.20638 20.6621 2.20638 20.7142L3.58138 26.86V26.8809C3.58138 26.9382 3.55013 26.9642 3.49805 26.9642H3.03971ZM1.10221 25.1725C1.10221 25.1882 1.10742 25.1934 1.12305 25.1934H2.56055C2.57096 25.1934 2.58138 25.1882 2.58138 25.1725L1.85221 21.61C1.85221 21.5996 1.8418 21.5892 1.83138 21.5892C1.83138 21.5892 1.83138 21.5996 1.83138 21.61L1.10221 25.1725Z" fill="#D72333"/>
</g>
<path d="M8.70085 20.735C8.70085 20.6673 8.72689 20.6309 8.78418 20.6309H9.24251C9.2946 20.6309 9.32585 20.6673 9.32585 20.735V26.8809C9.32585 26.9382 9.2946 26.9642 9.24251 26.9642H8.70085C8.65918 26.9642 8.62272 26.9434 8.59668 26.9017L6.84668 22.2142C6.83105 22.2038 6.81543 22.1934 6.80501 22.1934C6.80501 22.1934 6.80501 22.209 6.80501 22.235V26.8809C6.80501 26.9382 6.77376 26.9642 6.72168 26.9642H6.26335C6.19043 26.9642 6.15918 26.9382 6.15918 26.8809V20.735C6.15918 20.6673 6.19043 20.6309 6.26335 20.6309H6.78418C6.82585 20.6309 6.8571 20.6621 6.88835 20.7142L8.65918 25.3809C8.65918 25.4121 8.66439 25.4225 8.68001 25.4225C8.69043 25.4121 8.70085 25.3965 8.70085 25.3809V20.735Z" fill="#D72333"/>
</g>
</g>
</svg>
