<svg width="109" height="8" viewBox="0 0 109 8" fill="none" xmlns="http://www.w3.org/2000/svg">
<mask id="mask0_25_12033" style="mask-type:luminance" maskUnits="userSpaceOnUse" x="0" y="0" width="109" height="8">
<path d="M0 0H108.734V7.97917H0V0Z" fill="white"/>
</mask>
<g mask="url(#mask0_25_12033)">
<mask id="mask1_25_12033" style="mask-type:luminance" maskUnits="userSpaceOnUse" x="-1" y="-1" width="111" height="11">
<path d="M109.261 -0.265625H-0.0727539V9.06771H109.261V-0.265625Z" fill="white"/>
</mask>
<g mask="url(#mask1_25_12033)">
<mask id="mask2_25_12033" style="mask-type:luminance" maskUnits="userSpaceOnUse" x="0" y="0" width="109" height="8">
<path d="M0.182617 0H108.735V7.76042H0.182617V0Z" fill="white"/>
</mask>
<g mask="url(#mask2_25_12033)">
<path d="M25.4533 0L20.6095 4.39063L15.745 0L10.9012 4.39063L6.05745 0L0.364746 5.15104L2.04183 7.00521L6.05745 3.38542L10.9012 7.76042L15.745 3.38542L20.6095 7.76042L25.4533 3.38542L30.297 7.76042L35.1408 3.38542L40.0054 7.76042L44.8491 3.38542L49.6929 7.76042L54.5575 3.38542L59.4012 7.76042L64.245 3.38542L69.0887 7.76042L73.9533 3.38542L78.797 7.76042L83.6408 3.38542L88.5054 7.76042L93.3491 3.38542L98.1929 7.76042L103.057 3.38542L107.057 7.00521L108.729 5.15104L103.057 0L98.1929 4.39063L93.3491 0L88.5054 4.39063L83.6408 0L78.797 4.39063L73.9533 0L69.0887 4.39063L64.245 0L59.4012 4.39063L54.5575 0L49.6929 4.39063L44.8491 0L40.0054 4.39063L35.1408 0L30.297 4.39063L25.4533 0Z" fill="#D51224"/>
</g>
</g>
</g>
</svg>
