<svg width="17" height="19" viewBox="0 0 17 19" fill="none" xmlns="http://www.w3.org/2000/svg">
<mask id="mask0_25_9562" style="mask-type:luminance" maskUnits="userSpaceOnUse" x="0" y="0" width="17" height="19">
<path d="M0 0H16.3073V18.5833H0V0Z" fill="white"/>
</mask>
<g mask="url(#mask0_25_9562)">
<mask id="mask1_25_9562" style="mask-type:luminance" maskUnits="userSpaceOnUse" x="0" y="-1" width="18" height="20">
<path d="M17.3333 -0.0834961H0V18.5832H17.3333V-0.0834961Z" fill="white"/>
</mask>
<g mask="url(#mask1_25_9562)">
<path d="M6.7098 9.61475C6.79313 10.0314 6.8348 10.5002 6.8348 11.0106C6.8348 11.4585 6.81396 11.8387 6.7723 12.1564C6.68896 12.9064 6.42855 13.4845 6.00146 13.8856C5.5848 14.2762 5.0223 14.4689 4.31396 14.4689C3.67334 14.4689 3.13688 14.2918 2.7098 13.9272C2.29313 13.5522 2.03271 13.0106 1.93896 12.3022C1.86605 11.9689 1.8348 11.5627 1.8348 11.0731L1.81396 5.92725C1.81396 5.10954 2.04313 4.4585 2.50146 3.96891C2.9598 3.48454 3.56396 3.23975 4.31396 3.23975C4.99105 3.23975 5.55355 3.48975 6.00146 3.98975C6.44417 4.47933 6.66813 5.12516 6.66813 5.92725V6.17725C6.66813 6.2762 6.61605 6.32308 6.5223 6.32308H5.7098C5.61084 6.32308 5.56396 6.2762 5.56396 6.17725V5.94808C5.56396 5.44808 5.43896 5.04183 5.18896 4.71891C4.94938 4.4012 4.65771 4.23975 4.31396 4.23975C3.8973 4.23975 3.56396 4.4012 3.31396 4.71891C3.06396 5.0262 2.93896 5.43766 2.93896 5.94808V8.05225C2.93896 8.0835 2.94417 8.09391 2.9598 8.09391C2.97022 8.09391 2.99105 8.08871 3.0223 8.07308C3.15771 7.86475 3.34522 7.7085 3.5848 7.59391C3.81917 7.48454 4.07438 7.42725 4.35563 7.42725C4.99105 7.42725 5.51188 7.62516 5.91813 8.01058C6.3348 8.40121 6.59522 8.93766 6.7098 9.61475ZM5.6473 12.0731C5.68896 11.6564 5.7098 11.2762 5.7098 10.9272C5.7098 10.4429 5.66813 9.98975 5.5848 9.57308C5.50146 9.18766 5.34522 8.896 5.12646 8.69808C4.91813 8.50537 4.6473 8.40641 4.31396 8.40641C3.63167 8.40641 3.2098 8.81787 3.04313 9.63558C2.97022 9.96891 2.93896 10.4012 2.93896 10.9272C2.93896 11.4168 2.96501 11.8231 3.0223 12.1564C3.19938 13.047 3.63167 13.4897 4.31396 13.4897C4.67334 13.4897 4.96501 13.3752 5.18896 13.1356C5.40771 12.9012 5.56396 12.547 5.6473 12.0731Z" fill="#D72333"/>
<path d="M8.90967 14.3231C8.64404 14.3231 8.4305 14.2397 8.26383 14.0731C8.10759 13.9064 8.03467 13.6981 8.03467 13.4481C8.03467 13.1877 8.10759 12.9689 8.26383 12.8022C8.4305 12.6356 8.64404 12.5522 8.90967 12.5522C9.15967 12.5522 9.368 12.6356 9.53467 12.8022C9.70133 12.9689 9.78467 13.1877 9.78467 13.4481C9.78467 13.6981 9.70133 13.9064 9.53467 14.0731C9.368 14.2397 9.15967 14.3231 8.90967 14.3231Z" fill="#D72333"/>
<path d="M12.139 14.3439C12.0817 14.3439 12.04 14.3335 12.014 14.3022C11.9827 14.2606 11.9775 14.2189 11.9932 14.1772L14.6807 4.40641C14.6807 4.396 14.6702 4.38037 14.6598 4.36475C14.6442 4.35433 14.6286 4.34391 14.6182 4.34391H11.7432C11.7015 4.34391 11.6807 4.36475 11.6807 4.40641V5.03141C11.6807 5.146 11.6234 5.19808 11.514 5.19808H10.9098C10.7952 5.19808 10.7432 5.146 10.7432 5.03141V3.51058C10.7432 3.41683 10.7952 3.36475 10.9098 3.36475H15.7015C15.8109 3.36475 15.8682 3.41683 15.8682 3.51058V4.23975C15.8682 4.271 15.8525 4.3335 15.8265 4.42725L13.1598 14.1981C13.1442 14.297 13.0869 14.3439 12.9932 14.3439H12.139Z" fill="#D72333"/>
</g>
</g>
</svg>
