<svg width="29" height="8" viewBox="0 0 29 8" fill="none" xmlns="http://www.w3.org/2000/svg">
<mask id="mask0_25_16164" style="mask-type:luminance" maskUnits="userSpaceOnUse" x="0" y="0" width="29" height="8">
<path d="M0 0H28.8646V8H0V0Z" fill="white"/>
</mask>
<g mask="url(#mask0_25_16164)">
<path d="M1.03125 4.24977C1.03125 4.24977 2.50521 4.94768 3.84896 6.47372C5.73437 7.24977 7.10417 7.79143 8.63021 7.66122C10 7.06747 12.1979 6.11435 13.5938 4.09352C15.7396 3.03622 17.8854 1.97372 20.1094 0.994557C22.5104 1.12477 24.1406 1.22372 25.4844 2.23414C26.8021 3.11435 28.0469 4.58831 28.4062 4.53622C28.5625 4.30185 28.5104 3.81227 28.4583 3.47372C28.1979 3.31747 28.125 3.57789 28.099 3.57789C28.099 3.57789 28.3802 3.36956 28.4583 3.47372C28.5625 3.57789 26.4688 0.994557 24.5573 0.270599C22.6927 0.036224 20.2917 -0.245027 18.1198 0.89039C15.9479 1.79664 13.5156 2.82789 11.9115 4.92164C9.58854 6.21331 9.06771 6.49977 8.44792 6.49977C7.85417 6.55185 5.19271 6.88518 3.38021 4.56227C1.26042 3.36956 1.625 3.52581 1.57292 3.49977C1.57292 3.49977 1.28646 3.24456 1.1875 3.21852C1.08333 3.21852 1.08333 3.57789 1.13542 3.7081" fill="#D72333"/>
</g>
</svg>
