<svg width="29" height="10" viewBox="0 0 29 10" fill="none" xmlns="http://www.w3.org/2000/svg">
<mask id="mask0_25_16335" style="mask-type:luminance" maskUnits="userSpaceOnUse" x="0" y="0" width="29" height="10">
<path d="M0 0H28.5885V9.33333H0V0Z" fill="white"/>
</mask>
<g mask="url(#mask0_25_16335)">
<path d="M0 5.25514C0 5.25514 1.47396 5.95305 2.81771 7.4791C4.70313 8.25514 6.07292 8.7968 7.59896 8.6666C8.96875 8.07285 11.1667 7.14576 12.5625 5.09889C14.7083 4.0416 16.8542 2.9791 19.0781 1.99993C21.4792 2.13014 23.1094 2.2291 24.4531 3.23951C25.7708 4.11972 27.0156 5.59368 27.375 5.5416C27.5312 5.30722 27.4792 4.81764 27.4271 4.4791C27.1667 4.32805 27.0885 4.58326 27.0365 4.58326C27.0365 4.58326 27.3229 4.37493 27.401 4.4791C27.5052 4.58326 25.4115 1.99993 23.4948 1.27597C21.6354 1.04159 19.2292 0.760345 17.0625 1.89576C14.8906 2.80201 12.4583 3.83326 10.8542 5.92701C8.53125 7.21868 8.01042 7.50514 7.39062 7.50514C6.79688 7.55722 4.13542 7.89576 2.32292 5.56764C0.203126 4.37493 0.567709 4.53118 0.515625 4.50514C0.515625 4.50514 0.229167 4.24993 0.125 4.22389C0.0260413 4.22389 0.026042 4.58326 0.0729167 4.71347" fill="#D72333"/>
</g>
</svg>
