<svg width="6" height="14" viewBox="0 0 6 14" fill="none" xmlns="http://www.w3.org/2000/svg">
<mask id="mask0_25_11234" style="mask-type:luminance" maskUnits="userSpaceOnUse" x="0" y="0" width="6" height="14">
<path d="M0 0H5.33333V13.3281H0V0Z" fill="white"/>
</mask>
<g mask="url(#mask0_25_11234)">
<path d="M3.99886 1.45036C3.99886 1.34098 4.05094 1.28369 4.16553 1.28369H4.95719C5.06657 1.28369 5.12386 1.34098 5.12386 1.45036V9.05452C5.12386 10.1795 4.85824 11.0337 4.33219 11.617C3.81657 12.2004 2.95719 12.4608 1.74886 12.4087C1.63428 12.3931 1.58219 12.3358 1.58219 12.242V11.5545C1.58219 11.4556 1.63428 11.4087 1.74886 11.4087C2.58219 11.4191 3.16553 11.2264 3.49886 10.8254C3.83219 10.4191 3.99886 9.80453 3.99886 8.97119V8.49202C3.99886 8.48161 3.98844 8.46598 3.97803 8.45036C3.9624 8.43994 3.94157 8.44515 3.91553 8.47119C3.74886 8.73682 3.5249 8.93994 3.24886 9.07536C2.96761 9.20036 2.67074 9.26286 2.35303 9.26286C1.69678 9.26286 1.17594 9.04932 0.790527 8.61702C0.415527 8.17432 0.228027 7.59098 0.228027 6.86702V3.55452C0.228027 2.82015 0.415527 2.23682 0.790527 1.80452C1.17594 1.37744 1.69678 1.15869 2.35303 1.15869C2.67074 1.15869 2.96761 1.23161 3.24886 1.36702C3.5249 1.49202 3.74886 1.68994 3.91553 1.95036C3.94157 1.98161 3.9624 1.99202 3.97803 1.99202C3.98844 1.98161 3.99886 1.96078 3.99886 1.92952V1.45036ZM2.68636 8.30452C3.07178 8.30452 3.38428 8.16911 3.62386 7.88786C3.87386 7.61182 3.99886 7.25244 3.99886 6.80452V3.63786C3.99886 3.19515 3.87386 2.83578 3.62386 2.55452C3.38428 2.27848 3.07178 2.13786 2.68636 2.13786C2.28011 2.13786 1.95719 2.27848 1.70719 2.55452C1.45719 2.83578 1.33219 3.19515 1.33219 3.63786V6.80452C1.33219 7.25244 1.45719 7.61182 1.70719 7.88786C1.95719 8.16911 2.28011 8.30452 2.68636 8.30452Z" fill="#D72333"/>
</g>
</svg>
