<svg width="28" height="8" viewBox="0 0 28 8" fill="none" xmlns="http://www.w3.org/2000/svg">
<mask id="mask0_25_16073" style="mask-type:luminance" maskUnits="userSpaceOnUse" x="0" y="0" width="28" height="8">
<path d="M0 0H27.901V8H0V0Z" fill="white"/>
</mask>
<g mask="url(#mask0_25_16073)">
<path d="M0.0678711 4.24977C0.0678711 4.24977 1.54183 4.94768 2.88558 6.47372C4.77621 7.24977 6.146 7.79143 7.67204 7.66122C9.04183 7.06747 11.2397 6.11435 12.6356 4.09352C14.7814 3.03622 16.9272 1.97372 19.146 0.994557C21.5522 1.12477 23.1825 1.22372 24.5262 2.23414C25.8439 3.11435 27.0835 4.58831 27.4481 4.53622C27.6043 4.30185 27.5522 3.81227 27.5002 3.47372C27.2397 3.31747 27.1616 3.57789 27.1356 3.57789C27.1356 3.57789 27.422 3.36956 27.5002 3.47372C27.6043 3.57789 25.5106 0.994557 23.5939 0.270599C21.7345 0.036224 19.3283 -0.245027 17.1564 0.89039C14.9845 1.79664 12.5575 2.82789 10.9533 4.92164C8.62516 6.21331 8.10954 6.49977 7.48975 6.49977C6.896 6.55185 4.22933 6.88518 2.42204 4.56227C0.302246 3.36956 0.666829 3.52581 0.614746 3.49977C0.614746 3.49977 0.328288 3.24456 0.224121 3.21852C0.119954 3.21852 0.119955 3.57789 0.172038 3.7081" fill="#D72333"/>
</g>
</svg>
