<svg width="11" height="11" viewBox="0 0 11 11" fill="none" xmlns="http://www.w3.org/2000/svg">
<mask id="mask0_24_1451" style="mask-type:luminance" maskUnits="userSpaceOnUse" x="0" y="0" width="11" height="11">
<path d="M0 0H10.6667V10.4688H0V0Z" fill="white"/>
</mask>
<g mask="url(#mask0_24_1451)">
<path d="M4.82314 0.0470466C7.47938 0.0314226 9.26064 1.08351 9.95855 2.92726C10.6565 4.77101 10.0992 6.84913 8.53147 8.30746C8.18772 8.63559 7.8023 8.90121 7.37001 9.09392C6.93251 9.28663 6.47939 9.39601 6.00543 9.42726C5.53147 9.45851 5.06272 9.40642 4.60959 9.27101C4.15126 9.1408 3.73459 8.93246 3.35439 8.64601C3.05751 8.42725 2.75543 8.22413 2.43772 8.04184C0.625219 7.05746 -0.197698 5.62517 0.0470936 3.84913C0.323136 1.88038 1.62001 0.552255 3.64605 0.151213C4.03668 0.0939213 4.43251 0.0574639 4.82314 0.0470466Z" fill="#D72333"/>
</g>
</svg>
