<svg width="28" height="10" viewBox="0 0 28 10" fill="none" xmlns="http://www.w3.org/2000/svg">
<mask id="mask0_25_16055" style="mask-type:luminance" maskUnits="userSpaceOnUse" x="0" y="0" width="28" height="10">
<path d="M0 0H27.6823V9.33333H0V0Z" fill="white"/>
</mask>
<g mask="url(#mask0_25_16055)">
<path d="M0.130371 5.04147C0.130371 5.04147 1.60433 5.73939 2.94808 7.26543C4.8335 8.04147 6.20329 8.58314 7.72933 8.45293C9.09912 7.85918 11.297 6.90085 12.6929 4.88522C14.8387 3.82793 16.9845 2.76543 19.2085 1.78626C21.6147 1.91126 23.2397 2.01543 24.5835 3.02585C25.9064 3.90606 27.146 5.3748 27.5054 5.32793C27.6616 5.09355 27.6095 4.60397 27.5575 4.26543C27.3022 4.10918 27.2241 4.3696 27.1981 4.3696C27.1981 4.3696 27.4793 4.16126 27.5575 4.26543C27.6616 4.3696 25.5679 1.78626 23.6564 1.0623C21.7918 0.827929 19.3908 0.541471 17.2189 1.6821C15.047 2.58314 12.6147 3.6196 11.0106 5.71335C8.68766 7.00501 8.17204 7.29147 7.54704 7.29147C6.95329 7.34355 4.29183 7.67689 2.48454 5.34876C0.364746 4.16126 0.72412 4.31751 0.672038 4.29147C0.672038 4.29147 0.385579 4.03106 0.28662 4.00501C0.182454 4.00501 0.182454 4.3696 0.234536 4.4998" fill="#D72333"/>
</g>
</svg>
