<svg width="114" height="8" viewBox="0 0 114 8" fill="none" xmlns="http://www.w3.org/2000/svg">
<mask id="mask0_24_6570" style="mask-type:luminance" maskUnits="userSpaceOnUse" x="0" y="0" width="114" height="8">
<path d="M0 0H113.719V7.98438H0V0Z" fill="white"/>
</mask>
<g mask="url(#mask0_24_6570)">
<mask id="mask1_24_6570" style="mask-type:luminance" maskUnits="userSpaceOnUse" x="0" y="-1" width="115" height="11">
<path d="M114.667 -0.265625H0V9.06771H114.667V-0.265625Z" fill="white"/>
</mask>
<g mask="url(#mask1_24_6570)">
<mask id="mask2_24_6570" style="mask-type:luminance" maskUnits="userSpaceOnUse" x="0" y="0" width="114" height="8">
<path d="M0.234375 0.140625H113.719V7.98437H0.234375V0.140625Z" fill="white"/>
</mask>
<g mask="url(#mask2_24_6570)">
<path d="M26.6408 0L21.5731 4.59896L16.4897 0L11.4168 4.59896L6.34912 0L0.395996 5.39062L2.1512 7.33333L6.34912 3.54687L11.4168 8.125L16.4897 3.54687L21.5731 8.125L26.6408 3.54687L31.7137 8.125L36.7814 3.54687L41.87 8.125L46.9377 3.54687L52.0054 8.125L57.0939 3.54687L62.1616 8.125L67.2293 3.54687L72.297 8.125L77.3856 3.54687L82.4533 8.125L87.521 3.54687L92.6095 8.125L97.6772 3.54687L102.745 8.125L107.833 3.54687L112.016 7.33333L113.766 5.39062L107.833 0L102.745 4.59896L97.6772 0L92.6095 4.59896L87.521 0L82.4533 4.59896L77.3856 0L72.297 4.59896L67.2293 0L62.1616 4.59896L57.0939 0L52.0054 4.59896L46.9377 0L41.87 4.59896L36.7814 0L31.7137 4.59896L26.6408 0Z" fill="#D72333"/>
</g>
</g>
</g>
</svg>
