<svg width="114" height="8" viewBox="0 0 114 8" fill="none" xmlns="http://www.w3.org/2000/svg">
<mask id="mask0_24_6585" style="mask-type:luminance" maskUnits="userSpaceOnUse" x="0" y="0" width="114" height="8">
<path d="M0 0H113.719V7.97917H0V0Z" fill="white"/>
</mask>
<g mask="url(#mask0_24_6585)">
<path d="M26.6408 8.11979L21.5731 3.52604L16.4897 8.11979L11.4168 3.52604L6.34912 8.11979L0.395996 2.73438L2.1512 0.791667L6.34912 4.57812L11.4168 0L16.4897 4.57812L21.5731 0L26.6408 4.57812L31.7137 0L36.7814 4.57812L41.8647 0L46.9377 4.57812L52.0054 0L57.0939 4.57812L62.1616 0L67.2293 4.57812L72.297 0L77.3856 4.57812L82.4533 0L87.521 4.57812L92.6095 0L97.6772 4.57812L102.745 0L107.833 4.57812L112.016 0.791667L113.766 2.73438L107.833 8.11979L102.745 3.52604L97.6772 8.11979L92.6095 3.52604L87.521 8.11979L82.4533 3.52604L77.3856 8.11979L72.297 3.52604L67.2293 8.11979L62.1616 3.52604L57.0939 8.11979L52.0054 3.52604L46.9377 8.11979L41.8647 3.52604L36.7814 8.11979L31.7137 3.52604L26.6408 8.11979Z" fill="#D72333"/>
</g>
</svg>
