<svg width="109" height="8" viewBox="0 0 109 8" fill="none" xmlns="http://www.w3.org/2000/svg">
<mask id="mask0_25_12005" style="mask-type:luminance" maskUnits="userSpaceOnUse" x="0" y="0" width="109" height="8">
<path d="M0 0H108.734V7.97917H0V0Z" fill="white"/>
</mask>
<g mask="url(#mask0_25_12005)">
<mask id="mask1_25_12005" style="mask-type:luminance" maskUnits="userSpaceOnUse" x="-1" y="-1" width="111" height="11">
<path d="M109.724 -0.265625H-0.942871V9.06771H109.724V-0.265625Z" fill="white"/>
</mask>
<g mask="url(#mask1_25_12005)">
<mask id="mask2_25_12005" style="mask-type:luminance" maskUnits="userSpaceOnUse" x="0" y="0" width="109" height="8">
<path d="M0.239258 0H108.734V7.76042H0.239258V0Z" fill="white"/>
</mask>
<g mask="url(#mask2_25_12005)">
<path d="M25.4528 0L20.6091 4.39063L15.7445 0L10.9007 4.39063L6.05697 0L0.364258 5.15104L2.03613 7.00521L6.05697 3.38542L10.9007 7.76042L15.7445 3.38542L20.6091 7.76042L25.4528 3.38542L30.2966 7.76042L35.1403 3.38542L40.0049 7.76042L44.8486 3.38542L49.6924 7.76042L54.557 3.38542L59.4007 7.76042L64.2445 3.38542L69.0882 7.76042L73.9528 3.38542L78.7966 7.76042L83.6403 3.38542L88.5049 7.76042L93.3486 3.38542L98.1924 7.76042L103.057 3.38542L107.052 7.00521L108.729 5.15104L103.057 0L98.1924 4.39063L93.3486 0L88.5049 4.39063L83.6403 0L78.7966 4.39063L73.9528 0L69.0882 4.39063L64.2445 0L59.4007 4.39063L54.557 0L49.6924 4.39063L44.8486 0L40.0049 4.39063L35.1403 0L30.2966 4.39063L25.4528 0Z" fill="#D51224"/>
</g>
</g>
</g>
</svg>
