<svg width="7" height="14" viewBox="0 0 7 14" fill="none" xmlns="http://www.w3.org/2000/svg">
<mask id="mask0_25_8571" style="mask-type:luminance" maskUnits="userSpaceOnUse" x="0" y="0" width="7" height="14">
<path d="M0 0H6.5625V13.3333H0V0Z" fill="white"/>
</mask>
<g mask="url(#mask0_25_8571)">
<path d="M5.16471 1.42171C5.16471 1.32796 5.21159 1.27588 5.31055 1.27588H6.12305C6.2168 1.27588 6.26888 1.32796 6.26888 1.42171V12.0884C6.26888 12.203 6.2168 12.255 6.12305 12.255H5.31055C5.21159 12.255 5.16471 12.203 5.16471 12.0884V7.31755C5.16471 7.27588 5.14388 7.25505 5.10221 7.25505H2.31055C2.26888 7.25505 2.24805 7.27588 2.24805 7.31755V12.0884C2.24805 12.203 2.19075 12.255 2.08138 12.255H1.28971C1.17513 12.255 1.12305 12.203 1.12305 12.0884V1.42171C1.12305 1.32796 1.17513 1.27588 1.28971 1.27588H2.08138C2.19075 1.27588 2.24805 1.32796 2.24805 1.42171V6.19255C2.24805 6.23421 2.26888 6.25505 2.31055 6.25505H5.10221C5.14388 6.25505 5.16471 6.23421 5.16471 6.19255V1.42171Z" fill="#D72333"/>
</g>
</svg>
