<svg width="228" height="19" viewBox="0 0 228 19" fill="none" xmlns="http://www.w3.org/2000/svg">
<mask id="mask0_25_16655" style="mask-type:luminance" maskUnits="userSpaceOnUse" x="0" y="0" width="228" height="19">
<path d="M0 0H227.849V18.651H0V0Z" fill="white"/>
</mask>
<g mask="url(#mask0_25_16655)">
<mask id="mask1_25_16655" style="mask-type:luminance" maskUnits="userSpaceOnUse" x="0" y="0" width="228" height="19">
<path d="M9.32812 0H218.464C220.938 0 223.312 0.979167 225.062 2.72917C226.807 4.47917 227.792 6.84896 227.792 9.32292C227.792 11.7969 226.807 14.1719 225.062 15.9219C223.312 17.6667 220.938 18.651 218.464 18.651H9.32812C6.85417 18.651 4.47917 17.6667 2.73438 15.9219C0.984375 14.1719 0 11.7969 0 9.32292C0 6.84896 0.984375 4.47917 2.73438 2.72917C4.47917 0.979167 6.85417 0 9.32812 0Z" fill="white"/>
</mask>
<g mask="url(#mask1_25_16655)">
<mask id="mask2_25_16655" style="mask-type:luminance" maskUnits="userSpaceOnUse" x="-2" y="-1" width="231" height="21">
<path d="M228.161 -0.697754H-1.17188V19.3022H228.161V-0.697754Z" fill="white"/>
</mask>
<g mask="url(#mask2_25_16655)">
<mask id="mask3_25_16655" style="mask-type:luminance" maskUnits="userSpaceOnUse" x="0" y="0" width="228" height="19">
<path d="M0 0H227.849V18.651H0V0Z" fill="white"/>
</mask>
<g mask="url(#mask3_25_16655)">
<mask id="mask4_25_16655" style="mask-type:luminance" maskUnits="userSpaceOnUse" x="0" y="0" width="228" height="19">
<path d="M9.32812 0H218.464C220.938 0 223.312 0.979165 225.062 2.72917C226.807 4.47917 227.792 6.84896 227.792 9.32292C227.792 11.7969 226.807 14.1719 225.062 15.9219C223.312 17.6667 220.938 18.651 218.464 18.651H9.32812C6.85417 18.651 4.47917 17.6667 2.73438 15.9219C0.984376 14.1719 0 11.7969 0 9.32292C0 6.84896 0.984376 4.47917 2.73438 2.72917C4.47917 0.979165 6.85417 0 9.32812 0Z" fill="white"/>
</mask>
<g mask="url(#mask4_25_16655)">
<path d="M0 0H227.776V18.651H0V0Z" fill="#D72333"/>
</g>
</g>
</g>
</g>
</g>
</svg>
