<svg width="17" height="20" viewBox="0 0 17 20" fill="none" xmlns="http://www.w3.org/2000/svg">
<mask id="mask0_25_10715" style="mask-type:luminance" maskUnits="userSpaceOnUse" x="0" y="0" width="17" height="20">
<path d="M0 0H16.1823V19.2917H0V0Z" fill="white"/>
</mask>
<g mask="url(#mask0_25_10715)">
<mask id="mask1_25_10715" style="mask-type:luminance" maskUnits="userSpaceOnUse" x="0" y="-1" width="18" height="21">
<path d="M17.3333 -0.708496H0V19.2915H17.3333V-0.708496Z" fill="white"/>
</mask>
<g mask="url(#mask1_25_10715)">
<path d="M6.66471 9.49365C6.75846 9.88428 6.81055 10.3895 6.81055 11.0145C6.81055 11.4728 6.7793 11.9051 6.72721 12.3062C6.61263 13.0145 6.35221 13.5562 5.93555 13.9312C5.5293 14.2957 4.98763 14.4728 4.31055 14.4728C3.62825 14.4728 3.08138 14.2957 2.66471 13.9312C2.24805 13.5562 1.98242 13.0093 1.87305 12.2853L1.83138 11.8062V11.7853C1.83138 11.6916 1.87305 11.6395 1.95638 11.6395H2.76888C2.86263 11.6395 2.91992 11.6968 2.93555 11.8062L2.97721 12.1812C3.14388 13.0562 3.58659 13.4937 4.31055 13.4937C4.64388 13.4937 4.91471 13.3895 5.12305 13.1812C5.3418 12.9624 5.49805 12.6499 5.58138 12.2437C5.66471 11.9103 5.70638 11.4937 5.70638 10.9937C5.70638 10.4676 5.6543 10.0145 5.56055 9.63949C5.36263 8.90511 4.94596 8.53532 4.31055 8.53532C3.58659 8.53532 3.13346 8.8999 2.95638 9.61865C2.92513 9.71761 2.87305 9.76449 2.78971 9.76449H1.95638C1.85742 9.76449 1.81055 9.71761 1.81055 9.61865V3.51449C1.81055 3.42074 1.85742 3.36865 1.95638 3.36865H6.41471C6.50846 3.36865 6.56055 3.42074 6.56055 3.51449V4.18115C6.56055 4.29574 6.50846 4.34782 6.41471 4.34782H2.97721C2.93555 4.34782 2.91471 4.36865 2.91471 4.41032V8.28532C2.91471 8.31657 2.91992 8.3374 2.93555 8.34782C2.94596 8.34782 2.96159 8.34261 2.97721 8.32699C3.14388 8.07699 3.36263 7.88949 3.64388 7.76449C3.91992 7.62907 4.23242 7.55615 4.58138 7.55615C5.13346 7.55615 5.58659 7.72282 5.93555 8.05615C6.29492 8.38949 6.53971 8.86865 6.66471 9.49365Z" fill="#D72333"/>
<path d="M8.89062 14.327C8.625 14.327 8.41146 14.2437 8.24479 14.077C8.08854 13.9103 8.01562 13.702 8.01562 13.452C8.01562 13.1916 8.08854 12.9728 8.24479 12.8062C8.41146 12.6395 8.625 12.5562 8.89062 12.5562C9.14062 12.5562 9.34896 12.6395 9.51562 12.8062C9.68229 12.9728 9.76562 13.1916 9.76562 13.452C9.76562 13.702 9.68229 13.9103 9.51562 14.077C9.34896 14.2437 9.14062 14.327 8.89062 14.327Z" fill="#D72333"/>
<path d="M12.1195 14.3478C12.0622 14.3478 12.0205 14.3374 11.9945 14.3062C11.9632 14.2645 11.958 14.2228 11.9736 14.1812L14.6611 4.41032C14.6611 4.3999 14.6507 4.38428 14.6403 4.36865C14.6247 4.35824 14.6091 4.34782 14.5986 4.34782H11.7236C11.682 4.34782 11.6611 4.36865 11.6611 4.41032V5.03532C11.6611 5.1499 11.6038 5.20199 11.4945 5.20199H10.8903C10.7757 5.20199 10.7236 5.1499 10.7236 5.03532V3.51449C10.7236 3.42074 10.7757 3.36865 10.8903 3.36865H15.682C15.7913 3.36865 15.8486 3.42074 15.8486 3.51449V4.24365C15.8486 4.2749 15.833 4.3374 15.807 4.43115L13.1403 14.202C13.1247 14.3009 13.0674 14.3478 12.9736 14.3478H12.1195Z" fill="#D72333"/>
</g>
</g>
</svg>
