<svg width="7" height="14" viewBox="0 0 7 14" fill="none" xmlns="http://www.w3.org/2000/svg">
<mask id="mask0_25_10059" style="mask-type:luminance" maskUnits="userSpaceOnUse" x="0" y="0" width="7" height="14">
<path d="M0 0H6.5625V13.3333H0V0Z" fill="white"/>
</mask>
<g mask="url(#mask0_25_10059)">
<path d="M5.68571 7.4209C5.77946 7.81152 5.83154 8.31673 5.83154 8.94173C5.83154 9.40007 5.80029 9.83236 5.74821 10.2334C5.63363 10.9417 5.37321 11.4834 4.95654 11.8584C4.55029 12.223 4.00863 12.4001 3.33154 12.4001C2.64925 12.4001 2.10238 12.223 1.68571 11.8584C1.26904 11.4834 1.00342 10.9365 0.894043 10.2126L0.852376 9.7334V9.71257C0.852376 9.61881 0.894043 9.56673 0.977376 9.56673H1.78988C1.88363 9.56673 1.94092 9.62402 1.95654 9.7334L1.99821 10.1084C2.16488 10.9834 2.60758 11.4209 3.33154 11.4209C3.66488 11.4209 3.93571 11.3167 4.14404 11.1084C4.36279 10.8896 4.51904 10.5771 4.60238 10.1709C4.68571 9.83757 4.72738 9.4209 4.72738 8.9209C4.72738 8.39486 4.67529 7.94173 4.58154 7.56673C4.38363 6.83236 3.96696 6.46257 3.33154 6.46257C2.60758 6.46257 2.15446 6.82715 1.97738 7.5459C1.94613 7.64486 1.89404 7.69173 1.81071 7.69173H0.977376C0.878418 7.69173 0.831543 7.64486 0.831543 7.5459V1.44173C0.831543 1.34798 0.878418 1.2959 0.977376 1.2959H5.43571C5.52946 1.2959 5.58154 1.34798 5.58154 1.44173V2.1084C5.58154 2.22298 5.52946 2.27507 5.43571 2.27507H1.99821C1.95654 2.27507 1.93571 2.2959 1.93571 2.33757V6.21257C1.93571 6.24381 1.94092 6.26465 1.95654 6.27507C1.96696 6.27507 1.98258 6.26986 1.99821 6.25423C2.16488 6.00423 2.38363 5.81673 2.66488 5.69173C2.94092 5.55632 3.25342 5.4834 3.60238 5.4834C4.15446 5.4834 4.60758 5.65007 4.95654 5.9834C5.31592 6.31673 5.56071 6.7959 5.68571 7.4209Z" fill="#D72333"/>
</g>
</svg>
