<svg width="28" height="10" viewBox="0 0 28 10" fill="none" xmlns="http://www.w3.org/2000/svg">
<mask id="mask0_25_16130" style="mask-type:luminance" maskUnits="userSpaceOnUse" x="0" y="0" width="28" height="10">
<path d="M0 0H27.9583V9.33333H0V0Z" fill="white"/>
</mask>
<g mask="url(#mask0_25_16130)">
<path d="M0.0258789 5.43747C0.0258789 5.43747 1.49984 6.13538 2.84359 7.66143C4.729 8.43747 6.0988 8.97913 7.62484 8.84893C8.99463 8.25517 11.1925 7.32288 12.5884 5.28122C14.7342 4.22393 16.88 3.16143 19.104 2.17705C21.505 2.30726 23.1353 2.41143 24.479 3.42184C25.7967 4.29684 27.0415 5.7708 27.4009 5.71872C27.5571 5.48955 27.505 4.99997 27.453 4.66143C27.1925 4.50517 27.1144 4.76559 27.0675 4.76559C27.0675 4.76559 27.3488 4.55726 27.4269 4.66143C27.5311 4.76559 25.4373 2.17705 23.5207 1.4583C21.6613 1.22393 19.255 0.937467 17.0884 2.07809C14.9165 2.97913 12.4842 4.01559 10.88 6.10934C8.55713 7.40101 8.0363 7.68747 7.4165 7.68747C6.82275 7.73955 4.1613 8.07288 2.3488 5.74476C0.229004 4.55726 0.593587 4.71351 0.541504 4.68747C0.541504 4.68747 0.255046 4.42705 0.150879 4.40101C0.0519202 4.40101 0.0519196 4.76559 0.0987956 4.8958" fill="#D72333"/>
</g>
</svg>
