<svg width="16" height="19" viewBox="0 0 16 19" fill="none" xmlns="http://www.w3.org/2000/svg">
<mask id="mask0_25_10016" style="mask-type:luminance" maskUnits="userSpaceOnUse" x="0" y="0" width="16" height="19">
<path d="M0 0H15.8438V18.8802H0V0Z" fill="white"/>
</mask>
<g mask="url(#mask0_25_10016)">
<mask id="mask1_25_10016" style="mask-type:luminance" maskUnits="userSpaceOnUse" x="0" y="-2" width="16" height="21">
<path d="M16 -1.11963H0V18.8804H16V-1.11963Z" fill="white"/>
</mask>
<g mask="url(#mask1_25_10016)">
<path d="M2.83626 14.3468C2.77897 14.3468 2.7373 14.3364 2.71126 14.3052C2.68001 14.2635 2.6748 14.2218 2.69043 14.1802L5.37793 4.40934C5.37793 4.39893 5.36751 4.3833 5.3571 4.36768C5.34147 4.35726 5.32585 4.34684 5.31543 4.34684H2.44043C2.39876 4.34684 2.37793 4.36768 2.37793 4.40934V5.03434C2.37793 5.14893 2.32064 5.20101 2.21126 5.20101H1.6071C1.49251 5.20101 1.44043 5.14893 1.44043 5.03434V3.51351C1.44043 3.41976 1.49251 3.36768 1.6071 3.36768H6.39876C6.50814 3.36768 6.56543 3.41976 6.56543 3.51351V4.24268C6.56543 4.27393 6.5498 4.33643 6.52376 4.43018L3.8571 14.201C3.84147 14.3 3.78418 14.3468 3.69043 14.3468H2.83626Z" fill="#D72333"/>
<path d="M8.3252 14.326C8.05957 14.326 7.84603 14.2427 7.67936 14.076C7.52311 13.9093 7.4502 13.701 7.4502 13.451C7.4502 13.1906 7.52311 12.9718 7.67936 12.8052C7.84603 12.6385 8.05957 12.5552 8.3252 12.5552C8.5752 12.5552 8.78353 12.6385 8.9502 12.8052C9.11686 12.9718 9.2002 13.1906 9.2002 13.451C9.2002 13.701 9.11686 13.9093 8.9502 14.076C8.78353 14.2427 8.5752 14.326 8.3252 14.326Z" fill="#D72333"/>
<mask id="mask2_25_10016" style="mask-type:luminance" maskUnits="userSpaceOnUse" x="9" y="2" width="7" height="13">
<path d="M9.3335 2.88037H15.8439V14.8804H9.3335V2.88037Z" fill="white"/>
</mask>
<g mask="url(#mask2_25_10016)">
<path d="M11.7837 13.3052C11.7681 13.3208 11.7681 13.3364 11.7837 13.3468C11.7941 13.3625 11.8097 13.3677 11.8254 13.3677H15.5129C15.6222 13.3677 15.6795 13.425 15.6795 13.5343V14.1802C15.6795 14.2948 15.6222 14.3468 15.5129 14.3468H10.5962C10.4816 14.3468 10.4295 14.2948 10.4295 14.1802V13.4927C10.4295 13.4093 10.4504 13.3416 10.492 13.2843C10.8097 12.7739 10.992 12.4823 11.0337 12.4093C11.9608 10.951 12.6899 9.76351 13.2212 8.84684C13.8879 7.71143 14.2212 6.7583 14.2212 5.99268C14.2212 5.45101 14.0962 5.02393 13.8462 4.70101C13.5962 4.3833 13.2681 4.22184 12.867 4.22184C12.4608 4.22184 12.1379 4.3833 11.8879 4.70101C11.6483 5.0083 11.5389 5.42497 11.5545 5.95101V6.55518C11.5545 6.65413 11.4972 6.70101 11.3879 6.70101H10.5754C10.4608 6.70101 10.4087 6.65413 10.4087 6.55518V5.93018C10.4347 5.12809 10.6691 4.48226 11.117 3.99268C11.5754 3.49268 12.1691 3.24268 12.9087 3.24268C13.6431 3.24268 14.2316 3.50309 14.6795 4.01351C15.1379 4.51351 15.367 5.17497 15.367 5.99268C15.367 6.98226 14.992 8.09163 14.242 9.32601C13.867 9.96663 13.3358 10.826 12.6587 11.9093L11.7837 13.3052Z" fill="#D72333"/>
</g>
</g>
</g>
</svg>
