<svg width="5" height="8" viewBox="0 0 5 8" fill="none" xmlns="http://www.w3.org/2000/svg">
<mask id="mask0_24_5375" style="mask-type:luminance" maskUnits="userSpaceOnUse" x="0" y="0" width="5" height="8">
<path d="M0 0H4.35417V8H0V0Z" fill="white"/>
</mask>
<g mask="url(#mask0_24_5375)">
<path d="M3.08382 7.29948C3.02653 7.29948 2.99007 7.27344 2.97966 7.21615L2.75049 6.07031C2.75049 6.07031 2.74007 6.07031 2.72966 6.07031C2.72966 6.0599 2.71924 6.04948 2.70882 6.04948H1.04216C1.02653 6.04948 1.0109 6.0599 1.00049 6.07031L0.771322 7.21615C0.771322 7.27344 0.734863 7.29948 0.667155 7.29948H0.208822C0.167155 7.29948 0.135904 7.29427 0.125488 7.27865C0.109863 7.2526 0.109863 7.22656 0.125488 7.19531L1.50049 0.966146C1.5109 0.914063 1.54736 0.882812 1.60466 0.882812H2.14632C2.19841 0.882812 2.23486 0.914063 2.25049 0.966146L3.64632 7.19531V7.21615C3.64632 7.27344 3.61507 7.29948 3.56299 7.29948H3.08382ZM1.12549 5.46615C1.12549 5.4974 1.1307 5.50781 1.14632 5.50781H2.60466C2.61507 5.50781 2.62549 5.4974 2.62549 5.46615L1.89632 1.88281C1.8807 1.85677 1.86507 1.84115 1.85466 1.84115C1.85466 1.84115 1.85466 1.85677 1.85466 1.88281L1.12549 5.46615Z" fill="#D72333"/>
</g>
</svg>
