<svg width="17" height="20" viewBox="0 0 17 20" fill="none" xmlns="http://www.w3.org/2000/svg">
<mask id="mask0_25_11029" style="mask-type:luminance" maskUnits="userSpaceOnUse" x="0" y="0" width="17" height="20">
<path d="M0 0H16.1823V20H0V0Z" fill="white"/>
</mask>
<g mask="url(#mask0_25_11029)">
<mask id="mask1_25_11029" style="mask-type:luminance" maskUnits="userSpaceOnUse" x="0" y="0" width="18" height="20">
<path d="M17.3333 0H0V20H17.3333V0Z" fill="white"/>
</mask>
<g mask="url(#mask1_25_11029)">
<path d="M6.66471 10.3232C6.75846 10.7139 6.81055 11.2191 6.81055 11.8441C6.81055 12.3024 6.7793 12.7347 6.72721 13.1357C6.61263 13.8441 6.35221 14.3857 5.93555 14.7607C5.5293 15.1253 4.98763 15.3024 4.31055 15.3024C3.62825 15.3024 3.08138 15.1253 2.66471 14.7607C2.24805 14.3857 1.98242 13.8389 1.87305 13.1149L1.83138 12.6357V12.6149C1.83138 12.5212 1.87305 12.4691 1.95638 12.4691H2.76888C2.86263 12.4691 2.91992 12.5264 2.93555 12.6357L2.97721 13.0107C3.14388 13.8857 3.58659 14.3232 4.31055 14.3232C4.64388 14.3232 4.91471 14.2191 5.12305 14.0107C5.3418 13.792 5.49805 13.4795 5.58138 13.0732C5.66471 12.7399 5.70638 12.3232 5.70638 11.8232C5.70638 11.2972 5.6543 10.8441 5.56055 10.4691C5.36263 9.7347 4.94596 9.36491 4.31055 9.36491C3.58659 9.36491 3.13346 9.72949 2.95638 10.4482C2.92513 10.5472 2.87305 10.5941 2.78971 10.5941H1.95638C1.85742 10.5941 1.81055 10.5472 1.81055 10.4482V4.34408C1.81055 4.25033 1.85742 4.19824 1.95638 4.19824H6.41471C6.50846 4.19824 6.56055 4.25033 6.56055 4.34408V5.01074C6.56055 5.12533 6.50846 5.17741 6.41471 5.17741H2.97721C2.93555 5.17741 2.91471 5.19824 2.91471 5.23991V9.11491C2.91471 9.14616 2.91992 9.16699 2.93555 9.17741C2.94596 9.17741 2.96159 9.1722 2.97721 9.15658C3.14388 8.90658 3.36263 8.71908 3.64388 8.59408C3.91992 8.45866 4.23242 8.38574 4.58138 8.38574C5.13346 8.38574 5.58659 8.55241 5.93555 8.88574C6.29492 9.21908 6.53971 9.69824 6.66471 10.3232Z" fill="#D72333"/>
<path d="M8.89062 15.1566C8.625 15.1566 8.41146 15.0732 8.24479 14.9066C8.08854 14.7399 8.01562 14.5316 8.01562 14.2816C8.01562 14.0212 8.08854 13.8024 8.24479 13.6357C8.41146 13.4691 8.625 13.3857 8.89062 13.3857C9.14062 13.3857 9.34896 13.4691 9.51562 13.6357C9.68229 13.8024 9.76562 14.0212 9.76562 14.2816C9.76562 14.5316 9.68229 14.7399 9.51562 14.9066C9.34896 15.0732 9.14062 15.1566 8.89062 15.1566Z" fill="#D72333"/>
<path d="M12.1195 15.1774C12.0622 15.1774 12.0205 15.167 11.9945 15.1357C11.9632 15.0941 11.958 15.0524 11.9736 15.0107L14.6611 5.23991C14.6611 5.22949 14.6507 5.21387 14.6403 5.19824C14.6247 5.18782 14.6091 5.17741 14.5986 5.17741H11.7236C11.682 5.17741 11.6611 5.19824 11.6611 5.23991V5.86491C11.6611 5.97949 11.6038 6.03158 11.4945 6.03158H10.8903C10.7757 6.03158 10.7236 5.97949 10.7236 5.86491V4.34408C10.7236 4.25033 10.7757 4.19824 10.8903 4.19824H15.682C15.7913 4.19824 15.8486 4.25033 15.8486 4.34408V5.07324C15.8486 5.10449 15.833 5.16699 15.807 5.26074L13.1403 15.0316C13.1247 15.1305 13.0674 15.1774 12.9736 15.1774H12.1195Z" fill="#D72333"/>
</g>
</g>
</svg>
