<svg width="28" height="10" viewBox="0 0 28 10" fill="none" xmlns="http://www.w3.org/2000/svg">
<mask id="mask0_25_16063" style="mask-type:luminance" maskUnits="userSpaceOnUse" x="0" y="0" width="28" height="10">
<path d="M0 0H27.901V9.33333H0V0Z" fill="white"/>
</mask>
<g mask="url(#mask0_25_16063)">
<path d="M0.015625 5.03122C0.015625 5.03122 1.48958 5.72913 2.83333 7.25517C4.72396 8.03122 6.09375 8.57288 7.61979 8.44267C8.98958 7.84893 11.1875 6.89059 12.5833 4.87497C14.7292 3.81767 16.875 2.75517 19.099 1.77601C21.5 1.90101 23.1302 2.00517 24.474 3.01559C25.7917 3.8958 27.0313 5.36976 27.3958 5.31768C27.5521 5.0833 27.5 4.59372 27.4479 4.25518C27.1875 4.09893 27.1094 4.35934 27.0573 4.35934C27.0573 4.35934 27.3438 4.15101 27.4219 4.25518C27.526 4.35934 25.4323 1.77601 23.5156 1.05205C21.6563 0.817675 19.25 0.531217 17.0781 1.67184C14.9063 2.57288 12.4792 3.60934 10.875 5.70309C8.54688 6.99476 8.03125 7.28122 7.41146 7.28122C6.81771 7.3333 4.15625 7.66663 2.34375 5.34372C0.223959 4.15101 0.588541 4.30726 0.536458 4.28122C0.536458 4.28122 0.25 4.0208 0.145833 3.96872C0.0416667 3.96872 0.0416673 4.3333 0.09375 4.46351" fill="#D72333"/>
</g>
</svg>
