<svg width="22" height="22" viewBox="0 0 22 22" fill="none" xmlns="http://www.w3.org/2000/svg">
<mask id="mask0_25_9005" style="mask-type:luminance" maskUnits="userSpaceOnUse" x="0" y="0" width="22" height="22">
<path d="M0 0H21.6406V21.3333H0V0Z" fill="white"/>
</mask>
<g mask="url(#mask0_25_9005)">
<mask id="mask1_25_9005" style="mask-type:luminance" maskUnits="userSpaceOnUse" x="0" y="0" width="23" height="22">
<path d="M22.6667 0H0V21.3333H22.6667V0Z" fill="white"/>
</mask>
<g mask="url(#mask1_25_9005)">
<path d="M3.52718 5.12809C3.59489 5.10205 3.6626 5.08643 3.73551 5.08643H4.58968C4.68343 5.08643 4.73551 5.13851 4.73551 5.23226V15.8989C4.73551 16.0135 4.68343 16.0656 4.58968 16.0656H3.77718C3.67822 16.0656 3.63135 16.0135 3.63135 15.8989V6.39893C3.63135 6.38851 3.62093 6.37288 3.61051 6.35726C3.59489 6.34684 3.57406 6.34684 3.54801 6.35726L2.06885 6.83643L2.02718 6.85726C1.95426 6.85726 1.90739 6.81038 1.88135 6.71143L1.81885 6.12809V6.10726C1.81885 6.05518 1.8501 5.99788 1.92301 5.94059L3.52718 5.12809Z" fill="#D72333"/>
<path d="M10.9995 10.9614C11.1662 11.4927 11.2495 12.0812 11.2495 12.7323C11.2495 13.2896 11.1922 13.7948 11.0828 14.2531C10.7912 15.5448 10.0099 16.1906 8.74951 16.1906C8.09326 16.1906 7.55159 16.0135 7.12451 15.6489C6.70785 15.2739 6.44222 14.7687 6.33285 14.1281C6.27555 13.7531 6.24951 13.3521 6.24951 12.9198C6.24951 12.8104 6.29639 12.7531 6.39535 12.7531H7.20785C7.30159 12.7531 7.35368 12.8104 7.35368 12.9198C7.35368 13.2948 7.38493 13.6385 7.45785 13.9406C7.63493 14.7896 8.06722 15.2114 8.74951 15.2114C9.08285 15.2114 9.35368 15.1177 9.56201 14.9198C9.78076 14.7271 9.94222 14.4406 10.0412 14.0656C10.1245 13.6229 10.1662 13.1489 10.1662 12.6489C10.1662 11.9823 10.1037 11.4354 9.97868 11.0031C9.87972 10.6698 9.71826 10.4198 9.49951 10.2531C9.29118 10.076 9.04118 9.98226 8.74951 9.98226C8.66618 9.98226 8.54639 10.0135 8.39535 10.0656C8.29639 10.1229 8.21826 10.1229 8.16618 10.0656L7.77035 9.62809C7.71305 9.56038 7.70785 9.49268 7.74951 9.41976L9.83285 6.12809C9.84326 6.12809 9.84326 6.12288 9.83285 6.10726C9.83285 6.08122 9.81722 6.06559 9.79118 6.06559H6.47868C6.37972 6.06559 6.33285 6.01351 6.33285 5.89893V5.23226C6.33285 5.13851 6.37972 5.08643 6.47868 5.08643H11.062C11.1714 5.08643 11.2287 5.13851 11.2287 5.23226V5.94059C11.2287 5.99788 11.2078 6.06559 11.1662 6.14893L9.20785 9.19059C9.19222 9.22184 9.18701 9.24268 9.18701 9.25309C9.19743 9.26872 9.21826 9.27393 9.24951 9.27393C9.66618 9.31559 10.0256 9.49268 10.3328 9.79476C10.6349 10.0864 10.8589 10.4771 10.9995 10.9614Z" fill="#D72333"/>
<path d="M13.564 16.0448C13.2983 16.0448 13.0848 15.9614 12.9181 15.7948C12.7619 15.6281 12.689 15.4198 12.689 15.1698C12.689 14.9093 12.7619 14.6906 12.9181 14.5239C13.0848 14.3573 13.2983 14.2739 13.564 14.2739C13.814 14.2739 14.0223 14.3573 14.189 14.5239C14.3556 14.6906 14.439 14.9093 14.439 15.1698C14.439 15.4198 14.3556 15.6281 14.189 15.7948C14.0223 15.9614 13.814 16.0448 13.564 16.0448Z" fill="#D72333"/>
<path d="M20.7306 11.2114C20.8244 11.6021 20.8765 12.1073 20.8765 12.7323C20.8765 13.1906 20.8452 13.6229 20.7931 14.0239C20.6785 14.7323 20.4181 15.2739 20.0015 15.6489C19.5952 16.0135 19.0535 16.1906 18.3765 16.1906C17.6942 16.1906 17.1473 16.0135 16.7306 15.6489C16.314 15.2739 16.0483 14.7271 15.939 14.0031L15.8973 13.5239V13.5031C15.8973 13.4093 15.939 13.3573 16.0223 13.3573H16.8348C16.9285 13.3573 16.9858 13.4146 17.0015 13.5239L17.0431 13.8989C17.2098 14.7739 17.6525 15.2114 18.3765 15.2114C18.7098 15.2114 18.9806 15.1073 19.189 14.8989C19.4077 14.6802 19.564 14.3677 19.6473 13.9614C19.7306 13.6281 19.7723 13.2114 19.7723 12.7114C19.7723 12.1854 19.7202 11.7323 19.6265 11.3573C19.4285 10.6229 19.0119 10.2531 18.3765 10.2531C17.6525 10.2531 17.1994 10.6177 17.0223 11.3364C16.991 11.4354 16.939 11.4823 16.8556 11.4823H16.0223C15.9233 11.4823 15.8765 11.4354 15.8765 11.3364V5.23226C15.8765 5.13851 15.9233 5.08643 16.0223 5.08643H20.4806C20.5744 5.08643 20.6265 5.13851 20.6265 5.23226V5.89893C20.6265 6.01351 20.5744 6.06559 20.4806 6.06559H17.0431C17.0015 6.06559 16.9806 6.08643 16.9806 6.12809V10.0031C16.9806 10.0343 16.9858 10.0552 17.0015 10.0656C17.0119 10.0656 17.0275 10.0604 17.0431 10.0448C17.2098 9.79476 17.4285 9.60726 17.7098 9.48226C17.9858 9.34684 18.2983 9.27393 18.6473 9.27393C19.1994 9.27393 19.6525 9.44059 20.0015 9.77393C20.3608 10.1073 20.6056 10.5864 20.7306 11.2114Z" fill="#D72333"/>
</g>
</g>
</svg>
