<svg width="30" height="10" viewBox="0 0 30 10" fill="none" xmlns="http://www.w3.org/2000/svg">
<mask id="mask0_25_16068" style="mask-type:luminance" maskUnits="userSpaceOnUse" x="0" y="0" width="30" height="10">
<path d="M0 0H29.2344V9.33333H0V0Z" fill="white"/>
</mask>
<g mask="url(#mask0_25_16068)">
<path d="M1.30225 5.43747C1.30225 5.43747 2.771 6.13538 4.11995 7.66143C6.00537 8.43747 7.37516 8.97913 8.9012 8.84893C10.271 8.25517 12.4689 7.32288 13.8647 5.28122C16.0106 4.22393 18.1564 3.16143 20.3804 2.17705C22.7814 2.30726 24.4116 2.41143 25.7554 3.42184C27.0731 4.29684 28.3127 5.7708 28.6772 5.71872C28.8335 5.48955 28.7814 4.99997 28.7293 4.66143C28.4689 4.50517 28.3908 4.76559 28.3387 4.76559C28.3387 4.76559 28.6252 4.55726 28.7033 4.66143C28.8075 4.76559 26.7137 2.17705 24.797 1.4583C22.9377 1.22393 20.5314 0.937467 18.3595 2.07809C16.1929 2.97913 13.7606 4.01559 12.1564 6.10934C9.82829 7.40101 9.31266 7.68747 8.69287 7.68747C8.09912 7.73955 5.43766 8.07288 3.62516 5.74476C1.50537 4.55726 1.86996 4.71351 1.81787 4.68747C1.81787 4.68747 1.53141 4.42705 1.42725 4.40101C1.32308 4.40101 1.32308 4.76559 1.37516 4.8958" fill="#D72333"/>
</g>
</svg>
