<svg width="25" height="55" viewBox="0 0 25 55" fill="none" xmlns="http://www.w3.org/2000/svg">
<mask id="mask0_24_6491" style="mask-type:luminance" maskUnits="userSpaceOnUse" x="0" y="0" width="25" height="55">
<path d="M0 0H24.1823V54.2552H0V0Z" fill="white"/>
</mask>
<g mask="url(#mask0_24_6491)">
<mask id="mask1_24_6491" style="mask-type:luminance" maskUnits="userSpaceOnUse" x="0" y="-1" width="26" height="56">
<path d="M25.3333 -0.411621H0V54.255H25.3333V-0.411621Z" fill="white"/>
</mask>
<g mask="url(#mask1_24_6491)">
<path d="M16.084 9.99121C16.2507 10.5225 16.334 11.111 16.334 11.762C16.334 12.3193 16.2767 12.8245 16.1673 13.2829C15.8757 14.5745 15.0944 15.2204 13.834 15.2204C13.1777 15.2204 12.6361 15.0433 12.209 14.6787C11.7923 14.3037 11.5267 13.7985 11.4173 13.1579C11.36 12.7829 11.334 12.3818 11.334 11.9495C11.334 11.8402 11.3809 11.7829 11.4798 11.7829H12.2923C12.3861 11.7829 12.4382 11.8402 12.4382 11.9495C12.4382 12.3245 12.4694 12.6683 12.5423 12.9704C12.7194 13.8193 13.1517 14.2412 13.834 14.2412C14.1673 14.2412 14.4382 14.1475 14.6465 13.9495C14.8652 13.7568 15.0267 13.4704 15.1257 13.0954C15.209 12.6527 15.2507 12.1787 15.2507 11.6787C15.2507 11.012 15.1882 10.4652 15.0632 10.0329C14.9642 9.69954 14.8027 9.44954 14.584 9.28288C14.3757 9.10579 14.1257 9.01204 13.834 9.01204C13.7507 9.01204 13.6309 9.04329 13.4798 9.09538C13.3809 9.15267 13.3027 9.15267 13.2507 9.09538L12.8548 8.65788C12.7975 8.59017 12.7923 8.52246 12.834 8.44954L14.9173 5.15788C14.9277 5.15788 14.9277 5.15267 14.9173 5.13704C14.9173 5.111 14.9017 5.09538 14.8757 5.09538H11.5632C11.4642 5.09538 11.4173 5.04329 11.4173 4.92871V4.26204C11.4173 4.16829 11.4642 4.11621 11.5632 4.11621H16.1465C16.2559 4.11621 16.3132 4.16829 16.3132 4.26204V4.97038C16.3132 5.02767 16.2923 5.09538 16.2507 5.17871L14.2923 8.22038C14.2767 8.25163 14.2715 8.27246 14.2715 8.28288C14.2819 8.2985 14.3027 8.30371 14.334 8.30371C14.7507 8.34538 15.11 8.52246 15.4173 8.82454C15.7194 9.11621 15.9434 9.50684 16.084 9.99121Z" fill="#D72333"/>
<path d="M18.6499 15.0745C18.3843 15.0745 18.1707 14.9912 18.0041 14.8245C17.8478 14.6579 17.7749 14.4495 17.7749 14.1995C17.7749 13.9391 17.8478 13.7204 18.0041 13.5537C18.1707 13.387 18.3843 13.3037 18.6499 13.3037C18.8999 13.3037 19.1082 13.387 19.2749 13.5537C19.4416 13.7204 19.5249 13.9391 19.5249 14.1995C19.5249 14.4495 19.4416 14.6579 19.2749 14.8245C19.1082 14.9912 18.8999 15.0745 18.6499 15.0745Z" fill="#D72333"/>
<path d="M22.0052 4.15788C22.0729 4.13184 22.1406 4.11621 22.2135 4.11621H23.0677C23.1615 4.11621 23.2135 4.16829 23.2135 4.26204V14.9287C23.2135 15.0433 23.1615 15.0954 23.0677 15.0954H22.2552C22.1562 15.0954 22.1094 15.0433 22.1094 14.9287V5.42871C22.1094 5.4183 22.099 5.40267 22.0885 5.38704C22.0729 5.37663 22.0521 5.37663 22.026 5.38704L20.5469 5.86621L20.5052 5.88704C20.4323 5.88704 20.3854 5.84017 20.3594 5.74121L20.2969 5.15788V5.13704C20.2969 5.08496 20.3281 5.02767 20.401 4.97038L22.0052 4.15788Z" fill="#D72333"/>
<path d="M7.78206 26.9139C7.89144 26.9139 7.94873 26.9712 7.94873 27.0806V27.6222C7.94873 27.7368 7.89144 27.7889 7.78206 27.7889H5.4904C5.43311 27.7889 5.40706 27.8097 5.40706 27.8514V30.1639C5.40706 30.2629 5.35498 30.3097 5.26123 30.3097H4.69873C4.58415 30.3097 4.53206 30.2629 4.53206 30.1639V27.8514C4.53206 27.8097 4.51123 27.7889 4.46956 27.7889H2.1779C2.06331 27.7889 2.01123 27.7368 2.01123 27.6222V27.0806C2.01123 26.9712 2.06331 26.9139 2.1779 26.9139H4.46956C4.51123 26.9139 4.53206 26.8931 4.53206 26.8514V24.5597C4.53206 24.4504 4.58415 24.3931 4.69873 24.3931H5.26123C5.35498 24.3931 5.40706 24.4504 5.40706 24.5597V26.8514C5.40706 26.8931 5.43311 26.9139 5.4904 26.9139H7.78206Z" fill="#D72333"/>
<path d="M10.4229 31.3101C10.4072 31.3257 10.4072 31.3413 10.4229 31.3517C10.4333 31.3674 10.4489 31.3726 10.4645 31.3726H14.152C14.2614 31.3726 14.3187 31.4299 14.3187 31.5392V32.1851C14.3187 32.2996 14.2614 32.3517 14.152 32.3517H9.23535C9.12077 32.3517 9.06868 32.2996 9.06868 32.1851V31.4976C9.06868 31.4142 9.08952 31.3465 9.13118 31.2892C9.44889 30.7788 9.63118 30.4871 9.67285 30.4142C10.5999 28.9559 11.3291 27.7684 11.8604 26.8517C12.527 25.7163 12.8604 24.7632 12.8604 23.9976C12.8604 23.4559 12.7354 23.0288 12.4854 22.7059C12.2354 22.3882 11.9072 22.2267 11.5062 22.2267C11.0999 22.2267 10.777 22.3882 10.527 22.7059C10.2874 23.0132 10.1781 23.4299 10.1937 23.9559V24.5601C10.1937 24.659 10.1364 24.7059 10.027 24.7059H9.21452C9.09994 24.7059 9.04785 24.659 9.04785 24.5601V23.9351C9.07389 23.133 9.30827 22.4871 9.75618 21.9976C10.2145 21.4976 10.8083 21.2476 11.5479 21.2476C12.2822 21.2476 12.8708 21.508 13.3187 22.0184C13.777 22.5184 14.0062 23.1799 14.0062 23.9976C14.0062 24.9871 13.6312 26.0965 12.8812 27.3309C12.5062 27.9715 11.9749 28.8309 11.2979 29.9142L10.4229 31.3101Z" fill="#D72333"/>
<path d="M16.249 32.3309C15.9834 32.3309 15.7699 32.2476 15.6032 32.0809C15.4469 31.9142 15.374 31.7059 15.374 31.4559C15.374 31.1955 15.4469 30.9767 15.6032 30.8101C15.7699 30.6434 15.9834 30.5601 16.249 30.5601C16.499 30.5601 16.7074 30.6434 16.874 30.8101C17.0407 30.9767 17.124 31.1955 17.124 31.4559C17.124 31.7059 17.0407 31.9142 16.874 32.0809C16.7074 32.2476 16.499 32.3309 16.249 32.3309Z" fill="#D72333"/>
<path d="M23.4162 27.4976C23.5099 27.8882 23.562 28.3934 23.562 29.0184C23.562 29.4767 23.5308 29.909 23.4787 30.3101C23.3641 31.0184 23.1037 31.5601 22.687 31.9351C22.2808 32.2996 21.7391 32.4767 21.062 32.4767C20.3797 32.4767 19.8328 32.2996 19.4162 31.9351C18.9995 31.5601 18.7339 31.0132 18.6245 30.2892L18.5828 29.8101V29.7892C18.5828 29.6955 18.6245 29.6434 18.7078 29.6434H19.5203C19.6141 29.6434 19.6714 29.7007 19.687 29.8101L19.7287 30.1851C19.8953 31.0601 20.3381 31.4976 21.062 31.4976C21.3953 31.4976 21.6662 31.3934 21.8745 31.1851C22.0933 30.9663 22.2495 30.6538 22.3328 30.2476C22.4162 29.9142 22.4578 29.4976 22.4578 28.9976C22.4578 28.4715 22.4058 28.0184 22.312 27.6434C22.1141 26.909 21.6974 26.5392 21.062 26.5392C20.3381 26.5392 19.8849 26.9038 19.7078 27.6226C19.6766 27.7215 19.6245 27.7684 19.5412 27.7684H18.7078C18.6089 27.7684 18.562 27.7215 18.562 27.6226V21.5184C18.562 21.4246 18.6089 21.3726 18.7078 21.3726H23.1662C23.2599 21.3726 23.312 21.4246 23.312 21.5184V22.1851C23.312 22.2996 23.2599 22.3517 23.1662 22.3517H19.7287C19.687 22.3517 19.6662 22.3726 19.6662 22.4142V26.2892C19.6662 26.3205 19.6714 26.3413 19.687 26.3517C19.6974 26.3517 19.7131 26.3465 19.7287 26.3309C19.8953 26.0809 20.1141 25.8934 20.3953 25.7684C20.6714 25.633 20.9839 25.5601 21.3328 25.5601C21.8849 25.5601 22.3381 25.7267 22.687 26.0601C23.0464 26.3934 23.2912 26.8726 23.4162 27.4976Z" fill="#D72333"/>
<path d="M10.0706 44.1702C10.18 44.1702 10.2373 44.2275 10.2373 44.3369V44.8786C10.2373 44.9932 10.18 45.0452 10.0706 45.0452H7.77897C7.72168 45.0452 7.69564 45.0661 7.69564 45.1077V47.4202C7.69564 47.5192 7.64355 47.5661 7.5498 47.5661H6.9873C6.87272 47.5661 6.82064 47.5192 6.82064 47.4202V45.1077C6.82064 45.0661 6.7998 45.0452 6.75814 45.0452H4.46647C4.35189 45.0452 4.2998 44.9932 4.2998 44.8786V44.3369C4.2998 44.2275 4.35189 44.1702 4.46647 44.1702H6.75814C6.7998 44.1702 6.82064 44.1494 6.82064 44.1077V41.8161C6.82064 41.7067 6.87272 41.6494 6.9873 41.6494H7.5498C7.64355 41.6494 7.69564 41.7067 7.69564 41.8161V44.1077C7.69564 44.1494 7.72168 44.1702 7.77897 44.1702H10.0706Z" fill="#D72333"/>
<path d="M12.6073 38.6701C12.675 38.644 12.7427 38.6284 12.8156 38.6284H13.6698C13.7635 38.6284 13.8156 38.6805 13.8156 38.7743V49.4409C13.8156 49.5555 13.7635 49.6076 13.6698 49.6076H12.8573C12.7583 49.6076 12.7114 49.5555 12.7114 49.4409V39.9409C12.7114 39.9305 12.701 39.9149 12.6906 39.8993C12.675 39.8888 12.6541 39.8888 12.6281 39.8993L11.1489 40.3784L11.1073 40.3993C11.0343 40.3993 10.9875 40.3524 10.9614 40.2534L10.8989 39.6701V39.6493C10.8989 39.5972 10.9302 39.5399 11.0031 39.4826L12.6073 38.6701Z" fill="#D72333"/>
<path d="M16.2476 49.5868C15.9819 49.5868 15.7684 49.5034 15.6017 49.3368C15.4455 49.1701 15.3726 48.9618 15.3726 48.7118C15.3726 48.4513 15.4455 48.2326 15.6017 48.0659C15.7684 47.8993 15.9819 47.8159 16.2476 47.8159C16.4976 47.8159 16.7059 47.8993 16.8726 48.0659C17.0392 48.2326 17.1226 48.4513 17.1226 48.7118C17.1226 48.9618 17.0392 49.1701 16.8726 49.3368C16.7059 49.5034 16.4976 49.5868 16.2476 49.5868Z" fill="#D72333"/>
<path d="M23.4152 44.7534C23.509 45.144 23.561 45.6493 23.561 46.2743C23.561 46.7326 23.5298 47.1649 23.4777 47.5659C23.3631 48.2743 23.1027 48.8159 22.686 49.1909C22.2798 49.5555 21.7381 49.7326 21.061 49.7326C20.3787 49.7326 19.8319 49.5555 19.4152 49.1909C18.9985 48.8159 18.7329 48.269 18.6235 47.5451L18.5819 47.0659V47.0451C18.5819 46.9513 18.6235 46.8993 18.7069 46.8993H19.5194C19.6131 46.8993 19.6704 46.9565 19.686 47.0659L19.7277 47.4409C19.8944 48.3159 20.3371 48.7534 21.061 48.7534C21.3944 48.7534 21.6652 48.6493 21.8735 48.4409C22.0923 48.2222 22.2485 47.9097 22.3319 47.5034C22.4152 47.1701 22.4569 46.7534 22.4569 46.2534C22.4569 45.7274 22.4048 45.2743 22.311 44.8993C22.1131 44.1649 21.6965 43.7951 21.061 43.7951C20.3371 43.7951 19.884 44.1597 19.7069 44.8784C19.6756 44.9774 19.6235 45.0243 19.5402 45.0243H18.7069C18.6079 45.0243 18.561 44.9774 18.561 44.8784V38.7743C18.561 38.6805 18.6079 38.6284 18.7069 38.6284H23.1652C23.259 38.6284 23.311 38.6805 23.311 38.7743V39.4409C23.311 39.5555 23.259 39.6076 23.1652 39.6076H19.7277C19.686 39.6076 19.6652 39.6284 19.6652 39.6701V43.5451C19.6652 43.5763 19.6704 43.5972 19.686 43.6076C19.6965 43.6076 19.7121 43.6024 19.7277 43.5868C19.8944 43.3368 20.1131 43.1493 20.3944 43.0243C20.6704 42.8888 20.9829 42.8159 21.3319 42.8159C21.884 42.8159 22.3371 42.9826 22.686 43.3159C23.0454 43.6493 23.2902 44.1284 23.4152 44.7534Z" fill="#D72333"/>
</g>
</g>
</svg>
