<svg width="29" height="8" viewBox="0 0 29 8" fill="none" xmlns="http://www.w3.org/2000/svg">
<mask id="mask0_25_16320" style="mask-type:luminance" maskUnits="userSpaceOnUse" x="0" y="0" width="29" height="8">
<path d="M0 0H28.8646V8H0V0Z" fill="white"/>
</mask>
<g mask="url(#mask0_25_16320)">
<path d="M0.927246 4.46363C0.927246 4.46363 2.4012 5.16155 3.74495 6.68759C5.63037 7.46363 7.00016 8.0053 8.5262 7.8803C9.896 7.28134 12.0939 6.35426 13.4897 4.31259C15.6356 3.25009 17.7814 2.1928 20.0054 1.20842C22.4116 1.33863 24.0366 1.4428 25.3804 2.44801C26.7033 3.32822 27.9429 4.80217 28.3022 4.75009C28.4585 4.51572 28.4064 4.02613 28.3543 3.6928C28.0991 3.53655 28.021 3.79176 27.9689 3.79176C27.9689 3.79176 28.2502 3.58863 28.3283 3.6928C28.4325 3.79176 26.3387 1.20842 24.4272 0.484466C22.5627 0.250091 20.1616 -0.0311594 17.9897 1.10426C15.8179 2.01051 13.3856 3.04176 11.7866 5.14072C9.4585 6.43238 8.94287 6.71363 8.31787 6.71363C7.72412 6.76572 5.06266 7.10426 3.25537 4.77613C1.13558 3.58863 1.49496 3.73968 1.44287 3.71884C1.44287 3.71884 1.16162 3.45843 1.05745 3.43238C0.953288 3.43238 0.953288 3.79176 1.00537 3.92197" fill="#D72333"/>
</g>
</svg>
