<svg width="13" height="11" viewBox="0 0 13 11" fill="none" xmlns="http://www.w3.org/2000/svg">
<mask id="mask0_24_1446" style="mask-type:luminance" maskUnits="userSpaceOnUse" x="0" y="0" width="13" height="11">
<path d="M0 0H12.9792V10.974H0V0Z" fill="white"/>
</mask>
<g mask="url(#mask0_24_1446)">
<path d="M6.85432 0C9.04702 0.166667 10.8856 1.34375 11.5679 3.10938C12.3074 5 11.8491 6.92188 10.0522 8.40104C9.0314 9.22917 7.90119 9.85417 6.6564 10.276C6.29702 10.4115 5.92202 10.4896 5.53661 10.5C5.15119 10.5156 4.77098 10.4635 4.40119 10.3542C4.03661 10.2448 3.69286 10.0729 3.38036 9.84896C3.06265 9.625 2.79702 9.35417 2.57307 9.04167C1.83348 8.08854 0.953273 7.08333 0.677232 5.97396C0.0886895 3.57813 1.5939 1.43229 4.21369 0.546875C5.06265 0.244792 5.97411 0.177083 6.85432 0Z" fill="#D72333"/>
</g>
</svg>
