<svg width="29" height="10" viewBox="0 0 29 10" fill="none" xmlns="http://www.w3.org/2000/svg">
<mask id="mask0_25_16096" style="mask-type:luminance" maskUnits="userSpaceOnUse" x="0" y="0" width="29" height="10">
<path d="M0 0H28.4531V9.33333H0V0Z" fill="white"/>
</mask>
<g mask="url(#mask0_25_16096)">
<path d="M0.572754 5.03122C0.572754 5.03122 2.0415 5.72913 3.39046 7.25517C5.27588 8.03122 6.64567 8.57288 8.17171 8.44267C9.5415 7.84893 11.7394 6.89059 13.1353 4.87497C15.2811 3.81767 17.4269 2.75517 19.6509 1.77601C22.0519 1.90101 23.6821 2.00517 25.0259 3.01559C26.3436 3.8958 27.5832 5.36976 27.9478 5.31768C28.104 5.0833 28.0519 4.59372 27.9998 4.25518C27.7394 4.09893 27.6613 4.35934 27.6092 4.35934C27.6092 4.35934 27.8957 4.15101 27.9738 4.25518C28.078 4.35934 25.9842 1.77601 24.0675 1.05205C22.2082 0.817675 19.8019 0.531217 17.63 1.67184C15.4634 2.57288 13.0311 3.60934 11.4269 5.70309C9.104 6.99476 8.58317 7.28122 7.96338 7.28122C7.36963 7.3333 4.70817 7.66663 2.89567 5.34372C0.775879 4.15101 1.14046 4.30726 1.08838 4.28122C1.08838 4.28122 0.801919 4.0208 0.697754 3.96872C0.593586 3.96872 0.593587 4.3333 0.645671 4.46351" fill="#D72333"/>
</g>
</svg>
