<svg width="28" height="8" viewBox="0 0 28 8" fill="none" xmlns="http://www.w3.org/2000/svg">
<mask id="mask0_25_16287" style="mask-type:luminance" maskUnits="userSpaceOnUse" x="0" y="0" width="28" height="8">
<path d="M0 0H27.9583V8H0V0Z" fill="white"/>
</mask>
<g mask="url(#mask0_25_16287)">
<path d="M0.0258789 4.46363C0.0258789 4.46363 1.49984 5.16155 2.84359 6.68759C4.729 7.46363 6.0988 8.0053 7.62484 7.8803C8.99463 7.28134 11.1925 6.35426 12.5884 4.31259C14.7342 3.25009 16.88 2.1928 19.104 1.20842C21.505 1.33863 23.1353 1.4428 24.479 2.44801C25.7967 3.32822 27.0415 4.80217 27.4009 4.75009C27.5571 4.51572 27.505 4.02613 27.453 3.6928C27.1925 3.53655 27.1144 3.79176 27.0675 3.79176C27.0675 3.79176 27.3488 3.58863 27.4269 3.6928C27.5311 3.79176 25.4373 1.20842 23.5207 0.484466C21.6613 0.250091 19.255 -0.0311594 17.0884 1.10426C14.9165 2.01051 12.4842 3.04176 10.88 5.14072C8.55713 6.43238 8.0363 6.71363 7.4165 6.71363C6.82275 6.76572 4.1613 7.10426 2.3488 4.77613C0.229004 3.58863 0.593587 3.73968 0.541504 3.71884C0.541504 3.71884 0.255046 3.45843 0.150879 3.43238C0.0519202 3.43238 0.0519196 3.79176 0.0987956 3.92197" fill="#D72333"/>
</g>
</svg>
