<svg width="166" height="12" viewBox="0 0 166 12" fill="none" xmlns="http://www.w3.org/2000/svg">
<mask id="mask0_24_3460" style="mask-type:luminance" maskUnits="userSpaceOnUse" x="0" y="0" width="166" height="12">
<path d="M0 0H165.599V11.9688H0V0Z" fill="white"/>
</mask>
<g mask="url(#mask0_24_3460)">
<mask id="mask1_24_3460" style="mask-type:luminance" maskUnits="userSpaceOnUse" x="-1" y="-1" width="168" height="14">
<path d="M166.151 -0.385254H-0.515625V12.9481H166.151V-0.385254Z" fill="white"/>
</mask>
<g mask="url(#mask1_24_3460)">
<mask id="mask2_24_3460" style="mask-type:luminance" maskUnits="userSpaceOnUse" x="0" y="0" width="166" height="12">
<path d="M0.474121 0H165.302V11.7813H0.474121V0Z" fill="white"/>
</mask>
<g mask="url(#mask2_24_3460)">
<path d="M38.5939 0L31.2397 6.67188L23.8543 0L16.5002 6.67188L9.146 0L0.505371 7.81771L3.05225 10.6354L9.146 5.14062L16.5002 11.7813L23.8543 5.14062L31.2397 11.7813L38.5939 5.14062L45.9481 11.7813L53.3022 5.14062L60.6825 11.7813L68.0366 5.14062L75.3908 11.7813L82.7762 5.14062L90.1304 11.7813L97.4845 5.14062L104.839 11.7813L112.219 5.14062L119.573 11.7813L126.927 5.14062L134.313 11.7813L141.667 5.14062L149.021 11.7813L156.401 5.14062L162.469 10.6354L165.016 7.81771L156.401 0L149.021 6.67188L141.667 0L134.313 6.67188L126.927 0L119.573 6.67188L112.219 0L104.839 6.67188L97.4845 0L90.1304 6.67188L82.7762 0L75.3908 6.67188L68.0366 0L60.6825 6.67188L53.3022 0L45.9481 6.67188L38.5939 0Z" fill="#D72333"/>
</g>
</g>
</g>
</svg>
