<svg width="23" height="37" viewBox="0 0 23 37" fill="none" xmlns="http://www.w3.org/2000/svg">
<mask id="mask0_24_6202" style="mask-type:luminance" maskUnits="userSpaceOnUse" x="0" y="0" width="23" height="37">
<path d="M0 0H22.849V36.4688H0V0Z" fill="white"/>
</mask>
<g mask="url(#mask0_24_6202)">
<mask id="mask1_24_6202" style="mask-type:luminance" maskUnits="userSpaceOnUse" x="0" y="-1" width="24" height="38">
<path d="M24 -0.864746H0V36.4686H24V-0.864746Z" fill="white"/>
</mask>
<g mask="url(#mask1_24_6202)">
<path d="M12.9979 11.0745C13.1073 11.0745 13.1646 11.1318 13.1646 11.2412V11.9287C13.1646 12.0277 13.1073 12.0745 12.9979 12.0745H12.5187C12.4771 12.0745 12.4562 12.0954 12.4562 12.137V14.9287C12.4562 15.0433 12.4041 15.0954 12.3104 15.0954H11.4979C11.3989 15.0954 11.3521 15.0433 11.3521 14.9287V12.137C11.3521 12.0954 11.3312 12.0745 11.2896 12.0745H7.49788C7.39893 12.0745 7.35205 12.0277 7.35205 11.9287V11.3245C7.35205 11.2829 7.35726 11.2204 7.37288 11.137L9.72705 4.24121C9.75309 4.15788 9.81559 4.11621 9.91455 4.11621H10.7687C10.8937 4.11621 10.9354 4.1735 10.8937 4.28288L8.64372 10.9912C8.62809 11.0225 8.62809 11.0433 8.64372 11.0537C8.65413 11.0693 8.66976 11.0745 8.68538 11.0745H11.2896C11.3312 11.0745 11.3521 11.0537 11.3521 11.012V8.61621C11.3521 8.50684 11.3989 8.44954 11.4979 8.44954H12.3104C12.4041 8.44954 12.4562 8.50684 12.4562 8.61621V11.012C12.4562 11.0537 12.4771 11.0745 12.5187 11.0745H12.9979Z" fill="#D72333"/>
<path d="M15.0068 15.0745C14.7412 15.0745 14.5277 14.9912 14.361 14.8245C14.2048 14.6579 14.1318 14.4495 14.1318 14.1995C14.1318 13.9391 14.2048 13.7204 14.361 13.5537C14.5277 13.387 14.7412 13.3037 15.0068 13.3037C15.2568 13.3037 15.4652 13.387 15.6318 13.5537C15.7985 13.7204 15.8818 13.9391 15.8818 14.1995C15.8818 14.4495 15.7985 14.6579 15.6318 14.8245C15.4652 14.9912 15.2568 15.0745 15.0068 15.0745Z" fill="#D72333"/>
<path d="M21.9867 12.5329C21.9867 13.3558 21.7471 14.0068 21.2783 14.4912C20.82 14.9808 20.2158 15.2204 19.4658 15.2204C18.7835 15.2204 18.221 14.9808 17.7783 14.4912C17.3304 13.9912 17.1117 13.3402 17.1117 12.5329V12.2829C17.1117 12.1891 17.1637 12.137 17.2783 12.137H18.07C18.1794 12.137 18.2367 12.1891 18.2367 12.2829V12.512C18.2367 13.012 18.3512 13.4235 18.5908 13.7412C18.8252 14.0641 19.1169 14.2204 19.4658 14.2204C19.8825 14.2204 20.2158 14.0693 20.4658 13.762C20.7158 13.4443 20.8408 13.0277 20.8408 12.512V10.4079C20.8408 10.3818 20.8304 10.3662 20.82 10.3662C20.8044 10.3662 20.7887 10.3766 20.7783 10.387C20.6221 10.5954 20.4294 10.7568 20.195 10.8662C19.971 10.9808 19.721 11.0329 19.445 11.0329C18.8044 11.0329 18.2783 10.8402 17.8617 10.4495C17.4554 10.0641 17.2002 9.52767 17.0908 8.84538C17.0075 8.42871 16.9658 7.96517 16.9658 7.44954C16.9658 7.00684 16.9867 6.62663 17.0283 6.30371C17.1117 5.55371 17.3617 4.986 17.7783 4.59538C18.2054 4.19434 18.7679 3.99121 19.4658 3.99121C20.1169 3.99121 20.6533 4.17871 21.07 4.55371C21.4867 4.91829 21.7471 5.44954 21.8617 6.15788C21.9294 6.49121 21.9658 6.90267 21.9658 7.38704L21.9867 12.5329ZM19.4658 10.0537C20.1429 10.0537 20.5752 9.64746 20.7575 8.82454C20.8096 8.49121 20.8408 8.06413 20.8408 7.53288C20.8408 7.0485 20.82 6.63704 20.7783 6.30371C20.596 5.41829 20.1585 4.97038 19.4658 4.97038C19.1012 4.97038 18.8096 5.09017 18.5908 5.32454C18.3669 5.56413 18.221 5.9183 18.1533 6.38704C18.096 6.80371 18.07 7.18913 18.07 7.53288C18.07 8.00684 18.1169 8.45996 18.2158 8.88704C18.2992 9.27767 18.445 9.56934 18.6533 9.76204C18.8721 9.95996 19.1429 10.0537 19.4658 10.0537Z" fill="#D72333"/>
<path d="M7.1263 26.9139C7.23568 26.9139 7.29297 26.9712 7.29297 27.0806V27.6222C7.29297 27.7368 7.23568 27.7889 7.1263 27.7889H4.83464C4.77734 27.7889 4.7513 27.8097 4.7513 27.8514V30.1639C4.7513 30.2629 4.69922 30.3097 4.60547 30.3097H4.04297C3.92839 30.3097 3.8763 30.2629 3.8763 30.1639V27.8514C3.8763 27.8097 3.85547 27.7889 3.8138 27.7889H1.52214C1.40755 27.7889 1.35547 27.7368 1.35547 27.6222V27.0806C1.35547 26.9712 1.40755 26.9139 1.52214 26.9139H3.8138C3.85547 26.9139 3.8763 26.8931 3.8763 26.8514V24.5597C3.8763 24.4504 3.92839 24.3931 4.04297 24.3931H4.60547C4.69922 24.3931 4.7513 24.4504 4.7513 24.5597V26.8514C4.7513 26.8931 4.77734 26.9139 4.83464 26.9139H7.1263Z" fill="#D72333"/>
<path d="M9.76709 31.3096C9.75146 31.3252 9.75146 31.3408 9.76709 31.3512C9.77751 31.3669 9.79313 31.3721 9.80876 31.3721H13.4963C13.6056 31.3721 13.6629 31.4294 13.6629 31.5387V32.1846C13.6629 32.2992 13.6056 32.3512 13.4963 32.3512H8.57959C8.46501 32.3512 8.41292 32.2992 8.41292 32.1846V31.4971C8.41292 31.4137 8.43376 31.346 8.47542 31.2887C8.79313 30.7783 8.97542 30.4867 9.01709 30.4137C9.94417 28.9554 10.6733 27.7679 11.2046 26.8512C11.8713 25.7158 12.2046 24.7627 12.2046 23.9971C12.2046 23.4554 12.0796 23.0283 11.8296 22.7054C11.5796 22.3877 11.2515 22.2262 10.8504 22.2262C10.4442 22.2262 10.1213 22.3877 9.87126 22.7054C9.63167 23.0127 9.5223 23.4294 9.53792 23.9554V24.5596C9.53792 24.6585 9.48063 24.7054 9.37126 24.7054H8.55876C8.44417 24.7054 8.39209 24.6585 8.39209 24.5596V23.9346C8.41813 23.1325 8.65251 22.4867 9.10042 21.9971C9.55876 21.4971 10.1525 21.2471 10.8921 21.2471C11.6265 21.2471 12.215 21.5075 12.6629 22.0179C13.1213 22.5179 13.3504 23.1794 13.3504 23.9971C13.3504 24.9867 12.9754 26.096 12.2254 27.3304C11.8504 27.971 11.3192 28.8304 10.6421 29.9137L9.76709 31.3096Z" fill="#D72333"/>
<path d="M15.5933 32.3304C15.3276 32.3304 15.1141 32.2471 14.9474 32.0804C14.7912 31.9137 14.7183 31.7054 14.7183 31.4554C14.7183 31.195 14.7912 30.9762 14.9474 30.8096C15.1141 30.6429 15.3276 30.5596 15.5933 30.5596C15.8433 30.5596 16.0516 30.6429 16.2183 30.8096C16.3849 30.9762 16.4683 31.195 16.4683 31.4554C16.4683 31.7054 16.3849 31.9137 16.2183 32.0804C16.0516 32.2471 15.8433 32.3304 15.5933 32.3304Z" fill="#D72333"/>
<path d="M18.8231 32.3512C18.7658 32.3512 18.7241 32.3408 18.6981 32.3096C18.6668 32.2679 18.6616 32.2262 18.6772 32.1846L21.3647 22.4137C21.3647 22.4033 21.3543 22.3877 21.3439 22.3721C21.3283 22.3617 21.3127 22.3512 21.3022 22.3512H18.4272C18.3856 22.3512 18.3647 22.3721 18.3647 22.4137V23.0387C18.3647 23.1533 18.3075 23.2054 18.1981 23.2054H17.5939C17.4793 23.2054 17.4272 23.1533 17.4272 23.0387V21.5179C17.4272 21.4242 17.4793 21.3721 17.5939 21.3721H22.3856C22.495 21.3721 22.5522 21.4242 22.5522 21.5179V22.2471C22.5522 22.2783 22.5366 22.3408 22.5106 22.4346L19.8439 32.2054C19.8283 32.3044 19.771 32.3512 19.6772 32.3512H18.8231Z" fill="#D72333"/>
</g>
</g>
</svg>
