<svg width="30" height="9" viewBox="0 0 30 9" fill="none" xmlns="http://www.w3.org/2000/svg">
<mask id="mask0_25_16345" style="mask-type:luminance" maskUnits="userSpaceOnUse" x="0" y="0" width="30" height="9">
<path d="M0 0H29.3333V8.89062H0V0Z" fill="white"/>
</mask>
<g mask="url(#mask0_25_16345)">
<path d="M1.29688 4.66647C1.29688 4.66647 2.77083 5.36439 4.11458 6.89043C6.00521 7.66647 7.375 8.20814 8.90104 8.07793C10.2708 7.48418 12.4687 6.52585 13.8646 4.51022C16.0104 3.45293 18.151 2.39043 20.375 1.41126C22.7813 1.53626 24.4115 1.64043 25.7552 2.65085C27.0729 3.53105 28.3125 4.9998 28.6771 4.95293C28.8281 4.71855 28.7813 4.22897 28.7292 3.89043C28.4688 3.73418 28.3906 3.9946 28.3385 3.9946C28.3385 3.9946 28.625 3.78626 28.7031 3.89043C28.8021 3.9946 26.7083 1.41126 24.7969 0.687304C22.9375 0.452929 20.5313 0.166471 18.3594 1.3071C16.1875 2.20814 13.7604 3.2446 12.1562 5.33835C9.82812 6.63001 9.3125 6.91647 8.69271 6.91647C8.09896 6.96855 5.43229 7.30189 3.625 4.97897C1.50521 3.78626 1.86458 3.94251 1.81771 3.91647C1.81771 3.91647 1.53125 3.65605 1.42708 3.60397C1.32292 3.60397 1.32292 3.96855 1.375 4.09876" fill="#D72333"/>
</g>
</svg>
