<svg width="7" height="12" viewBox="0 0 7 12" fill="none" xmlns="http://www.w3.org/2000/svg">
<mask id="mask0_25_8829" style="mask-type:luminance" maskUnits="userSpaceOnUse" x="0" y="0" width="7" height="12">
<path d="M0 0H6.5625V12H0V0Z" fill="white"/>
</mask>
<g mask="url(#mask0_25_8829)">
<path d="M0.664876 11.4967C0.565918 11.4967 0.519043 11.4447 0.519043 11.3301V10.6217C0.519043 10.5697 0.52946 10.5072 0.56071 10.4342L4.37321 1.55924C4.38363 1.54883 4.38363 1.5332 4.37321 1.51758C4.35758 1.50716 4.34196 1.49674 4.33154 1.49674H0.664876C0.565918 1.49674 0.519043 1.44466 0.519043 1.33008V0.663411C0.519043 0.569662 0.565918 0.517578 0.664876 0.517578H5.43571C5.52946 0.517578 5.58154 0.569662 5.58154 0.663411V1.39258C5.58154 1.43424 5.56592 1.49674 5.53988 1.58008L1.74821 10.4551C1.73258 10.4707 1.72738 10.4863 1.72738 10.4967C1.73779 10.5124 1.75863 10.5176 1.78988 10.5176H5.43571C5.52946 10.5176 5.58154 10.5749 5.58154 10.6842V11.3301C5.58154 11.4447 5.52946 11.4967 5.43571 11.4967H0.664876Z" fill="#D72333"/>
</g>
</svg>
