<svg width="7" height="12" viewBox="0 0 7 12" fill="none" xmlns="http://www.w3.org/2000/svg">
<mask id="mask0_25_10286" style="mask-type:luminance" maskUnits="userSpaceOnUse" x="0" y="0" width="7" height="12">
<path d="M0 0H6.5625V12H0V0Z" fill="white"/>
</mask>
<g mask="url(#mask0_25_10286)">
<path d="M2.95671 11.6418C2.17546 11.6418 1.54525 11.4022 1.06087 10.9126C0.586914 10.4282 0.352539 9.7876 0.352539 8.99593V7.68343C0.352539 7.57406 0.399414 7.51676 0.498372 7.51676H1.29004C1.39941 7.51676 1.45671 7.57406 1.45671 7.68343V9.01676C1.45671 9.50635 1.58691 9.90218 1.85254 10.2043C2.12858 10.5116 2.49837 10.6626 2.95671 10.6626C3.38379 10.6626 3.73796 10.5116 4.01921 10.2043C4.29525 9.90218 4.43587 9.50635 4.43587 9.01676V0.683431C4.43587 0.589682 4.48796 0.537598 4.60254 0.537598H5.39421C5.50358 0.537598 5.56087 0.589682 5.56087 0.683431V8.99593C5.56087 9.7876 5.31608 10.4282 4.83171 10.9126C4.34212 11.4022 3.71712 11.6418 2.95671 11.6418Z" fill="#D72333"/>
</g>
</svg>
