<svg width="29" height="9" viewBox="0 0 29 9" fill="none" xmlns="http://www.w3.org/2000/svg">
<mask id="mask0_25_16315" style="mask-type:luminance" maskUnits="userSpaceOnUse" x="0" y="0" width="29" height="9">
<path d="M0 0H28.8646V8.89062H0V0Z" fill="white"/>
</mask>
<g mask="url(#mask0_25_16315)">
<path d="M0.979004 4.95322C0.979004 4.95322 2.45296 5.65113 3.79671 7.17197C5.68213 7.94801 7.05192 8.49488 8.57796 8.36468C9.94775 7.77092 12.1457 6.81259 13.5415 4.79697C15.6873 3.73447 17.8332 2.67717 20.0571 1.6928C22.4634 1.82301 24.0884 1.92717 25.4321 2.93238C26.7498 3.81259 27.9946 5.28655 28.354 5.23447C28.5103 5.00009 28.4582 4.51051 28.4061 4.17717C28.1509 4.02092 28.0728 4.27613 28.0207 4.27613C28.0207 4.27613 28.3019 4.07301 28.38 4.17717C28.4842 4.27613 26.3905 1.6928 24.479 0.968841C22.6144 0.734465 20.2134 0.453216 18.0415 1.58863C15.8696 2.49488 13.4373 3.53134 11.8384 5.62509C9.51025 6.91676 8.99463 7.19801 8.36963 7.19801C7.77588 7.25009 5.11442 7.58863 3.30713 5.26051C1.18734 4.07301 1.54671 4.22926 1.49463 4.20322C1.49463 4.20322 1.20817 3.9428 1.10921 3.89072C1.00505 3.89072 1.00504 4.2553 1.05713 4.3803" fill="#D72333"/>
</g>
</svg>
