<svg width="8" height="12" viewBox="0 0 8 12" fill="none" xmlns="http://www.w3.org/2000/svg">
<mask id="mask0_25_9646" style="mask-type:luminance" maskUnits="userSpaceOnUse" x="0" y="0" width="8" height="12">
<path d="M0 0H7.89583V12H0V0Z" fill="white"/>
</mask>
<g mask="url(#mask0_25_9646)">
<path d="M3.64421 11.32C2.71191 11.32 1.96191 11.0492 1.39421 10.5075C0.82129 9.96582 0.540039 9.25228 0.540039 8.36165V3.04915C0.540039 2.14811 0.82129 1.43457 1.39421 0.90332C1.96191 0.361654 2.71191 0.0908203 3.64421 0.0908203C4.58691 0.0908203 5.34212 0.361654 5.91504 0.90332C6.49837 1.44499 6.79004 2.16895 6.79004 3.06999V3.67415C6.79004 3.71582 6.76921 3.75749 6.72754 3.79915C6.69629 3.84082 6.65462 3.86165 6.60254 3.86165H4.76921C4.71191 3.86165 4.66504 3.84082 4.62337 3.79915C4.59212 3.75749 4.58171 3.71582 4.58171 3.67415V3.02832C4.58171 2.72624 4.49837 2.47624 4.33171 2.27832C4.16504 2.08561 3.93587 1.98665 3.64421 1.98665C3.37858 1.98665 3.16504 2.08561 2.99837 2.27832C2.83171 2.47624 2.74837 2.72624 2.74837 3.02832V8.36165C2.74837 8.68457 2.83171 8.93978 2.99837 9.13249C3.16504 9.3304 3.37858 9.42415 3.64421 9.42415C3.93587 9.42415 4.16504 9.3304 4.33171 9.13249C4.49837 8.93978 4.58171 8.68457 4.58171 8.36165V7.11165C4.58171 7.05957 4.55046 7.02832 4.49837 7.02832H3.81087C3.75358 7.02832 3.70671 7.0179 3.66504 6.98665C3.63379 6.94499 3.62337 6.89811 3.62337 6.84082V5.44499C3.62337 5.40332 3.63379 5.36165 3.66504 5.31999C3.70671 5.27832 3.75358 5.25749 3.81087 5.25749H6.60254C6.65462 5.25749 6.69629 5.27832 6.72754 5.31999C6.76921 5.36165 6.79004 5.40332 6.79004 5.44499V8.36165C6.79004 9.25228 6.49837 9.96582 5.91504 10.5075C5.34212 11.0492 4.58691 11.32 3.64421 11.32Z" fill="#D72333"/>
</g>
</svg>
