<svg width="17" height="21" viewBox="0 0 17 21" fill="none" xmlns="http://www.w3.org/2000/svg">
<mask id="mask0_24_6024" style="mask-type:luminance" maskUnits="userSpaceOnUse" x="0" y="0" width="17" height="21">
<path d="M0 0H16.1823V20.0156H0V0Z" fill="white"/>
</mask>
<g mask="url(#mask0_24_6024)">
<mask id="mask1_24_6024" style="mask-type:luminance" maskUnits="userSpaceOnUse" x="0" y="-2" width="18" height="23">
<path d="M17.3333 -1.31787H0V20.0155H17.3333V-1.31787Z" fill="white"/>
</mask>
<g mask="url(#mask1_24_6024)">
<path d="M2.75814 15.0954C2.70085 15.0954 2.65918 15.085 2.63314 15.0537C2.60189 15.012 2.59668 14.9704 2.6123 14.9287L5.2998 5.15788C5.2998 5.14746 5.28939 5.13184 5.27897 5.11621C5.26335 5.10579 5.24772 5.09538 5.2373 5.09538H2.3623C2.32064 5.09538 2.2998 5.11621 2.2998 5.15788V5.78288C2.2998 5.89746 2.24251 5.94954 2.13314 5.94954H1.52897C1.41439 5.94954 1.3623 5.89746 1.3623 5.78288V4.26204C1.3623 4.16829 1.41439 4.11621 1.52897 4.11621H6.32064C6.43001 4.11621 6.4873 4.16829 6.4873 4.26204V4.99121C6.4873 5.02246 6.47168 5.08496 6.44564 5.17871L3.77897 14.9495C3.76335 15.0485 3.70606 15.0954 3.6123 15.0954H2.75814Z" fill="#D72333"/>
<path d="M8.24854 15.0745C7.98291 15.0745 7.76937 14.9912 7.6027 14.8245C7.44645 14.6579 7.37354 14.4495 7.37354 14.1995C7.37354 13.9391 7.44645 13.7204 7.6027 13.5537C7.76937 13.387 7.98291 13.3037 8.24854 13.3037C8.49854 13.3037 8.70687 13.387 8.87354 13.5537C9.0402 13.7204 9.12354 13.9391 9.12354 14.1995C9.12354 14.4495 9.0402 14.6579 8.87354 14.8245C8.70687 14.9912 8.49854 15.0745 8.24854 15.0745Z" fill="#D72333"/>
<path d="M15.4162 10.2412C15.5099 10.6318 15.562 11.137 15.562 11.762C15.562 12.2204 15.5308 12.6527 15.4787 13.0537C15.3641 13.762 15.1037 14.3037 14.687 14.6787C14.2808 15.0433 13.7391 15.2204 13.062 15.2204C12.3797 15.2204 11.8328 15.0433 11.4162 14.6787C10.9995 14.3037 10.7339 13.7568 10.6245 13.0329L10.5828 12.5537V12.5329C10.5828 12.4391 10.6245 12.387 10.7078 12.387H11.5203C11.6141 12.387 11.6714 12.4443 11.687 12.5537L11.7287 12.9287C11.8953 13.8037 12.3381 14.2412 13.062 14.2412C13.3953 14.2412 13.6662 14.137 13.8745 13.9287C14.0933 13.71 14.2495 13.3975 14.3328 12.9912C14.4162 12.6579 14.4578 12.2412 14.4578 11.7412C14.4578 11.2152 14.4058 10.762 14.312 10.387C14.1141 9.65267 13.6974 9.28288 13.062 9.28288C12.3381 9.28288 11.8849 9.64746 11.7078 10.3662C11.6766 10.4652 11.6245 10.512 11.5412 10.512H10.7078C10.6089 10.512 10.562 10.4652 10.562 10.3662V4.26204C10.562 4.16829 10.6089 4.11621 10.7078 4.11621H15.1662C15.2599 4.11621 15.312 4.16829 15.312 4.26204V4.92871C15.312 5.04329 15.2599 5.09538 15.1662 5.09538H11.7287C11.687 5.09538 11.6662 5.11621 11.6662 5.15788V9.03288C11.6662 9.06413 11.6714 9.08496 11.687 9.09538C11.6974 9.09538 11.7131 9.09017 11.7287 9.07454C11.8953 8.82454 12.1141 8.63704 12.3953 8.51204C12.6714 8.37663 12.9839 8.30371 13.3328 8.30371C13.8849 8.30371 14.3381 8.47038 14.687 8.80371C15.0464 9.13704 15.2912 9.61621 15.4162 10.2412Z" fill="#D72333"/>
</g>
</g>
</svg>
