<svg width="5" height="7" viewBox="0 0 5 7" fill="none" xmlns="http://www.w3.org/2000/svg">
<mask id="mask0_24_5990" style="mask-type:luminance" maskUnits="userSpaceOnUse" x="0" y="0" width="5" height="7">
<path d="M0 0H4.35417V6.66667H0V0Z" fill="white"/>
</mask>
<g mask="url(#mask0_24_5990)">
<path d="M3.04216 6.51937C2.98486 6.51937 2.94841 6.49333 2.93799 6.43604L2.70882 5.31104C2.70882 5.30062 2.69841 5.2902 2.68799 5.2902C2.68799 5.2902 2.67757 5.2902 2.66716 5.2902H1.02132C1.02132 5.2902 1.0109 5.2902 1.00049 5.2902C0.984863 5.2902 0.979655 5.30062 0.979655 5.31104L0.750488 6.43604C0.750488 6.49333 0.719238 6.51937 0.667155 6.51937H0.208822C0.167155 6.51937 0.135904 6.51416 0.125488 6.49854C0.109863 6.47249 0.109863 6.44645 0.125488 6.4152L1.47966 0.269368C1.49007 0.217286 1.52653 0.186035 1.58382 0.186035H2.12549C2.17757 0.186035 2.20882 0.217286 2.20882 0.269368L3.58382 6.4152V6.43604C3.58382 6.49333 3.55257 6.51937 3.50049 6.51937H3.04216ZM1.10466 4.7277C1.10466 4.74333 1.10986 4.74854 1.12549 4.74854H2.56299C2.57341 4.74854 2.58382 4.74333 2.58382 4.7277L1.85466 1.1652C1.85466 1.15478 1.84424 1.14437 1.83382 1.14437C1.83382 1.14437 1.83382 1.15478 1.83382 1.1652L1.10466 4.7277Z" fill="#D72333"/>
</g>
</svg>
