<svg width="29" height="10" viewBox="0 0 29 10" fill="none" xmlns="http://www.w3.org/2000/svg">
<mask id="mask0_25_16340" style="mask-type:luminance" maskUnits="userSpaceOnUse" x="0" y="0" width="29" height="10">
<path d="M0 0H28.5885V9.33333H0V0Z" fill="white"/>
</mask>
<g mask="url(#mask0_25_16340)">
<path d="M0.125 5.40113C0.125 5.40113 1.59896 6.10426 2.94271 7.62509C4.83333 8.40113 6.20313 8.94801 7.72917 8.8178C9.09896 8.22405 11.2969 7.26572 12.6927 5.25009C14.8385 4.18759 16.9844 3.1303 19.2083 2.14592C21.6094 2.27613 23.2396 2.3803 24.5833 3.38551C25.901 4.26572 27.1406 5.73967 27.5052 5.68759C27.6615 5.45322 27.6094 4.96363 27.5573 4.6303C27.2969 4.47405 27.2188 4.72926 27.1927 4.72926C27.1927 4.72926 27.4792 4.52613 27.5573 4.6303C27.6615 4.72926 25.5677 2.14592 23.651 1.42197C21.7917 1.18759 19.3854 0.906341 17.2135 2.04176C15.0417 2.94801 12.6146 3.98447 11.0104 6.07822C8.68229 7.36988 8.16667 7.65113 7.54688 7.65113C6.95313 7.70322 4.29167 8.04176 2.47917 5.71363C0.359375 4.52613 0.723958 4.68238 0.671875 4.65634C0.671875 4.65634 0.385417 4.39592 0.28125 4.36988C0.177083 4.36988 0.177083 4.72926 0.229167 4.85947" fill="#D72333"/>
</g>
</svg>
