<svg width="8" height="16" viewBox="0 0 8 16" fill="none" xmlns="http://www.w3.org/2000/svg">
<mask id="mask0_24_3578" style="mask-type:luminance" maskUnits="userSpaceOnUse" x="0" y="0" width="8" height="16">
<path d="M0 0H8V15.9896H0V0Z" fill="white"/>
</mask>
<g mask="url(#mask0_24_3578)">
<path d="M3.79688 15.416C2.84896 15.416 2.09375 15.1243 1.52604 14.541C0.953124 13.9473 0.671875 13.1556 0.671875 12.166V4.49935C0.671875 4.44727 0.682292 4.4056 0.713542 4.37435C0.755208 4.33268 0.802083 4.31185 0.859375 4.31185H2.69271C2.74479 4.31185 2.78646 4.33268 2.81771 4.37435C2.85938 4.4056 2.88021 4.44727 2.88021 4.49935V12.3952C2.88021 12.7285 2.96354 12.9993 3.13021 13.2077C3.29688 13.416 3.51563 13.5202 3.79688 13.5202C4.05729 13.5202 4.27604 13.416 4.44271 13.2077C4.60938 12.9993 4.69271 12.7285 4.69271 12.3952V4.49935C4.69271 4.44727 4.70312 4.4056 4.73438 4.37435C4.77604 4.33268 4.82292 4.31185 4.88021 4.31185H6.71354C6.76563 4.31185 6.80729 4.33268 6.83854 4.37435C6.88021 4.4056 6.90104 4.44727 6.90104 4.49935V12.166C6.90104 13.1556 6.61458 13.9473 6.04688 14.541C5.47396 15.1243 4.72396 15.416 3.79688 15.416ZM5.21354 3.39518C4.86458 3.39518 4.57292 3.2806 4.33854 3.04102C4.09896 2.80664 3.98438 2.51497 3.98438 2.16602C3.98438 1.79102 4.09375 1.49414 4.31771 1.27018C4.55208 1.03581 4.84896 0.916016 5.21354 0.916016C5.58854 0.916016 5.88542 1.03581 6.10938 1.27018C6.34375 1.49414 6.46354 1.79102 6.46354 2.16602C6.46354 2.51497 6.34375 2.80664 6.10938 3.04102C5.86979 3.2806 5.57292 3.39518 5.21354 3.39518ZM2.31771 3.39518C1.96875 3.39518 1.67708 3.2806 1.44271 3.04102C1.20312 2.80664 1.08854 2.51497 1.08854 2.16602C1.08854 1.79102 1.19792 1.49414 1.42188 1.27018C1.65625 1.03581 1.95312 0.916016 2.31771 0.916016C2.69271 0.916016 2.98958 1.03581 3.21354 1.27018C3.44792 1.49414 3.56771 1.79102 3.56771 2.16602C3.56771 2.51497 3.44792 2.80664 3.21354 3.04102C2.97396 3.2806 2.67708 3.39518 2.31771 3.39518Z" fill="#D72333"/>
</g>
</svg>
