<svg width="5" height="8" viewBox="0 0 5 8" fill="none" xmlns="http://www.w3.org/2000/svg">
<mask id="mask0_25_10995" style="mask-type:luminance" maskUnits="userSpaceOnUse" x="0" y="0" width="5" height="8">
<path d="M0 0H4.33854V8H0V0Z" fill="white"/>
</mask>
<g mask="url(#mask0_25_10995)">
<path d="M3.04069 7.18831C2.9834 7.18831 2.94694 7.16227 2.93652 7.10498L2.70736 5.97998C2.70736 5.96956 2.69694 5.95915 2.68652 5.95915C2.68652 5.95915 2.67611 5.95915 2.66569 5.95915H1.01986C1.01986 5.95915 1.00944 5.95915 0.999024 5.95915C0.983398 5.95915 0.97819 5.96956 0.97819 5.97998L0.749023 7.10498C0.749023 7.16227 0.717773 7.18831 0.66569 7.18831H0.207357C0.16569 7.18831 0.134439 7.18311 0.124023 7.16748C0.108398 7.14144 0.108398 7.1154 0.124023 7.08415L1.47819 0.938314C1.48861 0.886231 1.52506 0.85498 1.58236 0.85498H2.12402C2.17611 0.85498 2.20736 0.886231 2.20736 0.938314L3.58236 7.08415V7.10498C3.58236 7.16227 3.55111 7.18831 3.49902 7.18831H3.04069ZM1.10319 5.39665C1.10319 5.41227 1.1084 5.41748 1.12402 5.41748H2.56152C2.57194 5.41748 2.58236 5.41227 2.58236 5.39665L1.85319 1.83415C1.85319 1.82373 1.84277 1.81331 1.83236 1.81331C1.83236 1.81331 1.83236 1.82373 1.83236 1.83415L1.10319 5.39665Z" fill="#D72333"/>
</g>
</svg>
