<svg width="114" height="8" viewBox="0 0 114 8" fill="none" xmlns="http://www.w3.org/2000/svg">
<mask id="mask0_24_6575" style="mask-type:luminance" maskUnits="userSpaceOnUse" x="0" y="0" width="114" height="8">
<path d="M0 0H113.719V7.97917H0V0Z" fill="white"/>
</mask>
<g mask="url(#mask0_24_6575)">
<path d="M26.6457 8.11979L21.578 3.52604L16.4894 8.11979L11.4217 3.52604L6.354 8.11979L0.400879 2.73438L2.15088 0.791667L6.354 4.57812L11.4217 0L16.4894 4.57812L21.578 0L26.6457 4.57812L31.7134 0L36.7863 4.57812L41.8696 0L46.9373 4.57812L52.0103 0L57.0936 4.57812L62.1613 0L67.2342 4.57812L72.3019 0L77.3853 4.57812L82.4582 0L87.5259 4.57812L92.6092 0L97.6821 4.57812L102.75 0L107.833 4.57812L112.021 0.791667L113.771 2.73438L107.833 8.11979L102.75 3.52604L97.6821 8.11979L92.6092 3.52604L87.5259 8.11979L82.4582 3.52604L77.3853 8.11979L72.3019 3.52604L67.2342 8.11979L62.1613 3.52604L57.0936 8.11979L52.0103 3.52604L46.9373 8.11979L41.8696 3.52604L36.7863 8.11979L31.7134 3.52604L26.6457 8.11979Z" fill="#D72333"/>
</g>
</svg>
