<svg width="59" height="92" viewBox="0 0 59 92" fill="none" xmlns="http://www.w3.org/2000/svg">
<g clip-path="url(#clip0_31_20656)">
<path d="M46.8101 78.6606L45.8736 78.9132C45.6789 78.9662 45.5798 78.9078 45.5307 78.7253L43.2165 70.0321C43.1674 69.8488 43.2219 69.7364 43.4165 69.6834L44.3531 69.4308C44.5352 69.3822 44.6379 69.4523 44.6861 69.6357L47.0003 78.328C47.0494 78.5114 46.9923 78.6112 46.8101 78.6606ZM44.195 79.3653L43.2585 79.6179C43.0763 79.6674 42.9638 79.6134 42.9156 79.4301L41.1594 72.8313C41.1103 72.6479 41.18 72.5454 41.363 72.496L42.2996 72.2434C42.4817 72.194 42.5942 72.2488 42.6424 72.4313L44.3995 79.0301C44.4486 79.2134 44.3781 79.3168 44.1959 79.3653M41.6585 80.0485L40.7219 80.3011C40.5264 80.3532 40.4273 80.2966 40.3791 80.1132L39.1907 75.6493C39.0059 74.9554 38.7452 74.6039 38.2122 74.7486C38.1077 74.7765 38.0167 74.8169 37.9372 74.8664L37.5917 73.5693C37.7765 73.4165 38.014 73.2861 38.3175 73.2043C39.4497 72.8996 40.2264 73.616 40.571 74.9122L41.8505 79.7168C41.8987 79.9002 41.8415 80 41.6594 80.0485M38.5238 80.8944L37.5872 81.1469C37.3926 81.1991 37.2935 81.1416 37.2444 80.9591L34.9301 72.2659C34.881 72.0825 34.9346 71.9701 35.1301 71.9171L36.0667 71.6645C36.2489 71.6151 36.3515 71.6861 36.3997 71.8695L37.0622 74.3576L37.6274 76.4781L38.7149 80.5627C38.764 80.746 38.7068 80.8458 38.5238 80.8944ZM34.3498 82.1321C34.0659 82.2085 33.7971 82.2211 33.5552 82.1852L33.2266 80.9519C33.3463 80.9735 33.4695 80.9654 33.598 80.9312C34.2873 80.7451 34.3766 80.0341 33.9204 78.319C33.4605 76.5905 33.0329 76.0322 32.3436 76.2183C32.2159 76.2534 32.1043 76.3091 32.0124 76.3873L31.6865 75.1648C31.8731 75.0084 32.1034 74.8799 32.3722 74.8079C33.7373 74.4394 34.7248 75.2673 35.4292 77.9118C36.1158 80.4908 35.7158 81.7636 34.3498 82.1321ZM33.0016 83.9272L32.0651 84.1798C31.8695 84.2328 31.7704 84.1753 31.7222 83.992L29.5821 75.954C29.533 75.7707 29.5901 75.6709 29.7857 75.6188L30.7222 75.3662C30.9169 75.314 30.9829 75.3518 31.0445 75.5316L33.1918 83.5955C33.2409 83.7789 33.1838 83.8787 33.0016 83.9272ZM28.0143 69.8649C27.3411 71.0982 27.5464 72.0025 27.5464 72.0025C27.5464 72.0025 26.0474 71.4182 25.2224 72.4843C24.3394 73.625 25.3599 74.7531 25.3599 74.7531C25.3599 74.7531 24.609 74.683 23.5832 75.0965C22.5582 75.5091 21.7377 76.266 21.7377 76.266C21.7377 76.266 21.7886 75.1603 20.969 75.2295C20.1493 75.2978 19.9279 75.7212 20.1681 76.266C20.3601 76.7028 20.5529 76.7927 20.6208 76.8116C20.4663 76.7846 19.6476 76.6929 19.3154 77.6961C19.0771 78.4161 19.5538 78.6049 19.7583 78.6741C19.9619 78.7424 20.1681 78.7424 20.1681 78.7424C20.1681 78.7424 20.2359 78.9492 20.2359 79.3617V80.2552C20.2359 80.2552 19.3485 79.4993 18.869 80.1869C18.3914 80.8737 18.869 81.4247 18.869 81.4247C18.869 81.4247 18.3217 81.218 17.8441 81.3564C17.3664 81.493 16.8887 81.6989 16.8887 81.6989C16.8887 81.6989 17.0941 81.218 17.1619 80.7371C17.2298 80.2552 17.2298 79.6359 17.3673 78.604C17.503 77.5729 17.7092 76.3352 18.0503 75.6475C18.3923 74.9599 18.6655 74.4097 18.6655 72.7594C18.6655 71.109 18.5976 69.5269 18.8708 67.8083C19.144 66.0896 19.7601 63.8891 20.5109 63.2697C21.2627 62.6504 21.5359 61.6194 21.6056 60.9317C21.6734 60.2432 22.0154 59.4881 22.2886 58.5245C22.5618 57.5618 23.0394 57.2867 23.5867 56.5999C24.134 55.9114 23.7921 55.0862 23.8599 53.8484C23.9296 52.6107 22.4261 52.1981 22.0841 51.7172C21.7422 51.2363 21.5368 50.6861 20.4449 50.2043C19.3503 49.7225 19.7619 49.585 20.7868 49.86C21.8118 50.1342 22.4261 50.8228 22.9716 51.1661C23.5189 51.5104 23.9965 51.8547 24.9537 52.4039C25.9108 52.9549 25.6367 52.1981 25.5688 51.7172C25.501 51.2363 25.9108 51.0295 26.5938 50.2726C27.2768 49.5158 27.4813 49.4474 27.209 50.0668C26.9357 50.6861 26.5259 51.4421 26.2518 52.1297C25.9795 52.8174 26.867 53.6417 27.2768 53.9869C27.6866 54.3311 28.2339 53.9869 27.9616 53.4358C27.6875 52.8866 28.0295 52.474 28.2348 52.8866C28.4393 53.2992 28.5071 53.2291 28.85 52.7482C29.1901 52.2673 29.6008 51.4421 29.8071 50.8228C30.0124 50.2034 30.2848 49.1023 30.2848 49.1023C30.2848 49.1023 30.4892 50.3401 30.4892 50.8911C30.4892 51.4421 30.0115 52.1972 29.4642 53.2291C28.9169 54.2601 29.8741 55.7047 30.6249 56.0489C31.3776 56.3932 32.1293 55.9114 32.4025 55.0862C32.6766 54.261 32.8811 54.1927 32.8124 55.0179C32.7445 55.8431 32.54 56.1172 32.4722 56.5999C32.4025 57.08 32.882 58.1802 33.1552 58.5928C33.4284 59.0054 33.1552 59.2814 33.0177 59.6939C32.8802 60.1065 33.0177 61.0684 33.0873 62.1695C33.1552 63.2688 33.7704 62.9947 33.3605 63.5439C33.3605 63.5439 32.8829 64.1632 32.7454 64.9201C32.6079 65.677 33.6329 66.1579 33.6329 66.1579C33.6329 66.1579 32.882 66.2963 32.0624 66.5022C31.2428 66.7089 30.9678 67.0514 30.9678 67.0514C30.9678 67.0514 30.6946 66.1579 29.9428 66.0896C29.1919 66.0195 28.6446 66.5022 28.4402 66.9831C28.2357 67.464 28.5777 68.2892 29.2607 68.495C29.2607 68.495 28.5571 68.8833 28.0205 69.864M21.2734 22.9292C20.9136 22.6748 21.1297 22.602 21.6707 22.6388C22.2136 22.6757 22.177 22.7116 22.5743 22.4923C22.9716 22.2748 23.1876 22.2388 23.0787 22.4923C22.9448 22.8087 22.8269 23.0379 22.4287 23.0748C22.0314 23.1117 21.6341 23.1827 21.2734 22.9292ZM20.444 22.202C19.2887 22.1292 19.7583 21.5844 20.4806 21.6213C21.2029 21.6572 21.4189 21.4244 21.9127 21.2815C22.4412 21.1296 22.5716 21.1638 23.0796 21.2572C23.4769 21.33 23.2609 21.4038 23.2251 21.7669C23.1885 22.1292 22.9002 21.9844 22.2145 22.1292C21.5288 22.2757 21.6011 22.2757 20.4449 22.202M24.0894 25.4362C24.3073 25.2169 24.4501 25.109 24.884 25.0002C25.317 24.8906 24.9206 25.3274 24.7028 25.4362C24.4867 25.5459 24.4867 25.909 24.2706 26.1994C24.0528 26.4897 23.9457 26.2713 23.8733 26.0537C23.801 25.8362 23.8385 25.6888 24.0894 25.4362ZM25.2447 23.838C25.7152 23.6914 25.5313 23.5854 25.8215 23.2923C25.967 23.1476 26.0376 23.2887 26.2536 23.144C26.4697 22.9984 26.6081 23.0065 26.9331 23.2968C27.2581 23.5872 27.0134 23.8011 26.6518 23.838C26.2911 23.873 26.1822 24.2362 25.7135 24.4546C25.2429 24.6721 24.8465 24.4177 24.3055 24.1993C23.7626 23.9818 24.7733 23.9818 25.2438 23.838M25.2813 19.7327C25.8581 19.5502 26.5447 19.5502 27.1938 19.0424C27.8438 18.5327 28.5294 17.8792 28.3857 18.5695C28.2402 19.2599 28.2045 19.6968 27.6277 19.6968C27.0509 19.6968 26.7259 19.8774 26.1474 20.2406C25.5706 20.6046 25.1724 20.6775 25.3179 21.1853C25.4617 21.695 25.209 22.2029 24.9929 21.7678C24.7751 21.3318 24.6314 21.295 24.6314 21.0046C24.6314 20.5615 24.7028 19.9143 25.2813 19.7336M28.4223 20.2765C28.4223 20.6037 28.3134 20.7125 28.0607 21.0397C27.8071 21.3669 27.6223 21.5035 27.1206 21.4029C26.7599 21.33 26.6884 21.0397 27.2295 20.8572C27.7705 20.6766 27.7705 20.6037 28.0241 20.2037C28.2768 19.8037 28.4214 19.9493 28.4214 20.2765M27.9527 24.0186C27.8071 24.309 27.8723 24.4168 27.7268 24.8169C27.5839 25.2151 27.5188 25.3993 27.1215 25.545C26.7259 25.6888 26.6536 25.6888 26.2197 25.8722C25.7858 26.0537 25.5492 25.9225 25.2447 25.8722C24.8117 25.7993 25.317 25.6169 25.6063 25.545C25.8947 25.4722 26.5063 25.4101 27.0473 25.1198C27.5884 24.8294 26.3992 25.109 25.8581 25.2169C25.317 25.3265 25.4251 25.1818 25.7152 24.9993C26.0036 24.8178 26.3652 24.7449 26.7608 24.6362C27.1581 24.5283 27.3393 24.2721 27.592 23.873C27.8438 23.4748 28.0982 23.7292 27.9527 24.0195M40.7862 70.4348L41.7746 70.1679C41.9567 70.1184 42.0683 70.1733 42.121 70.3692L42.3442 71.207C42.3933 71.3904 42.3228 71.4937 42.1406 71.5423L41.1523 71.8092C40.9701 71.8587 40.8585 71.8047 40.8094 71.6214L40.5862 70.7836C40.5344 70.5876 40.6041 70.4843 40.7862 70.4348ZM58.3616 81.8364C57.6089 81.2854 56.5161 81.2854 56.5161 81.2854C56.5161 81.2854 57.1313 79.7725 56.8581 78.0548C56.584 76.3343 55.9688 75.7149 55.9688 75.7149C55.9688 75.7149 56.6295 74.55 55.3536 74.0646C54.5876 73.7742 54.4662 74.4771 54.4662 74.4771C54.4662 74.4771 54.0564 74.0664 53.3733 73.8578C52.6894 73.6511 52.0743 73.6511 52.0743 73.6511C52.0743 73.6511 52.9635 73.5144 53.0992 71.3823C53.2367 69.251 51.0493 67.3256 51.0493 67.3256C51.0493 67.3256 52.1439 67.0496 51.8689 66.2945C51.5966 65.5377 50.5716 65.7435 50.5716 65.7435C50.5716 65.7435 50.3788 64.5597 49.2047 64.5057C48.0789 64.4545 48.1119 65.2626 48.1119 65.2626C48.1119 65.2626 46.745 64.3673 45.4477 65.0558C44.1495 65.7435 43.3977 66.8428 43.1924 67.4622C42.987 68.0806 43.1924 66.9813 42.5094 66.2945C41.8246 65.606 41.4844 65.5377 41.4844 65.5377C41.4844 65.5377 42.304 64.2999 41.0746 63.819C39.8443 63.3372 39.23 62.9237 38.4095 61.9619C37.5899 60.9991 37.3836 60.7241 37.7256 59.8989C38.0676 59.0737 38.6149 57.9726 38.8881 56.1154C39.1604 54.2583 38.8881 53.159 39.23 52.4021C39.5702 51.647 39.7077 50.4776 39.4345 49.7899C39.1604 49.1014 39.4327 47.3827 38.272 46.9018C37.1095 46.42 36.7006 46.42 36.2221 46.6258C35.7444 46.8326 35.6042 46.2213 34.6498 45.9391C33.49 45.5948 32.465 46.1449 31.6445 46.9018C30.824 47.6578 29.8669 48.482 29.1848 49.3773C28.5 50.2708 27.3384 50.2025 29.0473 48.482C30.7553 46.7634 32.3267 45.7323 32.874 45.2514C33.4195 44.7687 33.4195 43.9435 32.1901 44.3561C30.9606 44.7687 30.6196 45.0447 30.0723 45.4582C29.525 45.8708 28.7741 45.9391 30.0044 44.9755C31.2347 44.0136 31.6445 43.9444 31.5749 43.2568C31.507 42.57 31.3026 42.3633 30.8919 42.3633C30.4812 42.3633 31.3695 41.3997 31.0972 40.8495C30.824 40.3012 30.9597 40.0945 31.1651 39.6118C31.3704 39.1308 31.4392 38.7866 31.4392 38.7866C31.4392 38.7866 32.0767 39.4392 32.3588 39.8167C32.6409 40.196 33.5802 40.9529 33.174 40.1637C32.765 39.3753 32.5463 39.343 32.5463 39.1228C32.5463 38.9025 32.8918 39.1857 33.174 39.4697C33.4561 39.752 33.7686 40.3839 34.8025 40.6041C35.8373 40.8244 36.1506 40.668 36.3381 40.5107C36.5274 40.3515 36.589 39.9749 36.0265 40.0684C35.4623 40.1637 34.9605 39.752 34.4275 39.4383C33.8945 39.1228 33.3936 38.9016 33.2677 38.6814C33.1427 38.4594 33.1115 38.1448 33.7391 38.6499C34.365 39.1542 36.4337 39.7852 37.7506 39.7529C39.0666 39.7232 39.5684 39.2801 39.7559 38.996C39.9434 38.712 39.7559 38.3659 39.255 38.5547C38.7532 38.7434 37.1863 38.8711 36.4971 38.6185C35.8078 38.3659 35.6185 38.2391 35.1176 37.9245C34.6168 37.609 34.6793 37.4185 35.6185 37.7349C36.5587 38.0504 37.1542 38.587 39.5996 38.0504C42.0442 37.5137 43.1728 36.9142 43.5799 36.5366C43.9879 36.1573 43.862 35.4643 42.8594 35.8733C41.8567 36.284 40.4469 36.7254 39.0988 36.6939C37.7506 36.6625 36.8721 36.5052 36.4024 36.5052C35.9328 36.5052 35.3364 36.0324 36.9667 36.1888C38.597 36.3479 39.4416 36.3479 41.1969 35.8427C42.954 35.3366 44.2388 34.7379 44.8959 34.1384C45.5557 33.5388 45.8361 32.6247 44.8647 32.9087C43.8933 33.1928 42.6397 33.0651 42.2317 33.413C41.8246 33.76 41.1041 33.9173 40.3836 33.822C39.663 33.7285 39.2541 33.6961 38.7524 33.9487C38.2515 34.2013 37.4363 34.4854 37.0604 34.2948C36.6837 34.106 36.589 33.9487 37.6551 33.7285C38.7211 33.5083 39.6925 33.3177 40.7898 33.3492C41.8871 33.3806 42.2308 33.0336 42.671 32.6876C43.1094 32.3397 43.4861 31.3311 43.737 30.1006C43.9879 28.8691 44.1442 26.7567 44.5209 25.1477C44.8959 23.5386 44.9914 22.9067 45.4289 22.5292C45.8673 22.1498 46.1494 21.8972 46.3387 21.6132C46.5262 21.3309 46.9012 21.0469 47.2467 21.0145C47.5914 20.9831 48.2494 20.5103 48.469 20.1309C48.6878 19.7534 48.7199 19.2167 48.9074 19.0262C49.0967 18.8374 48.7833 18.1444 48.4065 17.7965C48.0315 17.4495 47.9056 17.2922 47.6226 17.6715C47.3414 18.0491 46.7771 17.1673 46.5887 17.828C46.4012 18.4895 45.6173 17.5439 45.5861 18.3961C45.5566 19.2482 45.2423 19.8783 44.5218 19.437C43.7995 18.9947 43.362 18.6477 42.9549 18.521C42.546 18.3952 42.4219 17.9853 42.3585 17.6068C42.2951 17.2275 41.8576 16.2819 41.5121 16.7232C41.1684 17.1664 41.23 17.9232 41.4192 18.5525C41.6067 19.1844 41.7942 19.6572 41.9201 20.3188C42.0451 20.9822 42.1076 21.2024 41.7621 22.0869C41.4183 22.9687 41.1362 24.3261 40.6978 25.2097C40.2577 26.0915 39.7568 26.8807 39.4425 27.5738C39.1309 28.2686 38.9416 28.6785 37.8452 28.7729C36.7479 28.8664 35.964 28.6776 35.5248 28.4259C35.0864 28.1733 34.3659 27.8578 33.8016 27.7958C33.2373 27.7329 33.049 27.0695 31.8276 27.2277C30.6053 27.385 30.2919 27.5117 29.7901 27.3535C29.2892 27.1962 28.6928 26.9122 28.1598 26.7854C27.6268 26.6596 27.3152 26.5967 27.6589 26.1238C28.0045 25.651 28.1598 25.8713 28.5053 25.4308C28.8491 24.9876 28.9125 24.6101 29.2892 24.451C29.6642 24.2946 30.1973 23.7256 30.166 23.0002C30.1365 22.2748 29.8544 21.5494 29.6964 20.9184C29.541 20.2882 29.258 19.7201 29.5089 19.3408C29.7598 18.9633 29.9473 18.5839 29.7598 18.3313C29.5723 18.0787 29.6017 17.9538 29.6017 17.9538C29.6017 17.9538 29.9464 18.0796 30.3553 17.9853C30.7624 17.89 30.449 18.4266 31.0445 18.299C31.641 18.1731 32.174 17.9529 31.7651 17.5421C31.3579 17.1331 31.2642 17.1007 31.6401 16.8805C32.0151 16.6603 32.5481 16.2486 32.0472 15.8396C31.5463 15.4288 31.891 15.2715 31.5142 15.0189C31.1392 14.7663 31.1374 14.4823 31.4829 14.4194C31.8285 14.3555 32.5168 14.1982 32.549 13.569C32.5802 12.9371 32.4865 12.244 32.1418 12.1164C31.7972 11.9914 31.0133 11.1384 31.5776 11.1384C32.1418 11.1384 32.8311 10.6341 32.3302 10.2233C31.8293 9.81342 31.6401 9.81342 31.4204 10.066C31.2017 10.3186 30.5437 10.066 30.6999 9.68668C30.8579 9.30914 30.8579 8.86778 31.2008 8.89924C31.5463 8.92891 31.3901 8.3626 31.891 8.39496C32.3918 8.42463 32.8311 7.82686 32.424 7.51135C32.0159 7.19494 31.7017 7.41607 31.6401 7.06999C31.5767 6.72212 31.5767 6.34279 31.7963 6.15402C32.0151 5.96525 31.8276 4.73467 30.9812 5.1131C30.1356 5.49243 29.9464 5.49243 29.4455 5.14456C28.9446 4.79669 28.7884 4.73467 29.1946 4.51264C29.6026 4.29241 30.4481 3.85105 29.8535 3.28295C29.2571 2.71485 28.7875 2.90542 28.9125 2.65283C29.0384 2.40024 28.4741 1.51663 28.192 2.05327C27.9098 2.58991 27.3768 2.93688 27.0643 2.49462C26.75 2.05327 26.75 1.42224 26.1224 1.48606C25.4965 1.54899 25.0885 1.4546 25.0885 1.13999C25.0885 0.825377 23.8983 0.508068 24.1805 1.20201C24.4617 1.89686 24.4314 2.21147 24.0224 2.24293C23.6153 2.27439 23.2698 1.83394 23.4894 1.61281C23.7099 1.39258 22.8627 1.39258 23.051 1.07617C23.2385 0.760657 23.1457 0.224017 22.8002 0.633913C22.4546 1.04471 21.9234 1.73865 21.7663 1.39258C21.61 1.04471 21.1065 0.0990711 20.7636 0.412785C20.4181 0.729196 20.136 1.01325 20.0743 0.603351C20.0118 0.192556 19.2279 -0.280262 19.1646 0.192556C19.1012 0.665374 19.4154 0.981785 19.0083 1.13999C18.6003 1.2964 19.0083 2.02181 18.2565 1.80158C17.5039 1.58135 16.97 1.58135 16.7816 2.21147C16.5941 2.84339 16.6887 3.34767 16.2486 2.84339C15.8102 2.33911 15.4352 2.40204 15.5281 2.08653C15.6227 1.77012 15.1218 1.10853 14.7442 1.51842C14.3692 1.92922 14.2433 2.33911 14.462 2.49552C14.6817 2.65463 14.6513 3.09598 14.0549 3.15891C13.4594 3.22273 12.9576 3.25239 13.021 3.91578C13.0844 4.57736 12.9576 4.705 12.488 4.705C12.0183 4.705 11.3291 5.114 11.2978 4.76793C11.2666 4.42095 10.4827 4.16836 10.4827 4.76793C10.4827 5.36749 10.7648 5.42951 10.5452 5.71446C10.3264 5.99851 10.0738 6.59807 10.2005 6.94415C10.3264 7.29202 10.2639 7.44843 10.2639 7.44843C10.2639 7.44843 10.9211 6.97561 11.3612 7.19584C11.7996 7.41607 12.4567 7.82776 12.6755 8.52081C12.896 9.21386 12.9576 9.37296 12.8022 9.56173C12.6442 9.7505 12.0183 9.78196 12.6755 10.1298C13.3353 10.4768 14.0236 10.6026 14.1504 11.3281C14.2754 12.0535 13.3353 12.653 12.8969 12.4328C12.4567 12.2126 11.5487 11.2031 11.1407 11.5492C10.7336 11.8962 10.8898 12.2755 10.8586 12.6216C10.8282 12.9694 10.8282 12.9056 10.6711 13.222C10.5148 13.5375 10.3273 14.4202 10.6711 14.4517C11.0166 14.4832 10.7961 14.7996 11.0166 15.0522C11.2353 15.3048 11.4862 15.3982 11.2675 15.6517C11.0487 15.9043 10.6103 16.4086 11.1728 16.6297C11.7371 16.85 11.6442 17.0711 11.5496 17.3228C11.455 17.5754 11.6425 18.0158 11.988 17.9844C12.3326 17.9538 12.4889 18.2379 12.2701 18.5839C12.0505 18.9309 11.2987 20.0042 12.2067 20.1615C13.1165 20.3188 13.9317 20.5094 13.679 20.8249C13.4281 21.1386 13.8683 22.1184 14.3692 21.8029C14.87 21.4874 15.2459 21.108 15.6861 21.4865C16.1245 21.8658 15.8102 22.7161 16.4066 22.6227C17.003 22.5274 17.1271 22.78 17.003 23.0326C16.8762 23.2851 17.4726 23.758 17.6601 23.5692C17.8476 23.3804 17.8155 24.3261 18.3173 24.0105C18.8181 23.6941 19.1324 23.4739 19.1324 23.4739C19.1324 23.4739 19.2904 23.9485 19.6333 24.2308C19.9788 24.5148 20.1976 24.7054 20.1976 25.0515C20.1976 25.3975 20.2288 25.7787 20.6359 25.9989C21.044 26.2191 21.3261 26.5652 21.3261 26.5652C21.3261 26.5652 20.7297 26.7243 20.4163 26.5967C20.1047 26.4708 19.4762 26.2191 18.9753 25.8398C18.4744 25.4623 17.3762 24.6416 16.3736 24.389C15.3709 24.1364 14.6183 23.2528 13.4263 22.8114C12.2362 22.3701 12.4255 22.086 12.0799 21.7381C11.7344 21.3903 11.5157 21.5494 11.5469 21.2024C11.5782 20.8545 11.1702 20.4455 10.9193 19.6887C10.6684 18.9318 10.3862 17.6068 10.2309 16.7861C10.0729 15.9654 10.355 15.4297 10.2309 15.0513C10.1041 14.6719 9.98001 14.6719 9.66663 14.831C9.35235 14.9875 9.47913 14.4202 8.94611 14.3564C8.41309 14.2944 8.31845 14.1362 7.75418 14.2944C7.19081 14.4508 6.59529 14.4508 7.3792 14.1353C8.1631 13.8216 8.56934 14.0418 8.03632 13.5052C7.5033 12.9694 7.78722 12.8733 7.44169 12.653C7.09706 12.4328 7.5033 11.9914 7.97471 12.6845C8.44523 13.3775 8.66398 13.5366 9.07111 13.8504C9.47913 14.1668 9.91751 14.4499 10.0443 14.0724C10.1693 13.693 10.2639 13.3775 9.94965 13.1564C9.63538 12.9353 9.2586 12.3357 9.82287 12.715C10.3871 13.0926 10.5764 12.6836 10.513 12.2719C10.4505 11.862 10.1684 11.0737 10.7005 11.0737C11.2326 11.0737 11.4844 11.1051 11.8612 11.2328C12.2362 11.3586 13.3022 12.3986 13.5531 11.8944C13.804 11.3901 13.804 11.106 13.146 10.7582C12.4871 10.4121 11.6085 10.2853 11.9228 9.7487C12.2371 9.21296 12.4558 8.67632 11.83 8.23496C11.2023 7.7936 10.4184 7.47809 10.105 8.2035C9.79341 8.92891 10.105 9.3397 9.38449 9.15093C8.66398 8.96037 8.47648 9.49701 8.2256 9.68578C7.97471 9.87634 7.34795 10.2224 6.75154 10.6647C6.15691 11.106 5.81139 11.8314 5.93817 12.9362C6.06316 14.0409 6.03102 14.8598 6.06316 15.8072C6.09441 16.7529 6.18905 18.5507 6.47029 19.5601C6.75243 20.5696 6.94171 21.8011 7.00331 22.4312C7.06671 23.0631 7.03456 23.4407 7.63097 23.9764C8.22649 24.513 8.44613 25.1764 9.10325 25.6492C9.76216 26.1221 10.2639 26.5328 10.8586 27.163C11.4541 27.7949 12.0817 28.2362 13.304 28.9617C14.5263 29.6871 14.9031 29.9711 15.0272 30.2866C15.1531 30.603 15.6548 31.012 14.3379 30.6965C13.0219 30.3819 12.8022 29.7823 11.6737 29.6871C10.5461 29.5936 9.54163 29.9397 7.1292 28.994C4.71499 28.0475 3.36682 27.669 2.5222 27.1009C1.6758 26.5328 2.11418 25.8389 1.29902 25.3661C0.485654 24.8933 -0.236645 24.3881 0.0767379 26.1868C0.391014 27.9855 1.17403 29.8462 2.30346 30.1608C3.4311 30.4763 4.4025 30.2561 5.12301 30.5401C5.84531 30.8242 7.22474 31.1397 8.35238 31.5181C9.48181 31.8974 11.9255 32.4017 9.92019 32.4655C7.91489 32.5276 7.47562 31.6134 6.12834 31.2979C4.78017 30.9815 3.99626 30.9509 3.40074 30.9185C2.80612 30.888 2.33471 30.888 1.67758 30.5725C1.02046 30.2561 0.235662 29.4992 0.768681 30.8251C1.29992 32.15 1.61419 33.0327 3.08647 33.2224C4.56053 33.4112 7.0051 33.475 7.78811 33.8211C8.57202 34.1689 9.48181 34.453 10.0764 34.5779C10.672 34.7047 10.672 35.1146 9.7327 35.0526C8.79165 34.9887 8.60416 34.6094 6.94171 34.3892C5.28194 34.169 4.15251 34.1689 3.21236 33.9164C2.27221 33.6638 1.26956 33.6323 2.14632 34.5779C3.02486 35.5254 3.58913 35.8715 4.81142 36.2508C6.03281 36.6283 8.28988 37.1029 9.44967 37.0077C10.6086 36.9124 11.8942 37.0077 10.7353 37.2917C9.57466 37.5758 8.79076 37.4805 7.69526 37.5443C6.59797 37.6081 5.50068 37.1029 4.96766 36.9124C4.43464 36.7236 3.02486 36.6283 3.74538 37.3555C4.46589 38.0809 5.53193 38.3012 6.72207 38.6176C7.914 38.9331 8.69791 39.343 10.2336 38.9331C11.7692 38.5223 12.8665 38.3965 11.7692 38.9331C10.672 39.4697 9.79519 39.752 9.0095 39.6585C8.2256 39.5632 7.1917 39.0266 7.44348 39.69C7.69436 40.3515 8.32024 40.4792 8.97915 40.4792C9.63806 40.4792 10.7657 40.4792 12.0505 40.0046C13.3362 39.5318 13.429 39.4383 13.6478 39.2477C13.8683 39.0589 14.2754 38.8387 13.962 39.3115C13.6486 39.7843 12.8344 40.2895 12.2389 40.5727C11.6425 40.8567 10.3889 40.5727 10.7666 41.0158C11.1416 41.4572 12.3335 41.7727 13.1174 41.1417C13.9013 40.5115 14.1504 40.2275 14.3709 40.0055C14.5906 39.7852 14.7781 39.7232 14.5906 40.1322C14.4031 40.5421 13.8379 41.0158 14.1201 41.1102C14.4022 41.2055 14.5584 41.0167 15.0281 40.3848C15.4986 39.7529 15.6557 39.1866 16.0941 38.9646C16.5325 38.7434 16.8887 38.7183 16.8887 38.7183C16.8887 38.7183 17.4342 40.3003 16.8887 40.9196C16.3414 41.5381 16.2048 43.601 15.9995 44.4945C15.7941 45.388 14.7013 47.0384 14.8388 48.5522C14.9745 50.065 14.9066 51.4403 14.5647 52.7464C14.2245 54.0525 14.087 54.9469 14.4272 56.4597C14.7691 57.9735 15.0424 58.5245 14.9066 59.2805C14.7692 60.0373 15.8638 60.9308 15.2468 61.8935C14.6317 62.8554 13.5388 64.5758 13.5388 66.913C13.5388 69.2501 13.9486 72.0016 14.3584 73.376C14.7683 74.7522 14.2906 75.2331 14.2906 75.99C14.2906 76.7469 13.7433 76.6786 13.2656 77.7788C12.788 78.8781 12.2407 79.2233 12.3085 79.7042C12.3782 80.186 12.3782 80.5294 12.3782 80.5294C11.4889 80.7362 10.5336 80.8719 9.98626 81.9038C9.43895 82.9348 9.43895 83.4176 9.43895 83.4176C9.43895 83.4176 8.61934 81.9038 7.66312 82.4548C6.706 83.0059 6.63815 84.2436 7.25331 84.7929C7.86668 85.3439 8.20864 85.3439 8.20864 85.3439C8.20864 85.3439 7.41402 85.983 7.86668 86.7884C8.40774 87.7484 9.78091 87.0626 9.78091 87.0626C9.78091 87.0626 9.9184 87.477 10.1229 87.8194C10.3273 88.1637 10.6005 88.4388 10.6005 88.4388C10.6005 88.4388 9.8693 89.0428 10.8059 89.4698C11.9005 89.9678 11.8987 88.7822 11.8987 88.7822C11.8987 88.7822 12.9237 89.3314 13.8129 89.1947C14.7004 89.0572 15.1111 88.4379 15.1111 88.4379C15.1111 88.4379 15.3165 88.7822 15.7941 89.0572C16.2736 89.3314 16.9566 89.8141 16.9566 89.8141C16.9566 89.8141 16.1602 91.0249 17.2941 91.6946C18.3351 92.3121 19.2538 91.9427 19.5538 91.0519C19.7413 90.4919 19.6895 90.2267 19.6895 90.2267C19.6895 90.2267 20.7145 90.4325 21.6038 89.6073C22.4912 88.7822 22.9019 88.1628 22.9019 88.1628C22.9019 88.1628 24.3126 88.8154 25.2938 88.6437C26.5474 88.4262 26.825 87.9965 27.0991 87.3781C27.3723 86.7587 27.5482 86.3749 27.5482 86.3749C27.5482 86.3749 28.2009 87.5633 29.2562 86.9259C30.1705 86.3722 29.8035 85.6882 29.8035 85.6882C29.8035 85.6882 30.0767 86.1691 30.6222 86.3075C31.1695 86.4441 31.5794 86.1017 31.5794 86.1017C31.5794 86.1017 31.1222 87.0077 31.3276 87.6262C31.5329 88.2437 32.0624 88.8595 32.8793 88.8514C33.5918 88.8451 34.04 87.9579 34.04 87.9579C34.04 87.9579 34.5873 88.6455 35.065 88.3012C35.5444 87.9579 35.4748 87.5453 35.4748 87.5453C35.4748 87.5453 37.114 88.3705 38.0042 88.1646C38.8916 87.9579 39.5068 87.6136 39.5068 87.6136C39.5068 87.6136 39.5746 88.3705 40.6693 88.3705C41.7639 88.3705 42.5817 86.9259 42.5817 86.9259C42.5817 86.9259 43.2647 87.8877 45.7245 87.8194C48.1842 87.7511 49.0735 87.0626 49.0735 87.0626C49.0735 87.0626 49.5029 88.6221 50.9975 88.7974C52.5903 88.9826 52.9671 87.9579 53.1742 87.4752C53.3787 86.9943 53.4465 86.5133 53.4465 86.5133C53.4465 86.5133 54.4037 87.1327 54.9492 86.4432C55.4965 85.7556 55.0188 84.9313 55.0188 84.9313C55.0188 84.9313 56.8072 86.3336 58.1062 85.0958C59.4044 83.858 59.1187 82.3865 58.3669 81.8364" fill="#F9F1DA"/>
</g>
<defs>
<clipPath id="clip0_31_20656">
<rect width="59" height="92" fill="white"/>
</clipPath>
</defs>
</svg>
