<svg width="5" height="12" viewBox="0 0 5 12" fill="none" xmlns="http://www.w3.org/2000/svg">
<path d="M3.70833 3.375C3.70833 3.26563 3.75521 3.20833 3.85417 3.20833H4.66667C4.76042 3.20833 4.8125 3.26563 4.8125 3.375V10.9792C4.8125 11.0938 4.76042 11.1458 4.66667 11.1458H3.85417C3.75521 11.1458 3.70833 11.0938 3.70833 10.9792V10.4583C3.70833 10.4323 3.69792 10.4167 3.6875 10.4167C3.67187 10.4167 3.65104 10.4271 3.625 10.4375C3.30208 10.9792 2.78125 11.25 2.0625 11.25C1.4375 11.25 0.9375 11.0625 0.5625 10.6875C0.1875 10.3021 0 9.72396 0 8.95833V3.375C0 3.26563 0.0520827 3.20833 0.166667 3.20833H0.958333C1.06771 3.20833 1.125 3.26563 1.125 3.375V8.70833C1.125 9.22396 1.22917 9.61979 1.4375 9.89583C1.65625 10.1615 1.96875 10.2917 2.375 10.2917C2.79167 10.2917 3.11458 10.1406 3.35417 9.83333C3.58854 9.53125 3.70833 9.11458 3.70833 8.58333V3.375ZM3.5625 1.77083C3.29687 1.77083 3.08333 1.6875 2.91667 1.52083C2.76042 1.35417 2.6875 1.14583 2.6875 0.895833C2.6875 0.635417 2.76042 0.416667 2.91667 0.25C3.08333 0.0833333 3.29687 0 3.5625 0C3.8125 0 4.02083 0.0833333 4.1875 0.25C4.35417 0.416667 4.4375 0.635417 4.4375 0.895833C4.4375 1.14583 4.35417 1.35417 4.1875 1.52083C4.02083 1.6875 3.8125 1.77083 3.5625 1.77083ZM1.22917 1.77083C0.963541 1.77083 0.75 1.6875 0.583333 1.52083C0.427083 1.35417 0.354167 1.14583 0.354167 0.895833C0.354167 0.635417 0.427083 0.416667 0.583333 0.25C0.75 0.0833333 0.963541 0 1.22917 0C1.47917 0 1.6875 0.0833333 1.85417 0.25C2.02083 0.416667 2.10417 0.635417 2.10417 0.895833C2.10417 1.14583 2.02083 1.35417 1.85417 1.52083C1.6875 1.6875 1.47917 1.77083 1.22917 1.77083Z" fill="#D72333"/>
</svg>
