<svg width="6" height="9" viewBox="0 0 6 9" fill="none" xmlns="http://www.w3.org/2000/svg">
<path d="M2.08333 8.10417C1.42708 8.10417 0.916667 7.95313 0.541667 7.64583C0.177083 7.32813 0 6.89583 0 6.35417C0 6.21875 0.005208 6.11979 0.0208333 6.0625L0.0416667 5.95833C0.0416667 5.91667 0.0520827 5.88542 0.0833333 5.85417C0.109375 5.8125 0.151041 5.79167 0.208333 5.79167H0.9375C1.03125 5.79167 1.08333 5.84896 1.08333 5.95833L1.0625 6.04167C1.02083 6.375 1.10417 6.66146 1.3125 6.89583C1.52083 7.11979 1.81771 7.22917 2.20833 7.22917C2.59375 7.22917 2.92187 7.09896 3.1875 6.83333C3.44792 6.57292 3.58333 6.23958 3.58333 5.83333C3.58333 5.61458 3.52083 5.41667 3.39583 5.25C3.27083 5.08333 3.125 4.95833 2.95833 4.875C2.80208 4.79167 2.55208 4.66667 2.20833 4.5C1.875 4.34896 1.58854 4.20313 1.35417 4.0625C1.13021 3.91146 0.9375 3.70833 0.770833 3.45833C0.614584 3.20833 0.541667 2.89583 0.541667 2.52083C0.541667 2.36979 0.546875 2.25 0.5625 2.16667C0.645833 1.5 0.906251 0.973959 1.35417 0.583333C1.79687 0.197916 2.35937 0 3.04167 0C3.67708 0 4.17188 0.166667 4.52083 0.5C4.86458 0.833333 5.04167 1.28646 5.04167 1.85417C5.04167 2.01042 5.03125 2.11979 5.02083 2.1875V2.22917C5.00521 2.34375 4.94792 2.39583 4.85417 2.39583H4.14583C4.04688 2.39583 4.00521 2.34375 4.02083 2.22917V2.14583C4.03125 2.10417 4.04167 2.04167 4.04167 1.95833C4.04167 1.65625 3.9375 1.40625 3.72917 1.20833C3.53125 1.01563 3.27083 0.916667 2.9375 0.916667C2.58854 0.916667 2.29167 1.03646 2.04167 1.27083C1.79167 1.51042 1.63542 1.80208 1.58333 2.14583C1.55208 2.39583 1.59375 2.61458 1.70833 2.79167C1.81771 2.95833 1.96354 3.09896 2.14583 3.20833C2.32292 3.32292 2.58333 3.45313 2.91667 3.60417C3.27604 3.77083 3.56771 3.93229 3.79167 4.08333C4.02604 4.23958 4.22917 4.4375 4.39583 4.6875C4.57292 4.9375 4.66667 5.26042 4.66667 5.64583C4.66667 6.38542 4.42188 6.97917 3.9375 7.4375C3.46354 7.88542 2.84375 8.10417 2.08333 8.10417Z" fill="#D72333"/>
</svg>
