<svg width="9" height="19" viewBox="0 0 9 19" fill="none" xmlns="http://www.w3.org/2000/svg">
<path d="M8.4375 1.39583C8.4375 1.5625 8.34375 1.64583 8.16667 1.64583H2C1.92708 1.64583 1.89583 1.68229 1.89583 1.75V8.35417C1.89583 8.42708 1.92708 8.45833 2 8.45833H5.875C6.05208 8.45833 6.14583 8.55208 6.14583 8.72917V9.875C6.14583 10.0573 6.05208 10.1458 5.875 10.1458H2C1.92708 10.1458 1.89583 10.1823 1.89583 10.25V16.875C1.89583 16.9479 1.92708 16.9792 2 16.9792H8.16667C8.34375 16.9792 8.4375 17.0729 8.4375 17.25V18.3542C8.4375 18.5365 8.34375 18.625 8.16667 18.625H0.270833C0.0885413 18.625 0 18.5365 0 18.3542V0.270833C0 0.0937493 0.0885413 0 0.270833 0H8.16667C8.34375 0 8.4375 0.0937493 8.4375 0.270833V1.39583Z" fill="#D72333"/>
</svg>
