<svg width="4" height="6" viewBox="0 0 4 6" fill="none" xmlns="http://www.w3.org/2000/svg">
<path d="M1.64583 5.5625C1.14583 5.5625 0.739584 5.41667 0.4375 5.125C0.145833 4.82292 0 4.42708 0 3.9375V1.64583C0 1.16146 0.145833 0.765625 0.4375 0.458333C0.739584 0.156249 1.14583 0 1.64583 0C1.97917 0 2.27083 0.072916 2.52083 0.208333C2.78125 0.348959 2.98437 0.531249 3.125 0.75C3.26042 0.973959 3.33333 1.21875 3.33333 1.47917V1.58333C3.33333 1.66667 3.29687 1.70833 3.22917 1.70833L2.6875 1.72917C2.61458 1.72917 2.58333 1.69792 2.58333 1.625V1.54167C2.58333 1.30729 2.48958 1.10417 2.3125 0.9375C2.14583 0.760417 1.92187 0.666667 1.64583 0.666667C1.38021 0.666667 1.16667 0.765625 1 0.958333C0.833333 1.14063 0.75 1.38542 0.75 1.6875V3.875C0.75 4.18229 0.833333 4.43229 1 4.625C1.16667 4.80729 1.38021 4.89583 1.64583 4.89583C1.92187 4.89583 2.14583 4.8125 2.3125 4.64583C2.48958 4.46875 2.58333 4.26563 2.58333 4.04167V3.95833C2.58333 3.89063 2.61458 3.85417 2.6875 3.85417H3.22917C3.29687 3.85417 3.33333 3.89063 3.33333 3.95833V4.08333C3.33333 4.51563 3.17708 4.86979 2.875 5.14583C2.56771 5.42708 2.15625 5.5625 1.64583 5.5625Z" fill="#D72333"/>
</svg>
