<svg width="7" height="11" viewBox="0 0 7 11" fill="none" xmlns="http://www.w3.org/2000/svg">
<path d="M6.4375 0C6.48958 0 6.53125 0.0208333 6.5625 0.0625C6.58854 0.0937507 6.59375 0.135417 6.58333 0.1875L6.39583 1.70833C6.39583 1.76563 6.375 1.8125 6.33333 1.85417C6.29167 1.88542 6.25 1.89583 6.20833 1.89583H4.29167C4.26042 1.89583 4.23958 1.90625 4.22917 1.91667C4.21354 1.93229 4.20833 1.95313 4.20833 1.97917L3.125 10.7917C3.10937 10.849 3.08333 10.8958 3.04167 10.9375C3.01042 10.9688 2.96875 10.9792 2.91667 10.9792H1.125C1.08333 10.9792 1.04167 10.9688 1 10.9375C0.968751 10.8958 0.963541 10.849 0.979167 10.7917L2.0625 1.97917C2.07292 1.92708 2.05208 1.89583 2 1.89583H0.1875C0.0625 1.89583 0 1.83333 0 1.70833L0.1875 0.1875C0.197916 0.135417 0.218751 0.0937507 0.25 0.0625C0.291667 0.0208333 0.338541 0 0.395833 0H6.4375Z" fill="white"/>
</svg>
