<svg width="4" height="10" viewBox="0 0 4 10" fill="none" xmlns="http://www.w3.org/2000/svg">
<path d="M3.125 2.47917C3.125 2.57813 3.07292 2.625 2.97917 2.625H1.85417C1.82292 2.625 1.8125 2.64583 1.8125 2.6875V7.16667C1.8125 7.61458 1.88542 7.91667 2.04167 8.08333C2.19271 8.25 2.42708 8.33333 2.75 8.33333H2.89583C2.98958 8.33333 3.04167 8.38542 3.04167 8.47917V9.10417C3.04167 9.20312 2.98958 9.25 2.89583 9.25H2.54167C1.95833 9.25 1.51042 9.125 1.20833 8.875C0.916667 8.625 0.770833 8.15625 0.770833 7.45833V2.6875C0.770833 2.64583 0.755208 2.625 0.729167 2.625H0.145833C0.0468747 2.625 0 2.57813 0 2.47917V2C0 1.90625 0.0468747 1.85417 0.145833 1.85417H0.729167C0.755208 1.85417 0.770833 1.83333 0.770833 1.79167V0.145833C0.770833 0.0520827 0.817708 0 0.916667 0H1.66667C1.76042 0 1.8125 0.0520827 1.8125 0.145833V1.79167C1.8125 1.83333 1.82292 1.85417 1.85417 1.85417H2.97917C3.07292 1.85417 3.125 1.90625 3.125 2V2.47917Z" fill="#D72333"/>
</svg>
