<svg width="10" height="20" viewBox="0 0 10 20" fill="none" xmlns="http://www.w3.org/2000/svg">
<path d="M4.89583 0C6.25521 0 7.35417 0.5 8.1875 1.5C9.02083 2.48958 9.4375 3.79167 9.4375 5.41667C9.4375 7.01563 9.02604 8.30729 8.20833 9.29167C7.38542 10.2656 6.3125 10.75 4.97917 10.75H2.10417C2.02083 10.75 1.97917 10.7917 1.97917 10.875V19.3125C1.97917 19.4948 1.88542 19.5833 1.70833 19.5833H0.291667C0.0937507 19.5833 0 19.4948 0 19.3125V0.270833C0 0.0937493 0.0937507 0 0.291667 0H4.89583ZM4.64583 9.125C5.47917 9.125 6.15104 8.79167 6.66667 8.125C7.19271 7.45833 7.45833 6.5625 7.45833 5.4375C7.45833 4.32813 7.19271 3.43229 6.66667 2.75C6.15104 2.07292 5.47917 1.72917 4.64583 1.72917H2.10417C2.02083 1.72917 1.97917 1.76563 1.97917 1.83333V9.02083C1.97917 9.09375 2.02083 9.125 2.10417 9.125H4.64583Z" fill="#D72333"/>
</svg>
