<svg width="8" height="12" viewBox="0 0 8 12" fill="none" xmlns="http://www.w3.org/2000/svg">
<path d="M7.20833 11.1042C7.21875 11.1198 7.22917 11.1458 7.22917 11.1875C7.22917 11.2188 7.21354 11.2448 7.1875 11.2708C7.17188 11.2865 7.14583 11.2917 7.10417 11.2917H6.25C6.16667 11.2917 6.10417 11.2604 6.0625 11.1875L5.39583 10.2292C5.39583 10.2188 5.38021 10.2083 5.35417 10.2083C5.32292 10.2083 5.3125 10.2188 5.3125 10.2292C4.90625 10.6458 4.5 10.9531 4.08333 11.1458C3.66667 11.3385 3.19271 11.4375 2.66667 11.4375C1.84375 11.4375 1.19271 11.2083 0.708333 10.75C0.234375 10.2917 0 9.64583 0 8.8125C0 8.09375 0.166667 7.46875 0.5 6.9375C0.843751 6.41146 1.31771 5.89583 1.91667 5.39583C1.95833 5.39583 1.96354 5.375 1.9375 5.33333C1.5625 4.75 1.27604 4.30729 1.08333 4C0.901041 3.68229 0.781249 3.41667 0.729167 3.20833C0.671875 2.98958 0.645833 2.73958 0.645833 2.45833C0.645833 1.70833 0.854167 1.11458 1.27083 0.666667C1.69792 0.223959 2.26042 0 2.95833 0C3.65104 0 4.21354 0.229167 4.64583 0.6875C5.08854 1.13542 5.3125 1.71875 5.3125 2.4375C5.3125 3.09375 5.14583 3.64583 4.8125 4.10417C4.48958 4.5625 4.02604 5.05729 3.41667 5.58333C3.375 5.59896 3.36458 5.625 3.39583 5.66667C3.8125 6.25 4.125 6.70313 4.33333 7.02083L5.3125 8.41667C5.32292 8.43229 5.33854 8.4375 5.35417 8.4375C5.38021 8.4375 5.40104 8.43229 5.41667 8.41667C5.56771 8.19792 5.82292 7.76563 6.1875 7.125C6.19792 7.08333 6.22917 7.05729 6.27083 7.04167C6.32292 7.03125 6.375 7.03646 6.41667 7.0625L7.02083 7.41667C7.10417 7.47396 7.11458 7.55208 7.0625 7.64583C6.71354 8.27083 6.36458 8.82813 6.02083 9.3125C6.00521 9.34375 6.00521 9.375 6.02083 9.41667L7.20833 11.1042ZM3 1.02083C2.63542 1.02083 2.33854 1.15625 2.10417 1.41667C1.88021 1.68229 1.77083 2.03646 1.77083 2.47917C1.77083 2.78646 1.82292 3.07292 1.9375 3.33333C2.0625 3.59896 2.32292 4.03646 2.72917 4.64583C2.73958 4.6875 2.76042 4.69792 2.79167 4.66667C3.25 4.29167 3.59375 3.9375 3.83333 3.60417C4.06771 3.26042 4.1875 2.86979 4.1875 2.4375C4.1875 2.01042 4.07292 1.66667 3.85417 1.41667C3.63021 1.15625 3.34375 1.02083 3 1.02083ZM2.79167 10.4375C3.13542 10.4375 3.46354 10.3542 3.77083 10.1875C4.07292 10.0104 4.38542 9.73958 4.70833 9.375C4.73438 9.34896 4.73438 9.3125 4.70833 9.27083L3.95833 8.1875L2.625 6.3125C2.59375 6.28646 2.56771 6.28646 2.54167 6.3125C2.08333 6.70313 1.73437 7.09375 1.5 7.47917C1.26042 7.86979 1.14583 8.30208 1.14583 8.77083C1.14583 9.27083 1.28125 9.67708 1.5625 9.97917C1.85417 10.2865 2.26042 10.4375 2.79167 10.4375Z" fill="#D72333"/>
</svg>
