<svg width="7" height="12" viewBox="0 0 7 12" fill="none" xmlns="http://www.w3.org/2000/svg">
<path d="M4.52083 0.1875C4.52083 0.135417 4.54167 0.0937507 4.58333 0.0625C4.625 0.0208333 4.67188 0 4.72917 0H6.5625C6.60417 0 6.64583 0.0208333 6.6875 0.0625C6.72917 0.0937507 6.75 0.135417 6.75 0.1875V10.875C6.75 10.9323 6.72917 10.9792 6.6875 11.0208C6.64583 11.0521 6.60417 11.0625 6.5625 11.0625H4.45833C4.35938 11.0625 4.29688 11.0104 4.27083 10.8958L2.29167 4.79167C2.29167 4.75 2.27604 4.73958 2.25 4.75C2.21875 4.75 2.20833 4.76563 2.20833 4.79167L2.22917 10.875C2.22917 10.9323 2.20833 10.9792 2.16667 11.0208C2.125 11.0521 2.08333 11.0625 2.04167 11.0625H0.208333C0.151041 11.0625 0.104167 11.0521 0.0625 11.0208C0.0208333 10.9792 0 10.9323 0 10.875V0.1875C0 0.135417 0.0208333 0.0937507 0.0625 0.0625C0.104167 0.0208333 0.151041 0 0.208333 0H2.27083C2.38021 0 2.44792 0.052084 2.47917 0.145833L4.45833 6.27083C4.45833 6.30208 4.46875 6.3125 4.5 6.3125C4.52604 6.3125 4.54167 6.29167 4.54167 6.25L4.52083 0.1875Z" fill="#D72333"/>
</svg>
