<svg width="10" height="20" viewBox="0 0 10 20" fill="none" xmlns="http://www.w3.org/2000/svg">
<path d="M4.75 20C3.30208 20 2.15104 19.5625 1.29167 18.6875C0.427083 17.8125 0 16.6406 0 15.1667V4.79167C0 3.34896 0.427083 2.1875 1.29167 1.3125C2.15104 0.4375 3.30208 0 4.75 0C6.19271 0 7.34375 0.432292 8.20833 1.29167C9.08333 2.15625 9.52083 3.32292 9.52083 4.79167V5.27083C9.52083 5.45313 9.42708 5.54167 9.25 5.54167L7.79167 5.625C7.59375 5.625 7.5 5.53646 7.5 5.35417V4.66667C7.5 3.78125 7.25 3.07292 6.75 2.54167C6.25 2 5.58333 1.72917 4.75 1.72917C3.92708 1.72917 3.26042 2 2.75 2.54167C2.23437 3.07292 1.97917 3.78125 1.97917 4.66667V15.3333C1.97917 16.2083 2.23437 16.9167 2.75 17.4583C3.26042 18 3.92708 18.2708 4.75 18.2708C5.58333 18.2708 6.25 18 6.75 17.4583C7.25 16.9167 7.5 16.2083 7.5 15.3333V14.625C7.5 14.4479 7.59375 14.3542 7.79167 14.3542L9.25 14.4375C9.42708 14.4375 9.52083 14.5312 9.52083 14.7083V15.1667C9.52083 16.6406 9.08333 17.8125 8.20833 18.6875C7.33333 19.5625 6.17708 20 4.75 20Z" fill="#D72333"/>
</svg>
