<svg width="6" height="13" viewBox="0 0 6 13" fill="none" xmlns="http://www.w3.org/2000/svg">
<path d="M3 0C3.73437 0 4.31771 0.25 4.75 0.75C5.19271 1.23958 5.41667 1.875 5.41667 2.66667V6.41667C5.41667 7.22396 5.19271 7.86979 4.75 8.35417C4.31771 8.84375 3.73437 9.08333 3 9.08333C2.67708 9.08333 2.375 9.02083 2.08333 8.89583C1.79167 8.77083 1.53125 8.58333 1.3125 8.33333C1.29687 8.30729 1.27604 8.30208 1.25 8.3125C1.23437 8.32813 1.22917 8.34375 1.22917 8.35417V12.125C1.22917 12.25 1.17187 12.3125 1.0625 12.3125H0.166667C0.052084 12.3125 0 12.25 0 12.125V0.3125C0 0.203125 0.052084 0.145833 0.166667 0.145833H1.0625C1.17187 0.145833 1.22917 0.203125 1.22917 0.3125V0.729167C1.22917 0.744792 1.23958 0.760417 1.27083 0.770833C1.29687 0.770833 1.31771 0.760417 1.33333 0.729167C1.54167 0.494792 1.79167 0.3125 2.08333 0.1875C2.38542 0.0625 2.69271 0 3 0ZM4.20833 2.75C4.20833 2.25 4.0625 1.84896 3.77083 1.54167C3.48958 1.23958 3.13021 1.08333 2.6875 1.08333C2.25521 1.08333 1.90104 1.23958 1.625 1.54167C1.35937 1.84896 1.22917 2.25 1.22917 2.75V6.33333C1.22917 6.83333 1.35937 7.23958 1.625 7.54167C1.90104 7.84896 2.25521 8 2.6875 8C3.13021 8 3.48958 7.84896 3.77083 7.54167C4.0625 7.23958 4.20833 6.83333 4.20833 6.33333V2.75Z" fill="#D72333"/>
</svg>
