<svg width="6" height="9" viewBox="0 0 6 9" fill="none" xmlns="http://www.w3.org/2000/svg">
<path d="M2.5 8.33333C1.73437 8.33333 1.125 8.11458 0.666667 7.66667C0.218749 7.22396 0 6.63542 0 5.89583V2.4375C0 1.71875 0.229167 1.13542 0.6875 0.6875C1.14583 0.229167 1.75 0 2.5 0C3 0 3.4375 0.104167 3.8125 0.3125C4.19792 0.510416 4.5 0.781251 4.70833 1.125C4.91667 1.45833 5.02083 1.82813 5.02083 2.22917V2.375C5.02083 2.48958 4.96354 2.54167 4.85417 2.54167L4.04167 2.58333C3.92708 2.58333 3.875 2.53125 3.875 2.41667V2.3125C3.875 1.95313 3.73958 1.64583 3.47917 1.39583C3.22917 1.13542 2.90104 1 2.5 1C2.09375 1 1.77083 1.14063 1.52083 1.41667C1.27083 1.69792 1.14583 2.0625 1.14583 2.52083V5.8125C1.14583 6.27083 1.27083 6.64583 1.52083 6.9375C1.77083 7.21875 2.09375 7.35417 2.5 7.35417C2.90104 7.35417 3.22917 7.22396 3.47917 6.95833C3.73958 6.69792 3.875 6.39063 3.875 6.04167V5.91667C3.875 5.82292 3.92708 5.77083 4.04167 5.77083L4.85417 5.79167C4.96354 5.79167 5.02083 5.84375 5.02083 5.9375V6.125C5.02083 6.76563 4.78125 7.29167 4.3125 7.70833C3.85417 8.125 3.25 8.33333 2.5 8.33333Z" fill="#D72333"/>
</svg>
