<svg width="6" height="13" viewBox="0 0 6 13" fill="none" xmlns="http://www.w3.org/2000/svg">
<path d="M2.625 0C3.40104 0 4.02604 0.260417 4.5 0.770833C4.98438 1.28646 5.22917 1.95833 5.22917 2.79167V8.4375C5.22917 9.16146 5.04688 9.76563 4.6875 10.25C4.32292 10.7396 3.84375 11.0417 3.25 11.1667C3.20833 11.1771 3.1875 11.2083 3.1875 11.25V12.75C3.1875 12.8594 3.13021 12.9167 3.02083 12.9167H2.22917C2.11458 12.9167 2.0625 12.8594 2.0625 12.75V11.25C2.0625 11.2083 2.04167 11.1771 2 11.1667C1.38542 11.0312 0.901041 10.7188 0.541667 10.2292C0.177084 9.74479 0 9.14583 0 8.4375V2.79167C0 1.95833 0.239583 1.28646 0.729167 0.770833C1.21354 0.260417 1.84375 0 2.625 0ZM4.125 2.6875C4.125 2.17708 3.98437 1.76563 3.70833 1.45833C3.44271 1.14063 3.08333 0.979167 2.625 0.979167C2.17708 0.979167 1.81771 1.14063 1.54167 1.45833C1.26042 1.76563 1.125 2.17708 1.125 2.6875V8.54167C1.125 9.04167 1.26042 9.45313 1.54167 9.77083C1.81771 10.0938 2.17708 10.25 2.625 10.25C3.08333 10.25 3.44271 10.0938 3.70833 9.77083C3.98437 9.45313 4.125 9.04167 4.125 8.54167V2.6875Z" fill="#D72333"/>
</svg>
