<svg width="9" height="12" viewBox="0 0 9 12" fill="none" xmlns="http://www.w3.org/2000/svg">
<path d="M7.1015 6.12656C7.29421 6.12656 7.44005 6.19948 7.539 6.3349C7.63275 6.4599 7.69005 6.62656 7.70567 6.8349C7.73171 7.03281 7.70567 7.22552 7.62234 7.41823C7.54942 7.61615 7.42442 7.78281 7.24734 7.91823C7.08067 8.04323 6.85671 8.10573 6.58067 8.10573H5.87234L4.83067 11.0016C4.73171 11.2672 4.58588 11.4599 4.39317 11.5849C4.19525 11.7099 3.98692 11.7724 3.76817 11.7724C3.55984 11.7724 3.36192 11.7203 3.18484 11.6266C3.00255 11.5328 2.87234 11.387 2.789 11.1891C2.71609 10.9964 2.73171 10.7724 2.83067 10.5224L3.70567 8.12656H1.24734C0.83067 8.12656 0.528586 8.05886 0.351504 7.91823C0.169212 7.78281 0.0598371 7.60573 0.0181704 7.3974C-0.0130802 7.18906 -0.00266291 6.99115 0.0390038 6.79323C0.0910878 6.5849 0.14317 6.42865 0.184837 6.31406L2.43484 1.3349C2.52859 1.0849 2.66921 0.907812 2.8515 0.793229C3.02859 0.668229 3.2265 0.605729 3.43484 0.605729C3.64317 0.595313 3.83588 0.63698 4.01817 0.730729C4.19525 0.829688 4.32025 0.970313 4.39317 1.1474C4.46088 1.32969 4.44525 1.54323 4.3515 1.79323L2.39317 6.12656H4.39317L6.30984 0.730729C6.39317 0.496355 6.52338 0.324479 6.70567 0.209896C6.88275 0.084896 7.08067 0.017188 7.289 0.00156268C7.49734 -0.00885465 7.69005 0.032812 7.87234 0.126563C8.04942 0.225521 8.18484 0.366145 8.26817 0.543229C8.36192 0.709896 8.38276 0.928647 8.33067 1.18906L6.55984 6.12656H7.1015Z" fill="#D72333"/>
</svg>
