<svg width="7" height="12" viewBox="0 0 7 12" fill="none" xmlns="http://www.w3.org/2000/svg">
<path d="M6.47917 0C6.53125 0 6.57292 0.0208333 6.60417 0.0625C6.64583 0.0937507 6.66667 0.135417 6.66667 0.1875V1.72917C6.66667 1.77083 6.64583 1.8125 6.60417 1.85417C6.57292 1.89583 6.53125 1.91667 6.47917 1.91667H4.5C4.44271 1.91667 4.41667 1.94792 4.41667 2V10.9167C4.41667 10.974 4.39583 11.0208 4.35417 11.0625C4.32292 11.0938 4.28125 11.1042 4.22917 11.1042H2.375C2.31771 11.1042 2.27083 11.0938 2.22917 11.0625C2.19792 11.0208 2.1875 10.974 2.1875 10.9167V2C2.1875 1.94792 2.15625 1.91667 2.10417 1.91667H0.1875C0.145833 1.91667 0.104167 1.89583 0.0625 1.85417C0.0208333 1.8125 0 1.77083 0 1.72917V0.1875C0 0.135417 0.0208333 0.0937507 0.0625 0.0625C0.104167 0.0208333 0.145833 0 0.1875 0H6.47917Z" fill="#D72333"/>
</svg>
