<svg width="6" height="12" viewBox="0 0 6 12" fill="none" xmlns="http://www.w3.org/2000/svg">
<path d="M1.39583 11.1042C1.33854 11.1042 1.29687 11.0938 1.27083 11.0625C1.23958 11.0208 1.23437 10.9792 1.25 10.9375L3.95833 1.04167C3.96875 1.03125 3.96875 1.01563 3.95833 1C3.94271 0.989583 3.92187 0.979167 3.89583 0.979167H1C0.942708 0.979167 0.916667 1 0.916667 1.04167V1.6875C0.916667 1.80208 0.864584 1.85417 0.770833 1.85417H0.145833C0.0468747 1.85417 0 1.80208 0 1.6875V0.145833C0 0.052084 0.0468747 0 0.145833 0H5C5.10938 0 5.16667 0.052084 5.16667 0.145833V0.875C5.16667 0.906249 5.15104 0.968751 5.125 1.0625L2.4375 10.9583C2.40625 11.0573 2.34375 11.1042 2.25 11.1042H1.39583Z" fill="#D72333"/>
</svg>
