<svg width="6" height="10" viewBox="0 0 6 10" fill="none" xmlns="http://www.w3.org/2000/svg">
<path d="M5.4375 4.83333C5.4375 4.95833 5.375 5.02083 5.25 5.02083H1.29167C1.25 5.02083 1.22917 5.04167 1.22917 5.08333V6.35417C1.22917 6.84375 1.35937 7.23958 1.625 7.54167C1.90104 7.84896 2.26042 8 2.70833 8C3.06771 8 3.38021 7.89063 3.64583 7.66667C3.90625 7.43229 4.08333 7.14063 4.16667 6.79167C4.19271 6.68229 4.25521 6.625 4.35417 6.625L5.22917 6.66667C5.27083 6.66667 5.30208 6.6875 5.33333 6.72917C5.375 6.76042 5.38542 6.80208 5.375 6.85417C5.29167 7.53646 5.01042 8.07813 4.54167 8.47917C4.06771 8.88542 3.45833 9.08333 2.70833 9.08333C1.88542 9.08333 1.22917 8.84375 0.729167 8.35417C0.239584 7.86979 0 7.22396 0 6.41667V2.66667C0 1.875 0.239584 1.23958 0.729167 0.75C1.22917 0.25 1.88542 0 2.70833 0C3.54167 0 4.19792 0.25 4.6875 0.75C5.1875 1.23958 5.4375 1.875 5.4375 2.66667V4.83333ZM2.70833 1.08333C2.26042 1.08333 1.90104 1.23958 1.625 1.54167C1.35937 1.84896 1.22917 2.25 1.22917 2.75V3.91667C1.22917 3.95833 1.25 3.97917 1.29167 3.97917H4.14583C4.1875 3.97917 4.20833 3.95833 4.20833 3.91667V2.75C4.20833 2.25 4.06771 1.84896 3.79167 1.54167C3.51042 1.23958 3.15104 1.08333 2.70833 1.08333Z" fill="#D72333"/>
</svg>
