<svg width="11" height="8" viewBox="0 0 11 8" fill="none" xmlns="http://www.w3.org/2000/svg">
<path d="M4.58333 4.0625C4.58333 4.16146 4.53125 4.20833 4.4375 4.20833H1.10417C1.0625 4.20833 1.04167 4.22917 1.04167 4.27083V5.33333C1.04167 5.75 1.15104 6.09375 1.375 6.35417C1.60937 6.60417 1.91667 6.72917 2.29167 6.72917C2.59375 6.72917 2.85937 6.64063 3.08333 6.45833C3.30208 6.26563 3.44792 6.01563 3.52083 5.70833C3.54687 5.625 3.59375 5.58333 3.66667 5.58333L4.39583 5.60417C4.4375 5.60417 4.46875 5.61979 4.5 5.64583C4.52604 5.67708 4.54167 5.71875 4.54167 5.77083C4.45833 6.34375 4.21354 6.80208 3.8125 7.14583C3.42187 7.47917 2.91667 7.64583 2.29167 7.64583C1.59375 7.64583 1.04167 7.44792 0.625 7.04167C0.208333 6.625 0 6.07813 0 5.39583V2.25C0 1.58333 0.208333 1.04167 0.625 0.625C1.04167 0.208333 1.59375 0 2.29167 0C2.98437 0 3.54167 0.208333 3.95833 0.625C4.375 1.04167 4.58333 1.58333 4.58333 2.25V4.0625ZM2.29167 0.916667C1.91667 0.916667 1.60937 1.05208 1.375 1.3125C1.15104 1.5625 1.04167 1.89583 1.04167 2.3125V3.29167C1.04167 3.33333 1.0625 3.35417 1.10417 3.35417H3.5C3.54167 3.35417 3.5625 3.33333 3.5625 3.29167V2.3125C3.5625 1.89583 3.44271 1.5625 3.20833 1.3125C2.96875 1.05208 2.66667 0.916667 2.29167 0.916667Z" fill="#D72333"/>
<path d="M8.24626 7.64583C7.54834 7.64583 6.99626 7.44792 6.57959 7.04167C6.16292 6.625 5.95459 6.07813 5.95459 5.39583V2.25C5.95459 1.58333 6.16292 1.04167 6.57959 0.625C6.99626 0.208333 7.54834 0 8.24626 0C8.70459 0 9.10563 0.0989587 9.45459 0.291667C9.79834 0.473959 10.0692 0.718751 10.2671 1.02083C10.4598 1.32813 10.5588 1.66667 10.5588 2.04167V2.1875C10.5588 2.28646 10.5067 2.33333 10.4129 2.33333L9.66292 2.35417C9.56396 2.35417 9.51709 2.30729 9.51709 2.20833V2.10417C9.51709 1.78646 9.39209 1.51042 9.14209 1.27083C8.90251 1.03646 8.60563 0.916667 8.24626 0.916667C7.87126 0.916667 7.56396 1.05208 7.32959 1.3125C7.10563 1.5625 6.99626 1.89583 6.99626 2.3125V5.33333C6.99626 5.75 7.10563 6.09375 7.32959 6.35417C7.56396 6.60417 7.87126 6.72917 8.24626 6.72917C8.60563 6.72917 8.90251 6.61458 9.14209 6.375C9.39209 6.14063 9.51709 5.86458 9.51709 5.54167V5.4375C9.51709 5.34375 9.56396 5.29167 9.66292 5.29167H10.4129C10.5067 5.29167 10.5588 5.34375 10.5588 5.4375V5.60417C10.5588 6.1875 10.34 6.67708 9.91292 7.0625C9.48063 7.45313 8.92334 7.64583 8.24626 7.64583Z" fill="#D72333"/>
</svg>
