<svg width="6" height="11" viewBox="0 0 6 11" fill="none" xmlns="http://www.w3.org/2000/svg">
<path d="M0.166667 10.2292C0.125 10.2292 0.0833333 10.2188 0.0416667 10.1875C0.0104173 10.1458 0 10.1042 0 10.0625V0.166667C0 0.125 0.0104173 0.0937507 0.0416667 0.0625C0.0833333 0.0208333 0.125 0 0.166667 0H1.875C1.92708 0 1.96875 0.0208333 2 0.0625C2.04167 0.0937507 2.0625 0.125 2.0625 0.166667V8.39583C2.0625 8.4375 2.08333 8.45833 2.125 8.45833H5.20833C5.25 8.45833 5.28125 8.47917 5.3125 8.52083C5.35417 8.55208 5.375 8.58333 5.375 8.625V10.0625C5.375 10.1042 5.35417 10.1458 5.3125 10.1875C5.28125 10.2188 5.25 10.2292 5.20833 10.2292H0.166667Z" fill="#D72333"/>
</svg>
