<svg width="5" height="11" viewBox="0 0 5 11" fill="none" xmlns="http://www.w3.org/2000/svg">
<path d="M0.145833 10.2292C0.0468747 10.2292 0 10.1823 0 10.0833V0.145833C0 0.052084 0.0468747 0 0.145833 0H0.895833C0.989583 0 1.04167 0.052084 1.04167 0.145833V6.02083C1.04167 6.03646 1.04687 6.05208 1.0625 6.0625C1.07292 6.07813 1.08854 6.07292 1.10417 6.04167L3.29167 2.91667C3.33333 2.86458 3.39583 2.83333 3.47917 2.83333H4.22917C4.29688 2.83333 4.33854 2.85417 4.35417 2.89583C4.36458 2.92708 4.35938 2.95833 4.33333 3L2.875 5.08333C2.84375 5.11458 2.83854 5.14063 2.85417 5.16667L4.58333 10.0625L4.60417 10.125C4.60417 10.1979 4.5625 10.2292 4.47917 10.2292H3.6875C3.60417 10.2292 3.54687 10.1875 3.52083 10.1042L2.22917 6.04167C2.21354 5.98958 2.17708 5.98958 2.125 6.04167L1.0625 7.5625C1.04687 7.57813 1.04167 7.59896 1.04167 7.625V10.0833C1.04167 10.1823 0.989583 10.2292 0.895833 10.2292H0.145833Z" fill="#D72333"/>
</svg>
