<svg width="7" height="11" viewBox="0 0 7 11" fill="none" xmlns="http://www.w3.org/2000/svg">
<path d="M6.69603 1.70833C6.68041 1.76563 6.65437 1.8125 6.6127 1.85417C6.58145 1.88542 6.53978 1.89583 6.4877 1.89583H3.32103C3.26374 1.89583 3.2377 1.92708 3.2377 1.97917L2.9252 4.45833C2.9252 4.51563 2.94603 4.54167 2.9877 4.54167H4.8002C4.85228 4.54167 4.89395 4.5625 4.9252 4.60417C4.96687 4.63542 4.97728 4.67708 4.96687 4.72917L4.77937 6.25C4.76374 6.29167 4.7377 6.33333 4.69603 6.375C4.66478 6.41667 4.62312 6.4375 4.57103 6.4375H2.75853C2.70124 6.4375 2.6752 6.45833 2.6752 6.5L2.15437 10.7917C2.13874 10.849 2.1127 10.8958 2.07103 10.9375C2.02937 10.9688 1.97728 10.9792 1.9252 10.9792H0.154366C0.112699 10.9792 0.0710324 10.9688 0.0293657 10.9375C-0.00188494 10.8958 -0.00709294 10.849 0.0085324 10.7917L1.3002 0.1875C1.31062 0.135417 1.33145 0.0937507 1.3627 0.0625C1.40437 0.0208333 1.45124 0 1.50853 0H6.71687C6.76895 0 6.81062 0.0208333 6.84187 0.0625C6.86791 0.0937507 6.88353 0.135417 6.88353 0.1875L6.69603 1.70833Z" fill="white"/>
</svg>
