<svg width="6" height="11" viewBox="0 0 6 11" fill="none" xmlns="http://www.w3.org/2000/svg">
<path d="M5.625 7.85417C5.63542 8.66146 5.38542 9.30208 4.875 9.77083C4.35938 10.2448 3.67708 10.4792 2.83333 10.4792C2.02604 10.4792 1.375 10.2448 0.875 9.77083C0.385417 9.30208 0.145833 8.66146 0.145833 7.85417V7.41667C0.145833 7.36458 0.156249 7.32292 0.1875 7.29167C0.229167 7.25 0.270833 7.22917 0.3125 7.22917H2.02083C2.07292 7.22917 2.11458 7.25 2.14583 7.29167C2.1875 7.32292 2.20833 7.36458 2.20833 7.41667V7.72917C2.20833 7.99479 2.26042 8.21875 2.375 8.39583C2.5 8.57813 2.65104 8.66667 2.83333 8.66667C3.04167 8.66667 3.20833 8.58333 3.33333 8.41667C3.46875 8.23958 3.54167 8.01042 3.54167 7.72917V6.27083C3.54167 6.24479 3.52604 6.22917 3.5 6.22917C3.48437 6.21875 3.46875 6.22396 3.45833 6.25C3.15104 6.51563 2.79167 6.64583 2.375 6.64583C1.69271 6.64583 1.14583 6.42708 0.729167 5.97917C0.3125 5.52083 0.0833333 4.91667 0.0416667 4.16667C0.0104173 3.90625 0 3.61979 0 3.3125C0 3.09375 0.005208 2.80208 0.0208333 2.4375C0.0468747 1.66146 0.3125 1.0625 0.8125 0.645833C1.3125 0.218751 1.96875 0 2.79167 0C3.58333 0 4.21354 0.197916 4.6875 0.583333C5.17188 0.973959 5.45833 1.55729 5.54167 2.33333C5.58333 2.64063 5.60417 2.90625 5.60417 3.125L5.625 7.85417ZM3.52083 4.33333C3.53125 4.08333 3.54167 3.79167 3.54167 3.45833C3.54167 3.09896 3.53125 2.79167 3.52083 2.54167C3.48958 2.29167 3.41667 2.09896 3.29167 1.95833C3.16667 1.82292 3.00521 1.75 2.8125 1.75C2.61458 1.75 2.45833 1.82813 2.33333 1.97917C2.21875 2.11979 2.14583 2.32292 2.10417 2.58333C2.08854 2.82292 2.08333 3.11458 2.08333 3.45833C2.08333 3.68229 2.09375 3.97917 2.125 4.35417C2.16667 4.57813 2.23958 4.76042 2.35417 4.89583C2.47917 5.02083 2.63021 5.08333 2.8125 5.08333C2.98958 5.08333 3.14583 5.02083 3.27083 4.89583C3.39583 4.76042 3.47917 4.57292 3.52083 4.33333Z" fill="#D72333"/>
</svg>
