<svg width="6" height="12" viewBox="0 0 6 12" fill="none" xmlns="http://www.w3.org/2000/svg">
<path d="M4.91667 6.20833C5.01042 6.59896 5.0625 7.10417 5.0625 7.72917C5.0625 8.20313 5.03125 8.64063 4.97917 9.04167C4.86458 9.75 4.60417 10.2917 4.1875 10.6667C3.77083 11.0417 3.21875 11.2292 2.54167 11.2292C1.84375 11.2292 1.29167 11.0521 0.875 10.6875C0.458333 10.3125 0.1875 9.75 0.0625 9L0.0208333 8.54167V8.5C0.0208333 8.41667 0.067708 8.375 0.166667 8.375H0.979167C1.07292 8.375 1.13021 8.43229 1.14583 8.54167L1.20833 8.91667C1.375 9.80729 1.81771 10.25 2.54167 10.25C2.875 10.25 3.15104 10.1458 3.375 9.9375C3.59375 9.71875 3.75 9.39583 3.83333 8.97917C3.90104 8.64583 3.9375 8.22396 3.9375 7.70833C3.9375 7.18229 3.89583 6.72396 3.8125 6.33333C3.61458 5.59896 3.19271 5.22917 2.54167 5.22917C1.80208 5.22917 1.34375 5.59896 1.16667 6.33333C1.13542 6.41667 1.08333 6.45833 1 6.45833H0.166667C0.0520827 6.45833 0 6.41146 0 6.3125V0.145833C0 0.052084 0.0520827 0 0.166667 0H4.66667C4.76042 0 4.8125 0.052084 4.8125 0.145833V0.8125C4.8125 0.927084 4.76042 0.979167 4.66667 0.979167H1.20833C1.15104 0.979167 1.125 1 1.125 1.04167V4.97917C1.125 4.99479 1.13021 5.01042 1.14583 5.02083C1.15625 5.03646 1.17708 5.03125 1.20833 5C1.375 4.75 1.59375 4.5625 1.875 4.4375C2.15104 4.30208 2.46354 4.22917 2.8125 4.22917C3.38021 4.22917 3.83854 4.40625 4.1875 4.75C4.54688 5.08333 4.79167 5.57292 4.91667 6.20833Z" fill="#D72333"/>
</svg>
