<svg width="5" height="12" viewBox="0 0 5 12" fill="none" xmlns="http://www.w3.org/2000/svg">
<path d="M2.875 2.97917C3.51042 2.97917 4.01042 3.20313 4.375 3.64583C4.73438 4.09375 4.91667 4.71875 4.91667 5.52083V11C4.91667 11.1146 4.85938 11.1667 4.75 11.1667H3.9375C3.82292 11.1667 3.77083 11.1146 3.77083 11V5.60417C3.77083 5.09375 3.65104 4.69792 3.41667 4.41667C3.19271 4.125 2.88021 3.97917 2.47917 3.97917C2.0625 3.97917 1.72917 4.13542 1.47917 4.4375C1.23958 4.74479 1.125 5.16146 1.125 5.6875V11C1.125 11.1146 1.06771 11.1667 0.958333 11.1667H0.145833C0.0468747 11.1667 0 11.1146 0 11V0.145833C0 0.0520827 0.0468747 0 0.145833 0H0.958333C1.06771 0 1.125 0.0520827 1.125 0.145833V3.77083C1.125 3.78646 1.13021 3.80208 1.14583 3.8125C1.17187 3.82813 1.19271 3.8125 1.20833 3.77083C1.40104 3.51042 1.64583 3.3125 1.9375 3.1875C2.22917 3.05208 2.54167 2.97917 2.875 2.97917Z" fill="#D72333"/>
</svg>
