<svg width="6" height="11" viewBox="0 0 6 11" fill="none" xmlns="http://www.w3.org/2000/svg">
<path d="M3.125 0C3.66667 0 4.14583 0.135416 4.5625 0.395833C4.97917 0.661459 5.29688 1.03125 5.52083 1.5C5.75521 1.97396 5.875 2.51042 5.875 3.10417C5.875 4.02083 5.63021 4.75 5.14583 5.29167C4.65625 5.83333 4.02083 6.10417 3.22917 6.10417H2.14583C2.08854 6.10417 2.0625 6.13542 2.0625 6.1875V10.0833C2.0625 10.125 2.04167 10.1667 2 10.2083C1.96875 10.2396 1.9375 10.25 1.89583 10.25H0.1875C0.130208 10.25 0.0833333 10.2396 0.0416667 10.2083C0.010416 10.1667 0 10.125 0 10.0833V0.166667C0 0.125 0.010416 0.0937493 0.0416667 0.0625C0.0833333 0.0208333 0.130208 0 0.1875 0H3.125ZM2.79167 4.5C3.09375 4.5 3.33854 4.38542 3.52083 4.14583C3.71354 3.91146 3.8125 3.58333 3.8125 3.16667C3.8125 2.73958 3.71354 2.40625 3.52083 2.16667C3.33854 1.91667 3.09375 1.79167 2.79167 1.79167H2.14583C2.08854 1.79167 2.0625 1.8125 2.0625 1.85417V4.4375C2.0625 4.47917 2.08854 4.5 2.14583 4.5H2.79167Z" fill="#D72333"/>
</svg>
