<svg width="6" height="12" viewBox="0 0 6 12" fill="none" xmlns="http://www.w3.org/2000/svg">
<path d="M0.166667 11.1667C0.052084 11.1667 0 11.1146 0 11V0.145833C0 0.0520827 0.052084 0 0.166667 0H2.625C3.44271 0 4.09375 0.270833 4.58333 0.8125C5.06771 1.34375 5.3125 2.05729 5.3125 2.95833V8.20833C5.3125 9.11458 5.06771 9.83333 4.58333 10.375C4.09375 10.9063 3.44271 11.1667 2.625 11.1667H0.166667ZM1.14583 10.1042C1.14583 10.1615 1.16667 10.1875 1.20833 10.1875L2.60417 10.1667C3.07292 10.1667 3.44792 9.98958 3.72917 9.625C4.00521 9.26563 4.15104 8.77083 4.16667 8.14583V3.02083C4.16667 2.38542 4.02604 1.88542 3.75 1.52083C3.46875 1.16146 3.08854 0.979167 2.60417 0.979167H1.20833C1.16667 0.979167 1.14583 1 1.14583 1.04167V10.1042Z" fill="#D72333"/>
</svg>
