<svg width="2" height="12" viewBox="0 0 2 12" fill="none" xmlns="http://www.w3.org/2000/svg">
<path d="M0.895833 1.79167C0.630208 1.79167 0.416667 1.70833 0.25 1.54167C0.0833333 1.36458 0 1.14583 0 0.895833C0 0.635416 0.0833333 0.416667 0.25 0.25C0.416667 0.0833333 0.630208 0 0.895833 0C1.14583 0 1.35417 0.0833333 1.52083 0.25C1.6875 0.416667 1.77083 0.635416 1.77083 0.895833C1.77083 1.14583 1.6875 1.36458 1.52083 1.54167C1.35417 1.70833 1.14583 1.79167 0.895833 1.79167ZM0.5 11.3333C0.385417 11.3333 0.333333 11.2812 0.333333 11.1667V3.41667C0.333333 3.30729 0.385417 3.25 0.5 3.25H1.3125C1.40625 3.25 1.45833 3.30729 1.45833 3.41667V11.1667C1.45833 11.2812 1.40625 11.3333 1.3125 11.3333H0.5Z" fill="#D72333"/>
</svg>
