<svg width="5" height="8" viewBox="0 0 5 8" fill="none" xmlns="http://www.w3.org/2000/svg">
<path d="M4.75 4.16667C4.71875 4.26563 4.66667 4.3125 4.58333 4.3125H1.27083C1.23958 4.3125 1.21875 4.32292 1.20833 4.33333C1.19271 4.34896 1.1875 4.36458 1.1875 4.375L1.0625 5.47917C1.04687 5.52083 1.04167 5.59896 1.04167 5.70833C1.04167 6.05729 1.13542 6.34375 1.33333 6.5625C1.54167 6.78646 1.80208 6.89583 2.125 6.89583C2.42708 6.89583 2.69792 6.80208 2.9375 6.60417C3.1875 6.41146 3.35937 6.16146 3.45833 5.85417C3.51042 5.76042 3.57292 5.70833 3.64583 5.70833L4.375 5.75C4.41667 5.75 4.44271 5.76563 4.45833 5.79167C4.48438 5.82292 4.48958 5.86458 4.47917 5.91667C4.33854 6.5 4.04688 6.96875 3.60417 7.3125C3.17187 7.66146 2.63542 7.83333 2 7.83333C1.375 7.83333 0.880208 7.66146 0.520833 7.3125C0.171875 6.95313 0 6.47917 0 5.89583C0 5.72917 0.005208 5.61458 0.0208333 5.54167L0.416667 2.29167C0.484375 1.61458 0.755208 1.0625 1.22917 0.645833C1.69792 0.218749 2.28125 0 2.97917 0C3.60417 0 4.09375 0.177083 4.45833 0.520833C4.81771 0.869792 5 1.34375 5 1.9375C5 2.02083 4.98438 2.14063 4.95833 2.29167L4.75 4.16667ZM2.85417 0.9375C2.47917 0.9375 2.15625 1.07292 1.89583 1.33333C1.64583 1.59896 1.48958 1.94792 1.4375 2.375L1.3125 3.375C1.3125 3.41667 1.33333 3.4375 1.375 3.4375H3.75C3.79167 3.4375 3.8125 3.41667 3.8125 3.375L3.9375 2.375C3.94792 2.30729 3.95833 2.22396 3.95833 2.125C3.95833 1.76563 3.85417 1.47917 3.64583 1.27083C3.44792 1.05208 3.1875 0.9375 2.85417 0.9375Z" fill="#D51224"/>
</svg>
