<svg width="6" height="11" viewBox="0 0 6 11" fill="none" xmlns="http://www.w3.org/2000/svg">
<path d="M0.1875 10.9792C0.130208 10.9792 0.0833333 10.9688 0.0416667 10.9375C0.0104173 10.8958 0 10.849 0 10.7917V0.1875C0 0.135417 0.0104173 0.0937507 0.0416667 0.0625C0.0833333 0.0208333 0.130208 0 0.1875 0H1.625C1.67708 0 1.71875 0.0208333 1.75 0.0625C1.79167 0.0937507 1.8125 0.135417 1.8125 0.1875V9.33333C1.8125 9.39063 1.83854 9.41667 1.89583 9.41667H5.27083C5.32292 9.41667 5.36458 9.4375 5.39583 9.47917C5.4375 9.51042 5.45833 9.55208 5.45833 9.60417V10.7917C5.45833 10.849 5.4375 10.8958 5.39583 10.9375C5.36458 10.9688 5.32292 10.9792 5.27083 10.9792H0.1875Z" fill="white"/>
</svg>
