<svg width="4" height="9" viewBox="0 0 4 9" fill="none" xmlns="http://www.w3.org/2000/svg">
<path d="M2.72917 0C2.98958 0 3.21875 0.057292 3.41667 0.166667C3.48437 0.208333 3.50521 0.281249 3.47917 0.375L3.29167 1.20833C3.29167 1.30729 3.22917 1.33333 3.10417 1.29167C2.97917 1.23958 2.81771 1.20833 2.625 1.20833C2.54167 1.20833 2.47917 1.21875 2.4375 1.22917C2.04687 1.24479 1.72917 1.4375 1.47917 1.8125C1.23958 2.1875 1.125 2.65625 1.125 3.20833V7.97917C1.125 8.09375 1.06771 8.14583 0.958333 8.14583H0.145833C0.0468747 8.14583 0 8.09375 0 7.97917V0.229167C0 0.119792 0.0468747 0.0625 0.145833 0.0625H0.958333C1.06771 0.0625 1.125 0.119792 1.125 0.229167V1.1875C1.125 1.21875 1.13021 1.22917 1.14583 1.22917C1.15625 1.22917 1.17708 1.22396 1.20833 1.20833C1.51042 0.406249 2.02083 0 2.72917 0Z" fill="#D72333"/>
</svg>
