<svg width="6" height="11" viewBox="0 0 6 11" fill="none" xmlns="http://www.w3.org/2000/svg">
<path d="M5.79486 0.770833C5.79486 0.8125 5.77403 0.854167 5.73236 0.895833C5.70111 0.927083 5.66986 0.9375 5.6282 0.9375H2.2532C2.23757 0.9375 2.22195 0.947917 2.21153 0.958333C2.1959 0.958333 2.1907 0.973959 2.1907 1L1.73236 4.70833C1.73236 4.72396 1.73236 4.73958 1.73236 4.75C1.74278 4.76563 1.7584 4.77083 1.77403 4.77083H3.91986C4.01361 4.77083 4.05007 4.82292 4.02403 4.91667L3.96153 5.5625C3.93028 5.66146 3.8782 5.70833 3.79486 5.70833H1.66986C1.6282 5.70833 1.60736 5.72917 1.60736 5.77083L1.1282 9.5C1.1282 9.54167 1.14903 9.5625 1.1907 9.5625H4.5657C4.67507 9.5625 4.71674 9.61979 4.6907 9.72917L4.60736 10.3542C4.59174 10.4531 4.54486 10.5 4.46153 10.5H0.128196C0.0292375 10.5 -0.0124292 10.4531 0.00319614 10.3542L1.2532 0.145833C1.27924 0.0520827 1.33653 0 1.41986 0H5.73236C5.82611 0 5.8782 0.0520827 5.8782 0.145833L5.79486 0.770833Z" fill="#D51224"/>
</svg>
