<svg width="10" height="20" viewBox="0 0 10 20" fill="none" xmlns="http://www.w3.org/2000/svg">
<path d="M9.625 0C9.81771 0 9.91667 0.0989587 9.91667 0.291667V1.45833C9.91667 1.64063 9.81771 1.72917 9.625 1.72917H5.9375C5.86458 1.72917 5.83333 1.77083 5.83333 1.85417V19.2917C5.83333 19.474 5.73438 19.5625 5.54167 19.5625H4.125C3.94271 19.5625 3.85417 19.474 3.85417 19.2917V1.85417C3.85417 1.77083 3.8125 1.72917 3.72917 1.72917H0.270833C0.0885413 1.72917 0 1.64063 0 1.45833V0.291667C0 0.0989587 0.0885413 0 0.270833 0H9.625Z" fill="#D72333"/>
</svg>
