<svg width="9" height="9" viewBox="0 0 9 9" fill="none" xmlns="http://www.w3.org/2000/svg">
<path d="M7.3125 4.3125C7.38021 4.11979 7.48438 3.97917 7.625 3.89583C7.77604 3.8125 7.9375 3.77083 8.10417 3.77083C8.3125 3.77083 8.50521 3.83333 8.6875 3.95833C8.86458 4.08333 8.95833 4.24479 8.95833 4.4375C8.95833 4.46875 8.95833 4.49479 8.95833 4.52083C8.95833 4.55208 8.94792 4.57813 8.9375 4.60417C8.61458 5.49479 8.1875 6.20313 7.64583 6.72917C7.11458 7.24479 6.50521 7.61458 5.8125 7.83333C5.13021 8.04167 4.40625 8.14583 3.64583 8.14583C2.86458 8.14583 2.20833 8.05208 1.66667 7.85417C1.125 7.64583 0.708333 7.36979 0.416667 7.02083C0.140625 6.67708 0 6.28646 0 5.85417C0 5.57813 0.0520827 5.29167 0.145833 5C0.244792 4.70833 0.385417 4.45313 0.583333 4.22917C0.791667 3.99479 1.04167 3.84375 1.33333 3.77083C1.59375 3.28646 1.85937 2.79167 2.125 2.29167C2.40104 1.78125 2.66667 1.26563 2.91667 0.75C3.04167 0.5 3.21875 0.3125 3.45833 0.1875C3.69271 0.0625 3.9375 0 4.1875 0C4.52083 0 4.78125 0.114583 4.97917 0.333333C5.17188 0.557292 5.27083 0.807292 5.27083 1.08333C5.27083 1.28125 5.20833 1.47396 5.08333 1.66667C4.95833 1.86458 4.80208 1.99479 4.625 2.0625C4.65104 2.27083 4.71875 2.48958 4.83333 2.70833C4.94271 2.93229 5.06771 3.15625 5.20833 3.375C5.38542 3.68229 5.5625 4.01563 5.72917 4.375C5.89583 4.73958 5.97917 5.11458 5.97917 5.5C5.97917 5.58333 5.96875 5.66667 5.95833 5.75C5.95833 5.83333 5.94792 5.91667 5.9375 6C6.23958 5.82292 6.50521 5.59375 6.72917 5.3125C6.96354 5.03646 7.15625 4.70313 7.3125 4.3125ZM3.125 3.95833C3.23437 4.07292 3.31771 4.20313 3.375 4.35417C3.42708 4.49479 3.45833 4.64063 3.45833 4.79167C3.45833 5.125 3.34375 5.42708 3.125 5.6875C2.91667 5.95313 2.61458 6.08333 2.22917 6.08333C2.1875 6.08333 2.13542 6.08333 2.08333 6.08333C2.04167 6.08333 1.98958 6.07813 1.9375 6.0625C2.00521 6.22917 2.13021 6.36458 2.3125 6.45833C2.48958 6.55729 2.69271 6.60417 2.91667 6.60417C3.27604 6.59375 3.54167 6.47396 3.70833 6.25C3.875 6.01563 3.95833 5.74479 3.95833 5.4375C3.95833 5.13542 3.88542 4.82813 3.75 4.52083C3.60937 4.21875 3.44271 3.94792 3.25 3.70833L3.125 3.95833Z" fill="#D72333"/>
</svg>
