<svg width="6" height="11" viewBox="0 0 6 11" fill="none" xmlns="http://www.w3.org/2000/svg">
<path d="M5.3157 7.64583C5.20111 8.55208 4.8782 9.25 4.33653 9.75C3.80528 10.25 3.14903 10.5 2.35736 10.5H0.128196C0.0292375 10.5 -0.0124292 10.4531 0.00319614 10.3542L1.2532 0.145833C1.27924 0.0520827 1.33653 0 1.41986 0H3.52403C4.27403 0 4.85736 0.197917 5.27403 0.583333C5.6907 0.973959 5.89903 1.53646 5.89903 2.27083C5.89903 2.36979 5.8834 2.53125 5.85736 2.75C5.73236 3.86458 5.23236 4.625 4.35736 5.04167C4.34174 5.05729 4.33653 5.07292 4.33653 5.08333C4.33653 5.08333 4.34174 5.09375 4.35736 5.10417C5.02403 5.53646 5.35736 6.21875 5.35736 7.14583C5.35736 7.24479 5.34174 7.41146 5.3157 7.64583ZM2.2532 0.9375C2.23757 0.9375 2.22195 0.947917 2.21153 0.958333C2.1959 0.958333 2.1907 0.973959 2.1907 1L1.7532 4.60417C1.73757 4.61979 1.73757 4.63542 1.7532 4.64583C1.76361 4.66146 1.77924 4.66667 1.79486 4.66667H2.96153C3.52924 4.66667 3.98757 4.47396 4.33653 4.08333C4.68028 3.68229 4.85736 3.13542 4.85736 2.4375C4.85736 1.96875 4.72195 1.59896 4.46153 1.33333C4.21153 1.07292 3.85736 0.9375 3.39903 0.9375H2.2532ZM2.39903 9.5625C2.90945 9.5625 3.33653 9.39063 3.66986 9.04167C4.01361 8.68229 4.22195 8.17708 4.29486 7.52083C4.3209 7.32813 4.33653 7.1875 4.33653 7.10417C4.33653 6.59375 4.21153 6.19792 3.96153 5.91667C3.72195 5.625 3.36778 5.47917 2.89903 5.47917H1.6907C1.64903 5.47917 1.6282 5.5 1.6282 5.54167L1.14903 9.5C1.1334 9.5 1.1334 9.51563 1.14903 9.54167C1.15945 9.55729 1.17507 9.5625 1.1907 9.5625H2.39903Z" fill="#D51224"/>
</svg>
