<svg width="16" height="19" viewBox="0 0 16 19" fill="none" xmlns="http://www.w3.org/2000/svg">
<path d="M3 10.1493H2.72917L3 10.941C2.94271 11.066 2.88021 11.1858 2.8125 11.2952C2.75521 11.3941 2.71354 11.5139 2.6875 11.6493C2.65625 11.816 2.67187 11.9775 2.72917 12.1285C2.79687 12.2691 2.85417 12.4097 2.89583 12.5452L2.70833 12.7327C2.90104 13.191 2.98437 13.665 2.95833 14.1493C2.94271 14.6233 2.90104 15.1025 2.83333 15.5868C2.77604 16.0764 2.77083 16.5556 2.8125 17.0243C2.83854 17.29 2.84375 17.5556 2.83333 17.816C2.81771 18.0816 2.69271 18.316 2.45833 18.5243C2.25 18.7222 2.00521 18.8368 1.72917 18.8785C1.46354 18.9306 1.17708 18.9462 0.875 18.9202C0.75 18.9202 0.645833 18.8681 0.5625 18.7743L0.208333 18.3368C0.0937507 18.2014 0.0833333 18.0452 0.166667 17.8785C0.218751 17.7535 0.218751 17.6389 0.166667 17.5243L0 17.1077C0.135417 16.7743 0.255208 16.4202 0.354167 16.0452C0.447916 15.6702 0.447916 15.3056 0.354167 14.941C0.281249 14.5816 0.192708 14.2743 0.0833333 14.0243C-0.0156253 13.7639 0.052084 13.4618 0.291667 13.1285C0.166667 12.8525 0.130208 12.5608 0.1875 12.2535C0.255208 11.9358 0.218751 11.665 0.0833333 11.441L0.354167 10.7952L0.0416667 10.441C0.177084 10.0243 0.234375 9.62328 0.208333 9.23266C0.177084 8.83162 0.130208 8.43057 0.0625 8.02432C0.005208 7.62328 0.005208 7.20662 0.0625 6.77432C0.072916 6.63891 0.109375 6.49828 0.166667 6.35766C0.218751 6.22224 0.255208 6.08162 0.270833 5.94099C0.3125 5.74828 0.3125 5.58162 0.270833 5.44099C0.229167 5.28995 0.192708 5.12849 0.166667 4.96182C0.0937507 4.60245 0.0625 4.24308 0.0625 3.87849C0.0625 3.51912 0.052084 3.17016 0.0416667 2.83682L0.270833 2.64932C0.255208 2.41495 0.234375 2.17016 0.208333 1.92016C0.192708 1.65974 0.213541 1.40974 0.270833 1.17016C0.3125 1.03474 0.354167 0.894117 0.395833 0.753491C0.447916 0.618075 0.510417 0.482658 0.583333 0.357658C0.708333 0.0972407 0.906249 -0.02255 1.1875 0.00349138C1.40625 0.034742 1.625 0.055574 1.83333 0.0659914C2.04167 0.0659914 2.25 0.0659914 2.45833 0.0659914C2.625 0.0659914 2.77083 0.107658 2.89583 0.190991C3.03125 0.331617 3.17708 0.388907 3.33333 0.357658C3.63542 0.347241 3.92708 0.310783 4.20833 0.253491C4.5 0.185783 4.78125 0.149325 5.0625 0.149325C5.27083 0.149325 5.4375 0.232658 5.5625 0.399325C5.94792 0.956617 6.33333 1.52432 6.70833 2.10766C7.09375 2.69099 7.40625 3.28995 7.64583 3.89932C7.77083 4.18057 7.88021 4.45662 7.97917 4.73266C8.08854 5.01391 8.27083 5.25349 8.52083 5.46182C8.8125 5.68578 9.01042 5.90974 9.125 6.12849C9.23438 6.33682 9.35938 6.60766 9.5 6.94099H9.64583C9.71354 7.12328 9.80208 7.28995 9.91667 7.44099C10.0417 7.58162 10.1458 7.74308 10.2292 7.92016C10.2969 8.10245 10.3385 8.28474 10.3542 8.46182C10.3646 8.62849 10.4219 8.80557 10.5208 8.98266C10.6979 9.26391 10.9219 9.49828 11.1875 9.69099C11.4635 9.88891 11.6354 10.1702 11.7083 10.5452C11.8438 10.6181 11.9635 10.6858 12.0625 10.7535C12.1719 10.8108 12.3021 10.8525 12.4583 10.8785C12.3438 10.6025 12.3125 10.3056 12.3542 9.98266C12.3958 9.66495 12.3802 9.35766 12.3125 9.06599L12.3958 8.96182C12.2969 8.60245 12.276 8.24308 12.3333 7.87849C12.3854 7.51912 12.4219 7.14932 12.4375 6.77432C12.4792 6.37328 12.4583 5.97224 12.375 5.56599C12.2917 5.16495 12.3021 4.76391 12.4167 4.35766C12.5521 3.77432 12.5521 3.20141 12.4167 2.62849C12.3333 2.21182 12.3177 1.82641 12.375 1.46182C12.4271 1.08682 12.5938 0.763907 12.875 0.482658C12.9583 0.388907 13.0677 0.336825 13.2083 0.336825C13.401 0.310783 13.5833 0.28995 13.75 0.274325C13.9167 0.263907 14.0885 0.232658 14.2708 0.190991C14.4635 0.138907 14.6302 0.206617 14.7708 0.399325C14.9479 0.66495 15.0833 0.920158 15.1667 1.17016C15.2344 1.29516 15.2292 1.43578 15.1458 1.58682C15.0729 1.71182 15.0625 1.85766 15.1042 2.02432C15.2292 2.30557 15.2552 2.59724 15.1875 2.89932C15.1146 3.19099 15.0729 3.49308 15.0625 3.79516C15.0469 3.93578 15.0469 4.07641 15.0625 4.21182C15.0885 4.35245 15.1146 4.49828 15.1458 4.64932C15.1562 4.84724 15.151 5.03474 15.125 5.21182C15.0938 5.37849 15.0677 5.56078 15.0417 5.75349C15.0104 6.07641 15.026 6.39412 15.0833 6.71182C15.151 7.01912 15.1979 7.33162 15.2292 7.64932C15.2396 7.84724 15.2188 8.03995 15.1667 8.23266C15.125 8.41495 15.0938 8.60245 15.0833 8.79516C15.0833 9.00349 15.1094 9.20662 15.1667 9.39932C15.2344 9.59724 15.2917 9.78995 15.3333 9.98266L15.0833 10.2327C15.125 10.4722 15.1771 10.7118 15.25 10.9618C15.3333 11.2118 15.3646 11.4722 15.3542 11.7327C15.3385 11.9566 15.2969 12.191 15.2292 12.441C15.1719 12.6806 15.1146 12.9097 15.0625 13.1285C14.9896 13.5191 14.9427 13.9306 14.9167 14.3577C14.8854 14.79 14.9896 15.1806 15.2292 15.5243C15.1146 15.8577 15.0938 16.191 15.1667 16.5243C15.2344 16.8577 15.2552 17.2014 15.2292 17.5452C15.1979 17.8525 15.1042 18.0972 14.9375 18.2743C14.7708 18.441 14.5729 18.6077 14.3542 18.7743L14.0208 18.6702C13.7552 18.8212 13.5521 18.8889 13.4167 18.8785C13.2917 18.8629 13.0885 18.7847 12.8125 18.6285C12.4375 18.7535 12.0521 18.816 11.6667 18.816C11.276 18.816 10.9167 18.691 10.5833 18.441C10.3438 18.2639 10.1354 18.0243 9.95833 17.7327C9.79167 17.441 9.56771 17.2066 9.29167 17.0243C9.27604 16.5816 9.15625 16.1389 8.9375 15.691C8.72917 15.2327 8.42188 14.9097 8.02083 14.7118C7.9375 14.4775 7.8125 14.2483 7.64583 14.0243C7.48958 13.79 7.35938 13.5452 7.25 13.2952C7.21875 13.1702 7.19271 13.0452 7.16667 12.9202C7.15104 12.7847 7.10938 12.6597 7.04167 12.5452C6.96875 12.4202 6.86458 12.3264 6.72917 12.2535C6.60417 12.1858 6.47917 12.1181 6.35417 12.0452C6.22917 11.3785 5.97917 10.7691 5.60417 10.2118C5.22917 9.64412 4.81771 9.08682 4.375 8.54516C3.94271 7.99308 3.58333 7.43057 3.29167 6.85766C3.05208 6.95662 2.89583 7.14412 2.8125 7.42016C2.72917 7.70141 2.6875 8.01912 2.6875 8.37849C2.69792 8.74308 2.73437 9.08682 2.79167 9.42016C2.85937 9.74308 2.92708 9.98266 3 10.1493Z" fill="#D72333"/>
</svg>
