<svg width="7" height="12" viewBox="0 0 7 12" fill="none" xmlns="http://www.w3.org/2000/svg">
<path d="M6.10417 8.52083C6.11458 9.38542 5.84375 10.0729 5.29167 10.5833C4.73438 11.099 4 11.3542 3.08333 11.3542C2.20833 11.3542 1.5 11.099 0.958333 10.5833C0.416667 10.0729 0.145833 9.38542 0.145833 8.52083V8.04167C0.145833 7.98958 0.166667 7.94792 0.208333 7.91667C0.25 7.875 0.291667 7.85417 0.333333 7.85417H2.20833C2.25 7.85417 2.29167 7.875 2.33333 7.91667C2.375 7.94792 2.39583 7.98958 2.39583 8.04167V8.39583C2.39583 8.67708 2.45833 8.91146 2.58333 9.10417C2.71875 9.30208 2.88542 9.39583 3.08333 9.39583C3.30208 9.39583 3.48437 9.30729 3.625 9.125C3.77604 8.93229 3.85417 8.6875 3.85417 8.39583V6.79167C3.85417 6.76563 3.83854 6.75 3.8125 6.75C3.79687 6.73958 3.77604 6.74479 3.75 6.77083C3.41667 7.05208 3.02604 7.1875 2.58333 7.1875C1.84375 7.1875 1.25 6.94792 0.791667 6.45833C0.343749 5.97396 0.0937493 5.32813 0.0416667 4.52083C0.010416 4.22917 0 3.91667 0 3.58333C0 3.34896 0.005208 3.03125 0.0208333 2.625C0.0625 1.79167 0.343749 1.14583 0.875 0.6875C1.41667 0.229167 2.13542 0 3.04167 0C3.88542 0 4.56771 0.208333 5.08333 0.625C5.60938 1.04167 5.92188 1.67708 6.02083 2.52083C6.0625 2.85417 6.08333 3.14583 6.08333 3.39583L6.10417 8.52083ZM3.8125 4.6875C3.83854 4.41146 3.85417 4.09375 3.85417 3.72917C3.85417 3.34375 3.83854 3.01563 3.8125 2.75C3.78125 2.47396 3.69792 2.26563 3.5625 2.125C3.4375 1.97396 3.27083 1.89583 3.0625 1.89583C2.85417 1.89583 2.67708 1.97917 2.54167 2.14583C2.40104 2.30208 2.31771 2.51563 2.29167 2.79167C2.27604 3.05729 2.27083 3.36979 2.27083 3.72917C2.27083 3.97917 2.28125 4.3125 2.3125 4.72917C2.35417 4.96875 2.4375 5.15625 2.5625 5.29167C2.6875 5.43229 2.85417 5.5 3.0625 5.5C3.25521 5.5 3.41667 5.43229 3.54167 5.29167C3.67708 5.14063 3.77083 4.9375 3.8125 4.6875Z" fill="#D72333"/>
</svg>
