<svg width="110" height="56" viewBox="0 0 110 56" fill="none" xmlns="http://www.w3.org/2000/svg">
<mask id="mask0_25_17999" style="mask-type:luminance" maskUnits="userSpaceOnUse" x="0" y="0" width="110" height="56">
<path d="M109.333 0H0V56H109.333V0Z" fill="white"/>
</mask>
<g mask="url(#mask0_25_17999)">
<path d="M6.52636 16.5472C6.40136 16.5472 6.32844 16.4951 6.31802 16.3805L6.06802 14.8597C6.06802 14.8076 6.03157 14.7764 5.96386 14.7764H3.96386C3.89094 14.7764 3.85969 14.8076 3.85969 14.8597L3.60969 16.3805C3.59407 16.4951 3.52636 16.5472 3.40136 16.5472H1.54719C1.40657 16.5472 1.35969 16.4795 1.40136 16.3389L3.71386 5.63053C3.7399 5.52116 3.80761 5.46387 3.92219 5.46387H6.06802C6.1774 5.46387 6.24511 5.52116 6.27636 5.63053L8.58886 16.3389V16.4014C8.58886 16.5003 8.53157 16.5472 8.42219 16.5472H6.52636ZM4.17219 12.9639C4.17219 13.0212 4.19302 13.0472 4.23469 13.0472H5.67219C5.72427 13.0472 5.74511 13.0212 5.73469 12.9639L4.98469 8.65137C4.96907 8.6097 4.94823 8.58887 4.92219 8.58887C4.90657 8.58887 4.90136 8.6097 4.90136 8.65137L4.17219 12.9639Z" fill="#D72333"/>
<path d="M12.8638 5.44336C13.4471 5.44336 13.9575 5.58919 14.4054 5.88086C14.8638 6.16211 15.2179 6.55794 15.4679 7.06836C15.7179 7.58398 15.8429 8.16732 15.8429 8.81836C15.8429 9.80794 15.5773 10.5996 15.0513 11.1934C14.52 11.7767 13.8325 12.0684 12.9888 12.0684H11.8013C11.744 12.0684 11.7179 12.0996 11.7179 12.1517V16.36C11.7179 16.4173 11.6971 16.4642 11.6554 16.5059C11.6242 16.5371 11.5825 16.5475 11.5304 16.5475H9.67627C9.61898 16.5475 9.5721 16.5371 9.53044 16.5059C9.49919 16.4642 9.48877 16.4173 9.48877 16.36V5.63086C9.48877 5.58919 9.49919 5.54753 9.53044 5.50586C9.5721 5.46419 9.61898 5.44336 9.67627 5.44336H12.8638ZM12.4888 10.3184C12.8221 10.3184 13.0929 10.1934 13.3013 9.94336C13.5096 9.68294 13.6138 9.31836 13.6138 8.86003C13.6138 8.40169 13.5096 8.04232 13.3013 7.77669C13.0929 7.51628 12.8221 7.38086 12.4888 7.38086H11.8013C11.744 7.38086 11.7179 7.41211 11.7179 7.46419V10.2559C11.7179 10.2975 11.744 10.3184 11.8013 10.3184H12.4888Z" fill="#D72333"/>
<path d="M22.6611 7.19303C22.6611 7.25033 22.6403 7.2972 22.5986 7.33887C22.557 7.37012 22.5049 7.38053 22.4528 7.38053H19.1611C19.1195 7.38053 19.0986 7.41178 19.0986 7.46387V9.96387C19.0986 10.0212 19.1195 10.0472 19.1611 10.0472H21.057C21.1091 10.0472 21.1507 10.068 21.182 10.1097C21.2236 10.141 21.2445 10.1826 21.2445 10.2347V11.7555C21.2445 11.8128 21.2236 11.8597 21.182 11.9014C21.1507 11.943 21.1091 11.9639 21.057 11.9639H19.1611C19.1195 11.9639 19.0986 11.9847 19.0986 12.0264V16.3597C19.0986 16.417 19.0778 16.4639 19.0361 16.5055C18.9945 16.5368 18.9424 16.5472 18.8903 16.5472H17.057C16.9997 16.5472 16.9528 16.5368 16.9111 16.5055C16.8695 16.4639 16.8486 16.417 16.8486 16.3597V5.65137C16.8486 5.59928 16.8695 5.55762 16.9111 5.52637C16.9528 5.4847 16.9997 5.46387 17.057 5.46387H22.4528C22.5049 5.46387 22.557 5.4847 22.5986 5.52637C22.6403 5.55762 22.6611 5.59928 22.6611 5.65137V7.19303Z" fill="#D72333"/>
<path d="M29.3247 7.19303C29.3247 7.25033 29.3039 7.2972 29.2622 7.33887C29.231 7.37012 29.1893 7.38053 29.1372 7.38053H25.8247C25.783 7.38053 25.7622 7.41178 25.7622 7.46387V9.96387C25.7622 10.0212 25.783 10.0472 25.8247 10.0472H27.7414C27.783 10.0472 27.8247 10.068 27.8664 10.1097C27.908 10.141 27.9289 10.1826 27.9289 10.2347V11.7555C27.9289 11.8128 27.908 11.8597 27.8664 11.9014C27.8247 11.943 27.783 11.9639 27.7414 11.9639H25.8247C25.783 11.9639 25.7622 11.9847 25.7622 12.0264V14.5472C25.7622 14.6045 25.783 14.6305 25.8247 14.6305H29.1372C29.1893 14.6305 29.231 14.6514 29.2622 14.693C29.3039 14.7243 29.3247 14.766 29.3247 14.818V16.3597C29.3247 16.417 29.3039 16.4639 29.2622 16.5055C29.231 16.5368 29.1893 16.5472 29.1372 16.5472H23.7205C23.6632 16.5472 23.6164 16.5368 23.5747 16.5055C23.533 16.4639 23.5122 16.417 23.5122 16.3597V5.65137C23.5122 5.59928 23.533 5.55762 23.5747 5.52637C23.6164 5.4847 23.6632 5.46387 23.7205 5.46387H29.1372C29.1893 5.46387 29.231 5.4847 29.2622 5.52637C29.3039 5.55762 29.3247 5.59928 29.3247 5.65137V7.19303Z" fill="#D72333"/>
<path d="M30.6532 16.5472C30.5959 16.5472 30.549 16.5368 30.5073 16.5055C30.4657 16.4639 30.4448 16.417 30.4448 16.3597V5.65137C30.4448 5.59928 30.4657 5.55762 30.5073 5.52637C30.549 5.4847 30.5959 5.46387 30.6532 5.46387H32.4865C32.5386 5.46387 32.5907 5.4847 32.6323 5.52637C32.674 5.55762 32.6948 5.59928 32.6948 5.65137V14.5472C32.6948 14.6045 32.7157 14.6305 32.7573 14.6305H36.0907C36.1427 14.6305 36.1844 14.6514 36.2157 14.693C36.2573 14.7243 36.2782 14.766 36.2782 14.818V16.3597C36.2782 16.417 36.2573 16.4639 36.2157 16.5055C36.1844 16.5368 36.1427 16.5472 36.0907 16.5472H30.6532Z" fill="#D72333"/>
<path d="M44.8947 5.65137C44.8947 5.59928 44.9051 5.55762 44.9364 5.52637C44.978 5.4847 45.0249 5.46387 45.0822 5.46387H46.9155C46.9676 5.46387 47.0093 5.4847 47.0405 5.52637C47.0822 5.55762 47.103 5.59928 47.103 5.65137V16.3597C47.103 16.417 47.0822 16.4639 47.0405 16.5055C47.0093 16.5368 46.9676 16.5472 46.9155 16.5472H44.8322C44.7176 16.5472 44.6499 16.4951 44.6239 16.3805L42.6655 10.2555C42.6499 10.2295 42.6291 10.2243 42.603 10.2347C42.5718 10.2347 42.5614 10.2503 42.5614 10.2764L42.5822 16.3597C42.5822 16.417 42.5614 16.4639 42.5197 16.5055C42.4884 16.5368 42.4468 16.5472 42.3947 16.5472H40.5614C40.5041 16.5472 40.4572 16.5368 40.4155 16.5055C40.3739 16.4639 40.353 16.417 40.353 16.3597V5.65137C40.353 5.59928 40.3739 5.55762 40.4155 5.52637C40.4572 5.4847 40.5041 5.46387 40.5614 5.46387H42.6239C42.7332 5.46387 42.8009 5.52116 42.8322 5.63053L44.8114 11.7555C44.8218 11.7868 44.8426 11.7972 44.8739 11.7972C44.8999 11.7868 44.9155 11.766 44.9155 11.7347L44.8947 5.65137Z" fill="#D72333"/>
<path d="M53.1548 16.5472C53.0298 16.5472 52.9569 16.4951 52.9464 16.3805L52.6964 14.8597C52.6964 14.8076 52.66 14.7764 52.5923 14.7764H50.5923C50.5194 14.7764 50.4881 14.8076 50.4881 14.8597L50.2381 16.3805C50.2225 16.4951 50.1548 16.5472 50.0298 16.5472H48.1756C48.035 16.5472 47.9881 16.4795 48.0298 16.3389L50.3423 5.63053C50.3683 5.52116 50.436 5.46387 50.5506 5.46387H52.6964C52.8058 5.46387 52.8735 5.52116 52.9048 5.63053L55.2173 16.3389V16.4014C55.2173 16.5003 55.16 16.5472 55.0506 16.5472H53.1548ZM50.8006 12.9639C50.8006 13.0212 50.8214 13.0472 50.8631 13.0472H52.3006C52.3527 13.0472 52.3735 13.0212 52.3631 12.9639L51.6131 8.65137C51.5975 8.6097 51.5767 8.58887 51.5506 8.58887C51.535 8.58887 51.5298 8.6097 51.5298 8.65137L50.8006 12.9639Z" fill="#D72333"/>
<path d="M62.263 5.46387C62.3151 5.46387 62.3568 5.4847 62.388 5.52637C62.4297 5.55762 62.4505 5.59928 62.4505 5.65137V7.19303C62.4505 7.25033 62.4297 7.2972 62.388 7.33887C62.3568 7.37012 62.3151 7.38053 62.263 7.38053H60.2839C60.2422 7.38053 60.2214 7.41178 60.2214 7.46387V16.3597C60.2214 16.417 60.2005 16.4639 60.1589 16.5055C60.1172 16.5368 60.0651 16.5472 60.013 16.5472H58.1589C58.1172 16.5472 58.0755 16.5368 58.0339 16.5055C57.9922 16.4639 57.9714 16.417 57.9714 16.3597V7.46387C57.9714 7.41178 57.9505 7.38053 57.9089 7.38053H55.9922C55.9505 7.38053 55.9089 7.37012 55.8672 7.33887C55.8255 7.2972 55.8047 7.25033 55.8047 7.19303V5.65137C55.8047 5.59928 55.8255 5.55762 55.8672 5.52637C55.9089 5.4847 55.9505 5.46387 55.9922 5.46387H62.263Z" fill="#D72333"/>
<path d="M66.6287 16.6722C65.6808 16.6722 64.9204 16.3753 64.3371 15.7764C63.7642 15.1826 63.4829 14.391 63.4829 13.4014V5.65137C63.4829 5.59928 63.4933 5.55762 63.5246 5.52637C63.5662 5.4847 63.6131 5.46387 63.6704 5.46387H65.5246C65.5767 5.46387 65.6183 5.4847 65.6496 5.52637C65.6912 5.55762 65.7121 5.59928 65.7121 5.65137V13.6097C65.7121 13.9587 65.7954 14.2347 65.9621 14.443C66.1392 14.6514 66.3631 14.7555 66.6287 14.7555C66.9048 14.7555 67.1287 14.6514 67.2954 14.443C67.4621 14.2347 67.5454 13.9587 67.5454 13.6097V5.65137C67.5454 5.59928 67.5558 5.55762 67.5871 5.52637C67.6287 5.4847 67.6756 5.46387 67.7329 5.46387H69.5871C69.6392 5.46387 69.6808 5.4847 69.7121 5.52637C69.7537 5.55762 69.7746 5.59928 69.7746 5.65137V13.4014C69.7746 14.391 69.4829 15.1826 68.8996 15.7764C68.3267 16.3753 67.5715 16.6722 66.6287 16.6722Z" fill="#D72333"/>
<path d="M75.4814 16.5472C75.3669 16.5472 75.2992 16.4951 75.2731 16.3805L74.0439 12.0264C74.0283 11.9847 74.0023 11.9639 73.9606 11.9639H73.4189C73.3773 11.9639 73.3564 11.9847 73.3564 12.0264V16.3597C73.3564 16.417 73.3356 16.4639 73.2939 16.5055C73.2523 16.5368 73.2002 16.5472 73.1481 16.5472H71.3148C71.2575 16.5472 71.2106 16.5368 71.1689 16.5055C71.1273 16.4639 71.1064 16.417 71.1064 16.3597V5.65137C71.1064 5.59928 71.1273 5.55762 71.1689 5.52637C71.2106 5.4847 71.2575 5.46387 71.3148 5.46387H74.5023C75.0856 5.46387 75.596 5.60449 76.0439 5.88053C76.5023 6.16178 76.8564 6.55762 77.1064 7.06803C77.3564 7.56803 77.4814 8.14616 77.4814 8.7972C77.4814 9.4222 77.3617 9.97949 77.1273 10.4639C76.8877 10.9378 76.5544 11.3076 76.1273 11.568C76.1117 11.568 76.096 11.5837 76.0856 11.6097C76.07 11.6253 76.07 11.641 76.0856 11.6514L77.5439 16.318L77.5648 16.3805C77.5648 16.4951 77.5023 16.5472 77.3773 16.5472H75.4814ZM73.4189 7.38053C73.3773 7.38053 73.3564 7.41178 73.3564 7.46387V10.1722C73.3564 10.2295 73.3773 10.2555 73.4189 10.2555H74.1481C74.4658 10.2555 74.7314 10.1253 74.9398 9.8597C75.1481 9.59928 75.2523 9.25033 75.2523 8.81803C75.2523 8.37533 75.1481 8.02637 74.9398 7.77637C74.7314 7.51595 74.4658 7.38053 74.1481 7.38053H73.4189Z" fill="#D72333"/>
<path d="M84.7069 5.46387C84.759 5.46387 84.8006 5.4847 84.8319 5.52637C84.8735 5.55762 84.8944 5.59928 84.8944 5.65137V7.19303C84.8944 7.25033 84.8735 7.2972 84.8319 7.33887C84.8006 7.37012 84.759 7.38053 84.7069 7.38053H82.7277C82.686 7.38053 82.6652 7.41178 82.6652 7.46387V16.3597C82.6652 16.417 82.6444 16.4639 82.6027 16.5055C82.561 16.5368 82.509 16.5472 82.4569 16.5472H80.6027C80.561 16.5472 80.5194 16.5368 80.4777 16.5055C80.436 16.4639 80.4152 16.417 80.4152 16.3597V7.46387C80.4152 7.41178 80.3944 7.38053 80.3527 7.38053H78.436C78.3944 7.38053 78.3527 7.37012 78.311 7.33887C78.2694 7.2972 78.2485 7.25033 78.2485 7.19303V5.65137C78.2485 5.59928 78.2694 5.55762 78.311 5.52637C78.3527 5.4847 78.3944 5.46387 78.436 5.46387H84.7069Z" fill="#D72333"/>
<path d="M90.3433 16.5472C90.2287 16.5472 90.161 16.4951 90.1349 16.3805L88.9058 12.0264C88.8901 11.9847 88.8641 11.9639 88.8224 11.9639H88.2808C88.2391 11.9639 88.2183 11.9847 88.2183 12.0264V16.3597C88.2183 16.417 88.1974 16.4639 88.1558 16.5055C88.1141 16.5368 88.062 16.5472 88.0099 16.5472H86.1766C86.1193 16.5472 86.0724 16.5368 86.0308 16.5055C85.9891 16.4639 85.9683 16.417 85.9683 16.3597V5.65137C85.9683 5.59928 85.9891 5.55762 86.0308 5.52637C86.0724 5.4847 86.1193 5.46387 86.1766 5.46387H89.3641C89.9474 5.46387 90.4578 5.60449 90.9058 5.88053C91.3641 6.16178 91.7183 6.55762 91.9683 7.06803C92.2183 7.56803 92.3433 8.14616 92.3433 8.7972C92.3433 9.4222 92.2235 9.97949 91.9891 10.4639C91.7495 10.9378 91.4162 11.3076 90.9891 11.568C90.9735 11.568 90.9578 11.5837 90.9474 11.6097C90.9318 11.6253 90.9318 11.641 90.9474 11.6514L92.4058 16.318L92.4266 16.3805C92.4266 16.4951 92.3641 16.5472 92.2391 16.5472H90.3433ZM88.2808 7.38053C88.2391 7.38053 88.2183 7.41178 88.2183 7.46387V10.1722C88.2183 10.2295 88.2391 10.2555 88.2808 10.2555H89.0099C89.3276 10.2555 89.5933 10.1253 89.8016 9.8597C90.0099 9.59928 90.1141 9.25033 90.1141 8.81803C90.1141 8.37533 90.0099 8.02637 89.8016 7.77637C89.5933 7.51595 89.3276 7.38053 89.0099 7.38053H88.2808Z" fill="#D72333"/>
<path d="M96.5277 16.6724C95.5798 16.6724 94.8193 16.3755 94.236 15.7765C93.6631 15.1828 93.3818 14.3911 93.3818 13.4015V5.65153C93.3818 5.59945 93.3923 5.55778 93.4235 5.52653C93.4652 5.48486 93.512 5.46403 93.5693 5.46403H95.4235C95.4756 5.46403 95.5173 5.48486 95.5485 5.52653C95.5902 5.55778 95.611 5.59945 95.611 5.65153V13.6099C95.611 13.9588 95.6943 14.2349 95.861 14.4432C96.0381 14.6515 96.262 14.7557 96.5277 14.7557C96.8037 14.7557 97.0277 14.6515 97.1943 14.4432C97.361 14.2349 97.4443 13.9588 97.4443 13.6099V5.65153C97.4443 5.59945 97.4548 5.55778 97.486 5.52653C97.5277 5.48486 97.5745 5.46403 97.6318 5.46403H99.486C99.5381 5.46403 99.5798 5.48486 99.611 5.52653C99.6527 5.55778 99.6735 5.59945 99.6735 5.65153V13.4015C99.6735 14.3911 99.3818 15.1828 98.7985 15.7765C98.2256 16.3755 97.4704 16.6724 96.5277 16.6724ZM97.986 4.54736C97.6214 4.54736 97.3245 4.43278 97.0902 4.1932C96.8506 3.95882 96.736 3.66195 96.736 3.29736C96.736 2.93799 96.8454 2.64111 97.0693 2.40153C97.3037 2.16716 97.611 2.04736 97.986 2.04736C98.3454 2.04736 98.6423 2.16716 98.8818 2.40153C99.1162 2.64111 99.236 2.93799 99.236 3.29736C99.236 3.66195 99.1162 3.95882 98.8818 4.1932C98.6423 4.43278 98.3454 4.54736 97.986 4.54736ZM95.0693 4.54736C94.7048 4.54736 94.4079 4.43278 94.1735 4.1932C93.9339 3.95882 93.8193 3.66195 93.8193 3.29736C93.8193 2.93799 93.9287 2.64111 94.1527 2.40153C94.387 2.16716 94.6943 2.04736 95.0693 2.04736C95.4287 2.04736 95.7256 2.16716 95.9652 2.40153C96.1995 2.64111 96.3193 2.93799 96.3193 3.29736C96.3193 3.66195 96.1995 3.95882 95.9652 4.1932C95.7256 4.43278 95.4287 4.54736 95.0693 4.54736Z" fill="#D72333"/>
<path d="M107.38 13.4847C107.38 14.4743 107.078 15.2295 106.484 15.7555C105.901 16.2868 105.135 16.5472 104.192 16.5472H101.213C101.156 16.5472 101.109 16.5368 101.067 16.5055C101.026 16.4639 101.005 16.417 101.005 16.3597V5.65137C101.005 5.59928 101.026 5.55762 101.067 5.52637C101.109 5.4847 101.156 5.46387 101.213 5.46387H103.838C104.89 5.46387 105.718 5.72428 106.317 6.2347C106.911 6.7347 107.213 7.4847 107.213 8.4847C107.213 9.52637 106.859 10.292 106.151 10.7764C106.109 10.8076 106.099 10.8337 106.13 10.8597C106.963 11.4587 107.38 12.3337 107.38 13.4847ZM103.317 7.38053C103.276 7.38053 103.255 7.41178 103.255 7.46387V9.94303C103.255 10.0003 103.276 10.0264 103.317 10.0264H103.901C104.26 10.0264 104.536 9.91699 104.734 9.69303C104.927 9.45866 105.026 9.14095 105.026 8.7347C105.026 8.29199 104.927 7.95866 104.734 7.7347C104.536 7.50033 104.26 7.38053 103.901 7.38053H103.317ZM104.026 14.6097C104.369 14.6097 104.64 14.4847 104.838 14.2347C105.047 13.9847 105.151 13.6253 105.151 13.1514C105.151 12.693 105.047 12.3285 104.838 12.0472C104.64 11.7712 104.38 11.6305 104.047 11.6305H103.317C103.276 11.6305 103.255 11.6618 103.255 11.7139V14.5264C103.255 14.5837 103.276 14.6097 103.317 14.6097H104.026Z" fill="#D72333"/>
<path d="M6.52636 33.8827C6.40136 33.8827 6.32844 33.8306 6.31802 33.716L6.06802 32.1952C6.06802 32.1431 6.03157 32.1118 5.96386 32.1118H3.96386C3.89094 32.1118 3.85969 32.1431 3.85969 32.1952L3.60969 33.716C3.59407 33.8306 3.52636 33.8827 3.40136 33.8827H1.54719C1.40657 33.8827 1.35969 33.8149 1.40136 33.6743L3.71386 22.966C3.7399 22.8566 3.80761 22.7993 3.92219 22.7993H6.06802C6.1774 22.7993 6.24511 22.8566 6.27636 22.966L8.58886 33.6743V33.7368C8.58886 33.8358 8.53157 33.8827 8.42219 33.8827H6.52636ZM4.17219 30.2993C4.17219 30.3566 4.19302 30.3826 4.23469 30.3826H5.67219C5.72427 30.3826 5.74511 30.3566 5.73469 30.2993L4.98469 25.9868C4.96907 25.9451 4.94823 25.9243 4.92219 25.9243C4.90657 25.9243 4.90136 25.9451 4.90136 25.9868L4.17219 30.2993Z" fill="#D72333"/>
<path d="M12.8638 22.7783C13.4471 22.7783 13.9575 22.9242 14.4054 23.2158C14.8638 23.4971 15.2179 23.8929 15.4679 24.4033C15.7179 24.9189 15.8429 25.5023 15.8429 26.1533C15.8429 27.1429 15.5773 27.9346 15.0513 28.5283C14.52 29.1117 13.8325 29.4033 12.9888 29.4033H11.8013C11.744 29.4033 11.7179 29.4346 11.7179 29.4867V33.695C11.7179 33.7523 11.6971 33.7992 11.6554 33.8408C11.6242 33.8721 11.5825 33.8825 11.5304 33.8825H9.67627C9.61898 33.8825 9.5721 33.8721 9.53044 33.8408C9.49919 33.7992 9.48877 33.7523 9.48877 33.695V22.9658C9.48877 22.9242 9.49919 22.8825 9.53044 22.8408C9.5721 22.7992 9.61898 22.7783 9.67627 22.7783H12.8638ZM12.4888 27.6533C12.8221 27.6533 13.0929 27.5283 13.3013 27.2783C13.5096 27.0179 13.6138 26.6533 13.6138 26.195C13.6138 25.7367 13.5096 25.3773 13.3013 25.1117C13.0929 24.8512 12.8221 24.7158 12.4888 24.7158H11.8013C11.744 24.7158 11.7179 24.7471 11.7179 24.7992V27.5908C11.7179 27.6325 11.744 27.6533 11.8013 27.6533H12.4888Z" fill="#D72333"/>
<path d="M22.6611 24.5285C22.6611 24.5858 22.6403 24.6326 22.5986 24.6743C22.557 24.7056 22.5049 24.716 22.4528 24.716H19.1611C19.1195 24.716 19.0986 24.7472 19.0986 24.7993V27.2993C19.0986 27.3566 19.1195 27.3826 19.1611 27.3826H21.057C21.1091 27.3826 21.1507 27.4035 21.182 27.4451C21.2236 27.4764 21.2445 27.5181 21.2445 27.5701V29.091C21.2445 29.1483 21.2236 29.1951 21.182 29.2368C21.1507 29.2785 21.1091 29.2993 21.057 29.2993H19.1611C19.1195 29.2993 19.0986 29.3201 19.0986 29.3618V33.6952C19.0986 33.7524 19.0778 33.7993 19.0361 33.841C18.9945 33.8722 18.9424 33.8827 18.8903 33.8827H17.057C16.9997 33.8827 16.9528 33.8722 16.9111 33.841C16.8695 33.7993 16.8486 33.7524 16.8486 33.6952V22.9868C16.8486 22.9347 16.8695 22.8931 16.9111 22.8618C16.9528 22.8201 16.9997 22.7993 17.057 22.7993H22.4528C22.5049 22.7993 22.557 22.8201 22.5986 22.8618C22.6403 22.8931 22.6611 22.9347 22.6611 22.9868V24.5285Z" fill="#D72333"/>
<path d="M29.3247 24.5285C29.3247 24.5858 29.3039 24.6326 29.2622 24.6743C29.231 24.7056 29.1893 24.716 29.1372 24.716H25.8247C25.783 24.716 25.7622 24.7472 25.7622 24.7993V27.2993C25.7622 27.3566 25.783 27.3826 25.8247 27.3826H27.7414C27.783 27.3826 27.8247 27.4035 27.8664 27.4451C27.908 27.4764 27.9289 27.5181 27.9289 27.5701V29.091C27.9289 29.1483 27.908 29.1951 27.8664 29.2368C27.8247 29.2785 27.783 29.2993 27.7414 29.2993H25.8247C25.783 29.2993 25.7622 29.3201 25.7622 29.3618V31.8827C25.7622 31.9399 25.783 31.966 25.8247 31.966H29.1372C29.1893 31.966 29.231 31.9868 29.2622 32.0285C29.3039 32.0597 29.3247 32.1014 29.3247 32.1535V33.6952C29.3247 33.7524 29.3039 33.7993 29.2622 33.841C29.231 33.8722 29.1893 33.8827 29.1372 33.8827H23.7205C23.6632 33.8827 23.6164 33.8722 23.5747 33.841C23.533 33.7993 23.5122 33.7524 23.5122 33.6952V22.9868C23.5122 22.9347 23.533 22.8931 23.5747 22.8618C23.6164 22.8201 23.6632 22.7993 23.7205 22.7993H29.1372C29.1893 22.7993 29.231 22.8201 29.2622 22.8618C29.3039 22.8931 29.3247 22.9347 29.3247 22.9868V24.5285Z" fill="#D72333"/>
<path d="M30.6532 33.8827C30.5959 33.8827 30.549 33.8722 30.5073 33.841C30.4657 33.7993 30.4448 33.7524 30.4448 33.6952V22.9868C30.4448 22.9347 30.4657 22.8931 30.5073 22.8618C30.549 22.8201 30.5959 22.7993 30.6532 22.7993H32.4865C32.5386 22.7993 32.5907 22.8201 32.6323 22.8618C32.674 22.8931 32.6948 22.9347 32.6948 22.9868V31.8827C32.6948 31.9399 32.7157 31.966 32.7573 31.966H36.0907C36.1427 31.966 36.1844 31.9868 36.2157 32.0285C36.2573 32.0597 36.2782 32.1014 36.2782 32.1535V33.6952C36.2782 33.7524 36.2573 33.7993 36.2157 33.841C36.1844 33.8722 36.1427 33.8827 36.0907 33.8827H30.6532Z" fill="#D72333"/>
<path d="M37.0625 30.1535C37.0208 30.1535 36.9792 30.1431 36.9375 30.1118C36.8958 30.0701 36.875 30.0233 36.875 29.966V28.4451C36.875 28.3931 36.8958 28.341 36.9375 28.2993C36.9792 28.2576 37.0208 28.2368 37.0625 28.2368H41.1667C41.2187 28.2368 41.2604 28.2576 41.2917 28.2993C41.3333 28.341 41.3542 28.3931 41.3542 28.4451V29.966C41.3542 30.0233 41.3333 30.0701 41.2917 30.1118C41.2604 30.1431 41.2187 30.1535 41.1667 30.1535H37.0625Z" fill="#D72333"/>
<path d="M42.6346 33.8827C42.5773 33.8827 42.5304 33.8722 42.4888 33.841C42.4471 33.7993 42.4263 33.7524 42.4263 33.6952V22.9868C42.4263 22.9347 42.4471 22.8931 42.4888 22.8618C42.5304 22.8201 42.5773 22.7993 42.6346 22.7993H44.4679C44.52 22.7993 44.5721 22.8201 44.6138 22.8618C44.6554 22.8931 44.6763 22.9347 44.6763 22.9868V26.9868C44.6763 27.0285 44.6815 27.0493 44.6971 27.0493C44.7231 27.0493 44.744 27.0285 44.7596 26.9868L46.8013 22.9451C46.8534 22.8514 46.9315 22.7993 47.0304 22.7993H48.9888C49.0565 22.7993 49.1034 22.8201 49.1346 22.8618C49.1606 22.8931 49.1606 22.9451 49.1346 23.0285L46.7804 27.591C46.7804 27.6326 46.7804 27.6639 46.7804 27.6743L49.2596 33.6535C49.27 33.6847 49.2804 33.716 49.2804 33.7577C49.2804 33.841 49.2231 33.8827 49.1138 33.8827H47.1346C47.02 33.8827 46.9523 33.8358 46.9263 33.7368L45.2596 29.591C45.2596 29.5649 45.244 29.5597 45.2179 29.5701C45.2023 29.5701 45.1815 29.5806 45.1554 29.591L44.6971 30.4243C44.6815 30.466 44.6763 30.4972 44.6763 30.5076V33.6952C44.6763 33.7524 44.6554 33.7993 44.6138 33.841C44.5721 33.8722 44.52 33.8827 44.4679 33.8827H42.6346Z" fill="#D72333"/>
<path d="M54.8642 33.8827C54.7392 33.8827 54.6663 33.8306 54.6559 33.716L54.4059 32.1952C54.4059 32.1431 54.3695 32.1118 54.3017 32.1118H52.3017C52.2288 32.1118 52.1976 32.1431 52.1976 32.1952L51.9476 33.716C51.932 33.8306 51.8642 33.8827 51.7392 33.8827H49.8851C49.7445 33.8827 49.6976 33.8149 49.7392 33.6743L52.0517 22.966C52.0778 22.8566 52.1455 22.7993 52.2601 22.7993H54.4059C54.5153 22.7993 54.583 22.8566 54.6142 22.966L56.9267 33.6743V33.7368C56.9267 33.8358 56.8695 33.8827 56.7601 33.8827H54.8642ZM52.5101 30.2993C52.5101 30.3566 52.5309 30.3826 52.5726 30.3826H54.0101C54.0622 30.3826 54.083 30.3566 54.0726 30.2993L53.3226 25.9868C53.307 25.9451 53.2861 25.9243 53.2601 25.9243C53.2445 25.9243 53.2392 25.9451 53.2392 25.9868L52.5101 30.2993Z" fill="#D72333"/>
<path d="M62.2017 33.8827C62.0871 33.8827 62.0194 33.8306 61.9933 33.716L60.7642 29.3618C60.7485 29.3201 60.7225 29.2993 60.6808 29.2993H60.1392C60.0975 29.2993 60.0767 29.3201 60.0767 29.3618V33.6952C60.0767 33.7524 60.0558 33.7993 60.0142 33.841C59.9725 33.8722 59.9204 33.8827 59.8683 33.8827H58.035C57.9777 33.8827 57.9308 33.8722 57.8892 33.841C57.8475 33.7993 57.8267 33.7524 57.8267 33.6952V22.9868C57.8267 22.9347 57.8475 22.8931 57.8892 22.8618C57.9308 22.8201 57.9777 22.7993 58.035 22.7993H61.2225C61.8058 22.7993 62.3162 22.9399 62.7642 23.216C63.2225 23.4972 63.5767 23.8931 63.8267 24.4035C64.0767 24.9035 64.2017 25.4816 64.2017 26.1326C64.2017 26.7576 64.0819 27.3149 63.8475 27.7993C63.6079 28.2733 63.2746 28.6431 62.8475 28.9035C62.8319 28.9035 62.8162 28.9191 62.8058 28.9451C62.7902 28.9608 62.7902 28.9764 62.8058 28.9868L64.2642 33.6535L64.285 33.716C64.285 33.8306 64.2225 33.8827 64.0975 33.8827H62.2017ZM60.1392 24.716C60.0975 24.716 60.0767 24.7472 60.0767 24.7993V27.5076C60.0767 27.5649 60.0975 27.591 60.1392 27.591H60.8683C61.186 27.591 61.4517 27.4608 61.66 27.1951C61.8683 26.9347 61.9725 26.5858 61.9725 26.1535C61.9725 25.7108 61.8683 25.3618 61.66 25.1118C61.4517 24.8514 61.186 24.716 60.8683 24.716H60.1392Z" fill="#D72333"/>
<path d="M68.3232 34.0077C67.3493 34.0077 66.5732 33.7264 65.9899 33.1535C65.417 32.5858 65.1357 31.8306 65.1357 30.8827V25.7993C65.1357 24.8566 65.417 24.1014 65.9899 23.5285C66.5732 22.9608 67.3493 22.6743 68.3232 22.6743C69.292 22.6743 70.0732 22.9608 70.6566 23.5285C71.2503 24.1014 71.5524 24.8566 71.5524 25.7993V30.8827C71.5524 31.8306 71.2503 32.5858 70.6566 33.1535C70.0732 33.7264 69.292 34.0077 68.3232 34.0077ZM68.3232 32.091C68.6253 32.091 68.8649 31.9868 69.0316 31.7785C69.2087 31.5702 69.3024 31.2993 69.3024 30.966V25.716C69.3024 25.3826 69.2087 25.1118 69.0316 24.9035C68.8649 24.6951 68.6253 24.591 68.3232 24.591C68.0316 24.591 67.792 24.6951 67.6149 24.9035C67.4482 25.1118 67.3649 25.3826 67.3649 25.716V30.966C67.3649 31.2993 67.4482 31.5702 67.6149 31.7785C67.792 31.9868 68.0316 32.091 68.3232 32.091Z" fill="#D72333"/>
<path d="M78.9139 22.7993C78.966 22.7993 79.0076 22.8201 79.0389 22.8618C79.0806 22.8931 79.1014 22.9347 79.1014 22.9868V24.5285C79.1014 24.5858 79.0806 24.6326 79.0389 24.6743C79.0076 24.7056 78.966 24.716 78.9139 24.716H76.9347C76.8931 24.716 76.8722 24.7472 76.8722 24.7993V33.6952C76.8722 33.7524 76.8514 33.7993 76.8097 33.841C76.7681 33.8722 76.716 33.8827 76.6639 33.8827H74.8097C74.7681 33.8827 74.7264 33.8722 74.6847 33.841C74.6431 33.7993 74.6222 33.7524 74.6222 33.6952V24.7993C74.6222 24.7472 74.6014 24.716 74.5597 24.716H72.6431C72.6014 24.716 72.5597 24.7056 72.5181 24.6743C72.4764 24.6326 72.4556 24.5858 72.4556 24.5285V22.9868C72.4556 22.9347 72.4764 22.8931 72.5181 22.8618C72.5597 22.8201 72.6014 22.7993 72.6431 22.7993H78.9139Z" fill="#D72333"/>
<path d="M86.3211 22.7993C86.3732 22.7993 86.4149 22.8201 86.4461 22.8618C86.4878 22.8931 86.5086 22.9347 86.5086 22.9868V24.5285C86.5086 24.5858 86.4878 24.6326 86.4461 24.6743C86.4149 24.7056 86.3732 24.716 86.3211 24.716H84.342C84.3003 24.716 84.2795 24.7472 84.2795 24.7993V33.6952C84.2795 33.7524 84.2586 33.7993 84.217 33.841C84.1753 33.8722 84.1232 33.8827 84.0711 33.8827H82.217C82.1753 33.8827 82.1336 33.8722 82.092 33.841C82.0503 33.7993 82.0295 33.7524 82.0295 33.6952V24.7993C82.0295 24.7472 82.0086 24.716 81.967 24.716H80.0503C80.0086 24.716 79.967 24.7056 79.9253 24.6743C79.8836 24.6326 79.8628 24.5858 79.8628 24.5285V22.9868C79.8628 22.9347 79.8836 22.8931 79.9253 22.8618C79.967 22.8201 80.0086 22.7993 80.0503 22.7993H86.3211Z" fill="#D72333"/>
<path d="M93.3955 24.5285C93.3955 24.5858 93.3747 24.6326 93.333 24.6743C93.3018 24.7056 93.2601 24.716 93.208 24.716H89.8955C89.8538 24.716 89.833 24.7472 89.833 24.7993V27.2993C89.833 27.3566 89.8538 27.3826 89.8955 27.3826H91.8122C91.8538 27.3826 91.8955 27.4035 91.9372 27.4451C91.9788 27.4764 91.9997 27.5181 91.9997 27.5701V29.091C91.9997 29.1483 91.9788 29.1951 91.9372 29.2368C91.8955 29.2785 91.8538 29.2993 91.8122 29.2993H89.8955C89.8538 29.2993 89.833 29.3201 89.833 29.3618V31.8827C89.833 31.9399 89.8538 31.966 89.8955 31.966H93.208C93.2601 31.966 93.3018 31.9868 93.333 32.0285C93.3747 32.0597 93.3955 32.1014 93.3955 32.1535V33.6952C93.3955 33.7524 93.3747 33.7993 93.333 33.841C93.3018 33.8722 93.2601 33.8827 93.208 33.8827H87.7913C87.734 33.8827 87.6872 33.8722 87.6455 33.841C87.6038 33.7993 87.583 33.7524 87.583 33.6952V22.9868C87.583 22.9347 87.6038 22.8931 87.6455 22.8618C87.6872 22.8201 87.734 22.7993 87.7913 22.7993H93.208C93.2601 22.7993 93.3018 22.8201 93.333 22.8618C93.3747 22.8931 93.3955 22.9347 93.3955 22.9868V24.5285Z" fill="#D72333"/>
<path d="M4.90137 51.3431C3.92741 51.3431 3.15137 51.0618 2.56803 50.4889C1.99512 49.9212 1.71387 49.166 1.71387 48.2181V43.1348C1.71387 42.1921 1.99512 41.4368 2.56803 40.8639C3.15137 40.2962 3.92741 40.0098 4.90137 40.0098C5.87012 40.0098 6.65137 40.2962 7.2347 40.8639C7.82845 41.4368 8.13053 42.1921 8.13053 43.1348V48.2181C8.13053 49.166 7.82845 49.9212 7.2347 50.4889C6.65137 51.0618 5.87012 51.3431 4.90137 51.3431ZM4.90137 49.4264C5.20345 49.4264 5.44303 49.3223 5.6097 49.1139C5.78678 48.9056 5.88053 48.6348 5.88053 48.3014V43.0514C5.88053 42.7181 5.78678 42.4473 5.6097 42.2389C5.44303 42.0306 5.20345 41.9264 4.90137 41.9264C4.6097 41.9264 4.37012 42.0306 4.19303 42.2389C4.02637 42.4473 3.94303 42.7181 3.94303 43.0514V48.3014C3.94303 48.6348 4.02637 48.9056 4.19303 49.1139C4.37012 49.3223 4.6097 49.4264 4.90137 49.4264Z" fill="#D72333"/>
<path d="M13.7212 51.2181C13.6066 51.2181 13.5389 51.166 13.5129 51.0514L12.2837 46.6973C12.2681 46.6556 12.242 46.6348 12.2004 46.6348H11.6587C11.617 46.6348 11.5962 46.6556 11.5962 46.6973V51.0306C11.5962 51.0879 11.5754 51.1348 11.5337 51.1764C11.492 51.2077 11.4399 51.2181 11.3879 51.2181H9.55452C9.49723 51.2181 9.45036 51.2077 9.40869 51.1764C9.36702 51.1348 9.34619 51.0879 9.34619 51.0306V40.3223C9.34619 40.2702 9.36702 40.2285 9.40869 40.1973C9.45036 40.1556 9.49723 40.1348 9.55452 40.1348H12.742C13.3254 40.1348 13.8358 40.2754 14.2837 40.5514C14.742 40.8327 15.0962 41.2285 15.3462 41.7389C15.5962 42.2389 15.7212 42.8171 15.7212 43.4681C15.7212 44.0931 15.6014 44.6504 15.367 45.1348C15.1274 45.6087 14.7941 45.9785 14.367 46.2389C14.3514 46.2389 14.3358 46.2546 14.3254 46.2806C14.3097 46.2962 14.3097 46.3118 14.3254 46.3223L15.7837 50.9889L15.8045 51.0514C15.8045 51.166 15.742 51.2181 15.617 51.2181H13.7212ZM11.6587 42.0514C11.617 42.0514 11.5962 42.0827 11.5962 42.1348V44.8431C11.5962 44.9004 11.617 44.9264 11.6587 44.9264H12.3879C12.7056 44.9264 12.9712 44.7962 13.1795 44.5306C13.3879 44.2702 13.492 43.9212 13.492 43.4889C13.492 43.0462 13.3879 42.6973 13.1795 42.4473C12.9712 42.1868 12.7056 42.0514 12.3879 42.0514H11.6587Z" fill="#D72333"/>
<path d="M21.4678 51.2181C21.3428 51.2181 21.2698 51.166 21.2594 51.0514L21.0094 49.5306C21.0094 49.4785 20.973 49.4473 20.9053 49.4473H18.9053C18.8323 49.4473 18.8011 49.4785 18.8011 49.5306L18.5511 51.0514C18.5355 51.166 18.4678 51.2181 18.3428 51.2181H16.4886C16.348 51.2181 16.3011 51.1504 16.3428 51.0098L18.6553 40.3014C18.6813 40.1921 18.749 40.1348 18.8636 40.1348H21.0094C21.1188 40.1348 21.1865 40.1921 21.2178 40.3014L23.5303 51.0098V51.0723C23.5303 51.1712 23.473 51.2181 23.3636 51.2181H21.4678ZM19.1136 47.6348C19.1136 47.6921 19.1344 47.7181 19.1761 47.7181H20.6136C20.6657 47.7181 20.6865 47.6921 20.6761 47.6348L19.9261 43.3223C19.9105 43.2806 19.8896 43.2598 19.8636 43.2598C19.848 43.2598 19.8428 43.2806 19.8428 43.3223L19.1136 47.6348Z" fill="#D72333"/>
<path d="M28.9718 40.3223C28.9718 40.2702 28.9823 40.2285 29.0135 40.1973C29.0552 40.1556 29.1021 40.1348 29.1593 40.1348H30.9927C31.0448 40.1348 31.0864 40.1556 31.1177 40.1973C31.1593 40.2285 31.1802 40.2702 31.1802 40.3223V51.0306C31.1802 51.0879 31.1593 51.1348 31.1177 51.1764C31.0864 51.2077 31.0448 51.2181 30.9927 51.2181H28.9093C28.7948 51.2181 28.7271 51.166 28.701 51.0514L26.7427 44.9264C26.7271 44.9004 26.7062 44.8952 26.6802 44.9056C26.6489 44.9056 26.6385 44.9212 26.6385 44.9473L26.6593 51.0306C26.6593 51.0879 26.6385 51.1348 26.5968 51.1764C26.5656 51.2077 26.5239 51.2181 26.4718 51.2181H24.6385C24.5812 51.2181 24.5343 51.2077 24.4927 51.1764C24.451 51.1348 24.4302 51.0879 24.4302 51.0306V40.3223C24.4302 40.2702 24.451 40.2285 24.4927 40.1973C24.5343 40.1556 24.5812 40.1348 24.6385 40.1348H26.701C26.8104 40.1348 26.8781 40.1921 26.9093 40.3014L28.8885 46.4264C28.8989 46.4577 28.9198 46.4681 28.951 46.4681C28.9771 46.4577 28.9927 46.4368 28.9927 46.4056L28.9718 40.3223Z" fill="#D72333"/>
<path d="M35.5658 51.3431C34.6178 51.3431 33.8574 51.0723 33.2741 50.5306C32.7012 49.9889 32.4199 49.2598 32.4199 48.3431V43.0098C32.4199 42.0931 32.7012 41.3639 33.2741 40.8223C33.8574 40.2806 34.6178 40.0098 35.5658 40.0098C36.5085 40.0098 37.2741 40.291 37.8574 40.8431C38.4408 41.3848 38.7324 42.1087 38.7324 43.0098V43.6139C38.7324 43.6712 38.7116 43.7181 38.6699 43.7598C38.6387 43.791 38.597 43.8014 38.5449 43.8014H36.6908C36.6335 43.8014 36.5866 43.791 36.5449 43.7598C36.5137 43.7181 36.5033 43.6712 36.5033 43.6139V42.9889C36.5033 42.6712 36.4199 42.416 36.2533 42.2181C36.0866 42.0254 35.8574 41.9264 35.5658 41.9264C35.2845 41.9264 35.0658 42.0254 34.8991 42.2181C34.7324 42.416 34.6491 42.6712 34.6491 42.9889V48.3639C34.6491 48.6868 34.7324 48.9421 34.8991 49.1348C35.0658 49.3327 35.2845 49.4264 35.5658 49.4264C35.8574 49.4264 36.0866 49.3327 36.2533 49.1348C36.4199 48.9421 36.5033 48.6868 36.5033 48.3639V47.0931C36.5033 47.0514 36.472 47.0306 36.4199 47.0306H35.7324C35.6751 47.0306 35.6283 47.0098 35.5866 46.9681C35.5553 46.9264 35.5449 46.8796 35.5449 46.8223V45.4264C35.5449 45.3743 35.5553 45.3327 35.5866 45.3014C35.6283 45.2598 35.6751 45.2389 35.7324 45.2389H38.5449C38.597 45.2389 38.6387 45.2598 38.6699 45.3014C38.7116 45.3327 38.7324 45.3743 38.7324 45.4264V48.3431C38.7324 49.2598 38.4408 49.9889 37.8574 50.5306C37.2741 51.0723 36.5085 51.3431 35.5658 51.3431Z" fill="#D72333"/>
<path d="M45.7695 41.8639C45.7695 41.9212 45.7487 41.9681 45.707 42.0098C45.6758 42.041 45.6341 42.0514 45.582 42.0514H42.2695C42.2279 42.0514 42.207 42.0827 42.207 42.1348V44.6348C42.207 44.6921 42.2279 44.7181 42.2695 44.7181H44.1862C44.2279 44.7181 44.2695 44.7389 44.3112 44.7806C44.3529 44.8118 44.3737 44.8535 44.3737 44.9056V46.4264C44.3737 46.4837 44.3529 46.5306 44.3112 46.5723C44.2695 46.6139 44.2279 46.6348 44.1862 46.6348H42.2695C42.2279 46.6348 42.207 46.6556 42.207 46.6973V49.2181C42.207 49.2754 42.2279 49.3014 42.2695 49.3014H45.582C45.6341 49.3014 45.6758 49.3223 45.707 49.3639C45.7487 49.3952 45.7695 49.4368 45.7695 49.4889V51.0306C45.7695 51.0879 45.7487 51.1348 45.707 51.1764C45.6758 51.2077 45.6341 51.2181 45.582 51.2181H40.1654C40.1081 51.2181 40.0612 51.2077 40.0195 51.1764C39.9779 51.1348 39.957 51.0879 39.957 51.0306V40.3223C39.957 40.2702 39.9779 40.2285 40.0195 40.1973C40.0612 40.1556 40.1081 40.1348 40.1654 40.1348H45.582C45.6341 40.1348 45.6758 40.1556 45.707 40.1973C45.7487 40.2285 45.7695 40.2702 45.7695 40.3223V41.8639Z" fill="#D72333"/>
</g>
</svg>
