<svg width="6" height="12" viewBox="0 0 6 12" fill="none" xmlns="http://www.w3.org/2000/svg">
<path d="M2.75 11.4167C1.92708 11.4167 1.26042 11.1667 0.75 10.6667C0.25 10.1563 0 9.47396 0 8.625V2.79167C0 1.94792 0.25 1.27083 0.75 0.770833C1.26042 0.260416 1.92708 0 2.75 0C3.58333 0 4.25 0.260416 4.75 0.770833C5.26042 1.27083 5.52083 1.94792 5.52083 2.79167V8.625C5.52083 9.45833 5.26042 10.1354 4.75 10.6458C4.25 11.1615 3.58333 11.4167 2.75 11.4167ZM2.75 10.4375C3.23437 10.4375 3.63021 10.2813 3.9375 9.95833C4.23958 9.625 4.39583 9.20313 4.39583 8.6875V2.72917C4.39583 2.21875 4.23958 1.80208 3.9375 1.47917C3.63021 1.14583 3.23437 0.979167 2.75 0.979167C2.26042 0.979167 1.875 1.14583 1.58333 1.47917C1.29167 1.80208 1.14583 2.21875 1.14583 2.72917V8.6875C1.14583 9.20313 1.29167 9.625 1.58333 9.95833C1.875 10.2813 2.26042 10.4375 2.75 10.4375Z" fill="#D72333"/>
</svg>
