<svg width="4" height="10" viewBox="0 0 4 10" fill="none" xmlns="http://www.w3.org/2000/svg">
<path d="M3.33333 2.64583C3.33333 2.76042 3.27604 2.8125 3.16667 2.8125H1.97917C1.9375 2.8125 1.91667 2.83333 1.91667 2.875V7.66667C1.91667 8.15625 2 8.48958 2.16667 8.66667C2.33333 8.84896 2.58854 8.9375 2.9375 8.9375H3.10417C3.19792 8.9375 3.25 8.98958 3.25 9.08333V9.75C3.25 9.86458 3.19792 9.91667 3.10417 9.91667H2.70833C2.08333 9.91667 1.60937 9.78646 1.29167 9.52083C0.968749 9.26042 0.8125 8.75 0.8125 8V2.875C0.8125 2.83333 0.791667 2.8125 0.75 2.8125H0.145833C0.0468747 2.8125 0 2.76042 0 2.64583V2.14583C0 2.03646 0.0468747 1.97917 0.145833 1.97917H0.75C0.791667 1.97917 0.8125 1.95833 0.8125 1.91667V0.166667C0.8125 0.057292 0.864584 0 0.979167 0H1.77083C1.86458 0 1.91667 0.057292 1.91667 0.166667V1.91667C1.91667 1.95833 1.9375 1.97917 1.97917 1.97917H3.16667C3.27604 1.97917 3.33333 2.03646 3.33333 2.14583V2.64583Z" fill="#D72333"/>
</svg>
