<svg width="9" height="12" viewBox="0 0 9 12" fill="none" xmlns="http://www.w3.org/2000/svg">
<path d="M6.02259 0C6.69967 0 7.28301 0.177084 7.77259 0.520833C8.25696 0.869792 8.56946 1.30208 8.71009 1.8125C8.75176 1.95313 8.77259 2.09375 8.77259 2.22917C8.77259 2.52083 8.66842 2.76042 8.46009 2.9375C8.26217 3.10417 8.04863 3.1875 7.81426 3.1875C7.64759 3.1875 7.48092 3.14063 7.31426 3.04167C7.15801 2.94792 7.03301 2.79167 6.93926 2.58333C6.82467 2.36458 6.69446 2.18229 6.54342 2.04167C6.4028 1.90625 6.23092 1.82813 6.02259 1.8125C5.92363 1.8125 5.79342 1.84375 5.62676 1.89583C5.4705 1.95313 5.33509 2.04167 5.21009 2.16667C5.09551 2.29167 5.04342 2.45313 5.04342 2.64583C5.04342 2.89583 5.12676 3.16146 5.29342 3.4375C5.47051 3.71875 5.68926 3.99479 5.93926 4.27083L6.10592 4.4375C6.36634 4.74479 6.63196 5.07292 6.89759 5.41667C7.15801 5.75 7.37676 6.11458 7.54342 6.5C7.7205 6.89063 7.81426 7.3125 7.81426 7.77083C7.81426 8.28646 7.69967 8.76563 7.48092 9.20833C7.27259 9.65625 6.98092 10.0521 6.60592 10.3958C6.23092 10.7292 5.79863 10.9948 5.31426 11.1875C4.82467 11.3854 4.31946 11.4792 3.79342 11.4792C3.2778 11.4792 2.79342 11.4062 2.33509 11.25C1.87676 11.0833 1.4653 10.849 1.10592 10.5417C0.756964 10.2396 0.480922 9.875 0.272589 9.45833C0.074673 9.03125 -0.0138697 8.55208 0.00175567 8.02083C0.00175567 7.64583 0.11113 7.36979 0.335089 7.1875C0.553838 6.99479 0.79863 6.89583 1.06426 6.89583C1.32467 6.89583 1.56426 6.98958 1.77259 7.16667C1.98092 7.33333 2.08509 7.60417 2.08509 7.97917C2.08509 8.01042 2.08509 8.04167 2.08509 8.08333C2.08509 8.11458 2.08509 8.14063 2.08509 8.16667C2.06946 8.64063 2.23092 9.01042 2.56426 9.27083C2.89759 9.53646 3.29863 9.67708 3.77259 9.6875C4.06426 9.6875 4.3403 9.61979 4.60592 9.47917C4.88196 9.34375 5.11113 9.14063 5.29342 8.875C5.47051 8.61458 5.56426 8.30729 5.56426 7.95833C5.56426 7.57292 5.43926 7.20833 5.18926 6.875C4.94967 6.53125 4.67884 6.16667 4.37676 5.79167C4.12676 5.48958 3.88196 5.18229 3.64759 4.875C3.40801 4.57292 3.21009 4.25 3.04342 3.91667C2.88717 3.58333 2.81426 3.22396 2.81426 2.83333C2.81426 2.70833 2.82467 2.58333 2.85592 2.45833C2.88196 2.33333 2.91842 2.20833 2.96009 2.08333C3.09551 1.625 3.32467 1.24479 3.64759 0.9375C3.9653 0.635417 4.33509 0.406249 4.75176 0.25C5.16842 0.0833333 5.5903 0 6.02259 0Z" fill="#D72333"/>
</svg>
