<svg width="5" height="11" viewBox="0 0 5 11" fill="none" xmlns="http://www.w3.org/2000/svg">
<path d="M1.29167 10.2292C1.23437 10.2292 1.19271 10.2188 1.16667 10.1875C1.15104 10.1615 1.15104 10.1198 1.16667 10.0625L3.66667 0.958333C3.66667 0.947916 3.65625 0.932292 3.64583 0.916667C3.63021 0.906249 3.61458 0.895833 3.60417 0.895833H0.916667C0.885416 0.895833 0.875 0.916667 0.875 0.958333V1.5625C0.875 1.66146 0.822917 1.70833 0.729167 1.70833H0.145833C0.0468747 1.70833 0 1.66146 0 1.5625V0.145833C0 0.052084 0.0468747 0 0.145833 0H4.625C4.71875 0 4.77083 0.052084 4.77083 0.145833V0.8125C4.77083 0.828125 4.76042 0.885417 4.75 0.979167L2.25 10.1042C2.23437 10.1875 2.1875 10.2292 2.10417 10.2292H1.29167Z" fill="#D72333"/>
</svg>
