<svg width="6" height="11" viewBox="0 0 6 11" fill="none" xmlns="http://www.w3.org/2000/svg">
<path d="M2.95833 10.4792C2.05208 10.4792 1.33333 10.2188 0.791667 9.6875C0.260416 9.16146 0 8.45833 0 7.58333V2.89583C0 2.02083 0.260416 1.32292 0.791667 0.791667C1.33333 0.265625 2.05208 0 2.95833 0C3.84375 0 4.5625 0.265625 5.10417 0.791667C5.64583 1.32292 5.91667 2.02083 5.91667 2.89583V7.58333C5.91667 8.45833 5.64583 9.16146 5.10417 9.6875C4.5625 10.2188 3.84375 10.4792 2.95833 10.4792ZM2.95833 8.70833C3.21875 8.70833 3.4375 8.61458 3.60417 8.41667C3.77083 8.22396 3.85417 7.97396 3.85417 7.66667V2.8125C3.85417 2.49479 3.77083 2.24479 3.60417 2.0625C3.4375 1.86979 3.21875 1.77083 2.95833 1.77083C2.67708 1.77083 2.45833 1.86979 2.29167 2.0625C2.13542 2.24479 2.0625 2.49479 2.0625 2.8125V7.66667C2.0625 7.97396 2.13542 8.22396 2.29167 8.41667C2.45833 8.61458 2.67708 8.70833 2.95833 8.70833Z" fill="#D72333"/>
</svg>
