<svg width="11" height="20" viewBox="0 0 11 20" fill="none" xmlns="http://www.w3.org/2000/svg">
<path d="M10.25 3.04167C10.25 3.14063 10.2135 3.22396 10.1458 3.29167C10.0885 3.36458 10.0104 3.39583 9.91667 3.39583H4.08333C3.98437 3.39583 3.9375 3.4375 3.9375 3.52083V7.9375C3.9375 8.03646 3.98437 8.08333 4.08333 8.08333H7.4375C7.52083 8.08333 7.59375 8.11979 7.66667 8.1875C7.73438 8.24479 7.77083 8.32292 7.77083 8.41667V11.125C7.77083 11.224 7.73438 11.3073 7.66667 11.375C7.59375 11.4323 7.52083 11.4583 7.4375 11.4583H4.08333C3.98437 11.4583 3.9375 11.5104 3.9375 11.6042V16.0417C3.9375 16.1406 3.98437 16.1875 4.08333 16.1875H9.91667C10.0104 16.1875 10.0885 16.224 10.1458 16.2917C10.2135 16.349 10.25 16.4271 10.25 16.5208V19.2292C10.25 19.3281 10.2135 19.4115 10.1458 19.4792C10.0885 19.5365 10.0104 19.5625 9.91667 19.5625H0.333333C0.234375 19.5625 0.151041 19.5365 0.0833333 19.4792C0.0260413 19.4115 0 19.3281 0 19.2292V0.333333C0 0.25 0.0260413 0.177084 0.0833333 0.104167C0.151041 0.0364587 0.234375 0 0.333333 0H9.91667C10.0104 0 10.0885 0.0364587 10.1458 0.104167C10.2135 0.177084 10.25 0.25 10.25 0.333333V3.04167Z" fill="#D72333"/>
</svg>
