<svg width="6" height="12" viewBox="0 0 6 12" fill="none" xmlns="http://www.w3.org/2000/svg">
<path d="M2.625 11.2292C1.84375 11.2292 1.21354 10.974 0.729167 10.4583C0.255208 9.94792 0.0208333 9.28125 0.0208333 8.45833V8.08333C0.0208333 7.98958 0.067708 7.9375 0.166667 7.9375H0.9375C1.04687 7.9375 1.10417 7.98958 1.10417 8.08333V8.39583C1.10417 8.95313 1.23958 9.40625 1.52083 9.75C1.79687 10.0833 2.16667 10.25 2.625 10.25C3.05208 10.25 3.41667 10.0938 3.70833 9.77083C4 9.45313 4.14583 9.02083 4.14583 8.47917C4.14583 8.13542 4.07292 7.83333 3.9375 7.58333C3.79687 7.32292 3.61458 7.09375 3.39583 6.89583C3.17187 6.70313 2.79687 6.40625 2.27083 6C1.73958 5.61458 1.32292 5.28646 1.02083 5.02083C0.729167 4.74479 0.484375 4.41146 0.291667 4.02083C0.0937507 3.63542 0 3.17708 0 2.64583C0 1.82813 0.234375 1.18229 0.708333 0.708333C1.17708 0.239583 1.79167 0 2.54167 0C3.33333 0 3.96354 0.260417 4.4375 0.770833C4.92188 1.28646 5.16667 1.97396 5.16667 2.83333V3.22917C5.16667 3.34375 5.10938 3.39583 5 3.39583H4.20833C4.10938 3.39583 4.0625 3.34375 4.0625 3.22917V2.8125C4.0625 2.27083 3.92187 1.83333 3.64583 1.5C3.36458 1.15625 3 0.979167 2.54167 0.979167C2.125 0.979167 1.77604 1.125 1.5 1.41667C1.23437 1.70833 1.10417 2.13542 1.10417 2.6875C1.10417 3.01042 1.15625 3.29167 1.27083 3.54167C1.39583 3.78125 1.57292 4.01042 1.8125 4.22917C2.0625 4.45313 2.41667 4.74479 2.875 5.10417C3.51042 5.5625 3.98437 5.9375 4.29167 6.22917C4.59375 6.51042 4.83333 6.82292 5 7.16667C5.16667 7.5 5.25 7.91146 5.25 8.39583C5.25 9.24479 5 9.93229 4.5 10.4583C4.01042 10.974 3.38542 11.2292 2.625 11.2292Z" fill="#D72333"/>
</svg>
