<svg width="6" height="11" viewBox="0 0 6 11" fill="none" xmlns="http://www.w3.org/2000/svg">
<path d="M4.54167 5.04167C4.5 5.08333 4.5 5.11979 4.54167 5.14583C4.875 5.35417 5.11458 5.64063 5.27083 6C5.46354 6.41667 5.5625 6.91146 5.5625 7.47917C5.5625 7.92708 5.48438 8.375 5.33333 8.83333C5.125 9.36458 4.79167 9.78646 4.33333 10.1042C3.88542 10.4115 3.36458 10.5625 2.77083 10.5625C2.1875 10.5625 1.66667 10.4115 1.20833 10.1042C0.760417 9.80208 0.4375 9.375 0.229167 8.83333C0.072916 8.43229 0 7.97917 0 7.47917C0 6.9375 0.0885413 6.45833 0.270833 6.04167C0.406249 5.68229 0.651041 5.39063 1 5.16667C1.06771 5.125 1.06771 5.09375 1 5.0625C0.666667 4.84375 0.421875 4.55208 0.270833 4.1875C0.0885413 3.76042 0 3.30729 0 2.83333C0 2.30729 0.0885413 1.85417 0.270833 1.47917C0.479167 1.02083 0.802084 0.661459 1.25 0.395833C1.69271 0.135417 2.19792 0 2.77083 0C3.33854 0 3.83854 0.125 4.27083 0.375C4.71354 0.625 5.04688 0.989583 5.27083 1.45833C5.46354 1.86458 5.5625 2.32292 5.5625 2.83333C5.5625 3.30729 5.46354 3.76042 5.27083 4.1875C5.13021 4.53646 4.88542 4.82292 4.54167 5.04167ZM2.125 2.41667C2.06771 2.59896 2.04167 2.80208 2.04167 3.02083C2.04167 3.24479 2.07292 3.46875 2.14583 3.6875C2.17187 3.88542 2.23958 4.04167 2.35417 4.16667C2.47917 4.28125 2.61458 4.33333 2.77083 4.33333C2.9375 4.33333 3.07292 4.28125 3.1875 4.16667C3.3125 4.04167 3.39583 3.88542 3.4375 3.6875C3.48958 3.49479 3.52083 3.28125 3.52083 3.04167C3.52083 2.79167 3.48437 2.57813 3.41667 2.39583C3.375 2.21875 3.29687 2.07292 3.1875 1.95833C3.07292 1.83333 2.9375 1.77083 2.77083 1.77083C2.61458 1.77083 2.47917 1.83333 2.35417 1.95833C2.23958 2.07292 2.16667 2.22396 2.125 2.41667ZM3.45833 8C3.5 7.75 3.52083 7.53646 3.52083 7.35417C3.52083 7.0625 3.48958 6.80729 3.4375 6.58333C3.39583 6.375 3.3125 6.20833 3.1875 6.08333C3.07292 5.95833 2.9375 5.89583 2.77083 5.89583C2.60417 5.89583 2.45833 5.96875 2.33333 6.10417C2.21875 6.22917 2.14583 6.40625 2.10417 6.625C2.0625 6.84896 2.04167 7.07813 2.04167 7.3125C2.04167 7.59375 2.05208 7.82813 2.08333 8.02083C2.125 8.26042 2.19792 8.44792 2.3125 8.58333C2.4375 8.72396 2.58854 8.79167 2.77083 8.79167C2.96354 8.79167 3.11458 8.72396 3.22917 8.58333C3.35417 8.43229 3.42708 8.23958 3.45833 8Z" fill="#D72333"/>
</svg>
