<svg width="28" height="22" viewBox="0 0 28 22" fill="none" xmlns="http://www.w3.org/2000/svg">
<mask id="mask0_25_20097" style="mask-type:luminance" maskUnits="userSpaceOnUse" x="0" y="0" width="28" height="22">
<path d="M28 0H0V21.3333H28V0Z" fill="white"/>
</mask>
<g mask="url(#mask0_25_20097)">
<path d="M4.35661 17.487C3.54932 17.487 2.90348 17.2266 2.41911 16.6953C1.92953 16.1693 1.68994 15.487 1.68994 14.6536V8.90365C1.68994 8.07031 1.92953 7.39323 2.41911 6.86198C2.90348 6.33594 3.54932 6.07031 4.35661 6.07031C5.15869 6.07031 5.81494 6.33594 6.31494 6.86198C6.81494 7.39323 7.06494 8.07031 7.06494 8.90365V14.6536C7.06494 15.487 6.81494 16.1693 6.31494 16.6953C5.81494 17.2266 5.15869 17.487 4.35661 17.487ZM4.35661 16.487C4.84098 16.487 5.22119 16.3307 5.50244 16.0078C5.79411 15.6745 5.93994 15.2474 5.93994 14.7161V8.84115C5.93994 8.3151 5.79411 7.89323 5.50244 7.57031C5.22119 7.23698 4.84098 7.07031 4.35661 7.07031C3.89827 7.07031 3.52327 7.23698 3.23161 7.57031C2.93994 7.89323 2.79411 8.3151 2.79411 8.84115V14.7161C2.79411 15.2474 2.93994 15.6745 3.23161 16.0078C3.52327 16.3307 3.89827 16.487 4.35661 16.487Z" fill="#D72333"/>
<path d="M9.37988 17.2995C9.11426 17.2995 8.90072 17.2161 8.73405 17.0495C8.5778 16.8724 8.50488 16.6536 8.50488 16.4036C8.50488 16.1432 8.5778 15.9245 8.73405 15.7578C8.90072 15.5911 9.11426 15.5078 9.37988 15.5078C9.6403 15.5078 9.85905 15.5911 10.0257 15.7578C10.1924 15.9245 10.2757 16.1432 10.2757 16.4036C10.2757 16.6536 10.1924 16.8724 10.0257 17.0495C9.85905 17.2161 9.6403 17.2995 9.37988 17.2995Z" fill="#D72333"/>
<path d="M16.2604 12.1535C16.4375 12.6951 16.5312 13.2993 16.5312 13.966C16.5312 14.5233 16.4688 15.0389 16.3438 15.5077C16.0521 16.7993 15.2708 17.4452 14.0104 17.4452C13.3438 17.4452 12.7917 17.2681 12.3646 16.9035C11.9323 16.5285 11.6667 16.0181 11.5729 15.3618C11.5 14.9868 11.4688 14.5806 11.4688 14.1326C11.4688 14.0389 11.5208 13.9868 11.6354 13.9868H12.4271C12.5365 13.9868 12.5938 14.0389 12.5938 14.1326C12.5938 14.5233 12.625 14.8722 12.6979 15.1743C12.875 16.0389 13.3125 16.466 14.0104 16.466C14.3281 16.466 14.599 16.3722 14.8229 16.1743C15.0417 15.966 15.2031 15.6743 15.3021 15.2993C15.3854 14.8566 15.4271 14.3774 15.4271 13.8618C15.4271 13.1951 15.3646 12.6483 15.2396 12.216C15.125 11.8722 14.9688 11.6118 14.7604 11.4451C14.5521 11.2681 14.3021 11.1743 14.0104 11.1743C13.9115 11.1743 13.7865 11.2108 13.6354 11.2785C13.5365 11.3201 13.4688 11.3149 13.4271 11.2576L13.0104 10.8201C12.9531 10.7524 12.9479 10.6847 12.9896 10.6118L15.0938 7.29932C15.1042 7.2889 15.1042 7.27328 15.0938 7.25765C15.0781 7.23161 15.0625 7.21598 15.0521 7.21598H11.7188C11.6042 7.21598 11.5521 7.16911 11.5521 7.07015V6.40348C11.5521 6.29411 11.6042 6.23682 11.7188 6.23682H16.3229C16.4323 6.23682 16.4896 6.29411 16.4896 6.40348V7.11182C16.4896 7.16911 16.4688 7.23682 16.4271 7.32015L14.4688 10.3826C14.4531 10.4139 14.4479 10.4347 14.4479 10.4451C14.4583 10.4608 14.474 10.466 14.4896 10.466C14.9167 10.5076 15.2865 10.6847 15.5938 10.9868C15.9115 11.2785 16.1354 11.6691 16.2604 12.1535Z" fill="#D72333"/>
<path d="M22.7145 12.1535C22.8916 12.6951 22.9854 13.2993 22.9854 13.966C22.9854 14.5233 22.9229 15.0389 22.7979 15.5077C22.5062 16.7993 21.7249 17.4452 20.4645 17.4452C19.7979 17.4452 19.2458 17.2681 18.8187 16.9035C18.3864 16.5285 18.1208 16.0181 18.027 15.3618C17.9541 14.9868 17.9229 14.5806 17.9229 14.1326C17.9229 14.0389 17.9749 13.9868 18.0895 13.9868H18.8812C18.9906 13.9868 19.0479 14.0389 19.0479 14.1326C19.0479 14.5233 19.0791 14.8722 19.152 15.1743C19.3291 16.0389 19.7666 16.466 20.4645 16.466C20.7822 16.466 21.0531 16.3722 21.277 16.1743C21.4958 15.966 21.6572 15.6743 21.7562 15.2993C21.8395 14.8566 21.8812 14.3774 21.8812 13.8618C21.8812 13.1951 21.8187 12.6483 21.6937 12.216C21.5791 11.8722 21.4229 11.6118 21.2145 11.4451C21.0062 11.2681 20.7562 11.1743 20.4645 11.1743C20.3656 11.1743 20.2406 11.2108 20.0895 11.2785C19.9906 11.3201 19.9229 11.3149 19.8812 11.2576L19.4645 10.8201C19.4072 10.7524 19.402 10.6847 19.4437 10.6118L21.5479 7.29932C21.5583 7.2889 21.5583 7.27328 21.5479 7.25765C21.5322 7.23161 21.5166 7.21598 21.5062 7.21598H18.1729C18.0583 7.21598 18.0062 7.16911 18.0062 7.07015V6.40348C18.0062 6.29411 18.0583 6.23682 18.1729 6.23682H22.777C22.8864 6.23682 22.9437 6.29411 22.9437 6.40348V7.11182C22.9437 7.16911 22.9229 7.23682 22.8812 7.32015L20.9229 10.3826C20.9072 10.4139 20.902 10.4347 20.902 10.4451C20.9124 10.4608 20.9281 10.466 20.9437 10.466C21.3708 10.5076 21.7406 10.6847 22.0479 10.9868C22.3656 11.2785 22.5895 11.6691 22.7145 12.1535Z" fill="#D72333"/>
<path d="M24.8143 17.3202C24.7153 17.3202 24.6685 17.2681 24.6685 17.1535V6.40348C24.6685 6.29411 24.7153 6.23682 24.8143 6.23682H25.6268C25.7362 6.23682 25.7935 6.29411 25.7935 6.40348V17.1535C25.7935 17.2681 25.7362 17.3202 25.6268 17.3202H24.8143Z" fill="#D72333"/>
</g>
</svg>
