<svg width="6" height="10" viewBox="0 0 6 10" fill="none" xmlns="http://www.w3.org/2000/svg">
<path d="M2.70833 9.08333C1.88542 9.08333 1.22917 8.84375 0.729167 8.35417C0.239584 7.86979 0 7.22396 0 6.41667V2.66667C0 1.875 0.239584 1.23958 0.729167 0.75C1.22917 0.25 1.88542 0 2.70833 0C3.25 0 3.72917 0.114583 4.14583 0.333333C4.5625 0.557292 4.88021 0.854167 5.10417 1.22917C5.33854 1.59375 5.45833 1.98958 5.45833 2.41667V2.60417C5.45833 2.71875 5.39583 2.77083 5.27083 2.77083L4.39583 2.8125C4.27083 2.8125 4.20833 2.75 4.20833 2.625V2.5C4.20833 2.125 4.0625 1.80208 3.77083 1.52083C3.48958 1.22917 3.13542 1.08333 2.70833 1.08333C2.26042 1.08333 1.90104 1.23958 1.625 1.54167C1.35937 1.84896 1.22917 2.25 1.22917 2.75V6.33333C1.22917 6.83333 1.35937 7.23958 1.625 7.54167C1.90104 7.84896 2.26042 8 2.70833 8C3.13542 8 3.48958 7.86458 3.77083 7.58333C4.0625 7.29167 4.20833 6.95833 4.20833 6.58333V6.45833C4.20833 6.33333 4.27083 6.27083 4.39583 6.27083L5.27083 6.29167C5.39583 6.29167 5.45833 6.35417 5.45833 6.47917V6.66667C5.45833 7.36458 5.19792 7.9375 4.6875 8.39583C4.1875 8.85417 3.52604 9.08333 2.70833 9.08333Z" fill="#D72333"/>
</svg>
