<svg width="6" height="11" viewBox="0 0 6 11" fill="none" xmlns="http://www.w3.org/2000/svg">
<path d="M2.75 0C3.51042 0 4.13021 0.286459 4.60417 0.854167C5.07292 1.41146 5.3125 2.14063 5.3125 3.04167C5.3125 3.94792 5.08333 4.67708 4.625 5.22917C4.16667 5.77083 3.55208 6.04167 2.79167 6.04167H1.1875C1.14583 6.04167 1.125 6.0625 1.125 6.10417V10.8333C1.125 10.9479 1.06771 11 0.958333 11H0.166667C0.052084 11 0 10.9479 0 10.8333V0.166667C0 0.057292 0.052084 0 0.166667 0H2.75ZM2.60417 5.125C3.07292 5.125 3.45833 4.9375 3.75 4.5625C4.05208 4.1875 4.20833 3.6875 4.20833 3.0625C4.20833 2.4375 4.05208 1.9375 3.75 1.5625C3.45833 1.17708 3.07292 0.979167 2.60417 0.979167H1.1875C1.14583 0.979167 1.125 1 1.125 1.04167V5.0625C1.125 5.10417 1.14583 5.125 1.1875 5.125H2.60417Z" fill="#D72333"/>
</svg>
