<svg width="9" height="9" viewBox="0 0 9 9" fill="none" xmlns="http://www.w3.org/2000/svg">
<path d="M6.35417 0C6.97917 0 7.46354 0.229167 7.8125 0.6875C8.15625 1.14583 8.33333 1.78646 8.33333 2.60417V7.875C8.33333 7.98958 8.27604 8.04167 8.16667 8.04167H7.39583C7.28125 8.04167 7.22917 7.98958 7.22917 7.875V2.6875C7.22917 2.16146 7.11458 1.74479 6.89583 1.4375C6.67188 1.11979 6.375 0.958333 6 0.958333C5.60938 0.958333 5.29688 1.11458 5.0625 1.41667C4.83854 1.72396 4.72917 2.14063 4.72917 2.66667V7.875C4.72917 7.98958 4.67188 8.04167 4.5625 8.04167H3.77083C3.65625 8.04167 3.60417 7.98958 3.60417 7.875V2.6875C3.60417 2.16146 3.48958 1.74479 3.27083 1.4375C3.04688 1.11979 2.75521 0.958333 2.39583 0.958333C2.00521 0.958333 1.69271 1.11458 1.45833 1.41667C1.21875 1.72396 1.10417 2.14063 1.10417 2.66667V7.875C1.10417 7.98958 1.04687 8.04167 0.9375 8.04167H0.145833C0.0468747 8.04167 0 7.98958 0 7.875V0.270833C0 0.161459 0.0468747 0.104167 0.145833 0.104167H0.9375C1.04687 0.104167 1.10417 0.161459 1.10417 0.270833V0.75C1.10417 0.765625 1.10937 0.781251 1.125 0.791667C1.13542 0.791667 1.15104 0.786459 1.16667 0.770833C1.375 0.510416 1.60937 0.3125 1.875 0.1875C2.15104 0.0625 2.44271 0 2.75 0C3.13542 0 3.47917 0.0989587 3.77083 0.291667C4.0625 0.489584 4.29167 0.760416 4.45833 1.10417C4.46875 1.13542 4.48438 1.14583 4.5 1.14583C4.52604 1.14583 4.54167 1.125 4.54167 1.08333C4.73438 0.708333 4.98958 0.4375 5.3125 0.270833C5.64583 0.0937493 5.98958 0 6.35417 0Z" fill="#D72333"/>
</svg>
