<svg width="9" height="12" viewBox="0 0 9 12" fill="none" xmlns="http://www.w3.org/2000/svg">
<path d="M7.375 7.27083C7.42708 7.11979 7.52083 7.01042 7.64583 6.9375C7.78125 6.85417 7.92188 6.8125 8.0625 6.8125C8.28125 6.8125 8.48438 6.88542 8.66667 7.02083C8.85938 7.14583 8.95833 7.32292 8.95833 7.54167C8.95833 7.59896 8.94271 7.66667 8.91667 7.75C8.76042 8.25 8.51042 8.67708 8.16667 9.02083C7.83333 9.36979 7.44271 9.63542 7 9.8125C6.55208 9.99479 6.09375 10.0833 5.625 10.0833C5.44271 10.0833 5.27604 10.0729 5.125 10.0417C4.84375 10.5833 4.46354 10.9583 3.97917 11.1667C3.48958 11.375 3.00521 11.4792 2.52083 11.4792C2.07292 11.4792 1.65625 11.3958 1.27083 11.2292C0.895833 11.0625 0.588541 10.8229 0.354167 10.5C0.119792 10.1667 0 9.76042 0 9.27083C0 8.9375 0.0625 8.59896 0.1875 8.25C0.463541 7.43229 0.739583 6.625 1.02083 5.83333C1.29687 5.04167 1.58333 4.23958 1.875 3.41667C2.16667 2.59896 2.46875 1.72396 2.79167 0.791667C2.88542 0.515625 3.02604 0.3125 3.20833 0.1875C3.38542 0.0625 3.58333 0 3.79167 0C4.01042 0 4.21875 0.0781253 4.41667 0.229167C4.60938 0.369792 4.70833 0.583333 4.70833 0.875C4.70833 0.947916 4.69271 1.02083 4.66667 1.10417C4.65104 1.17708 4.63021 1.25 4.60417 1.33333L3.75 3.8125C3.94271 3.74479 4.15104 3.70833 4.375 3.70833C4.76042 3.70833 5.11458 3.80208 5.4375 3.97917C5.77083 4.16146 6.03125 4.41667 6.22917 4.75C6.42188 5.07292 6.52083 5.44792 6.52083 5.875C6.52083 6.19792 6.45833 6.53646 6.33333 6.89583L5.72917 8.52083H5.79167C6.15104 8.52083 6.46875 8.41146 6.75 8.1875C7.02604 7.95313 7.23438 7.64583 7.375 7.27083ZM3.4375 9.20833C3.15625 8.875 3.02083 8.51563 3.02083 8.125C3.02083 7.79167 3.13021 7.51563 3.35417 7.29167C3.57292 7.05729 3.85417 6.9375 4.1875 6.9375C4.22917 6.9375 4.23958 6.93229 4.22917 6.91667C4.21354 6.90625 4.22917 6.91146 4.27083 6.9375L4.54167 6.125C4.56771 6.03125 4.58333 5.93229 4.58333 5.83333C4.58333 5.66667 4.52604 5.53646 4.41667 5.4375C4.31771 5.32813 4.1875 5.27083 4.02083 5.27083C3.82292 5.27083 3.63021 5.34896 3.4375 5.5C3.23958 5.65625 3.07292 5.85417 2.9375 6.10417C2.77083 6.60417 2.60417 7.07813 2.4375 7.52083C2.28125 7.96875 2.11458 8.43229 1.9375 8.91667C1.92187 9 1.90625 9.07813 1.89583 9.14583C1.88021 9.20313 1.875 9.26042 1.875 9.3125C1.875 9.51042 1.92708 9.65625 2.04167 9.75C2.16667 9.84896 2.32292 9.89583 2.52083 9.89583C2.6875 9.89583 2.85417 9.85417 3.02083 9.77083C3.19792 9.6875 3.33333 9.53646 3.41667 9.3125L3.4375 9.20833Z" fill="#D72333"/>
</svg>
