<svg width="14" height="21" viewBox="0 0 14 21" fill="none" xmlns="http://www.w3.org/2000/svg">
<path d="M5.20833 13.9375C5.25 14.0781 5.28125 14.2396 5.3125 14.4167C5.35417 14.5833 5.4375 14.7083 5.5625 14.7917C5.53125 15.5312 5.47917 16.2448 5.39583 16.9375C5.3125 17.6354 5.35938 18.3542 5.54167 19.1042L4.89583 19.7917C4.65625 19.8021 4.44271 19.8333 4.25 19.875C4.05208 19.9271 3.83333 19.9896 3.58333 20.0625L3.5625 20C3.29687 19.9271 3.03125 19.8854 2.77083 19.875C2.50521 19.875 2.25 19.875 2 19.875C1.83333 19.875 1.63542 19.8438 1.41667 19.7917C1.20833 19.7344 1.02604 19.7396 0.875 19.8125L0.1875 19.2083L0.395833 18.6875L0.208333 18.4167C0.317708 18.0833 0.338541 17.7865 0.270833 17.5208C0.213541 17.2604 0.125 16.9583 0 16.625C0.125 16.3646 0.1875 16.1354 0.1875 15.9375C0.1875 15.7292 0.1875 15.4948 0.1875 15.2292C0.1875 14.9948 0.213541 14.75 0.270833 14.5C0.322917 14.2396 0.338541 13.9896 0.3125 13.75C0.296875 13.4896 0.255208 13.2604 0.1875 13.0625C0.130208 12.8542 0.130208 12.625 0.1875 12.375C0.255208 12.125 0.333333 11.8906 0.416667 11.6667C0.5 11.4323 0.531251 11.1875 0.520833 10.9375C0.479167 10.3958 0.421875 9.86458 0.354167 9.33333C0.296875 8.79167 0.276041 8.25 0.291667 7.70833C0.302083 7.11458 0.255208 6.51042 0.145833 5.89583C0.0468747 5.27083 0.0312507 4.66146 0.104167 4.0625C0.130208 3.78646 0.177083 3.51563 0.25 3.25C0.317708 2.98958 0.359375 2.72396 0.375 2.45833C0.385416 2.22396 0.375 1.98958 0.333333 1.75C0.291667 1.5 0.276041 1.26563 0.291667 1.04167C0.343749 0.614583 0.546875 0.333333 0.895833 0.208333C1.25521 0.072916 1.60937 0 1.95833 0C2.21875 0.0312493 2.48437 0.072916 2.75 0.125C3.01042 0.182292 3.27083 0.239583 3.52083 0.291667C3.82292 0.348959 4.11458 0.364583 4.39583 0.333333C4.6875 0.307292 4.98438 0.281249 5.29167 0.25C5.90104 0.182292 6.51042 0.161459 7.125 0.1875C7.75 0.218751 8.36458 0.182292 8.97917 0.0833333C9.13021 0.333333 9.35417 0.453125 9.64583 0.4375C9.94792 0.427084 10.2135 0.411459 10.4375 0.395833C10.7708 0.354167 11.1146 0.348959 11.4792 0.375C11.8385 0.390625 12.1875 0.348959 12.5208 0.25C12.6719 0.223959 12.8021 0.265625 12.9167 0.375L13.0625 0.479167C13.1875 0.604167 13.2188 0.765625 13.1667 0.958333C13.1094 1.11458 13.1302 1.26042 13.2292 1.39583C13.2969 1.47917 13.3333 1.57292 13.3333 1.66667C13.3333 1.76563 13.2969 1.85417 13.2292 1.9375C12.8958 2.34375 12.5 2.58333 12.0417 2.66667C11.5938 2.75 11.1042 2.82292 10.5625 2.875C10.0208 2.95833 9.45833 2.97917 8.875 2.9375C8.30208 2.88542 7.75 2.76563 7.20833 2.58333C6.95833 2.69792 6.73438 2.78646 6.54167 2.85417C6.35938 2.92708 6.13021 2.94792 5.85417 2.91667C5.60417 3.14063 5.45833 3.36458 5.41667 3.58333C5.38542 3.79167 5.375 4.05208 5.375 4.35417C5.35938 4.78646 5.35417 5.22917 5.35417 5.6875C5.35417 6.13542 5.32292 6.57292 5.27083 7L5.5625 7.20833C5.47917 7.58333 5.44792 7.92708 5.47917 8.22917C5.52083 8.52083 5.54688 8.85417 5.5625 9.22917L6.10417 9.5625C6.36458 9.46875 6.625 9.39063 6.875 9.33333C7.13542 9.28125 7.40104 9.26042 7.66667 9.27083C7.875 9.30208 8.08854 9.34375 8.3125 9.39583C8.53125 9.45313 8.73438 9.40625 8.91667 9.25C9.08333 9.39063 9.25521 9.49479 9.4375 9.5625C9.61458 9.63542 9.79688 9.71875 9.97917 9.8125C10.0885 9.85417 10.1563 9.93229 10.1875 10.0417C10.2135 10.1562 10.1927 10.25 10.125 10.3333C10.2188 10.5833 10.2813 10.7812 10.3125 10.9167C10.3542 11.0417 10.3438 11.2292 10.2917 11.4792C9.95833 11.6771 9.625 11.7865 9.29167 11.8125C8.96875 11.8438 8.625 11.8542 8.25 11.8542C7.90104 11.8542 7.52083 11.8698 7.10417 11.8958C6.69792 11.9271 6.31771 11.8542 5.95833 11.6875C5.75 11.9115 5.61458 12.1458 5.5625 12.3958C5.50521 12.6354 5.46354 12.8854 5.4375 13.1458C5.40625 13.3958 5.33333 13.6615 5.20833 13.9375Z" fill="#D72333"/>
</svg>
