<svg width="8" height="13" viewBox="0 0 8 13" fill="none" xmlns="http://www.w3.org/2000/svg">
<path d="M7.83333 12.0833C7.85938 12.1146 7.875 12.1458 7.875 12.1875C7.875 12.2188 7.85938 12.2448 7.83333 12.2708C7.81771 12.2865 7.78125 12.2917 7.72917 12.2917H6.79167C6.70833 12.2917 6.63542 12.2604 6.58333 12.1875L5.875 11.1458C5.85938 11.1198 5.83854 11.1042 5.8125 11.1042C5.79688 11.1042 5.78125 11.1146 5.77083 11.125C5.33854 11.5833 4.89583 11.9271 4.4375 12.1458C3.97917 12.3542 3.46354 12.4583 2.89583 12.4583C2.00521 12.4583 1.29687 12.2083 0.770833 11.7083C0.255208 11.2083 0 10.5 0 9.58333C0 8.80729 0.1875 8.13542 0.5625 7.5625C0.9375 6.97917 1.44271 6.41667 2.08333 5.875C2.125 5.86458 2.13021 5.83333 2.10417 5.79167C1.6875 5.16667 1.38021 4.6875 1.1875 4.35417C0.989584 4.01042 0.859375 3.71875 0.791667 3.47917C0.734375 3.24479 0.708333 2.97396 0.708333 2.66667C0.708333 1.86458 0.9375 1.21875 1.39583 0.729167C1.85417 0.244792 2.45833 0 3.20833 0C3.96875 0 4.58854 0.244792 5.0625 0.729167C5.54688 1.21875 5.79167 1.85417 5.79167 2.64583C5.79167 3.35417 5.60938 3.96875 5.25 4.47917C4.88542 4.97917 4.375 5.51042 3.70833 6.0625C3.66667 6.07813 3.65625 6.11458 3.6875 6.16667C4.14583 6.80729 4.48438 7.29167 4.70833 7.625L5.79167 9.16667C5.80208 9.18229 5.81771 9.1875 5.83333 9.1875C5.85938 9.1875 5.88021 9.18229 5.89583 9.16667C6.0625 8.91667 6.33854 8.44792 6.72917 7.75C6.75521 7.70833 6.79167 7.68229 6.83333 7.66667C6.875 7.65625 6.92188 7.66146 6.97917 7.6875L7.625 8.0625C7.71875 8.13542 7.73958 8.21875 7.6875 8.3125C7.3125 8.99479 6.9375 9.60417 6.5625 10.1458C6.54688 10.1771 6.54688 10.2083 6.5625 10.25L7.83333 12.0833ZM3.25 1.125C2.85937 1.125 2.54167 1.27083 2.29167 1.5625C2.05208 1.84375 1.9375 2.22396 1.9375 2.70833C1.9375 3.03125 1.98958 3.33333 2.10417 3.625C2.22917 3.91667 2.51042 4.39583 2.95833 5.0625C2.98437 5.10417 3.01042 5.11458 3.04167 5.08333C3.52604 4.66667 3.90104 4.27083 4.16667 3.89583C4.42708 3.52083 4.5625 3.10417 4.5625 2.64583C4.5625 2.1875 4.4375 1.82292 4.1875 1.54167C3.94792 1.26563 3.63542 1.125 3.25 1.125ZM3.02083 11.375C3.40625 11.375 3.77083 11.2813 4.10417 11.0833C4.4375 10.8906 4.77604 10.599 5.125 10.2083C5.15104 10.1667 5.15104 10.1354 5.125 10.1042L4.29167 8.89583L2.85417 6.875C2.82292 6.83333 2.79687 6.83333 2.77083 6.875C2.27083 7.30729 1.88542 7.72917 1.625 8.14583C1.35937 8.5625 1.22917 9.03125 1.22917 9.54167C1.22917 10.0833 1.38021 10.5313 1.6875 10.875C2.00521 11.2083 2.44792 11.375 3.02083 11.375Z" fill="#D72333"/>
</svg>
