<svg width="7" height="11" viewBox="0 0 7 11" fill="none" xmlns="http://www.w3.org/2000/svg">
<path d="M4.33333 10.9792C4.21875 10.9792 4.14583 10.9271 4.10417 10.8125L2.89583 6.5C2.88021 6.45833 2.85937 6.4375 2.83333 6.4375H2.29167C2.23437 6.4375 2.20833 6.45833 2.20833 6.5V10.7917C2.20833 10.849 2.1875 10.8958 2.14583 10.9375C2.11458 10.9688 2.07292 10.9792 2.02083 10.9792H0.1875C0.130208 10.9792 0.0833333 10.9688 0.0416667 10.9375C0.0104173 10.8958 0 10.849 0 10.7917V0.1875C0 0.135417 0.0104173 0.0937507 0.0416667 0.0625C0.0833333 0.0208333 0.130208 0 0.1875 0H3.35417C3.9375 0 4.44792 0.140625 4.89583 0.416667C5.33854 0.697916 5.6875 1.08333 5.9375 1.58333C6.1875 2.08333 6.3125 2.66146 6.3125 3.3125C6.3125 3.92708 6.19271 4.46875 5.95833 4.9375C5.71875 5.41146 5.39583 5.78125 4.97917 6.04167C4.94792 6.05729 4.92708 6.07292 4.91667 6.08333C4.91667 6.09896 4.92188 6.11458 4.9375 6.125L6.375 10.75L6.39583 10.8125C6.39583 10.9271 6.33333 10.9792 6.20833 10.9792H4.33333ZM2.29167 1.89583C2.23437 1.89583 2.20833 1.92708 2.20833 1.97917V4.66667C2.20833 4.70833 2.23437 4.72917 2.29167 4.72917H3C3.31771 4.72917 3.58333 4.60417 3.79167 4.35417C4 4.09375 4.10417 3.75 4.10417 3.33333C4.10417 2.89063 4 2.54167 3.79167 2.29167C3.58333 2.03125 3.31771 1.89583 3 1.89583H2.29167Z" fill="#F8F7F6"/>
</svg>
