<svg width="6" height="11" viewBox="0 0 6 11" fill="none" xmlns="http://www.w3.org/2000/svg">
<path d="M5.375 8C5.375 8.94792 5.11458 9.68229 4.60417 10.2083C4.10417 10.724 3.42187 10.9792 2.5625 10.9792H0.166667C0.0520827 10.9792 0 10.9271 0 10.8125V0.145833C0 0.052084 0.0520827 0 0.166667 0H2.41667C3.31771 0 4.02604 0.25 4.54167 0.75C5.05208 1.23958 5.3125 1.94792 5.3125 2.875C5.3125 4.04167 4.875 4.84375 4 5.27083C3.98437 5.28646 3.97917 5.30208 3.97917 5.3125C3.97917 5.3125 3.97917 5.32292 3.97917 5.33333C4.90625 5.86458 5.375 6.75 5.375 8ZM1.1875 0.979167C1.14583 0.979167 1.125 1 1.125 1.04167V4.8125C1.125 4.85417 1.14583 4.875 1.1875 4.875H2.41667C2.98437 4.875 3.42187 4.70833 3.72917 4.375C4.04688 4.04167 4.20833 3.57292 4.20833 2.95833C4.20833 2.33333 4.04688 1.84896 3.72917 1.5C3.42187 1.15625 2.98437 0.979167 2.41667 0.979167H1.1875ZM2.47917 10C3.03125 10 3.46354 9.8125 3.77083 9.4375C4.08854 9.0625 4.25 8.54167 4.25 7.875C4.25 7.19792 4.08854 6.66667 3.77083 6.29167C3.46354 5.91667 3.03125 5.72917 2.47917 5.72917H1.1875C1.14583 5.72917 1.125 5.75 1.125 5.79167V9.9375C1.125 9.97917 1.14583 10 1.1875 10H2.47917Z" fill="#D72333"/>
</svg>
