<svg width="5" height="12" viewBox="0 0 5 12" fill="none" xmlns="http://www.w3.org/2000/svg">
<path d="M3.85417 0.145833C3.85417 0.0520827 3.90625 0 4.02083 0H4.83333C4.92708 0 4.97917 0.0520827 4.97917 0.145833V11C4.97917 11.1146 4.92708 11.1667 4.83333 11.1667H4.02083C3.90625 11.1667 3.85417 11.1146 3.85417 11V10.6458C3.85417 10.6354 3.84375 10.6198 3.83333 10.6042C3.81771 10.5938 3.79687 10.599 3.77083 10.625C3.36458 11.0729 2.85937 11.2917 2.25 11.2917C1.56771 11.2917 1.02083 11.0729 0.604167 10.625C0.197917 10.1667 0 9.57813 0 8.85417V5.39583C0 4.66146 0.197917 4.07292 0.604167 3.625C1.02083 3.18229 1.56771 2.95833 2.25 2.95833C2.875 2.95833 3.38021 3.1875 3.77083 3.64583C3.79687 3.67708 3.81771 3.68229 3.83333 3.66667C3.84375 3.65625 3.85417 3.64063 3.85417 3.625V0.145833ZM2.52083 10.3125C2.90625 10.3125 3.22917 10.1771 3.47917 9.89583C3.72917 9.60417 3.85417 9.23958 3.85417 8.79167V5.47917C3.85417 5.02083 3.72917 4.65625 3.47917 4.375C3.22917 4.09896 2.90625 3.95833 2.52083 3.95833C2.10417 3.95833 1.76042 4.09896 1.5 4.375C1.25 4.65625 1.125 5.02083 1.125 5.47917V8.79167C1.125 9.23958 1.25 9.60417 1.5 9.89583C1.76042 10.1771 2.10417 10.3125 2.52083 10.3125Z" fill="#D72333"/>
</svg>
