<svg width="5" height="9" viewBox="0 0 5 9" fill="none" xmlns="http://www.w3.org/2000/svg">
<path d="M2.41667 8.1875C1.67708 8.1875 1.08854 8 0.645833 7.625C0.213541 7.25 0 6.75 0 6.125V6C0 5.90625 0.052084 5.85417 0.166667 5.85417H0.916667C1.02604 5.85417 1.08333 5.90625 1.08333 6V6.10417C1.08333 6.4375 1.20833 6.72396 1.45833 6.95833C1.70833 7.19792 2.03125 7.3125 2.4375 7.3125C2.8125 7.3125 3.11458 7.19792 3.35417 6.95833C3.58854 6.72396 3.70833 6.42708 3.70833 6.0625C3.70833 5.80208 3.63021 5.57813 3.47917 5.39583C3.32292 5.20313 3.15104 5.05729 2.95833 4.95833C2.76042 4.84896 2.46875 4.70833 2.08333 4.54167C1.66667 4.36458 1.31771 4.19792 1.04167 4.04167C0.776041 3.875 0.546875 3.64063 0.354167 3.33333C0.156249 3.03125 0.0625 2.64583 0.0625 2.1875C0.0625 1.51042 0.270833 0.973959 0.6875 0.583333C1.10417 0.197916 1.67187 0 2.39583 0C3.10417 0 3.66667 0.203125 4.08333 0.604167C4.51042 1.01042 4.72917 1.54167 4.72917 2.20833V2.25C4.72917 2.34896 4.67708 2.39583 4.58333 2.39583H3.85417C3.73958 2.39583 3.6875 2.34896 3.6875 2.25V2.14583C3.6875 1.78646 3.56771 1.49479 3.33333 1.27083C3.09375 1.03646 2.78125 0.916667 2.39583 0.916667C2.02083 0.916667 1.71354 1.03646 1.47917 1.27083C1.25521 1.51042 1.14583 1.80208 1.14583 2.14583C1.14583 2.41146 1.21354 2.63542 1.35417 2.8125C1.48958 2.97917 1.65625 3.11979 1.85417 3.22917C2.0625 3.34375 2.34375 3.47396 2.70833 3.625C3.13542 3.82292 3.48958 4 3.77083 4.16667C4.04688 4.33333 4.29167 4.57292 4.5 4.875C4.71875 5.18229 4.83333 5.5625 4.83333 6.02083C4.83333 6.67708 4.60938 7.20313 4.16667 7.60417C3.73437 7.99479 3.15104 8.1875 2.41667 8.1875Z" fill="#D72333"/>
</svg>
