<svg width="6" height="12" viewBox="0 0 6 12" fill="none" xmlns="http://www.w3.org/2000/svg">
<path d="M2.64583 11.2292C1.83854 11.2292 1.19271 10.9948 0.708333 10.5208C0.234375 10.0521 0 9.41146 0 8.60417V2.625C0 1.82292 0.234375 1.18229 0.708333 0.708333C1.19271 0.239583 1.83854 0 2.64583 0C3.44792 0 4.09375 0.244792 4.58333 0.729167C5.06771 1.20313 5.3125 1.83333 5.3125 2.625V3.3125C5.3125 3.41146 5.26042 3.45833 5.16667 3.45833H4.375C4.26042 3.45833 4.20833 3.41146 4.20833 3.3125V2.60417C4.20833 2.10417 4.0625 1.70833 3.77083 1.41667C3.48958 1.125 3.11458 0.979167 2.64583 0.979167C2.1875 0.979167 1.8125 1.13542 1.52083 1.4375C1.23958 1.72917 1.10417 2.11979 1.10417 2.60417V8.625C1.10417 9.11458 1.23958 9.51042 1.52083 9.8125C1.8125 10.1042 2.1875 10.25 2.64583 10.25C3.11458 10.25 3.48958 10.1042 3.77083 9.8125C4.0625 9.51042 4.20833 9.11458 4.20833 8.625V6.625C4.20833 6.58333 4.1875 6.5625 4.14583 6.5625H2.79167C2.69271 6.5625 2.64583 6.51042 2.64583 6.39583V5.72917C2.64583 5.63542 2.69271 5.58333 2.79167 5.58333H5.16667C5.26042 5.58333 5.3125 5.63542 5.3125 5.72917V8.60417C5.3125 9.41146 5.06771 10.0521 4.58333 10.5208C4.09375 10.9948 3.44792 11.2292 2.64583 11.2292Z" fill="#D72333"/>
</svg>
