<svg width="4" height="7" viewBox="0 0 4 7" fill="none" xmlns="http://www.w3.org/2000/svg">
<path d="M1.54167 6.45833C1.06771 6.45833 0.692708 6.32813 0.416667 6.0625C0.135416 5.78646 0 5.41667 0 4.95833V1.5C0 1.04167 0.135416 0.682292 0.416667 0.416667C0.692708 0.140625 1.06771 0 1.54167 0C2 0 2.36458 0.140625 2.64583 0.416667C2.92187 0.697916 3.0625 1.0625 3.0625 1.52083V1.89583C3.0625 1.96875 3.03125 2 2.97917 2H2.52083C2.46354 2 2.4375 1.96875 2.4375 1.89583V1.5C2.4375 1.20833 2.35417 0.979167 2.1875 0.8125C2.02083 0.645833 1.80208 0.5625 1.54167 0.5625C1.27604 0.5625 1.0625 0.656249 0.895833 0.833333C0.729167 1 0.645833 1.22396 0.645833 1.5V4.95833C0.645833 5.23958 0.729167 5.46875 0.895833 5.64583C1.0625 5.82813 1.27604 5.91667 1.54167 5.91667C1.80208 5.91667 2.02083 5.83333 2.1875 5.66667C2.35417 5.48958 2.4375 5.25 2.4375 4.95833V3.8125C2.4375 3.78646 2.42187 3.77083 2.39583 3.77083H1.625C1.55208 3.77083 1.52083 3.74479 1.52083 3.6875V3.3125C1.52083 3.24479 1.55208 3.20833 1.625 3.20833H2.97917C3.03125 3.20833 3.0625 3.24479 3.0625 3.3125V4.95833C3.0625 5.41667 2.92187 5.78646 2.64583 6.0625C2.36458 6.32813 2 6.45833 1.54167 6.45833Z" fill="#D72333"/>
</svg>
