<svg width="17" height="19" viewBox="0 0 17 19" fill="none" xmlns="http://www.w3.org/2000/svg">
<path d="M16.3125 8.4375C16.2396 8.57813 16.1719 8.73958 16.1042 8.91667C16.0469 9.08333 16.0208 9.25 16.0208 9.41667C16.0208 9.59896 16.0625 9.77083 16.1458 9.9375C16.2292 10.0938 16.276 10.2604 16.2917 10.4375C16.3333 10.7292 16.2917 11.0312 16.1667 11.3333C16.0521 11.625 15.9375 11.9167 15.8125 12.2083C15.6875 12.5417 15.5833 12.9115 15.5 13.3125C15.4167 13.7031 15.2604 14.0521 15.0417 14.3542C14.8854 14.5781 14.6927 14.7656 14.4583 14.9167C14.2344 15.0729 14.0521 15.2812 13.9167 15.5417C13.8438 15.6667 13.7969 15.7865 13.7708 15.8958C13.7396 15.9948 13.6719 16.0833 13.5625 16.1667C13.4792 16.2812 13.3646 16.3646 13.2292 16.4167C13.0885 16.4583 12.9635 16.5312 12.8542 16.625C12.7135 16.724 12.5833 16.8438 12.4583 16.9792C12.3333 17.1042 12.1979 17.2188 12.0625 17.3125L11.1875 17.6875C10.8802 17.8021 10.5729 17.9323 10.2708 18.0833C9.97917 18.2396 9.65625 18.349 9.3125 18.4167C8.86458 18.4896 8.42188 18.5417 7.97917 18.5833C7.54688 18.6094 7.10417 18.6458 6.64583 18.6875L6.52083 18.8125C6.28125 18.7396 6.04167 18.7083 5.79167 18.7083C5.54167 18.7083 5.28125 18.6979 5.02083 18.6875C4.90625 18.6875 4.79688 18.6719 4.6875 18.6458C4.58854 18.6146 4.47917 18.6094 4.35417 18.625C4.22917 18.625 4.09375 18.651 3.95833 18.7083C3.83333 18.776 3.69792 18.8021 3.5625 18.7917C3.33854 18.776 3.13021 18.7396 2.9375 18.6875C2.75521 18.6302 2.53125 18.625 2.27083 18.6667L1.3125 18.7083C1.04687 18.7083 0.8125 18.6302 0.604167 18.4792C0.395833 18.3125 0.260417 18.099 0.208333 17.8333C0.192708 17.6562 0.1875 17.474 0.1875 17.2917C0.1875 17.1146 0.171875 16.9323 0.145833 16.75C0.130208 16.4323 0.125 16.1146 0.125 15.7917C0.125 15.4583 0.0885413 15.1354 0.0208333 14.8125L0.208333 14.5833C0.192708 14.2812 0.192708 14.0208 0.208333 13.8125C0.218751 13.6042 0.276041 13.349 0.375 13.0417C0.192708 12.75 0.109375 12.4531 0.125 12.1458C0.135417 11.8281 0.0937507 11.5 0 11.1667L0.208333 11.0417C0.276041 10.7396 0.281249 10.4271 0.229167 10.1042C0.171875 9.78646 0.145833 9.47917 0.145833 9.1875C0.171875 8.86979 0.192708 8.55208 0.208333 8.22917C0.234375 7.91146 0.291667 7.60417 0.375 7.3125C0.218751 7.14583 0.151041 6.95313 0.166667 6.72917C0.192708 6.49479 0.213541 6.28125 0.229167 6.08333C0.239583 5.76563 0.229167 5.45833 0.1875 5.16667C0.145833 4.86458 0.130208 4.55208 0.145833 4.22917C0.1875 3.88542 0.234375 3.45313 0.291667 2.9375C0.343751 2.42708 0.322916 1.95313 0.229167 1.52083C0.171875 1.21875 0.218751 0.947916 0.375 0.708333C0.526041 0.473959 0.739583 0.307292 1.02083 0.208333C1.07292 0.182292 1.13542 0.161459 1.20833 0.145833C1.27604 0.119792 1.34375 0.0989587 1.41667 0.0833333C1.65104 0.0156253 1.8125 0.0937507 1.89583 0.3125C2.13021 0.302084 2.31771 0.286459 2.45833 0.270833C2.60937 0.260417 2.75521 0.203125 2.89583 0.104167C3.11458 -0.0208333 3.3125 0.0104173 3.47917 0.1875C3.83854 0.104167 4.14583 0.052084 4.39583 0.0208333C4.65625 -0.0208333 4.96354 0 5.3125 0.0833333C5.6875 0.166667 6.04688 0.182292 6.39583 0.125C6.73958 0.057292 7.10417 0.0364587 7.47917 0.0625L7.4375 0.1875C7.58854 0.203125 7.79688 0.239583 8.0625 0.291667C8.32292 0.348959 8.52083 0.333333 8.64583 0.25C9.17188 0.375 9.70833 0.510417 10.25 0.645833C10.7917 0.786459 11.2969 0.994792 11.7708 1.27083C12.2292 1.53646 12.6771 1.84375 13.125 2.1875C13.5833 2.53646 14.0052 2.89063 14.3958 3.25C14.6979 3.54167 14.9167 3.89583 15.0417 4.3125C15.1667 4.71875 15.2917 5.125 15.4167 5.54167C15.5104 5.76563 15.6094 5.97396 15.7083 6.16667C15.8177 6.36458 15.9167 6.5625 16 6.77083C16.125 7.03646 16.1927 7.3125 16.2083 7.60417C16.2344 7.88542 16.2708 8.16146 16.3125 8.4375ZM5.14583 14.1042C5.10417 14.2865 5.05208 14.4792 5 14.6875C4.94271 14.8958 4.94792 15.1146 5.02083 15.3333C5.07292 15.4896 5.16667 15.6354 5.29167 15.7708C5.41667 15.8958 5.51042 16.0365 5.58333 16.1875C5.94271 16.1771 6.29688 16.2031 6.64583 16.2708C6.98958 16.3281 7.33854 16.2656 7.6875 16.0833C7.98958 15.9479 8.26042 15.7656 8.5 15.5417C8.75 15.3229 9.02604 15.1562 9.33333 15.0417L9.64583 14.3125L9.97917 14.2292C10.0052 13.8542 10.0625 13.5104 10.1458 13.1875C10.2292 12.8542 10.4375 12.5729 10.7708 12.3333C10.7292 11.875 10.7083 11.4323 10.7083 11C10.7083 10.5729 10.7396 10.1354 10.8125 9.6875C10.8542 9.47917 10.8854 9.28646 10.9167 9.10417C10.9427 8.92708 10.9271 8.72917 10.875 8.52083C10.8177 8.30208 10.776 8.07813 10.75 7.85417C10.7344 7.63542 10.6927 7.41667 10.625 7.20833C10.526 6.83333 10.401 6.47396 10.25 6.125C10.1094 5.78125 10.0052 5.41146 9.9375 5.02083C9.90625 4.85417 9.88021 4.70833 9.85417 4.58333C9.83854 4.44792 9.78125 4.30729 9.6875 4.16667C9.58854 4.01563 9.47917 3.89583 9.35417 3.8125C9.22917 3.72917 9.15625 3.59896 9.14583 3.41667C8.85417 3.26563 8.57292 3.11458 8.3125 2.95833C8.0625 2.79167 7.80208 2.59375 7.54167 2.35417C7.25 2.41146 6.97917 2.45313 6.72917 2.47917C6.47917 2.51042 6.19792 2.49479 5.89583 2.4375L5.22917 2.95833C5.19792 3.25 5.17708 3.48958 5.16667 3.66667C5.15104 3.84896 5.20833 4.08333 5.33333 4.375C5.30208 4.51563 5.26042 4.66146 5.20833 4.8125C5.15104 4.95313 5.125 5.11458 5.125 5.29167C5.125 5.40625 5.13542 5.51563 5.16667 5.625C5.20833 5.72396 5.21875 5.83333 5.20833 5.95833C5.19271 6.08333 5.15625 6.20313 5.10417 6.3125C5.0625 6.41146 5.03125 6.52083 5.02083 6.64583C5.00521 6.77083 5.02083 6.90625 5.0625 7.04167C5.11458 7.16667 5.15625 7.30208 5.1875 7.4375L4.9375 7.85417C5.03125 8.09375 5.08854 8.30729 5.10417 8.5C5.11458 8.68229 5.11458 8.89063 5.10417 9.125C5.08854 9.375 5.10417 9.625 5.14583 9.875C5.1875 10.125 5.20833 10.3698 5.20833 10.6042C5.19271 10.8958 5.15625 11.1771 5.10417 11.4375C5.04688 11.7031 5.02083 11.9688 5.02083 12.2292C5.03125 12.5521 5.05208 12.8646 5.08333 13.1667C5.125 13.474 5.14583 13.7865 5.14583 14.1042ZM4.45833 4.6875L4.41667 4.75L4.64583 4.77083L4.35417 4.41667L4.45833 4.6875Z" fill="#D72333"/>
</svg>
