<svg width="6" height="8" viewBox="0 0 6 8" fill="none" xmlns="http://www.w3.org/2000/svg">
<path d="M4.125 0.145833C4.125 0.104167 4.13542 0.0729173 4.16667 0.0416667C4.19271 0.0156253 4.23438 0 4.29167 0H5.02083C5.11458 0 5.16667 0.0520827 5.16667 0.145833L4.25 7.4375C4.23438 7.53646 4.1875 7.58333 4.10417 7.58333H3.35417C3.3125 7.58333 3.27604 7.57292 3.25 7.54167C3.21875 7.51563 3.21354 7.47917 3.22917 7.4375L3.29167 6.91667C3.29167 6.89063 3.28125 6.875 3.27083 6.875C3.25521 6.875 3.23958 6.89063 3.22917 6.91667C2.85417 7.43229 2.33333 7.6875 1.66667 7.6875C1.13542 7.6875 0.729167 7.54167 0.4375 7.25C0.145833 6.95833 0 6.52083 0 5.9375C0 5.85417 0.005208 5.70313 0.0208333 5.47917L0.6875 0.145833C0.713541 0.0520827 0.770833 0 0.854167 0H1.58333C1.67708 0 1.72917 0.0520827 1.72917 0.145833L1.10417 5.25C1.07292 5.43229 1.0625 5.55208 1.0625 5.60417C1.0625 6.36979 1.39583 6.75 2.0625 6.75C2.44792 6.75 2.77083 6.61458 3.02083 6.33333C3.28125 6.04167 3.44271 5.64583 3.5 5.14583L4.125 0.145833Z" fill="#D51224"/>
</svg>
