<svg width="6" height="12" viewBox="0 0 6 12" fill="none" xmlns="http://www.w3.org/2000/svg">
<path d="M2.66667 11.2292C1.85937 11.2292 1.21354 10.9896 0.729167 10.5C0.239583 10 0 9.34375 0 8.52083V2.6875C0 1.88542 0.239583 1.23958 0.729167 0.75C1.21354 0.25 1.85937 0 2.66667 0C3.48437 0 4.13542 0.244792 4.625 0.729167C5.10938 1.21875 5.35417 1.86979 5.35417 2.6875V2.95833C5.35417 3.07292 5.30208 3.125 5.20833 3.125L4.39583 3.16667C4.28125 3.16667 4.22917 3.11458 4.22917 3V2.625C4.22917 2.125 4.08333 1.72917 3.79167 1.4375C3.51042 1.13542 3.13542 0.979167 2.66667 0.979167C2.20833 0.979167 1.83333 1.13542 1.54167 1.4375C1.26042 1.72917 1.125 2.125 1.125 2.625V8.60417C1.125 9.10417 1.26042 9.51042 1.54167 9.8125C1.83333 10.1042 2.20833 10.25 2.66667 10.25C3.13542 10.25 3.51042 10.1042 3.79167 9.8125C4.08333 9.51042 4.22917 9.10417 4.22917 8.60417V8.20833C4.22917 8.11458 4.28125 8.0625 4.39583 8.0625L5.20833 8.10417C5.30208 8.10417 5.35417 8.16146 5.35417 8.27083V8.52083C5.35417 9.34375 5.10417 10 4.60417 10.5C4.11458 10.9896 3.46875 11.2292 2.66667 11.2292Z" fill="#D51224"/>
</svg>
