<svg width="5" height="12" viewBox="0 0 5 12" fill="none" xmlns="http://www.w3.org/2000/svg">
<path d="M3.77083 3.41667C3.77083 3.30729 3.81771 3.25 3.91667 3.25H4.72917C4.83854 3.25 4.89583 3.30729 4.89583 3.41667V11.1667C4.89583 11.2812 4.83854 11.3333 4.72917 11.3333H3.91667C3.81771 11.3333 3.77083 11.2812 3.77083 11.1667V10.625C3.77083 10.599 3.75521 10.5833 3.72917 10.5833C3.71354 10.5833 3.69792 10.599 3.6875 10.625C3.35417 11.1667 2.81771 11.4375 2.08333 11.4375C1.44271 11.4375 0.9375 11.2448 0.5625 10.8542C0.1875 10.4688 0 9.88542 0 9.10417V3.41667C0 3.30729 0.052084 3.25 0.166667 3.25H0.979167C1.07292 3.25 1.125 3.30729 1.125 3.41667V8.85417C1.125 9.38542 1.23437 9.78646 1.45833 10.0625C1.67708 10.3281 2 10.4583 2.41667 10.4583C2.83333 10.4583 3.15625 10.3073 3.39583 10C3.64583 9.68229 3.77083 9.26042 3.77083 8.72917V3.41667ZM3.625 1.79167C3.35937 1.79167 3.14583 1.70833 2.97917 1.54167C2.8125 1.36458 2.72917 1.14583 2.72917 0.895833C2.72917 0.635416 2.8125 0.416667 2.97917 0.25C3.14583 0.0833333 3.35937 0 3.625 0C3.875 0 4.08333 0.0833333 4.25 0.25C4.42708 0.416667 4.52083 0.635416 4.52083 0.895833C4.52083 1.14583 4.42708 1.36458 4.25 1.54167C4.08333 1.70833 3.875 1.79167 3.625 1.79167ZM1.25 1.79167C0.984375 1.79167 0.770833 1.70833 0.604167 1.54167C0.4375 1.36458 0.354167 1.14583 0.354167 0.895833C0.354167 0.635416 0.4375 0.416667 0.604167 0.25C0.770833 0.0833333 0.984375 0 1.25 0C1.5 0 1.70833 0.0833333 1.875 0.25C2.05208 0.416667 2.14583 0.635416 2.14583 0.895833C2.14583 1.14583 2.05208 1.36458 1.875 1.54167C1.70833 1.70833 1.5 1.79167 1.25 1.79167Z" fill="#D72333"/>
</svg>
