<svg width="6" height="12" viewBox="0 0 6 12" fill="none" xmlns="http://www.w3.org/2000/svg">
<path d="M5.02083 0.833333C5.02083 0.932292 4.96875 0.979167 4.875 0.979167H1.20833C1.16667 0.979167 1.14583 1 1.14583 1.04167V5C1.14583 5.04167 1.16667 5.0625 1.20833 5.0625H3.52083C3.61458 5.0625 3.66667 5.11979 3.66667 5.22917V5.91667C3.66667 6.03125 3.61458 6.08333 3.52083 6.08333H1.20833C1.16667 6.08333 1.14583 6.10417 1.14583 6.14583V11C1.14583 11.1146 1.08854 11.1667 0.979167 11.1667H0.166667C0.052084 11.1667 0 11.1146 0 11V0.145833C0 0.0520827 0.052084 0 0.166667 0H4.875C4.96875 0 5.02083 0.0520827 5.02083 0.145833V0.833333Z" fill="#D72333"/>
</svg>
