<svg width="5" height="8" viewBox="0 0 5 8" fill="none" xmlns="http://www.w3.org/2000/svg">
<path d="M2.29167 7.64583C1.59375 7.64583 1.04167 7.44792 0.625 7.04167C0.208333 6.625 0 6.07813 0 5.39583V2.25C0 1.59896 0.208333 1.0625 0.625 0.645833C1.04167 0.218751 1.59375 0 2.29167 0C3 0 3.5625 0.218751 3.97917 0.645833C4.39583 1.0625 4.60417 1.59896 4.60417 2.25V5.39583C4.60417 6.07813 4.39583 6.625 3.97917 7.04167C3.5625 7.44792 3 7.64583 2.29167 7.64583ZM2.29167 6.70833C2.66667 6.70833 2.96875 6.58333 3.20833 6.33333C3.44271 6.08333 3.5625 5.75 3.5625 5.33333V2.3125C3.5625 1.89583 3.44271 1.5625 3.20833 1.3125C2.96875 1.05208 2.66667 0.916667 2.29167 0.916667C1.92708 0.916667 1.63021 1.05208 1.39583 1.3125C1.15625 1.5625 1.04167 1.89583 1.04167 2.3125V5.33333C1.04167 5.75 1.15625 6.08333 1.39583 6.33333C1.63021 6.58333 1.92708 6.70833 2.29167 6.70833Z" fill="#D72333"/>
</svg>
