<svg width="4" height="6" viewBox="0 0 4 6" fill="none" xmlns="http://www.w3.org/2000/svg">
<path d="M1.8125 0C2.3125 0 2.70833 0.166667 3 0.5C3.29167 0.822916 3.4375 1.25 3.4375 1.79167V5.375C3.4375 5.44792 3.40104 5.47917 3.33333 5.47917H2.79167C2.71875 5.47917 2.6875 5.44792 2.6875 5.375V5.0625C2.6875 5.05208 2.67708 5.04167 2.66667 5.04167C2.66667 5.03125 2.65625 5.03125 2.64583 5.04167C2.38021 5.39063 1.98437 5.5625 1.45833 5.5625C1.06771 5.5625 0.729167 5.45312 0.4375 5.22917C0.145833 5.01042 0 4.61458 0 4.04167C0 3.44792 0.171875 3.01042 0.520833 2.72917C0.880208 2.4375 1.33854 2.29167 1.89583 2.29167H2.64583C2.67187 2.29167 2.6875 2.28125 2.6875 2.25V1.83333C2.6875 1.48958 2.60417 1.20833 2.4375 1C2.28125 0.781249 2.06771 0.666667 1.79167 0.666667C1.56771 0.666667 1.38021 0.739583 1.22917 0.875C1.07292 1.01563 0.984375 1.19792 0.958333 1.41667C0.958333 1.48958 0.921875 1.52083 0.854167 1.52083H0.270833C0.229167 1.52083 0.197917 1.51563 0.1875 1.5C0.171875 1.47396 0.166667 1.44792 0.166667 1.41667C0.208333 1 0.380208 0.661459 0.6875 0.395833C0.989584 0.135417 1.36458 0 1.8125 0ZM1.625 4.89583C1.91667 4.89583 2.16667 4.80729 2.375 4.625C2.58333 4.43229 2.6875 4.16667 2.6875 3.83333V2.9375C2.6875 2.91146 2.67187 2.89583 2.64583 2.89583H1.89583C1.54687 2.89583 1.27604 2.98958 1.08333 3.16667C0.885416 3.34896 0.791667 3.61979 0.791667 3.97917C0.791667 4.28646 0.864584 4.51563 1.02083 4.66667C1.17187 4.82292 1.375 4.89583 1.625 4.89583Z" fill="#D72333"/>
</svg>
