<svg width="7" height="12" viewBox="0 0 7 12" fill="none" xmlns="http://www.w3.org/2000/svg">
<path d="M3.16667 11.3542C2.20833 11.3542 1.4375 11.0833 0.854167 10.5417C0.281251 10 0 9.27083 0 8.35417V3C0 2.08333 0.281251 1.35417 0.854167 0.8125C1.4375 0.270833 2.20833 0 3.16667 0C4.10938 0 4.875 0.281249 5.45833 0.833333C6.04167 1.375 6.33333 2.09896 6.33333 3V3.60417C6.33333 3.66146 6.3125 3.70833 6.27083 3.75C6.23958 3.78125 6.19792 3.79167 6.14583 3.79167H4.29167C4.23438 3.79167 4.1875 3.78125 4.14583 3.75C4.11458 3.70833 4.10417 3.66146 4.10417 3.60417V2.97917C4.10417 2.66146 4.01042 2.40625 3.83333 2.20833C3.66667 2.01563 3.44271 1.91667 3.16667 1.91667C2.88542 1.91667 2.65625 2.01563 2.47917 2.20833C2.3125 2.40625 2.22917 2.66146 2.22917 2.97917V8.375C2.22917 8.69792 2.3125 8.95313 2.47917 9.14583C2.65625 9.34375 2.88542 9.4375 3.16667 9.4375C3.44271 9.4375 3.66667 9.34375 3.83333 9.14583C4.01042 8.95313 4.10417 8.69792 4.10417 8.375V7.10417C4.10417 7.05208 4.07292 7.02083 4.02083 7.02083H3.3125C3.25521 7.02083 3.20833 7.01042 3.16667 6.97917C3.13542 6.9375 3.125 6.89063 3.125 6.83333V5.41667C3.125 5.36458 3.13542 5.32292 3.16667 5.29167C3.20833 5.25 3.25521 5.22917 3.3125 5.22917H6.14583C6.19792 5.22917 6.23958 5.25 6.27083 5.29167C6.3125 5.32292 6.33333 5.36458 6.33333 5.41667V8.35417C6.33333 9.27083 6.04167 10 5.45833 10.5417C4.875 11.0833 4.10938 11.3542 3.16667 11.3542Z" fill="#D72333"/>
</svg>
