<svg width="11" height="20" viewBox="0 0 11 20" fill="none" xmlns="http://www.w3.org/2000/svg">
<path d="M9.04761 19.5625C8.88094 19.5625 8.77678 19.4792 8.73511 19.3125L8.02678 15.8542C8.02678 15.8125 8.01115 15.7865 7.98511 15.7708C7.95386 15.7448 7.92782 15.7292 7.90178 15.7292H2.83928C2.79761 15.7292 2.76115 15.7448 2.73511 15.7708C2.70386 15.7865 2.69344 15.8125 2.69344 15.8542L2.00594 19.3125C1.97469 19.4792 1.87053 19.5625 1.69344 19.5625H0.276777C0.177818 19.5625 0.0996942 19.5365 0.0476102 19.4792C0.00594355 19.4271 -0.00968178 19.349 0.00594355 19.25L4.21428 0.25C4.24032 0.0833333 4.33928 0 4.50594 0H6.19344C6.37053 0 6.47469 0.0833333 6.50594 0.25L10.7351 19.25V19.3125C10.7351 19.4792 10.6518 19.5625 10.4851 19.5625H9.04761ZM3.06844 14C3.06844 14.0833 3.09449 14.125 3.15178 14.125H7.56844C7.62053 14.125 7.65178 14.0833 7.65178 14L5.40178 3.02083C5.38615 2.96875 5.36532 2.9375 5.33928 2.9375C5.32365 2.9375 5.30803 2.96875 5.29761 3.02083L3.06844 14Z" fill="#D72333"/>
</svg>
