<svg width="7" height="12" viewBox="0 0 7 12" fill="none" xmlns="http://www.w3.org/2000/svg">
<path d="M3.16667 11.4167C2.21875 11.4167 1.45833 11.1354 0.875 10.5625C0.291667 9.99479 0 9.22917 0 8.27083V3.10417C0 2.16146 0.291667 1.41146 0.875 0.854167C1.45833 0.286459 2.21875 0 3.16667 0C4.13542 0 4.91667 0.286459 5.5 0.854167C6.08333 1.41146 6.375 2.16146 6.375 3.10417V3.27083C6.375 3.32813 6.35417 3.375 6.3125 3.41667C6.27083 3.45833 6.21875 3.47917 6.16667 3.47917L4.3125 3.54167C4.1875 3.54167 4.125 3.48958 4.125 3.375V2.95833C4.125 2.65625 4.03125 2.40625 3.85417 2.20833C3.6875 2.01563 3.45833 1.91667 3.16667 1.91667C2.90104 1.91667 2.67708 2.01563 2.5 2.20833C2.33333 2.40625 2.25 2.65625 2.25 2.95833V8.45833C2.25 8.78125 2.33333 9.03125 2.5 9.20833C2.67708 9.39063 2.90104 9.47917 3.16667 9.47917C3.45833 9.47917 3.6875 9.39063 3.85417 9.20833C4.03125 9.03125 4.125 8.78125 4.125 8.45833V8.04167C4.125 7.98958 4.13542 7.94792 4.16667 7.91667C4.20833 7.875 4.25521 7.85417 4.3125 7.85417L6.16667 7.91667C6.21875 7.91667 6.27083 7.9375 6.3125 7.97917C6.35417 8.02083 6.375 8.07292 6.375 8.125V8.27083C6.375 9.22917 6.07292 9.99479 5.47917 10.5625C4.89583 11.1354 4.125 11.4167 3.16667 11.4167Z" fill="#D72333"/>
</svg>
