<svg width="12" height="12" viewBox="0 0 12 12" fill="none" xmlns="http://www.w3.org/2000/svg">
<path d="M9.54167 4.45931C9.85938 4.45931 10.0885 4.54264 10.2292 4.70931C10.3646 4.87597 10.4271 5.0791 10.4167 5.31347C10.401 5.53743 10.2969 5.73014 10.1042 5.89681C9.92188 6.06347 9.66667 6.14681 9.33333 6.14681H8.58333C8.40104 6.62077 8.22917 7.09993 8.0625 7.58431C7.89583 8.05827 7.72917 8.52181 7.5625 8.98014C7.54688 9.02181 7.53125 9.06347 7.52083 9.10514C7.52083 9.14681 7.52083 9.18847 7.52083 9.23014C7.52083 9.37077 7.57292 9.49056 7.6875 9.58431C7.79688 9.66764 7.94792 9.70931 8.14583 9.70931C8.52083 9.70931 8.88542 9.52181 9.25 9.14681C9.625 8.77181 9.89583 8.29264 10.0625 7.70931C10.1458 7.45931 10.2813 7.28222 10.4792 7.16764C10.6719 7.04264 10.8646 6.99056 11.0625 7.00097C11.2708 7.0166 11.4271 7.10514 11.5417 7.27181C11.6667 7.42806 11.6875 7.65722 11.6042 7.95931C11.4375 8.57389 11.1719 9.1416 10.8125 9.66764C10.4479 10.1989 10.0104 10.6208 9.5 10.9385C8.98438 11.2458 8.42188 11.3968 7.8125 11.3968C7.40625 11.3968 7.04167 11.3239 6.70833 11.1676C6.375 11.0166 6.10417 10.8031 5.89583 10.5218C5.54688 10.8291 5.13542 11.0583 4.66667 11.2093C4.20833 11.3499 3.73437 11.4228 3.25 11.4385C2.63542 11.3968 2.08854 11.251 1.60417 11.001C1.11458 10.751 0.729167 10.4124 0.4375 9.98014C0.145833 9.55306 0 9.06347 0 8.52181C0 8.35514 0.0208333 8.17806 0.0625 7.98014C0.0937493 7.77181 0.145833 7.56347 0.229167 7.35514H0.208333L0.375 6.95931C0.583333 6.36556 0.906251 5.87077 1.35417 5.48014C1.8125 5.09472 2.33854 4.82389 2.9375 4.66764C2.8125 4.47493 2.70833 4.2666 2.625 4.04264C2.55208 3.80827 2.52083 3.57389 2.52083 3.33431C2.52083 3.04264 2.58333 2.74056 2.70833 2.41764C2.70833 2.40722 2.70833 2.38639 2.70833 2.35514C2.71875 2.3291 2.72917 2.30827 2.72917 2.29264C2.9375 1.75097 3.21875 1.31347 3.58333 0.980141C3.94271 0.636392 4.33854 0.386391 4.77083 0.230141C5.19792 0.0634741 5.63542 -0.00944319 6.08333 0.000974144C6.81771 0.0322235 7.40104 0.178058 7.83333 0.438474C8.27604 0.688474 8.60938 1.00097 8.83333 1.37597C9.05208 1.74056 9.19792 2.10514 9.27083 2.48014C9.32292 2.80306 9.29688 3.05827 9.1875 3.25097C9.08854 3.44889 8.94271 3.58431 8.75 3.66764C8.56771 3.74056 8.375 3.76139 8.16667 3.73014C7.96875 3.7041 7.79688 3.62597 7.64583 3.50097C7.48958 3.36556 7.40104 3.18327 7.375 2.95931C7.34375 2.68327 7.23438 2.42806 7.04167 2.18847C6.84375 1.93847 6.55208 1.81347 6.16667 1.81347C5.70833 1.81347 5.33854 1.95931 5.0625 2.25097C4.78125 2.54264 4.64583 2.92806 4.64583 3.39681C4.64583 3.7041 4.73438 3.95931 4.91667 4.16764C5.10938 4.36556 5.35417 4.45931 5.64583 4.45931H9.54167ZM3.47917 9.77181C3.97917 9.78743 4.46354 9.59993 4.9375 9.20931C5.42188 8.80827 5.81771 8.2041 6.125 7.39681L6.54167 6.14681H4.6875C4.17188 6.14681 3.69792 6.26139 3.27083 6.48014C2.83854 6.7041 2.54167 7.03222 2.375 7.45931L2.3125 7.68847C2.25521 7.8291 2.21354 7.95931 2.1875 8.08431C2.17187 8.20931 2.16667 8.3291 2.16667 8.43847C2.16667 8.8291 2.29167 9.14681 2.54167 9.39681C2.79167 9.63639 3.10417 9.76139 3.47917 9.77181Z" fill="#D72333"/>
</svg>
