<svg width="5" height="8" viewBox="0 0 5 8" fill="none" xmlns="http://www.w3.org/2000/svg">
<path d="M2.39583 7.97917C1.65625 7.97917 1.07292 7.76563 0.645833 7.33333C0.213541 6.90625 0 6.34375 0 5.64583V2.35417C0 1.66146 0.213541 1.09896 0.645833 0.666667C1.08854 0.223959 1.67187 0 2.39583 0C3.13021 0 3.71354 0.223959 4.14583 0.666667C4.58854 1.09896 4.8125 1.66146 4.8125 2.35417V5.64583C4.8125 6.34375 4.58854 6.90625 4.14583 7.33333C3.71354 7.76563 3.13021 7.97917 2.39583 7.97917ZM2.39583 7.02083C2.78125 7.02083 3.10417 6.89063 3.35417 6.625C3.60417 6.34896 3.72917 5.99479 3.72917 5.5625V2.41667C3.72917 1.97396 3.60417 1.61979 3.35417 1.35417C3.10417 1.07813 2.78125 0.9375 2.39583 0.9375C2.00521 0.9375 1.6875 1.07813 1.4375 1.35417C1.19792 1.61979 1.08333 1.97396 1.08333 2.41667V5.5625C1.08333 5.99479 1.19792 6.34896 1.4375 6.625C1.6875 6.89063 2.00521 7.02083 2.39583 7.02083Z" fill="#D72333"/>
</svg>
