<svg width="5" height="8" viewBox="0 0 5 8" fill="none" xmlns="http://www.w3.org/2000/svg">
<path d="M4.58333 4.0625C4.58333 4.16146 4.53125 4.20833 4.4375 4.20833H1.10417C1.0625 4.20833 1.04167 4.22917 1.04167 4.27083V5.33333C1.04167 5.75 1.15104 6.09375 1.375 6.35417C1.60937 6.60417 1.91667 6.72917 2.29167 6.72917C2.59375 6.72917 2.85937 6.64063 3.08333 6.45833C3.30208 6.26563 3.44792 6.01563 3.52083 5.70833C3.54687 5.625 3.59375 5.58333 3.66667 5.58333L4.39583 5.60417C4.4375 5.60417 4.46875 5.61979 4.5 5.64583C4.52604 5.67708 4.54167 5.71875 4.54167 5.77083C4.45833 6.34375 4.21354 6.80208 3.8125 7.14583C3.42187 7.47917 2.91667 7.64583 2.29167 7.64583C1.59375 7.64583 1.04167 7.44792 0.625 7.04167C0.208333 6.625 0 6.07813 0 5.39583V2.25C0 1.58333 0.208333 1.04167 0.625 0.625C1.04167 0.208333 1.59375 0 2.29167 0C2.98437 0 3.54167 0.208333 3.95833 0.625C4.375 1.04167 4.58333 1.58333 4.58333 2.25V4.0625ZM2.29167 0.916667C1.91667 0.916667 1.60937 1.05208 1.375 1.3125C1.15104 1.5625 1.04167 1.89583 1.04167 2.3125V3.29167C1.04167 3.33333 1.0625 3.35417 1.10417 3.35417H3.5C3.54167 3.35417 3.5625 3.33333 3.5625 3.29167V2.3125C3.5625 1.89583 3.44271 1.5625 3.20833 1.3125C2.96875 1.05208 2.66667 0.916667 2.29167 0.916667Z" fill="#D72333"/>
</svg>
