<svg width="16" height="19" viewBox="0 0 16 19" fill="none" xmlns="http://www.w3.org/2000/svg">
<path d="M14.6667 18.6704H14.5417C14.2188 18.5767 13.8802 18.5402 13.5208 18.5663C13.1719 18.5975 12.8438 18.6183 12.5417 18.6288C12.3594 18.6288 12.1875 18.6444 12.0208 18.6704C11.8542 18.6965 11.6771 18.7017 11.5 18.6913C11.2604 18.6808 11.0417 18.6236 10.8333 18.5246C10.6354 18.4308 10.4427 18.3319 10.25 18.2329C10.2188 18.0663 10.1771 17.8996 10.125 17.7329C10.0833 17.5663 10.0208 17.41 9.9375 17.2538C9.8125 17.0871 9.67188 16.9413 9.52083 16.8163C9.38021 16.6913 9.23438 16.5611 9.08333 16.4204C8.98438 16.2954 8.88542 16.1652 8.79167 16.0246C8.69271 15.8892 8.60938 15.7433 8.54167 15.5871C8.46875 15.4204 8.41667 15.2485 8.375 15.0663C8.34375 14.8735 8.28125 14.686 8.1875 14.5038C8.11458 14.3683 8.02604 14.2485 7.91667 14.1496C7.80208 14.0558 7.69271 13.9413 7.58333 13.8163C7.45833 13.6808 7.35938 13.535 7.29167 13.3788C7.21875 13.2121 7.15104 13.0454 7.08333 12.8788C6.94271 12.4933 6.77604 12.1235 6.58333 11.7746C6.40104 11.4308 6.17188 11.1079 5.89583 10.8163L6.02083 10.5871L5.4375 10.5663L5.04167 10.9204L5.29167 11.1288C5.23438 11.4517 5.17708 11.7746 5.125 12.1079C5.06771 12.4308 5.0625 12.7538 5.10417 13.0871C5.13021 13.2954 5.17188 13.5454 5.22917 13.8371C5.28125 14.1183 5.21354 14.3371 5.02083 14.5038C5.08854 14.811 5.13021 15.1183 5.14583 15.4204C5.15625 15.7277 5.15104 16.035 5.125 16.3371C5.10938 16.5454 5.08333 16.7538 5.04167 16.9621C5.01042 17.16 5 17.3527 5 17.5454C5 17.9621 4.81771 18.2538 4.45833 18.4204C4.10938 18.6027 3.6875 18.6965 3.1875 18.7121L3.10417 18.5871L2.75 18.5663L2.6875 18.7538C2.50521 18.66 2.31771 18.6392 2.125 18.6913C1.92708 18.7329 1.73437 18.759 1.54167 18.7746C1.375 18.785 1.20833 18.7798 1.04167 18.7538C0.875 18.7225 0.697916 18.7017 0.520833 18.6913C0.338541 18.3163 0.239583 17.9361 0.229167 17.5454C0.213541 17.16 0.218751 16.7694 0.25 16.3788C0.291667 15.9777 0.276041 15.5819 0.208333 15.1913C0.177084 15.0402 0.145833 14.8944 0.104167 14.7538C0.072916 14.6183 0.072916 14.4621 0.104167 14.2954C0.114583 14.1444 0.145833 13.9985 0.1875 13.8579C0.229167 13.7069 0.239583 13.5558 0.229167 13.3996C0.213541 13.0663 0.177084 12.7329 0.125 12.3996C0.067708 12.0663 0.0312493 11.7277 0.0208333 11.3788C0.005208 11.0194 0.0208333 10.6652 0.0625 10.3163C0.104167 9.97251 0.135417 9.62355 0.166667 9.27459C0.208333 8.91522 0.197916 8.58188 0.145833 8.27459C0.0885413 7.95688 0.052084 7.62876 0.0416667 7.29542C0.0416667 6.93605 0.067708 6.58188 0.125 6.23292C0.192708 5.87355 0.234375 5.52459 0.25 5.19126C0.291667 4.39959 0.208333 3.66522 0 2.98292L0.0208333 2.92042C0.156249 2.70167 0.197916 2.46209 0.145833 2.21209C0.130208 2.04542 0.109375 1.87876 0.0833333 1.71209C0.067708 1.54542 0.052084 1.38917 0.0416667 1.23292C0.0104173 0.831883 0.171875 0.514175 0.520833 0.274591H0.541667C0.708333 0.165216 0.885417 0.107924 1.08333 0.107924C1.31771 0.097508 1.54687 0.0766734 1.77083 0.045424C2.00521 0.00375736 2.23958 -0.00665998 2.47917 0.00375736C2.73958 0.00375736 3.00521 0.0245907 3.27083 0.0662574C3.53125 0.097508 3.79687 0.123549 4.0625 0.149591C4.48958 0.180841 4.79167 0.394383 4.95833 0.795424C5.08333 1.11834 5.10417 1.45167 5.02083 1.79542C4.94792 2.14438 4.94792 2.51938 5.02083 2.92042C5.22917 4.14438 5.22917 5.34751 5.02083 6.52459L5.14583 6.73292C5.33854 6.74855 5.5625 6.66522 5.8125 6.48292C6.07292 6.30584 6.28125 6.16522 6.4375 6.06626C6.47917 5.73292 6.61458 5.49334 6.85417 5.33709C7.08854 5.18605 7.33854 5.02459 7.60417 4.85792L7.5 4.39959L8 4.29542C8.44271 3.58709 8.9375 2.88917 9.47917 2.19126C10.0312 1.48292 10.6354 0.86834 11.2917 0.337091C11.3177 0.295424 11.3333 0.264175 11.3333 0.232924C11.3333 0.107924 11.3958 0.0610494 11.5208 0.0870907C11.8229 0.160007 12.1094 0.180841 12.375 0.149591C12.651 0.107924 12.9271 0.097508 13.2083 0.107924C13.4844 0.107924 13.7552 0.227716 14.0208 0.462091C14.0885 0.535007 14.0938 0.597508 14.0417 0.649591C13.6354 1.13917 13.1979 1.60792 12.7292 2.06626C12.2552 2.52459 11.8542 3.04022 11.5208 3.60792C11.1719 4.18084 10.75 4.69126 10.25 5.14959C9.76042 5.60792 9.36458 6.14438 9.0625 6.75376C9.42188 7.28501 9.79688 7.80584 10.1875 8.31626C10.5885 8.81626 10.9271 9.34751 11.2083 9.89959C11.3333 10.1392 11.4427 10.3735 11.5417 10.6079C11.6354 10.8319 11.776 11.0454 11.9583 11.2538C12.1094 11.4517 12.25 11.6444 12.375 11.8371C12.5104 12.035 12.6458 12.2538 12.7708 12.5038C12.8958 12.7277 13.026 12.9413 13.1667 13.1496C13.3021 13.3579 13.4635 13.5663 13.6458 13.7746C13.8229 13.9985 13.9479 14.2433 14.0208 14.5038C14.0885 14.7694 14.1927 15.0246 14.3333 15.2746C14.5521 15.7069 14.8229 16.0975 15.1458 16.4413C15.4635 16.7902 15.6562 17.2225 15.7292 17.7329C15.7292 17.7746 15.7604 17.8319 15.8333 17.8996C15.9271 17.9569 15.9635 18.035 15.9375 18.1288C15.9219 18.2277 15.875 18.2902 15.7917 18.3163C15.6094 18.3892 15.4219 18.4517 15.2292 18.5038C15.0469 18.5611 14.8594 18.6183 14.6667 18.6704Z" fill="#D72333"/>
</svg>
