<svg width="6" height="20" viewBox="0 0 6 20" fill="none" xmlns="http://www.w3.org/2000/svg">
<path d="M2.77083 0C3.14583 0.0156253 3.50521 0.0312507 3.85417 0.0416667C4.21354 0.057292 4.56771 0.0781253 4.91667 0.104167C5.08333 0.135416 5.21354 0.218749 5.3125 0.354167C5.42188 0.494792 5.46875 0.645833 5.45833 0.8125L5.54167 0.895833C5.55208 1.24479 5.55208 1.59896 5.54167 1.95833C5.54167 2.30729 5.53125 2.66146 5.52083 3.02083C5.52083 3.3125 5.47917 3.59896 5.39583 3.875C5.32292 4.15625 5.3125 4.4375 5.35417 4.72917C5.36458 4.86979 5.38542 5.01042 5.41667 5.14583C5.44271 5.28646 5.45833 5.4375 5.45833 5.60417C5.44271 5.74479 5.41667 5.875 5.375 6C5.33333 6.11458 5.30208 6.24479 5.29167 6.39583C5.27604 6.71875 5.31771 7.03125 5.41667 7.33333C5.51042 7.64063 5.58854 7.95313 5.64583 8.27083L5.47917 8.4375C5.50521 8.64583 5.51042 8.875 5.5 9.125C5.48438 9.375 5.54688 9.60417 5.6875 9.8125C5.54688 10.2188 5.47917 10.625 5.47917 11.0417C5.47917 11.4583 5.48958 11.8854 5.52083 12.3125C5.53125 12.7865 5.48438 13.2448 5.375 13.6875C5.27604 14.1354 5.21875 14.5938 5.20833 15.0625L5.5625 15.1875C5.4375 15.4948 5.35938 15.7865 5.33333 16.0625C5.30208 16.3438 5.39583 16.6354 5.60417 16.9375C5.4375 17.4375 5.35417 17.9115 5.35417 18.3542C5.35417 18.8542 5.09375 19.2031 4.58333 19.3958C4.34375 19.4688 4.10417 19.5104 3.85417 19.5208C3.60417 19.5208 3.34375 19.5156 3.08333 19.5C2.90104 19.4583 2.73958 19.4583 2.60417 19.5C2.47917 19.5417 2.31771 19.5938 2.125 19.6458C1.88542 19.7135 1.65625 19.7188 1.4375 19.6667C1.22917 19.625 1.01042 19.625 0.791667 19.6667L0.125 19.0208C0.151041 18.6771 0.145833 18.3281 0.104167 17.9792C0.0729173 17.6198 0.125 17.2708 0.25 16.9375C0.0833333 16.6198 0.0208333 16.2865 0.0625 15.9375C0.104167 15.5781 0.151041 15.2292 0.208333 14.8958C0.276041 14.4792 0.296875 14.0833 0.270833 13.7083C0.239584 13.3229 0.208333 12.9323 0.166667 12.5417C0.135416 12.1667 0.151041 11.8073 0.208333 11.4583C0.260416 11.099 0.276041 10.7448 0.25 10.3958C0.234375 9.96875 0.213541 9.55208 0.1875 9.14583C0.171875 8.72917 0.125 8.3125 0.0416667 7.89583L0.208333 7.64583C0.0937493 7.41146 0.0416667 7.1875 0.0416667 6.97917C0.0520827 6.76042 0.067708 6.53125 0.0833333 6.29167C0.125 5.97396 0.125 5.66667 0.0833333 5.375C0.0520827 5.07292 0.0260413 4.76563 0 4.45833L0.145833 4.35417C0.0468747 3.76042 0.0260413 3.18229 0.0833333 2.625C0.135416 2.07292 0.130208 1.5 0.0625 0.916667C0.0208333 0.739584 0.0729173 0.593749 0.229167 0.479167C0.588541 0.119792 1.00521 -0.010416 1.47917 0.0833333C1.73958 0.0989587 1.98958 0.114584 2.22917 0.125C2.46354 0.140625 2.64583 0.0989587 2.77083 0Z" fill="#D72333"/>
</svg>
