<svg width="4" height="7" viewBox="0 0 4 7" fill="none" xmlns="http://www.w3.org/2000/svg">
<path d="M1.58333 6.5625C1.10937 6.5625 0.729167 6.41667 0.4375 6.125C0.145833 5.82292 0 5.43229 0 4.95833V1.60417C0 1.11979 0.145833 0.729167 0.4375 0.4375C0.729167 0.145833 1.10937 0 1.58333 0C2.05208 0 2.4375 0.145833 2.72917 0.4375C3.02083 0.729167 3.16667 1.11979 3.16667 1.60417V4.95833C3.16667 5.43229 3.02083 5.82292 2.72917 6.125C2.4375 6.41667 2.05208 6.5625 1.58333 6.5625ZM1.58333 5.97917C1.85937 5.97917 2.08333 5.89063 2.25 5.70833C2.42708 5.53125 2.52083 5.28646 2.52083 4.97917V1.58333C2.52083 1.28125 2.42708 1.03646 2.25 0.854167C2.08333 0.661459 1.85937 0.5625 1.58333 0.5625C1.30208 0.5625 1.07292 0.661459 0.895833 0.854167C0.729167 1.03646 0.645833 1.28125 0.645833 1.58333V4.97917C0.645833 5.28646 0.729167 5.53125 0.895833 5.70833C1.07292 5.89063 1.30208 5.97917 1.58333 5.97917Z" fill="#D72333"/>
</svg>
