<svg width="13" height="12" viewBox="0 0 13 12" fill="none" xmlns="http://www.w3.org/2000/svg">
<path d="M2.86979 9.19271C2.1875 9.19271 1.26042 8.3125 1.26042 6.31771C1.26042 4.19792 3.10937 1.59375 6.14583 1.21354C5.96875 2.66667 5.66667 4.16667 5.26562 5.47396C4.45313 8.14062 3.57292 9.19271 2.86979 9.19271ZM7.03646 11.8437C10.8073 11.349 12.9896 9.13021 12.9896 5.80729C12.9896 2.61458 10.6302 0 6.92708 0C3.0625 0 0 3 0 6.43229C0 9.03125 1.42187 10.6615 2.82292 10.6615C4.29167 10.6615 5.55208 8.98437 6.52604 5.74479C6.95833 4.26042 7.26042 2.66667 7.46875 1.19792C10.151 1.42187 11.6667 3.38021 11.6667 5.77604C11.6667 8.50521 9.6875 10.0052 7.66146 10.4531C7.27604 10.5312 6.79687 10.6146 6.30208 10.6458L7.03646 11.8437Z" fill="#D72333"/>
</svg>
