<svg width="6" height="12" viewBox="0 0 6 12" fill="none" xmlns="http://www.w3.org/2000/svg">
<path d="M2.85417 0C3.72917 0 4.42708 0.281249 4.95833 0.833333C5.48438 1.375 5.75 2.09896 5.75 3V7.47917C5.75 8.16146 5.58854 8.75 5.27083 9.25C4.94792 9.73958 4.51042 10.0833 3.95833 10.2917C3.91667 10.3073 3.89583 10.3333 3.89583 10.375V11.6042C3.89583 11.6562 3.875 11.6979 3.83333 11.7292C3.80208 11.7708 3.77083 11.7917 3.72917 11.7917H2.02083C1.96354 11.7917 1.91667 11.7708 1.875 11.7292C1.84375 11.6979 1.83333 11.6562 1.83333 11.6042V10.375C1.83333 10.3333 1.81771 10.3073 1.79167 10.2917C1.21875 10.0833 0.776041 9.73958 0.458333 9.25C0.151041 8.75 0 8.16146 0 7.47917V3C0 2.40625 0.114584 1.88542 0.354167 1.4375C0.588541 0.979167 0.921875 0.625 1.35417 0.375C1.79687 0.125 2.29687 0 2.85417 0ZM2.0625 7.6875C2.0625 7.99479 2.13021 8.24479 2.27083 8.4375C2.42187 8.61979 2.61458 8.70833 2.85417 8.70833C3.10417 8.70833 3.30208 8.61979 3.45833 8.4375C3.60937 8.24479 3.6875 7.99479 3.6875 7.6875V2.77083C3.6875 2.47917 3.60937 2.24479 3.45833 2.0625C3.30208 1.86979 3.10417 1.77083 2.85417 1.77083C2.61458 1.77083 2.42187 1.86979 2.27083 2.0625C2.13021 2.24479 2.0625 2.47917 2.0625 2.77083V7.6875Z" fill="#D72333"/>
</svg>
