<svg width="6" height="13" viewBox="0 0 6 13" fill="none" xmlns="http://www.w3.org/2000/svg">
<path d="M0.166667 12.1667C0.052084 12.1667 0 12.1146 0 12V0.1875C0 0.0625 0.052084 0 0.166667 0H1.0625C1.17187 0 1.22917 0.0625 1.22917 0.1875V7.16667C1.22917 7.18229 1.23437 7.19792 1.25 7.20833C1.27604 7.22396 1.29687 7.21875 1.3125 7.1875L3.91667 3.47917C3.96875 3.41146 4.04167 3.375 4.125 3.375H5.04167C5.10938 3.375 5.15104 3.39583 5.16667 3.4375C5.19271 3.47917 5.1875 3.53125 5.14583 3.58333L3.41667 6.04167C3.38542 6.08333 3.38021 6.11979 3.39583 6.14583L5.45833 11.9792L5.47917 12.0417C5.47917 12.125 5.42188 12.1667 5.3125 12.1667H4.39583C4.28125 12.1667 4.21354 12.1198 4.1875 12.0208L2.64583 7.1875C2.63021 7.11979 2.59375 7.11979 2.54167 7.1875L1.27083 8.97917C1.23958 9.01042 1.22917 9.04167 1.22917 9.08333V12C1.22917 12.1146 1.17187 12.1667 1.0625 12.1667H0.166667Z" fill="#D72333"/>
</svg>
