<svg width="7" height="12" viewBox="0 0 7 12" fill="none" xmlns="http://www.w3.org/2000/svg">
<path d="M3.1875 11.3125C2.21354 11.3125 1.4375 11.0312 0.854167 10.4583C0.281251 9.89063 0 9.13542 0 8.1875V3.125C0 2.18229 0.281251 1.42708 0.854167 0.854167C1.4375 0.286459 2.21354 0 3.1875 0C4.15625 0 4.9375 0.286459 5.52083 0.854167C6.10417 1.42708 6.39583 2.18229 6.39583 3.125V8.1875C6.39583 9.13542 6.10417 9.89063 5.52083 10.4583C4.9375 11.0312 4.15625 11.3125 3.1875 11.3125ZM3.1875 9.39583C3.47917 9.39583 3.71354 9.30208 3.89583 9.10417C4.07292 8.89583 4.16667 8.61979 4.16667 8.27083V3.02083C4.16667 2.6875 4.07292 2.41667 3.89583 2.20833C3.71354 2 3.47917 1.89583 3.1875 1.89583C2.89583 1.89583 2.65625 2 2.47917 2.20833C2.3125 2.41667 2.22917 2.6875 2.22917 3.02083V8.27083C2.22917 8.61979 2.3125 8.89583 2.47917 9.10417C2.65625 9.30208 2.89583 9.39583 3.1875 9.39583Z" fill="#D72333"/>
</svg>
