<svg width="6" height="9" viewBox="0 0 6 9" fill="none" xmlns="http://www.w3.org/2000/svg">
<path d="M4.95833 4.35417C4.92708 4.46875 4.86458 4.52083 4.77083 4.52083H1.3125C1.28125 4.52083 1.26042 4.53125 1.25 4.54167C1.23437 4.54167 1.22917 4.55729 1.22917 4.58333L1.08333 5.72917C1.08333 5.78646 1.08333 5.86979 1.08333 5.97917C1.08333 6.34375 1.1875 6.64063 1.39583 6.875C1.60417 7.09896 1.875 7.20833 2.20833 7.20833C2.52604 7.20833 2.8125 7.11458 3.0625 6.91667C3.3125 6.70833 3.5 6.44792 3.625 6.125C3.66667 6.03125 3.72917 5.97917 3.8125 5.97917L4.5625 6C4.60417 6 4.63542 6.02083 4.66667 6.0625C4.69271 6.09375 4.69271 6.13542 4.66667 6.1875C4.51042 6.80208 4.20833 7.28646 3.75 7.64583C3.30208 8.01042 2.75 8.1875 2.08333 8.1875C1.42708 8.1875 0.916667 8.01042 0.541667 7.64583C0.177084 7.27083 0 6.78125 0 6.16667C0 6 0 5.875 0 5.79167L0.416667 2.39583C0.5 1.6875 0.781249 1.11458 1.27083 0.666667C1.77083 0.223959 2.38021 0 3.10417 0C3.75521 0 4.27083 0.1875 4.64583 0.5625C5.02083 0.927084 5.20833 1.41146 5.20833 2.02083C5.20833 2.10417 5.19792 2.22917 5.1875 2.39583L4.95833 4.35417ZM2.97917 0.979167C2.58854 0.979167 2.25521 1.11979 1.97917 1.39583C1.71354 1.67708 1.55208 2.03646 1.5 2.47917L1.35417 3.52083C1.35417 3.5625 1.375 3.58333 1.41667 3.58333H3.91667C3.95833 3.58333 3.97917 3.5625 3.97917 3.52083L4.125 2.47917C4.125 2.41146 4.125 2.32813 4.125 2.22917C4.125 1.85417 4.02083 1.55729 3.8125 1.33333C3.60417 1.09896 3.32292 0.979167 2.97917 0.979167Z" fill="#D72333"/>
</svg>
