<svg width="10" height="20" viewBox="0 0 10 20" fill="none" xmlns="http://www.w3.org/2000/svg">
<path d="M4.77083 19.7917C3.33854 19.7917 2.1875 19.3021 1.3125 18.3125C0.4375 17.3281 0 16.0208 0 14.3958V0.291667C0 0.0989587 0.0885413 0 0.270833 0H1.6875C1.88021 0 1.97917 0.0989587 1.97917 0.291667V14.625C1.97917 15.6406 2.22917 16.4688 2.72917 17.1042C3.23958 17.7448 3.92187 18.0625 4.77083 18.0625C5.63021 18.0625 6.31771 17.7448 6.83333 17.1042C7.35938 16.4688 7.625 15.6406 7.625 14.625V0.291667C7.625 0.0989587 7.71354 0 7.89583 0H9.3125C9.50521 0 9.60417 0.0989587 9.60417 0.291667V14.3958C9.60417 16.0208 9.15625 17.3281 8.27083 18.3125C7.38021 19.3021 6.21354 19.7917 4.77083 19.7917Z" fill="#D72333"/>
</svg>
