<svg width="5" height="8" viewBox="0 0 5 8" fill="none" xmlns="http://www.w3.org/2000/svg">
<path d="M1.08333 7.9375C0.984375 7.9375 0.9375 7.89063 0.9375 7.79167L0 0.166667V0.145833C0 0.052084 0.0416667 0 0.125 0H1.02083C1.10417 0 1.15104 0.052084 1.16667 0.145833L1.72917 6.08333C1.73958 6.11458 1.75521 6.125 1.77083 6.125C1.78125 6.125 1.79167 6.11458 1.79167 6.08333L3.8125 0.145833C3.85417 0.052084 3.91667 0 4 0L4.89583 0.0208333C4.9375 0.0208333 4.96354 0.0364587 4.97917 0.0625C5.00521 0.0937507 5.01042 0.135417 5 0.1875L2.1875 7.79167C2.15625 7.89063 2.09375 7.9375 2 7.9375H1.08333Z" fill="#D72333"/>
</svg>
