<svg width="5" height="9" viewBox="0 0 5 9" fill="none" xmlns="http://www.w3.org/2000/svg">
<path d="M2.875 0C3.51042 0 4.00521 0.223959 4.35417 0.666667C4.71354 1.11458 4.89583 1.72917 4.89583 2.52083V7.97917C4.89583 8.09375 4.84375 8.14583 4.75 8.14583H3.9375C3.82292 8.14583 3.77083 8.09375 3.77083 7.97917V2.625C3.77083 2.09896 3.65104 1.69792 3.41667 1.41667C3.19271 1.125 2.88021 0.979167 2.47917 0.979167C2.0625 0.979167 1.73437 1.14063 1.5 1.45833C1.26042 1.76563 1.14583 2.18229 1.14583 2.70833V7.97917C1.14583 8.09375 1.08854 8.14583 0.979167 8.14583H0.166667C0.0520827 8.14583 0 8.09375 0 7.97917V0.270833C0 0.161459 0.0520827 0.104167 0.166667 0.104167H0.979167C1.08854 0.104167 1.14583 0.161459 1.14583 0.270833V0.770833C1.14583 0.802084 1.15104 0.822916 1.16667 0.833333C1.19271 0.833333 1.20833 0.822916 1.20833 0.791667C1.40104 0.531249 1.64583 0.333333 1.9375 0.208333C2.22917 0.072916 2.54167 0 2.875 0Z" fill="#D72333"/>
</svg>
