<svg width="6" height="12" viewBox="0 0 6 12" fill="none" xmlns="http://www.w3.org/2000/svg">
<path d="M4.35417 0.291667C4.36458 0.182292 4.42188 0.125 4.52083 0.125H5.29167C5.38542 0.125 5.4375 0.182292 5.4375 0.291667L4.5 7.89583C4.35938 9.02083 4.00521 9.875 3.4375 10.4583C2.86458 11.0417 1.98958 11.3021 0.8125 11.25C0.697916 11.2188 0.656249 11.1667 0.6875 11.0833L0.770833 10.3958C0.781249 10.2969 0.838541 10.25 0.9375 10.25C1.73958 10.2604 2.33333 10.0677 2.70833 9.66667C3.08333 9.26042 3.32292 8.64583 3.4375 7.8125L3.5 7.33333C3.5 7.32292 3.48437 7.30729 3.45833 7.29167C3.44271 7.28125 3.42708 7.28646 3.41667 7.3125C3.20833 7.57813 2.95833 7.78125 2.66667 7.91667C2.38542 8.04167 2.09375 8.10417 1.79167 8.10417C1.21875 8.10417 0.776041 7.93229 0.458333 7.58333C0.151041 7.23958 0 6.77083 0 6.1875C0 6.07813 0.005208 5.91667 0.0208333 5.70833L0.416667 2.39583C0.510417 1.66146 0.770833 1.07813 1.1875 0.645833C1.61458 0.218751 2.15104 0 2.79167 0C3.09375 0 3.375 0.072916 3.625 0.208333C3.875 0.333333 4.06771 0.531249 4.20833 0.791667C4.23438 0.848959 4.26042 0.843751 4.29167 0.770833L4.35417 0.291667ZM2.22917 7.14583C2.60417 7.14583 2.92708 7.01042 3.20833 6.72917C3.48437 6.45313 3.64583 6.09375 3.6875 5.64583L4.08333 2.47917C4.09375 2.41146 4.10417 2.32813 4.10417 2.22917C4.10417 1.85417 4 1.55729 3.79167 1.33333C3.59375 1.09896 3.32292 0.979167 2.97917 0.979167C2.60417 0.979167 2.27604 1.11979 2 1.39583C1.71875 1.67708 1.55208 2.03646 1.5 2.47917L1.10417 5.64583C1.08854 5.70313 1.08333 5.78646 1.08333 5.89583C1.08333 6.26042 1.1875 6.55729 1.39583 6.79167C1.60417 7.03125 1.88021 7.14583 2.22917 7.14583Z" fill="#D72333"/>
</svg>
