<svg width="7" height="12" viewBox="0 0 7 12" fill="none" xmlns="http://www.w3.org/2000/svg">
<mask id="mask0_24_3474" style="mask-type:luminance" maskUnits="userSpaceOnUse" x="0" y="0" width="7" height="12">
<path d="M6.66667 0H0V12H6.66667V0Z" fill="white"/>
</mask>
<g mask="url(#mask0_24_3474)">
<mask id="mask1_24_3474" style="mask-type:luminance" maskUnits="userSpaceOnUse" x="0" y="1" width="6" height="9">
<path d="M0.427246 1.3335H5.3335V9.3335H0.427246V1.3335Z" fill="white"/>
</mask>
<g mask="url(#mask1_24_3474)">
<path d="M2.78141 9.02181C2.30745 9.02181 1.93245 8.8916 1.65641 8.62598C1.37516 8.34994 1.23975 7.98014 1.23975 7.52181V4.06348C1.23975 3.60514 1.37516 3.24577 1.65641 2.98014C1.93245 2.7041 2.30745 2.56348 2.78141 2.56348C3.23975 2.56348 3.60433 2.7041 3.88558 2.98014C4.16162 3.26139 4.30225 3.62598 4.30225 4.08431V4.45931C4.30225 4.53223 4.271 4.56348 4.21891 4.56348H3.76058C3.70329 4.56348 3.67725 4.53223 3.67725 4.45931V4.06348C3.67725 3.77181 3.59391 3.54264 3.42725 3.37598C3.26058 3.20931 3.04183 3.12598 2.78141 3.12598C2.51579 3.12598 2.30225 3.21973 2.13558 3.39681C1.96891 3.56348 1.88558 3.78744 1.88558 4.06348V7.52181C1.88558 7.80306 1.96891 8.03223 2.13558 8.20931C2.30225 8.3916 2.51579 8.48014 2.78141 8.48014C3.04183 8.48014 3.26058 8.39681 3.42725 8.23014C3.59391 8.05306 3.67725 7.81348 3.67725 7.52181V6.37598C3.67725 6.34994 3.66162 6.33431 3.63558 6.33431H2.86475C2.79183 6.33431 2.76058 6.30827 2.76058 6.25098V5.87598C2.76058 5.80827 2.79183 5.77181 2.86475 5.77181H4.21891C4.271 5.77181 4.30225 5.80827 4.30225 5.87598V7.52181C4.30225 7.98014 4.16162 8.34994 3.88558 8.62598C3.60433 8.8916 3.23975 9.02181 2.78141 9.02181Z" fill="#D72333"/>
</g>
</g>
</svg>
