<svg width="5" height="11" viewBox="0 0 5 11" fill="none" xmlns="http://www.w3.org/2000/svg">
<path d="M4.97917 0.8125C4.97917 0.927084 4.92188 0.979167 4.8125 0.979167H1.1875C1.14583 0.979167 1.125 1 1.125 1.04167V4.91667C1.125 4.95833 1.14583 4.97917 1.1875 4.97917H3.47917C3.57292 4.97917 3.625 5.03646 3.625 5.14583V5.8125C3.625 5.92708 3.57292 5.97917 3.47917 5.97917H1.1875C1.14583 5.97917 1.125 6 1.125 6.04167V9.9375C1.125 9.97917 1.14583 10 1.1875 10H4.8125C4.92188 10 4.97917 10.0573 4.97917 10.1667V10.8125C4.97917 10.9271 4.92188 10.9792 4.8125 10.9792H0.166667C0.0520827 10.9792 0 10.9271 0 10.8125V0.145833C0 0.052084 0.0520827 0 0.166667 0H4.8125C4.92188 0 4.97917 0.052084 4.97917 0.145833V0.8125Z" fill="#D72333"/>
</svg>
