<svg width="9" height="8" viewBox="0 0 9 8" fill="none" xmlns="http://www.w3.org/2000/svg">
<path d="M6.4375 3.83333C6.50521 3.64063 6.60938 3.5 6.75 3.41667C6.90104 3.33333 7.0625 3.29167 7.22917 3.29167C7.4375 3.29167 7.625 3.35417 7.79167 3.47917C7.96875 3.60417 8.0625 3.77083 8.0625 3.97917C8.0625 4.07813 8.04167 4.16667 8 4.25C7.71875 5.05729 7.33333 5.72396 6.83333 6.25C6.34375 6.76563 5.79167 7.14583 5.16667 7.39583C4.55208 7.64583 3.92187 7.77083 3.27083 7.77083C2.63021 7.77083 2.0625 7.66146 1.5625 7.4375C1.0625 7.21875 0.671875 6.90625 0.395833 6.5C0.130208 6.09896 0 5.64583 0 5.14583C0 4.85417 0.0520833 4.55208 0.166667 4.22917L0.916667 2C1.06771 1.53125 1.28125 1.15625 1.5625 0.875C1.85417 0.583333 2.17187 0.369792 2.52083 0.229167C2.86458 0.0781253 3.21354 0 3.5625 0C3.9375 0 4.29167 0.0781253 4.625 0.229167C4.95833 0.385417 5.21875 0.604167 5.41667 0.895833C5.625 1.1875 5.72917 1.54167 5.72917 1.95833C5.72917 2.11458 5.71354 2.27083 5.6875 2.4375C5.65625 2.60417 5.60938 2.77083 5.54167 2.9375C5.42708 3.24479 5.27604 3.46875 5.08333 3.60417C4.90104 3.72917 4.71354 3.79167 4.52083 3.79167C4.28125 3.79167 4.06771 3.71875 3.875 3.5625C3.69271 3.39583 3.60417 3.19792 3.60417 2.95833C3.60417 2.84896 3.64583 2.71875 3.72917 2.5625C3.82292 2.36979 3.875 2.20833 3.875 2.08333C3.875 1.97396 3.83854 1.88542 3.77083 1.8125C3.69792 1.74479 3.59375 1.70833 3.45833 1.70833C3.35937 1.70833 3.25 1.76042 3.125 1.85417C3.01042 1.9375 2.92708 2.05729 2.875 2.20833L2.0625 4.5C2.00521 4.66667 1.97917 4.82813 1.97917 4.97917C1.97917 5.3125 2.10937 5.59896 2.375 5.83333C2.65104 6.07292 3.02083 6.1875 3.47917 6.1875C3.8125 6.1875 4.16667 6.11458 4.54167 5.95833C4.91667 5.80729 5.27083 5.55729 5.60417 5.20833C5.9375 4.86458 6.21354 4.40625 6.4375 3.83333Z" fill="#D72333"/>
</svg>
