<svg width="40" height="37" viewBox="0 0 40 37" fill="none" xmlns="http://www.w3.org/2000/svg">
<path d="M9.375 7.89583C8.79167 8.51042 8.15104 8.8125 7.45833 8.8125C6.77604 8.8125 6.17188 8.52083 5.64583 7.9375C5.11458 7.35417 4.85417 6.70313 4.85417 5.97917C4.85417 5.38542 5.0625 4.82813 5.47917 4.3125C6.67188 2.91146 7.94792 1.92708 9.3125 1.35417C10.6719 0.786459 12.1979 0.5 13.8958 0.5C15.7708 0.5 17.3802 0.864584 18.7292 1.58333C20.0729 2.29167 21.2708 3.14063 22.3125 4.125C23.4479 2.55729 24.7292 1.47917 26.1458 0.895833C27.5729 0.302083 29.0312 0 30.5208 0C31.6562 0 32.7292 0.286459 33.7292 0.854167C34.7396 1.42708 35.5625 2.23958 36.1875 3.29167C36.8229 4.34896 37.1458 5.61979 37.1458 7.10417C37.1458 8.57813 36.7917 9.95313 36.0833 11.2292C35.3854 12.4948 34.4635 13.5104 33.3125 14.2708C32.1719 15.0208 30.9375 15.3958 29.6042 15.3958C28.6875 15.4531 27.8333 15.2865 27.0417 14.8958C26.2604 14.5104 25.5521 14.0781 24.9167 13.6042L20.875 25.5208C21.5417 26.1458 22.1719 26.75 22.7708 27.3333C23.3802 27.9167 24.0312 28.3958 24.7292 28.7708C25.4375 29.1354 26.2396 29.3125 27.1458 29.3125C28.5729 29.3125 29.901 28.9063 31.125 28.0833C32.3594 27.2656 33.4167 25.7292 34.2917 23.4792C34.526 22.8542 34.875 22.3958 35.3333 22.1042C35.8021 21.8125 36.2917 21.6667 36.7917 21.6667C37.401 21.6667 37.9583 21.8646 38.4583 22.25C38.9583 22.625 39.2083 23.1354 39.2083 23.7708C39.2083 23.9792 39.1719 24.2031 39.1042 24.4375C37.9062 28.0104 36.1927 30.6563 33.9583 32.375C31.7188 34.099 29.2552 34.9583 26.5625 34.9583C24.6979 34.9583 23.0938 34.6198 21.75 33.9375C20.401 33.2448 19.2135 32.4062 18.1875 31.4167C17.0469 32.9583 15.6667 34.1146 14.0417 34.875C12.4271 35.6354 10.7292 36.0208 8.9375 36.0208C7.33854 36.0208 5.85938 35.7188 4.5 35.125C3.13542 34.5417 2.04687 33.6979 1.22917 32.5833C0.411458 31.474 0 30.1615 0 28.6458C0 28.3542 0.0156253 28.0521 0.0416667 27.7292C0.072916 27.4115 0.125 27.0833 0.208333 26.75C0.567708 25.1823 1.23437 23.9167 2.20833 22.9583C3.19271 21.9896 4.33854 21.2708 5.64583 20.8125C6.96354 20.3542 8.27083 20.125 9.5625 20.125C10.7292 20.125 11.8125 20.3021 12.8125 20.6458C13.8229 20.9792 14.7292 21.3958 15.5208 21.8958L19.8958 9.4375C18.9375 8.49479 17.9375 7.67708 16.8958 6.97917C15.8646 6.28646 14.6771 5.9375 13.3333 5.9375C12.625 5.9375 11.9375 6.11458 11.2708 6.45833C10.6146 6.80729 9.98438 7.28646 9.375 7.89583ZM29.9583 5.83333C29.4583 5.83333 28.9635 6.02083 28.4792 6.39583C27.9896 6.76042 27.5625 7.33333 27.1875 8.125C27.4219 8.44792 27.7344 8.76563 28.125 9.08333C28.526 9.40625 29.0208 9.5625 29.6042 9.5625C30.1562 9.5625 30.6354 9.39063 31.0417 9.04167C31.4583 8.69792 31.6667 8.21875 31.6667 7.60417C31.6667 7.01042 31.5104 6.5625 31.2083 6.27083C30.9167 5.97917 30.5 5.83333 29.9583 5.83333ZM8.77083 31C9.69792 31 10.6042 30.6615 11.4792 29.9792C12.3646 29.3021 13.1302 28.2604 13.7708 26.8542C13.1875 26.3281 12.5885 25.9115 11.9792 25.6042C11.3802 25.2865 10.7188 25.125 10 25.125C9.09375 25.125 8.3125 25.375 7.64583 25.875C6.98958 26.375 6.5625 26.9948 6.35417 27.7292C6.32292 27.8698 6.30208 28.0156 6.29167 28.1667C6.27604 28.3073 6.27083 28.4375 6.27083 28.5625C6.27083 29.2292 6.48438 29.8073 6.91667 30.2917C7.35938 30.7656 7.97917 31 8.77083 31Z" fill="#D72333"/>
</svg>
