<svg width="6" height="11" viewBox="0 0 6 11" fill="none" xmlns="http://www.w3.org/2000/svg">
<path d="M2.91667 10.4792C2.02604 10.4792 1.31771 10.2292 0.791667 9.72917C0.260416 9.21875 0 8.54167 0 7.70833V2.77083C0 1.92708 0.260416 1.25 0.791667 0.75C1.31771 0.25 2.02604 0 2.91667 0C3.79167 0 4.48958 0.260417 5.02083 0.770833C5.5625 1.27083 5.83333 1.9375 5.83333 2.77083V3.33333C5.83333 3.39063 5.8125 3.43229 5.77083 3.45833C5.73958 3.48958 5.70833 3.5 5.66667 3.5H3.9375C3.89583 3.5 3.85417 3.48958 3.8125 3.45833C3.78125 3.43229 3.77083 3.39063 3.77083 3.33333V2.75C3.77083 2.45833 3.69271 2.22396 3.54167 2.04167C3.38542 1.86458 3.17708 1.77083 2.91667 1.77083C2.65104 1.77083 2.44271 1.86458 2.29167 2.04167C2.13542 2.22396 2.0625 2.45833 2.0625 2.75V7.72917C2.0625 8.02083 2.13542 8.26042 2.29167 8.4375C2.44271 8.61979 2.65104 8.70833 2.91667 8.70833C3.17708 8.70833 3.38542 8.61979 3.54167 8.4375C3.69271 8.26042 3.77083 8.02083 3.77083 7.72917V6.54167C3.77083 6.5 3.73958 6.47917 3.6875 6.47917H3.0625C3.00521 6.47917 2.95833 6.46875 2.91667 6.4375C2.88542 6.39583 2.875 6.35417 2.875 6.3125V5C2.875 4.95833 2.88542 4.92708 2.91667 4.89583C2.95833 4.85417 3.00521 4.83333 3.0625 4.83333H5.66667C5.70833 4.83333 5.73958 4.85417 5.77083 4.89583C5.8125 4.92708 5.83333 4.95833 5.83333 5V7.70833C5.83333 8.54167 5.5625 9.21875 5.02083 9.72917C4.48958 10.2292 3.79167 10.4792 2.91667 10.4792Z" fill="#D72333"/>
</svg>
