<svg width="6" height="8" viewBox="0 0 6 8" fill="none" xmlns="http://www.w3.org/2000/svg">
<path d="M4.1875 0.270833C4.21354 0.177083 4.27083 0.125 4.35417 0.125H5.08333C5.17708 0.125 5.22917 0.177083 5.22917 0.270833L4.33333 7.5625C4.30208 7.66146 4.25 7.70833 4.16667 7.70833H3.4375C3.38021 7.70833 3.33854 7.69792 3.3125 7.66667C3.28125 7.64063 3.27604 7.60417 3.29167 7.5625L3.375 7C3.375 6.97396 3.35937 6.95833 3.33333 6.95833C3.31771 6.94792 3.30208 6.95313 3.29167 6.97917C3.09375 7.27083 2.85937 7.48958 2.58333 7.625C2.31771 7.76042 2.02604 7.83333 1.70833 7.83333C1.16667 7.83333 0.739584 7.66667 0.4375 7.33333C0.145833 7 0 6.54167 0 5.95833C0 5.875 0.010416 5.73958 0.0416667 5.54167L0.4375 2.29167C0.520833 1.59896 0.760416 1.04167 1.16667 0.625C1.56771 0.208333 2.07292 0 2.6875 0C2.98958 0 3.26042 0.0729173 3.5 0.208333C3.73437 0.348959 3.91667 0.557292 4.04167 0.833333C4.05208 0.864584 4.06771 0.875 4.08333 0.875C4.10938 0.875 4.125 0.864584 4.125 0.833333L4.1875 0.270833ZM2.14583 6.89583C2.52083 6.89583 2.83333 6.76563 3.08333 6.5C3.34375 6.23958 3.5 5.89063 3.54167 5.45833L3.9375 2.375C3.94792 2.30729 3.95833 2.22396 3.95833 2.125C3.95833 1.76563 3.85937 1.47917 3.66667 1.27083C3.46875 1.05208 3.21354 0.9375 2.89583 0.9375C2.52083 0.9375 2.19792 1.07292 1.9375 1.33333C1.67187 1.59896 1.51042 1.94792 1.45833 2.375L1.08333 5.45833C1.06771 5.51563 1.0625 5.59896 1.0625 5.70833C1.0625 6.05729 1.15625 6.34375 1.35417 6.5625C1.5625 6.78646 1.82292 6.89583 2.14583 6.89583Z" fill="#D51224"/>
</svg>
