<svg width="7" height="12" viewBox="0 0 7 12" fill="none" xmlns="http://www.w3.org/2000/svg">
<path d="M6.0625 6.83333C6.10417 7.08333 6.125 7.39583 6.125 7.77083C6.125 8.01042 6.10938 8.32813 6.08333 8.72917C6.05208 9.5625 5.77083 10.2083 5.22917 10.6667C4.6875 11.125 3.96354 11.3542 3.0625 11.3542C2.21354 11.3542 1.52604 11.1458 1 10.7292C0.484375 10.3021 0.177083 9.66667 0.0833333 8.83333C0.0416667 8.61458 0.0208333 8.32292 0.0208333 7.95833L0 2.83333C0 1.95833 0.276041 1.27083 0.833333 0.770833C1.38542 0.260417 2.125 0 3.04167 0C3.90104 0 4.60417 0.260417 5.14583 0.770833C5.6875 1.28646 5.95833 1.97396 5.95833 2.83333V3.3125C5.95833 3.36979 5.9375 3.41667 5.89583 3.45833C5.86458 3.48958 5.82292 3.5 5.77083 3.5H3.91667C3.85937 3.5 3.8125 3.48958 3.77083 3.45833C3.73958 3.41667 3.72917 3.36979 3.72917 3.3125V2.95833C3.72917 2.66667 3.65625 2.43229 3.52083 2.25C3.38021 2.05729 3.21875 1.95833 3.04167 1.95833C2.80208 1.95833 2.60937 2.05729 2.45833 2.25C2.31771 2.43229 2.25 2.66667 2.25 2.95833V4.5625C2.25 4.59375 2.25521 4.61458 2.27083 4.625C2.29687 4.625 2.31771 4.61458 2.33333 4.58333C2.69271 4.29167 3.09375 4.14583 3.54167 4.14583C4.27604 4.14583 4.86458 4.39063 5.3125 4.875C5.77083 5.36458 6.02083 6.01563 6.0625 6.83333ZM3.8125 8.54167C3.83854 8.04167 3.85417 7.72917 3.85417 7.60417C3.85417 7.32813 3.83333 7 3.79167 6.625C3.75 6.375 3.66667 6.1875 3.54167 6.0625C3.41667 5.92708 3.25521 5.85417 3.0625 5.85417C2.83854 5.85417 2.65625 5.92708 2.52083 6.0625C2.39583 6.20313 2.31771 6.40625 2.29167 6.66667C2.26042 7.07292 2.25 7.38542 2.25 7.60417C2.25 7.86979 2.26042 8.20313 2.29167 8.60417C2.31771 8.86979 2.39583 9.07813 2.52083 9.22917C2.65625 9.38542 2.83854 9.45833 3.0625 9.45833C3.27083 9.45833 3.4375 9.38542 3.5625 9.22917C3.69792 9.0625 3.78125 8.83333 3.8125 8.54167Z" fill="#D72333"/>
</svg>
