<svg width="5" height="8" viewBox="0 0 5 8" fill="none" xmlns="http://www.w3.org/2000/svg">
<path d="M4.77083 4.25C4.77083 4.34896 4.71875 4.39583 4.625 4.39583H1.14583C1.10417 4.39583 1.08333 4.41667 1.08333 4.45833V5.58333C1.08333 6 1.19792 6.34896 1.4375 6.625C1.67187 6.89063 1.98437 7.02083 2.375 7.02083C2.70833 7.02083 2.98437 6.92708 3.20833 6.72917C3.44271 6.53646 3.59375 6.28125 3.66667 5.95833C3.69271 5.86458 3.75 5.8125 3.83333 5.8125L4.60417 5.85417C4.64583 5.85417 4.67708 5.86979 4.70833 5.89583C4.73438 5.92708 4.73958 5.96875 4.72917 6.02083C4.64583 6.61979 4.39583 7.09896 3.97917 7.45833C3.57292 7.80729 3.04167 7.97917 2.375 7.97917C1.65104 7.97917 1.07292 7.76563 0.645833 7.33333C0.213541 6.90625 0 6.34375 0 5.64583V2.33333C0 1.64063 0.213541 1.07813 0.645833 0.645833C1.07292 0.218751 1.65104 0 2.375 0C3.10937 0 3.69271 0.218751 4.125 0.645833C4.55208 1.07813 4.77083 1.64063 4.77083 2.33333V4.25ZM2.375 0.9375C1.98437 0.9375 1.67187 1.07813 1.4375 1.35417C1.19792 1.61979 1.08333 1.97396 1.08333 2.41667V3.4375C1.08333 3.47917 1.10417 3.5 1.14583 3.5H3.64583C3.6875 3.5 3.70833 3.47917 3.70833 3.4375V2.41667C3.70833 1.97396 3.58333 1.61979 3.33333 1.35417C3.09375 1.07813 2.77604 0.9375 2.375 0.9375Z" fill="#D72333"/>
</svg>
