<svg width="167" height="36" viewBox="0 0 167 36" fill="none" xmlns="http://www.w3.org/2000/svg">
<mask id="mask0_24_6946" style="mask-type:luminance" maskUnits="userSpaceOnUse" x="0" y="0" width="167" height="36">
<path d="M166.667 0H0V36H166.667V0Z" fill="white"/>
</mask>
<g mask="url(#mask0_24_6946)">
<path d="M12.3203 12.1911C12.3203 12.29 12.2839 12.3734 12.2161 12.4411C12.1432 12.4984 12.0703 12.5244 11.987 12.5244H5.79948C5.70052 12.5244 5.65365 12.5765 5.65365 12.6702V18.1077C5.65365 18.2067 5.70052 18.2536 5.79948 18.2536H9.44531C9.53906 18.2536 9.6224 18.29 9.69531 18.3577C9.76302 18.4307 9.79948 18.514 9.79948 18.6077V20.8161C9.79948 20.915 9.76302 20.9984 9.69531 21.0661C9.6224 21.139 9.53906 21.1702 9.44531 21.1702H5.79948C5.70052 21.1702 5.65365 21.2223 5.65365 21.3161V29.4411C5.65365 29.54 5.61719 29.6234 5.54948 29.6911C5.47656 29.764 5.39323 29.7952 5.29948 29.7952H2.65365C2.55469 29.7952 2.47135 29.764 2.40365 29.6911C2.34635 29.6234 2.32031 29.54 2.32031 29.4411V10.0036C2.32031 9.90983 2.34635 9.8265 2.40365 9.75358C2.47135 9.68587 2.55469 9.64941 2.65365 9.64941H11.987C12.0703 9.64941 12.1432 9.68587 12.2161 9.75358C12.2839 9.8265 12.3203 9.90983 12.3203 10.0036V12.1911Z" fill="#D72333"/>
<path d="M27.2205 29.7952C27.0226 29.7952 26.8976 29.7015 26.8455 29.5036L24.408 21.2536C24.3664 21.1702 24.3143 21.1286 24.2622 21.1286H22.7414C22.6424 21.1286 22.5955 21.1807 22.5955 21.2744V29.4411C22.5955 29.54 22.5591 29.6234 22.4914 29.6911C22.4185 29.764 22.3351 29.7952 22.2414 29.7952H19.5955C19.4966 29.7952 19.4132 29.764 19.3455 29.6911C19.2882 29.6234 19.2622 29.54 19.2622 29.4411V10.0036C19.2622 9.90983 19.2882 9.8265 19.3455 9.75358C19.4132 9.68587 19.4966 9.64941 19.5955 9.64941H25.0122C26.0226 9.64941 26.9185 9.89941 27.6997 10.3994C28.4757 10.889 29.0799 11.5765 29.5122 12.4619C29.9393 13.3525 30.158 14.3734 30.158 15.5244C30.158 16.7223 29.9289 17.7484 29.4705 18.6077C29.0122 19.4723 28.3664 20.1234 27.533 20.5661C27.4601 20.5817 27.4341 20.639 27.4497 20.7327L30.2622 29.3994C30.2882 29.4307 30.3039 29.4775 30.3039 29.5452C30.3039 29.7119 30.1997 29.7952 29.9914 29.7952H27.2205ZM22.7414 12.5244C22.6424 12.5244 22.5955 12.5765 22.5955 12.6702V18.3994C22.5955 18.4984 22.6424 18.5452 22.7414 18.5452H24.4914C25.1841 18.5452 25.7466 18.2848 26.1789 17.7536C26.606 17.2119 26.8247 16.4775 26.8247 15.5452C26.8247 14.6286 26.606 13.8994 26.1789 13.3577C25.7466 12.8057 25.1841 12.5244 24.4914 12.5244H22.7414Z" fill="#D72333"/>
<path d="M42.8394 30.0243C41.1831 30.0243 39.8654 29.4982 38.881 28.4409C37.8914 27.3732 37.4019 25.9618 37.4019 24.2118V10.0034C37.4019 9.90967 37.4331 9.82634 37.506 9.75342C37.5737 9.68571 37.6571 9.64925 37.756 9.64925H40.4019C40.4956 9.64925 40.5737 9.68571 40.631 9.75342C40.6987 9.82634 40.7352 9.90967 40.7352 10.0034V24.5659C40.7352 25.3315 40.9227 25.9565 41.2977 26.4409C41.6831 26.9149 42.1987 27.1493 42.8394 27.1493C43.4748 27.1493 43.9852 26.9149 44.3602 26.4409C44.7456 25.9565 44.9435 25.3315 44.9435 24.5659V10.0034C44.9435 9.90967 44.9748 9.82634 45.0477 9.75342C45.1154 9.68571 45.1935 9.64925 45.2769 9.64925H47.9227C48.0164 9.64925 48.0998 9.68571 48.1727 9.75342C48.2404 9.82634 48.2769 9.90967 48.2769 10.0034V24.2118C48.2769 25.9618 47.7769 27.3732 46.7769 28.4409C45.7769 29.4982 44.4644 30.0243 42.8394 30.0243ZM45.3185 7.64925C44.7196 7.64925 44.2248 7.45654 43.8394 7.06592C43.4644 6.6805 43.2769 6.19092 43.2769 5.60758C43.2769 5.01383 43.4644 4.52425 43.8394 4.14925C44.2248 3.76383 44.7196 3.56592 45.3185 3.56592C45.9019 3.56592 46.381 3.76383 46.756 4.14925C47.131 4.52425 47.3185 5.01383 47.3185 5.60758C47.3185 6.19092 47.1206 6.6805 46.7352 7.06592C46.3602 7.45654 45.8862 7.64925 45.3185 7.64925ZM40.3602 7.64925C39.7612 7.64925 39.2664 7.45654 38.881 7.06592C38.506 6.6805 38.3185 6.19092 38.3185 5.60758C38.3185 5.01383 38.506 4.52425 38.881 4.14925C39.2664 3.76383 39.7612 3.56592 40.3602 3.56592C40.9435 3.56592 41.4227 3.76383 41.7977 4.14925C42.1727 4.52425 42.3602 5.01383 42.3602 5.60758C42.3602 6.19092 42.1623 6.6805 41.7769 7.06592C41.4019 7.45654 40.9279 7.64925 40.3602 7.64925Z" fill="#D72333"/>
<path d="M63.5516 10.0036C63.5516 9.90983 63.5828 9.8265 63.6558 9.75358C63.7235 9.68587 63.8068 9.64941 63.9058 9.64941H66.5516C66.6349 9.64941 66.7078 9.68587 66.7808 9.75358C66.8485 9.8265 66.8849 9.90983 66.8849 10.0036V29.4411C66.8849 29.54 66.8485 29.6234 66.7808 29.6911C66.7078 29.764 66.6349 29.7952 66.5516 29.7952H63.9058C63.8068 29.7952 63.7235 29.764 63.6558 29.6911C63.5828 29.6234 63.5516 29.54 63.5516 29.4411V21.3161C63.5516 21.2223 63.4995 21.1702 63.4058 21.1702H59.7599C59.661 21.1702 59.6141 21.2223 59.6141 21.3161V29.4411C59.6141 29.54 59.5776 29.6234 59.5099 29.6911C59.437 29.764 59.3537 29.7952 59.2599 29.7952H56.6141C56.5151 29.7952 56.4318 29.764 56.3641 29.6911C56.3068 29.6234 56.2808 29.54 56.2808 29.4411V10.0036C56.2808 9.90983 56.3068 9.8265 56.3641 9.75358C56.4318 9.68587 56.5151 9.64941 56.6141 9.64941H59.2599C59.3537 9.64941 59.437 9.68587 59.5099 9.75358C59.5776 9.8265 59.6141 9.90983 59.6141 10.0036V18.1077C59.6141 18.2067 59.661 18.2536 59.7599 18.2536H63.4058C63.4995 18.2536 63.5516 18.2067 63.5516 18.1077V10.0036Z" fill="#D72333"/>
<path d="M79.7349 30.0241C78.1515 30.0241 76.8651 29.5449 75.8807 28.5866C74.9067 27.6283 74.4224 26.373 74.4224 24.8158V24.0658C74.4224 23.972 74.4536 23.8939 74.5265 23.8366C74.5942 23.7689 74.6776 23.7324 74.7765 23.7324H77.3807C77.4744 23.7324 77.5578 23.7689 77.6307 23.8366C77.6984 23.8939 77.7349 23.972 77.7349 24.0658V24.6491C77.7349 25.3991 77.9224 26.0033 78.2974 26.4616C78.6724 26.9199 79.1515 27.1491 79.7349 27.1491C80.3286 27.1491 80.8182 26.9355 81.1932 26.5033C81.5786 26.0762 81.7765 25.5033 81.7765 24.7949C81.7765 24.2949 81.6724 23.8678 81.464 23.5033C81.2557 23.1283 80.9536 22.7845 80.5682 22.4616C80.1932 22.1283 79.5786 21.6595 78.7349 21.0449C77.7765 20.3522 77.0057 19.7428 76.4224 19.2116C75.839 18.6699 75.3442 18.0241 74.9432 17.2741C74.5526 16.5137 74.3599 15.6283 74.3599 14.6283C74.3599 13.0449 74.839 11.7845 75.7974 10.8366C76.7557 9.89388 78.0265 9.41992 79.6099 9.41992C81.1932 9.41992 82.4692 9.91471 83.4432 10.8991C84.4276 11.8887 84.9224 13.2012 84.9224 14.8366V15.5241C84.9224 15.623 84.8859 15.7064 84.8182 15.7741C84.7453 15.847 84.6619 15.8783 84.5682 15.8783H81.9849C81.8859 15.8783 81.8026 15.847 81.7349 15.7741C81.6776 15.7064 81.6515 15.623 81.6515 15.5241V14.7741C81.6515 14.0241 81.464 13.4303 81.089 12.9824C80.714 12.5241 80.2192 12.2949 79.6099 12.2949C79.0265 12.2949 78.5526 12.5033 78.1932 12.9199C77.8286 13.3366 77.6515 13.9095 77.6515 14.6283C77.6515 15.3262 77.8442 15.9147 78.2349 16.3991C78.6203 16.873 79.3911 17.5345 80.5474 18.3783C81.714 19.2428 82.5942 19.9512 83.1932 20.5033C83.7869 21.0449 84.2453 21.6439 84.5682 22.2949C84.9015 22.9512 85.0682 23.722 85.0682 24.6074C85.0682 26.248 84.5734 27.5605 83.589 28.5449C82.6151 29.5345 81.3286 30.0241 79.7349 30.0241Z" fill="#D72333"/>
<path d="M102.806 9.64941C102.9 9.64941 102.983 9.68587 103.056 9.75358C103.124 9.8265 103.16 9.90983 103.16 10.0036V12.1911C103.16 12.29 103.124 12.3734 103.056 12.4411C102.983 12.4984 102.9 12.5244 102.806 12.5244H99.1603C99.0614 12.5244 99.0145 12.5765 99.0145 12.6702V29.4411C99.0145 29.54 98.978 29.6234 98.9103 29.6911C98.8374 29.764 98.7541 29.7952 98.6603 29.7952H96.0145C95.9312 29.7952 95.853 29.764 95.7853 29.6911C95.7124 29.6234 95.6812 29.54 95.6812 29.4411V12.6702C95.6812 12.5765 95.6291 12.5244 95.5353 12.5244H92.077C91.978 12.5244 91.8947 12.4984 91.827 12.4411C91.7697 12.3734 91.7437 12.29 91.7437 12.1911V10.0036C91.7437 9.90983 91.7697 9.8265 91.827 9.75358C91.8947 9.68587 91.978 9.64941 92.077 9.64941H102.806Z" fill="#D72333"/>
<path d="M115.812 30.0243C114.156 30.0243 112.839 29.4982 111.854 28.4409C110.865 27.3732 110.375 25.9618 110.375 24.2118V10.0034C110.375 9.90967 110.406 9.82634 110.479 9.75342C110.547 9.68571 110.63 9.64925 110.729 9.64925H113.375C113.469 9.64925 113.547 9.68571 113.604 9.75342C113.672 9.82634 113.708 9.90967 113.708 10.0034V24.5659C113.708 25.3315 113.896 25.9565 114.271 26.4409C114.656 26.9149 115.172 27.1493 115.812 27.1493C116.448 27.1493 116.958 26.9149 117.333 26.4409C117.719 25.9565 117.917 25.3315 117.917 24.5659V10.0034C117.917 9.90967 117.948 9.82634 118.021 9.75342C118.089 9.68571 118.167 9.64925 118.25 9.64925H120.896C120.99 9.64925 121.073 9.68571 121.146 9.75342C121.214 9.82634 121.25 9.90967 121.25 10.0034V24.2118C121.25 25.9618 120.75 27.3732 119.75 28.4409C118.75 29.4982 117.438 30.0243 115.812 30.0243ZM118.292 7.64925C117.693 7.64925 117.198 7.45654 116.812 7.06592C116.438 6.6805 116.25 6.19092 116.25 5.60758C116.25 5.01383 116.438 4.52425 116.812 4.14925C117.198 3.76383 117.693 3.56592 118.292 3.56592C118.875 3.56592 119.354 3.76383 119.729 4.14925C120.104 4.52425 120.292 5.01383 120.292 5.60758C120.292 6.19092 120.094 6.6805 119.708 7.06592C119.333 7.45654 118.859 7.64925 118.292 7.64925ZM113.333 7.64925C112.734 7.64925 112.24 7.45654 111.854 7.06592C111.479 6.6805 111.292 6.19092 111.292 5.60758C111.292 5.01383 111.479 4.52425 111.854 4.14925C112.24 3.76383 112.734 3.56592 113.333 3.56592C113.917 3.56592 114.396 3.76383 114.771 4.14925C115.146 4.52425 115.333 5.01383 115.333 5.60758C115.333 6.19092 115.135 6.6805 114.75 7.06592C114.375 7.45654 113.901 7.64925 113.333 7.64925Z" fill="#D72333"/>
<path d="M134.316 30.0241C132.675 30.0241 131.363 29.5345 130.379 28.5449C129.389 27.5605 128.899 26.248 128.899 24.6074V14.8158C128.899 13.1647 129.389 11.8522 130.379 10.8783C131.363 9.90951 132.675 9.41992 134.316 9.41992C135.951 9.41992 137.274 9.90951 138.274 10.8783C139.274 11.8522 139.774 13.1647 139.774 14.8158V15.1491C139.774 15.248 139.738 15.3366 139.67 15.4199C139.597 15.4928 139.514 15.5241 139.42 15.5241L136.754 15.6491C136.514 15.6491 136.399 15.5345 136.399 15.2949V14.5658C136.399 13.8991 136.201 13.3574 135.816 12.9408C135.441 12.5137 134.941 12.2949 134.316 12.2949C133.691 12.2949 133.181 12.5137 132.795 12.9408C132.42 13.3574 132.233 13.8991 132.233 14.5658V24.8783C132.233 25.5449 132.42 26.097 132.795 26.5241C133.181 26.9408 133.691 27.1491 134.316 27.1491C134.941 27.1491 135.441 26.9408 135.816 26.5241C136.201 26.097 136.399 25.5449 136.399 24.8783V24.1491C136.399 24.0553 136.431 23.9772 136.504 23.9199C136.571 23.8522 136.655 23.8158 136.754 23.8158L139.42 23.9199C139.514 23.9199 139.597 23.9564 139.67 24.0241C139.738 24.097 139.774 24.1803 139.774 24.2741V24.6074C139.774 26.248 139.274 27.5605 138.274 28.5449C137.274 29.5345 135.951 30.0241 134.316 30.0241Z" fill="#D72333"/>
<path d="M147.737 29.7952C147.638 29.7952 147.554 29.764 147.487 29.6911C147.429 29.6234 147.403 29.54 147.403 29.4411V10.0036C147.403 9.90983 147.429 9.8265 147.487 9.75358C147.554 9.68587 147.638 9.64941 147.737 9.64941H150.382C150.476 9.64941 150.56 9.68587 150.632 9.75358C150.7 9.8265 150.737 9.90983 150.737 10.0036V17.9411C150.737 18.0244 150.747 18.0765 150.778 18.0869C150.82 18.0869 150.862 18.0609 150.903 18.0036L155.216 9.92025C155.31 9.74316 155.455 9.64941 155.653 9.64941H158.507C158.632 9.64941 158.716 9.69108 158.757 9.77441C158.799 9.84733 158.789 9.94108 158.737 10.0661L154.424 18.1494C154.393 18.2223 154.382 18.2744 154.382 18.3161L159.049 29.3994C159.06 29.4307 159.07 29.4827 159.07 29.5661C159.07 29.7223 158.971 29.7952 158.778 29.7952H155.945C155.737 29.7952 155.596 29.7119 155.528 29.5452L152.132 21.2119C152.117 21.1598 152.091 21.139 152.049 21.1494C152.018 21.165 151.987 21.1859 151.945 21.2119L150.799 23.1494C150.757 23.2327 150.737 23.29 150.737 23.3161V29.4411C150.737 29.54 150.7 29.6234 150.632 29.6911C150.56 29.764 150.476 29.7952 150.382 29.7952H147.737Z" fill="#D72333"/>
</g>
</svg>
