<svg width="17" height="25" viewBox="0 0 17 25" fill="none" xmlns="http://www.w3.org/2000/svg">
<path d="M0.023438 24.2917C0.0494793 23.9896 0.117187 23.7031 0.231771 23.4375C0.356771 23.1771 0.471355 22.9115 0.585938 22.6458C0.710938 22.3698 0.742187 22.0833 0.690105 21.7917L1.2526 20.8958L1.16927 20.3542L1.5026 20.125L1.48177 19.5208L1.89844 19.0208C1.89844 18.8021 1.94531 18.5938 2.04427 18.3958C2.13802 18.2031 2.21094 17.9948 2.2526 17.7708C2.30469 17.4792 2.35677 17.2604 2.39844 17.1042C2.45052 16.9531 2.57031 16.7656 2.7526 16.5417L2.52344 16.1875C3.11719 15.4375 3.48177 14.6146 3.60677 13.7083C3.63281 13.5312 3.66927 13.3958 3.71094 13.3125C3.76302 13.2188 3.83594 13.099 3.91927 12.9583C4.05469 12.75 4.1276 12.5417 4.1276 12.3333C4.1276 12.125 4.11198 11.9062 4.08594 11.6667C4.32031 11.2656 4.51302 10.849 4.66927 10.4167C4.83594 9.98958 5.02344 9.5625 5.23177 9.14583C5.34115 8.95313 5.44531 8.76042 5.54427 8.5625C5.65365 8.36979 5.74219 8.16667 5.8151 7.95833C5.85677 7.82292 5.8776 7.67708 5.8776 7.52083C5.88802 7.35417 5.90365 7.20313 5.91927 7.0625C5.96094 6.78646 6.07552 6.58333 6.27344 6.45833C6.49219 6.26563 6.76302 6.21875 7.08594 6.3125C7.32031 6.39583 7.51302 6.47917 7.66927 6.5625C7.96094 6.47917 8.23698 6.44792 8.50261 6.45833C8.77865 6.45833 9.05469 6.45833 9.33594 6.45833C9.52865 6.44792 9.70052 6.49479 9.85677 6.60417C10.0078 6.71875 10.0964 6.86979 10.1276 7.0625C10.2214 7.47917 10.3672 7.89583 10.5651 8.3125C10.7734 8.72917 10.9714 9.10417 11.1693 9.4375C11.0443 9.72917 11.0547 10.0104 11.2109 10.2708C11.362 10.5365 11.5026 10.7708 11.6276 10.9792C11.8047 11.3125 11.9193 11.6562 11.9609 12C12.013 12.349 12.1068 12.6979 12.2318 13.0417C12.3255 13.3646 12.4818 13.6667 12.6901 13.9583C12.8984 14.25 13.0234 14.5625 13.0651 14.8958C13.1068 15.2188 13.1901 15.5104 13.3151 15.7708C13.4401 16.0365 13.5443 16.3125 13.6276 16.6042C13.737 16.9531 13.862 17.2812 14.0026 17.5833C14.1536 17.875 14.263 18.1875 14.3359 18.5208C14.4297 18.8542 14.5026 19.1875 14.5443 19.5208C14.5859 19.8438 14.6745 20.1667 14.8151 20.5C14.9818 20.8333 15.1276 21.1615 15.2526 21.4792C15.388 21.8021 15.5026 22.1354 15.5859 22.4792C15.6536 22.7708 15.7318 23.0729 15.8151 23.375C15.9089 23.6667 16.0339 23.9479 16.1901 24.2083C16.3151 24.3906 16.2839 24.5521 16.1068 24.6875L16.0026 24.7917C15.8776 24.9167 15.737 24.9271 15.5859 24.8333C15.513 24.8073 15.4401 24.8073 15.3568 24.8333C15.0651 24.9167 14.763 24.9427 14.4609 24.9167C14.1536 24.901 13.8464 24.9167 13.5443 24.9583C13.3203 24.9844 13.0755 25 12.8151 25C12.5495 25 12.3203 24.901 12.1276 24.7083L11.5651 24.9167C11.2839 24.6667 11.0859 24.375 10.9609 24.0417C10.8359 23.6979 10.7005 23.349 10.5651 23C10.4245 22.5833 10.2734 22.1771 10.1068 21.7708C9.95052 21.3542 9.84115 20.9271 9.77344 20.4792L9.08594 20.0208C8.71094 20.1458 8.32031 20.1771 7.91927 20.1042C7.52865 20.0208 7.13281 19.9948 6.73177 20.0208C6.34115 20.0781 5.95052 20.1042 5.5651 20.1042C5.1901 20.1042 4.80469 20.0573 4.41927 19.9583C4.22136 20.2396 4.07031 20.4792 3.96094 20.6875C3.86198 20.8854 3.77344 21.1458 3.6901 21.4792C3.59115 21.8125 3.46615 22.1406 3.3151 22.4583C3.17448 22.7656 3.04948 23.0781 2.9401 23.3958L3.0651 23.5208L2.96094 24.3333C2.73698 24.474 2.48698 24.599 2.21094 24.7083C1.92969 24.8229 1.65885 24.8854 1.39844 24.8958C1.1901 24.8958 0.986979 24.8646 0.794271 24.7917C0.596355 24.724 0.403646 24.6823 0.210938 24.6667C0.127605 24.6406 0.0651047 24.5938 0.023438 24.5208C-0.00781267 24.4375 -0.00781267 24.3646 0.023438 24.2917ZM8.14844 15.1667C7.95052 14.849 7.80469 14.5156 7.71094 14.1667C7.61198 13.8073 7.48698 13.4792 7.33594 13.1875C7.19531 12.8854 6.92969 12.6667 6.54427 12.5417C6.51302 12.7917 6.46094 12.9896 6.3776 13.125C6.29427 13.25 6.15885 13.4115 5.98177 13.6042L6.14844 14.25C5.90885 14.6406 5.73698 15.0521 5.6276 15.4792C5.52865 15.8958 5.46094 16.3333 5.41927 16.7917L4.98177 17.0208C5.17448 17.2292 5.35677 17.4062 5.52344 17.5417C5.70052 17.6667 5.95052 17.7292 6.27344 17.7292C6.61719 17.7292 6.96094 17.7292 7.29427 17.7292C7.63802 17.7188 7.98177 17.7448 8.31511 17.8125L8.75261 17.3333L8.41927 17.0833L8.54427 16.6042C8.38802 16.3281 8.28385 16.1042 8.23177 15.9375C8.17448 15.7604 8.14844 15.5 8.14844 15.1667ZM11.3359 4.4375L11.0026 4.52083L10.2109 4.39583L9.29427 3.70833L9.12761 3.45833L8.75261 2.85417L8.64844 2.29167L8.73177 1.85417L8.83594 1.66667L9.10677 1.02083L9.19011 0.916667L9.66927 0.3125L10.3568 0.104167L11.0651 0L11.6484 0.104167L12.1901 0.3125L12.3359 0.375L12.8776 0.875L13.2943 1.83333L13.2318 2.875L12.9401 3.375L12.5651 3.85417L11.9818 4.25L11.3359 4.4375ZM5.64844 4.39583L4.98177 4.47917L4.21094 4.3125L3.6901 4L3.2526 3.54167H3.14844L2.71094 2.72917L2.66927 2.14583V1.97917L2.9401 1.45833L3.0651 1.10417L3.6276 0.375L4.3151 0.104167L5.0651 0.0208333L6.16927 0.270833L6.39844 0.416667L6.83594 0.854167L7.14844 1.35417L7.3776 1.89583L7.33594 2.39583L6.89844 3.4375L6.7526 3.64583L6.27344 4.14583L5.64844 4.39583Z" fill="#D72333"/>
</svg>
