<svg width="13" height="20" viewBox="0 0 13 20" fill="none" xmlns="http://www.w3.org/2000/svg">
<path d="M9.05851 19.5625C8.83455 19.5625 8.71476 19.4583 8.70434 19.25L8.24601 16.5833C8.24601 16.4896 8.18872 16.4375 8.07934 16.4375H4.53767C4.42309 16.4375 4.37101 16.4896 4.37101 16.5833L3.93351 19.25C3.90226 19.4583 3.77726 19.5625 3.55851 19.5625H0.287675C0.0480908 19.5625 -0.0404505 19.4479 0.0168415 19.2083L4.12101 0.3125C4.16267 0.104167 4.27726 0 4.47517 0H8.24601C8.45434 0 8.57934 0.104167 8.62101 0.3125L12.7043 19.2083L12.7252 19.3125C12.7252 19.4792 12.621 19.5625 12.4127 19.5625H9.05851ZM4.93351 13.25C4.93351 13.349 4.96476 13.3958 5.03767 13.3958H7.55851C7.65226 13.3958 7.68872 13.349 7.66267 13.25L6.35017 5.625C6.33455 5.57292 6.30851 5.54167 6.26684 5.54167C6.22517 5.54167 6.19393 5.57292 6.18351 5.625L4.93351 13.25Z" fill="#D72333"/>
</svg>
