<svg width="11" height="12" viewBox="0 0 11 12" fill="none" xmlns="http://www.w3.org/2000/svg">
<path d="M9.0625 4.20833C9.14583 3.95833 9.27083 3.78125 9.4375 3.66667C9.61458 3.54167 9.79688 3.47917 9.97917 3.47917C10.1719 3.47917 10.3438 3.54167 10.5 3.66667C10.6667 3.79167 10.75 3.96875 10.75 4.1875C10.75 4.27083 10.7292 4.375 10.6875 4.5C10.2396 5.75 9.55208 6.65625 8.625 7.20833C7.70833 7.75 6.60417 8.02083 5.3125 8.02083C4.19792 8.02083 3.4375 7.86458 3.02083 7.54167L1.95833 10.6667C1.875 10.9167 1.73958 11.0938 1.54167 11.2083C1.34896 11.3177 1.14583 11.375 0.9375 11.375C0.6875 11.375 0.473959 11.3021 0.291667 11.1667C0.0989587 11.026 0 10.8177 0 10.5417C0 10.401 0.0364587 10.2552 0.104167 10.1042L3.39583 0.791667C3.48958 0.5 3.63542 0.302084 3.83333 0.1875C4.02604 0.0625 4.22917 0 4.4375 0C4.6875 0 4.90104 0.057292 5.08333 0.166667C5.26042 0.265625 5.34375 0.395833 5.33333 0.5625C5.48438 0.4375 5.65625 0.354167 5.85417 0.3125C6.04688 0.270833 6.22917 0.25 6.39583 0.25C6.73958 0.25 7.0625 0.343751 7.35417 0.520833C7.64583 0.703125 7.88021 0.947916 8.0625 1.25C8.23958 1.54167 8.33333 1.875 8.33333 2.25C8.33333 2.47396 8.29167 2.70313 8.20833 2.9375C8.01042 3.4375 7.81771 3.95833 7.625 4.5C7.44271 5.03125 7.26042 5.54167 7.08333 6.04167L6.95833 6.33333C7.41667 6.16667 7.82292 5.91146 8.1875 5.5625C8.5625 5.20313 8.85417 4.75 9.0625 4.20833ZM3.72917 5.58333C3.6875 5.68229 3.66667 5.78646 3.66667 5.89583C3.66667 6.07813 3.71875 6.21875 3.83333 6.3125C3.95833 6.39583 4.10417 6.4375 4.27083 6.4375C4.44792 6.4375 4.61458 6.38542 4.77083 6.27083C4.9375 6.14583 5.05208 5.98958 5.125 5.79167C5.30208 5.28125 5.48438 4.77083 5.66667 4.27083C5.84375 3.77083 6.02083 3.26563 6.1875 2.75C6.22917 2.59896 6.25 2.47396 6.25 2.375C6.25 2.20833 6.1875 2.07813 6.0625 1.97917C5.94792 1.86979 5.8125 1.8125 5.64583 1.8125C5.46354 1.8125 5.29167 1.875 5.125 2C4.96875 2.11458 4.85417 2.28646 4.77083 2.52083L3.72917 5.58333Z" fill="#D72333"/>
</svg>
