<svg width="6" height="12" viewBox="0 0 6 12" fill="none" xmlns="http://www.w3.org/2000/svg">
<path d="M5.8125 1.72917C5.8125 1.77083 5.79167 1.8125 5.75 1.85417C5.71875 1.89583 5.67708 1.91667 5.625 1.91667H2.3125C2.25521 1.91667 2.22917 1.94792 2.22917 2V4.5C2.22917 4.55729 2.25521 4.58333 2.3125 4.58333H4.20833C4.26042 4.58333 4.30208 4.60417 4.33333 4.64583C4.375 4.67708 4.39583 4.71875 4.39583 4.77083V6.3125C4.39583 6.36979 4.375 6.41667 4.33333 6.45833C4.30208 6.48958 4.26042 6.5 4.20833 6.5H2.3125C2.25521 6.5 2.22917 6.53125 2.22917 6.58333V9.10417C2.22917 9.16146 2.25521 9.1875 2.3125 9.1875H5.625C5.67708 9.1875 5.71875 9.20833 5.75 9.25C5.79167 9.28125 5.8125 9.32292 5.8125 9.375V10.9167C5.8125 10.974 5.79167 11.0208 5.75 11.0625C5.71875 11.0938 5.67708 11.1042 5.625 11.1042H0.1875C0.130208 11.1042 0.0833333 11.0938 0.0416667 11.0625C0.010416 11.0208 0 10.974 0 10.9167V0.1875C0 0.135417 0.010416 0.0937507 0.0416667 0.0625C0.0833333 0.0208333 0.130208 0 0.1875 0H5.625C5.67708 0 5.71875 0.0208333 5.75 0.0625C5.79167 0.0937507 5.8125 0.135417 5.8125 0.1875V1.72917Z" fill="#D72333"/>
</svg>
