<svg width="7" height="6" viewBox="0 0 7 6" fill="none" xmlns="http://www.w3.org/2000/svg">
<path d="M5.85417 2.5625C5.96354 2.5625 6.02083 2.61979 6.02083 2.72917V3.27083C6.02083 3.38542 5.96354 3.4375 5.85417 3.4375H3.52083C3.47917 3.4375 3.45833 3.45833 3.45833 3.5V5.85417C3.45833 5.95313 3.40104 6 3.29167 6H2.70833C2.60937 6 2.5625 5.95313 2.5625 5.85417V3.5C2.5625 3.45833 2.54167 3.4375 2.5 3.4375H0.145833C0.0468747 3.4375 0 3.38542 0 3.27083V2.72917C0 2.61979 0.0468747 2.5625 0.145833 2.5625H2.5C2.54167 2.5625 2.5625 2.54167 2.5625 2.5V0.145833C2.5625 0.0520827 2.60937 0 2.70833 0H3.29167C3.40104 0 3.45833 0.0520827 3.45833 0.145833V2.5C3.45833 2.54167 3.47917 2.5625 3.52083 2.5625H5.85417Z" fill="#D72333"/>
</svg>
