<svg width="14" height="14" viewBox="0 0 14 14" fill="none" xmlns="http://www.w3.org/2000/svg">
<path d="M4.63021 0.927083V2.25H1.18229V0.927083H4.63021ZM1.18229 4.53125V3.125H4.63021V4.53125H1.18229ZM5.76042 5.44271V0H0V13.901H1.18229V5.44271H5.76042ZM8.33333 7.54688V9.03125H4.58333V7.54688H8.33333ZM4.58333 11.474V9.92708H8.33333V11.474H4.58333ZM9.43229 12.4167V6.64062H3.51042V13.2135H4.58333V12.4167H9.43229ZM8.31771 4.54688V3.125H11.8906V4.54688H8.31771ZM11.8906 0.927083V2.25H8.31771V0.927083H11.8906ZM13.0885 0H7.18229V5.45833H11.8906V12.3073C11.8906 12.5938 11.7969 12.6875 11.526 12.6875C11.2344 12.7031 10.2604 12.7188 9.29167 12.6719C9.46354 12.9896 9.65625 13.5521 9.70312 13.8854C11.0313 13.8854 11.875 13.8698 12.3854 13.6771C12.9115 13.4688 13.0885 13.0729 13.0885 12.3229V0Z" fill="#D72333"/>
</svg>
