<svg width="9" height="9" viewBox="0 0 9 9" fill="none" xmlns="http://www.w3.org/2000/svg">
<path d="M6.375 4.75C6.42708 4.54167 6.53125 4.39583 6.6875 4.3125C6.83854 4.22917 7 4.1875 7.16667 4.1875C7.375 4.1875 7.56771 4.25 7.75 4.375C7.92708 4.48958 8.02083 4.64583 8.02083 4.85417C8.02083 4.91146 8.00521 4.97917 7.97917 5.0625C7.58854 6.1875 7.08333 7.05729 6.45833 7.66667C5.84375 8.28125 5.17708 8.58333 4.45833 8.58333C4.09375 8.58333 3.75521 8.51042 3.4375 8.35417C3.13021 8.1875 2.88542 7.96875 2.70833 7.6875C2.52604 7.39583 2.4375 7.0625 2.4375 6.6875C2.4375 6.42708 2.48958 6.14063 2.60417 5.83333L3.1875 4.20833C3.21354 4.11458 3.22917 4.03646 3.22917 3.97917C3.22917 3.82813 3.17708 3.71875 3.08333 3.64583C2.98438 3.5625 2.86458 3.5 2.72917 3.45833C2.60417 3.40625 2.48438 3.35417 2.375 3.3125L1.625 5.3125C1.54167 5.52083 1.40625 5.68229 1.22917 5.79167C1.0625 5.89063 0.885416 5.9375 0.708333 5.9375C0.526041 5.9375 0.359375 5.88542 0.208333 5.77083C0.067708 5.66146 0 5.49479 0 5.27083C0 5.1875 0.010416 5.09375 0.0416667 4.97917L1 2.375C0.776041 2.11458 0.666667 1.80208 0.666667 1.4375C0.666667 1.0625 0.776041 0.729167 1 0.4375C1.21875 0.145833 1.52604 0 1.91667 0C2.21875 0 2.48438 0.114584 2.70833 0.333333C2.94271 0.557292 3.0625 0.822917 3.0625 1.125C3.0625 1.25 3.04167 1.36458 3 1.45833C3.17708 1.51563 3.40104 1.59375 3.66667 1.6875C3.92708 1.78646 4.1875 1.91667 4.4375 2.08333C4.69792 2.23958 4.91667 2.42708 5.08333 2.64583C5.25 2.86979 5.33333 3.14063 5.33333 3.45833C5.33333 3.58333 5.31771 3.70833 5.29167 3.83333C5.27604 3.94792 5.23958 4.0625 5.1875 4.1875L4.41667 6.35417C4.375 6.45313 4.35417 6.55208 4.35417 6.64583C4.35417 6.74479 4.375 6.82813 4.41667 6.89583C4.46875 6.96875 4.54688 7 4.64583 7C4.92188 7 5.21354 6.78646 5.52083 6.35417C5.83854 5.92708 6.125 5.39063 6.375 4.75Z" fill="#D72333"/>
</svg>
