<svg width="6" height="9" viewBox="0 0 6 9" fill="none" xmlns="http://www.w3.org/2000/svg">
<path d="M2.6875 0C3.4375 0 4.03125 0.244792 4.47917 0.729167C4.92188 1.21875 5.14583 1.86458 5.14583 2.66667V8.04167C5.14583 8.15625 5.08854 8.20833 4.97917 8.20833H4.16667C4.06771 8.20833 4.02083 8.15625 4.02083 8.04167V7.5625C4.02083 7.55208 4.00521 7.54167 3.97917 7.54167C3.96354 7.53125 3.94792 7.53646 3.9375 7.5625C3.54687 8.07813 2.95833 8.33333 2.16667 8.33333C1.58333 8.33333 1.07292 8.16667 0.645833 7.83333C0.213541 7.5 0 6.91146 0 6.0625C0 5.14583 0.255208 4.47917 0.770833 4.0625C1.29687 3.64583 1.98437 3.4375 2.83333 3.4375H3.95833C4 3.4375 4.02083 3.41667 4.02083 3.375V2.75C4.02083 2.22396 3.89583 1.80208 3.64583 1.47917C3.39583 1.16146 3.06771 1 2.66667 1C2.34375 1 2.06771 1.10417 1.83333 1.3125C1.60937 1.52083 1.47917 1.79167 1.4375 2.125C1.4375 2.23958 1.38021 2.29167 1.27083 2.29167L0.375 2.27083C0.317708 2.27083 0.276041 2.26042 0.25 2.22917C0.218751 2.1875 0.213541 2.14583 0.229167 2.10417C0.281249 1.47917 0.541667 0.973959 1 0.583333C1.45833 0.197917 2.02083 0 2.6875 0ZM2.39583 7.35417C2.83854 7.35417 3.21875 7.21875 3.54167 6.9375C3.85937 6.64583 4.02083 6.25 4.02083 5.75V4.41667C4.02083 4.375 4 4.35417 3.95833 4.35417H2.8125C2.29687 4.35417 1.89583 4.49479 1.60417 4.77083C1.3125 5.03646 1.16667 5.43229 1.16667 5.95833C1.16667 6.43229 1.27604 6.78646 1.5 7.02083C1.71875 7.24479 2.02083 7.35417 2.39583 7.35417Z" fill="#D72333"/>
</svg>
