<svg width="8" height="11" viewBox="0 0 8 11" fill="none" xmlns="http://www.w3.org/2000/svg">
<path d="M5.09797 10.9792C4.95735 10.9792 4.88964 10.9271 4.88964 10.8125L4.63964 9.29167C4.63964 9.25 4.60318 9.22917 4.53547 9.22917H2.55631C2.48339 9.22917 2.45214 9.25 2.45214 9.29167L2.20214 10.8125C2.18651 10.9271 2.11881 10.9792 1.99381 10.9792H0.160472C0.0198468 10.9792 -0.0270279 10.9115 0.0146388 10.7708L2.30631 0.166667C2.33235 0.057292 2.40006 0 2.51464 0H4.63964C4.74901 0 4.81151 0.057292 4.82714 0.166667L7.11881 10.7708L7.13964 10.8333C7.13964 10.9323 7.08235 10.9792 6.97297 10.9792H5.09797ZM2.76464 7.4375C2.76464 7.49479 2.78547 7.52083 2.82714 7.52083H4.24381C4.29589 7.52083 4.31672 7.49479 4.30631 7.4375L3.55631 3.14583C3.55631 3.11979 3.54068 3.10417 3.51464 3.10417C3.49901 3.10417 3.48339 3.11979 3.47297 3.14583L2.76464 7.4375Z" fill="#F8F7F6"/>
</svg>
