<svg width="6" height="11" viewBox="0 0 6 11" fill="none" xmlns="http://www.w3.org/2000/svg">
<path d="M2.10417 10.75C1.46354 10.75 0.947916 10.5521 0.5625 10.1458C0.1875 9.74479 0 9.20313 0 8.52083C0 8.4375 0.005208 8.29167 0.0208333 8.08333L0.0625 7.75C0.0885413 7.65625 0.145833 7.60417 0.229167 7.60417H0.9375C0.989583 7.60417 1.02604 7.61979 1.04167 7.64583C1.06771 7.67708 1.08333 7.70833 1.08333 7.75L1.02083 8.04167C1.02083 8.11458 1.02083 8.21875 1.02083 8.35417C1.02083 8.80208 1.125 9.15625 1.33333 9.41667C1.55208 9.68229 1.85417 9.8125 2.22917 9.8125C2.64583 9.8125 3.00521 9.66146 3.3125 9.35417C3.61458 9.03646 3.80208 8.625 3.875 8.125C3.875 8.05729 3.875 7.95833 3.875 7.83333C3.875 7.57292 3.81771 7.33333 3.70833 7.125C3.59375 6.90625 3.44792 6.70833 3.27083 6.54167C3.10417 6.36458 2.81771 6.09896 2.41667 5.75C2.01042 5.41667 1.69271 5.13542 1.45833 4.89583C1.23437 4.66146 1.04687 4.38542 0.895833 4.0625C0.739583 3.74479 0.666667 3.38542 0.666667 2.97917C0.666667 2.88542 0.677084 2.73958 0.708333 2.54167C0.802084 1.76563 1.09375 1.14583 1.58333 0.6875C2.06771 0.229167 2.65625 0 3.35417 0C4.02083 0 4.54167 0.208333 4.91667 0.625C5.29167 1.03125 5.47917 1.57292 5.47917 2.25C5.47917 2.34896 5.46875 2.51042 5.45833 2.72917L5.41667 3.10417C5.38542 3.20313 5.33333 3.25 5.25 3.25H4.52083C4.4375 3.25 4.39583 3.20313 4.39583 3.10417L4.4375 2.70833C4.44792 2.54167 4.45833 2.42708 4.45833 2.35417C4.45833 1.92708 4.34375 1.58333 4.125 1.33333C3.91667 1.07292 3.625 0.9375 3.25 0.9375C2.84375 0.9375 2.50521 1.08333 2.22917 1.375C1.94792 1.65625 1.77604 2.05208 1.70833 2.5625C1.69271 2.63542 1.6875 2.73958 1.6875 2.875C1.6875 3.23958 1.78125 3.55208 1.97917 3.8125C2.1875 4.07813 2.55208 4.43229 3.08333 4.875C3.55208 5.28125 3.90625 5.60417 4.14583 5.85417C4.39583 6.09375 4.58854 6.35417 4.72917 6.64583C4.86458 6.92708 4.9375 7.24479 4.9375 7.60417C4.9375 7.6875 4.92188 7.82813 4.89583 8.02083C4.79688 8.84375 4.48438 9.5 3.95833 10C3.44271 10.5 2.82292 10.75 2.10417 10.75Z" fill="#D51224"/>
</svg>
