<svg width="40" height="24" viewBox="0 0 40 24" fill="none" xmlns="http://www.w3.org/2000/svg">
<path d="M37.0625 10C37.6719 10 38.2135 10.1771 38.6875 10.5208C39.1562 10.8542 39.3958 11.3438 39.3958 11.9792C39.3958 12.1198 39.3802 12.2656 39.3542 12.4167C39.3229 12.5573 39.2917 12.6875 39.25 12.8125C38.3438 15.4688 37.276 17.5573 36.0417 19.0833C34.8177 20.599 33.5312 21.6823 32.1875 22.3333C30.8542 22.974 29.526 23.2917 28.2083 23.2917C27.0417 23.2917 25.9635 23.0781 24.9792 22.6458C24.0052 22.2031 23.2188 21.5573 22.625 20.7083C22.026 19.8646 21.7292 18.8438 21.7292 17.6458C21.7292 16.7865 21.8854 15.9063 22.2083 15L25.2292 6.79167C25.3385 6.47396 25.3958 6.18229 25.3958 5.91667C25.3958 5.54167 25.2708 5.24479 25.0208 5.02083C24.7812 4.80208 24.4844 4.6875 24.125 4.6875C23.4583 4.6875 22.7917 4.97396 22.125 5.54167C21.4688 6.09896 20.9583 6.88542 20.5833 7.89583L16.0208 20.7917C15.7292 21.6406 15.2604 22.2708 14.625 22.6875C14 23.0938 13.3542 23.2917 12.6875 23.2917C12.0312 23.2917 11.4427 23.0938 10.9167 22.6875C10.401 22.2708 10.1458 21.6979 10.1458 20.9583C10.1458 20.5313 10.25 20.0365 10.4583 19.4792L15.1042 6.58333C15.2135 6.34896 15.2708 6.09896 15.2708 5.83333C15.2708 5.45833 15.1458 5.17708 14.8958 4.97917C14.6458 4.78646 14.3177 4.6875 13.9167 4.6875C13.3333 4.6875 12.7396 4.91667 12.1458 5.375C11.5625 5.83333 11.0521 6.48958 10.625 7.33333L5.89583 20.9167C5.63021 21.7083 5.19271 22.3073 4.58333 22.7083C3.98437 23.099 3.33854 23.2917 2.64583 23.2917C1.96354 23.2917 1.35417 23.099 0.8125 22.7083C0.270833 22.3073 0 21.7396 0 21C0 20.6823 0.052084 20.3646 0.145833 20.0417L6.5 1.75C6.73438 1.16667 7.13542 0.729167 7.70833 0.4375C8.27604 0.145833 8.86458 0 9.47917 0C9.92188 0 10.3385 0.0833333 10.7292 0.25C11.1302 0.406251 11.4427 0.625 11.6667 0.916667C12.026 0.697917 12.4583 0.489584 12.9583 0.291667C13.4688 0.0989587 14.1354 0 14.9583 0C16.125 0 17.0469 0.1875 17.7292 0.5625C18.4219 0.927083 18.9792 1.34375 19.3958 1.8125C20.3229 1.07813 21.2604 0.593749 22.2083 0.354167C23.1667 0.119792 24 0 24.7083 0C25.9271 0 27.0312 0.229167 28.0208 0.6875C29.0208 1.13542 29.8177 1.76042 30.4167 2.5625C31.0104 3.36979 31.3125 4.34375 31.3125 5.47917C31.3125 5.8125 31.276 6.17708 31.2083 6.5625C31.1354 6.95313 31.0417 7.32813 30.9167 7.6875L27.5417 16.9375C27.5104 17.0208 27.4896 17.1146 27.4792 17.2083C27.4635 17.2917 27.4583 17.3906 27.4583 17.5C27.4583 17.7917 27.5521 18.0417 27.75 18.25C27.9427 18.4583 28.2396 18.5625 28.6458 18.5625C29.5729 18.5625 30.5521 18.0417 31.5833 17C32.6094 15.9583 33.5625 14.2448 34.4375 11.8542C34.6458 11.2292 35 10.7656 35.5 10.4583C36.0104 10.1563 36.5312 10 37.0625 10Z" fill="#D72333"/>
</svg>
