<svg width="2" height="10" viewBox="0 0 2 10" fill="none" xmlns="http://www.w3.org/2000/svg">
<path d="M1.08333 9.22917C1.01042 9.22917 0.963541 9.20833 0.9375 9.16667C0.671875 8.625 0.447917 7.95833 0.270833 7.16667C0.0885416 6.375 0 5.54167 0 4.66667C0 3.78125 0.0885416 2.93229 0.270833 2.125C0.447917 1.30729 0.677083 0.625 0.958333 0.0833333C1 0.0312507 1.04687 0 1.10417 0H1.625C1.65104 0 1.67187 0.0156253 1.6875 0.0416667C1.71354 0.0729173 1.71875 0.0989587 1.70833 0.125C1.45833 0.682292 1.25521 1.36458 1.10417 2.16667C0.947917 2.97396 0.875 3.80208 0.875 4.64583C0.875 5.49479 0.947917 6.3125 1.10417 7.10417C1.25521 7.88542 1.45833 8.54688 1.70833 9.10417V9.14583C1.70833 9.19792 1.67708 9.22917 1.625 9.22917H1.08333Z" fill="#D72333"/>
</svg>
