<svg width="6" height="12" viewBox="0 0 6 12" fill="none" xmlns="http://www.w3.org/2000/svg">
<path d="M5.5 0C5.60938 0 5.66667 0.0520827 5.66667 0.145833V0.833333C5.66667 0.932292 5.60938 0.979167 5.5 0.979167H3.39583C3.35417 0.979167 3.33333 1 3.33333 1.04167V11C3.33333 11.1146 3.27604 11.1667 3.16667 11.1667H2.35417C2.25521 11.1667 2.20833 11.1146 2.20833 11V1.04167C2.20833 1 2.1875 0.979167 2.14583 0.979167H0.166667C0.0520827 0.979167 0 0.932292 0 0.833333V0.145833C0 0.0520827 0.0520827 0 0.166667 0H5.5Z" fill="#D72333"/>
</svg>
