<svg width="6" height="11" viewBox="0 0 6 11" fill="none" xmlns="http://www.w3.org/2000/svg">
<path d="M5.22917 7.8125C5.23958 8.72917 5 9.44792 4.5 9.95833C4 10.4583 3.32292 10.7083 2.47917 10.7083H0.145833C0.0468747 10.7083 0 10.6615 0 10.5625V0.166667C0 0.057292 0.0468747 0 0.145833 0H2.35417C3.22917 0 3.91667 0.244792 4.41667 0.729167C4.91667 1.21875 5.16667 1.91146 5.16667 2.8125C5.16667 3.95313 4.73958 4.72917 3.89583 5.14583C3.88021 5.16146 3.875 5.17708 3.875 5.1875C3.875 5.1875 3.875 5.19792 3.875 5.20833C4.77604 5.72396 5.22917 6.59375 5.22917 7.8125ZM1.14583 0.958333C1.10417 0.958333 1.08333 0.979167 1.08333 1.02083V4.70833C1.08333 4.73958 1.10417 4.75 1.14583 4.75H2.35417C2.90625 4.75 3.33854 4.59375 3.64583 4.27083C3.94792 3.95313 4.10417 3.49479 4.10417 2.89583C4.10417 2.28646 3.94792 1.8125 3.64583 1.47917C3.33854 1.13542 2.90625 0.958333 2.35417 0.958333H1.14583ZM2.41667 9.75C2.95833 9.75 3.38021 9.57292 3.6875 9.20833C3.98958 8.84896 4.14583 8.34375 4.14583 7.6875C4.14583 7.02083 3.98958 6.51042 3.6875 6.14583C3.38021 5.77083 2.95833 5.58333 2.41667 5.58333H1.14583C1.10417 5.58333 1.08333 5.60417 1.08333 5.64583V9.6875C1.08333 9.72917 1.10417 9.75 1.14583 9.75H2.41667Z" fill="#D72333"/>
</svg>
