<svg width="7" height="12" viewBox="0 0 7 12" fill="none" xmlns="http://www.w3.org/2000/svg">
<path d="M4.52083 0.1875C4.52083 0.135417 4.54167 0.0937507 4.58333 0.0625C4.625 0.0208333 4.67188 0 4.72917 0H6.5625C6.61458 0 6.65625 0.0208333 6.6875 0.0625C6.72917 0.0937507 6.75 0.135417 6.75 0.1875V10.9167C6.75 10.974 6.72917 11.0208 6.6875 11.0625C6.65625 11.0938 6.61458 11.1042 6.5625 11.1042H4.45833C4.35938 11.1042 4.29688 11.0521 4.27083 10.9375L2.29167 4.79167C2.27604 4.76563 2.25521 4.76042 2.22917 4.77083C2.19792 4.77083 2.1875 4.78646 2.1875 4.8125L2.20833 10.9167C2.20833 10.974 2.1875 11.0208 2.14583 11.0625C2.11458 11.0938 2.07292 11.1042 2.02083 11.1042H0.1875C0.130208 11.1042 0.0833333 11.0938 0.0416667 11.0625C0.010416 11.0208 0 10.974 0 10.9167V0.1875C0 0.135417 0.010416 0.0937507 0.0416667 0.0625C0.0833333 0.0208333 0.130208 0 0.1875 0H2.25C2.35937 0 2.42708 0.052084 2.45833 0.145833L4.45833 6.29167C4.45833 6.32292 4.46875 6.33333 4.5 6.33333C4.52604 6.33333 4.54167 6.3125 4.54167 6.27083L4.52083 0.1875Z" fill="#D72333"/>
</svg>
