<svg width="5" height="12" viewBox="0 0 5 12" fill="none" xmlns="http://www.w3.org/2000/svg">
<path d="M2.6875 2.91667C3.35417 2.91667 3.88542 3.13542 4.29167 3.5625C4.69271 3.99479 4.89583 4.57813 4.89583 5.3125V8.70833C4.89583 9.41667 4.69271 9.99479 4.29167 10.4375C3.90104 10.8854 3.36458 11.1042 2.6875 11.1042C2.40625 11.1042 2.13542 11.0469 1.875 10.9375C1.60937 10.8281 1.38021 10.6615 1.1875 10.4375C1.17187 10.4271 1.15104 10.4271 1.125 10.4375C1.10937 10.4375 1.10417 10.4531 1.10417 10.4792V10.8125C1.10417 10.9271 1.05208 10.9792 0.958333 10.9792H0.145833C0.0468747 10.9792 0 10.9271 0 10.8125V0.145833C0 0.052084 0.0468747 0 0.145833 0H0.958333C1.05208 0 1.10417 0.052084 1.10417 0.145833V3.54167C1.10417 3.57292 1.10937 3.59375 1.125 3.60417C1.15104 3.60417 1.17708 3.59375 1.20833 3.5625C1.38542 3.35417 1.60937 3.19792 1.875 3.08333C2.13542 2.97396 2.40625 2.91667 2.6875 2.91667ZM3.77083 5.39583C3.77083 4.95313 3.64583 4.59375 3.39583 4.3125C3.14583 4.03646 2.81771 3.89583 2.41667 3.89583C2.02604 3.89583 1.70833 4.03646 1.45833 4.3125C1.21875 4.59375 1.10417 4.95313 1.10417 5.39583V8.64583C1.10417 9.07813 1.21875 9.43229 1.45833 9.70833C1.70833 9.98958 2.02604 10.125 2.41667 10.125C2.81771 10.125 3.14583 9.98958 3.39583 9.70833C3.64583 9.43229 3.77083 9.07813 3.77083 8.64583V5.39583Z" fill="#D72333"/>
</svg>
