<svg width="14" height="19" viewBox="0 0 14 19" fill="none" xmlns="http://www.w3.org/2000/svg">
<path d="M2.41667 0.270833C2.81771 0.286459 3.20833 0.260417 3.58333 0.1875C3.96875 0.119792 4.36458 0.0989587 4.77083 0.125C4.82292 0.125 4.85417 0.145833 4.85417 0.1875C5.15625 0.593751 5.31771 1.04167 5.33333 1.54167C5.34375 2.04167 5.22917 2.51563 4.97917 2.95833C5.17188 3.39063 5.23438 3.84375 5.16667 4.3125C5.09375 4.77083 5.06771 5.22917 5.08333 5.6875C5.09375 6.21875 5.11458 6.74479 5.14583 7.27083C5.17188 7.80208 5.13542 8.32292 5.04167 8.83333L5.35417 9.0625C5.28125 9.1875 5.21354 9.32813 5.14583 9.47917C5.07292 9.61979 5.04688 9.76563 5.0625 9.91667C5.0625 10.0417 5.08854 10.1615 5.14583 10.2708C5.21354 10.3854 5.25521 10.5 5.27083 10.625C5.29688 10.8073 5.28125 10.9583 5.22917 11.0833C5.17188 11.1979 5.125 11.3229 5.08333 11.4583C5.02604 11.6146 5.00521 11.7604 5.02083 11.8958C5.03125 12.0208 5.04688 12.1667 5.0625 12.3333C5.08854 12.6667 5.08333 12.9896 5.04167 13.2917C5 13.5833 4.97917 13.8958 4.97917 14.2292C4.97917 14.5625 5.03125 14.8906 5.14583 15.2083C5.25521 15.5312 5.33333 15.8542 5.375 16.1875C5.56771 16.1771 5.83854 16.1406 6.1875 16.0833C6.54688 16.0312 6.79688 16.0729 6.9375 16.2083C7.21354 16.1823 7.4375 16.1771 7.60417 16.1875C7.77083 16.1875 7.98438 16.224 8.25 16.2917C8.40104 16.0833 8.61458 16 8.89583 16.0417C9.17188 16.0833 9.40625 16.1354 9.60417 16.1875L9.77083 16.0833C10.0208 16.2083 10.2604 16.3073 10.5 16.375C10.7344 16.4323 10.9896 16.4323 11.2708 16.375L11.9583 16.2708C12.0521 16.2708 12.151 16.2812 12.25 16.2917C12.3438 16.3073 12.4375 16.3073 12.5208 16.2917C12.7292 16.2917 12.9219 16.3646 13.1042 16.5L13.125 16.5625C13.3021 16.7188 13.3958 16.9167 13.3958 17.1667C13.3958 17.2396 13.3958 17.3073 13.3958 17.375C13.3958 17.4479 13.401 17.5312 13.4167 17.625C13.4583 17.7917 13.4271 17.9531 13.3333 18.1042C13.2344 18.2604 13.1042 18.3698 12.9375 18.4375C12.4635 18.6354 11.9635 18.7292 11.4375 18.7292C10.9063 18.7292 10.3646 18.7031 9.8125 18.6458C9.27083 18.5781 8.73958 18.5625 8.22917 18.6042C7.78125 18.6198 7.33854 18.6615 6.89583 18.7292C6.44792 18.8125 6 18.875 5.54167 18.9167C5.04167 18.9271 4.54688 18.9062 4.0625 18.8542C3.58854 18.8125 3.11458 18.75 2.64583 18.6667L2.4375 18.9167C2.21354 18.9167 1.98958 18.9167 1.77083 18.9167C1.54687 18.9167 1.33333 18.8802 1.125 18.8125C0.942708 18.7188 0.770833 18.599 0.604167 18.4583C0.447917 18.3229 0.281251 18.1875 0.104167 18.0625C0.0885413 17.8021 0.067708 17.5417 0.0416667 17.2917C0.0260413 17.0312 0.0312507 16.7656 0.0625 16.5C0.0885413 16.2656 0.130208 16.0208 0.1875 15.7708C0.255208 15.5104 0.296875 15.25 0.3125 15L0.208333 14.9375L0 14.2083C0.234375 13.9323 0.354167 13.6406 0.354167 13.3333C0.354167 13.0312 0.317708 12.7188 0.25 12.3958C0.192708 12.0625 0.177083 11.7396 0.208333 11.4167L0.375 11.2917C0.333333 11.0156 0.281251 10.7448 0.229167 10.4792C0.1875 10.2188 0.166667 9.9375 0.166667 9.64583C0.177083 9.41146 0.1875 9.1875 0.1875 8.97917C0.197917 8.76042 0.171875 8.53646 0.104167 8.3125L0.395833 8.20833C0.380208 7.93229 0.338541 7.67708 0.270833 7.4375C0.197917 7.1875 0.156251 6.9375 0.145833 6.6875C0.114584 6.46875 0.109375 6.25 0.125 6.04167C0.151041 5.82292 0.145833 5.59896 0.104167 5.375C0.0885413 5.125 0.067708 4.83333 0.0416667 4.5C0.010416 4.16667 0.005208 3.84375 0.0208333 3.52083C0.0468747 3.1875 0.135416 2.91146 0.291667 2.6875L0.0208333 1.75L0.354167 1.47917L0.1875 0.791667C0.171875 0.75 0.177083 0.718751 0.208333 0.6875C0.526041 0.4375 0.833333 0.286459 1.125 0.229167C1.42708 0.161459 1.76042 0.0833333 2.125 0C2.21875 0 2.27083 0.0416667 2.27083 0.125C2.27083 0.223959 2.31771 0.270833 2.41667 0.270833Z" fill="#D72333"/>
</svg>
