<svg width="5" height="8" viewBox="0 0 5 8" fill="none" xmlns="http://www.w3.org/2000/svg">
<path d="M2.20833 7.5625C1.54167 7.5625 1.00521 7.39063 0.604167 7.04167C0.197916 6.69792 0 6.22917 0 5.64583V5.54167C0 5.44792 0.0468747 5.39583 0.145833 5.39583H0.833333C0.942708 5.39583 1 5.44792 1 5.54167V5.64583C1 5.95313 1.10937 6.21875 1.33333 6.4375C1.56771 6.64583 1.86458 6.75 2.22917 6.75C2.57292 6.75 2.85417 6.64583 3.0625 6.4375C3.28125 6.21875 3.39583 5.9375 3.39583 5.60417C3.39583 5.35417 3.32292 5.14583 3.1875 4.97917C3.0625 4.80208 2.90625 4.66146 2.72917 4.5625C2.54687 4.46875 2.27604 4.34375 1.91667 4.1875C1.52604 4.03646 1.20833 3.88542 0.958333 3.72917C0.718751 3.57813 0.510417 3.36458 0.333333 3.08333C0.151041 2.80729 0.0625 2.45313 0.0625 2.02083C0.0625 1.39583 0.25 0.906249 0.625 0.541667C1.01042 0.182292 1.53125 0 2.1875 0C2.85417 0 3.38021 0.1875 3.77083 0.5625C4.15625 0.9375 4.35417 1.43229 4.35417 2.04167V2.08333C4.35417 2.18229 4.30208 2.22917 4.20833 2.22917H3.54167C3.44271 2.22917 3.39583 2.18229 3.39583 2.08333V2C3.39583 1.66667 3.28125 1.39583 3.0625 1.1875C2.83854 0.968751 2.55208 0.854167 2.20833 0.854167C1.85937 0.854167 1.57292 0.968751 1.35417 1.1875C1.14583 1.41146 1.04167 1.68229 1.04167 2C1.04167 2.23958 1.10417 2.4375 1.22917 2.60417C1.36458 2.76042 1.52604 2.89063 1.70833 3C1.88542 3.09896 2.14583 3.21875 2.47917 3.35417C2.88021 3.53646 3.20833 3.70313 3.45833 3.85417C3.71875 4.01042 3.94792 4.22917 4.14583 4.52083C4.33854 4.80208 4.4375 5.14583 4.4375 5.5625C4.4375 6.17708 4.23438 6.66146 3.83333 7.02083C3.44271 7.38542 2.90104 7.5625 2.20833 7.5625Z" fill="#D72333"/>
</svg>
