<svg width="7" height="11" viewBox="0 0 7 11" fill="none" xmlns="http://www.w3.org/2000/svg">
<path d="M0.1875 10.9792C0.130208 10.9792 0.0833333 10.9688 0.0416667 10.9375C0.0104173 10.8958 0 10.849 0 10.7917V0.1875C0 0.135417 0.0104173 0.0937507 0.0416667 0.0625C0.0833333 0.0208333 0.130208 0 0.1875 0H3.02083C3.97917 0 4.73958 0.281249 5.3125 0.833333C5.89583 1.39063 6.1875 2.125 6.1875 3.04167V7.9375C6.1875 8.85417 5.89583 9.59375 5.3125 10.1458C4.73958 10.7031 3.97917 10.9792 3.02083 10.9792H0.1875ZM2.20833 9C2.20833 9.05729 2.23437 9.08333 2.29167 9.08333L3 9.0625C3.27604 9.05208 3.50521 8.93229 3.6875 8.70833C3.86458 8.47396 3.96354 8.16667 3.97917 7.79167V3.1875C3.97917 2.78646 3.88542 2.47396 3.70833 2.25C3.52604 2.01563 3.28125 1.89583 2.97917 1.89583H2.29167C2.23437 1.89583 2.20833 1.92708 2.20833 1.97917V9Z" fill="#D72333"/>
</svg>
