<svg width="5" height="8" viewBox="0 0 5 8" fill="none" xmlns="http://www.w3.org/2000/svg">
<path d="M1.97917 7.39583C1.89583 7.39583 1.84375 7.35417 1.83333 7.27083L0.0208333 0.166667L0 0.104167C0 0.0364587 0.0416667 0 0.125 0H0.979167C1.0625 0 1.11458 0.0416667 1.14583 0.125L2.39583 5.66667C2.40625 5.69792 2.41667 5.70833 2.41667 5.70833C2.42708 5.70833 2.44271 5.69792 2.45833 5.66667L3.6875 0.125C3.71354 0.0416667 3.77083 0 3.85417 0H4.70833C4.75 0 4.78125 0.0208333 4.8125 0.0625C4.83854 0.0937507 4.84375 0.125 4.83333 0.166667L3.02083 7.27083C3.00521 7.35417 2.94792 7.39583 2.85417 7.39583H1.97917Z" fill="#D72333"/>
</svg>
