<svg width="6" height="12" viewBox="0 0 6 12" fill="none" xmlns="http://www.w3.org/2000/svg">
<path d="M4.8125 5.9375C4.97917 6.46875 5.0625 7.0625 5.0625 7.72917C5.0625 8.30208 5.00521 8.8125 4.89583 9.27083C4.60417 10.5781 3.81771 11.2292 2.54167 11.2292C1.875 11.2292 1.32292 11.0521 0.895833 10.6875C0.463541 10.3125 0.197917 9.80208 0.104167 9.14583C0.0312507 8.77083 0 8.36458 0 7.91667C0 7.80729 0.0520827 7.75 0.166667 7.75H0.979167C1.07292 7.75 1.125 7.80729 1.125 7.91667C1.125 8.29167 1.15625 8.63542 1.22917 8.9375C1.40625 9.8125 1.84375 10.25 2.54167 10.25C2.875 10.25 3.15104 10.1562 3.375 9.95833C3.59375 9.75 3.75521 9.45313 3.85417 9.0625C3.9375 8.61979 3.97917 8.14583 3.97917 7.64583C3.97917 6.97917 3.91667 6.42708 3.79167 5.97917C3.67708 5.63542 3.51042 5.375 3.29167 5.20833C3.08333 5.03125 2.83333 4.9375 2.54167 4.9375C2.44271 4.9375 2.32292 4.97396 2.1875 5.04167C2.08854 5.09896 2.01042 5.09375 1.95833 5.02083L1.54167 4.60417C1.48437 4.52083 1.47917 4.44792 1.52083 4.375L3.64583 1.0625C3.64583 1.05208 3.63542 1.03646 3.625 1.02083C3.625 0.994792 3.60937 0.979167 3.58333 0.979167H0.25C0.135416 0.979167 0.0833333 0.927084 0.0833333 0.8125V0.145833C0.0833333 0.052084 0.135416 0 0.25 0H4.875C4.98438 0 5.04167 0.052084 5.04167 0.145833V0.875C5.04167 0.916667 5.02083 0.979167 4.97917 1.0625L3 4.14583C2.98437 4.17708 2.97917 4.19792 2.97917 4.20833C2.98958 4.22396 3.01042 4.22917 3.04167 4.22917C3.45833 4.27083 3.81771 4.44792 4.125 4.75C4.44271 5.05729 4.67188 5.45313 4.8125 5.9375Z" fill="#D72333"/>
</svg>
