<svg width="10" height="20" viewBox="0 0 10 20" fill="none" xmlns="http://www.w3.org/2000/svg">
<path d="M4.58333 19.0417C3.21875 19.0417 2.11458 18.6198 1.27083 17.7708C0.421875 16.9271 0 15.8021 0 14.3958V4.64583C0 3.24479 0.421875 2.11979 1.27083 1.27083C2.11458 0.427083 3.21875 0 4.58333 0C5.95833 0 7.06771 0.427083 7.91667 1.27083C8.77604 2.11979 9.20833 3.24479 9.20833 4.64583V14.3958C9.20833 15.7708 8.77604 16.8906 7.91667 17.75C7.06771 18.6146 5.95833 19.0417 4.58333 19.0417ZM4.58333 17.3958C5.40104 17.3958 6.0625 17.125 6.5625 16.5833C7.0625 16.0417 7.3125 15.349 7.3125 14.5V4.58333C7.3125 3.70833 7.0625 3 6.5625 2.45833C6.0625 1.91667 5.40104 1.64583 4.58333 1.64583C3.77604 1.64583 3.125 1.91667 2.625 2.45833C2.13542 3 1.89583 3.70833 1.89583 4.58333V14.5C1.89583 15.349 2.13542 16.0417 2.625 16.5833C3.125 17.125 3.77604 17.3958 4.58333 17.3958Z" fill="#D72333"/>
</svg>
