<svg width="5" height="12" viewBox="0 0 5 12" fill="none" xmlns="http://www.w3.org/2000/svg">
<path d="M3.83333 0.291667C3.83333 0.182292 3.88021 0.125 3.97917 0.125H4.79167C4.90104 0.125 4.95833 0.182292 4.95833 0.291667V8C4.95833 9.13542 4.69271 10 4.16667 10.5833C3.63542 11.1667 2.76042 11.4375 1.54167 11.3958C1.42708 11.3802 1.375 11.3177 1.375 11.2083V10.5417C1.375 10.4271 1.42708 10.375 1.54167 10.375C2.38542 10.3854 2.97917 10.1927 3.3125 9.79167C3.65625 9.38542 3.83333 8.76042 3.83333 7.91667V7.4375C3.83333 7.41146 3.81771 7.39583 3.79167 7.39583C3.77604 7.38542 3.76042 7.38542 3.75 7.39583C3.56771 7.66146 3.33854 7.86458 3.0625 8C2.78125 8.14062 2.48437 8.20833 2.16667 8.20833C1.5 8.20833 0.968749 7.98958 0.583333 7.54167C0.192708 7.09896 0 6.51563 0 5.79167V2.4375C0 1.70313 0.192708 1.11458 0.583333 0.666667C0.968749 0.223959 1.5 0 2.16667 0C2.48437 0 2.78125 0.0729173 3.0625 0.208333C3.33854 0.333333 3.56771 0.531251 3.75 0.791667C3.76042 0.833333 3.77604 0.854167 3.79167 0.854167C3.81771 0.843749 3.83333 0.822917 3.83333 0.791667V0.291667ZM2.5 7.22917C2.88542 7.22917 3.20833 7.09375 3.45833 6.8125C3.70833 6.53646 3.83333 6.17708 3.83333 5.72917V2.52083C3.83333 2.0625 3.70833 1.69792 3.45833 1.41667C3.20833 1.14063 2.88542 1 2.5 1C2.09375 1 1.76042 1.14063 1.5 1.41667C1.25 1.69792 1.125 2.0625 1.125 2.52083V5.72917C1.125 6.17708 1.25 6.53646 1.5 6.8125C1.76042 7.09375 2.09375 7.22917 2.5 7.22917Z" fill="#D72333"/>
</svg>
