<svg width="7" height="12" viewBox="0 0 7 12" fill="none" xmlns="http://www.w3.org/2000/svg">
<path d="M5.13353 11.1042C5.03457 11.1042 4.97728 11.0573 4.96687 10.9583L4.57103 9C4.57103 8.97396 4.55541 8.95833 4.52937 8.95833C4.51374 8.94792 4.49812 8.9375 4.4877 8.9375H1.6127C1.58145 8.9375 1.56061 8.94792 1.5502 8.95833C1.53457 8.95833 1.52937 8.97396 1.52937 9L1.13353 10.9583C1.11791 11.0573 1.06061 11.1042 0.966865 11.1042H0.154365C0.0970734 11.1042 0.0554067 11.0938 0.0293654 11.0625C-0.00188394 11.0208 -0.00709327 10.9792 0.00853206 10.9375L2.38353 0.125C2.40957 0.0416667 2.47207 0 2.57103 0H3.50853C3.61791 0 3.68041 0.0416667 3.69603 0.125L6.1127 10.9375V10.9583C6.1127 11.0573 6.06062 11.1042 5.96687 11.1042H5.13353ZM1.7377 7.9375C1.7377 7.97917 1.74812 8 1.77937 8H4.3002C4.32624 8 4.34187 7.97917 4.34187 7.9375L3.07103 1.70833C3.05541 1.68229 3.03978 1.66667 3.02937 1.66667C3.02937 1.66667 3.01895 1.68229 3.00853 1.70833L1.7377 7.9375Z" fill="#D72333"/>
</svg>
