<svg width="7" height="11" viewBox="0 0 7 11" fill="none" xmlns="http://www.w3.org/2000/svg">
<path d="M4.97917 0.125C5.03125 0.0416667 5.10938 0 5.20833 0H6.66667C6.70833 0 6.75 0.0208333 6.79167 0.0625C6.83333 0.0937507 6.85417 0.135417 6.85417 0.1875V10.7917C6.85417 10.849 6.83333 10.8958 6.79167 10.9375C6.75 10.9688 6.70833 10.9792 6.66667 10.9792H5.20833C5.16667 10.9792 5.125 10.9688 5.08333 10.9375C5.04167 10.8958 5.02083 10.849 5.02083 10.7917V3.39583C5.02083 3.35417 5.00521 3.33333 4.97917 3.33333C4.96354 3.33333 4.94792 3.34896 4.9375 3.375L3.5625 5.85417C3.52083 5.9375 3.47917 5.97917 3.4375 5.97917C3.39583 5.97917 3.34375 5.9375 3.29167 5.85417L1.91667 3.375C1.90104 3.34896 1.88021 3.33333 1.85417 3.33333C1.83854 3.33333 1.83333 3.35417 1.83333 3.39583V10.7917C1.83333 10.849 1.8125 10.8958 1.77083 10.9375C1.72917 10.9688 1.6875 10.9792 1.64583 10.9792H0.1875C0.145833 10.9792 0.104167 10.9688 0.0625 10.9375C0.0208333 10.8958 0 10.849 0 10.7917V0.1875C0 0.135417 0.0208333 0.0937507 0.0625 0.0625C0.104167 0.0208333 0.145833 0 0.1875 0H1.64583C1.73958 0 1.81771 0.0416667 1.875 0.125L3.39583 2.8125C3.42187 2.85417 3.45833 2.85417 3.5 2.8125L4.97917 0.125Z" fill="white"/>
</svg>
