<svg width="4" height="10" viewBox="0 0 4 10" fill="none" xmlns="http://www.w3.org/2000/svg">
<path d="M3.25 2.58333C3.25 2.69792 3.19792 2.75 3.10417 2.75H1.9375C1.89583 2.75 1.875 2.76563 1.875 2.79167V7.47917C1.875 7.95313 1.95833 8.28125 2.125 8.45833C2.29167 8.625 2.54167 8.70833 2.875 8.70833H3.02083C3.13021 8.70833 3.1875 8.76042 3.1875 8.85417V9.52083C3.1875 9.61979 3.13021 9.66667 3.02083 9.66667H2.64583C2.04687 9.66667 1.58854 9.54167 1.27083 9.29167C0.963541 9.03125 0.8125 8.53125 0.8125 7.79167V2.79167C0.8125 2.76563 0.791667 2.75 0.75 2.75H0.145833C0.0468747 2.75 0 2.69792 0 2.58333V2.08333C0 1.98958 0.0468747 1.9375 0.145833 1.9375H0.75C0.791667 1.9375 0.8125 1.91667 0.8125 1.875V0.145833C0.8125 0.0520827 0.859375 0 0.958333 0H1.72917C1.82292 0 1.875 0.0520827 1.875 0.145833V1.875C1.875 1.91667 1.89583 1.9375 1.9375 1.9375H3.10417C3.19792 1.9375 3.25 1.98958 3.25 2.08333V2.58333Z" fill="#D72333"/>
</svg>
