<svg width="71" height="11" viewBox="0 0 71 11" fill="none" xmlns="http://www.w3.org/2000/svg">
<mask id="mask0_24_8111" style="mask-type:luminance" maskUnits="userSpaceOnUse" x="0" y="0" width="71" height="11">
<path d="M70.6667 0H0V10.6667H70.6667V0Z" fill="white"/>
</mask>
<g mask="url(#mask0_24_8111)">
<mask id="mask1_24_8111" style="mask-type:luminance" maskUnits="userSpaceOnUse" x="0" y="1" width="3" height="9">
<path d="M0.177246 1.3335H2.66683V9.3335H0.177246V1.3335Z" fill="white"/>
</mask>
<g mask="url(#mask1_24_8111)">
<path d="M1.91292 8.47477C1.87126 8.47477 1.8348 8.45915 1.80876 8.43311C1.61084 8.04248 1.45459 7.56852 1.32959 6.99561C1.20459 6.41227 1.14209 5.80811 1.14209 5.18311C1.14209 4.53206 1.20459 3.91227 1.32959 3.32894C1.45459 2.74561 1.62126 2.25602 1.82959 1.84977C1.85563 1.82373 1.89209 1.80811 1.93376 1.80811H2.30876C2.3348 1.80811 2.35042 1.81852 2.35042 1.82894C2.36084 1.84456 2.37126 1.8654 2.37126 1.89144C2.18896 2.29769 2.04313 2.78727 1.93376 3.37061C1.81917 3.95394 1.76709 4.5529 1.76709 5.16227C1.76709 5.77685 1.81917 6.3654 1.93376 6.93311C2.04313 7.50602 2.18896 7.98519 2.37126 8.39144V8.43311C2.37126 8.45915 2.35042 8.47477 2.30876 8.47477H1.91292Z" fill="white"/>
</g>
<path d="M4.47966 3.72461C4.83903 3.72461 5.12549 3.8444 5.33382 4.07878C5.55257 4.30273 5.66716 4.61523 5.66716 5.01628V7.59961C5.66716 7.6569 5.64632 7.68294 5.60466 7.68294H5.20882C5.15153 7.68294 5.12549 7.6569 5.12549 7.59961V7.37044C5.12549 7.36003 5.11507 7.34961 5.10466 7.34961C5.10466 7.34961 5.09424 7.36003 5.08382 7.37044C4.8859 7.62044 4.60466 7.74544 4.22966 7.74544C3.94841 7.74544 3.70882 7.67253 3.50049 7.51628C3.29215 7.34961 3.18799 7.05794 3.18799 6.64128C3.18799 6.21419 3.31299 5.89128 3.56299 5.68294C3.81299 5.47461 4.14632 5.37044 4.56299 5.37044H5.10466C5.11507 5.37044 5.12549 5.36523 5.12549 5.34961V5.03711C5.12549 4.78711 5.06299 4.58919 4.93799 4.43294C4.82341 4.2819 4.67236 4.20378 4.47966 4.20378C4.31299 4.20378 4.17236 4.26107 4.06299 4.37044C3.96403 4.4694 3.90153 4.5944 3.87549 4.74544C3.87549 4.80273 3.84424 4.82878 3.79215 4.82878L3.37549 4.80794C3.34424 4.80794 3.32341 4.80273 3.31299 4.78711C3.29736 4.77669 3.29215 4.76107 3.29215 4.74544C3.3182 4.44336 3.4432 4.19857 3.66715 4.01628C3.8859 3.82357 4.15674 3.72461 4.47966 3.72461ZM4.35466 7.26628C4.56299 7.26628 4.74007 7.19857 4.89632 7.05794C5.04736 6.92253 5.12549 6.73503 5.12549 6.49544V5.84961C5.12549 5.82357 5.11507 5.80794 5.10466 5.80794H4.54216C4.30257 5.80794 4.10986 5.88086 3.95882 6.01628C3.8182 6.14128 3.75049 6.33919 3.75049 6.59961C3.75049 6.82357 3.80257 6.99023 3.91715 7.09961C4.02653 7.21419 4.17236 7.26628 4.35466 7.26628Z" fill="white"/>
<path d="M8.31152 3.84961C8.31152 3.80794 8.33756 3.78711 8.39486 3.78711H8.79069C8.83236 3.78711 8.85319 3.80794 8.85319 3.84961V7.59961C8.85319 7.6569 8.83236 7.68294 8.79069 7.68294H8.39486C8.33756 7.68294 8.31152 7.6569 8.31152 7.59961V7.34961C8.31152 7.33919 8.30111 7.32878 8.29069 7.32878C8.29069 7.32878 8.28027 7.32878 8.26986 7.32878C8.11361 7.61003 7.8584 7.74544 7.49902 7.74544C7.19173 7.74544 6.94694 7.6569 6.76986 7.47461C6.58756 7.2819 6.49902 6.99023 6.49902 6.59961V3.84961C6.49902 3.80794 6.51986 3.78711 6.56152 3.78711H6.95736C7.00944 3.78711 7.04069 3.80794 7.04069 3.84961V6.47461C7.04069 6.74023 7.08756 6.94336 7.18652 7.07878C7.2959 7.20378 7.45736 7.26628 7.66569 7.26628C7.8584 7.26628 8.00944 7.19336 8.12402 7.03711C8.24902 6.88607 8.31152 6.68294 8.31152 6.43294V3.84961Z" fill="white"/>
<path d="M10.9159 7.74544C10.5513 7.74544 10.2596 7.64128 10.0409 7.43294C9.81689 7.21419 9.70752 6.92253 9.70752 6.55794V4.89128C9.70752 4.54753 9.81689 4.26628 10.0409 4.05794C10.2596 3.83919 10.5513 3.72461 10.9159 3.72461C11.1659 3.72461 11.3794 3.77669 11.5617 3.87044C11.7388 3.9694 11.8794 4.09961 11.9784 4.26628C12.0877 4.42253 12.145 4.5944 12.145 4.78711V4.87044C12.145 4.92773 12.1138 4.95378 12.0617 4.95378H11.6659C11.6086 4.95378 11.5825 4.93294 11.5825 4.89128V4.82878C11.5825 4.66211 11.52 4.51628 11.395 4.39128C11.27 4.26628 11.1086 4.20378 10.9159 4.20378C10.7179 4.20378 10.5617 4.27669 10.4367 4.41211C10.3221 4.53711 10.27 4.71419 10.27 4.93294V6.53711C10.27 6.74544 10.3221 6.92253 10.4367 7.05794C10.5617 7.19857 10.7179 7.26628 10.9159 7.26628C11.1086 7.26628 11.27 7.20378 11.395 7.07878C11.52 6.95378 11.5825 6.80794 11.5825 6.64128V6.57878C11.5825 6.52669 11.6086 6.49544 11.6659 6.49544L12.0617 6.51628C12.1138 6.51628 12.145 6.53711 12.145 6.57878V6.68294C12.145 6.99023 12.0252 7.24544 11.7909 7.45378C11.5669 7.65169 11.2752 7.74544 10.9159 7.74544Z" fill="white"/>
<path d="M14.2881 3.72461C14.6058 3.72461 14.8506 3.83919 15.0173 4.05794C15.1943 4.26628 15.2881 4.56836 15.2881 4.95378V7.59961C15.2881 7.6569 15.2568 7.68294 15.2048 7.68294H14.8089C14.7516 7.68294 14.7256 7.6569 14.7256 7.59961V4.99544C14.7256 4.74544 14.6683 4.55273 14.5589 4.41211C14.4443 4.27669 14.2933 4.20378 14.1006 4.20378C13.8923 4.20378 13.7308 4.2819 13.6214 4.43294C13.5068 4.58919 13.4548 4.78711 13.4548 5.03711V7.59961C13.4548 7.6569 13.4235 7.68294 13.3714 7.68294H12.9756C12.9339 7.68294 12.9131 7.6569 12.9131 7.59961V2.37044C12.9131 2.31836 12.9339 2.28711 12.9756 2.28711H13.3714C13.4235 2.28711 13.4548 2.31836 13.4548 2.37044V4.09961C13.4548 4.11523 13.4548 4.13086 13.4548 4.14128C13.4652 4.14128 13.4808 4.13607 13.4964 4.12044C13.5798 3.98503 13.6891 3.88607 13.8298 3.82878C13.9808 3.76107 14.1318 3.72461 14.2881 3.72461Z" fill="white"/>
<path d="M18.8517 3.72461C19.2111 3.72461 19.4976 3.8444 19.7059 4.07878C19.9246 4.30273 20.0392 4.61523 20.0392 5.01628V7.59961C20.0392 7.6569 20.0184 7.68294 19.9767 7.68294H19.5809C19.5236 7.68294 19.4976 7.6569 19.4976 7.59961V7.37044C19.4976 7.36003 19.4871 7.34961 19.4767 7.34961C19.4767 7.34961 19.4663 7.36003 19.4559 7.37044C19.258 7.62044 18.9767 7.74544 18.6017 7.74544C18.3205 7.74544 18.0809 7.67253 17.8726 7.51628C17.6642 7.34961 17.5601 7.05794 17.5601 6.64128C17.5601 6.21419 17.6851 5.89128 17.9351 5.68294C18.1851 5.47461 18.5184 5.37044 18.9351 5.37044H19.4767C19.4871 5.37044 19.4976 5.36523 19.4976 5.34961V5.03711C19.4976 4.78711 19.4351 4.58919 19.3101 4.43294C19.1955 4.2819 19.0444 4.20378 18.8517 4.20378C18.6851 4.20378 18.5444 4.26107 18.4351 4.37044C18.3361 4.4694 18.2736 4.5944 18.2476 4.74544C18.2476 4.80273 18.2163 4.82878 18.1642 4.82878L17.7476 4.80794C17.7163 4.80794 17.6955 4.80273 17.6851 4.78711C17.6694 4.77669 17.6642 4.76107 17.6642 4.74544C17.6903 4.44336 17.8153 4.19857 18.0392 4.01628C18.258 3.82357 18.5288 3.72461 18.8517 3.72461ZM18.7267 7.26628C18.9351 7.26628 19.1121 7.19857 19.2684 7.05794C19.4194 6.92253 19.4976 6.73503 19.4976 6.49544V5.84961C19.4976 5.82357 19.4871 5.80794 19.4767 5.80794H18.9142C18.6746 5.80794 18.4819 5.88086 18.3309 6.01628C18.1903 6.14128 18.1226 6.33919 18.1226 6.59961C18.1226 6.82357 18.1746 6.99023 18.2892 7.09961C18.3986 7.21419 18.5444 7.26628 18.7267 7.26628Z" fill="white"/>
<path d="M20.9334 7.68294C20.8761 7.68294 20.8501 7.6569 20.8501 7.59961V2.37044C20.8501 2.31836 20.8761 2.28711 20.9334 2.28711H21.3293C21.3813 2.28711 21.4126 2.31836 21.4126 2.37044V7.59961C21.4126 7.6569 21.3813 7.68294 21.3293 7.68294H20.9334Z" fill="white"/>
<path d="M22.3716 7.68294C22.3299 7.68294 22.3091 7.6569 22.3091 7.59961V2.37044C22.3091 2.31836 22.3299 2.28711 22.3716 2.28711H22.7674C22.8195 2.28711 22.8507 2.31836 22.8507 2.37044V5.45378C22.8507 5.4694 22.8507 5.48503 22.8507 5.49544C22.8612 5.49544 22.8768 5.49023 22.8924 5.47461L24.0382 3.82878C24.0643 3.80273 24.1007 3.78711 24.1424 3.78711H24.5382C24.5643 3.78711 24.5851 3.79753 24.6007 3.80794C24.6112 3.82357 24.606 3.8444 24.5799 3.87044L23.8091 4.97461C23.7935 4.99023 23.7935 5.00586 23.8091 5.01628L24.7257 7.59961V7.62044C24.7257 7.66211 24.7049 7.68294 24.6632 7.68294H24.2466C24.2049 7.68294 24.1737 7.66211 24.1632 7.62044L23.4757 5.47461C23.4601 5.44857 23.4445 5.44857 23.4341 5.47461L22.8716 6.26628C22.856 6.2819 22.8507 6.29753 22.8507 6.30794V7.59961C22.8507 7.6569 22.8195 7.68294 22.7674 7.68294H22.3716Z" fill="white"/>
<path d="M26.4816 7.74544C26.1066 7.74544 25.8045 7.64128 25.5858 7.43294C25.3618 7.21419 25.2524 6.92253 25.2524 6.55794V4.91211C25.2524 4.56836 25.3618 4.2819 25.5858 4.05794C25.8045 3.83919 26.1066 3.72461 26.4816 3.72461C26.841 3.72461 27.1326 3.83919 27.3566 4.05794C27.5754 4.2819 27.6899 4.56836 27.6899 4.91211V6.55794C27.6899 6.92253 27.5754 7.21419 27.3566 7.43294C27.1326 7.64128 26.841 7.74544 26.4816 7.74544ZM26.4816 7.26628C26.6743 7.26628 26.8358 7.19857 26.9608 7.05794C27.0858 6.92253 27.1483 6.74544 27.1483 6.53711V4.93294C27.1483 4.71419 27.0858 4.53711 26.9608 4.41211C26.8358 4.27669 26.6743 4.20378 26.4816 4.20378C26.2837 4.20378 26.1274 4.27669 26.0024 4.41211C25.8774 4.53711 25.8149 4.71419 25.8149 4.93294V6.53711C25.8149 6.74544 25.8774 6.92253 26.0024 7.05794C26.1274 7.19857 26.2837 7.26628 26.4816 7.26628Z" fill="white"/>
<path d="M29.9331 3.72461C30.2508 3.72461 30.4956 3.83919 30.6623 4.05794C30.8394 4.26628 30.9331 4.56836 30.9331 4.95378V7.59961C30.9331 7.6569 30.9019 7.68294 30.8498 7.68294H30.4539C30.3966 7.68294 30.3706 7.6569 30.3706 7.59961V4.99544C30.3706 4.74544 30.3133 4.55273 30.2039 4.41211C30.0894 4.27669 29.9383 4.20378 29.7456 4.20378C29.5373 4.20378 29.3758 4.2819 29.2664 4.43294C29.1519 4.58919 29.0998 4.78711 29.0998 5.03711V7.59961C29.0998 7.6569 29.0685 7.68294 29.0164 7.68294H28.6206C28.5789 7.68294 28.5581 7.6569 28.5581 7.59961V2.37044C28.5581 2.31836 28.5789 2.28711 28.6206 2.28711H29.0164C29.0685 2.28711 29.0998 2.31836 29.0998 2.37044V4.09961C29.0998 4.11523 29.0998 4.13086 29.0998 4.14128C29.1102 4.14128 29.1258 4.13607 29.1414 4.12044C29.2248 3.98503 29.3341 3.88607 29.4748 3.82878C29.6258 3.76107 29.7769 3.72461 29.9331 3.72461Z" fill="white"/>
<path d="M32.9538 7.74544C32.5788 7.74544 32.2767 7.64128 32.0579 7.43294C31.834 7.21419 31.7246 6.92253 31.7246 6.55794V4.91211C31.7246 4.56836 31.834 4.2819 32.0579 4.05794C32.2767 3.83919 32.5788 3.72461 32.9538 3.72461C33.3132 3.72461 33.6048 3.83919 33.8288 4.05794C34.0475 4.2819 34.1621 4.56836 34.1621 4.91211V6.55794C34.1621 6.92253 34.0475 7.21419 33.8288 7.43294C33.6048 7.64128 33.3132 7.74544 32.9538 7.74544ZM32.9538 7.26628C33.1465 7.26628 33.3079 7.19857 33.4329 7.05794C33.5579 6.92253 33.6204 6.74544 33.6204 6.53711V4.93294C33.6204 4.71419 33.5579 4.53711 33.4329 4.41211C33.3079 4.27669 33.1465 4.20378 32.9538 4.20378C32.7559 4.20378 32.5996 4.27669 32.4746 4.41211C32.3496 4.53711 32.2871 4.71419 32.2871 4.93294V6.53711C32.2871 6.74544 32.3496 6.92253 32.4746 7.05794C32.5996 7.19857 32.7559 7.26628 32.9538 7.26628Z" fill="white"/>
<path d="M35.0511 7.68294C34.9938 7.68294 34.9678 7.6569 34.9678 7.59961V2.37044C34.9678 2.31836 34.9938 2.28711 35.0511 2.28711H35.4469C35.499 2.28711 35.5303 2.31836 35.5303 2.37044V7.59961C35.5303 7.6569 35.499 7.68294 35.4469 7.68294H35.0511Z" fill="white"/>
<path d="M37.6558 2.70378C37.4578 2.70378 37.3224 2.77669 37.2391 2.91211C37.1558 3.03711 37.1141 3.24023 37.1141 3.51628V3.74544C37.1141 3.77669 37.1245 3.78711 37.1558 3.78711H37.7391C37.7912 3.78711 37.8224 3.80794 37.8224 3.84961V4.12044C37.8224 4.16211 37.7912 4.18294 37.7391 4.18294H37.1558C37.1245 4.18294 37.1141 4.19857 37.1141 4.22461V7.59961C37.1141 7.6569 37.0933 7.68294 37.0516 7.68294H36.6558C36.5985 7.68294 36.5724 7.6569 36.5724 7.59961V4.22461C36.5724 4.19857 36.562 4.18294 36.5516 4.18294H36.2391C36.1818 4.18294 36.1558 4.16211 36.1558 4.12044V3.84961C36.1558 3.80794 36.1818 3.78711 36.2391 3.78711H36.5516C36.562 3.78711 36.5724 3.77669 36.5724 3.74544V3.49544C36.5724 3.05273 36.6558 2.73503 36.8224 2.53711C36.9891 2.32878 37.2651 2.22461 37.6558 2.22461H37.7599C37.812 2.22461 37.8433 2.25586 37.8433 2.30794L37.8224 2.62044C37.8224 2.67773 37.8016 2.70378 37.7599 2.70378H37.6558Z" fill="white"/>
<path d="M39.876 3.74561C40.001 3.74561 40.1104 3.77685 40.2093 3.82894C40.2354 3.84456 40.251 3.88102 40.251 3.93311L40.1468 4.32894C40.1468 4.37061 40.1156 4.38623 40.0635 4.37061C39.9906 4.34456 39.9176 4.32894 39.8343 4.32894C39.7926 4.32894 39.7562 4.32894 39.7301 4.32894C39.5479 4.34456 39.3968 4.44352 39.2718 4.62061C39.1572 4.8029 39.1051 5.02685 39.1051 5.28727V7.59977C39.1051 7.65706 39.0739 7.68311 39.0218 7.68311H38.626C38.5843 7.68311 38.5635 7.65706 38.5635 7.59977V3.84977C38.5635 3.80811 38.5843 3.78727 38.626 3.78727H39.0218C39.0739 3.78727 39.1051 3.80811 39.1051 3.84977V4.32894C39.1051 4.34456 39.1051 4.34977 39.1051 4.34977C39.1156 4.34977 39.1312 4.34456 39.1468 4.32894C39.2822 3.94352 39.527 3.74561 39.876 3.74561Z" fill="white"/>
<path d="M43.0978 5.87044C43.0978 5.91211 43.077 5.93294 43.0353 5.93294H41.2645C41.2489 5.93294 41.2437 5.94857 41.2437 5.97461V6.53711C41.2437 6.74544 41.2957 6.92253 41.4103 7.05794C41.5353 7.19857 41.6916 7.26628 41.8895 7.26628C42.0562 7.26628 42.1916 7.2194 42.3062 7.12044C42.4312 7.02669 42.5041 6.89128 42.5353 6.72461C42.5457 6.68294 42.577 6.66211 42.6187 6.66211L43.0145 6.68294C43.0249 6.68294 43.0405 6.69336 43.0562 6.70378C43.0822 6.7194 43.0874 6.74023 43.077 6.76628C43.0353 7.05794 42.9103 7.29753 42.702 7.47461C42.4937 7.6569 42.2228 7.74544 41.8895 7.74544C41.5249 7.74544 41.2332 7.64128 41.0145 7.43294C40.7905 7.21419 40.6812 6.92253 40.6812 6.55794V4.89128C40.6812 4.54753 40.7905 4.26628 41.0145 4.05794C41.2332 3.83919 41.5249 3.72461 41.8895 3.72461C42.2645 3.72461 42.5562 3.83919 42.7645 4.05794C42.9832 4.26628 43.0978 4.54753 43.0978 4.89128V5.87044ZM41.8895 4.20378C41.6916 4.20378 41.5353 4.27669 41.4103 4.41211C41.2957 4.53711 41.2437 4.71419 41.2437 4.93294V5.45378C41.2437 5.48503 41.2489 5.49544 41.2645 5.49544H42.5353C42.5457 5.49544 42.5562 5.48503 42.5562 5.45378V4.93294C42.5562 4.71419 42.4937 4.53711 42.3687 4.41211C42.2541 4.27669 42.0978 4.20378 41.8895 4.20378Z" fill="white"/>
<path d="M44.2375 3.07861C44.1125 3.07861 44.0083 3.03695 43.925 2.95361C43.8521 2.87028 43.8208 2.76611 43.8208 2.64111C43.8208 2.51611 43.8521 2.41195 43.925 2.32861C44.0083 2.24528 44.1125 2.20361 44.2375 2.20361C44.3625 2.20361 44.4666 2.24528 44.55 2.32861C44.6333 2.41195 44.675 2.51611 44.675 2.64111C44.675 2.76611 44.6333 2.87028 44.55 2.95361C44.4666 3.03695 44.3625 3.07861 44.2375 3.07861ZM44.05 7.68278C44.0083 7.68278 43.9875 7.65674 43.9875 7.59945V3.84945C43.9875 3.80778 44.0083 3.78695 44.05 3.78695H44.4458C44.4979 3.78695 44.5291 3.80778 44.5291 3.84945V7.59945C44.5291 7.65674 44.4979 7.68278 44.4458 7.68278H44.05Z" fill="white"/>
<path d="M50.1769 3.72461C50.4946 3.72461 50.7394 3.8444 50.9061 4.07878C51.0728 4.30273 51.1561 4.61523 51.1561 5.01628V7.59961C51.1561 7.6569 51.1248 7.68294 51.0728 7.68294H50.6978C50.6405 7.68294 50.6144 7.6569 50.6144 7.59961V5.05794C50.6144 4.79753 50.5571 4.58919 50.4478 4.43294C50.3332 4.2819 50.1873 4.20378 50.0103 4.20378C49.8123 4.20378 49.6613 4.2819 49.5519 4.43294C49.4373 4.58919 49.3853 4.78711 49.3853 5.03711V7.59961C49.3853 7.6569 49.354 7.68294 49.3019 7.68294H48.9061C48.8644 7.68294 48.8436 7.6569 48.8436 7.59961V5.05794C48.8436 4.79753 48.7863 4.58919 48.6769 4.43294C48.5623 4.2819 48.4165 4.20378 48.2394 4.20378C48.0415 4.20378 47.8853 4.2819 47.7603 4.43294C47.6457 4.58919 47.5936 4.78711 47.5936 5.03711V7.59961C47.5936 7.6569 47.5728 7.68294 47.5311 7.68294H47.1353C47.0936 7.68294 47.0728 7.6569 47.0728 7.59961V3.84961C47.0728 3.80794 47.0936 3.78711 47.1353 3.78711H47.5311C47.5728 3.78711 47.5936 3.80794 47.5936 3.84961V4.09961C47.5936 4.11523 47.5988 4.12044 47.6144 4.12044C47.6248 4.12044 47.6353 4.11523 47.6353 4.09961C47.729 3.97461 47.8488 3.88607 47.9894 3.82878C48.1248 3.76107 48.2655 3.72461 48.4061 3.72461C48.5988 3.72461 48.7655 3.77669 48.9061 3.87044C49.0571 3.9694 49.1769 4.09961 49.2603 4.26628C49.2603 4.2819 49.2603 4.28711 49.2603 4.28711C49.2707 4.28711 49.2863 4.2819 49.3019 4.26628C49.3957 4.08919 49.5207 3.95378 49.6769 3.87044C49.828 3.77669 49.9946 3.72461 50.1769 3.72461Z" fill="white"/>
<path d="M53.1965 7.74528C52.8215 7.74528 52.5194 7.64111 52.3006 7.43278C52.0767 7.21403 51.9673 6.92236 51.9673 6.55778V4.91195C51.9673 4.5682 52.0767 4.28174 52.3006 4.05778C52.5194 3.83903 52.8215 3.72445 53.1965 3.72445C53.5558 3.72445 53.8475 3.83903 54.0715 4.05778C54.2902 4.28174 54.4048 4.5682 54.4048 4.91195V6.55778C54.4048 6.92236 54.2902 7.21403 54.0715 7.43278C53.8475 7.64111 53.5558 7.74528 53.1965 7.74528ZM53.1965 7.26611C53.3892 7.26611 53.5506 7.19841 53.6756 7.05778C53.8006 6.92236 53.8631 6.74528 53.8631 6.53695V4.93278C53.8631 4.71403 53.8006 4.53695 53.6756 4.41195C53.5506 4.27653 53.3892 4.20361 53.1965 4.20361C52.9985 4.20361 52.8423 4.27653 52.7173 4.41195C52.5923 4.53695 52.5298 4.71403 52.5298 4.93278V6.53695C52.5298 6.74528 52.5923 6.92236 52.7173 7.05778C52.8423 7.19841 52.9985 7.26611 53.1965 7.26611ZM53.759 3.07861C53.634 3.07861 53.5298 3.03695 53.4465 2.95361C53.3631 2.87028 53.3215 2.76611 53.3215 2.64111C53.3215 2.51611 53.3631 2.41195 53.4465 2.32861C53.5298 2.24528 53.634 2.20361 53.759 2.20361C53.884 2.20361 53.9881 2.24528 54.0715 2.32861C54.1548 2.41195 54.1965 2.51611 54.1965 2.64111C54.1965 2.76611 54.1548 2.87028 54.0715 2.95361C53.9881 3.03695 53.884 3.07861 53.759 3.07861ZM52.6131 3.07861C52.4881 3.07861 52.384 3.03695 52.3006 2.95361C52.2173 2.87028 52.1756 2.76611 52.1756 2.64111C52.1756 2.51611 52.2173 2.41195 52.3006 2.32861C52.384 2.24528 52.4881 2.20361 52.6131 2.20361C52.7381 2.20361 52.8423 2.24528 52.9256 2.32861C53.009 2.41195 53.0506 2.51611 53.0506 2.64111C53.0506 2.76611 53.009 2.87028 52.9256 2.95361C52.8423 3.03695 52.7381 3.07861 52.6131 3.07861Z" fill="white"/>
<path d="M57.0361 3.84961C57.0361 3.80794 57.057 3.78711 57.0986 3.78711H57.4945C57.5465 3.78711 57.5778 3.80794 57.5778 3.84961V7.59961C57.5778 8.15169 57.4424 8.56836 57.182 8.84961C56.932 9.14128 56.5049 9.27148 55.9111 9.24544C55.8695 9.24544 55.8486 9.21419 55.8486 9.16211V8.82878C55.8486 8.77148 55.8695 8.74544 55.9111 8.74544C56.3278 8.75586 56.6195 8.66732 56.7861 8.47461C56.9528 8.27669 57.0361 7.97461 57.0361 7.55794V7.32878C57.0361 7.31836 57.0257 7.30794 57.0153 7.30794C57.0153 7.30794 57.0049 7.30794 56.9945 7.30794C56.9111 7.43294 56.7965 7.5319 56.6611 7.59961C56.5205 7.67253 56.3747 7.70378 56.2236 7.70378C55.9007 7.70378 55.6455 7.59961 55.4528 7.39128C55.2549 7.17253 55.1611 6.88607 55.1611 6.53711V4.89128C55.1611 4.54753 55.2549 4.26628 55.4528 4.05794C55.6455 3.83919 55.9007 3.72461 56.2236 3.72461C56.3747 3.72461 56.5205 3.76107 56.6611 3.82878C56.7965 3.88607 56.9111 3.97461 56.9945 4.09961C57.0049 4.11523 57.0153 4.12044 57.0153 4.12044C57.0257 4.12044 57.0361 4.11523 57.0361 4.09961V3.84961ZM56.3903 7.22461C56.5674 7.22461 56.7236 7.16211 56.8486 7.03711C56.9736 6.90169 57.0361 6.7194 57.0361 6.49544V4.93294C57.0361 4.71419 56.9736 4.53711 56.8486 4.41211C56.7236 4.27669 56.5674 4.20378 56.3903 4.20378C56.1924 4.20378 56.0361 4.27669 55.9111 4.41211C55.7861 4.53711 55.7236 4.71419 55.7236 4.93294V6.49544C55.7236 6.7194 55.7861 6.90169 55.9111 7.03711C56.0361 7.16211 56.1924 7.22461 56.3903 7.22461Z" fill="white"/>
<path d="M58.4725 7.68294C58.4152 7.68294 58.3892 7.6569 58.3892 7.59961V2.37044C58.3892 2.31836 58.4152 2.28711 58.4725 2.28711H58.8683C58.9204 2.28711 58.9517 2.31836 58.9517 2.37044V7.59961C58.9517 7.6569 58.9204 7.68294 58.8683 7.68294H58.4725Z" fill="white"/>
<path d="M60.1603 3.07861C60.0353 3.07861 59.9312 3.03695 59.8478 2.95361C59.7749 2.87028 59.7437 2.76611 59.7437 2.64111C59.7437 2.51611 59.7749 2.41195 59.8478 2.32861C59.9312 2.24528 60.0353 2.20361 60.1603 2.20361C60.2853 2.20361 60.3895 2.24528 60.4728 2.32861C60.5562 2.41195 60.5978 2.51611 60.5978 2.64111C60.5978 2.76611 60.5562 2.87028 60.4728 2.95361C60.3895 3.03695 60.2853 3.07861 60.1603 3.07861ZM59.9728 7.68278C59.9312 7.68278 59.9103 7.65674 59.9103 7.59945V3.84945C59.9103 3.80778 59.9312 3.78695 59.9728 3.78695H60.3687C60.4207 3.78695 60.452 3.80778 60.452 3.84945V7.59945C60.452 7.65674 60.4207 7.68278 60.3687 7.68278H59.9728Z" fill="white"/>
<path d="M62.5565 7.74544C62.1919 7.74544 61.9002 7.64128 61.6815 7.43294C61.4575 7.21419 61.3481 6.92253 61.3481 6.55794V4.89128C61.3481 4.54753 61.4575 4.26628 61.6815 4.05794C61.9002 3.83919 62.1919 3.72461 62.5565 3.72461C62.8065 3.72461 63.02 3.77669 63.2023 3.87044C63.3794 3.9694 63.52 4.09961 63.619 4.26628C63.7284 4.42253 63.7856 4.5944 63.7856 4.78711V4.87044C63.7856 4.92773 63.7544 4.95378 63.7023 4.95378H63.3065C63.2492 4.95378 63.2231 4.93294 63.2231 4.89128V4.82878C63.2231 4.66211 63.1606 4.51628 63.0356 4.39128C62.9106 4.26628 62.7492 4.20378 62.5565 4.20378C62.3586 4.20378 62.2023 4.27669 62.0773 4.41211C61.9627 4.53711 61.9106 4.71419 61.9106 4.93294V6.53711C61.9106 6.74544 61.9627 6.92253 62.0773 7.05794C62.2023 7.19857 62.3586 7.26628 62.5565 7.26628C62.7492 7.26628 62.9106 7.20378 63.0356 7.07878C63.1606 6.95378 63.2231 6.80794 63.2231 6.64128V6.57878C63.2231 6.52669 63.2492 6.49544 63.3065 6.49544L63.7023 6.51628C63.7544 6.51628 63.7856 6.53711 63.7856 6.57878V6.68294C63.7856 6.99023 63.6659 7.24544 63.4315 7.45378C63.2075 7.65169 62.9159 7.74544 62.5565 7.74544Z" fill="white"/>
<path d="M65.9287 3.72461C66.2464 3.72461 66.4912 3.83919 66.6579 4.05794C66.835 4.26628 66.9287 4.56836 66.9287 4.95378V7.59961C66.9287 7.6569 66.8975 7.68294 66.8454 7.68294H66.4495C66.3923 7.68294 66.3662 7.6569 66.3662 7.59961V4.99544C66.3662 4.74544 66.3089 4.55273 66.1995 4.41211C66.085 4.27669 65.9339 4.20378 65.7412 4.20378C65.5329 4.20378 65.3714 4.2819 65.262 4.43294C65.1475 4.58919 65.0954 4.78711 65.0954 5.03711V7.59961C65.0954 7.6569 65.0641 7.68294 65.012 7.68294H64.6162C64.5745 7.68294 64.5537 7.6569 64.5537 7.59961V2.37044C64.5537 2.31836 64.5745 2.28711 64.6162 2.28711H65.012C65.0641 2.28711 65.0954 2.31836 65.0954 2.37044V4.09961C65.0954 4.11523 65.0954 4.13086 65.0954 4.14128C65.1058 4.14128 65.1214 4.13607 65.137 4.12044C65.2204 3.98503 65.3298 3.88607 65.4704 3.82878C65.6214 3.76107 65.7725 3.72461 65.9287 3.72461Z" fill="white"/>
<path d="M68.304 1.80811C68.3457 1.80811 68.3717 1.82373 68.3874 1.84977C68.5957 2.2404 68.7624 2.72477 68.8874 3.30811C69.0124 3.88102 69.0749 4.47477 69.0749 5.09977C69.0749 5.75602 69.002 6.38102 68.8665 6.97477C68.7415 7.55811 68.5801 8.04248 68.3874 8.43311C68.3561 8.45915 68.3249 8.47477 68.2832 8.47477H67.9082C67.8926 8.47477 67.877 8.46436 67.8665 8.45394C67.8509 8.43831 67.8457 8.41748 67.8457 8.39144C68.0228 7.98519 68.1686 7.50602 68.2832 6.93311C68.3926 6.34977 68.4499 5.74561 68.4499 5.12061C68.4499 4.51123 68.3926 3.92269 68.2832 3.34977C68.1686 2.78206 68.0228 2.29769 67.8457 1.89144C67.8457 1.88102 67.8457 1.8654 67.8457 1.84977C67.8457 1.83936 67.8509 1.82894 67.8665 1.82894C67.877 1.81852 67.8926 1.80811 67.9082 1.80811H68.304Z" fill="white"/>
</g>
</svg>
