<svg width="8" height="11" viewBox="0 0 8 11" fill="none" xmlns="http://www.w3.org/2000/svg">
<path d="M5.65437 0.1875C5.66478 0.135417 5.68562 0.0937507 5.71687 0.0625C5.75853 0.0208333 5.80541 0 5.8627 0H7.63353C7.68562 0 7.72728 0.0208333 7.75853 0.0625C7.78457 0.0937507 7.78978 0.135417 7.77937 0.1875L6.4877 10.7917C6.47207 10.849 6.44603 10.8958 6.40437 10.9375C6.37312 10.9688 6.33145 10.9792 6.27937 10.9792H4.27937C4.18041 10.9792 4.11791 10.9271 4.09187 10.8125L2.94603 4.75C2.94603 4.72396 2.93041 4.71875 2.90437 4.72917C2.87312 4.72917 2.8627 4.74479 2.8627 4.77083L2.13353 10.7917C2.11791 10.849 2.09187 10.8958 2.0502 10.9375C2.00853 10.9688 1.96687 10.9792 1.9252 10.9792H0.154366C0.112699 10.9792 0.0710324 10.9688 0.0293657 10.9375C-0.00188494 10.8958 -0.00709294 10.849 0.0085324 10.7917L1.3002 0.1875C1.31062 0.135417 1.33145 0.0937507 1.3627 0.0625C1.40437 0.0208333 1.45124 0 1.50853 0H3.50853C3.60228 0 3.65957 0.052084 3.6752 0.145833L4.84187 6.22917C4.85228 6.26042 4.86791 6.27083 4.88353 6.27083C4.90957 6.26042 4.9252 6.23958 4.9252 6.20833L5.65437 0.1875Z" fill="white"/>
</svg>
