<svg width="7" height="12" viewBox="0 0 7 12" fill="none" xmlns="http://www.w3.org/2000/svg">
<path d="M4 0.1875C4 0.135416 4.01042 0.0937493 4.04167 0.0625C4.08333 0.0208333 4.13021 0 4.1875 0H6.0625C6.11458 0 6.15625 0.0208333 6.1875 0.0625C6.22917 0.0937493 6.25 0.135416 6.25 0.1875V10.9792C6.25 11.0365 6.22917 11.0833 6.1875 11.125C6.15625 11.1562 6.11458 11.1667 6.0625 11.1667H4.1875C4.13021 11.1667 4.08333 11.1562 4.04167 11.125C4.01042 11.0833 4 11.0365 4 10.9792V6.625C4 6.57292 3.96875 6.54167 3.91667 6.54167H2.33333C2.27604 6.54167 2.25 6.57292 2.25 6.625V10.9792C2.25 11.0365 2.22917 11.0833 2.1875 11.125C2.14583 11.1562 2.10417 11.1667 2.0625 11.1667H0.1875C0.130208 11.1667 0.0833333 11.1562 0.0416667 11.125C0.010416 11.0833 0 11.0365 0 10.9792V0.1875C0 0.135416 0.010416 0.0937493 0.0416667 0.0625C0.0833333 0.0208333 0.130208 0 0.1875 0H2.0625C2.10417 0 2.14583 0.0208333 2.1875 0.0625C2.22917 0.0937493 2.25 0.135416 2.25 0.1875V4.52083C2.25 4.57813 2.27604 4.60417 2.33333 4.60417H3.91667C3.96875 4.60417 4 4.57813 4 4.52083V0.1875Z" fill="#D72333"/>
</svg>
