<svg width="6" height="12" viewBox="0 0 6 12" fill="none" xmlns="http://www.w3.org/2000/svg">
<path d="M2.66667 11.3542C1.85937 11.3542 1.21354 11.1198 0.729167 10.6458C0.239583 10.1615 0 9.51563 0 8.70833V2.64583C0 1.84375 0.239583 1.20313 0.729167 0.729167C1.21354 0.244792 1.85937 0 2.66667 0C3.48437 0 4.13542 0.244792 4.625 0.729167C5.125 1.21875 5.375 1.86458 5.375 2.66667V3.33333C5.375 3.44792 5.31771 3.5 5.20833 3.5H4.41667C4.30208 3.5 4.25 3.44792 4.25 3.33333V2.625C4.25 2.125 4.10417 1.72917 3.8125 1.4375C3.53125 1.13542 3.15104 0.979167 2.66667 0.979167C2.20833 0.979167 1.83333 1.13542 1.54167 1.4375C1.25 1.74479 1.10417 2.14063 1.10417 2.625V8.72917C1.10417 9.21875 1.25 9.61458 1.54167 9.91667C1.83333 10.224 2.20833 10.375 2.66667 10.375C3.15104 10.375 3.53125 10.224 3.8125 9.91667C4.10417 9.61458 4.25 9.21875 4.25 8.72917V6.6875C4.25 6.64583 4.22917 6.625 4.1875 6.625H2.8125C2.71354 6.625 2.66667 6.57292 2.66667 6.45833V5.79167C2.66667 5.69792 2.71354 5.64583 2.8125 5.64583H5.20833C5.31771 5.64583 5.375 5.69792 5.375 5.79167V8.70833C5.375 9.51563 5.125 10.1615 4.625 10.6458C4.13542 11.1198 3.48437 11.3542 2.66667 11.3542Z" fill="#D72333"/>
</svg>
