<svg width="5" height="11" viewBox="0 0 5 11" fill="none" xmlns="http://www.w3.org/2000/svg">
<path d="M2.625 2.85417C3.26042 2.85417 3.77604 3.07292 4.16667 3.5C4.56771 3.91667 4.77083 4.47917 4.77083 5.1875V8.5C4.77083 9.18229 4.57292 9.74479 4.1875 10.1875C3.79687 10.6198 3.27604 10.8333 2.625 10.8333C2.34375 10.8333 2.08333 10.776 1.83333 10.6667C1.58333 10.5573 1.35937 10.3958 1.16667 10.1875C1.13542 10.1771 1.11458 10.1771 1.10417 10.1875C1.08854 10.1875 1.08333 10.2031 1.08333 10.2292V10.5625C1.08333 10.6615 1.03125 10.7083 0.9375 10.7083H0.145833C0.0468747 10.7083 0 10.6615 0 10.5625V0.166667C0 0.057292 0.0468747 0 0.145833 0H0.9375C1.03125 0 1.08333 0.057292 1.08333 0.166667V3.45833C1.08333 3.48958 1.08854 3.51042 1.10417 3.52083C1.13021 3.52083 1.15104 3.51042 1.16667 3.47917C1.35937 3.27083 1.58333 3.11979 1.83333 3.02083C2.08333 2.91146 2.34375 2.85417 2.625 2.85417ZM3.6875 5.27083C3.6875 4.82813 3.5625 4.47396 3.3125 4.20833C3.0625 3.93229 2.73958 3.79167 2.35417 3.79167C1.97917 3.79167 1.67187 3.93229 1.4375 4.20833C1.19792 4.47396 1.08333 4.82813 1.08333 5.27083V8.4375C1.08333 8.85417 1.19792 9.20313 1.4375 9.47917C1.67187 9.74479 1.97917 9.875 2.35417 9.875C2.73958 9.875 3.0625 9.74479 3.3125 9.47917C3.5625 9.20313 3.6875 8.85417 3.6875 8.4375V5.27083Z" fill="#D72333"/>
</svg>
