<svg width="5" height="9" viewBox="0 0 5 9" fill="none" xmlns="http://www.w3.org/2000/svg">
<path d="M2.47917 8.29167C1.72917 8.29167 1.125 8.07292 0.666667 7.625C0.218749 7.18229 0 6.59896 0 5.875V2.4375C0 1.71875 0.229167 1.13542 0.6875 0.6875C1.14583 0.229167 1.73958 0 2.47917 0C2.97917 0 3.41667 0.104167 3.79167 0.3125C4.17708 0.510416 4.46875 0.770833 4.66667 1.10417C4.875 1.4375 4.97917 1.80729 4.97917 2.20833V2.375C4.97917 2.47396 4.92708 2.52083 4.83333 2.52083L4.02083 2.5625C3.90625 2.5625 3.85417 2.51042 3.85417 2.39583V2.29167C3.85417 1.94792 3.71875 1.64583 3.45833 1.39583C3.20833 1.13542 2.88021 1 2.47917 1C2.07292 1 1.75 1.14063 1.5 1.41667C1.25 1.69792 1.125 2.0625 1.125 2.52083V5.79167C1.125 6.23958 1.25 6.60417 1.5 6.89583C1.75 7.17708 2.07292 7.3125 2.47917 7.3125C2.88021 7.3125 3.20833 7.1875 3.45833 6.9375C3.71875 6.67708 3.85417 6.36458 3.85417 6V5.89583C3.85417 5.78646 3.90625 5.72917 4.02083 5.72917L4.83333 5.75C4.92708 5.75 4.97917 5.80729 4.97917 5.91667V6.08333C4.97917 6.72396 4.75 7.25 4.29167 7.66667C3.83333 8.08333 3.22917 8.29167 2.47917 8.29167Z" fill="#D72333"/>
</svg>
