<svg width="5" height="8" viewBox="0 0 5 8" fill="none" xmlns="http://www.w3.org/2000/svg">
<path d="M3.60417 0.145833C3.60417 0.052084 3.65625 0 3.77083 0H4.54167C4.63542 0 4.6875 0.052084 4.6875 0.145833V7.58333C4.6875 7.68229 4.63542 7.72917 4.54167 7.72917H3.77083C3.65625 7.72917 3.60417 7.68229 3.60417 7.58333V7.0625C3.60417 7.03646 3.59375 7.02083 3.58333 7.02083C3.56771 7.02083 3.55208 7.03125 3.54167 7.04167C3.21875 7.57292 2.70833 7.83333 2 7.83333C1.38542 7.83333 0.901041 7.65625 0.541667 7.29167C0.177084 6.91667 0 6.34896 0 5.58333V0.145833C0 0.052084 0.0468747 0 0.145833 0H0.9375C1.03125 0 1.08333 0.052084 1.08333 0.145833V5.33333C1.08333 5.84896 1.1875 6.23958 1.39583 6.5C1.60417 6.76563 1.90625 6.89583 2.3125 6.89583C2.71354 6.89583 3.02604 6.75 3.25 6.45833C3.48437 6.15625 3.60417 5.74479 3.60417 5.22917V0.145833Z" fill="#D72333"/>
</svg>
