<svg width="6" height="12" viewBox="0 0 6 12" fill="none" xmlns="http://www.w3.org/2000/svg">
<path d="M2.79167 0C3.56771 0 4.19271 0.286459 4.66667 0.854167C5.15104 1.42708 5.39583 2.17708 5.39583 3.10417C5.39583 4.02083 5.15625 4.76042 4.6875 5.3125C4.22917 5.86979 3.61458 6.14583 2.85417 6.14583H1.20833C1.16667 6.14583 1.14583 6.16667 1.14583 6.20833V11.0208C1.14583 11.1354 1.08854 11.1875 0.979167 11.1875H0.166667C0.0520827 11.1875 0 11.1354 0 11.0208V0.166667C0 0.057292 0.0520827 0 0.166667 0H2.79167ZM2.66667 5.22917C3.13542 5.22917 3.52083 5.03646 3.8125 4.64583C4.11458 4.26042 4.27083 3.74479 4.27083 3.10417C4.27083 2.46875 4.11458 1.95833 3.8125 1.58333C3.52083 1.19792 3.13542 1 2.66667 1H1.20833C1.16667 1 1.14583 1.02083 1.14583 1.0625V5.14583C1.14583 5.20313 1.16667 5.22917 1.20833 5.22917H2.66667Z" fill="#D72333"/>
</svg>
