<svg width="17" height="20" viewBox="0 0 17 20" fill="none" xmlns="http://www.w3.org/2000/svg">
<path d="M15.5 19.7121H15.375C15.0417 19.6183 14.6875 19.5819 14.3125 19.6079C13.9375 19.6392 13.5833 19.66 13.25 19.6704C13.0521 19.6704 12.8646 19.6861 12.6875 19.7121C12.5208 19.7381 12.3438 19.7433 12.1667 19.7329C11.9167 19.7225 11.6771 19.6652 11.4583 19.5663C11.25 19.4569 11.0417 19.3527 10.8333 19.2538C10.8021 19.0767 10.7604 18.8944 10.7083 18.7121C10.6667 18.535 10.5938 18.3736 10.5 18.2329C10.375 18.0402 10.2292 17.8788 10.0625 17.7538C9.90625 17.6183 9.75521 17.4777 9.60417 17.3371C9.48958 17.2017 9.38542 17.0611 9.29167 16.9204C9.19271 16.7694 9.10417 16.6183 9.02083 16.4621C8.94792 16.285 8.89583 16.0975 8.85417 15.8996C8.82292 15.7069 8.76042 15.5142 8.66667 15.3163C8.59375 15.1652 8.5 15.0402 8.375 14.9413C8.25 14.8475 8.13021 14.7277 8.02083 14.5871C7.89583 14.4517 7.79167 14.2954 7.70833 14.1288C7.63542 13.9517 7.56771 13.7694 7.5 13.5871C7.34375 13.1704 7.17188 12.785 6.97917 12.4204C6.78125 12.061 6.53125 11.7225 6.22917 11.3996L6.375 11.1913L5.75 11.1496L5.33333 11.5246L5.58333 11.7329C5.52604 12.0819 5.46875 12.4308 5.41667 12.7746C5.35938 13.1079 5.35417 13.4569 5.39583 13.8163C5.4375 14.0402 5.48438 14.3058 5.54167 14.6079C5.59375 14.8996 5.52083 15.1392 5.3125 15.3163C5.38021 15.6392 5.42188 15.9621 5.4375 16.2954C5.46354 16.6183 5.45833 16.9361 5.41667 17.2538C5.40104 17.4777 5.375 17.7017 5.33333 17.9204C5.30208 18.1288 5.29167 18.3319 5.29167 18.5246C5.29167 18.9569 5.10417 19.2694 4.72917 19.4621C4.35417 19.6444 3.90104 19.7381 3.375 19.7538L3.29167 19.6288L2.91667 19.5871L2.85417 19.7954C2.67187 19.7017 2.47917 19.6808 2.27083 19.7329C2.0625 19.7746 1.85417 19.8006 1.64583 19.8163C1.46354 19.8267 1.28125 19.8215 1.10417 19.7954C0.921875 19.7642 0.739583 19.7433 0.5625 19.7329C0.380208 19.3475 0.276041 18.9517 0.25 18.5454C0.234375 18.1288 0.239583 17.7121 0.270833 17.2954C0.3125 16.8683 0.296875 16.4517 0.229167 16.0454C0.213541 15.8788 0.1875 15.7225 0.145833 15.5663C0.104167 15.4152 0.0937507 15.2538 0.125 15.0871C0.135417 14.9204 0.166667 14.7694 0.208333 14.6288C0.260417 14.4777 0.276041 14.3163 0.25 14.1496C0.234375 13.7902 0.197916 13.436 0.145833 13.0871C0.0885413 12.7277 0.052084 12.3735 0.0416667 12.0246C0.0104173 11.6392 0.0208333 11.2642 0.0625 10.8996C0.114583 10.5246 0.166667 10.16 0.208333 9.79542C0.234375 9.42042 0.218751 9.06626 0.166667 8.73292C0.109375 8.39959 0.072916 8.05584 0.0625 7.69126C0.0625 7.31626 0.0885413 6.95167 0.145833 6.58709C0.213541 6.21209 0.260417 5.84751 0.291667 5.48292C0.317708 4.64959 0.218751 3.86834 0 3.12876L0.0416667 3.08709C0.177084 2.83709 0.218751 2.58709 0.166667 2.33709C0.151041 2.16001 0.130208 1.98292 0.104167 1.81626C0.0885413 1.63917 0.072916 1.46209 0.0625 1.29542C0.0208333 0.86834 0.1875 0.535007 0.5625 0.295424H0.583333C0.75 0.186049 0.9375 0.128757 1.14583 0.128757C1.40625 0.102716 1.65625 0.0766734 1.89583 0.045424C2.14583 0.00375736 2.38542 -0.00665998 2.625 0.00375736C2.90104 0.00375736 3.17708 0.0245907 3.45833 0.0662574C3.75 0.107924 4.03125 0.139175 4.3125 0.149591C4.75521 0.191257 5.06771 0.420424 5.25 0.837091C5.38542 1.18605 5.41667 1.54022 5.33333 1.89959C5.25 2.26417 5.23958 2.66001 5.3125 3.08709C5.53125 4.36834 5.53125 5.62876 5.3125 6.87876L5.45833 7.10792C5.65104 7.12355 5.88021 7.03501 6.14583 6.83709C6.42188 6.64438 6.64583 6.49855 6.8125 6.39959C6.85417 6.05584 7 5.80584 7.25 5.64959C7.5 5.48292 7.76042 5.31105 8.04167 5.12876L7.9375 4.64959L8.45833 4.52459C8.92708 3.79022 9.44792 3.05584 10.0208 2.31626C10.6042 1.56626 11.2396 0.910007 11.9375 0.337091C11.9635 0.311049 11.9792 0.274591 11.9792 0.232924C11.9792 0.107924 12.0469 0.0610494 12.1875 0.0870907C12.5052 0.170424 12.8021 0.191257 13.0833 0.149591C13.375 0.107924 13.6667 0.097508 13.9583 0.107924C14.25 0.123549 14.5312 0.248549 14.8125 0.482924C14.8802 0.555841 14.8854 0.61834 14.8333 0.670424C14.401 1.20167 13.9375 1.70688 13.4375 2.19126C12.9479 2.68084 12.5312 3.22251 12.1875 3.81626C11.8125 4.41522 11.3594 4.95688 10.8333 5.44126C10.3177 5.91522 9.90104 6.47772 9.58333 7.12876C9.95833 7.68605 10.3542 8.23292 10.7708 8.77459C11.1875 9.30584 11.5469 9.86834 11.8542 10.4621C11.9792 10.7017 12.0885 10.9413 12.1875 11.1913C12.2969 11.4308 12.4427 11.66 12.625 11.8788C12.7917 12.0871 12.9427 12.2954 13.0833 12.5038C13.2188 12.7017 13.3594 12.9308 13.5 13.1913C13.625 13.4413 13.7604 13.6704 13.9167 13.8788C14.0677 14.0871 14.2344 14.311 14.4167 14.5454C14.6094 14.785 14.7396 15.0402 14.8125 15.3163C14.8802 15.5975 14.9896 15.8683 15.1458 16.1288C15.3802 16.5767 15.6667 16.9829 16 17.3579C16.3438 17.7329 16.5521 18.1913 16.625 18.7329C16.625 18.7642 16.6562 18.8163 16.7292 18.8996C16.8229 18.9569 16.8594 19.0402 16.8333 19.1496C16.8177 19.2486 16.7708 19.3111 16.6875 19.3371C16.4896 19.4204 16.2969 19.4933 16.1042 19.5454C15.9062 19.6027 15.7083 19.66 15.5 19.7121Z" fill="#D72333"/>
</svg>
