<svg width="13" height="11" viewBox="0 0 13 11" fill="none" xmlns="http://www.w3.org/2000/svg">
<path d="M5.95833 0C6.01042 0 6.05208 0.0208333 6.08333 0.0625C6.125 0.0937507 6.14583 0.125 6.14583 0.166667V1.58333C6.14583 1.64063 6.125 1.6875 6.08333 1.72917C6.05208 1.76042 6.01042 1.77083 5.95833 1.77083H4.14583C4.08854 1.77083 4.0625 1.79167 4.0625 1.83333V10.0625C4.0625 10.1042 4.04167 10.1458 4 10.1875C3.96875 10.2188 3.9375 10.2292 3.89583 10.2292H2.16667C2.125 10.2292 2.08333 10.2188 2.04167 10.1875C2.01042 10.1458 2 10.1042 2 10.0625V1.83333C2 1.79167 1.97917 1.77083 1.9375 1.77083H0.166667C0.125 1.77083 0.0833333 1.76042 0.0416667 1.72917C0.0104173 1.6875 0 1.64063 0 1.58333V0.166667C0 0.125 0.0104173 0.0937507 0.0416667 0.0625C0.0833333 0.0208333 0.125 0 0.166667 0H5.95833Z" fill="#D72333"/>
<path d="M6.95133 10.2292C6.90967 10.2292 6.868 10.2188 6.82633 10.1875C6.79508 10.1458 6.78467 10.1042 6.78467 10.0625V8.58333C6.78467 8.5 6.79508 8.42708 6.82633 8.35417L9.95133 1.85417C9.96175 1.82813 9.96175 1.80729 9.95133 1.79167C9.95133 1.78125 9.93571 1.77083 9.90967 1.77083H6.95133C6.90967 1.77083 6.868 1.76042 6.82633 1.72917C6.79508 1.6875 6.78467 1.64063 6.78467 1.58333V0.166667C6.78467 0.125 6.79508 0.0937507 6.82633 0.0625C6.868 0.0208333 6.90967 0 6.95133 0H11.993C12.0347 0 12.0659 0.0208333 12.0972 0.0625C12.1388 0.0937507 12.1597 0.125 12.1597 0.166667V1.64583C12.1597 1.71875 12.144 1.78646 12.118 1.85417L8.993 8.375C8.97738 8.40625 8.97738 8.42708 8.993 8.4375C9.00342 8.45313 9.02425 8.45833 9.0555 8.45833H11.993C12.0347 8.45833 12.0659 8.47917 12.0972 8.52083C12.1388 8.55208 12.1597 8.58333 12.1597 8.625V10.0625C12.1597 10.1042 12.1388 10.1458 12.0972 10.1875C12.0659 10.2188 12.0347 10.2292 11.993 10.2292H6.95133Z" fill="#D72333"/>
</svg>
