<svg width="6" height="9" viewBox="0 0 6 9" fill="none" xmlns="http://www.w3.org/2000/svg">
<path d="M2.9375 8.33333C2.04687 8.33333 1.33333 8.125 0.791667 7.70833C0.260416 7.28125 0 6.70313 0 5.97917V5.875C0 5.82292 0.0208333 5.78125 0.0625 5.75C0.104167 5.70833 0.145833 5.6875 0.1875 5.6875H1.9375C1.98958 5.6875 2.03125 5.70833 2.0625 5.75C2.10417 5.78125 2.125 5.82292 2.125 5.875V5.91667C2.125 6.14063 2.19792 6.32813 2.35417 6.47917C2.52083 6.61979 2.71354 6.6875 2.9375 6.6875C3.15625 6.6875 3.32292 6.625 3.4375 6.5C3.5625 6.375 3.625 6.21875 3.625 6.02083C3.625 5.80208 3.52083 5.625 3.3125 5.5C3.11458 5.36458 2.89583 5.25 2.64583 5.16667C2.40625 5.07292 2.23958 5.01042 2.14583 4.97917C1.5625 4.76042 1.06771 4.46875 0.666667 4.10417C0.276041 3.72917 0.0833333 3.1875 0.0833333 2.47917C0.0833333 1.70313 0.333333 1.09896 0.833333 0.666667C1.34375 0.223959 2.02604 0 2.875 0C3.75 0 4.4375 0.229167 4.9375 0.6875C5.44792 1.14583 5.70833 1.77083 5.70833 2.5625C5.70833 2.61979 5.6875 2.66667 5.64583 2.70833C5.61458 2.73958 5.57292 2.75 5.52083 2.75H3.83333C3.77604 2.75 3.72917 2.73958 3.6875 2.70833C3.65625 2.66667 3.64583 2.61979 3.64583 2.5625V2.4375C3.64583 2.22917 3.57292 2.0625 3.4375 1.9375C3.3125 1.80208 3.14583 1.72917 2.9375 1.72917C2.71354 1.72917 2.53125 1.80729 2.39583 1.95833C2.27083 2.09896 2.20833 2.26042 2.20833 2.4375C2.20833 2.6875 2.31771 2.89063 2.54167 3.04167C2.76042 3.18229 3.08854 3.33333 3.52083 3.5C3.97917 3.66667 4.36458 3.84375 4.6875 4.02083C5.00521 4.1875 5.28125 4.4375 5.52083 4.77083C5.75521 5.09375 5.875 5.48958 5.875 5.95833C5.875 6.69792 5.60417 7.28125 5.0625 7.70833C4.53125 8.125 3.82292 8.33333 2.9375 8.33333Z" fill="#D72333"/>
</svg>
