<svg width="18" height="19" viewBox="0 0 18 19" fill="none" xmlns="http://www.w3.org/2000/svg">
<path d="M5 3.27083V12.5417C5 13.849 5.30208 14.7708 5.91667 15.3125C6.54167 15.8438 7.4375 16.1042 8.60417 16.1042C9.77083 16.1042 10.6719 15.8229 11.3125 15.25C11.9635 14.6667 12.2917 13.8125 12.2917 12.6875V2.45833L10.6667 2.375V0H17.2917V2.27083L16.3542 2.35417C15.8125 2.41146 15.5417 2.6875 15.5417 3.1875V13.1667C15.5417 14.974 14.9063 16.3906 13.6458 17.4167C12.3802 18.4323 10.6302 18.9375 8.39583 18.9375C6.15625 18.9375 4.46354 18.4479 3.3125 17.4583C2.17187 16.4583 1.60417 14.875 1.60417 12.7083V2.45833L0 2.375V0H6.75V2.27083L5.83333 2.35417C5.52604 2.39583 5.3125 2.47917 5.1875 2.60417C5.0625 2.71875 5 2.9375 5 3.27083Z" fill="#D72333"/>
</svg>
