<svg width="6" height="15" viewBox="0 0 6 15" fill="none" xmlns="http://www.w3.org/2000/svg">
<path d="M2.75 14.5417C1.92708 14.5417 1.26042 14.2917 0.75 13.7917C0.25 13.2813 0 12.599 0 11.75V5.91667C0 5.07292 0.25 4.39583 0.75 3.89583C1.26042 3.38542 1.92708 3.125 2.75 3.125C3.58333 3.125 4.25 3.38542 4.75 3.89583C5.26042 4.39583 5.52083 5.07292 5.52083 5.91667V11.75C5.52083 12.5833 5.26042 13.2604 4.75 13.7708C4.25 14.2865 3.58333 14.5417 2.75 14.5417ZM2.75 13.5625C3.23437 13.5625 3.63021 13.4063 3.9375 13.0833C4.23958 12.75 4.39583 12.3281 4.39583 11.8125V5.85417C4.39583 5.34375 4.23958 4.92708 3.9375 4.60417C3.63021 4.27083 3.23437 4.10417 2.75 4.10417C2.26042 4.10417 1.875 4.27083 1.58333 4.60417C1.29167 4.92708 1.14583 5.34375 1.14583 5.85417V11.8125C1.14583 12.3281 1.29167 12.75 1.58333 13.0833C1.875 13.4063 2.26042 13.5625 2.75 13.5625ZM3.9375 1.79167C3.67187 1.79167 3.45833 1.70833 3.29167 1.54167C3.125 1.36458 3.04167 1.14583 3.04167 0.895833C3.04167 0.635416 3.125 0.416667 3.29167 0.25C3.45833 0.0833333 3.67187 0 3.9375 0C4.1875 0 4.39583 0.0833333 4.5625 0.25C4.73958 0.416667 4.83333 0.635416 4.83333 0.895833C4.83333 1.14583 4.73958 1.36458 4.5625 1.54167C4.39583 1.70833 4.1875 1.79167 3.9375 1.79167ZM1.5625 1.79167C1.29687 1.79167 1.08333 1.70833 0.916667 1.54167C0.75 1.36458 0.666667 1.14583 0.666667 0.895833C0.666667 0.635416 0.75 0.416667 0.916667 0.25C1.08333 0.0833333 1.29687 0 1.5625 0C1.8125 0 2.02083 0.0833333 2.1875 0.25C2.36458 0.416667 2.45833 0.635416 2.45833 0.895833C2.45833 1.14583 2.36458 1.36458 2.1875 1.54167C2.02083 1.70833 1.8125 1.79167 1.5625 1.79167Z" fill="#D72333"/>
</svg>
