<svg width="6" height="12" viewBox="0 0 6 12" fill="none" xmlns="http://www.w3.org/2000/svg">
<path d="M2.6875 3.10417C3.4375 3.10417 4.03125 3.34896 4.47917 3.83333C4.92188 4.32292 5.14583 4.96875 5.14583 5.77083V11.1042C5.14583 11.2188 5.08854 11.2708 4.97917 11.2708H4.16667C4.06771 11.2708 4.02083 11.2188 4.02083 11.1042V10.6458C4.02083 10.6198 4.00521 10.6042 3.97917 10.6042C3.96354 10.5938 3.94792 10.599 3.9375 10.625C3.53125 11.1406 2.94271 11.3958 2.16667 11.3958C1.58333 11.3958 1.07292 11.2292 0.645833 10.8958C0.213541 10.5625 0 9.97396 0 9.125C0 8.22396 0.255208 7.5625 0.770833 7.14583C1.29687 6.72917 1.98437 6.52083 2.83333 6.52083H3.9375C3.98958 6.52083 4.02083 6.5 4.02083 6.45833V5.83333C4.02083 5.30729 3.89583 4.89063 3.64583 4.58333C3.39583 4.26563 3.06771 4.10417 2.66667 4.10417C2.34375 4.10417 2.06771 4.20833 1.83333 4.41667C1.60937 4.625 1.47917 4.89583 1.4375 5.22917C1.4375 5.32813 1.38021 5.375 1.27083 5.375H0.395833C0.338541 5.375 0.296875 5.36458 0.270833 5.33333C0.239584 5.29167 0.234375 5.25 0.25 5.20833C0.302083 4.58333 0.552083 4.07813 1 3.6875C1.45833 3.30208 2.02083 3.10417 2.6875 3.10417ZM2.41667 10.4167C2.84375 10.4167 3.21875 10.2812 3.54167 10C3.85937 9.70833 4.02083 9.32292 4.02083 8.83333V7.5C4.02083 7.45833 3.98958 7.4375 3.9375 7.4375H2.8125C2.3125 7.4375 1.90625 7.57292 1.60417 7.83333C1.3125 8.09896 1.16667 8.5 1.16667 9.04167C1.16667 9.5 1.27604 9.84896 1.5 10.0833C1.73437 10.3073 2.04167 10.4167 2.41667 10.4167ZM3.83333 1.77083C3.56771 1.77083 3.35417 1.6875 3.1875 1.52083C3.03125 1.35417 2.95833 1.14583 2.95833 0.895833C2.95833 0.635417 3.03125 0.416667 3.1875 0.25C3.35417 0.0833333 3.56771 0 3.83333 0C4.09375 0 4.3125 0.0833333 4.47917 0.25C4.64583 0.416667 4.72917 0.635417 4.72917 0.895833C4.72917 1.14583 4.64583 1.35417 4.47917 1.52083C4.3125 1.6875 4.09375 1.77083 3.83333 1.77083ZM1.47917 1.77083C1.21354 1.77083 1 1.6875 0.833333 1.52083C0.677083 1.35417 0.604167 1.14583 0.604167 0.895833C0.604167 0.635417 0.677083 0.416667 0.833333 0.25C1 0.0833333 1.21354 0 1.47917 0C1.73958 0 1.95833 0.0833333 2.125 0.25C2.29167 0.416667 2.375 0.635417 2.375 0.895833C2.375 1.14583 2.29167 1.35417 2.125 1.52083C1.95833 1.6875 1.73958 1.77083 1.47917 1.77083Z" fill="#D72333"/>
</svg>
