<svg width="5" height="8" viewBox="0 0 5 8" fill="none" xmlns="http://www.w3.org/2000/svg">
<path d="M2.29167 7.64583C1.59375 7.64583 1.04167 7.44792 0.625 7.04167C0.208333 6.625 0 6.07813 0 5.39583V2.25C0 1.58333 0.208333 1.04167 0.625 0.625C1.04167 0.208333 1.59375 0 2.29167 0C2.75 0 3.15104 0.0989587 3.5 0.291667C3.84375 0.473959 4.11458 0.718751 4.3125 1.02083C4.50521 1.32813 4.60417 1.66667 4.60417 2.04167V2.1875C4.60417 2.28646 4.55208 2.33333 4.45833 2.33333L3.70833 2.35417C3.60937 2.35417 3.5625 2.30729 3.5625 2.20833V2.10417C3.5625 1.78646 3.4375 1.51042 3.1875 1.27083C2.94792 1.03646 2.65104 0.916667 2.29167 0.916667C1.91667 0.916667 1.60937 1.05208 1.375 1.3125C1.15104 1.5625 1.04167 1.89583 1.04167 2.3125V5.33333C1.04167 5.75 1.15104 6.09375 1.375 6.35417C1.60937 6.60417 1.91667 6.72917 2.29167 6.72917C2.65104 6.72917 2.94792 6.61458 3.1875 6.375C3.4375 6.14063 3.5625 5.86458 3.5625 5.54167V5.4375C3.5625 5.34375 3.60937 5.29167 3.70833 5.29167H4.45833C4.55208 5.29167 4.60417 5.34375 4.60417 5.4375V5.60417C4.60417 6.1875 4.38542 6.67708 3.95833 7.0625C3.52604 7.45313 2.96875 7.64583 2.29167 7.64583Z" fill="#D72333"/>
</svg>
