<svg width="2" height="11" viewBox="0 0 2 11" fill="none" xmlns="http://www.w3.org/2000/svg">
<path d="M0.8125 1.625C0.5625 1.625 0.359375 1.55208 0.208333 1.39583C0.067708 1.24479 0 1.05208 0 0.8125C0 0.5625 0.067708 0.369792 0.208333 0.229167C0.359375 0.0781253 0.5625 0 0.8125 0C1.04687 0 1.23958 0.0781253 1.39583 0.229167C1.54687 0.369792 1.625 0.5625 1.625 0.8125C1.625 1.05208 1.54687 1.24479 1.39583 1.39583C1.23958 1.55208 1.04687 1.625 0.8125 1.625ZM0.4375 10.375C0.338541 10.375 0.291667 10.3281 0.291667 10.2292V3.125C0.291667 3.03125 0.338541 2.97917 0.4375 2.97917H1.1875C1.28125 2.97917 1.33333 3.03125 1.33333 3.125V10.2292C1.33333 10.3281 1.28125 10.375 1.1875 10.375H0.4375Z" fill="#D72333"/>
</svg>
