<svg width="16" height="19" viewBox="0 0 16 19" fill="none" xmlns="http://www.w3.org/2000/svg">
<path d="M14.0246 18.7292C13.7589 18.8125 13.5662 18.8542 13.4412 18.8542C13.3162 18.8542 13.0975 18.8125 12.7954 18.7292L12.4621 18.8958C12.1964 18.7865 11.9829 18.7188 11.8162 18.6875C11.66 18.6615 11.4621 18.6667 11.2121 18.7083C11.1287 18.7083 11.0662 18.7448 11.0246 18.8125C10.8996 18.9375 10.7642 18.9427 10.6287 18.8333C10.5558 18.7812 10.4725 18.7292 10.3787 18.6875C10.2798 18.6354 10.2017 18.5573 10.1496 18.4583C10.0662 18.3229 10.0142 18.1771 10.0037 18.0208C10.0037 17.8542 10.0037 17.6979 10.0037 17.5417L9.64957 17.3333L9.73291 16.875L9.46207 16.8542C9.37874 16.3698 9.24333 15.9792 9.06624 15.6875C8.89957 15.3854 8.63395 15.0625 8.27457 14.7292C8.25895 14.3438 8.21728 14.0521 8.14957 13.8542C8.09228 13.6615 7.96207 13.4271 7.75374 13.1458C7.54541 12.8438 7.34749 12.5365 7.17041 12.2292C7.00374 11.9271 6.80062 11.6458 6.56624 11.3958C6.32666 11.4375 6.10791 11.4948 5.89957 11.5625C5.70166 11.6198 5.53499 11.75 5.39957 11.9583C5.21728 12.2396 5.12874 12.5729 5.12874 12.9583C5.12874 13.349 5.11833 13.7083 5.10791 14.0417C5.10791 14.4063 5.11833 14.75 5.14957 15.0833C5.19124 15.4167 5.19124 15.7604 5.14957 16.1042C5.13395 16.3021 5.14957 16.4792 5.19124 16.6458C5.23291 16.8125 5.26416 16.9948 5.29541 17.1875C5.32145 17.3698 5.31624 17.5417 5.27457 17.7083C5.23291 17.875 5.18082 18.0521 5.12874 18.2292C5.11312 18.2448 5.11833 18.2865 5.14957 18.3542C5.19124 18.3698 5.20166 18.4063 5.19124 18.4583C5.19124 18.5156 5.17041 18.5417 5.12874 18.5417C4.90478 18.6146 4.68082 18.6823 4.46207 18.75C4.25374 18.8073 4.03499 18.8542 3.81624 18.8958C3.52457 18.9219 3.22249 18.9219 2.92041 18.8958C2.62874 18.8646 2.34228 18.8229 2.06624 18.75C2.03499 18.75 2.01416 18.7604 2.00374 18.7708C1.98812 18.7708 1.97249 18.7708 1.96207 18.7708C1.71207 18.9479 1.42041 18.9896 1.08707 18.8958C0.764157 18.8021 0.482908 18.6875 0.232908 18.5625C0.201658 18.5365 0.191241 18.4896 0.191241 18.4167C0.300616 18.0313 0.326658 17.625 0.274574 17.2083C0.232908 16.7813 0.212074 16.3698 0.212074 15.9792C0.212074 15.8021 0.196449 15.625 0.170408 15.4583C0.139157 15.2813 0.133949 15.099 0.149574 14.9167C0.149574 14.724 0.175616 14.5417 0.232908 14.375C0.284992 14.1979 0.305824 14.0104 0.295408 13.8125C0.264157 13.3958 0.196449 13 0.0870742 12.625C-0.0118845 12.25 -0.0275098 11.8698 0.0454075 11.4792C0.0870742 11.2865 0.139157 11.0938 0.212074 10.8958C0.279782 10.7031 0.305824 10.5104 0.295408 10.3125C0.295408 10.1198 0.264157 9.91667 0.212074 9.70833C0.154782 9.5 0.0922822 9.30729 0.0245742 9.125L0.232908 8.75C0.159992 8.53125 0.128741 8.30729 0.128741 8.08333C0.139157 7.86458 0.159992 7.63542 0.191241 7.39583C0.217282 7.16146 0.212074 6.91667 0.170408 6.66667C0.139157 6.40625 0.118325 6.14063 0.107908 5.875C0.0766582 5.64063 0.0870742 5.41146 0.128741 5.1875C0.180824 4.96875 0.212074 4.74479 0.212074 4.52083C0.22249 4.35417 0.217282 4.17708 0.191241 3.97917C0.159992 3.77083 0.217282 3.60417 0.357908 3.47917L0.149574 2.79167L0.191241 2.77083C0.107908 2.26042 0.107908 1.76563 0.191241 1.29167C0.217282 1.01563 0.326658 0.770833 0.524574 0.5625C0.732908 0.354167 0.982908 0.239584 1.27457 0.208333C1.35791 0.197917 1.44645 0.1875 1.54541 0.1875C1.63916 0.1875 1.74332 0.1875 1.85791 0.1875C2.06624 0.203125 2.26416 0.239584 2.46207 0.291667C2.67041 0.348959 2.87874 0.354167 3.08707 0.3125C3.27978 0.270833 3.46728 0.218749 3.64957 0.145833C3.84228 0.0781253 4.04541 0.0416667 4.25374 0.0416667C4.48812 0.0416667 4.71207 0.0833333 4.92041 0.166667C5.13916 0.25 5.36833 0.307292 5.60791 0.333333C5.80062 0.166667 6.00895 0.0937493 6.23291 0.104167C6.45166 0.104167 6.65999 0.145833 6.85791 0.229167L7.19124 0C7.36833 0.0729173 7.54541 0.140625 7.71207 0.208333C7.87874 0.265625 8.05062 0.302083 8.23291 0.3125C8.42562 0.3125 8.60791 0.302083 8.77457 0.270833C8.94124 0.244792 9.10791 0.229167 9.27457 0.229167C9.65999 0.229167 10.0454 0.291667 10.4204 0.416667C10.7954 0.531251 11.16 0.635416 11.5246 0.729167C12.1756 0.927083 12.6756 1.26042 13.0246 1.72917C13.3839 2.20313 13.7537 2.70313 14.1287 3.22917C14.3214 3.51042 14.4933 3.80208 14.6496 4.10417C14.8162 4.39583 14.8839 4.72396 14.8579 5.08333C14.8579 5.41667 14.8423 5.78125 14.8162 6.16667C14.8006 6.55729 14.7173 6.89583 14.5662 7.1875C14.4517 7.49479 14.3579 7.82813 14.2746 8.1875C14.1912 8.53646 14.0506 8.84896 13.8579 9.125C13.66 9.41667 13.41 9.67708 13.1079 9.89583C12.8006 10.1042 12.4881 10.3021 12.1704 10.4792C12.1964 11.6615 12.6131 12.7083 13.4204 13.625C13.3787 14.0156 13.4308 14.3958 13.5871 14.7708C13.7381 15.1458 13.8996 15.5 14.0662 15.8333C14.16 16.0156 14.2746 16.1823 14.3996 16.3333C14.535 16.4896 14.6548 16.6615 14.7537 16.8542C14.8475 16.9948 14.9204 17.1458 14.9621 17.3125C15.0037 17.4688 15.0506 17.6198 15.1079 17.7708C15.1183 17.8958 15.2173 17.9948 15.3996 18.0625L14.9204 18.5625C14.8371 18.6615 14.7329 18.7083 14.6079 18.7083H14.1496C14.1339 18.7083 14.1131 18.7188 14.0871 18.7292C14.0714 18.7292 14.0506 18.7292 14.0246 18.7292ZM6.69124 2.47917L6.31624 2.58333V2.79167L5.69124 2.5625C5.57666 2.70313 5.47249 2.82813 5.37874 2.9375C5.29541 3.03646 5.17562 3.13542 5.02457 3.22917C5.02457 3.39583 5.07145 3.55729 5.17041 3.70833C5.26416 3.84896 5.32666 3.99479 5.35791 4.14583C5.39957 4.32813 5.39957 4.51042 5.35791 4.6875C5.31624 4.85417 5.29541 5.03125 5.29541 5.20833C5.26416 5.65625 5.24333 6.09375 5.23291 6.52083C5.23291 6.9375 5.15999 7.35417 5.02457 7.77083L5.50374 9.0625C5.75374 8.97917 5.99333 8.96875 6.23291 9.02083C6.48291 9.07813 6.73291 9.10417 6.98291 9.10417C7.23291 9.11979 7.46207 9.08333 7.67041 9C7.88916 8.91667 8.11312 8.84375 8.33707 8.77083C8.52978 8.3125 8.73812 7.88542 8.96207 7.47917C9.19645 7.0625 9.38916 6.625 9.54541 6.16667C9.44645 5.91667 9.32145 5.57292 9.17041 5.125C9.02978 4.68229 8.99333 4.32292 9.06624 4.04167C8.84228 4.01563 8.64957 3.82813 8.48291 3.47917C8.31624 3.13542 8.17562 2.86979 8.06624 2.6875C7.88395 2.86979 7.65478 2.89583 7.37874 2.77083C7.09749 2.64583 6.86833 2.55208 6.69124 2.47917Z" fill="#D72333"/>
</svg>
