<svg width="7" height="11" viewBox="0 0 7 11" fill="none" xmlns="http://www.w3.org/2000/svg">
<path d="M0.166667 10.2292C0.125 10.2292 0.0833333 10.2188 0.0416667 10.1875C0.0104173 10.1458 0 10.1042 0 10.0625V0.166667C0 0.125 0.0104173 0.0937507 0.0416667 0.0625C0.0833333 0.0208333 0.125 0 0.166667 0H1.875C1.92708 0 1.96875 0.0208333 2 0.0625C2.04167 0.0937507 2.0625 0.125 2.0625 0.166667V3.85417C2.0625 3.89583 2.06771 3.91667 2.08333 3.91667C2.10937 3.91667 2.13021 3.90625 2.14583 3.875L4.04167 0.125C4.08333 0.0416667 4.14583 0 4.22917 0H6.0625C6.11458 0 6.15625 0.0208333 6.1875 0.0625C6.21354 0.0937507 6.21354 0.135417 6.1875 0.1875L4.02083 4.41667C4.00521 4.44792 4 4.47396 4 4.5L6.29167 10.0208C6.30208 10.0521 6.3125 10.0781 6.3125 10.1042C6.3125 10.1875 6.26042 10.2292 6.16667 10.2292H4.33333C4.23438 10.2292 4.17188 10.1875 4.14583 10.1042L2.625 6.27083C2.60937 6.24479 2.58854 6.22917 2.5625 6.22917C2.54687 6.22917 2.53125 6.24479 2.52083 6.27083L2.08333 7.02083C2.06771 7.0625 2.0625 7.09375 2.0625 7.10417V10.0625C2.0625 10.1042 2.04167 10.1458 2 10.1875C1.96875 10.2188 1.92708 10.2292 1.875 10.2292H0.166667Z" fill="#D72333"/>
</svg>
