<svg width="4" height="11" viewBox="0 0 4 11" fill="none" xmlns="http://www.w3.org/2000/svg">
<path d="M2.95833 0.9375C2.56771 0.9375 2.29167 1.07292 2.125 1.33333C1.96875 1.58333 1.89583 1.98958 1.89583 2.54167V3.02083C1.89583 3.0625 1.91667 3.08333 1.95833 3.08333H3.125C3.21875 3.08333 3.27083 3.13542 3.27083 3.22917V3.72917C3.27083 3.84375 3.21875 3.89583 3.125 3.89583H1.95833C1.91667 3.89583 1.89583 3.91146 1.89583 3.9375V10.6667C1.89583 10.7656 1.83854 10.8125 1.72917 10.8125H0.979167C0.864583 10.8125 0.8125 10.7656 0.8125 10.6667V3.9375C0.8125 3.91146 0.791667 3.89583 0.75 3.89583H0.145833C0.0468747 3.89583 0 3.84375 0 3.72917V3.22917C0 3.13542 0.0468747 3.08333 0.145833 3.08333H0.75C0.791667 3.08333 0.8125 3.0625 0.8125 3.02083V2.52083C0.8125 1.63542 0.968751 0.994792 1.29167 0.604167C1.625 0.203125 2.17187 0 2.9375 0H3.14583C3.25521 0 3.3125 0.052084 3.3125 0.145833L3.29167 0.791667C3.29167 0.890625 3.23958 0.9375 3.14583 0.9375H2.95833Z" fill="#D72333"/>
</svg>
