<svg width="8" height="8" viewBox="0 0 8 8" fill="none" xmlns="http://www.w3.org/2000/svg">
<path d="M1.77083 7.72917C1.6875 7.72917 1.63021 7.68229 1.60417 7.58333L0 0.166667V0.125C0 0.0416667 0.0416667 0 0.125 0H0.875C0.984375 0 1.04167 0.0416667 1.04167 0.125L2.14583 5.97917C2.15625 5.99479 2.16667 6 2.16667 6C2.17708 6 2.19271 5.99479 2.20833 5.97917L3.33333 0.125C3.35937 0.0416667 3.41667 0 3.5 0H4.1875C4.29688 0 4.35938 0.0416667 4.375 0.125L5.5 5.97917C5.51042 5.99479 5.52083 6 5.52083 6C5.53125 6 5.54688 5.99479 5.5625 5.97917L6.6875 0.125C6.71354 0.0416667 6.77083 0 6.85417 0H7.58333C7.69271 0 7.73958 0.057292 7.72917 0.166667L6.10417 7.58333C6.08854 7.68229 6.03125 7.72917 5.9375 7.72917H5.16667C5.06771 7.72917 5.01042 7.68229 5 7.58333L3.85417 2C3.85417 1.97396 3.84375 1.95833 3.83333 1.95833C3.81771 1.95833 3.80208 1.97396 3.79167 2L2.70833 7.58333C2.70833 7.68229 2.65104 7.72917 2.54167 7.72917H1.77083Z" fill="#D72333"/>
</svg>
