<svg width="6" height="9" viewBox="0 0 6 9" fill="none" xmlns="http://www.w3.org/2000/svg">
<path d="M2.64583 8.95833C1.83854 8.95833 1.19271 8.76042 0.708333 8.35417C0.234375 7.9375 0 7.39063 0 6.70833V6.58333C0 6.47396 0.0625 6.41667 0.1875 6.41667H1.02083C1.13021 6.41667 1.1875 6.47396 1.1875 6.58333V6.6875C1.1875 7.0625 1.31771 7.375 1.58333 7.625C1.85937 7.875 2.21875 8 2.66667 8C3.08333 8 3.41667 7.875 3.66667 7.625C3.92708 7.375 4.0625 7.05208 4.0625 6.64583C4.0625 6.35417 3.97917 6.10417 3.8125 5.89583C3.64583 5.6875 3.44792 5.53125 3.22917 5.41667C3.02083 5.30729 2.69792 5.15625 2.27083 4.95833C1.82292 4.78125 1.44792 4.59896 1.14583 4.41667C0.854167 4.23958 0.604167 3.98958 0.395833 3.66667C0.1875 3.33333 0.0833333 2.91146 0.0833333 2.39583C0.0833333 1.66146 0.302083 1.07813 0.75 0.645833C1.20833 0.218749 1.82292 0 2.60417 0C3.39583 0 4.02083 0.223959 4.47917 0.666667C4.94792 1.09896 5.1875 1.68229 5.1875 2.41667V2.45833C5.1875 2.58333 5.125 2.64583 5 2.64583H4.20833C4.09375 2.64583 4.04167 2.58333 4.04167 2.45833V2.35417C4.04167 1.96875 3.90625 1.64583 3.64583 1.39583C3.38021 1.13542 3.04167 1 2.625 1C2.20833 1 1.875 1.13542 1.625 1.39583C1.375 1.66146 1.25 1.97917 1.25 2.35417C1.25 2.63542 1.32292 2.86979 1.47917 3.0625C1.63021 3.26042 1.81771 3.41667 2.04167 3.54167C2.26042 3.65625 2.56771 3.80208 2.95833 3.97917C3.42708 4.1875 3.81771 4.39063 4.125 4.58333C4.42708 4.76563 4.69792 5.02083 4.9375 5.35417C5.17188 5.6875 5.29167 6.10417 5.29167 6.60417C5.29167 7.3125 5.04688 7.88542 4.5625 8.3125C4.08854 8.74479 3.44792 8.95833 2.64583 8.95833Z" fill="#D72333"/>
</svg>
