<svg width="7" height="12" viewBox="0 0 7 12" fill="none" xmlns="http://www.w3.org/2000/svg">
<path d="M0.1875 11.1667C0.130208 11.1667 0.0833333 11.1562 0.0416667 11.125C0.010416 11.0833 0 11.0365 0 10.9792V0.1875C0 0.135416 0.010416 0.0937493 0.0416667 0.0625C0.0833333 0.0208333 0.130208 0 0.1875 0H2.0625C2.10417 0 2.14583 0.0208333 2.1875 0.0625C2.22917 0.0937493 2.25 0.135416 2.25 0.1875V4.20833C2.25 4.25 2.26042 4.28125 2.29167 4.29167C2.31771 4.29167 2.33333 4.27083 2.33333 4.22917L4.39583 0.145833C4.44792 0.0520827 4.52604 0 4.625 0H6.60417C6.67188 0 6.71875 0.0208333 6.75 0.0625C6.77604 0.0937493 6.77604 0.145833 6.75 0.229167L4.375 4.8125C4.375 4.85417 4.375 4.89063 4.375 4.91667L6.875 10.9375C6.88542 10.9688 6.89583 11 6.89583 11.0417C6.89583 11.125 6.83854 11.1667 6.72917 11.1667H4.72917C4.61458 11.1667 4.54167 11.1198 4.5 11.0208L2.85417 6.83333C2.83854 6.80729 2.81771 6.80208 2.79167 6.8125C2.77604 6.8125 2.75521 6.82292 2.72917 6.83333L2.27083 7.66667C2.25521 7.70833 2.25 7.74479 2.25 7.77083V10.9792C2.25 11.0365 2.22917 11.0833 2.1875 11.125C2.14583 11.1562 2.10417 11.1667 2.0625 11.1667H0.1875Z" fill="#D72333"/>
</svg>
