<svg width="4" height="8" viewBox="0 0 4 8" fill="none" xmlns="http://www.w3.org/2000/svg">
<path d="M2.5625 0.208333C2.5625 0.125 2.59375 0.0833333 2.66667 0.0833333H3.20833C3.27604 0.0833333 3.3125 0.125 3.3125 0.208333V5.375C3.3125 6.13542 3.13021 6.71354 2.77083 7.10417C2.42187 7.48958 1.83854 7.67188 1.02083 7.64583C0.947917 7.63021 0.916667 7.58854 0.916667 7.52083V7.0625C0.916667 6.98958 0.947917 6.95833 1.02083 6.95833C1.58854 6.96875 1.98437 6.83854 2.20833 6.5625C2.44271 6.29688 2.5625 5.88021 2.5625 5.3125V4.97917C2.5625 4.96875 2.55208 4.95833 2.54167 4.95833C2.52604 4.94792 2.51042 4.94792 2.5 4.95833C2.375 5.14063 2.21354 5.28125 2.02083 5.375C1.83854 5.47396 1.64583 5.52083 1.4375 5.52083C0.989584 5.52083 0.635416 5.375 0.375 5.08333C0.125 4.78125 0 4.375 0 3.875V1.64583C0 1.14583 0.125 0.75 0.375 0.458333C0.635416 0.156249 0.989584 0 1.4375 0C1.64583 0 1.83854 0.052084 2.02083 0.145833C2.21354 0.229167 2.375 0.364583 2.5 0.541667C2.51042 0.557292 2.52604 0.5625 2.54167 0.5625C2.55208 0.5625 2.5625 0.552084 2.5625 0.520833V0.208333ZM1.66667 4.85417C1.92708 4.85417 2.14583 4.76563 2.3125 4.58333C2.47917 4.39063 2.5625 4.14063 2.5625 3.83333V1.6875C2.5625 1.38542 2.47917 1.14063 2.3125 0.958333C2.14583 0.765625 1.92708 0.666667 1.66667 0.666667C1.38542 0.666667 1.16667 0.765625 1 0.958333C0.833333 1.14063 0.75 1.38542 0.75 1.6875V3.83333C0.75 4.14063 0.833333 4.39063 1 4.58333C1.16667 4.76563 1.38542 4.85417 1.66667 4.85417Z" fill="#D72333"/>
</svg>
