<svg width="6" height="9" viewBox="0 0 6 9" fill="none" xmlns="http://www.w3.org/2000/svg">
<path d="M2.1875 8.08333C2.08854 8.08333 2.02604 8.03646 2 7.9375L0.0208333 0.1875L0 0.125C0 0.0416667 0.0468747 0 0.145833 0H1.08333C1.17708 0 1.23437 0.0520827 1.25 0.145833L2.625 6.20833C2.63542 6.23958 2.64583 6.25 2.64583 6.25C2.65625 6.25 2.67187 6.23958 2.6875 6.20833L4.04167 0.145833C4.06771 0.0520827 4.13021 0 4.22917 0L5.14583 0.0208333C5.19792 0.0208333 5.23958 0.0416667 5.27083 0.0833333C5.29688 0.114584 5.29688 0.156251 5.27083 0.208333L3.3125 7.9375C3.29687 8.03646 3.23958 8.08333 3.14583 8.08333H2.1875Z" fill="#D72333"/>
</svg>
