<svg width="10" height="8" viewBox="0 0 10 8" fill="none" xmlns="http://www.w3.org/2000/svg">
<path d="M7.79167 3.9375C7.85938 3.72917 7.96875 3.57813 8.125 3.47917C8.29167 3.38542 8.45833 3.33333 8.625 3.33333C8.81771 3.33333 9 3.39583 9.16667 3.52083C9.34375 3.63542 9.4375 3.79167 9.4375 4C9.4375 4.08333 9.42188 4.16146 9.39583 4.22917C9.07292 5.14583 8.71354 5.86458 8.3125 6.375C7.90625 6.89063 7.48438 7.25 7.04167 7.45833C6.60938 7.66667 6.17708 7.77083 5.75 7.77083C5.34375 7.77083 4.97917 7.69792 4.64583 7.54167C4.3125 7.375 4.04688 7.14583 3.85417 6.85417C3.60417 7.11979 3.32292 7.34375 3.02083 7.52083C2.72917 7.6875 2.38021 7.77083 1.97917 7.77083C1.60417 7.77083 1.26042 7.69792 0.958333 7.54167C0.666667 7.39063 0.427083 7.18229 0.25 6.91667C0.0833333 6.64063 0 6.32813 0 5.97917C0 5.74479 0.0416667 5.51042 0.125 5.27083L1.66667 0.75C1.76042 0.489583 1.89583 0.302084 2.0625 0.1875C2.23958 0.0625 2.42708 0 2.625 0C2.85937 0 3.07292 0.0833333 3.27083 0.25C3.47917 0.416667 3.58333 0.640625 3.58333 0.916667C3.58333 1.04167 3.55208 1.18229 3.5 1.33333L2.0625 5.45833C2.02083 5.61458 2 5.75 2 5.875C2 6.08333 2.09375 6.1875 2.29167 6.1875C2.55208 6.1875 2.81771 6.05729 3.08333 5.79167C3.34375 5.53125 3.57292 5.21875 3.77083 4.85417L5.22917 0.791667C5.32292 0.5 5.46354 0.302084 5.64583 0.1875C5.82292 0.0625 6.01042 0 6.20833 0C6.44271 0 6.65625 0.0833333 6.85417 0.25C7.04688 0.416667 7.14583 0.635417 7.14583 0.895833C7.14583 0.953125 7.13542 1.01563 7.125 1.08333C7.10938 1.14063 7.09375 1.20313 7.08333 1.27083L5.5 5.6875C5.46875 5.74479 5.45833 5.80729 5.45833 5.875C5.45833 5.97396 5.48958 6.05208 5.5625 6.10417C5.64583 6.16146 5.73958 6.1875 5.85417 6.1875C6.15625 6.1875 6.47917 6.01563 6.8125 5.66667C7.15625 5.30729 7.48438 4.72917 7.79167 3.9375Z" fill="#D72333"/>
</svg>
