<svg width="5" height="8" viewBox="0 0 5 8" fill="none" xmlns="http://www.w3.org/2000/svg">
<path d="M3.40755 0C3.64193 0 3.84505 0.057292 4.01172 0.166667C4.07943 0.223959 4.10026 0.286459 4.07422 0.354167L3.80339 1.14583C3.77214 1.22917 3.70964 1.26042 3.61589 1.22917C3.5013 1.17708 3.36589 1.14583 3.19922 1.14583C3.10026 1.14583 3.03776 1.15625 3.01172 1.16667C2.66276 1.18229 2.35026 1.36979 2.07422 1.72917C1.80859 2.07813 1.64714 2.51042 1.59505 3.02083L1.03255 7.52083C1.01693 7.61979 0.959636 7.66667 0.865886 7.66667H0.115886C0.074219 7.66667 0.0377603 7.65625 0.011719 7.625C-0.00390633 7.59896 -0.00390633 7.5625 0.011719 7.52083L0.907552 0.229167C0.907552 0.1875 0.91797 0.156251 0.949219 0.125C0.97526 0.0989587 1.01693 0.0833333 1.07422 0.0833333H1.80339C1.88672 0.0833333 1.92839 0.135416 1.92839 0.229167L1.82422 1.125C1.82422 1.15625 1.82943 1.16667 1.84505 1.16667C1.85547 1.16667 1.87109 1.16146 1.88672 1.14583C2.27214 0.385416 2.78255 0 3.40755 0Z" fill="#D51224"/>
</svg>
