<svg width="4" height="11" viewBox="0 0 4 11" fill="none" xmlns="http://www.w3.org/2000/svg">
<path d="M3.39583 2.6875C3.39583 2.80208 3.33854 2.85417 3.22917 2.85417H2.02083C1.97917 2.85417 1.95833 2.875 1.95833 2.91667V7.79167C1.95833 8.29167 2.04167 8.64063 2.20833 8.83333C2.38542 9.01563 2.65104 9.09896 3 9.08333H3.16667C3.26042 9.08333 3.3125 9.13542 3.3125 9.22917V9.91667C3.3125 10.0312 3.26042 10.0833 3.16667 10.0833H2.75C2.125 10.0833 1.65104 9.95312 1.33333 9.6875C1.01042 9.41146 0.854167 8.89583 0.854167 8.14583V2.91667C0.854167 2.875 0.822917 2.85417 0.770833 2.85417H0.166667C0.0520827 2.85417 0 2.80208 0 2.6875V2.16667C0 2.05729 0.0520827 2 0.166667 2H0.770833C0.822917 2 0.854167 1.97917 0.854167 1.9375V0.166667C0.854167 0.057292 0.901041 0 1 0H1.79167C1.90104 0 1.95833 0.057292 1.95833 0.166667V1.9375C1.95833 1.97917 1.97917 2 2.02083 2H3.22917C3.33854 2 3.39583 2.05729 3.39583 2.16667V2.6875Z" fill="#D72333"/>
</svg>
