<svg width="7" height="11" viewBox="0 0 7 11" fill="none" xmlns="http://www.w3.org/2000/svg">
<path d="M4.73803 10.2292C4.62344 10.2292 4.56094 10.1771 4.55053 10.0625L4.32136 8.66667C4.32136 8.61458 4.29011 8.58333 4.23803 8.58333H2.38386C2.31094 8.58333 2.27969 8.61458 2.27969 8.66667L2.05053 10.0625C2.0349 10.1771 1.9724 10.2292 1.86303 10.2292H0.154693C0.0296925 10.2292 -0.0223915 10.1667 0.00885921 10.0417L2.15469 0.145833C2.16511 0.052084 2.22761 0 2.34219 0H4.32136C4.43073 0 4.49323 0.052084 4.50886 0.145833L6.65469 10.0417V10.1042C6.65469 10.1875 6.60261 10.2292 6.50886 10.2292H4.73803ZM2.57136 6.91667C2.57136 6.97396 2.59219 7 2.63386 7H3.94636C3.99844 7 4.01928 6.97396 4.00886 6.91667L3.32136 2.9375C3.30573 2.91146 3.29011 2.89583 3.27969 2.89583C3.26407 2.89583 3.24844 2.91146 3.23803 2.9375L2.57136 6.91667Z" fill="#D72333"/>
</svg>
