<svg width="15" height="15" viewBox="0 0 15 15" fill="none" xmlns="http://www.w3.org/2000/svg">
<path d="M3.71875 4.18229H4.91667V2.68229H9.60938V4.18229H10.8021V2.68229H14.2812V1.5625H10.8021V0H9.60938V1.5625H4.91667V0H3.71875V1.5625H0.348959V2.68229H3.71875V4.18229ZM3.76563 10.1667C3.07813 11.3646 1.88021 12.4844 0.6875 13.2135C0.958333 13.3906 1.4375 13.776 1.64063 14C2.83854 13.151 4.13021 11.875 4.91667 10.5208L3.76563 10.1667ZM12.4167 9.46354V8.34896H7.93229V6.32292H6.71875V8.34896H2.17187V9.46354H6.71875V13.2656C6.71875 13.4375 6.65625 13.5052 6.43229 13.5208C6.23958 13.5208 5.53646 13.5208 4.77083 13.5052C4.93229 13.8385 5.08854 14.2865 5.14063 14.6198C6.17708 14.6198 6.88021 14.6042 7.32292 14.4271C7.78646 14.2396 7.93229 13.9323 7.93229 13.2812V9.46354H12.4167ZM9.38542 10.7083C10.599 11.6667 12.0469 13.0573 12.7344 13.9687L13.7083 13.25C13.0052 12.3385 11.5208 11.0156 10.3073 10.1042L9.38542 10.7083ZM7.09896 3C5.80729 5.01042 3.125 6.625 0 7.67708C0.239583 7.88542 0.588541 8.36458 0.75 8.65104C3.43229 7.69271 5.74479 6.35417 7.33854 4.58333C9.07812 6.22396 11.7135 7.80729 13.9167 8.57292C14.0781 8.26562 14.4271 7.80729 14.6979 7.55208C12.3542 6.86458 9.55729 5.31771 7.97917 3.79687C8.05729 3.6875 8.15625 3.55729 8.23438 3.43229L7.09896 3Z" fill="#D72333"/>
</svg>
