<svg width="6" height="11" viewBox="0 0 6 11" fill="none" xmlns="http://www.w3.org/2000/svg">
<path d="M2.89583 10.3542C2.02083 10.3542 1.31771 10.0781 0.791667 9.52083C0.260417 8.96875 0 8.22917 0 7.3125V0.166667C0 0.125 0.0104173 0.0937507 0.0416667 0.0625C0.0833333 0.0208333 0.125 0 0.166667 0H1.875C1.92708 0 1.96875 0.0208333 2 0.0625C2.04167 0.0937507 2.0625 0.125 2.0625 0.166667V7.52083C2.0625 7.84375 2.13542 8.09896 2.29167 8.29167C2.44271 8.48958 2.64583 8.58333 2.89583 8.58333C3.15625 8.58333 3.35937 8.48958 3.5 8.29167C3.65104 8.09896 3.72917 7.84375 3.72917 7.52083V0.166667C3.72917 0.125 3.73958 0.0937507 3.77083 0.0625C3.8125 0.0208333 3.85937 0 3.91667 0H5.625C5.67708 0 5.71875 0.0208333 5.75 0.0625C5.77604 0.0937507 5.79167 0.125 5.79167 0.166667V7.3125C5.79167 8.22917 5.52604 8.96875 5 9.52083C4.46875 10.0781 3.77083 10.3542 2.89583 10.3542Z" fill="#D72333"/>
</svg>
