<svg width="5" height="8" viewBox="0 0 5 8" fill="none" xmlns="http://www.w3.org/2000/svg">
<path d="M2.375 7.97917C1.65104 7.97917 1.07292 7.76563 0.645833 7.33333C0.213541 6.90625 0 6.34375 0 5.64583V2.33333C0 1.64063 0.213541 1.07813 0.645833 0.645833C1.08854 0.218751 1.66667 0 2.375 0C2.85937 0 3.28125 0.0989587 3.64583 0.291667C4.02083 0.489583 4.30208 0.744792 4.5 1.0625C4.69271 1.38542 4.79167 1.73958 4.79167 2.125V2.27083C4.79167 2.36979 4.73958 2.41667 4.64583 2.41667L3.85417 2.45833C3.75521 2.45833 3.70833 2.41146 3.70833 2.3125V2.1875C3.70833 1.85417 3.58333 1.5625 3.33333 1.3125C3.08333 1.0625 2.76042 0.9375 2.375 0.9375C1.98437 0.9375 1.67187 1.07813 1.4375 1.35417C1.19792 1.61979 1.08333 1.97396 1.08333 2.41667V5.5625C1.08333 5.99479 1.19792 6.34896 1.4375 6.625C1.67187 6.89063 1.98437 7.02083 2.375 7.02083C2.76042 7.02083 3.08333 6.89583 3.33333 6.64583C3.58333 6.39583 3.70833 6.10417 3.70833 5.77083V5.66667C3.70833 5.57292 3.75521 5.52083 3.85417 5.52083H4.64583C4.73958 5.52083 4.79167 5.57813 4.79167 5.6875V5.85417C4.79167 6.46875 4.56771 6.97396 4.125 7.375C3.67708 7.78125 3.09375 7.97917 2.375 7.97917Z" fill="#D72333"/>
</svg>
