<svg width="14" height="8" viewBox="0 0 14 8" fill="none" xmlns="http://www.w3.org/2000/svg">
<path d="M12.3542 3.33333C12.5469 3.33333 12.7188 3.39583 12.875 3.52083C13.0417 3.63542 13.125 3.79167 13.125 4C13.125 4.04167 13.1146 4.09375 13.1042 4.14583C13.1042 4.1875 13.0938 4.22917 13.0833 4.27083C12.776 5.16146 12.4167 5.86458 12 6.375C11.5938 6.875 11.1719 7.23958 10.7292 7.45833C10.2813 7.66667 9.83854 7.77083 9.39583 7.77083C9.00521 7.77083 8.64583 7.70313 8.3125 7.5625C7.98958 7.41146 7.72917 7.19792 7.52083 6.91667C7.32292 6.625 7.22917 6.28646 7.22917 5.89583C7.22917 5.60417 7.28125 5.30729 7.39583 5L8.39583 2.27083C8.4375 2.16146 8.45833 2.0625 8.45833 1.97917C8.45833 1.85417 8.41667 1.76042 8.33333 1.6875C8.25 1.60417 8.15104 1.5625 8.04167 1.5625C7.81771 1.5625 7.59375 1.66146 7.375 1.85417C7.15104 2.03646 6.97917 2.30208 6.85417 2.64583L5.33333 6.9375C5.23438 7.21875 5.08333 7.42708 4.875 7.5625C4.66667 7.70313 4.44792 7.77083 4.22917 7.77083C4.00521 7.77083 3.80208 7.70313 3.625 7.5625C3.45833 7.42708 3.375 7.23958 3.375 7C3.375 6.84896 3.40625 6.68229 3.47917 6.5L5.02083 2.20833C5.0625 2.125 5.08333 2.04167 5.08333 1.95833C5.08333 1.83333 5.04167 1.73958 4.95833 1.66667C4.875 1.59896 4.76042 1.5625 4.625 1.5625C4.42708 1.5625 4.23438 1.64063 4.04167 1.79167C3.84375 1.94792 3.67708 2.16667 3.54167 2.45833L1.95833 6.97917C1.875 7.24479 1.72917 7.44792 1.52083 7.58333C1.32292 7.70833 1.10937 7.77083 0.875 7.77083C0.651042 7.77083 0.453125 7.70833 0.270833 7.58333C0.0937493 7.44792 0 7.25 0 7C0 6.90625 0.0156253 6.80208 0.0416667 6.6875L2.16667 0.583333C2.23437 0.390625 2.36458 0.244792 2.5625 0.145833C2.75521 0.052084 2.94792 0 3.14583 0C3.29687 0 3.4375 0.0312493 3.5625 0.0833333C3.69792 0.140625 3.80208 0.218751 3.875 0.3125C4 0.244792 4.14583 0.177084 4.3125 0.104167C4.47917 0.0364587 4.69792 0 4.97917 0C5.36458 0 5.67188 0.0625 5.89583 0.1875C6.13021 0.3125 6.31771 0.453125 6.45833 0.604167C6.76042 0.369792 7.07292 0.208333 7.39583 0.125C7.71354 0.0416667 7.98958 0 8.22917 0C8.63021 0 9 0.0781253 9.33333 0.229167C9.66667 0.385417 9.92708 0.598959 10.125 0.875C10.3333 1.14063 10.4375 1.45833 10.4375 1.83333C10.4375 1.94792 10.4219 2.07292 10.3958 2.20833C10.3646 2.33333 10.3333 2.45313 10.2917 2.5625L9.16667 5.64583C9.16667 5.67708 9.15625 5.70833 9.14583 5.75C9.14583 5.78125 9.14583 5.80729 9.14583 5.83333C9.14583 5.93229 9.17188 6.01563 9.22917 6.08333C9.29688 6.15625 9.40104 6.1875 9.54167 6.1875C9.84375 6.1875 10.1719 6.01563 10.5208 5.66667C10.8646 5.32292 11.1875 4.75 11.4792 3.95833C11.5469 3.75 11.6667 3.59896 11.8333 3.5C12 3.39063 12.1719 3.33333 12.3542 3.33333Z" fill="#D72333"/>
</svg>
