<svg width="12" height="20" viewBox="0 0 12 20" fill="none" xmlns="http://www.w3.org/2000/svg">
<path d="M5.625 20C3.91667 20 2.54687 19.5 1.52083 18.5C0.505208 17.4896 0 16.1406 0 14.4583V5.52083C0 3.84375 0.505208 2.5 1.52083 1.5C2.54687 0.5 3.91667 0 5.625 0C7.34375 0 8.71875 0.5 9.75 1.5C10.7917 2.5 11.3125 3.84375 11.3125 5.52083V14.4583C11.3125 16.1406 10.7917 17.4896 9.75 18.5C8.71875 19.5 7.34375 20 5.625 20ZM5.625 16.6042C6.15104 16.6042 6.57292 16.4271 6.89583 16.0625C7.21354 15.7031 7.375 15.224 7.375 14.625V5.35417C7.375 4.76042 7.21354 4.28125 6.89583 3.91667C6.57292 3.55729 6.15104 3.375 5.625 3.375C5.10938 3.375 4.69792 3.55729 4.39583 3.91667C4.08854 4.28125 3.9375 4.76042 3.9375 5.35417V14.625C3.9375 15.224 4.08854 15.7031 4.39583 16.0625C4.69792 16.4271 5.10938 16.6042 5.625 16.6042Z" fill="#D72333"/>
</svg>
