<svg width="6" height="11" viewBox="0 0 6 11" fill="none" xmlns="http://www.w3.org/2000/svg">
<path d="M3.82103 0C4.3627 0 4.78978 0.177083 5.1127 0.520833C5.43041 0.869792 5.59187 1.32813 5.59187 1.89583C5.59187 1.97917 5.57624 2.11458 5.5502 2.29167L5.15437 5.54167C5.07103 6.23958 4.82103 6.79167 4.40437 7.20833C3.9877 7.625 3.46687 7.83333 2.84187 7.83333C2.57624 7.83333 2.32624 7.78125 2.09187 7.6875C1.85228 7.57813 1.66478 7.41146 1.52937 7.1875C1.49812 7.16146 1.47728 7.15625 1.46687 7.16667C1.45124 7.18229 1.44603 7.19792 1.44603 7.20833L1.0502 10.4583C1.01895 10.5677 0.966865 10.625 0.883532 10.625H0.133532C0.0918654 10.625 0.0554067 10.6042 0.0293654 10.5625C-0.00188394 10.5313 -0.00709327 10.5 0.00853206 10.4583L1.25853 0.270833C1.25853 0.229167 1.26895 0.197917 1.3002 0.166667C1.34187 0.140625 1.38353 0.125 1.4252 0.125H2.1752C2.26895 0.125 2.30541 0.177083 2.27937 0.270833L2.25853 0.604167C2.24291 0.635416 2.24291 0.656251 2.25853 0.666667C2.28457 0.666667 2.30541 0.656251 2.32103 0.625C2.52937 0.416667 2.75853 0.265625 3.00853 0.166667C3.26895 0.057292 3.53978 0 3.82103 0ZM4.52937 2.375C4.52937 2.30729 4.52937 2.22396 4.52937 2.125C4.52937 1.76563 4.4252 1.47917 4.21687 1.27083C4.01895 1.05208 3.75853 0.9375 3.4252 0.9375C3.06062 0.9375 2.74812 1.07292 2.4877 1.33333C2.2377 1.59896 2.08145 1.94792 2.02937 2.375L1.65437 5.45833C1.63874 5.51563 1.63353 5.59896 1.63353 5.70833C1.63353 6.07292 1.72728 6.36458 1.9252 6.58333C2.11791 6.79167 2.37312 6.89583 2.69603 6.89583C3.07103 6.89583 3.38874 6.76563 3.65437 6.5C3.93041 6.23958 4.09707 5.89063 4.15437 5.45833L4.52937 2.375Z" fill="#D51224"/>
</svg>
