<svg width="4" height="4" viewBox="0 0 4 4" fill="none" xmlns="http://www.w3.org/2000/svg">
<path d="M0.135045 3.20833C0.0204613 3.20833 -0.0212054 3.15625 0.0100446 3.04167L1.01004 0.125C1.03609 0.0416667 1.09859 0 1.19754 0H1.76004C1.80171 0 1.83296 0.0156253 1.86421 0.0416667C1.89025 0.072916 1.89546 0.114583 1.88504 0.166667L1.09338 3.0625C1.06213 3.16146 1.01004 3.20833 0.926711 3.20833H0.135045ZM2.07254 3.20833C1.95796 3.20833 1.91629 3.15625 1.94754 3.04167L2.94754 0.125C2.97359 0.0416667 3.03609 0 3.13504 0H3.67671C3.7288 0 3.77046 0.0156253 3.80171 0.0416667C3.82775 0.072916 3.83296 0.114583 3.82254 0.166667L3.03088 3.0625C3.01525 3.16146 2.95796 3.20833 2.86421 3.20833H2.07254Z" fill="#D72333"/>
</svg>
