<svg width="3" height="12" viewBox="0 0 3 12" fill="none" xmlns="http://www.w3.org/2000/svg">
<path d="M1.67671 1.77083C1.42671 1.77083 1.2288 1.6875 1.09338 1.52083C0.952752 1.35417 0.895462 1.14583 0.926711 0.895833C0.968378 0.635417 1.07254 0.416667 1.23921 0.25C1.41629 0.0833333 1.63504 0 1.88504 0C2.1038 0 2.28609 0.072916 2.42671 0.208333C2.56213 0.348959 2.63504 0.531249 2.63504 0.75C2.63504 1.04167 2.53609 1.28646 2.34338 1.47917C2.16109 1.67708 1.93713 1.77083 1.67671 1.77083ZM0.135044 11.1458C0.0204616 11.1458 -0.021205 11.0938 0.0100443 10.9792L0.926711 3.375C0.937128 3.32292 0.95796 3.28125 0.989211 3.25C1.03088 3.22396 1.07254 3.20833 1.11421 3.20833H1.88504C1.99442 3.20833 2.03609 3.26563 2.01004 3.375L1.09338 10.9792C1.06213 11.0938 1.01004 11.1458 0.926711 11.1458H0.135044Z" fill="#D72333"/>
</svg>
