<svg width="4" height="7" viewBox="0 0 4 7" fill="none" xmlns="http://www.w3.org/2000/svg">
<path d="M2.5625 0.0833333C2.5625 0.0312493 2.58854 0 2.64583 0H3.10417C3.15625 0 3.1875 0.0312493 3.1875 0.0833333V6.3125C3.1875 6.36979 3.15625 6.39583 3.10417 6.39583H2.5625C2.50521 6.39583 2.46875 6.36979 2.45833 6.3125L0.6875 1.60417C0.671875 1.57813 0.656251 1.57292 0.645833 1.58333C0.630208 1.58333 0.625 1.59375 0.625 1.60417L0.645833 6.3125C0.645833 6.36979 0.609375 6.39583 0.541667 6.39583H0.0833333C0.0260413 6.39583 0 6.36979 0 6.3125V0.0833333C0 0.0312493 0.0260413 0 0.0833333 0H0.604167C0.656251 0 0.692708 0.0208333 0.708333 0.0625L2.5 4.8125C2.51042 4.82813 2.52604 4.83333 2.54167 4.83333C2.55208 4.82292 2.5625 4.80729 2.5625 4.79167V0.0833333Z" fill="#D72333"/>
</svg>
