<svg width="7" height="15" viewBox="0 0 7 15" fill="none" xmlns="http://www.w3.org/2000/svg">
<path d="M5.15437 14.4375C5.05541 14.4375 4.99812 14.3906 4.9877 14.2917L4.59187 12.3125C4.59187 12.3021 4.58145 12.2865 4.57103 12.2708C4.55541 12.2604 4.53457 12.25 4.50853 12.25H1.6127C1.59707 12.25 1.57624 12.2604 1.5502 12.2708C1.53457 12.2865 1.52937 12.3021 1.52937 12.3125L1.13353 14.2917C1.13353 14.3906 1.07624 14.4375 0.966865 14.4375H0.154365C0.0970734 14.4375 0.0554067 14.4271 0.0293654 14.3958C-0.00188394 14.3542 -0.00709327 14.3125 0.00853206 14.2708L2.40437 3.41667C2.41478 3.32292 2.47207 3.27083 2.57103 3.27083H3.52937C3.63874 3.27083 3.70124 3.32292 3.71687 3.41667L6.13353 14.2708V14.2917C6.13353 14.3906 6.08145 14.4375 5.9877 14.4375H5.15437ZM1.7377 11.2708C1.7377 11.3125 1.75853 11.3333 1.8002 11.3333H4.32103C4.34707 11.3333 4.3627 11.3125 4.3627 11.2708L3.09187 5C3.07624 4.95833 3.06062 4.9375 3.0502 4.9375C3.03457 4.9375 3.02937 4.95833 3.02937 5L1.7377 11.2708ZM4.25853 1.79167C3.99291 1.79167 3.77937 1.70833 3.6127 1.54167C3.44603 1.36458 3.3627 1.14583 3.3627 0.895833C3.3627 0.635417 3.44603 0.416667 3.6127 0.25C3.77937 0.0833333 3.99291 0 4.25853 0C4.50853 0 4.71687 0.0833333 4.88353 0.25C5.06062 0.416667 5.15437 0.635417 5.15437 0.895833C5.15437 1.14583 5.06062 1.36458 4.88353 1.54167C4.71687 1.70833 4.50853 1.79167 4.25853 1.79167ZM1.88353 1.79167C1.61791 1.79167 1.40437 1.70833 1.2377 1.54167C1.07103 1.36458 0.987699 1.14583 0.987699 0.895833C0.987699 0.635417 1.07103 0.416667 1.2377 0.25C1.40437 0.0833333 1.61791 0 1.88353 0C2.13353 0 2.34187 0.0833333 2.50853 0.25C2.68561 0.416667 2.77937 0.635417 2.77937 0.895833C2.77937 1.14583 2.68561 1.36458 2.50853 1.54167C2.34187 1.70833 2.13353 1.79167 1.88353 1.79167Z" fill="#D72333"/>
</svg>
