<svg width="9" height="10" viewBox="0 0 9 10" fill="none" xmlns="http://www.w3.org/2000/svg">
<path d="M4.58333 5.7915C4.58333 5.89046 4.53125 5.93734 4.4375 5.93734H1.10417C1.0625 5.93734 1.04167 5.95817 1.04167 5.99984V7.06234C1.04167 7.479 1.15104 7.82275 1.375 8.08317C1.60937 8.33317 1.91667 8.45817 2.29167 8.45817C2.59375 8.45817 2.85937 8.36963 3.08333 8.18734C3.30208 7.99463 3.44792 7.74463 3.52083 7.43734C3.54687 7.354 3.59375 7.31234 3.66667 7.31234L4.39583 7.33317C4.4375 7.33317 4.46875 7.3488 4.5 7.37484C4.52604 7.40609 4.54167 7.44775 4.54167 7.49984C4.45833 8.07275 4.21354 8.53109 3.8125 8.87484C3.42187 9.20817 2.91667 9.37484 2.29167 9.37484C1.59375 9.37484 1.04167 9.17692 0.625 8.77067C0.208333 8.354 0 7.80713 0 7.12484V3.979C0 3.31234 0.208333 2.77067 0.625 2.354C1.04167 1.93734 1.59375 1.729 2.29167 1.729C2.98437 1.729 3.54167 1.93734 3.95833 2.354C4.375 2.77067 4.58333 3.31234 4.58333 3.979V5.7915ZM2.29167 2.64567C1.91667 2.64567 1.60937 2.78109 1.375 3.0415C1.15104 3.2915 1.04167 3.62484 1.04167 4.0415V5.02067C1.04167 5.06234 1.0625 5.08317 1.10417 5.08317H3.5C3.54167 5.08317 3.5625 5.06234 3.5625 5.02067V4.0415C3.5625 3.62484 3.44271 3.2915 3.20833 3.0415C2.96875 2.78109 2.66667 2.64567 2.29167 2.64567Z" fill="#D72333"/>
<path d="M8.72559 2.47917C8.72559 2.57813 8.6735 2.625 8.57975 2.625H7.45475C7.4235 2.625 7.41309 2.64583 7.41309 2.6875V7.16667C7.41309 7.61458 7.486 7.91667 7.64225 8.08333C7.79329 8.25 8.02767 8.33333 8.35059 8.33333H8.49642C8.59017 8.33333 8.64225 8.38542 8.64225 8.47917V9.10417C8.64225 9.20312 8.59017 9.25 8.49642 9.25H8.14225C7.55892 9.25 7.111 9.125 6.80892 8.875C6.51725 8.625 6.37142 8.15625 6.37142 7.45833V2.6875C6.37142 2.64583 6.35579 2.625 6.32975 2.625H5.74642C5.64746 2.625 5.60059 2.57813 5.60059 2.47917V2C5.60059 1.90625 5.64746 1.85417 5.74642 1.85417H6.32975C6.35579 1.85417 6.37142 1.83333 6.37142 1.79167V0.145833C6.37142 0.0520827 6.41829 0 6.51725 0H7.26725C7.361 0 7.41309 0.0520827 7.41309 0.145833V1.79167C7.41309 1.83333 7.4235 1.85417 7.45475 1.85417H8.57975C8.6735 1.85417 8.72559 1.90625 8.72559 2V2.47917Z" fill="#D72333"/>
</svg>
