<svg width="4" height="10" viewBox="0 0 4 10" fill="none" xmlns="http://www.w3.org/2000/svg">
<path d="M3.2532 2.64583C3.2532 2.6875 3.23236 2.72917 3.1907 2.77083C3.15945 2.80208 3.11778 2.8125 3.0657 2.8125H1.91986C1.88861 2.8125 1.86778 2.83333 1.85736 2.875L1.27403 7.66667C1.24278 7.86458 1.23236 7.99479 1.23236 8.0625C1.23236 8.39583 1.30007 8.625 1.4407 8.75C1.59174 8.875 1.8157 8.9375 2.10736 8.9375H2.2532C2.29486 8.9375 2.32611 8.95313 2.35736 8.97917C2.3834 9.01042 2.38861 9.04167 2.3782 9.08333L2.29486 9.75C2.27924 9.86458 2.22195 9.91667 2.1282 9.91667H1.7532C1.22195 9.91667 0.820904 9.82292 0.544863 9.625C0.263614 9.41667 0.128196 9.03646 0.128196 8.47917C0.128196 8.39583 0.133404 8.23958 0.149029 8L0.774029 2.875C0.784446 2.86458 0.784446 2.84896 0.774029 2.83333C0.774029 2.82292 0.758404 2.8125 0.732363 2.8125H0.128196C0.0292375 2.8125 -0.0124292 2.76042 0.00319614 2.64583L0.0656961 2.14583C0.0656961 2.09375 0.0761121 2.05208 0.107363 2.02083C0.149029 1.99479 0.195904 1.97917 0.253196 1.97917H0.836529C0.846947 1.97917 0.862571 1.97396 0.878196 1.95833C0.888614 1.94792 0.899029 1.93229 0.899029 1.91667L1.1282 0.166667C1.1282 0.125 1.13861 0.0937493 1.16986 0.0625C1.1959 0.0208333 1.23757 0 1.29486 0H2.04486C2.13861 0 2.1907 0.057292 2.1907 0.166667L1.98236 1.91667C1.98236 1.95833 1.99278 1.97917 2.02403 1.97917H3.1907C3.28445 1.97917 3.32611 2.03646 3.3157 2.14583L3.2532 2.64583Z" fill="#D72333"/>
</svg>
