<svg width="28" height="39" viewBox="0 0 28 39" fill="none" xmlns="http://www.w3.org/2000/svg">
<mask id="mask0_25_20278" style="mask-type:luminance" maskUnits="userSpaceOnUse" x="0" y="0" width="28" height="39">
<path d="M28 0H0V38.6667H28V0Z" fill="white"/>
</mask>
<g mask="url(#mask0_25_20278)">
<path d="M5.99902 14.4888C5.96777 14.52 5.96256 14.5461 5.97819 14.5721C5.98861 14.5877 6.00944 14.5929 6.04069 14.5929H9.35319C9.40527 14.5929 9.44694 14.6138 9.47819 14.6554C9.51986 14.6867 9.54069 14.7284 9.54069 14.7804V16.3221C9.54069 16.3794 9.51986 16.4263 9.47819 16.4679C9.44694 16.4992 9.40527 16.5096 9.35319 16.5096H3.49902C3.44173 16.5096 3.39486 16.4992 3.35319 16.4679C3.32194 16.4263 3.31152 16.3794 3.31152 16.3221V14.7179C3.31152 14.6242 3.33236 14.5461 3.37402 14.4888C3.80111 13.9211 4.10319 13.5409 4.26986 13.3429C5.19694 12.1502 5.8584 11.2492 6.24902 10.6346C6.81673 9.73356 7.10319 8.96794 7.10319 8.34294C7.10319 7.98356 7.02506 7.70752 6.87402 7.5096C6.7334 7.3169 6.5459 7.21794 6.31152 7.21794C6.06152 7.21794 5.8584 7.3169 5.70736 7.5096C5.56673 7.70752 5.50423 7.95752 5.51986 8.2596V8.90544C5.51986 8.96273 5.49902 9.0096 5.45736 9.05127C5.42611 9.08252 5.38444 9.09294 5.33236 9.09294H3.43652C3.39486 9.09294 3.35319 9.08252 3.31152 9.05127C3.26986 9.0096 3.24902 8.96273 3.24902 8.90544V8.15544C3.29069 7.29606 3.60319 6.60856 4.18652 6.09294C4.76986 5.56689 5.50423 5.30127 6.39486 5.30127C7.28027 5.30127 7.99902 5.58252 8.54069 6.1346C9.09277 6.69189 9.37402 7.43669 9.37402 8.36377C9.37402 8.90544 9.28027 9.42627 9.10319 9.92627C8.93652 10.4263 8.65006 10.9627 8.24902 11.5304C7.95736 11.9627 7.44694 12.6346 6.72819 13.5513L5.99902 14.4888Z" fill="#D72333"/>
<path d="M11.5732 16.5723C11.2087 16.5723 10.9118 16.4577 10.6774 16.2181C10.4378 15.9837 10.3232 15.6868 10.3232 15.3223C10.3232 14.9629 10.4326 14.666 10.6566 14.4264C10.891 14.1921 11.1982 14.0723 11.5732 14.0723C11.9326 14.0723 12.2295 14.1921 12.4691 14.4264C12.7035 14.666 12.8232 14.9629 12.8232 15.3223C12.8232 15.6868 12.7035 15.9837 12.4691 16.2181C12.2295 16.4577 11.9326 16.5723 11.5732 16.5723Z" fill="#D72333"/>
<path d="M16.4551 14.4888C16.4238 14.52 16.4186 14.5461 16.4342 14.5721C16.4447 14.5877 16.4655 14.5929 16.4967 14.5929H19.8092C19.8613 14.5929 19.903 14.6138 19.9342 14.6554C19.9759 14.6867 19.9967 14.7284 19.9967 14.7804V16.3221C19.9967 16.3794 19.9759 16.4263 19.9342 16.4679C19.903 16.4992 19.8613 16.5096 19.8092 16.5096H13.9551C13.8978 16.5096 13.8509 16.4992 13.8092 16.4679C13.778 16.4263 13.7676 16.3794 13.7676 16.3221V14.7179C13.7676 14.6242 13.7884 14.5461 13.8301 14.4888C14.2572 13.9211 14.5592 13.5409 14.7259 13.3429C15.653 12.1502 16.3145 11.2492 16.7051 10.6346C17.2728 9.73356 17.5592 8.96794 17.5592 8.34294C17.5592 7.98356 17.4811 7.70752 17.3301 7.5096C17.1895 7.3169 17.002 7.21794 16.7676 7.21794C16.5176 7.21794 16.3145 7.3169 16.1634 7.5096C16.0228 7.70752 15.9603 7.95752 15.9759 8.2596V8.90544C15.9759 8.96273 15.9551 9.0096 15.9134 9.05127C15.8822 9.08252 15.8405 9.09294 15.7884 9.09294H13.8926C13.8509 9.09294 13.8092 9.08252 13.7676 9.05127C13.7259 9.0096 13.7051 8.96273 13.7051 8.90544V8.15544C13.7467 7.29606 14.0592 6.60856 14.6426 6.09294C15.2259 5.56689 15.9603 5.30127 16.8509 5.30127C17.7363 5.30127 18.4551 5.58252 18.9967 6.1346C19.5488 6.69189 19.8301 7.43669 19.8301 8.36377C19.8301 8.90544 19.7363 9.42627 19.5592 9.92627C19.3926 10.4263 19.1061 10.9627 18.7051 11.5304C18.4134 11.9627 17.903 12.6346 17.1842 13.5513L16.4551 14.4888Z" fill="#D72333"/>
<mask id="mask1_25_20278" style="mask-type:luminance" maskUnits="userSpaceOnUse" x="20" y="4" width="8" height="14">
<path d="M20 4H27.8073V17.3333H20V4Z" fill="white"/>
</mask>
<g mask="url(#mask1_25_20278)">
<path d="M23.8415 16.6764C22.9092 16.6764 22.1592 16.3848 21.5915 15.8014C21.0186 15.2181 20.7373 14.4473 20.7373 13.4889V8.44727C20.7373 7.48893 21.0186 6.7181 21.5915 6.13477C22.1592 5.55143 22.9092 5.25977 23.8415 5.25977C24.4508 5.25977 24.9925 5.39518 25.4665 5.6556C25.9352 5.92122 26.2998 6.29622 26.5498 6.7806C26.8102 7.27018 26.9456 7.82227 26.9456 8.44727V13.4889C26.9456 14.1139 26.8102 14.6712 26.5498 15.1556C26.2998 15.6452 25.9352 16.0202 25.4665 16.2806C24.9925 16.541 24.4508 16.6764 23.8415 16.6764ZM23.8415 14.7598C24.1019 14.7598 24.3102 14.6556 24.4665 14.4473C24.6331 14.2389 24.7165 13.9629 24.7165 13.6139V8.32227C24.7165 7.97852 24.6331 7.69727 24.4665 7.48893C24.3102 7.2806 24.1019 7.17643 23.8415 7.17643C23.5758 7.17643 23.3623 7.2806 23.1956 7.48893C23.0394 7.69727 22.9665 7.97852 22.9665 8.32227V13.6139C22.9665 13.9629 23.0394 14.2389 23.1956 14.4473C23.3623 14.6556 23.5758 14.7598 23.8415 14.7598Z" fill="#D72333"/>
</g>
<path d="M11.8299 29.077C11.882 29.077 11.9237 29.0978 11.9549 29.1395C11.9966 29.1707 12.0174 29.2124 12.0174 29.2645V30.8895C12.0174 30.9468 11.9966 30.9937 11.9549 31.0353C11.9237 31.0666 11.882 31.077 11.8299 31.077H11.3507C11.2935 31.077 11.2674 31.1082 11.2674 31.1603V33.702C11.2674 33.7593 11.2466 33.8062 11.2049 33.8478C11.1632 33.8791 11.1216 33.8895 11.0799 33.8895H9.22575C9.16846 33.8895 9.12158 33.8791 9.07992 33.8478C9.04867 33.8062 9.03825 33.7593 9.03825 33.702V31.1603C9.03825 31.1082 9.007 31.077 8.95492 31.077H4.99658C4.93929 31.077 4.89242 31.0666 4.85075 31.0353C4.8195 30.9937 4.80908 30.9468 4.80908 30.8895V29.5978C4.80908 29.5041 4.81429 29.4259 4.82992 29.3687L6.93408 22.9728C6.97575 22.8634 7.04346 22.8062 7.14242 22.8062H9.16325C9.21533 22.8062 9.257 22.827 9.28825 22.8687C9.32992 22.8999 9.33512 22.952 9.30908 23.0353L7.41325 28.9728C7.39762 29.0457 7.41846 29.077 7.47575 29.077H8.95492C9.007 29.077 9.03825 29.0509 9.03825 28.9937V27.3478C9.03825 27.2957 9.04867 27.2541 9.07992 27.2228C9.12158 27.1812 9.16846 27.1603 9.22575 27.1603H11.0799C11.1216 27.1603 11.1632 27.1812 11.2049 27.2228C11.2466 27.2541 11.2674 27.2957 11.2674 27.3478V28.9937C11.2674 29.0509 11.2935 29.077 11.3507 29.077H11.8299Z" fill="#D72333"/>
<path d="M14.0068 33.9521C13.6423 33.9521 13.3454 33.8376 13.111 33.598C12.8714 33.3636 12.7568 33.0667 12.7568 32.7021C12.7568 32.3428 12.8662 32.0459 13.0902 31.8063C13.3245 31.5719 13.6318 31.4521 14.0068 31.4521C14.3662 31.4521 14.6631 31.5719 14.9027 31.8063C15.137 32.0459 15.2568 32.3428 15.2568 32.7021C15.2568 33.0667 15.137 33.3636 14.9027 33.598C14.6631 33.8376 14.3662 33.9521 14.0068 33.9521Z" fill="#D72333"/>
<path d="M17.3467 22.8478C17.43 22.8218 17.5029 22.8062 17.5758 22.8062H19.4925C19.5446 22.8062 19.5863 22.827 19.6175 22.8687C19.6592 22.8999 19.68 22.9416 19.68 22.9937V33.702C19.68 33.7593 19.6592 33.8062 19.6175 33.8478C19.5863 33.8791 19.5446 33.8895 19.4925 33.8895H17.6383C17.5967 33.8895 17.555 33.8791 17.5133 33.8478C17.4717 33.8062 17.4508 33.7593 17.4508 33.702V25.0562C17.4508 25.0145 17.43 24.9937 17.3883 24.9937L16.1592 25.1395H16.1175C16.0029 25.1395 15.9508 25.077 15.9508 24.952L15.9092 23.5978C15.9092 23.4884 15.9561 23.4103 16.055 23.3687L17.3467 22.8478Z" fill="#D72333"/>
<mask id="mask2_25_20278" style="mask-type:luminance" maskUnits="userSpaceOnUse" x="20" y="21" width="8" height="14">
<path d="M20 21.3335H27.8073V34.6668H20V21.3335Z" fill="white"/>
</mask>
<g mask="url(#mask2_25_20278)">
<path d="M23.839 34.0563C22.9067 34.0563 22.1567 33.7646 21.589 33.1813C21.0161 32.598 20.7349 31.8271 20.7349 30.8688V25.8271C20.7349 24.8688 21.0161 24.098 21.589 23.5146C22.1567 22.9313 22.9067 22.6396 23.839 22.6396C24.4484 22.6396 24.9901 22.7751 25.464 23.0355C25.9328 23.3011 26.2974 23.6761 26.5474 24.1605C26.8078 24.6501 26.9432 25.2021 26.9432 25.8271V30.8688C26.9432 31.4938 26.8078 32.0511 26.5474 32.5355C26.2974 33.0251 25.9328 33.4001 25.464 33.6605C24.9901 33.9209 24.4484 34.0563 23.839 34.0563ZM23.839 32.1396C24.0994 32.1396 24.3078 32.0355 24.464 31.8271C24.6307 31.6188 24.714 31.3428 24.714 30.9938V25.7021C24.714 25.3584 24.6307 25.0771 24.464 24.8688C24.3078 24.6605 24.0994 24.5563 23.839 24.5563C23.5734 24.5563 23.3599 24.6605 23.1932 24.8688C23.0369 25.0771 22.964 25.3584 22.964 25.7021V30.9938C22.964 31.3428 23.0369 31.6188 23.1932 31.8271C23.3599 32.0355 23.5734 32.1396 23.839 32.1396Z" fill="#D72333"/>
</g>
</g>
</svg>
