<svg width="5" height="11" viewBox="0 0 5 11" fill="none" xmlns="http://www.w3.org/2000/svg">
<path d="M4.9375 0.8125C4.9375 0.927084 4.88542 0.979167 4.79167 0.979167H1.1875C1.14583 0.979167 1.125 1 1.125 1.04167V4.91667C1.125 4.95833 1.14583 4.97917 1.1875 4.97917H3.45833C3.55208 4.97917 3.60417 5.03646 3.60417 5.14583V5.8125C3.60417 5.92708 3.55208 5.97917 3.45833 5.97917H1.1875C1.14583 5.97917 1.125 6 1.125 6.04167V10.8125C1.125 10.9271 1.06771 10.9792 0.958333 10.9792H0.166667C0.0520827 10.9792 0 10.9271 0 10.8125V0.145833C0 0.052084 0.0520827 0 0.166667 0H4.79167C4.88542 0 4.9375 0.052084 4.9375 0.145833V0.8125Z" fill="#D72333"/>
</svg>
