<svg width="7" height="12" viewBox="0 0 7 12" fill="none" xmlns="http://www.w3.org/2000/svg">
<path d="M3.97917 0.1875C3.97917 0.135417 3.98958 0.0937507 4.02083 0.0625C4.0625 0.0208333 4.10938 0 4.16667 0H6.02083C6.07292 0 6.11458 0.0208333 6.14583 0.0625C6.1875 0.0937507 6.20833 0.135417 6.20833 0.1875V10.9167C6.20833 10.974 6.1875 11.0208 6.14583 11.0625C6.11458 11.0938 6.07292 11.1042 6.02083 11.1042H4.16667C4.10938 11.1042 4.0625 11.0938 4.02083 11.0625C3.98958 11.0208 3.97917 10.974 3.97917 10.9167V6.58333C3.97917 6.53125 3.94792 6.5 3.89583 6.5H2.3125C2.25521 6.5 2.22917 6.53125 2.22917 6.58333V10.9167C2.22917 10.974 2.20833 11.0208 2.16667 11.0625C2.13542 11.0938 2.09375 11.1042 2.04167 11.1042H0.1875C0.130208 11.1042 0.0833333 11.0938 0.0416667 11.0625C0.010416 11.0208 0 10.974 0 10.9167V0.1875C0 0.135417 0.010416 0.0937507 0.0416667 0.0625C0.0833333 0.0208333 0.130208 0 0.1875 0H2.04167C2.09375 0 2.13542 0.0208333 2.16667 0.0625C2.20833 0.0937507 2.22917 0.135417 2.22917 0.1875V4.5C2.22917 4.55729 2.25521 4.58333 2.3125 4.58333H3.89583C3.94792 4.58333 3.97917 4.55729 3.97917 4.5V0.1875Z" fill="#D72333"/>
</svg>
