<svg width="6" height="12" viewBox="0 0 6 12" fill="none" xmlns="http://www.w3.org/2000/svg">
<path d="M2.66667 11.4375C1.85937 11.4375 1.21354 11.1771 0.729167 10.6458C0.239584 10.1198 0 9.43229 0 8.58333V2.83333C0 1.98958 0.239584 1.30729 0.729167 0.791667C1.21354 0.265625 1.85937 0 2.66667 0C3.48437 0 4.14583 0.265625 4.64583 0.791667C5.14583 1.30729 5.39583 1.98958 5.39583 2.83333V8.58333C5.39583 9.43229 5.14583 10.1198 4.64583 10.6458C4.14583 11.1771 3.48437 11.4375 2.66667 11.4375ZM2.66667 10.4375C3.15104 10.4375 3.54167 10.2812 3.83333 9.95833C4.125 9.625 4.27083 9.1875 4.27083 8.64583V2.77083C4.27083 2.22917 4.125 1.80208 3.83333 1.47917C3.54167 1.14583 3.15104 0.979167 2.66667 0.979167C2.20833 0.979167 1.83333 1.14583 1.54167 1.47917C1.26042 1.80208 1.125 2.22917 1.125 2.77083V8.64583C1.125 9.1875 1.26042 9.625 1.54167 9.95833C1.83333 10.2812 2.20833 10.4375 2.66667 10.4375Z" fill="#D72333"/>
</svg>
