<svg width="7" height="11" viewBox="0 0 7 11" fill="none" xmlns="http://www.w3.org/2000/svg">
<path d="M6.69603 1.70833C6.69603 1.76563 6.6752 1.8125 6.63353 1.85417C6.59187 1.88542 6.5502 1.89583 6.50853 1.89583H3.32103C3.26374 1.89583 3.2377 1.92708 3.2377 1.97917L2.9252 4.45833C2.9252 4.51563 2.94603 4.54167 2.9877 4.54167H4.82103C4.87312 4.54167 4.91478 4.5625 4.94603 4.60417C4.97207 4.63542 4.9877 4.67708 4.9877 4.72917L4.77937 6.25C4.77937 6.29167 4.75853 6.33333 4.71687 6.375C4.6752 6.41667 4.63353 6.4375 4.59187 6.4375H2.75853C2.70124 6.4375 2.6752 6.45833 2.6752 6.5L2.38353 9C2.35228 9.05729 2.37312 9.08333 2.44603 9.08333H5.6127C5.65437 9.08333 5.69603 9.10417 5.7377 9.14583C5.77937 9.17708 5.78978 9.21875 5.77937 9.27083L5.59187 10.7917C5.57624 10.849 5.5502 10.8958 5.50853 10.9375C5.47728 10.9688 5.43562 10.9792 5.38353 10.9792H0.154366C0.112699 10.9792 0.0710324 10.9688 0.0293657 10.9375C-0.00188494 10.8958 -0.00709294 10.849 0.0085324 10.7917L1.3002 0.1875C1.31062 0.135417 1.33145 0.0937507 1.3627 0.0625C1.40437 0.0208333 1.45124 0 1.50853 0H6.7377C6.78978 0 6.83145 0.0208333 6.8627 0.0625C6.88874 0.0937507 6.89395 0.135417 6.88353 0.1875L6.69603 1.70833Z" fill="white"/>
</svg>
