<svg width="6" height="11" viewBox="0 0 6 11" fill="none" xmlns="http://www.w3.org/2000/svg">
<path d="M0.1875 10.9792C0.130208 10.9792 0.0833333 10.9688 0.0416667 10.9375C0.0104173 10.8958 0 10.849 0 10.7917V0.1875C0 0.135417 0.0104173 0.0937507 0.0416667 0.0625C0.0833333 0.0208333 0.130208 0 0.1875 0H2.02083C2.07292 0 2.11458 0.0208333 2.14583 0.0625C2.1875 0.0937507 2.20833 0.135417 2.20833 0.1875V9C2.20833 9.05729 2.23437 9.08333 2.29167 9.08333H5.58333C5.63542 9.08333 5.67708 9.10417 5.70833 9.14583C5.75 9.17708 5.77083 9.21875 5.77083 9.27083V10.7917C5.77083 10.849 5.75 10.8958 5.70833 10.9375C5.67708 10.9688 5.63542 10.9792 5.58333 10.9792H0.1875Z" fill="#D72333"/>
</svg>
