<svg width="13" height="11" viewBox="0 0 13 11" fill="none" xmlns="http://www.w3.org/2000/svg">
<path d="M5.5625 6.2915C5.60417 6.6665 5.625 6.9738 5.625 7.20817C5.625 7.53109 5.60938 7.83317 5.58333 8.12484C5.54167 8.87484 5.27083 9.46859 4.77083 9.89567C4.28125 10.3123 3.63021 10.5207 2.8125 10.5207C2.02083 10.5207 1.38542 10.328 0.916667 9.93734C0.442708 9.5363 0.156251 8.95296 0.0625 8.18734L0 7.77067C0 7.6613 0.0625 7.604 0.1875 7.604H1.89583C2.00521 7.604 2.06771 7.6613 2.08333 7.77067C2.08333 7.84359 2.09375 7.92692 2.125 8.02067C2.20833 8.51025 2.4375 8.74984 2.8125 8.74984C3.00521 8.74984 3.15625 8.68734 3.27083 8.56234C3.39583 8.42692 3.47917 8.23942 3.52083 7.99984C3.54687 7.74984 3.5625 7.479 3.5625 7.18734C3.5625 6.99463 3.54167 6.74463 3.5 6.43734C3.45833 6.21859 3.375 6.05192 3.25 5.93734C3.13542 5.81234 2.98958 5.74984 2.8125 5.74984C2.4375 5.74984 2.19271 5.92692 2.08333 6.27067C2.05208 6.38525 1.98958 6.43734 1.89583 6.43734H0.166667C0.125 6.43734 0.0833333 6.42692 0.0416667 6.39567C0.010416 6.354 0 6.30713 0 6.24984V0.333171C0 0.291504 0.010416 0.260255 0.0416667 0.229004C0.0833333 0.187337 0.125 0.166504 0.166667 0.166504H5.33333C5.38542 0.166504 5.42708 0.187337 5.45833 0.229004C5.48438 0.260255 5.5 0.291504 5.5 0.333171V1.74984C5.5 1.80713 5.48438 1.854 5.45833 1.89567C5.42708 1.92692 5.38542 1.93734 5.33333 1.93734H2.125C2.08333 1.93734 2.0625 1.95817 2.0625 1.99984V4.45817C2.0625 4.48942 2.06771 4.51025 2.08333 4.52067C2.10937 4.52067 2.13021 4.51025 2.14583 4.479C2.3125 4.31234 2.50521 4.18734 2.72917 4.104C2.94792 4.02067 3.1875 3.979 3.4375 3.979C4.0625 3.979 4.5625 4.18734 4.9375 4.604C5.3125 5.01025 5.52083 5.57275 5.5625 6.2915Z" fill="#D72333"/>
<path d="M9.27686 10.5625C8.41227 10.5625 7.71956 10.2917 7.19352 9.75C6.66227 9.20833 6.40186 8.49479 6.40186 7.60417V2.95833C6.40186 2.07292 6.66227 1.35417 7.19352 0.8125C7.71956 0.270833 8.41227 0 9.27686 0C9.82894 0 10.3289 0.125 10.7769 0.375C11.2196 0.614583 11.5581 0.958333 11.7977 1.41667C12.0321 1.86458 12.1519 2.375 12.1519 2.95833V7.60417C12.1519 8.1875 12.0321 8.70833 11.7977 9.16667C11.5581 9.61458 11.2196 9.95833 10.7769 10.2083C10.3289 10.4427 9.82894 10.5625 9.27686 10.5625ZM9.27686 8.79167C9.51123 8.79167 9.70394 8.69792 9.86019 8.5C10.0112 8.30729 10.0894 8.05208 10.0894 7.72917V2.83333C10.0894 2.51563 10.0112 2.26042 9.86019 2.0625C9.70394 1.86979 9.51123 1.77083 9.27686 1.77083C9.02686 1.77083 8.82373 1.86979 8.67269 2.0625C8.53206 2.26042 8.46436 2.51563 8.46436 2.83333V7.72917C8.46436 8.05208 8.53206 8.30729 8.67269 8.5C8.82373 8.69792 9.02686 8.79167 9.27686 8.79167Z" fill="#D72333"/>
</svg>
