<svg width="7" height="11" viewBox="0 0 7 11" fill="none" xmlns="http://www.w3.org/2000/svg">
<path d="M6.5 5.79167C6.54167 5.79167 6.57292 5.8125 6.60417 5.85417C6.64583 5.88542 6.66667 5.91667 6.66667 5.95833V7.45833C6.66667 7.51563 6.64583 7.5625 6.60417 7.60417C6.57292 7.63542 6.54167 7.64583 6.5 7.64583H6.04167C5.98438 7.64583 5.95833 7.66667 5.95833 7.70833V10.0625C5.95833 10.1042 5.9375 10.1458 5.89583 10.1875C5.86458 10.2188 5.83333 10.2292 5.79167 10.2292H4.08333C4.02604 10.2292 3.97917 10.2188 3.9375 10.1875C3.90625 10.1458 3.89583 10.1042 3.89583 10.0625V7.70833C3.89583 7.66667 3.875 7.64583 3.83333 7.64583H0.166667C0.125 7.64583 0.0833333 7.63542 0.0416667 7.60417C0.010416 7.5625 0 7.51563 0 7.45833V6.27083C0 6.17708 0.005208 6.09896 0.0208333 6.04167L1.97917 0.145833C2.00521 0.052084 2.06771 0 2.16667 0H4.02083C4.07292 0 4.11458 0.0208333 4.14583 0.0625C4.17188 0.0937507 4.17708 0.135417 4.16667 0.1875L2.41667 5.6875C2.40104 5.76042 2.41667 5.79167 2.45833 5.79167H3.83333C3.875 5.79167 3.89583 5.76563 3.89583 5.70833V4.1875C3.89583 4.14583 3.90625 4.11458 3.9375 4.08333C3.97917 4.04167 4.02604 4.02083 4.08333 4.02083H5.79167C5.83333 4.02083 5.86458 4.04167 5.89583 4.08333C5.9375 4.11458 5.95833 4.14583 5.95833 4.1875V5.70833C5.95833 5.76563 5.98438 5.79167 6.04167 5.79167H6.5Z" fill="#D72333"/>
</svg>
