<svg width="7" height="12" viewBox="0 0 7 12" fill="none" xmlns="http://www.w3.org/2000/svg">
<path d="M3.14583 11.3125C2.19792 11.3125 1.4375 11.0365 0.854167 10.4792C0.281251 9.91146 0 9.15625 0 8.20833V3.08333C0 2.14063 0.281251 1.39063 0.854167 0.833333C1.4375 0.281249 2.19792 0 3.14583 0C4.10417 0 4.86458 0.281249 5.4375 0.833333C6.02083 1.39063 6.3125 2.14063 6.3125 3.08333V3.25C6.3125 3.30729 6.29167 3.35417 6.25 3.39583C6.20833 3.42708 6.16667 3.4375 6.125 3.4375L4.27083 3.52083C4.14583 3.52083 4.08333 3.46875 4.08333 3.35417V2.9375C4.08333 2.63542 3.98958 2.38542 3.8125 2.1875C3.64583 1.99479 3.42187 1.89583 3.14583 1.89583C2.86458 1.89583 2.64583 1.99479 2.47917 2.1875C2.3125 2.38542 2.22917 2.63542 2.22917 2.9375V8.39583C2.22917 8.70313 2.3125 8.94792 2.47917 9.125C2.64583 9.30729 2.86458 9.39583 3.14583 9.39583C3.42187 9.39583 3.64583 9.30729 3.8125 9.125C3.98958 8.94792 4.08333 8.70313 4.08333 8.39583V7.95833C4.08333 7.90625 4.09375 7.86458 4.125 7.83333C4.16667 7.79167 4.21354 7.77083 4.27083 7.77083L6.125 7.85417C6.16667 7.85417 6.20833 7.875 6.25 7.91667C6.29167 7.94792 6.3125 7.98958 6.3125 8.04167V8.20833C6.3125 9.15625 6.02083 9.91146 5.4375 10.4792C4.85417 11.0365 4.08854 11.3125 3.14583 11.3125Z" fill="#D72333"/>
</svg>
