<svg width="7" height="15" viewBox="0 0 7 15" fill="none" xmlns="http://www.w3.org/2000/svg">
<path d="M3.125 14.5C2.17708 14.5 1.42187 14.2083 0.854167 13.625C0.281249 13.0313 0 12.2396 0 11.25V3.58333C0 3.53125 0.0104173 3.48958 0.0416667 3.45833C0.0833333 3.41667 0.130208 3.39583 0.1875 3.39583H2.02083C2.07292 3.39583 2.11458 3.41667 2.14583 3.45833C2.1875 3.48958 2.20833 3.53125 2.20833 3.58333V11.4792C2.20833 11.8125 2.29167 12.0833 2.45833 12.2917C2.625 12.5 2.84375 12.6042 3.125 12.6042C3.38542 12.6042 3.60417 12.5 3.77083 12.2917C3.9375 12.0833 4.02083 11.8125 4.02083 11.4792V3.58333C4.02083 3.53125 4.03125 3.48958 4.0625 3.45833C4.10417 3.41667 4.15104 3.39583 4.20833 3.39583H6.04167C6.09375 3.39583 6.13542 3.41667 6.16667 3.45833C6.20833 3.48958 6.22917 3.53125 6.22917 3.58333V11.25C6.22917 12.2396 5.94271 13.0313 5.375 13.625C4.80208 14.2083 4.05208 14.5 3.125 14.5ZM4.54167 2.47917C4.19271 2.47917 3.90104 2.36458 3.66667 2.125C3.42708 1.89063 3.3125 1.59896 3.3125 1.25C3.3125 0.875 3.42187 0.578125 3.64583 0.354167C3.88021 0.119792 4.17708 0 4.54167 0C4.91667 0 5.21354 0.119792 5.4375 0.354167C5.67188 0.578125 5.79167 0.875 5.79167 1.25C5.79167 1.59896 5.67188 1.89063 5.4375 2.125C5.19792 2.36458 4.90104 2.47917 4.54167 2.47917ZM1.64583 2.47917C1.29687 2.47917 1.00521 2.36458 0.770833 2.125C0.531249 1.89063 0.416667 1.59896 0.416667 1.25C0.416667 0.875 0.526041 0.578125 0.75 0.354167C0.984375 0.119792 1.28125 0 1.64583 0C2.02083 0 2.31771 0.119792 2.54167 0.354167C2.77604 0.578125 2.89583 0.875 2.89583 1.25C2.89583 1.59896 2.77604 1.89063 2.54167 2.125C2.30208 2.36458 2.00521 2.47917 1.64583 2.47917Z" fill="#D72333"/>
</svg>
