<svg width="4" height="7" viewBox="0 0 4 7" fill="none" xmlns="http://www.w3.org/2000/svg">
<path d="M2.5625 0.0833333C2.5625 0.0312507 2.58854 0 2.64583 0H3.10417C3.17187 0 3.20833 0.0312507 3.20833 0.0833333V6.33333C3.20833 6.39063 3.17187 6.41667 3.10417 6.41667H2.5625C2.52083 6.41667 2.48437 6.39063 2.45833 6.33333L0.6875 1.60417C0.671875 1.59375 0.656251 1.58333 0.645833 1.58333C0.630208 1.58333 0.625 1.59375 0.625 1.60417L0.645833 6.33333C0.645833 6.39063 0.614584 6.41667 0.5625 6.41667H0.0833333C0.0260413 6.41667 0 6.39063 0 6.33333V0.0833333C0 0.0312507 0.0260413 0 0.0833333 0H0.625C0.666667 0 0.692708 0.0312507 0.708333 0.0833333L2.52083 4.8125C2.52083 4.84375 2.52604 4.85417 2.54167 4.85417C2.55208 4.84375 2.5625 4.82813 2.5625 4.8125V0.0833333Z" fill="#D72333"/>
</svg>
