<svg width="6" height="12" viewBox="0 0 6 12" fill="none" xmlns="http://www.w3.org/2000/svg">
<path d="M2.9375 11.2292C2.0625 11.2292 1.35937 10.974 0.833333 10.4583C0.302083 9.93229 0.0416667 9.24479 0.0416667 8.39583V7.97917C0.0416667 7.92708 0.0520827 7.88542 0.0833333 7.85417C0.125 7.8125 0.171875 7.79167 0.229167 7.79167H1.64583C1.69792 7.79167 1.73958 7.8125 1.77083 7.85417C1.8125 7.88542 1.83333 7.92708 1.83333 7.97917V8.29167C1.83333 8.70833 1.9375 9.04167 2.14583 9.29167C2.35417 9.54167 2.61458 9.66667 2.9375 9.66667C3.25521 9.66667 3.52083 9.55208 3.72917 9.3125C3.9375 9.07813 4.04167 8.76563 4.04167 8.375C4.04167 8.09896 3.98437 7.86458 3.875 7.66667C3.76042 7.47396 3.60417 7.28646 3.39583 7.10417C3.1875 6.92708 2.85417 6.66667 2.39583 6.33333C1.86458 5.95833 1.44271 5.625 1.125 5.33333C0.802083 5.04167 0.531251 4.6875 0.3125 4.27083C0.104167 3.85417 0 3.375 0 2.83333C0 1.97396 0.255208 1.28646 0.770833 0.770833C1.29687 0.260417 1.98958 0 2.85417 0C3.72917 0 4.42708 0.270833 4.95833 0.8125C5.48438 1.34375 5.75 2.05208 5.75 2.9375V3.33333C5.75 3.375 5.72917 3.41667 5.6875 3.45833C5.65625 3.5 5.61458 3.52083 5.5625 3.52083H4.16667C4.10938 3.52083 4.0625 3.5 4.02083 3.45833C3.98958 3.41667 3.97917 3.375 3.97917 3.33333V2.91667C3.97917 2.51563 3.875 2.1875 3.66667 1.9375C3.45833 1.6875 3.1875 1.5625 2.85417 1.5625C2.54687 1.5625 2.29167 1.68229 2.08333 1.91667C1.88542 2.14063 1.79167 2.44792 1.79167 2.83333C1.79167 3.20833 1.89583 3.53125 2.10417 3.79167C2.32292 4.05729 2.75 4.41667 3.375 4.875C4.01042 5.34896 4.48958 5.73958 4.8125 6.04167C5.14583 6.33333 5.39583 6.66146 5.5625 7.02083C5.73958 7.36979 5.83333 7.78646 5.83333 8.27083C5.83333 9.16146 5.5625 9.875 5.02083 10.4167C4.48958 10.9583 3.79687 11.2292 2.9375 11.2292Z" fill="white"/>
</svg>
