<svg width="6" height="12" viewBox="0 0 6 12" fill="none" xmlns="http://www.w3.org/2000/svg">
<path d="M2.70833 11.2292C1.90104 11.2292 1.25 10.9792 0.75 10.4792C0.25 9.97917 0 9.3125 0 8.47917V2.75C0 1.91667 0.25 1.25 0.75 0.75C1.25 0.25 1.90104 0 2.70833 0C3.52604 0 4.1875 0.25 4.6875 0.75C5.1875 1.25 5.4375 1.91667 5.4375 2.75V8.47917C5.4375 9.30208 5.1875 9.96875 4.6875 10.4792C4.1875 10.9792 3.52604 11.2292 2.70833 11.2292ZM2.70833 10.25C3.19271 10.25 3.58333 10.0938 3.875 9.77083C4.16667 9.45313 4.3125 9.04167 4.3125 8.54167V2.6875C4.3125 2.17708 4.16667 1.76563 3.875 1.45833C3.58333 1.14063 3.19271 0.979167 2.70833 0.979167C2.23437 0.979167 1.85417 1.14063 1.5625 1.45833C1.27083 1.76563 1.125 2.17708 1.125 2.6875V8.54167C1.125 9.04167 1.27083 9.45313 1.5625 9.77083C1.85417 10.0938 2.23437 10.25 2.70833 10.25Z" fill="#D72333"/>
</svg>
