<svg width="6" height="11" viewBox="0 0 6 11" fill="none" xmlns="http://www.w3.org/2000/svg">
<path d="M3.53255 2.8125C4.05859 2.8125 4.45443 2.97396 4.72005 3.29167C4.99609 3.61458 5.13672 4.07292 5.13672 4.66667C5.13672 4.78125 5.1263 4.95313 5.11589 5.1875L4.49089 10.3542C4.45964 10.4531 4.40755 10.5 4.32422 10.5H3.57422C3.53255 10.5 3.49609 10.4896 3.47005 10.4583C3.4388 10.4323 3.43359 10.3958 3.44922 10.3542L4.07422 5.27083C4.08464 5.11979 4.09505 5.01042 4.09505 4.9375C4.09505 4.5625 4.0013 4.27083 3.82422 4.0625C3.65755 3.84375 3.40755 3.72917 3.07422 3.72917C2.69922 3.72917 2.3763 3.875 2.11589 4.16667C1.86589 4.45833 1.70964 4.85417 1.65755 5.35417L1.03255 10.3542C1.01693 10.4531 0.959636 10.5 0.865886 10.5H0.115886C0.074219 10.5 0.0377603 10.4896 0.011719 10.4583C-0.00390633 10.4323 -0.00390633 10.3958 0.011719 10.3542L1.24089 0.145833C1.2513 0.104167 1.27214 0.0729173 1.30339 0.0416667C1.32943 0.0156253 1.36589 0 1.40755 0H2.15755C2.2513 0 2.29297 0.0520827 2.28255 0.145833L1.88672 3.54167C1.87109 3.55729 1.87109 3.57292 1.88672 3.58333C1.91276 3.59896 1.93359 3.59375 1.94922 3.5625C2.15755 3.3125 2.39193 3.125 2.65755 3C2.93359 2.875 3.22526 2.8125 3.53255 2.8125Z" fill="#D51224"/>
</svg>
