<svg width="255" height="44" viewBox="0 0 255 44" fill="none" xmlns="http://www.w3.org/2000/svg">
<path d="M5.7085 3.521C5.75016 3.43766 5.82308 3.396 5.93766 3.396H7.771C7.82308 3.396 7.86475 3.41683 7.896 3.4585C7.93766 3.48975 7.9585 3.53141 7.9585 3.5835V14.1877C7.9585 14.245 7.93766 14.2918 7.896 14.3335C7.86475 14.3647 7.82308 14.3752 7.771 14.3752H5.93766C5.88037 14.3752 5.8335 14.3647 5.79183 14.3335C5.76058 14.2918 5.75016 14.245 5.75016 14.1877V7.146C5.75016 7.10433 5.73454 7.0835 5.7085 7.0835C5.69287 7.0835 5.67204 7.09912 5.646 7.12516L4.41683 9.29183C4.37516 9.37516 4.3335 9.41683 4.29183 9.41683C4.26058 9.41683 4.21891 9.37516 4.16683 9.29183L2.9585 7.12516C2.92725 7.09912 2.9012 7.0835 2.87516 7.0835C2.85954 7.0835 2.85433 7.10433 2.85433 7.146V14.1877C2.85433 14.245 2.8335 14.2918 2.79183 14.3335C2.76058 14.3647 2.71891 14.3752 2.66683 14.3752H0.833496C0.776204 14.3752 0.729329 14.3647 0.687663 14.3335C0.656413 14.2918 0.645996 14.245 0.645996 14.1877V3.5835C0.645996 3.53141 0.656413 3.48975 0.687663 3.4585C0.729329 3.41683 0.776204 3.396 0.833496 3.396H2.646C2.73975 3.396 2.81787 3.43766 2.87516 3.521L4.271 6.021C4.29704 6.06266 4.32308 6.06266 4.35433 6.021L5.7085 3.521Z" fill="#D72333"/>
<path d="M12.3696 14.5C11.4217 14.5 10.6665 14.2083 10.0988 13.625C9.52588 13.0313 9.24463 12.2396 9.24463 11.25V3.58333C9.24463 3.53125 9.25505 3.48958 9.2863 3.45833C9.32796 3.41667 9.37484 3.39583 9.43213 3.39583H11.2655C11.3175 3.39583 11.3592 3.41667 11.3905 3.45833C11.4321 3.48958 11.453 3.53125 11.453 3.58333V11.4792C11.453 11.8125 11.5363 12.0833 11.703 12.2917C11.8696 12.5 12.0884 12.6042 12.3696 12.6042C12.63 12.6042 12.8488 12.5 13.0155 12.2917C13.1821 12.0833 13.2655 11.8125 13.2655 11.4792V3.58333C13.2655 3.53125 13.2759 3.48958 13.3071 3.45833C13.3488 3.41667 13.3957 3.39583 13.453 3.39583H15.2863C15.3384 3.39583 15.38 3.41667 15.4113 3.45833C15.453 3.48958 15.4738 3.53125 15.4738 3.58333V11.25C15.4738 12.2396 15.1873 13.0313 14.6196 13.625C14.0467 14.2083 13.2967 14.5 12.3696 14.5ZM13.7863 2.47917C13.4373 2.47917 13.1457 2.36458 12.9113 2.125C12.6717 1.89063 12.5571 1.59896 12.5571 1.25C12.5571 0.875 12.6665 0.578125 12.8905 0.354167C13.1248 0.119792 13.4217 0 13.7863 0C14.1613 0 14.4582 0.119792 14.6821 0.354167C14.9165 0.578125 15.0363 0.875 15.0363 1.25C15.0363 1.59896 14.9165 1.89063 14.6821 2.125C14.4425 2.36458 14.1457 2.47917 13.7863 2.47917ZM10.8905 2.47917C10.5415 2.47917 10.2498 2.36458 10.0155 2.125C9.77588 1.89063 9.6613 1.59896 9.6613 1.25C9.6613 0.875 9.77067 0.578125 9.99463 0.354167C10.229 0.119792 10.5259 0 10.8905 0C11.2655 0 11.5623 0.119792 11.7863 0.354167C12.0207 0.578125 12.1405 0.875 12.1405 1.25C12.1405 1.59896 12.0207 1.89063 11.7863 2.125C11.5467 2.36458 11.2498 2.47917 10.8905 2.47917Z" fill="#D72333"/>
<path d="M19.6359 14.5002C19.0213 14.5002 18.4901 14.3804 18.0317 14.146C17.5734 13.896 17.2192 13.5575 16.9692 13.1252C16.7192 12.6981 16.5942 12.1981 16.5942 11.6252V11.1668C16.5942 11.1252 16.6047 11.0835 16.6359 11.0418C16.6776 11.0002 16.7244 10.9793 16.7817 10.9793H18.5734C18.6255 10.9793 18.6672 11.0002 18.6984 11.0418C18.7401 11.0835 18.7609 11.1252 18.7609 11.1668V11.521C18.7609 11.8439 18.8442 12.1043 19.0109 12.3127C19.1776 12.5106 19.3859 12.6043 19.6359 12.6043C19.8859 12.6043 20.0942 12.5158 20.2609 12.3335C20.438 12.1408 20.5317 11.8908 20.5317 11.5835C20.5317 11.2658 20.4172 10.995 20.1984 10.771C19.9901 10.5522 19.5838 10.2189 18.9901 9.771C18.4588 9.396 18.0317 9.06266 17.6984 8.771C17.3755 8.47933 17.0994 8.11996 16.8651 7.68766C16.6411 7.26058 16.5317 6.76579 16.5317 6.2085C16.5317 5.32308 16.8078 4.61475 17.3651 4.0835C17.9172 3.54183 18.6567 3.271 19.5734 3.271C20.4901 3.271 21.2244 3.55225 21.7817 4.10433C22.3338 4.66162 22.6151 5.38558 22.6151 6.271V6.66683C22.6151 6.7085 22.5942 6.75016 22.5526 6.79183C22.5213 6.8335 22.4797 6.85433 22.4276 6.85433H20.6359C20.5786 6.85433 20.5317 6.8335 20.4901 6.79183C20.4588 6.75016 20.4484 6.7085 20.4484 6.66683V6.22933C20.4484 5.91162 20.3651 5.65641 20.1984 5.4585C20.0317 5.26579 19.8234 5.16683 19.5734 5.16683C19.3234 5.16683 19.1151 5.26058 18.9484 5.43766C18.7922 5.61995 18.7192 5.87516 18.7192 6.2085C18.7192 6.51579 18.813 6.79183 19.0109 7.04183C19.2192 7.28141 19.6151 7.61475 20.1984 8.04183C20.8338 8.51579 21.3234 8.90641 21.6567 9.2085C21.9901 9.50016 22.2453 9.82829 22.4276 10.1877C22.6047 10.5522 22.6984 10.9793 22.6984 11.4793C22.6984 12.4116 22.4119 13.146 21.8442 13.6877C21.2869 14.2293 20.5526 14.5002 19.6359 14.5002Z" fill="#D72333"/>
<path d="M23.957 14.3752C23.8997 14.3752 23.8529 14.3647 23.8112 14.3335C23.7799 14.2918 23.7695 14.245 23.7695 14.1877V3.5835C23.7695 3.53141 23.7799 3.48975 23.8112 3.4585C23.8529 3.41683 23.8997 3.396 23.957 3.396H25.7904C25.8424 3.396 25.8841 3.41683 25.9154 3.4585C25.957 3.48975 25.9779 3.53141 25.9779 3.5835V12.396C25.9779 12.4533 26.0039 12.4793 26.0612 12.4793H29.3529C29.4049 12.4793 29.4466 12.5002 29.4779 12.5418C29.5195 12.5731 29.5404 12.6147 29.5404 12.6668V14.1877C29.5404 14.245 29.5195 14.2918 29.4779 14.3335C29.4466 14.3647 29.4049 14.3752 29.3529 14.3752H23.957Z" fill="#D72333"/>
<path d="M30.6411 14.3752C30.5838 14.3752 30.5369 14.3647 30.4953 14.3335C30.464 14.2918 30.4536 14.245 30.4536 14.1877V3.5835C30.4536 3.53141 30.464 3.48975 30.4953 3.4585C30.5369 3.41683 30.5838 3.396 30.6411 3.396H32.4744C32.5265 3.396 32.5682 3.41683 32.5994 3.4585C32.6411 3.48975 32.6619 3.53141 32.6619 3.5835V14.1877C32.6619 14.245 32.6411 14.2918 32.5994 14.3335C32.5682 14.3647 32.5265 14.3752 32.4744 14.3752H30.6411Z" fill="#D72333"/>
<path d="M7.31266 23.5894C7.93766 23.5894 8.42204 23.8185 8.771 24.2769C9.11475 24.7352 9.29183 25.3758 9.29183 26.1935V31.4644C9.29183 31.5789 9.23454 31.631 9.12516 31.631H8.35433C8.23975 31.631 8.18766 31.5789 8.18766 31.4644V26.2769C8.18766 25.7508 8.07308 25.3341 7.85433 25.0269C7.63037 24.7091 7.3335 24.5477 6.9585 24.5477C6.56787 24.5477 6.25537 24.7039 6.021 25.006C5.79704 25.3133 5.68766 25.73 5.68766 26.256V31.4644C5.68766 31.5789 5.63037 31.631 5.521 31.631H4.72933C4.61475 31.631 4.56266 31.5789 4.56266 31.4644V26.2769C4.56266 25.7508 4.44808 25.3341 4.22933 25.0269C4.00537 24.7091 3.7137 24.5477 3.35433 24.5477C2.9637 24.5477 2.6512 24.7039 2.41683 25.006C2.17725 25.3133 2.06266 25.73 2.06266 26.256V31.4644C2.06266 31.5789 2.00537 31.631 1.896 31.631H1.10433C1.00537 31.631 0.958496 31.5789 0.958496 31.4644V23.8602C0.958496 23.7508 1.00537 23.6935 1.10433 23.6935H1.896C2.00537 23.6935 2.06266 23.7508 2.06266 23.8602V24.3394C2.06266 24.355 2.06787 24.3706 2.0835 24.381C2.09391 24.381 2.10954 24.3758 2.12516 24.3602C2.3335 24.0998 2.56787 23.9019 2.8335 23.7769C3.10954 23.6519 3.4012 23.5894 3.7085 23.5894C4.09391 23.5894 4.43766 23.6883 4.72933 23.881C5.021 24.0789 5.25016 24.3498 5.41683 24.6935C5.42725 24.7248 5.44287 24.7352 5.4585 24.7352C5.48454 24.7352 5.50016 24.7144 5.50016 24.6727C5.69287 24.2977 5.94808 24.0269 6.271 23.8602C6.60433 23.6831 6.94808 23.5894 7.31266 23.5894Z" fill="#D72333"/>
<path d="M11.793 22.2562C11.5273 22.2562 11.3138 22.1729 11.1471 22.0062C10.9909 21.8395 10.918 21.6312 10.918 21.3812C10.918 21.1208 10.9909 20.902 11.1471 20.7354C11.3138 20.5687 11.5273 20.4854 11.793 20.4854C12.043 20.4854 12.2513 20.5687 12.418 20.7354C12.5846 20.902 12.668 21.1208 12.668 21.3812C12.668 21.6312 12.5846 21.8395 12.418 22.0062C12.2513 22.1729 12.043 22.2562 11.793 22.2562ZM11.3971 31.6312C11.2982 31.6312 11.2513 31.5791 11.2513 31.4645V23.8604C11.2513 23.751 11.2982 23.6937 11.3971 23.6937H12.2096C12.3034 23.6937 12.3555 23.751 12.3555 23.8604V31.4645C12.3555 31.5791 12.3034 31.6312 12.2096 31.6312H11.3971Z" fill="#D72333"/>
<path d="M17.182 24.3602C17.182 24.4748 17.1247 24.5269 17.0153 24.5269H15.8278C15.7861 24.5269 15.7653 24.5477 15.7653 24.5894V29.381C15.7653 29.8706 15.8486 30.2039 16.0153 30.381C16.182 30.5633 16.4372 30.6519 16.7861 30.6519H16.9528C17.0466 30.6519 17.0986 30.7039 17.0986 30.7977V31.4644C17.0986 31.5789 17.0466 31.631 16.9528 31.631H16.557C15.932 31.631 15.458 31.5008 15.1403 31.2352C14.8174 30.9748 14.6611 30.4644 14.6611 29.7144V24.5894C14.6611 24.5477 14.6403 24.5269 14.5986 24.5269H13.9945C13.8955 24.5269 13.8486 24.4748 13.8486 24.3602V23.8602C13.8486 23.7508 13.8955 23.6935 13.9945 23.6935H14.5986C14.6403 23.6935 14.6611 23.6727 14.6611 23.631V21.881C14.6611 21.7716 14.7132 21.7144 14.8278 21.7144H15.6195C15.7132 21.7144 15.7653 21.7716 15.7653 21.881V23.631C15.7653 23.6727 15.7861 23.6935 15.8278 23.6935H17.0153C17.1247 23.6935 17.182 23.7508 17.182 23.8602V24.3602Z" fill="#D72333"/>
<path d="M27.2593 28.6519C27.2593 29.5998 26.9989 30.3341 26.4884 30.8602C25.9884 31.3758 25.3062 31.631 24.4468 31.631H22.0509C21.9364 31.631 21.8843 31.5789 21.8843 31.4644V20.7977C21.8843 20.7039 21.9364 20.6519 22.0509 20.6519H24.3009C25.202 20.6519 25.9103 20.9019 26.4259 21.4019C26.9364 21.8914 27.1968 22.5998 27.1968 23.5269C27.1968 24.6935 26.7593 25.4956 25.8843 25.9227C25.8687 25.9383 25.8634 25.9539 25.8634 25.9644C25.8634 25.9644 25.8634 25.9748 25.8634 25.9852C26.7905 26.5164 27.2593 27.4019 27.2593 28.6519ZM23.0718 21.631C23.0301 21.631 23.0093 21.6519 23.0093 21.6935V25.4644C23.0093 25.506 23.0301 25.5269 23.0718 25.5269H24.3009C24.8687 25.5269 25.3062 25.3602 25.6134 25.0269C25.9312 24.6935 26.0926 24.2248 26.0926 23.6102C26.0926 22.9852 25.9312 22.5008 25.6134 22.1519C25.3062 21.8081 24.8687 21.631 24.3009 21.631H23.0718ZM24.3634 30.6519C24.9155 30.6519 25.3478 30.4644 25.6551 30.0894C25.9728 29.7144 26.1343 29.1935 26.1343 28.5269C26.1343 27.8498 25.9728 27.3185 25.6551 26.9435C25.3478 26.5685 24.9155 26.381 24.3634 26.381H23.0718C23.0301 26.381 23.0093 26.4019 23.0093 26.4435V30.5894C23.0093 30.631 23.0301 30.6519 23.0718 30.6519H24.3634Z" fill="#D72333"/>
<path d="M29.4297 22.2562C29.1641 22.2562 28.9505 22.1729 28.7839 22.0062C28.6276 21.8395 28.5547 21.6312 28.5547 21.3812C28.5547 21.1208 28.6276 20.902 28.7839 20.7354C28.9505 20.5687 29.1641 20.4854 29.4297 20.4854C29.6797 20.4854 29.888 20.5687 30.0547 20.7354C30.2214 20.902 30.3047 21.1208 30.3047 21.3812C30.3047 21.6312 30.2214 21.8395 30.0547 22.0062C29.888 22.1729 29.6797 22.2562 29.4297 22.2562ZM29.0339 31.6312C28.9349 31.6312 28.888 31.5791 28.888 31.4645V23.8604C28.888 23.751 28.9349 23.6937 29.0339 23.6937H29.8464C29.9401 23.6937 29.9922 23.751 29.9922 23.8604V31.4645C29.9922 31.5791 29.9401 31.6312 29.8464 31.6312H29.0339Z" fill="#D72333"/>
<path d="M34.3187 31.7563C33.5687 31.7563 32.9697 31.5428 32.527 31.1105C32.0791 30.6678 31.8604 30.0845 31.8604 29.3605V25.9855C31.8604 25.2772 32.0791 24.7043 32.527 24.2563C32.9697 23.798 33.5687 23.5688 34.3187 23.5688C35.0687 23.5688 35.6624 23.798 36.1104 24.2563C36.5687 24.7043 36.7979 25.2772 36.7979 25.9855V29.3605C36.7979 30.0845 36.5687 30.6678 36.1104 31.1105C35.6624 31.5428 35.0687 31.7563 34.3187 31.7563ZM34.3187 30.7772C34.7041 30.7772 35.027 30.6418 35.277 30.3605C35.5374 30.0845 35.6729 29.7251 35.6729 29.2772V26.048C35.6729 25.6053 35.5374 25.2459 35.277 24.9647C35.027 24.6886 34.7041 24.548 34.3187 24.548C33.9124 24.548 33.5895 24.6886 33.3395 24.9647C33.0895 25.2459 32.9645 25.6053 32.9645 26.048V29.2772C32.9645 29.7251 33.0895 30.0845 33.3395 30.3605C33.5895 30.6418 33.9124 30.7772 34.3187 30.7772Z" fill="#D72333"/>
<path d="M38.2467 27.2355C38.1322 27.2355 38.0801 27.1886 38.0801 27.0897V26.423C38.0801 26.3136 38.1322 26.2563 38.2467 26.2563H41.8301C41.9395 26.2563 41.9967 26.3136 41.9967 26.423V27.0897C41.9967 27.1886 41.9395 27.2355 41.8301 27.2355H38.2467Z" fill="#D72333"/>
<path d="M45.4499 31.756C44.6686 31.756 44.0384 31.5164 43.554 31.0269C43.0801 30.5425 42.8457 29.9019 42.8457 29.1102V27.7977C42.8457 27.6883 42.8926 27.631 42.9915 27.631H43.7832C43.8926 27.631 43.9499 27.6883 43.9499 27.7977V29.131C43.9499 29.6206 44.0801 30.0164 44.3457 30.3185C44.6217 30.6258 44.9915 30.7769 45.4499 30.7769C45.877 30.7769 46.2311 30.6258 46.5124 30.3185C46.7884 30.0164 46.929 29.6206 46.929 29.131V20.7977C46.929 20.7039 46.9811 20.6519 47.0957 20.6519H47.8874C47.9967 20.6519 48.054 20.7039 48.054 20.7977V29.1102C48.054 29.9019 47.8092 30.5425 47.3249 31.0269C46.8353 31.5164 46.2103 31.756 45.4499 31.756Z" fill="#D72333"/>
<path d="M52.4261 31.7563C51.6761 31.7563 51.0771 31.5428 50.6344 31.1105C50.1865 30.6678 49.9678 30.0845 49.9678 29.3605V25.9855C49.9678 25.2772 50.1865 24.7043 50.6344 24.2563C51.0771 23.798 51.6761 23.5688 52.4261 23.5688C53.1761 23.5688 53.7699 23.798 54.2178 24.2563C54.6761 24.7043 54.9053 25.2772 54.9053 25.9855V29.3605C54.9053 30.0845 54.6761 30.6678 54.2178 31.1105C53.7699 31.5428 53.1761 31.7563 52.4261 31.7563ZM52.4261 30.7772C52.8115 30.7772 53.1344 30.6418 53.3844 30.3605C53.6449 30.0845 53.7803 29.7251 53.7803 29.2772V26.048C53.7803 25.6053 53.6449 25.2459 53.3844 24.9647C53.1344 24.6886 52.8115 24.548 52.4261 24.548C52.0199 24.548 51.6969 24.6886 51.4469 24.9647C51.1969 25.2459 51.0719 25.6053 51.0719 26.048V29.2772C51.0719 29.7251 51.1969 30.0845 51.4469 30.3605C51.6969 30.6418 52.0199 30.7772 52.4261 30.7772Z" fill="#D72333"/>
<path d="M60.2503 23.8605C60.2503 23.7511 60.3024 23.6938 60.417 23.6938H61.2087C61.318 23.6938 61.3753 23.7511 61.3753 23.8605V31.4647C61.3753 32.5897 61.1097 33.4438 60.5837 34.0272C60.068 34.6105 59.2087 34.8709 58.0003 34.8188C57.8857 34.8032 57.8337 34.7459 57.8337 34.6522V33.9647C57.8337 33.8657 57.8857 33.8188 58.0003 33.8188C58.8337 33.8293 59.417 33.6366 59.7503 33.2355C60.0837 32.8293 60.2503 32.2147 60.2503 31.3813V30.9022C60.2503 30.8918 60.2399 30.8761 60.2295 30.8605C60.2139 30.8501 60.193 30.8553 60.167 30.8813C60.0003 31.147 59.7764 31.3501 59.5003 31.4855C59.2191 31.6105 58.9222 31.673 58.6045 31.673C57.9482 31.673 57.4274 31.4595 57.042 31.0272C56.667 30.5845 56.4795 30.0011 56.4795 29.2772V25.9647C56.4795 25.2303 56.667 24.647 57.042 24.2147C57.4274 23.7876 57.9482 23.5688 58.6045 23.5688C58.9222 23.5688 59.2191 23.6418 59.5003 23.7772C59.7764 23.9022 60.0003 24.1001 60.167 24.3605C60.193 24.3918 60.2139 24.4022 60.2295 24.4022C60.2399 24.3918 60.2503 24.3709 60.2503 24.3397V23.8605ZM58.9378 30.7147C59.3232 30.7147 59.6357 30.5793 59.8753 30.298C60.1253 30.022 60.2503 29.6626 60.2503 29.2147V26.048C60.2503 25.6053 60.1253 25.2459 59.8753 24.9647C59.6357 24.6886 59.3232 24.548 58.9378 24.548C58.5316 24.548 58.2087 24.6886 57.9587 24.9647C57.7087 25.2459 57.5837 25.6053 57.5837 26.048V29.2147C57.5837 29.6626 57.7087 30.022 57.9587 30.298C58.2087 30.5793 58.5316 30.7147 58.9378 30.7147Z" fill="#D72333"/>
<path d="M65.939 23.5894C66.5744 23.5894 67.0692 23.8133 67.4181 24.256C67.7775 24.6883 67.9598 25.2925 67.9598 26.0685V31.4644C67.9598 31.5789 67.9025 31.631 67.7931 31.631H67.0015C66.8869 31.631 66.8348 31.5789 66.8348 31.4644V26.1727C66.8348 25.6623 66.7202 25.2664 66.5015 24.9852C66.2775 24.6935 65.965 24.5477 65.564 24.5477C65.1473 24.5477 64.8192 24.7039 64.5848 25.006C64.3452 25.3133 64.2306 25.73 64.2306 26.256V31.4644C64.2306 31.5789 64.1785 31.631 64.0848 31.631H63.2723C63.1733 31.631 63.1265 31.5789 63.1265 31.4644V20.7977C63.1265 20.7039 63.1733 20.6519 63.2723 20.6519H64.0848C64.1785 20.6519 64.2306 20.7039 64.2306 20.7977V24.3602C64.2306 24.3758 64.2358 24.3914 64.2515 24.4019C64.2775 24.4175 64.2983 24.4019 64.314 24.3602C64.5067 24.1102 64.741 23.9227 65.0223 23.7977C65.314 23.6623 65.616 23.5894 65.939 23.5894Z" fill="#D72333"/>
<path d="M73.4041 23.8605C73.4041 23.7511 73.451 23.6938 73.55 23.6938H74.3625C74.4562 23.6938 74.5083 23.7511 74.5083 23.8605V31.4647C74.5083 31.5793 74.4562 31.6313 74.3625 31.6313H73.55C73.451 31.6313 73.4041 31.5793 73.4041 31.4647V30.9438C73.4041 30.9178 73.3937 30.9022 73.3833 30.9022C73.3677 30.9022 73.3468 30.9126 73.3208 30.923C72.9979 31.4647 72.4771 31.7355 71.7583 31.7355C71.1333 31.7355 70.6333 31.548 70.2583 31.173C69.8833 30.7876 69.6958 30.2095 69.6958 29.4438V23.8605C69.6958 23.7511 69.7479 23.6938 69.8625 23.6938H70.6541C70.7635 23.6938 70.8208 23.7511 70.8208 23.8605V29.1938C70.8208 29.7095 70.925 30.1053 71.1333 30.3813C71.3521 30.647 71.6646 30.7772 72.0708 30.7772C72.4875 30.7772 72.8104 30.6261 73.05 30.3188C73.2843 30.0168 73.4041 29.6001 73.4041 29.0688V23.8605Z" fill="#D72333"/>
<path d="M79.1196 23.6104C79.38 23.6104 79.604 23.6676 79.7863 23.777C79.854 23.8343 79.88 23.902 79.8696 23.9854L79.6821 24.7979C79.6665 24.8968 79.604 24.9333 79.4946 24.902C79.3696 24.8343 79.2082 24.7979 79.0155 24.7979C78.9321 24.7979 78.8696 24.8083 78.828 24.8187C78.453 24.8499 78.1405 25.0479 77.8905 25.4229C77.6509 25.7874 77.5363 26.2354 77.5363 26.777V31.4645C77.5363 31.5791 77.4842 31.6312 77.3905 31.6312H76.578C76.479 31.6312 76.4321 31.5791 76.4321 31.4645V23.8604C76.4321 23.751 76.479 23.6937 76.578 23.6937H77.3905C77.4842 23.6937 77.5363 23.751 77.5363 23.8604V24.7979C77.5363 24.8291 77.5415 24.8395 77.5571 24.8395C77.5832 24.8395 77.604 24.8291 77.6196 24.7979C77.9217 24.0062 78.4217 23.6104 79.1196 23.6104Z" fill="#D72333"/>
<path d="M83.8055 24.3602C83.8055 24.4748 83.7482 24.5269 83.6388 24.5269H82.4513C82.4097 24.5269 82.3888 24.5477 82.3888 24.5894V29.381C82.3888 29.8706 82.4722 30.2039 82.6388 30.381C82.8055 30.5633 83.0607 30.6519 83.4097 30.6519H83.5763C83.6701 30.6519 83.7222 30.7039 83.7222 30.7977V31.4644C83.7222 31.5789 83.6701 31.631 83.5763 31.631H83.1805C82.5555 31.631 82.0815 31.5008 81.7638 31.2352C81.4409 30.9748 81.2847 30.4644 81.2847 29.7144V24.5894C81.2847 24.5477 81.2638 24.5269 81.2222 24.5269H80.618C80.519 24.5269 80.4722 24.4748 80.4722 24.3602V23.8602C80.4722 23.7508 80.519 23.6935 80.618 23.6935H81.2222C81.2638 23.6935 81.2847 23.6727 81.2847 23.631V21.881C81.2847 21.7716 81.3368 21.7144 81.4513 21.7144H82.243C82.3368 21.7144 82.3888 21.7716 82.3888 21.881V23.631C82.3888 23.6727 82.4097 23.6935 82.4513 23.6935H83.6388C83.7482 23.6935 83.8055 23.7508 83.8055 23.8602V24.3602Z" fill="#D72333"/>
<path d="M84.9954 32.8605C84.9538 32.8605 84.9173 32.8449 84.8913 32.8188C84.86 32.7876 84.8496 32.7459 84.8496 32.6938L85.3496 29.3397C85.3496 29.2459 85.3965 29.1938 85.4954 29.1938H86.2038C86.3132 29.1938 86.36 29.2563 86.3496 29.3813L85.6413 32.7355C85.6257 32.8188 85.5684 32.8605 85.4746 32.8605H84.9954Z" fill="#D72333"/>
<path d="M93.6398 21.5062C93.2492 21.5062 92.9627 21.6416 92.7856 21.902C92.619 22.1676 92.5356 22.5843 92.5356 23.152V23.6312C92.5356 23.6729 92.5565 23.6937 92.5981 23.6937H93.8065C93.9159 23.6937 93.9731 23.751 93.9731 23.8604V24.3604C93.9731 24.4749 93.9159 24.527 93.8065 24.527H92.5981C92.5565 24.527 92.5356 24.5479 92.5356 24.5895V31.4645C92.5356 31.5791 92.4836 31.6312 92.3898 31.6312H91.5981C91.4992 31.6312 91.4523 31.5791 91.4523 31.4645V24.5895C91.4523 24.5479 91.4315 24.527 91.3898 24.527H90.7648C90.6502 24.527 90.5981 24.4749 90.5981 24.3604V23.8604C90.5981 23.751 90.6502 23.6937 90.7648 23.6937H91.3898C91.4315 23.6937 91.4523 23.6729 91.4523 23.6312V23.1312C91.4523 22.2145 91.619 21.5583 91.9523 21.152C92.2856 20.751 92.8377 20.5479 93.619 20.5479H93.8481C93.9419 20.5479 93.994 20.5999 93.994 20.6937V21.3395C93.994 21.4541 93.9367 21.5062 93.8273 21.5062H93.6398Z" fill="#D72333"/>
<path d="M98.1528 23.6104C98.4132 23.6104 98.6372 23.6676 98.8195 23.777C98.8872 23.8343 98.9132 23.902 98.9028 23.9854L98.7153 24.7979C98.6997 24.8968 98.6372 24.9333 98.5278 24.902C98.4028 24.8343 98.2414 24.7979 98.0487 24.7979C97.9653 24.7979 97.9028 24.8083 97.8612 24.8187C97.4862 24.8499 97.1737 25.0479 96.9237 25.4229C96.6841 25.7874 96.5695 26.2354 96.5695 26.777V31.4645C96.5695 31.5791 96.5174 31.6312 96.4237 31.6312H95.6112C95.5122 31.6312 95.4653 31.5791 95.4653 31.4645V23.8604C95.4653 23.751 95.5122 23.6937 95.6112 23.6937H96.4237C96.5174 23.6937 96.5695 23.751 96.5695 23.8604V24.7979C96.5695 24.8291 96.5747 24.8395 96.5903 24.8395C96.6164 24.8395 96.6372 24.8291 96.6528 24.7979C96.9549 24.0062 97.4549 23.6104 98.1528 23.6104Z" fill="#D72333"/>
<path d="M100.714 22.2562C100.448 22.2562 100.235 22.1729 100.068 22.0062C99.9118 21.8395 99.8389 21.6312 99.8389 21.3812C99.8389 21.1208 99.9118 20.902 100.068 20.7354C100.235 20.5687 100.448 20.4854 100.714 20.4854C100.964 20.4854 101.172 20.5687 101.339 20.7354C101.506 20.902 101.589 21.1208 101.589 21.3812C101.589 21.6312 101.506 21.8395 101.339 22.0062C101.172 22.1729 100.964 22.2562 100.714 22.2562ZM100.318 31.6312C100.219 31.6312 100.172 31.5791 100.172 31.4645V23.8604C100.172 23.751 100.219 23.6937 100.318 23.6937H101.131C101.224 23.6937 101.276 23.751 101.276 23.8604V31.4645C101.276 31.5791 101.224 31.6312 101.131 31.6312H100.318Z" fill="#D72333"/>
<path d="M105.374 31.7145C104.65 31.7145 104.071 31.527 103.644 31.152C103.212 30.777 102.999 30.2874 102.999 29.6729V29.5687C102.999 29.4593 103.045 29.402 103.144 29.402H103.915C104.009 29.402 104.061 29.4593 104.061 29.5687V29.652C104.061 29.9854 104.176 30.2718 104.415 30.5062C104.665 30.7301 104.988 30.8395 105.394 30.8395C105.769 30.8395 106.066 30.7301 106.29 30.5062C106.525 30.2718 106.644 29.9801 106.644 29.6312C106.644 29.3551 106.566 29.126 106.415 28.9437C106.275 28.7666 106.108 28.626 105.915 28.527C105.717 28.4176 105.436 28.277 105.061 28.1104C104.644 27.9437 104.301 27.777 104.04 27.6104C103.775 27.4437 103.545 27.2145 103.353 26.9229C103.155 26.6208 103.061 26.2354 103.061 25.777C103.061 25.1104 103.259 24.5843 103.665 24.1937C104.082 23.8083 104.644 23.6104 105.353 23.6104C106.061 23.6104 106.624 23.8135 107.04 24.2145C107.457 24.6051 107.665 25.1312 107.665 25.7979V25.8395C107.665 25.9541 107.613 26.0062 107.519 26.0062H106.79C106.691 26.0062 106.644 25.9541 106.644 25.8395V25.7562C106.644 25.3968 106.525 25.1051 106.29 24.8812C106.051 24.6468 105.749 24.527 105.374 24.527C104.983 24.527 104.676 24.6468 104.457 24.8812C104.233 25.1208 104.124 25.4124 104.124 25.7562C104.124 26.0062 104.191 26.2249 104.332 26.402C104.467 26.5687 104.634 26.7093 104.832 26.8187C105.025 26.9176 105.301 27.0479 105.665 27.2145C106.092 27.3968 106.446 27.5687 106.728 27.7354C107.004 27.902 107.249 28.1416 107.457 28.4437C107.665 28.751 107.769 29.126 107.769 29.5687C107.769 30.2249 107.551 30.7458 107.124 31.1312C106.691 31.5218 106.108 31.7145 105.374 31.7145Z" fill="#D72333"/>
<path d="M111.45 31.7563C110.711 31.7563 110.122 31.5428 109.679 31.1105C109.231 30.6678 109.013 30.0845 109.013 29.3605V25.9647C109.013 25.2563 109.231 24.6834 109.679 24.2355C110.122 23.7928 110.711 23.5688 111.45 23.5688C111.95 23.5688 112.388 23.673 112.763 23.8813C113.138 24.0793 113.419 24.3397 113.617 24.673C113.825 24.9959 113.929 25.3553 113.929 25.7563V25.9022C113.929 26.0168 113.877 26.0688 113.784 26.0688L112.971 26.0897C112.872 26.0897 112.825 26.0428 112.825 25.9438V25.8188C112.825 25.4855 112.69 25.1938 112.429 24.9438C112.179 24.6834 111.851 24.548 111.45 24.548C111.06 24.548 110.742 24.6886 110.492 24.9647C110.242 25.2459 110.117 25.6053 110.117 26.048V29.2772C110.117 29.7251 110.242 30.0845 110.492 30.3605C110.742 30.6418 111.06 30.7772 111.45 30.7772C111.851 30.7772 112.179 30.6522 112.429 30.4022C112.69 30.1418 112.825 29.8397 112.825 29.5063V29.3813C112.825 29.2876 112.872 29.2355 112.971 29.2355L113.784 29.2563C113.877 29.2563 113.929 29.3084 113.929 29.4022V29.5688C113.929 30.2095 113.7 30.7355 113.242 31.1522C112.794 31.5584 112.2 31.7563 111.45 31.7563Z" fill="#D72333"/>
<path d="M118.3 23.5894C118.935 23.5894 119.43 23.8133 119.779 24.256C120.138 24.6883 120.321 25.2925 120.321 26.0685V31.4644C120.321 31.5789 120.263 31.631 120.154 31.631H119.362C119.248 31.631 119.196 31.5789 119.196 31.4644V26.1727C119.196 25.6623 119.081 25.2664 118.862 24.9852C118.638 24.6935 118.326 24.5477 117.925 24.5477C117.508 24.5477 117.18 24.7039 116.946 25.006C116.706 25.3133 116.591 25.73 116.591 26.256V31.4644C116.591 31.5789 116.539 31.631 116.446 31.631H115.633C115.534 31.631 115.487 31.5789 115.487 31.4644V20.7977C115.487 20.7039 115.534 20.6519 115.633 20.6519H116.446C116.539 20.6519 116.591 20.7039 116.591 20.7977V24.3602C116.591 24.3758 116.597 24.3914 116.612 24.4019C116.638 24.4175 116.659 24.4019 116.675 24.3602C116.868 24.1102 117.102 23.9227 117.383 23.7977C117.675 23.6623 117.977 23.5894 118.3 23.5894Z" fill="#D72333"/>
<path d="M126.869 27.923C126.869 28.0376 126.817 28.0897 126.724 28.0897H123.14C123.099 28.0897 123.078 28.1105 123.078 28.1522V29.298C123.078 29.7303 123.203 30.0845 123.453 30.3605C123.703 30.6418 124.021 30.7772 124.411 30.7772C124.744 30.7772 125.026 30.6834 125.265 30.4855C125.5 30.2772 125.651 30.0168 125.724 29.6938C125.765 29.6001 125.828 29.548 125.911 29.548L126.682 29.5688C126.724 29.5688 126.755 29.5897 126.786 29.6313C126.828 29.6626 126.838 29.7043 126.828 29.7563C126.744 30.3709 126.484 30.8553 126.057 31.2147C125.64 31.5793 125.088 31.7563 124.411 31.7563C123.672 31.7563 123.083 31.5428 122.64 31.1105C122.192 30.6678 121.974 30.0845 121.974 29.3605V25.9647C121.974 25.2563 122.192 24.6834 122.64 24.2355C123.083 23.7928 123.672 23.5688 124.411 23.5688C125.161 23.5688 125.755 23.7928 126.203 24.2355C126.646 24.6834 126.869 25.2563 126.869 25.9647V27.923ZM124.411 24.548C124.021 24.548 123.703 24.6886 123.453 24.9647C123.203 25.2459 123.078 25.6053 123.078 26.048V27.0897C123.078 27.1313 123.099 27.1522 123.14 27.1522H125.724C125.765 27.1522 125.786 27.1313 125.786 27.0897V26.048C125.786 25.6053 125.651 25.2459 125.39 24.9647C125.14 24.6886 124.812 24.548 124.411 24.548Z" fill="#D72333"/>
<path d="M131.339 23.5894C131.974 23.5894 132.469 23.8133 132.818 24.256C133.177 24.6883 133.36 25.2925 133.36 26.0685V31.4644C133.36 31.5789 133.302 31.631 133.193 31.631H132.401C132.287 31.631 132.235 31.5789 132.235 31.4644V26.1727C132.235 25.6623 132.12 25.2664 131.901 24.9852C131.677 24.6935 131.365 24.5477 130.964 24.5477C130.547 24.5477 130.219 24.7039 129.985 25.006C129.745 25.3133 129.631 25.73 129.631 26.256V31.4644C129.631 31.5789 129.578 31.631 129.485 31.631H128.672C128.573 31.631 128.526 31.5789 128.526 31.4644V23.8602C128.526 23.7508 128.573 23.6935 128.672 23.6935H129.485C129.578 23.6935 129.631 23.7508 129.631 23.8602V24.3602C129.631 24.3758 129.636 24.3914 129.651 24.4019C129.677 24.4175 129.698 24.4019 129.714 24.3602C129.907 24.1102 130.141 23.9227 130.422 23.7977C130.714 23.6623 131.016 23.5894 131.339 23.5894Z" fill="#D72333"/>
<path d="M143.422 21.4644C143.422 21.5789 143.37 21.631 143.276 21.631H139.672C139.63 21.631 139.609 21.6519 139.609 21.6935V25.5685C139.609 25.6102 139.63 25.631 139.672 25.631H141.943C142.036 25.631 142.089 25.6883 142.089 25.7977V26.4644C142.089 26.5789 142.036 26.631 141.943 26.631H139.672C139.63 26.631 139.609 26.6519 139.609 26.6935V31.4644C139.609 31.5789 139.552 31.631 139.443 31.631H138.651C138.536 31.631 138.484 31.5789 138.484 31.4644V20.7977C138.484 20.7039 138.536 20.6519 138.651 20.6519H143.276C143.37 20.6519 143.422 20.7039 143.422 20.7977V21.4644Z" fill="#D72333"/>
<path d="M147.344 23.6104C147.605 23.6104 147.829 23.6676 148.011 23.777C148.079 23.8343 148.105 23.902 148.094 23.9854L147.907 24.7979C147.891 24.8968 147.829 24.9333 147.719 24.902C147.594 24.8343 147.433 24.7979 147.24 24.7979C147.157 24.7979 147.094 24.8083 147.053 24.8187C146.678 24.8499 146.365 25.0479 146.115 25.4229C145.875 25.7874 145.761 26.2354 145.761 26.777V31.4645C145.761 31.5791 145.709 31.6312 145.615 31.6312H144.803C144.704 31.6312 144.657 31.5791 144.657 31.4645V23.8604C144.657 23.751 144.704 23.6937 144.803 23.6937H145.615C145.709 23.6937 145.761 23.751 145.761 23.8604V24.7979C145.761 24.8291 145.766 24.8395 145.782 24.8395C145.808 24.8395 145.829 24.8291 145.844 24.7979C146.146 24.0062 146.646 23.6104 147.344 23.6104Z" fill="#D72333"/>
<path d="M152.864 23.8604C152.864 23.751 152.91 23.6937 153.009 23.6937H153.822C153.916 23.6937 153.968 23.751 153.968 23.8604V31.4645C153.968 31.5791 153.916 31.6312 153.822 31.6312H153.009C152.91 31.6312 152.864 31.5791 152.864 31.4645V30.9437C152.864 30.9176 152.853 30.902 152.843 30.902C152.827 30.902 152.806 30.9124 152.78 30.9229C152.457 31.4645 151.937 31.7354 151.218 31.7354C150.593 31.7354 150.093 31.5479 149.718 31.1729C149.343 30.7874 149.155 30.2093 149.155 29.4437V23.8604C149.155 23.751 149.207 23.6937 149.322 23.6937H150.114C150.223 23.6937 150.28 23.751 150.28 23.8604V29.1937C150.28 29.7093 150.384 30.1051 150.593 30.3812C150.812 30.6468 151.124 30.777 151.53 30.777C151.947 30.777 152.27 30.626 152.509 30.3187C152.744 30.0166 152.864 29.5999 152.864 29.0687V23.8604ZM152.718 22.2562C152.452 22.2562 152.239 22.1729 152.072 22.0062C151.916 21.8395 151.843 21.6312 151.843 21.3812C151.843 21.1208 151.916 20.902 152.072 20.7354C152.239 20.5687 152.452 20.4854 152.718 20.4854C152.968 20.4854 153.176 20.5687 153.343 20.7354C153.509 20.902 153.593 21.1208 153.593 21.3812C153.593 21.6312 153.509 21.8395 153.343 22.0062C153.176 22.1729 152.968 22.2562 152.718 22.2562ZM150.384 22.2562C150.119 22.2562 149.905 22.1729 149.739 22.0062C149.582 21.8395 149.509 21.6312 149.509 21.3812C149.509 21.1208 149.582 20.902 149.739 20.7354C149.905 20.5687 150.119 20.4854 150.384 20.4854C150.634 20.4854 150.843 20.5687 151.009 20.7354C151.176 20.902 151.259 21.1208 151.259 21.3812C151.259 21.6312 151.176 21.8395 151.009 22.0062C150.843 22.1729 150.634 22.2562 150.384 22.2562Z" fill="#D72333"/>
<path d="M158.162 31.7563C157.423 31.7563 156.834 31.5428 156.391 31.1105C155.943 30.6678 155.725 30.0845 155.725 29.3605V25.9647C155.725 25.2563 155.943 24.6834 156.391 24.2355C156.834 23.7928 157.423 23.5688 158.162 23.5688C158.662 23.5688 159.1 23.673 159.475 23.8813C159.85 24.0793 160.131 24.3397 160.329 24.673C160.537 24.9959 160.641 25.3553 160.641 25.7563V25.9022C160.641 26.0168 160.589 26.0688 160.495 26.0688L159.683 26.0897C159.584 26.0897 159.537 26.0428 159.537 25.9438V25.8188C159.537 25.4855 159.402 25.1938 159.141 24.9438C158.891 24.6834 158.563 24.548 158.162 24.548C157.771 24.548 157.454 24.6886 157.204 24.9647C156.954 25.2459 156.829 25.6053 156.829 26.048V29.2772C156.829 29.7251 156.954 30.0845 157.204 30.3605C157.454 30.6418 157.771 30.7772 158.162 30.7772C158.563 30.7772 158.891 30.6522 159.141 30.4022C159.402 30.1418 159.537 29.8397 159.537 29.5063V29.3813C159.537 29.2876 159.584 29.2355 159.683 29.2355L160.495 29.2563C160.589 29.2563 160.641 29.3084 160.641 29.4022V29.5688C160.641 30.2095 160.412 30.7355 159.954 31.1522C159.506 31.5584 158.912 31.7563 158.162 31.7563Z" fill="#D72333"/>
<path d="M165.012 23.5894C165.647 23.5894 166.142 23.8133 166.491 24.256C166.85 24.6883 167.033 25.2925 167.033 26.0685V31.4644C167.033 31.5789 166.975 31.631 166.866 31.631H166.074C165.96 31.631 165.908 31.5789 165.908 31.4644V26.1727C165.908 25.6623 165.793 25.2664 165.574 24.9852C165.35 24.6935 165.038 24.5477 164.637 24.5477C164.22 24.5477 163.892 24.7039 163.658 25.006C163.418 25.3133 163.303 25.73 163.303 26.256V31.4644C163.303 31.5789 163.251 31.631 163.158 31.631H162.345C162.246 31.631 162.199 31.5789 162.199 31.4644V20.7977C162.199 20.7039 162.246 20.6519 162.345 20.6519H163.158C163.251 20.6519 163.303 20.7039 163.303 20.7977V24.3602C163.303 24.3758 163.309 24.3914 163.324 24.4019C163.35 24.4175 163.371 24.4019 163.387 24.3602C163.579 24.1102 163.814 23.9227 164.095 23.7977C164.387 23.6623 164.689 23.5894 165.012 23.5894Z" fill="#D72333"/>
<path d="M171.644 24.3602C171.644 24.4748 171.587 24.5269 171.477 24.5269H170.29C170.248 24.5269 170.227 24.5477 170.227 24.5894V29.381C170.227 29.8706 170.311 30.2039 170.477 30.381C170.644 30.5633 170.899 30.6519 171.248 30.6519H171.415C171.508 30.6519 171.561 30.7039 171.561 30.7977V31.4644C171.561 31.5789 171.508 31.631 171.415 31.631H171.019C170.394 31.631 169.92 31.5008 169.602 31.2352C169.279 30.9748 169.123 30.4644 169.123 29.7144V24.5894C169.123 24.5477 169.102 24.5269 169.061 24.5269H168.456C168.357 24.5269 168.311 24.4748 168.311 24.3602V23.8602C168.311 23.7508 168.357 23.6935 168.456 23.6935H169.061C169.102 23.6935 169.123 23.6727 169.123 23.631V21.881C169.123 21.7716 169.175 21.7144 169.29 21.7144H170.081C170.175 21.7144 170.227 21.7716 170.227 21.881V23.631C170.227 23.6727 170.248 23.6935 170.29 23.6935H171.477C171.587 23.6935 171.644 23.7508 171.644 23.8602V24.3602Z" fill="#D72333"/>
<path d="M177.771 27.923C177.771 28.0376 177.719 28.0897 177.625 28.0897H174.042C174 28.0897 173.979 28.1105 173.979 28.1522V29.298C173.979 29.7303 174.104 30.0845 174.354 30.3605C174.604 30.6418 174.922 30.7772 175.312 30.7772C175.646 30.7772 175.927 30.6834 176.167 30.4855C176.401 30.2772 176.552 30.0168 176.625 29.6938C176.667 29.6001 176.729 29.548 176.812 29.548L177.583 29.5688C177.625 29.5688 177.656 29.5897 177.688 29.6313C177.729 29.6626 177.74 29.7043 177.729 29.7563C177.646 30.3709 177.385 30.8553 176.958 31.2147C176.542 31.5793 175.99 31.7563 175.312 31.7563C174.573 31.7563 173.984 31.5428 173.542 31.1105C173.094 30.6678 172.875 30.0845 172.875 29.3605V25.9647C172.875 25.2563 173.094 24.6834 173.542 24.2355C173.984 23.7928 174.573 23.5688 175.312 23.5688C176.062 23.5688 176.656 23.7928 177.104 24.2355C177.547 24.6834 177.771 25.2563 177.771 25.9647V27.923ZM175.312 24.548C174.922 24.548 174.604 24.6886 174.354 24.9647C174.104 25.2459 173.979 25.6053 173.979 26.048V27.0897C173.979 27.1313 174 27.1522 174.042 27.1522H176.625C176.667 27.1522 176.688 27.1313 176.688 27.0897V26.048C176.688 25.6053 176.552 25.2459 176.292 24.9647C176.042 24.6886 175.714 24.548 175.312 24.548Z" fill="#D72333"/>
<path d="M182.24 23.5894C182.876 23.5894 183.37 23.8133 183.719 24.256C184.079 24.6883 184.261 25.2925 184.261 26.0685V31.4644C184.261 31.5789 184.204 31.631 184.094 31.631H183.303C183.188 31.631 183.136 31.5789 183.136 31.4644V26.1727C183.136 25.6623 183.021 25.2664 182.803 24.9852C182.579 24.6935 182.266 24.5477 181.865 24.5477C181.449 24.5477 181.12 24.7039 180.886 25.006C180.646 25.3133 180.532 25.73 180.532 26.256V31.4644C180.532 31.5789 180.48 31.631 180.386 31.631H179.574C179.475 31.631 179.428 31.5789 179.428 31.4644V23.8602C179.428 23.7508 179.475 23.6935 179.574 23.6935H180.386C180.48 23.6935 180.532 23.7508 180.532 23.8602V24.3602C180.532 24.3758 180.537 24.3914 180.553 24.4019C180.579 24.4175 180.6 24.4019 180.615 24.3602C180.808 24.1102 181.042 23.9227 181.324 23.7977C181.615 23.6623 181.917 23.5894 182.24 23.5894Z" fill="#D72333"/>
<path d="M195.969 31.4435C195.995 31.4591 196.011 31.4852 196.011 31.5269C196.011 31.5581 195.995 31.5841 195.969 31.6102C195.954 31.6258 195.928 31.631 195.886 31.631H195.032C194.948 31.631 194.886 31.5998 194.844 31.5269L194.198 30.5894C194.198 30.5789 194.183 30.5685 194.157 30.5685C194.141 30.5685 194.125 30.5789 194.115 30.5894C193.724 31.006 193.323 31.3133 192.907 31.506C192.5 31.6831 192.042 31.7769 191.532 31.7769C190.724 31.7769 190.084 31.5581 189.615 31.1102C189.141 30.6519 188.907 30.0164 188.907 29.1935C188.907 28.4852 189.073 27.8758 189.407 27.3602C189.74 26.8498 190.198 26.3394 190.782 25.8394C190.808 25.8289 190.813 25.7977 190.803 25.756C190.428 25.2039 190.146 24.7716 189.969 24.4644C189.787 24.1466 189.667 23.881 189.615 23.6727C189.558 23.4539 189.532 23.2091 189.532 22.9435C189.532 22.2091 189.74 21.6258 190.157 21.1935C190.573 20.7508 191.12 20.5269 191.803 20.5269C192.48 20.5269 193.037 20.7508 193.469 21.1935C193.912 21.6414 194.136 22.2144 194.136 22.9227C194.136 23.5633 193.969 24.1102 193.636 24.5685C193.313 25.0269 192.849 25.506 192.24 26.006C192.209 26.0216 192.209 26.0477 192.24 26.0894C192.657 26.6727 192.959 27.1206 193.157 27.4227L194.136 28.7977C194.136 28.8133 194.141 28.8185 194.157 28.8185C194.183 28.8185 194.204 28.8133 194.219 28.7977C194.37 28.5894 194.62 28.1675 194.969 27.5269C194.995 27.4852 195.032 27.4644 195.073 27.4644C195.115 27.4539 195.157 27.4539 195.198 27.4644L195.782 27.8185C195.865 27.8758 195.886 27.9539 195.844 28.0477C195.511 28.6623 195.167 29.2091 194.823 29.6935C194.808 29.7248 194.808 29.7508 194.823 29.7769L195.969 31.4435ZM191.844 21.5477C191.48 21.5477 191.188 21.6831 190.969 21.9435C190.745 22.1935 190.636 22.5373 190.636 22.9644C190.636 23.256 190.688 23.5373 190.803 23.7977C190.912 24.0633 191.167 24.5008 191.573 25.1102C191.584 25.1519 191.615 25.1623 191.657 25.131C192.084 24.7456 192.417 24.381 192.657 24.0477C192.891 23.7144 193.011 23.3394 193.011 22.9227C193.011 22.506 192.896 22.1727 192.678 21.9227C192.469 21.6727 192.188 21.5477 191.844 21.5477ZM191.636 30.7977C191.98 30.7977 192.303 30.7144 192.594 30.5477C192.896 30.3706 193.209 30.105 193.532 29.756C193.558 29.7144 193.558 29.6831 193.532 29.6519L192.782 28.5685L191.469 26.7352C191.454 26.7091 191.433 26.7091 191.407 26.7352C190.948 27.1258 190.599 27.506 190.365 27.881C190.125 28.256 190.011 28.6831 190.011 29.1519C190.011 29.6414 190.146 30.0373 190.428 30.3394C190.719 30.6466 191.12 30.7977 191.636 30.7977Z" fill="#D72333"/>
<path d="M202.612 31.631C202.513 31.631 202.45 31.5841 202.424 31.4852L200.362 20.8185V20.7977C200.362 20.7039 200.409 20.6519 200.508 20.6519H201.341C201.435 20.6519 201.492 20.7039 201.508 20.7977L202.987 29.0477C202.987 29.0633 202.992 29.0685 203.008 29.0685C203.018 29.0685 203.034 29.0633 203.049 29.0477L204.32 20.7977C204.331 20.7039 204.383 20.6519 204.466 20.6519H205.195C205.289 20.6519 205.341 20.7039 205.341 20.7977L206.674 29.0477C206.685 29.0633 206.7 29.0685 206.716 29.0685C206.726 29.0685 206.737 29.0633 206.737 29.0477L208.091 20.7977C208.117 20.7039 208.174 20.6519 208.258 20.6519H209.091C209.133 20.6519 209.164 20.6675 209.195 20.6935C209.221 20.7248 209.226 20.7664 209.216 20.8185L207.278 31.4852C207.263 31.5841 207.206 31.631 207.112 31.631H206.341C206.258 31.631 206.2 31.5841 206.174 31.4852L204.862 23.2144C204.846 23.1883 204.831 23.1727 204.82 23.1727C204.805 23.1727 204.799 23.1883 204.799 23.2144L203.508 31.4852C203.492 31.5841 203.445 31.631 203.362 31.631H202.612Z" fill="#D72333"/>
<path d="M212.95 23.5688C213.684 23.5688 214.267 23.8084 214.7 24.2772C215.142 24.7511 215.366 25.3918 215.366 26.1938V31.4647C215.366 31.5793 215.314 31.6313 215.22 31.6313H214.408C214.309 31.6313 214.262 31.5793 214.262 31.4647V31.0063C214.262 30.9803 214.252 30.9647 214.241 30.9647C214.226 30.9647 214.205 30.9751 214.179 30.9855C213.788 31.5011 213.21 31.7563 212.45 31.7563C211.866 31.7563 211.356 31.6001 210.929 31.2772C210.512 30.9438 210.304 30.3553 210.304 29.5063C210.304 28.6209 210.559 27.9751 211.075 27.5688C211.585 27.1522 212.262 26.9438 213.095 26.9438H214.2C214.241 26.9438 214.262 26.923 214.262 26.8813V26.2563C214.262 25.7459 214.137 25.3345 213.887 25.0272C213.647 24.7095 213.33 24.548 212.929 24.548C212.606 24.548 212.335 24.6522 212.116 24.8605C211.892 25.0688 211.762 25.3345 211.72 25.6522C211.72 25.7668 211.663 25.8188 211.554 25.8188L210.679 25.798C210.621 25.798 210.58 25.7876 210.554 25.7563C210.538 25.7147 210.533 25.673 210.533 25.6313C210.585 25.022 210.835 24.5272 211.283 24.1522C211.741 23.7668 212.293 23.5688 212.95 23.5688ZM212.679 30.7772C213.106 30.7772 213.476 30.6418 213.783 30.3605C214.101 30.0845 214.262 29.7043 214.262 29.2147V27.9022C214.262 27.8605 214.241 27.8397 214.2 27.8397H213.075C212.575 27.8397 212.179 27.9751 211.887 28.2355C211.595 28.5011 211.45 28.897 211.45 29.423C211.45 29.8813 211.559 30.2251 211.783 30.4438C212.002 30.6678 212.304 30.7772 212.679 30.7772Z" fill="#D72333"/>
<path d="M217.18 31.631C217.065 31.631 217.013 31.5789 217.013 31.4644V20.7977C217.013 20.7039 217.065 20.6519 217.18 20.6519H217.972C218.081 20.6519 218.138 20.7039 218.138 20.7977V31.4644C218.138 31.5789 218.081 31.631 217.972 31.631H217.18Z" fill="#D72333"/>
<path d="M223.562 20.7977C223.562 20.7039 223.614 20.6519 223.729 20.6519H224.52C224.63 20.6519 224.687 20.7039 224.687 20.7977V31.4644C224.687 31.5789 224.63 31.631 224.52 31.631H223.729C223.614 31.631 223.562 31.5789 223.562 31.4644V31.131C223.562 31.105 223.551 31.0894 223.541 31.0894C223.525 31.0789 223.505 31.0789 223.479 31.0894C223.088 31.5373 222.588 31.756 221.979 31.756C221.312 31.756 220.775 31.5373 220.374 31.0894C219.984 30.6466 219.791 30.0685 219.791 29.3602V25.9644C219.791 25.23 219.984 24.6466 220.374 24.2144C220.775 23.7873 221.312 23.5685 221.979 23.5685C222.588 23.5685 223.088 23.7925 223.479 24.2352C223.505 24.2664 223.525 24.2716 223.541 24.256C223.551 24.2456 223.562 24.23 223.562 24.2144V20.7977ZM222.249 30.7769C222.635 30.7769 222.947 30.6414 223.187 30.3602C223.437 30.0841 223.562 29.73 223.562 29.2977V26.0477C223.562 25.605 223.437 25.2456 223.187 24.9644C222.947 24.6883 222.635 24.5477 222.249 24.5477C221.843 24.5477 221.51 24.6883 221.249 24.9644C220.999 25.2456 220.874 25.605 220.874 26.0477V29.2977C220.874 29.73 220.999 30.0841 221.249 30.3602C221.51 30.6414 221.843 30.7769 222.249 30.7769Z" fill="#D72333"/>
<path d="M229.407 23.5894C230.043 23.5894 230.537 23.8133 230.886 24.256C231.246 24.6883 231.428 25.2925 231.428 26.0685V31.4644C231.428 31.5789 231.371 31.631 231.261 31.631H230.47C230.355 31.631 230.303 31.5789 230.303 31.4644V26.1727C230.303 25.6623 230.188 25.2664 229.97 24.9852C229.746 24.6935 229.433 24.5477 229.032 24.5477C228.616 24.5477 228.287 24.7039 228.053 25.006C227.813 25.3133 227.699 25.73 227.699 26.256V31.4644C227.699 31.5789 227.647 31.631 227.553 31.631H226.741C226.642 31.631 226.595 31.5789 226.595 31.4644V20.7977C226.595 20.7039 226.642 20.6519 226.741 20.6519H227.553C227.647 20.6519 227.699 20.7039 227.699 20.7977V24.3602C227.699 24.3758 227.704 24.3914 227.72 24.4019C227.746 24.4175 227.767 24.4019 227.782 24.3602C227.975 24.1102 228.209 23.9227 228.491 23.7977C228.782 23.6623 229.084 23.5894 229.407 23.5894Z" fill="#D72333"/>
<path d="M235.539 31.7563C234.789 31.7563 234.19 31.5428 233.748 31.1105C233.3 30.6678 233.081 30.0845 233.081 29.3605V25.9855C233.081 25.2772 233.3 24.7043 233.748 24.2563C234.19 23.798 234.789 23.5688 235.539 23.5688C236.289 23.5688 236.883 23.798 237.331 24.2563C237.789 24.7043 238.019 25.2772 238.019 25.9855V29.3605C238.019 30.0845 237.789 30.6678 237.331 31.1105C236.883 31.5428 236.289 31.7563 235.539 31.7563ZM235.539 30.7772C235.925 30.7772 236.248 30.6418 236.498 30.3605C236.758 30.0845 236.894 29.7251 236.894 29.2772V26.048C236.894 25.6053 236.758 25.2459 236.498 24.9647C236.248 24.6886 235.925 24.548 235.539 24.548C235.133 24.548 234.81 24.6886 234.56 24.9647C234.31 25.2459 234.185 25.6053 234.185 26.048V29.2772C234.185 29.7251 234.31 30.0845 234.56 30.3605C234.81 30.6418 235.133 30.7772 235.539 30.7772Z" fill="#D72333"/>
<path d="M242.572 23.5894C243.208 23.5894 243.702 23.8133 244.051 24.256C244.411 24.6883 244.593 25.2925 244.593 26.0685V31.4644C244.593 31.5789 244.536 31.631 244.426 31.631H243.635C243.52 31.631 243.468 31.5789 243.468 31.4644V26.1727C243.468 25.6623 243.354 25.2664 243.135 24.9852C242.911 24.6935 242.598 24.5477 242.197 24.5477C241.781 24.5477 241.452 24.7039 241.218 25.006C240.979 25.3133 240.864 25.73 240.864 26.256V31.4644C240.864 31.5789 240.812 31.631 240.718 31.631H239.906C239.807 31.631 239.76 31.5789 239.76 31.4644V23.8602C239.76 23.7508 239.807 23.6935 239.906 23.6935H240.718C240.812 23.6935 240.864 23.7508 240.864 23.8602V24.3602C240.864 24.3758 240.869 24.3914 240.885 24.4019C240.911 24.4175 240.932 24.4019 240.947 24.3602C241.14 24.1102 241.374 23.9227 241.656 23.7977C241.947 23.6623 242.249 23.5894 242.572 23.5894Z" fill="#D72333"/>
<path d="M247.079 22.2562C246.813 22.2562 246.6 22.1729 246.433 22.0062C246.277 21.8395 246.204 21.6312 246.204 21.3812C246.204 21.1208 246.277 20.902 246.433 20.7354C246.6 20.5687 246.813 20.4854 247.079 20.4854C247.329 20.4854 247.537 20.5687 247.704 20.7354C247.871 20.902 247.954 21.1208 247.954 21.3812C247.954 21.6312 247.871 21.8395 247.704 22.0062C247.537 22.1729 247.329 22.2562 247.079 22.2562ZM246.683 31.6312C246.584 31.6312 246.537 31.5791 246.537 31.4645V23.8604C246.537 23.751 246.584 23.6937 246.683 23.6937H247.496C247.59 23.6937 247.642 23.751 247.642 23.8604V31.4645C247.642 31.5791 247.59 31.6312 247.496 31.6312H246.683Z" fill="#D72333"/>
<path d="M253.281 23.8605C253.281 23.7511 253.333 23.6938 253.447 23.6938H254.239C254.348 23.6938 254.406 23.7511 254.406 23.8605V31.4647C254.406 32.5897 254.14 33.4438 253.614 34.0272C253.098 34.6105 252.239 34.8709 251.031 34.8188C250.916 34.8032 250.864 34.7459 250.864 34.6522V33.9647C250.864 33.8657 250.916 33.8188 251.031 33.8188C251.864 33.8293 252.447 33.6366 252.781 33.2355C253.114 32.8293 253.281 32.2147 253.281 31.3813V30.9022C253.281 30.8918 253.27 30.8761 253.26 30.8605C253.244 30.8501 253.223 30.8553 253.197 30.8813C253.031 31.147 252.807 31.3501 252.531 31.4855C252.249 31.6105 251.952 31.673 251.635 31.673C250.979 31.673 250.458 31.4595 250.072 31.0272C249.697 30.5845 249.51 30.0011 249.51 29.2772V25.9647C249.51 25.2303 249.697 24.647 250.072 24.2147C250.458 23.7876 250.979 23.5688 251.635 23.5688C251.952 23.5688 252.249 23.6418 252.531 23.7772C252.807 23.9022 253.031 24.1001 253.197 24.3605C253.223 24.3918 253.244 24.4022 253.26 24.4022C253.27 24.3918 253.281 24.3709 253.281 24.3397V23.8605ZM251.968 30.7147C252.354 30.7147 252.666 30.5793 252.906 30.298C253.156 30.022 253.281 29.6626 253.281 29.2147V26.048C253.281 25.6053 253.156 25.2459 252.906 24.9647C252.666 24.6886 252.354 24.548 251.968 24.548C251.562 24.548 251.239 24.6886 250.989 24.9647C250.739 25.2459 250.614 25.6053 250.614 26.048V29.2147C250.614 29.6626 250.739 30.022 250.989 30.298C251.239 30.5793 251.562 30.7147 251.968 30.7147Z" fill="#D72333"/>
<mask id="mask0_24_5433" style="mask-type:luminance" maskUnits="userSpaceOnUse" x="0" y="35" width="5" height="9">
<path d="M0 35.605H4.35417V43.605H0V35.605Z" fill="white"/>
</mask>
<g mask="url(#mask0_24_5433)">
<path d="M3.08382 42.5744C3.02653 42.5744 2.99007 42.5483 2.97966 42.491L2.75049 41.3452C2.75049 41.3452 2.74007 41.3452 2.72966 41.3452C2.72966 41.3348 2.71924 41.3244 2.70882 41.3244H1.04216C1.02653 41.3244 1.0109 41.3348 1.00049 41.3452L0.771322 42.491C0.771322 42.5483 0.734863 42.5744 0.667155 42.5744H0.208822C0.167155 42.5744 0.135904 42.5692 0.125488 42.5535C0.109863 42.5275 0.109863 42.5015 0.125488 42.4702L1.50049 36.241C1.5109 36.189 1.54736 36.1577 1.60466 36.1577H2.14632C2.19841 36.1577 2.23486 36.189 2.25049 36.241L3.64632 42.4702V42.491C3.64632 42.5483 3.61507 42.5744 3.56299 42.5744H3.08382ZM1.12549 40.741C1.12549 40.7723 1.1307 40.7827 1.14632 40.7827H2.60466C2.61507 40.7827 2.62549 40.7723 2.62549 40.741L1.89632 37.1577C1.8807 37.1317 1.86507 37.116 1.85466 37.116C1.85466 37.116 1.85466 37.1317 1.85466 37.1577L1.12549 40.741Z" fill="#D72333"/>
</g>
<path d="M7.65885 42.6576C7.1849 42.6576 6.8099 42.5221 6.53385 42.2409C6.2526 41.9492 6.11719 41.5742 6.11719 41.1159V37.6159C6.11719 37.1576 6.2526 36.793 6.53385 36.5117C6.8099 36.2201 7.1849 36.0742 7.65885 36.0742C8.1276 36.0742 8.5026 36.2201 8.78385 36.5117C9.07552 36.793 9.22135 37.1576 9.22135 37.6159V38.0117C9.22135 38.0846 9.1849 38.1159 9.11719 38.1159H8.65885C8.60156 38.1159 8.57552 38.0846 8.57552 38.0117V37.6159C8.57552 37.3242 8.49219 37.0951 8.32552 36.9284C8.15885 36.7513 7.9349 36.6576 7.65885 36.6576C7.39323 36.6576 7.16927 36.7513 6.99219 36.9284C6.82552 37.0951 6.74219 37.3242 6.74219 37.6159V41.1159C6.74219 41.4076 6.82552 41.6471 6.99219 41.8242C7.16927 41.9909 7.39323 42.0742 7.65885 42.0742C7.9349 42.0742 8.15885 41.9909 8.32552 41.8242C8.49219 41.6471 8.57552 41.4076 8.57552 41.1159V39.9492C8.57552 39.9232 8.5599 39.9076 8.53385 39.9076H7.74219C7.6849 39.9076 7.65885 39.8815 7.65885 39.8242V39.4492C7.65885 39.3815 7.6849 39.3451 7.74219 39.3451H9.11719C9.1849 39.3451 9.22135 39.3815 9.22135 39.4492V41.1159C9.22135 41.5742 9.07552 41.9492 8.78385 42.2409C8.5026 42.5221 8.1276 42.6576 7.65885 42.6576Z" fill="#D72333"/>
<path d="M14.5895 36.2406C14.5895 36.1885 14.6156 36.1572 14.6729 36.1572H15.152C15.2041 36.1572 15.2354 36.1885 15.2354 36.2406V42.4906C15.2354 42.5479 15.2041 42.5739 15.152 42.5739H14.6729C14.6156 42.5739 14.5895 42.5479 14.5895 42.4906V39.6781C14.5895 39.6676 14.5739 39.6572 14.5479 39.6572H12.9229C12.8916 39.6572 12.8812 39.6676 12.8812 39.6781V42.4906C12.8812 42.5479 12.8499 42.5739 12.7979 42.5739H12.3187C12.2614 42.5739 12.2354 42.5479 12.2354 42.4906V36.2406C12.2354 36.1885 12.2614 36.1572 12.3187 36.1572H12.7979C12.8499 36.1572 12.8812 36.1885 12.8812 36.2406V39.0322C12.8812 39.0635 12.8916 39.0739 12.9229 39.0739H14.5479C14.5739 39.0739 14.5895 39.0635 14.5895 39.0322V36.2406Z" fill="#D72333"/>
</svg>
