<svg width="6" height="12" viewBox="0 0 6 12" fill="none" xmlns="http://www.w3.org/2000/svg">
<path d="M2.6875 3.125C3.4375 3.125 4.03125 3.36979 4.47917 3.85417C4.92188 4.34375 5.14583 4.98958 5.14583 5.79167V11.1667C5.14583 11.2812 5.08854 11.3333 4.97917 11.3333H4.16667C4.06771 11.3333 4.02083 11.2812 4.02083 11.1667V10.6875C4.02083 10.6771 4.00521 10.6667 3.97917 10.6667C3.96354 10.6563 3.94792 10.6615 3.9375 10.6875C3.54687 11.2031 2.95833 11.4583 2.16667 11.4583C1.58333 11.4583 1.07292 11.2917 0.645833 10.9583C0.213541 10.625 0 10.0365 0 9.1875C0 8.27083 0.255208 7.60417 0.770833 7.1875C1.29687 6.77083 1.98437 6.5625 2.83333 6.5625H3.95833C4 6.5625 4.02083 6.54167 4.02083 6.5V5.875C4.02083 5.34896 3.89583 4.92708 3.64583 4.60417C3.39583 4.28646 3.06771 4.125 2.66667 4.125C2.34375 4.125 2.06771 4.22917 1.83333 4.4375C1.60937 4.64583 1.47917 4.91667 1.4375 5.25C1.4375 5.36458 1.38021 5.41667 1.27083 5.41667L0.375 5.39583C0.317708 5.39583 0.276041 5.38542 0.25 5.35417C0.218751 5.3125 0.213541 5.27083 0.229167 5.22917C0.281249 4.60417 0.541667 4.09896 1 3.70833C1.45833 3.32292 2.02083 3.125 2.6875 3.125ZM2.39583 10.4792C2.83854 10.4792 3.21875 10.3438 3.54167 10.0625C3.85937 9.77083 4.02083 9.375 4.02083 8.875V7.54167C4.02083 7.5 4 7.47917 3.95833 7.47917H2.8125C2.29687 7.47917 1.89583 7.61979 1.60417 7.89583C1.3125 8.16146 1.16667 8.55729 1.16667 9.08333C1.16667 9.55729 1.27604 9.91146 1.5 10.1458C1.71875 10.3698 2.02083 10.4792 2.39583 10.4792ZM3.83333 1.79167C3.56771 1.79167 3.35417 1.70833 3.1875 1.54167C3.02083 1.36458 2.9375 1.14583 2.9375 0.895833C2.9375 0.635416 3.02083 0.416667 3.1875 0.25C3.35417 0.0833333 3.56771 0 3.83333 0C4.08333 0 4.29167 0.0833333 4.45833 0.25C4.63542 0.416667 4.72917 0.635416 4.72917 0.895833C4.72917 1.14583 4.63542 1.36458 4.45833 1.54167C4.29167 1.70833 4.08333 1.79167 3.83333 1.79167ZM1.45833 1.79167C1.19271 1.79167 0.979167 1.70833 0.8125 1.54167C0.645833 1.36458 0.5625 1.14583 0.5625 0.895833C0.5625 0.635416 0.645833 0.416667 0.8125 0.25C0.979167 0.0833333 1.19271 0 1.45833 0C1.70833 0 1.91667 0.0833333 2.08333 0.25C2.26042 0.416667 2.35417 0.635416 2.35417 0.895833C2.35417 1.14583 2.26042 1.36458 2.08333 1.54167C1.91667 1.70833 1.70833 1.79167 1.45833 1.79167Z" fill="#D72333"/>
</svg>
