<svg width="7" height="11" viewBox="0 0 7 11" fill="none" xmlns="http://www.w3.org/2000/svg">
<path d="M5.95833 0C6.01042 0 6.05208 0.0208333 6.08333 0.0625C6.125 0.0937507 6.14583 0.125 6.14583 0.166667V1.58333C6.14583 1.64063 6.125 1.6875 6.08333 1.72917C6.05208 1.76042 6.01042 1.77083 5.95833 1.77083H4.14583C4.08854 1.77083 4.0625 1.79167 4.0625 1.83333V10.0625C4.0625 10.1042 4.04167 10.1458 4 10.1875C3.96875 10.2188 3.9375 10.2292 3.89583 10.2292H2.16667C2.125 10.2292 2.08333 10.2188 2.04167 10.1875C2.01042 10.1458 2 10.1042 2 10.0625V1.83333C2 1.79167 1.97917 1.77083 1.9375 1.77083H0.166667C0.125 1.77083 0.0833333 1.76042 0.0416667 1.72917C0.0104173 1.6875 0 1.64063 0 1.58333V0.166667C0 0.125 0.0104173 0.0937507 0.0416667 0.0625C0.0833333 0.0208333 0.125 0 0.166667 0H5.95833Z" fill="#D72333"/>
</svg>
