<svg width="7" height="13" viewBox="0 0 7 13" fill="none" xmlns="http://www.w3.org/2000/svg">
<path d="M5.6127 12.1667C5.51374 12.1667 5.45124 12.1146 5.4252 12L4.9877 9.85417C4.9877 9.82813 4.97728 9.8125 4.96687 9.8125C4.95124 9.80208 4.93041 9.79167 4.90437 9.79167H1.75853C1.72728 9.79167 1.70645 9.80208 1.69603 9.8125C1.68041 9.8125 1.6752 9.82813 1.6752 9.85417L1.2377 12C1.22207 12.1146 1.15957 12.1667 1.0502 12.1667H0.154366C0.0970737 12.1667 0.0554071 12.1562 0.0293657 12.125C-0.00188494 12.0833 -0.00709294 12.0365 0.0085324 11.9792L2.6127 0.166667C2.63874 0.057292 2.70124 0 2.8002 0H3.84187C3.95124 0 4.01374 0.057292 4.02937 0.166667L6.6752 11.9792V12C6.6752 12.1146 6.62312 12.1667 6.52937 12.1667H5.6127ZM1.90437 8.70833C1.90437 8.75 1.91478 8.77083 1.94603 8.77083H4.69603C4.7377 8.77083 4.75853 8.75 4.75853 8.70833L3.3627 1.875C3.34707 1.84896 3.33145 1.83333 3.32103 1.83333C3.30541 1.83333 3.28978 1.84896 3.27937 1.875L1.90437 8.70833Z" fill="#D72333"/>
</svg>
