<svg width="8" height="15" viewBox="0 0 8 15" fill="none" xmlns="http://www.w3.org/2000/svg">
<path d="M5.09797 14.375C4.95735 14.375 4.88964 14.3229 4.88964 14.2083L4.63964 12.6875C4.63964 12.6458 4.60318 12.625 4.53547 12.625H2.55631C2.48339 12.625 2.45214 12.6458 2.45214 12.6875L2.20214 14.2083C2.18651 14.3229 2.11881 14.375 1.99381 14.375H0.160472C0.0198468 14.375 -0.0270279 14.3073 0.0146388 14.1667L2.30631 3.5625C2.33235 3.45313 2.40006 3.39583 2.51464 3.39583H4.63964C4.74901 3.39583 4.81151 3.45313 4.82714 3.5625L7.11881 14.1667L7.13964 14.2292C7.13964 14.3281 7.08235 14.375 6.97297 14.375H5.09797ZM2.76464 10.8333C2.76464 10.8906 2.78547 10.9167 2.82714 10.9167H4.24381C4.29589 10.9167 4.31672 10.8906 4.30631 10.8333L3.55631 6.54167C3.55631 6.51563 3.54068 6.5 3.51464 6.5C3.49901 6.5 3.48339 6.51563 3.47297 6.54167L2.76464 10.8333ZM4.99381 2.47917C4.64485 2.47917 4.35318 2.36458 4.11881 2.125C3.87922 1.89063 3.76464 1.59896 3.76464 1.25C3.76464 0.875 3.87401 0.578125 4.09797 0.354167C4.33235 0.119792 4.62922 0 4.99381 0C5.36881 0 5.66568 0.119792 5.88964 0.354167C6.12401 0.578125 6.24381 0.875 6.24381 1.25C6.24381 1.59896 6.12401 1.89063 5.88964 2.125C5.65006 2.36458 5.35318 2.47917 4.99381 2.47917ZM2.09797 2.47917C1.74901 2.47917 1.45735 2.36458 1.22297 2.125C0.983389 1.89063 0.868805 1.59896 0.868805 1.25C0.868805 0.875 0.97818 0.578125 1.20214 0.354167C1.43651 0.119792 1.73339 0 2.09797 0C2.47297 0 2.76985 0.119792 2.99381 0.354167C3.22818 0.578125 3.34797 0.875 3.34797 1.25C3.34797 1.59896 3.22818 1.89063 2.99381 2.125C2.75422 2.36458 2.45735 2.47917 2.09797 2.47917Z" fill="#D72333"/>
</svg>
