<svg width="4" height="7" viewBox="0 0 4 7" fill="none" xmlns="http://www.w3.org/2000/svg">
<path d="M1.5625 6.45833C1.08854 6.45833 0.708333 6.32292 0.416667 6.04167C0.135416 5.75 0 5.36979 0 4.89583V1.58333C0 1.09896 0.135416 0.718751 0.416667 0.4375C0.708333 0.145833 1.08854 0 1.5625 0C2.02083 0 2.39583 0.145833 2.6875 0.4375C2.97917 0.718751 3.125 1.09896 3.125 1.58333V4.89583C3.125 5.35417 2.97917 5.72917 2.6875 6.02083C2.39583 6.3125 2.02083 6.45833 1.5625 6.45833ZM1.5625 5.91667C1.82292 5.91667 2.04167 5.82813 2.20833 5.64583C2.38542 5.45313 2.47917 5.20833 2.47917 4.91667V1.54167C2.47917 1.25 2.38542 1.01563 2.20833 0.833333C2.04167 0.656249 1.82292 0.5625 1.5625 0.5625C1.28125 0.5625 1.0625 0.656249 0.895833 0.833333C0.729167 1.01563 0.645833 1.25 0.645833 1.54167V4.91667C0.645833 5.20833 0.729167 5.45313 0.895833 5.64583C1.0625 5.82813 1.28125 5.91667 1.5625 5.91667Z" fill="#D72333"/>
</svg>
