<svg width="17" height="19" viewBox="0 0 17 19" fill="none" xmlns="http://www.w3.org/2000/svg">
<path d="M3.83687 2.80758C3.4202 2.65654 3.00354 2.59404 2.58687 2.62008C2.1702 2.63571 1.75354 2.63571 1.33687 2.62008C1.00354 2.59404 0.737912 2.49508 0.545204 2.32842C0.347288 2.16175 0.175412 1.943 0.0243706 1.66175C-0.0172961 1.52633 -0.00688008 1.40133 0.0660373 1.28675V1.26592C0.149371 1.15654 0.149371 1.03154 0.0660373 0.890917C0.00874525 0.797168 0.00353725 0.693 0.0452039 0.578418C0.0868706 0.453418 0.159787 0.380502 0.274371 0.349251C0.576453 0.255502 0.86812 0.182584 1.14937 0.140918C1.44104 0.0992508 1.73791 0.0940428 2.0452 0.120084C2.36291 0.177376 2.63895 0.234667 2.87854 0.286751C3.12854 0.328418 3.40979 0.307584 3.7327 0.224251C4.05041 0.182584 4.34729 0.172168 4.62854 0.182584C4.9202 0.19821 5.22229 0.224251 5.5452 0.265918C5.87854 0.281543 6.19625 0.286751 6.50354 0.286751C6.80562 0.276334 7.12854 0.255502 7.46187 0.224251C7.76396 0.213835 8.07645 0.224251 8.39937 0.265918C8.71708 0.297168 9.02437 0.302376 9.31604 0.286751C9.69104 0.276334 10.0504 0.234667 10.3994 0.161751C10.7587 0.0940428 11.1129 0.0471682 11.4619 0.0159175C11.764 -0.0101238 12.0556 -0.00491583 12.3369 0.0367508C12.6129 0.0784175 12.8994 0.120084 13.191 0.161751C13.4671 0.177376 13.7431 0.172168 14.0244 0.140918C14.316 0.114876 14.5973 0.0940428 14.8785 0.0784175C15.2119 0.0263335 15.4723 0.13571 15.6702 0.411751C15.8056 0.594043 15.9046 0.776333 15.9619 0.953417C16.0296 1.12008 16.0712 1.32842 16.0869 1.57842C16.0869 1.88571 15.9827 2.11488 15.7744 2.26592C15.6181 2.39092 15.4671 2.48988 15.316 2.55758C15.1754 2.6305 14.9723 2.68258 14.7119 2.72425C14.4202 2.51592 14.1285 2.43258 13.8369 2.47425C13.5452 2.51592 13.2327 2.59925 12.8994 2.72425L12.5244 2.51592C12.2015 2.58883 11.9254 2.63571 11.691 2.66175C11.4515 2.693 11.1702 2.68258 10.8369 2.64092L10.441 3.09925C10.5244 3.3805 10.5556 3.59925 10.5452 3.76592C10.5452 3.93258 10.4931 4.17217 10.3994 4.47425L10.6702 4.62008C10.6702 4.84404 10.6494 5.05758 10.6077 5.26592C10.566 5.47425 10.5296 5.69821 10.5035 5.93258C10.4879 6.15654 10.5035 6.37008 10.5452 6.57842C10.5869 6.78675 10.6077 7.01592 10.6077 7.26592C10.6077 7.65654 10.566 8.05758 10.4827 8.47425C10.4098 8.8805 10.4515 9.28154 10.6077 9.68258C10.5348 9.80758 10.4931 9.96383 10.4827 10.1409C10.4671 10.3076 10.4515 10.4743 10.441 10.6409L10.6077 10.8493C10.5765 11.0576 10.5504 11.2659 10.5244 11.4743C10.5087 11.6722 10.4931 11.8701 10.4827 12.0784L10.6702 12.1826C10.5973 12.7399 10.5296 13.3232 10.4619 13.9326C10.4046 14.5315 10.3837 15.1149 10.3994 15.6826C10.4254 15.9638 10.4619 16.2399 10.5035 16.5159C10.5452 16.7815 10.566 17.0472 10.566 17.3076C10.566 17.5159 10.5452 17.719 10.5035 17.9118C10.4619 18.094 10.389 18.2659 10.2952 18.4326C10.1546 18.7399 9.90979 18.8545 9.56604 18.7868L9.50354 18.7451C9.43062 18.7451 9.38896 18.7868 9.37854 18.8701C9.37854 18.9378 9.32645 18.9534 9.23271 18.9118C8.74312 18.7607 8.23791 18.7034 7.71187 18.7451C7.19625 18.7868 6.67541 18.8076 6.14937 18.8076C6.10771 18.8076 6.07645 18.8024 6.06604 18.7868C5.92541 18.6097 5.7952 18.4326 5.6702 18.2659C5.55562 18.0888 5.48791 17.8857 5.46187 17.6618C5.40458 17.4274 5.38375 17.1826 5.39937 16.9326C5.42541 16.6722 5.40979 16.4222 5.3577 16.1826L5.69104 15.7868C5.63375 15.443 5.57645 15.068 5.52437 14.6618C5.46708 14.2451 5.46187 13.8701 5.50354 13.5368C5.5452 13.2868 5.61291 13.0159 5.71187 12.7243C5.80562 12.4222 5.71708 12.1826 5.44104 12.0159C5.44104 11.6409 5.40979 11.2555 5.3577 10.8493C5.31604 10.4482 5.32125 10.068 5.37854 9.70342C5.43062 9.318 5.50354 8.95342 5.58687 8.62008C5.68062 8.28675 5.6702 7.92738 5.5452 7.53675C5.75354 7.23467 5.80041 6.91175 5.69104 6.57842C5.59208 6.24508 5.52437 5.92217 5.4827 5.59925C5.42541 5.23988 5.39937 4.85967 5.39937 4.45342C5.39937 4.03675 5.43062 3.63571 5.50354 3.24508C5.46187 3.15133 5.40979 3.04717 5.3577 2.93258C5.31604 2.80758 5.27958 2.693 5.25354 2.57842C4.75354 2.57842 4.27958 2.65654 3.83687 2.80758Z" fill="#D72333"/>
</svg>
