<svg width="5" height="11" viewBox="0 0 5 11" fill="none" xmlns="http://www.w3.org/2000/svg">
<path d="M4.60417 0.75C4.60417 0.848959 4.55208 0.895833 4.45833 0.895833H1.08333C1.04167 0.895833 1.02083 0.916667 1.02083 0.958333V4.58333C1.02083 4.625 1.04167 4.64583 1.08333 4.64583H3.20833C3.30208 4.64583 3.35417 4.69792 3.35417 4.79167V5.41667C3.35417 5.51563 3.30208 5.5625 3.20833 5.5625H1.08333C1.04167 5.5625 1.02083 5.58333 1.02083 5.625V10.0833C1.02083 10.1823 0.968751 10.2292 0.875 10.2292H0.145833C0.0468747 10.2292 0 10.1823 0 10.0833V0.145833C0 0.052084 0.0468747 0 0.145833 0H4.45833C4.55208 0 4.60417 0.052084 4.60417 0.145833V0.75Z" fill="#D72333"/>
</svg>
