<svg width="5" height="12" viewBox="0 0 5 12" fill="none" xmlns="http://www.w3.org/2000/svg">
<path d="M2.70833 0C3.35937 0 3.88542 0.223959 4.29167 0.666667C4.69271 1.11458 4.89583 1.6875 4.89583 2.39583V5.79167C4.89583 6.53125 4.69271 7.11458 4.29167 7.54167C3.88542 7.97396 3.35937 8.1875 2.70833 8.1875C2.41667 8.1875 2.13542 8.13021 1.875 8.02083C1.60937 7.91146 1.38021 7.74479 1.1875 7.52083C1.15625 7.49479 1.13542 7.48958 1.125 7.5C1.10937 7.51563 1.10417 7.53125 1.10417 7.54167V10.9583C1.10417 11.0521 1.05208 11.1042 0.958333 11.1042H0.145833C0.0468747 11.1042 0 11.0521 0 10.9583V0.291667C0 0.182292 0.0468747 0.125 0.145833 0.125H0.958333C1.05208 0.125 1.10417 0.182292 1.10417 0.291667V0.645833C1.10417 0.661459 1.10937 0.677084 1.125 0.6875C1.15104 0.6875 1.17708 0.682292 1.20833 0.666667C1.38542 0.447916 1.60937 0.281249 1.875 0.166667C2.15104 0.057292 2.42708 0 2.70833 0ZM3.79167 2.47917C3.79167 2.03646 3.65625 1.67708 3.39583 1.39583C3.14583 1.11979 2.81771 0.979167 2.41667 0.979167C2.04167 0.979167 1.72917 1.11979 1.47917 1.39583C1.22917 1.67708 1.10417 2.03646 1.10417 2.47917V5.70833C1.10417 6.15625 1.22917 6.51563 1.47917 6.79167C1.72917 7.07292 2.04167 7.20833 2.41667 7.20833C2.81771 7.20833 3.14583 7.07292 3.39583 6.79167C3.65625 6.51563 3.79167 6.15625 3.79167 5.70833V2.47917Z" fill="#D72333"/>
</svg>
