<svg width="10" height="8" viewBox="0 0 10 8" fill="none" xmlns="http://www.w3.org/2000/svg">
<path d="M8.16667 3.95833C8.23438 3.73958 8.35417 3.57813 8.52083 3.47917C8.69792 3.38542 8.88021 3.33333 9.0625 3.33333C9.25521 3.33333 9.42708 3.39063 9.58333 3.5C9.75 3.61458 9.83333 3.77083 9.83333 3.97917C9.83333 4.0625 9.8125 4.16146 9.77083 4.27083C9.47917 5.13542 9.125 5.82292 8.70833 6.33333C8.30208 6.84896 7.875 7.21875 7.41667 7.4375C6.96875 7.66146 6.52083 7.77083 6.0625 7.77083C5.69792 7.77083 5.35417 7.70313 5.02083 7.5625C4.69792 7.42708 4.4375 7.21875 4.22917 6.9375C4.03125 6.66146 3.9375 6.3125 3.9375 5.89583C3.9375 5.76042 3.94792 5.61979 3.97917 5.47917C4.02083 5.32813 4.0625 5.18229 4.10417 5.04167L5.08333 2.3125C5.125 2.17708 5.14583 2.0625 5.14583 1.97917C5.14583 1.85417 5.10417 1.76042 5.02083 1.6875C4.94792 1.60417 4.85417 1.5625 4.72917 1.5625C4.54688 1.5625 4.34375 1.64583 4.125 1.8125C3.91667 1.96875 3.71875 2.20833 3.54167 2.54167C3.38542 2.97396 3.21875 3.44792 3.04167 3.95833C2.85937 4.47396 2.67708 4.98958 2.5 5.5C2.31771 6.01563 2.15104 6.48958 2 6.91667C1.90104 7.20833 1.73437 7.43229 1.5 7.58333C1.26042 7.72396 1.03125 7.79167 0.8125 7.79167C0.593749 7.79167 0.406251 7.72917 0.25 7.60417C0.0833333 7.47917 0 7.30208 0 7.0625C0 6.9375 0.0156253 6.82813 0.0416667 6.72917L2.25 0.541667C2.33333 0.364583 2.44792 0.229167 2.60417 0.145833C2.75521 0.052084 2.92708 0 3.125 0C3.29167 0 3.44792 0.0364587 3.60417 0.104167C3.75521 0.161459 3.85417 0.25 3.89583 0.375C4.22917 0.125 4.65104 0 5.16667 0C5.51042 0 5.83333 0.0833333 6.125 0.25C6.41667 0.416667 6.65104 0.640625 6.83333 0.916667C7.02604 1.19792 7.125 1.51042 7.125 1.85417C7.125 2.0625 7.07292 2.30729 6.97917 2.58333L5.9375 5.52083C5.89583 5.67708 5.875 5.78646 5.875 5.85417C5.875 6.07813 6 6.1875 6.25 6.1875C6.55208 6.1875 6.875 6.01563 7.20833 5.66667C7.55208 5.32292 7.875 4.75 8.16667 3.95833Z" fill="#D72333"/>
</svg>
