<svg width="7" height="12" viewBox="0 0 7 12" fill="none" xmlns="http://www.w3.org/2000/svg">
<path d="M3.125 11.3542C2.5 11.3542 1.94792 11.2344 1.47917 11C1.02083 10.75 0.666667 10.4115 0.416667 9.97917C0.166667 9.53646 0.0416667 9.03125 0.0416667 8.45833V8C0.0416667 7.94792 0.052084 7.89583 0.0833333 7.85417C0.125 7.8125 0.171875 7.79167 0.229167 7.79167H2.0625C2.10417 7.79167 2.14583 7.8125 2.1875 7.85417C2.22917 7.89583 2.25 7.94792 2.25 8V8.33333C2.25 8.66667 2.33333 8.9375 2.5 9.14583C2.66667 9.34375 2.875 9.4375 3.125 9.4375C3.38542 9.4375 3.60417 9.34375 3.77083 9.14583C3.9375 8.95313 4.02083 8.70313 4.02083 8.39583C4.02083 8.09375 3.91667 7.82813 3.70833 7.60417C3.5 7.36979 3.08333 7.03125 2.45833 6.58333C1.92708 6.19792 1.5 5.85417 1.16667 5.5625C0.843751 5.27083 0.567708 4.91146 0.333333 4.47917C0.109375 4.03646 0 3.53125 0 2.95833C0 2.05729 0.276041 1.34375 0.833333 0.8125C1.38542 0.270833 2.13021 0 3.0625 0C3.98958 0 4.73438 0.281249 5.29167 0.833333C5.85938 1.39063 6.14583 2.125 6.14583 3.04167V3.41667C6.14583 3.47396 6.125 3.52083 6.08333 3.5625C6.05208 3.59375 6.01042 3.60417 5.95833 3.60417H4.125C4.08333 3.60417 4.04167 3.59375 4 3.5625C3.95833 3.52083 3.9375 3.47396 3.9375 3.41667V3C3.9375 2.66667 3.85417 2.40625 3.6875 2.20833C3.53125 2.01563 3.32292 1.91667 3.0625 1.91667C2.79687 1.91667 2.58333 2.01042 2.41667 2.1875C2.26042 2.36979 2.1875 2.625 2.1875 2.95833C2.1875 3.28125 2.28125 3.5625 2.47917 3.8125C2.6875 4.05208 3.08854 4.38542 3.6875 4.8125C4.33854 5.30208 4.83333 5.69792 5.16667 6C5.5 6.30729 5.75521 6.64063 5.9375 7C6.13021 7.36458 6.22917 7.80208 6.22917 8.3125C6.22917 9.24479 5.94271 9.98958 5.375 10.5417C4.80208 11.0833 4.05208 11.3542 3.125 11.3542Z" fill="#D72333"/>
</svg>
