<svg width="7" height="11" viewBox="0 0 7 11" fill="none" xmlns="http://www.w3.org/2000/svg">
<path d="M3.375 0C3.94271 0 4.44792 0.145833 4.89583 0.4375C5.35417 0.718749 5.69792 1.11458 5.9375 1.625C6.1875 2.125 6.3125 2.70313 6.3125 3.35417C6.3125 4.32813 6.04688 5.10417 5.52083 5.6875C5.00521 6.27083 4.32292 6.5625 3.47917 6.5625H2.29167C2.25 6.5625 2.22917 6.59375 2.22917 6.64583V10.8125C2.22917 10.8698 2.20833 10.9167 2.16667 10.9583C2.125 10.9896 2.08333 11 2.04167 11H0.1875C0.145833 11 0.104167 10.9896 0.0625 10.9583C0.0208333 10.9167 0 10.8698 0 10.8125V0.1875C0 0.135416 0.0208333 0.0937493 0.0625 0.0625C0.104167 0.0208333 0.145833 0 0.1875 0H3.375ZM2.97917 4.83333C3.32292 4.83333 3.59375 4.70833 3.79167 4.45833C4 4.19792 4.10417 3.84375 4.10417 3.39583C4.10417 2.9375 4 2.57813 3.79167 2.3125C3.59375 2.05208 3.32292 1.91667 2.97917 1.91667H2.29167C2.25 1.91667 2.22917 1.94792 2.22917 2V4.75C2.22917 4.80729 2.25 4.83333 2.29167 4.83333H2.97917Z" fill="#D72333"/>
</svg>
