<svg width="5" height="11" viewBox="0 0 5 11" fill="none" xmlns="http://www.w3.org/2000/svg">
<path d="M2.39583 10.9792C1.65625 10.9792 1.07292 10.7656 0.645833 10.3333C0.213541 9.90625 0 9.34375 0 8.64583V5.35417C0 4.66146 0.213541 4.09896 0.645833 3.66667C1.08854 3.22396 1.67187 3 2.39583 3C3.13021 3 3.71354 3.22396 4.14583 3.66667C4.58854 4.09896 4.8125 4.66146 4.8125 5.35417V8.64583C4.8125 9.34375 4.58854 9.90625 4.14583 10.3333C3.71354 10.7656 3.13021 10.9792 2.39583 10.9792ZM2.39583 10.0208C2.78125 10.0208 3.10417 9.89063 3.35417 9.625C3.60417 9.34896 3.72917 8.99479 3.72917 8.5625V5.41667C3.72917 4.97396 3.60417 4.61979 3.35417 4.35417C3.10417 4.07813 2.78125 3.9375 2.39583 3.9375C2.00521 3.9375 1.6875 4.07813 1.4375 4.35417C1.19792 4.61979 1.08333 4.97396 1.08333 5.41667V8.5625C1.08333 8.99479 1.19792 9.34896 1.4375 9.625C1.6875 9.89063 2.00521 10.0208 2.39583 10.0208ZM3.54167 1.70833C3.29167 1.70833 3.08333 1.63542 2.91667 1.47917C2.76042 1.3125 2.6875 1.10417 2.6875 0.854167C2.6875 0.604167 2.76042 0.406249 2.91667 0.25C3.08333 0.0833333 3.29167 0 3.54167 0C3.79167 0 3.98958 0.0833333 4.14583 0.25C4.3125 0.406249 4.39583 0.604167 4.39583 0.854167C4.39583 1.10417 4.3125 1.3125 4.14583 1.47917C3.98958 1.63542 3.79167 1.70833 3.54167 1.70833ZM1.27083 1.70833C1.02083 1.70833 0.8125 1.63542 0.645833 1.47917C0.489583 1.3125 0.416667 1.10417 0.416667 0.854167C0.416667 0.604167 0.489583 0.406249 0.645833 0.25C0.8125 0.0833333 1.02083 0 1.27083 0C1.52083 0 1.71875 0.0833333 1.875 0.25C2.04167 0.406249 2.125 0.604167 2.125 0.854167C2.125 1.10417 2.04167 1.3125 1.875 1.47917C1.71875 1.63542 1.52083 1.70833 1.27083 1.70833Z" fill="#D72333"/>
</svg>
