<svg width="17" height="21" viewBox="0 0 17 21" fill="none" xmlns="http://www.w3.org/2000/svg">
<path d="M0.291667 5.54167L0.0833333 5.33333C0.109375 4.90625 0.104167 4.46875 0.0625 4.02083C0.0208333 3.5625 0.0260413 3.10417 0.0833333 2.64583C0.109375 2.41146 0.151041 2.18229 0.208333 1.95833C0.260416 1.72396 0.296875 1.47917 0.3125 1.22917C0.380208 0.703125 0.692708 0.390625 1.25 0.291667C1.52604 0.223959 1.83854 0.125 2.1875 0L3.10417 0.333333C3.35417 0.281249 3.60417 0.208333 3.85417 0.125C4.10417 0.0416667 4.35417 0 4.60417 0C4.86458 0 5.125 0.0364587 5.375 0.104167C5.625 0.161459 5.875 0.208333 6.125 0.25C6.35938 0.281249 6.58333 0.286459 6.79167 0.270833C7 0.244792 7.20833 0.218751 7.41667 0.1875C7.69271 0.161459 7.96875 0.161459 8.25 0.1875C8.52604 0.218751 8.79688 0.239583 9.0625 0.25C9.57292 0.25 10.0677 0.270833 10.5417 0.3125C11.026 0.354167 11.5104 0.479167 12 0.6875C12.4271 0.885417 12.8385 1.09896 13.2292 1.33333C13.6302 1.55729 14.0521 1.74479 14.5 1.89583C14.7083 2.45313 15 2.96875 15.375 3.4375C15.7604 3.91146 16.1094 4.39063 16.4167 4.875L16.3125 5.60417L16.5625 5.91667L16.3125 6.58333L16.7292 7.70833C16.6146 8.01563 16.4896 8.3125 16.3542 8.60417C16.2292 8.88542 16.1146 9.17708 16.0208 9.47917C15.9375 9.77083 15.8542 10.0365 15.7708 10.2708C15.6979 10.4948 15.5833 10.7292 15.4167 10.9792C15.2604 11.1875 15.0938 11.4167 14.9167 11.6667C14.7344 11.9167 14.5313 12.125 14.3125 12.2917C14.1458 12.4323 13.9583 12.5573 13.75 12.6667C13.5417 12.7656 13.3385 12.8854 13.1458 13.0208C12.6563 13.3281 12.1771 13.4948 11.7083 13.5208C11.25 13.5365 10.75 13.6042 10.2083 13.7292C9.95833 13.8021 9.69792 13.8906 9.4375 14C9.1875 14.099 8.92708 14.125 8.66667 14.0833C8.52604 14.0417 8.39583 13.9948 8.27083 13.9375C8.14583 13.8854 8.00521 13.8542 7.85417 13.8542C7.71354 13.8698 7.58854 13.9115 7.47917 13.9792C7.38021 14.0365 7.27604 14.0781 7.16667 14.1042L6.85417 13.8542C6.61458 13.9271 6.40104 13.9948 6.20833 14.0625C6.01042 14.1354 5.8125 14.2448 5.60417 14.3958L5.72917 14.4792C5.6875 14.8698 5.63021 15.2656 5.5625 15.6667C5.48958 16.0573 5.46875 16.4375 5.5 16.8125C5.51042 17.0104 5.54688 17.1875 5.60417 17.3542C5.65625 17.5104 5.69792 17.6823 5.72917 17.875C5.77083 18.0729 5.77083 18.2604 5.72917 18.4375C5.6875 18.6198 5.63542 18.8021 5.58333 18.9792C5.54167 19.0365 5.5625 19.125 5.64583 19.25C5.73958 19.3229 5.77083 19.4115 5.72917 19.5208C5.6875 19.7188 5.625 19.8698 5.54167 19.9792C5.46875 20.0938 5.35938 20.224 5.20833 20.375C5.125 20.4583 5.04167 20.4792 4.95833 20.4375L4.35417 20.2083C4.3125 20.1979 4.23958 20.2031 4.14583 20.2292C3.64583 20.4635 3.02604 20.5521 2.29167 20.5C1.56771 20.4427 0.958333 20.2917 0.458333 20.0417C0.359375 20 0.3125 19.9115 0.3125 19.7708C0.354167 19.5781 0.375 19.3906 0.375 19.2083C0.375 19.0156 0.375 18.8229 0.375 18.625L0 18.1875C0 17.6875 0 17.1875 0 16.6875C0 16.1771 0.0416667 15.6823 0.125 15.2083C0.192708 14.75 0.255208 14.3125 0.3125 13.8958C0.380208 13.4688 0.291667 13.0417 0.0416667 12.625C0.125 12.4323 0.1875 12.1615 0.229167 11.8125C0.281251 11.4531 0.322917 11.1771 0.354167 10.9792C0.364584 10.6615 0.3125 10.3542 0.1875 10.0625C0.0625 9.76042 0.010416 9.4375 0.0416667 9.10417L0.375 8.95833C0.359375 8.64063 0.354167 8.32813 0.354167 8.02083C0.364584 7.71875 0.354167 7.41146 0.3125 7.10417C0.281251 6.82813 0.25 6.5625 0.208333 6.3125C0.177083 6.05208 0.208333 5.79167 0.291667 5.54167ZM7.33333 2.75C7.08333 2.80729 6.83854 2.86979 6.60417 2.9375C6.36458 3.01042 6.125 3.05208 5.875 3.0625C5.83333 3.3125 5.8125 3.57813 5.8125 3.85417C5.82292 4.11979 5.83333 4.375 5.83333 4.625C5.76042 4.70833 5.69792 4.80729 5.64583 4.91667C5.58854 5.01563 5.52604 5.11458 5.45833 5.20833L5.875 5.4375L5.52083 6.08333L5.79167 6.3125C5.71875 6.53646 5.65104 6.75 5.58333 6.95833C5.52604 7.16667 5.52604 7.39063 5.58333 7.625C5.625 7.83333 5.67708 8.03125 5.75 8.20833C5.83333 8.375 5.85938 8.5625 5.83333 8.77083C5.81771 9.20313 5.77604 9.63542 5.70833 10.0625C5.63542 10.4792 5.72917 10.8906 5.97917 11.2917C6.28125 11.1406 6.59375 11.0833 6.91667 11.125C7.25 11.1667 7.58854 11.2031 7.9375 11.2292C8.28125 11.2604 8.60938 11.1979 8.91667 11.0417C9.16667 10.9062 9.39583 10.724 9.60417 10.5C9.8125 10.2656 9.98438 10.0208 10.125 9.77083C10.2917 9.46875 10.3646 9.15625 10.3542 8.83333C10.3385 8.51563 10.3646 8.20313 10.4375 7.89583C10.4792 7.74479 10.5208 7.61979 10.5625 7.52083C10.6146 7.41146 10.6458 7.28125 10.6458 7.125C10.6458 6.97396 10.6302 6.82813 10.6042 6.6875C10.5729 6.53646 10.5469 6.39583 10.5208 6.27083C10.5052 5.9375 10.4635 5.63542 10.3958 5.35417C10.3229 5.0625 10.2135 4.78125 10.0625 4.5C9.9375 4.28125 9.77604 4.08333 9.58333 3.91667C9.38542 3.73958 9.1875 3.5625 8.97917 3.39583C8.88021 3.30208 8.77604 3.20313 8.66667 3.10417C8.56771 3.01042 8.45833 2.91667 8.33333 2.83333C8.15104 2.75 7.98438 2.71875 7.83333 2.72917C7.69271 2.74479 7.52604 2.75 7.33333 2.75Z" fill="#D72333"/>
</svg>
