<svg width="7" height="11" viewBox="0 0 7 11" fill="none" xmlns="http://www.w3.org/2000/svg">
<path d="M6.02403 0.8125C6.02403 0.854167 6.0032 0.895833 5.96153 0.9375C5.93028 0.968751 5.89903 0.979167 5.85736 0.979167H2.35736C2.34174 0.979167 2.3209 0.989583 2.29486 1C2.27924 1 2.27403 1.01563 2.27403 1.04167L1.8157 4.91667C1.80007 4.93229 1.80007 4.94792 1.8157 4.95833C1.82611 4.97396 1.84174 4.97917 1.85736 4.97917H4.0657C4.17507 4.97917 4.21674 5.03646 4.1907 5.14583L4.10736 5.8125C4.09174 5.92708 4.03445 5.97917 3.9407 5.97917H1.73236C1.6907 5.97917 1.66986 6 1.66986 6.04167L1.08653 10.8125C1.0709 10.8542 1.05007 10.8958 1.02403 10.9375C0.992779 10.9688 0.961529 10.9792 0.919863 10.9792H0.128196C0.0292375 10.9792 -0.0124292 10.9271 0.00319614 10.8125L1.3157 0.145833C1.32611 0.052084 1.3834 0 1.48236 0H5.96153C6.05528 0 6.10736 0.052084 6.10736 0.145833L6.02403 0.8125Z" fill="#D72333"/>
</svg>
