<svg width="7" height="12" viewBox="0 0 7 12" fill="none" xmlns="http://www.w3.org/2000/svg">
<path d="M3.375 0C3.95833 0 4.46875 0.145833 4.91667 0.4375C5.375 0.718749 5.72917 1.11458 5.97917 1.625C6.22917 2.14063 6.35417 2.72396 6.35417 3.375C6.35417 4.34896 6.08854 5.13542 5.5625 5.72917C5.03125 6.3125 4.33854 6.60417 3.47917 6.60417H2.29167C2.25 6.60417 2.22917 6.63542 2.22917 6.6875V10.8958C2.22917 10.9531 2.20833 11 2.16667 11.0417C2.125 11.0729 2.08333 11.0833 2.04167 11.0833H0.1875C0.130208 11.0833 0.0833333 11.0729 0.0416667 11.0417C0.0104173 11 0 10.9531 0 10.8958V0.1875C0 0.135416 0.0104173 0.0937493 0.0416667 0.0625C0.0833333 0.0208333 0.130208 0 0.1875 0H3.375ZM3 4.875C3.33333 4.875 3.60417 4.75 3.8125 4.5C4.02083 4.23958 4.125 3.875 4.125 3.41667C4.125 2.94792 4.02083 2.58333 3.8125 2.33333C3.60417 2.07292 3.33333 1.9375 3 1.9375H2.29167C2.25 1.9375 2.22917 1.95833 2.22917 2V4.79167C2.22917 4.84896 2.25 4.875 2.29167 4.875H3Z" fill="#D72333"/>
</svg>
