<svg width="142" height="147" viewBox="0 0 142 147" fill="none" xmlns="http://www.w3.org/2000/svg">
<mask id="mask0_25_18139" style="mask-type:luminance" maskUnits="userSpaceOnUse" x="0" y="0" width="142" height="147">
<path d="M141.333 0H0V146.667H141.333V0Z" fill="white"/>
</mask>
<g mask="url(#mask0_25_18139)">
<path d="M4.00553 15.6429C3.89095 15.6429 3.82324 15.5908 3.7972 15.4762L1.52637 4.7679V4.7054C1.52637 4.61165 1.57845 4.55957 1.69303 4.55957H3.7347C3.8597 4.55957 3.92741 4.61686 3.94303 4.72624L5.02637 11.7054C5.03678 11.7471 5.05241 11.7679 5.06803 11.7679C5.09408 11.7679 5.11491 11.7471 5.13053 11.7054L6.19303 4.72624C6.20345 4.61686 6.27637 4.55957 6.40137 4.55957H8.38053C8.51595 4.55957 8.56803 4.63249 8.52637 4.7679L6.25553 15.4762C6.22428 15.5908 6.15658 15.6429 6.0472 15.6429H4.00553Z" fill="#D72333"/>
<mask id="mask1_25_18139" style="mask-type:luminance" maskUnits="userSpaceOnUse" x="9" y="0" width="7" height="16">
<path d="M9.3335 0.557129H16.0002V15.9998H9.3335V0.557129Z" fill="white"/>
</mask>
<g mask="url(#mask1_25_18139)">
<path d="M12.6255 15.7681C11.6515 15.7681 10.8755 15.4868 10.2922 14.9139C9.71924 14.3462 9.43799 13.591 9.43799 12.6431V7.55973C9.43799 6.61703 9.71924 5.86182 10.2922 5.2889C10.8755 4.72119 11.6515 4.43473 12.6255 4.43473C13.5942 4.43473 14.3755 4.72119 14.9588 5.2889C15.5526 5.86182 15.8547 6.61703 15.8547 7.55973V12.6431C15.8547 13.591 15.5526 14.3462 14.9588 14.9139C14.3755 15.4868 13.5942 15.7681 12.6255 15.7681ZM12.6255 13.8514C12.9276 13.8514 13.1672 13.7472 13.3338 13.5389C13.5109 13.3306 13.6047 13.0597 13.6047 12.7264V7.4764C13.6047 7.14307 13.5109 6.87223 13.3338 6.6639C13.1672 6.45557 12.9276 6.3514 12.6255 6.3514C12.3338 6.3514 12.0942 6.45557 11.9172 6.6639C11.7505 6.87223 11.6672 7.14307 11.6672 7.4764V12.7264C11.6672 13.0597 11.7505 13.3306 11.9172 13.5389C12.0942 13.7472 12.3338 13.8514 12.6255 13.8514ZM14.0838 3.64307C13.7192 3.64307 13.4224 3.52848 13.188 3.2889C12.9484 3.05453 12.8338 2.75765 12.8338 2.39307C12.8338 2.03369 12.9432 1.73682 13.1672 1.49723C13.4015 1.26286 13.7088 1.14307 14.0838 1.14307C14.4432 1.14307 14.7401 1.26286 14.9797 1.49723C15.214 1.73682 15.3338 2.03369 15.3338 2.39307C15.3338 2.75765 15.214 3.05453 14.9797 3.2889C14.7401 3.52848 14.4432 3.64307 14.0838 3.64307ZM11.1672 3.64307C10.8026 3.64307 10.5057 3.52848 10.2713 3.2889C10.0317 3.05453 9.91715 2.75765 9.91715 2.39307C9.91715 2.03369 10.0265 1.73682 10.2505 1.49723C10.4849 1.26286 10.7922 1.14307 11.1672 1.14307C11.5265 1.14307 11.8234 1.26286 12.063 1.49723C12.2974 1.73682 12.4172 2.03369 12.4172 2.39307C12.4172 2.75765 12.2974 3.05453 12.063 3.2889C11.8234 3.52848 11.5265 3.64307 11.1672 3.64307Z" fill="#D72333"/>
</g>
<path d="M19.9245 15.7679C19.3099 15.7679 18.7682 15.6481 18.2995 15.4137C17.8411 15.1637 17.487 14.8252 17.237 14.3929C16.987 13.9502 16.862 13.445 16.862 12.8721V12.4137C16.862 12.3617 16.8724 12.32 16.9036 12.2887C16.9453 12.2471 16.9922 12.2262 17.0495 12.2262H18.862C18.9141 12.2262 18.9557 12.2471 18.987 12.2887C19.0286 12.32 19.0495 12.3617 19.0495 12.4137V12.7679C19.0495 13.0908 19.1328 13.3512 19.2995 13.5596C19.4766 13.7575 19.6953 13.8512 19.9453 13.8512C20.1953 13.8512 20.4036 13.7627 20.5703 13.5804C20.7474 13.3877 20.8411 13.1377 20.8411 12.8304C20.8411 12.5127 20.7266 12.2419 20.5078 12.0179C20.2995 11.7835 19.888 11.445 19.2786 10.9971C18.7474 10.6221 18.3203 10.2887 17.987 9.99707C17.6641 9.69499 17.388 9.3252 17.1536 8.8929C16.9297 8.46582 16.8203 7.96582 16.8203 7.3929C16.8203 6.49186 17.0964 5.77832 17.6536 5.24707C18.2057 4.7054 18.9453 4.43457 19.862 4.43457C20.7891 4.43457 21.5339 4.71582 22.0911 5.2679C22.6589 5.8252 22.9453 6.55957 22.9453 7.47624V7.85124C22.9453 7.90853 22.9245 7.9554 22.8828 7.99707C22.8516 8.02832 22.8099 8.03874 22.7578 8.03874H20.9453C20.888 8.03874 20.8411 8.02832 20.7995 7.99707C20.7682 7.9554 20.7578 7.90853 20.7578 7.85124V7.43457C20.7578 7.10124 20.6745 6.84082 20.5078 6.6429C20.3411 6.4502 20.1224 6.35124 19.862 6.35124C19.612 6.35124 19.4036 6.44499 19.237 6.62207C19.0807 6.80436 19.0078 7.05957 19.0078 7.3929C19.0078 7.71582 19.1016 7.99707 19.2995 8.24707C19.5078 8.48665 19.9089 8.81999 20.5078 9.24707C21.1589 9.73665 21.6536 10.1325 21.987 10.4346C22.3203 10.7262 22.5755 11.0596 22.7578 11.4346C22.9349 11.7992 23.0286 12.2262 23.0286 12.7262C23.0286 13.6585 22.7422 14.4033 22.1745 14.9554C21.6016 15.4971 20.8516 15.7679 19.9245 15.7679Z" fill="#D72333"/>
<path d="M24.306 15.6429C24.2487 15.6429 24.2018 15.6325 24.1602 15.6012C24.1185 15.5596 24.0977 15.5127 24.0977 15.4554V4.74707C24.0977 4.69499 24.1185 4.65332 24.1602 4.62207C24.2018 4.5804 24.2487 4.55957 24.306 4.55957H26.1393C26.1914 4.55957 26.2435 4.5804 26.2852 4.62207C26.3268 4.65332 26.3477 4.69499 26.3477 4.74707V13.6429C26.3477 13.7002 26.3685 13.7262 26.4102 13.7262H29.7435C29.7956 13.7262 29.8372 13.7471 29.8685 13.7887C29.9102 13.82 29.931 13.8617 29.931 13.9137V15.4554C29.931 15.5127 29.9102 15.5596 29.8685 15.6012C29.8372 15.6325 29.7956 15.6429 29.7435 15.6429H24.306Z" fill="#D72333"/>
<path d="M35.5068 15.6429C35.3818 15.6429 35.3089 15.5908 35.2985 15.4762L35.0485 13.9554C35.0485 13.9033 35.012 13.8721 34.9443 13.8721H32.9443C32.8714 13.8721 32.8402 13.9033 32.8402 13.9554L32.5902 15.4762C32.5745 15.5908 32.5068 15.6429 32.3818 15.6429H30.5277C30.387 15.6429 30.3402 15.5752 30.3818 15.4346L32.6943 4.72624C32.7204 4.61686 32.7881 4.55957 32.9027 4.55957H35.0485C35.1579 4.55957 35.2256 4.61686 35.2568 4.72624L37.5693 15.4346V15.4971C37.5693 15.596 37.512 15.6429 37.4027 15.6429H35.5068ZM33.1527 12.0596C33.1527 12.1169 33.1735 12.1429 33.2152 12.1429H34.6527C34.7047 12.1429 34.7256 12.1169 34.7152 12.0596L33.9652 7.74707C33.9495 7.7054 33.9287 7.68457 33.9027 7.68457C33.887 7.68457 33.8818 7.7054 33.8818 7.74707L33.1527 12.0596Z" fill="#D72333"/>
<path d="M41.5736 15.7679C40.6257 15.7679 39.8652 15.471 39.2819 14.8721C38.709 14.2783 38.4277 13.4867 38.4277 12.4971V4.74707C38.4277 4.69499 38.4382 4.65332 38.4694 4.62207C38.5111 4.5804 38.5579 4.55957 38.6152 4.55957H40.4694C40.5215 4.55957 40.5632 4.5804 40.5944 4.62207C40.6361 4.65332 40.6569 4.69499 40.6569 4.74707V12.7054C40.6569 13.0544 40.7402 13.3304 40.9069 13.5387C41.084 13.7471 41.3079 13.8512 41.5736 13.8512C41.8496 13.8512 42.0736 13.7471 42.2402 13.5387C42.4069 13.3304 42.4902 13.0544 42.4902 12.7054V4.74707C42.4902 4.69499 42.5007 4.65332 42.5319 4.62207C42.5736 4.5804 42.6204 4.55957 42.6777 4.55957H44.5319C44.584 4.55957 44.6257 4.5804 44.6569 4.62207C44.6986 4.65332 44.7194 4.69499 44.7194 4.74707V12.4971C44.7194 13.4867 44.4277 14.2783 43.8444 14.8721C43.2715 15.471 42.5163 15.7679 41.5736 15.7679Z" fill="#D72333"/>
<path d="M51.8633 6.28874C51.8633 6.34603 51.8424 6.3929 51.8008 6.43457C51.7695 6.46582 51.7279 6.47624 51.6758 6.47624H48.3633C48.3216 6.47624 48.3008 6.50749 48.3008 6.55957V9.05957C48.3008 9.11686 48.3216 9.1429 48.3633 9.1429H50.2799C50.3216 9.1429 50.3633 9.16374 50.4049 9.2054C50.4466 9.23665 50.4674 9.27832 50.4674 9.3304V10.8512C50.4674 10.9085 50.4466 10.9554 50.4049 10.9971C50.3633 11.0387 50.3216 11.0596 50.2799 11.0596H48.3633C48.3216 11.0596 48.3008 11.0804 48.3008 11.1221V13.6429C48.3008 13.7002 48.3216 13.7262 48.3633 13.7262H51.6758C51.7279 13.7262 51.7695 13.7471 51.8008 13.7887C51.8424 13.82 51.8633 13.8617 51.8633 13.9137V15.4554C51.8633 15.5127 51.8424 15.5596 51.8008 15.6012C51.7695 15.6325 51.7279 15.6429 51.6758 15.6429H46.2591C46.2018 15.6429 46.1549 15.6325 46.1133 15.6012C46.0716 15.5596 46.0508 15.5127 46.0508 15.4554V4.74707C46.0508 4.69499 46.0716 4.65332 46.1133 4.62207C46.1549 4.5804 46.2018 4.55957 46.2591 4.55957H51.6758C51.7279 4.55957 51.7695 4.5804 51.8008 4.62207C51.8424 4.65332 51.8633 4.69499 51.8633 4.74707V6.28874Z" fill="#D72333"/>
<path d="M57.3584 15.6429C57.2438 15.6429 57.1761 15.5908 57.1501 15.4762L55.9209 11.1221C55.9053 11.0804 55.8792 11.0596 55.8376 11.0596H55.2959C55.2542 11.0596 55.2334 11.0804 55.2334 11.1221V15.4554C55.2334 15.5127 55.2126 15.5596 55.1709 15.6012C55.1292 15.6325 55.0771 15.6429 55.0251 15.6429H53.1917C53.1344 15.6429 53.0876 15.6325 53.0459 15.6012C53.0042 15.5596 52.9834 15.5127 52.9834 15.4554V4.74707C52.9834 4.69499 53.0042 4.65332 53.0459 4.62207C53.0876 4.5804 53.1344 4.55957 53.1917 4.55957H56.3792C56.9626 4.55957 57.473 4.7002 57.9209 4.97624C58.3792 5.25749 58.7334 5.65332 58.9834 6.16374C59.2334 6.66374 59.3584 7.24186 59.3584 7.8929C59.3584 8.5179 59.2386 9.0752 59.0042 9.55957C58.7646 10.0335 58.4313 10.4033 58.0042 10.6637C57.9886 10.6637 57.973 10.6794 57.9626 10.7054C57.9469 10.721 57.9469 10.7367 57.9626 10.7471L59.4209 15.4137L59.4417 15.4762C59.4417 15.5908 59.3792 15.6429 59.2542 15.6429H57.3584ZM55.2959 6.47624C55.2542 6.47624 55.2334 6.50749 55.2334 6.55957V9.2679C55.2334 9.3252 55.2542 9.35124 55.2959 9.35124H56.0251C56.3428 9.35124 56.6084 9.22103 56.8167 8.9554C57.0251 8.69499 57.1292 8.34603 57.1292 7.91374C57.1292 7.47103 57.0251 7.12207 56.8167 6.87207C56.6084 6.61165 56.3428 6.47624 56.0251 6.47624H55.2959Z" fill="#D72333"/>
<path d="M68.6875 4.68457C68.7292 4.60124 68.8021 4.55957 68.9167 4.55957H70.75C70.8021 4.55957 70.8437 4.5804 70.875 4.62207C70.9167 4.65332 70.9375 4.69499 70.9375 4.74707V15.4554C70.9375 15.5127 70.9167 15.5596 70.875 15.6012C70.8437 15.6325 70.8021 15.6429 70.75 15.6429H68.8958C68.8385 15.6429 68.7917 15.6325 68.75 15.6012C68.7187 15.5596 68.7083 15.5127 68.7083 15.4554V8.35124C68.7083 8.30957 68.6927 8.28874 68.6667 8.28874C68.651 8.28874 68.6354 8.30436 68.625 8.3304L67.375 10.5179C67.3333 10.6012 67.2917 10.6429 67.25 10.6429C67.2187 10.6429 67.1771 10.6012 67.125 10.5179L65.8958 8.3304C65.8646 8.30436 65.8385 8.28874 65.8125 8.28874C65.7969 8.28874 65.7917 8.30957 65.7917 8.35124V15.4554C65.7917 15.5127 65.7708 15.5596 65.7292 15.6012C65.6979 15.6325 65.6563 15.6429 65.6042 15.6429H63.75C63.6927 15.6429 63.6458 15.6325 63.6042 15.6012C63.5729 15.5596 63.5625 15.5127 63.5625 15.4554V4.74707C63.5625 4.69499 63.5729 4.65332 63.6042 4.62207C63.6458 4.5804 63.6927 4.55957 63.75 4.55957H65.5833C65.6771 4.55957 65.7552 4.60124 65.8125 4.68457L67.2292 7.2054C67.2552 7.24707 67.2813 7.24707 67.3125 7.2054L68.6875 4.68457Z" fill="#D72333"/>
<path d="M72.4857 15.6429C72.4284 15.6429 72.3815 15.6325 72.3398 15.6012C72.2982 15.5596 72.2773 15.5127 72.2773 15.4554V4.74707C72.2773 4.69499 72.2982 4.65332 72.3398 4.62207C72.3815 4.5804 72.4284 4.55957 72.4857 4.55957H74.319C74.3711 4.55957 74.4232 4.5804 74.4648 4.62207C74.5065 4.65332 74.5273 4.69499 74.5273 4.74707V15.4554C74.5273 15.5127 74.5065 15.5596 74.4648 15.6012C74.4232 15.6325 74.3711 15.6429 74.319 15.6429H72.4857Z" fill="#D72333"/>
<path d="M80.4596 4.74707C80.4596 4.69499 80.4701 4.65332 80.5013 4.62207C80.543 4.5804 80.5898 4.55957 80.6471 4.55957H82.4805C82.5326 4.55957 82.5742 4.5804 82.6055 4.62207C82.6471 4.65332 82.668 4.69499 82.668 4.74707V15.4554C82.668 15.5127 82.6471 15.5596 82.6055 15.6012C82.5742 15.6325 82.5326 15.6429 82.4805 15.6429H80.3971C80.2826 15.6429 80.2148 15.5908 80.1888 15.4762L78.2305 9.35124C78.2148 9.3252 78.194 9.31999 78.168 9.3304C78.1367 9.3304 78.1263 9.34603 78.1263 9.37207L78.1471 15.4554C78.1471 15.5127 78.1263 15.5596 78.0846 15.6012C78.0534 15.6325 78.0117 15.6429 77.9596 15.6429H76.1263C76.069 15.6429 76.0221 15.6325 75.9805 15.6012C75.9388 15.5596 75.918 15.5127 75.918 15.4554V4.74707C75.918 4.69499 75.9388 4.65332 75.9805 4.62207C76.0221 4.5804 76.069 4.55957 76.1263 4.55957H78.1888C78.2982 4.55957 78.3659 4.61686 78.3971 4.72624L80.3763 10.8512C80.3867 10.8825 80.4076 10.8929 80.4388 10.8929C80.4648 10.8825 80.4805 10.8617 80.4805 10.8304L80.4596 4.74707Z" fill="#D72333"/>
<path d="M89.8657 6.28874C89.8657 6.34603 89.8449 6.3929 89.8032 6.43457C89.772 6.46582 89.7303 6.47624 89.6782 6.47624H86.3657C86.3241 6.47624 86.3032 6.50749 86.3032 6.55957V9.05957C86.3032 9.11686 86.3241 9.1429 86.3657 9.1429H88.2824C88.3241 9.1429 88.3657 9.16374 88.4074 9.2054C88.4491 9.23665 88.4699 9.27832 88.4699 9.3304V10.8512C88.4699 10.9085 88.4491 10.9554 88.4074 10.9971C88.3657 11.0387 88.3241 11.0596 88.2824 11.0596H86.3657C86.3241 11.0596 86.3032 11.0804 86.3032 11.1221V13.6429C86.3032 13.7002 86.3241 13.7262 86.3657 13.7262H89.6782C89.7303 13.7262 89.772 13.7471 89.8032 13.7887C89.8449 13.82 89.8657 13.8617 89.8657 13.9137V15.4554C89.8657 15.5127 89.8449 15.5596 89.8032 15.6012C89.772 15.6325 89.7303 15.6429 89.6782 15.6429H84.2616C84.2043 15.6429 84.1574 15.6325 84.1157 15.6012C84.0741 15.5596 84.0532 15.5127 84.0532 15.4554V4.74707C84.0532 4.69499 84.0741 4.65332 84.1157 4.62207C84.1574 4.5804 84.2043 4.55957 84.2616 4.55957H89.6782C89.7303 4.55957 89.772 4.5804 89.8032 4.62207C89.8449 4.65332 89.8657 4.69499 89.8657 4.74707V6.28874Z" fill="#D72333"/>
<path d="M95.3608 15.6429C95.2463 15.6429 95.1785 15.5908 95.1525 15.4762L93.9233 11.1221C93.9077 11.0804 93.8817 11.0596 93.84 11.0596H93.2983C93.2567 11.0596 93.2358 11.0804 93.2358 11.1221V15.4554C93.2358 15.5127 93.215 15.5596 93.1733 15.6012C93.1317 15.6325 93.0796 15.6429 93.0275 15.6429H91.1942C91.1369 15.6429 91.09 15.6325 91.0483 15.6012C91.0067 15.5596 90.9858 15.5127 90.9858 15.4554V4.74707C90.9858 4.69499 91.0067 4.65332 91.0483 4.62207C91.09 4.5804 91.1369 4.55957 91.1942 4.55957H94.3817C94.965 4.55957 95.4754 4.7002 95.9233 4.97624C96.3817 5.25749 96.7358 5.65332 96.9858 6.16374C97.2358 6.66374 97.3608 7.24186 97.3608 7.8929C97.3608 8.5179 97.241 9.0752 97.0067 9.55957C96.7671 10.0335 96.4338 10.4033 96.0067 10.6637C95.991 10.6637 95.9754 10.6794 95.965 10.7054C95.9494 10.721 95.9494 10.7367 95.965 10.7471L97.4233 15.4137L97.4442 15.4762C97.4442 15.5908 97.3817 15.6429 97.2567 15.6429H95.3608ZM93.2983 6.47624C93.2567 6.47624 93.2358 6.50749 93.2358 6.55957V9.2679C93.2358 9.3252 93.2567 9.35124 93.2983 9.35124H94.0275C94.3452 9.35124 94.6108 9.22103 94.8192 8.9554C95.0275 8.69499 95.1317 8.34603 95.1317 7.91374C95.1317 7.47103 95.0275 7.12207 94.8192 6.87207C94.6108 6.61165 94.3452 6.47624 94.0275 6.47624H93.2983Z" fill="#D72333"/>
<path d="M103.107 15.6429C102.982 15.6429 102.909 15.5908 102.899 15.4762L102.649 13.9554C102.649 13.9033 102.613 13.8721 102.545 13.8721H100.545C100.472 13.8721 100.441 13.9033 100.441 13.9554L100.191 15.4762C100.175 15.5908 100.107 15.6429 99.9824 15.6429H98.1282C97.9876 15.6429 97.9407 15.5752 97.9824 15.4346L100.295 4.72624C100.321 4.61686 100.389 4.55957 100.503 4.55957H102.649C102.758 4.55957 102.826 4.61686 102.857 4.72624L105.17 15.4346V15.4971C105.17 15.596 105.113 15.6429 105.003 15.6429H103.107ZM100.753 12.0596C100.753 12.1169 100.774 12.1429 100.816 12.1429H102.253C102.305 12.1429 102.326 12.1169 102.316 12.0596L101.566 7.74707C101.55 7.7054 101.529 7.68457 101.503 7.68457C101.488 7.68457 101.482 7.7054 101.482 7.74707L100.753 12.0596Z" fill="#D72333"/>
<path d="M106.278 15.6429C106.221 15.6429 106.174 15.6325 106.132 15.6012C106.091 15.5596 106.07 15.5127 106.07 15.4554V4.74707C106.07 4.69499 106.091 4.65332 106.132 4.62207C106.174 4.5804 106.221 4.55957 106.278 4.55957H108.111C108.164 4.55957 108.216 4.5804 108.257 4.62207C108.299 4.65332 108.32 4.69499 108.32 4.74707V13.6429C108.32 13.7002 108.341 13.7262 108.382 13.7262H111.716C111.768 13.7262 111.809 13.7471 111.841 13.7887C111.882 13.82 111.903 13.8617 111.903 13.9137V15.4554C111.903 15.5127 111.882 15.5596 111.841 15.6012C111.809 15.6325 111.768 15.6429 111.716 15.6429H106.278Z" fill="#D72333"/>
<path d="M4.71403 50.4383C4.09945 50.4383 3.55778 50.3185 3.08903 50.0841C2.6307 49.8341 2.27653 49.4956 2.02653 49.0633C1.77653 48.6206 1.65153 48.1154 1.65153 47.5425V47.0841C1.65153 47.0321 1.66195 46.9904 1.6932 46.9591C1.73486 46.9175 1.78174 46.8966 1.83903 46.8966H3.65153C3.70361 46.8966 3.74528 46.9175 3.77653 46.9591C3.8182 46.9904 3.83903 47.0321 3.83903 47.0841V47.4383C3.83903 47.7612 3.92236 48.0216 4.08903 48.23C4.26611 48.4279 4.48486 48.5216 4.73486 48.5216C4.98486 48.5216 5.1932 48.4331 5.35986 48.2508C5.53695 48.0581 5.6307 47.8081 5.6307 47.5008C5.6307 47.1831 5.51611 46.9123 5.29736 46.6883C5.08903 46.4539 4.67757 46.1154 4.0682 45.6675C3.53695 45.2925 3.10986 44.9591 2.77653 44.6675C2.45361 44.3654 2.17757 43.9956 1.9432 43.5633C1.71924 43.1362 1.60986 42.6362 1.60986 42.0633C1.60986 41.1623 1.8859 40.4487 2.4432 39.9175C2.99528 39.3758 3.73486 39.105 4.65153 39.105C5.57861 39.105 6.3234 39.3862 6.8807 39.9383C7.4484 40.4956 7.73486 41.23 7.73486 42.1466V42.5216C7.73486 42.5789 7.71403 42.6258 7.67236 42.6675C7.64111 42.6987 7.59945 42.7091 7.54736 42.7091H5.73486C5.67757 42.7091 5.6307 42.6987 5.58903 42.6675C5.55778 42.6258 5.54736 42.5789 5.54736 42.5216V42.105C5.54736 41.7716 5.46403 41.5112 5.29736 41.3133C5.1307 41.1206 4.91195 41.0216 4.65153 41.0216C4.40153 41.0216 4.1932 41.1154 4.02653 41.2925C3.87028 41.4748 3.79736 41.73 3.79736 42.0633C3.79736 42.3862 3.89111 42.6675 4.08903 42.9175C4.29736 43.1571 4.6984 43.4904 5.29736 43.9175C5.9484 44.4071 6.4432 44.8029 6.77653 45.105C7.10986 45.3966 7.36507 45.73 7.54736 46.105C7.72445 46.4696 7.8182 46.8966 7.8182 47.3966C7.8182 48.3289 7.53174 49.0737 6.96403 49.6258C6.39111 50.1675 5.64111 50.4383 4.71403 50.4383Z" fill="#D72333"/>
<path d="M11.9287 50.4383C10.9548 50.4383 10.1787 50.1571 9.59538 49.5841C9.02246 49.0164 8.74121 48.2612 8.74121 47.3133V42.23C8.74121 41.2873 9.02246 40.5321 9.59538 39.9591C10.1787 39.3914 10.9548 39.105 11.9287 39.105C12.8975 39.105 13.6787 39.3914 14.262 39.9591C14.8558 40.5321 15.1579 41.2873 15.1579 42.23V47.3133C15.1579 48.2612 14.8558 49.0164 14.262 49.5841C13.6787 50.1571 12.8975 50.4383 11.9287 50.4383ZM11.9287 48.5216C12.2308 48.5216 12.4704 48.4175 12.637 48.2091C12.8141 48.0008 12.9079 47.73 12.9079 47.3966V42.1466C12.9079 41.8133 12.8141 41.5425 12.637 41.3341C12.4704 41.1258 12.2308 41.0216 11.9287 41.0216C11.637 41.0216 11.3975 41.1258 11.2204 41.3341C11.0537 41.5425 10.9704 41.8133 10.9704 42.1466V47.3966C10.9704 47.73 11.0537 48.0008 11.2204 48.2091C11.3975 48.4175 11.637 48.5216 11.9287 48.5216Z" fill="#D72333"/>
<path d="M16.5819 50.3133C16.5246 50.3133 16.4777 50.3029 16.436 50.2716C16.3944 50.23 16.3735 50.1831 16.3735 50.1258V39.4175C16.3735 39.3654 16.3944 39.3237 16.436 39.2925C16.4777 39.2508 16.5246 39.23 16.5819 39.23H19.436C20.3944 39.23 21.1652 39.5164 21.7485 40.0841C22.3319 40.6414 22.6235 41.3758 22.6235 42.2925V47.2508C22.6235 48.1675 22.3319 48.9123 21.7485 49.48C21.1652 50.0373 20.3944 50.3133 19.436 50.3133H16.5819ZM18.6235 48.3133C18.6235 48.3706 18.6444 48.3966 18.686 48.3966L19.4152 48.3758C19.6912 48.3758 19.9204 48.2612 20.1027 48.0216C20.2798 47.7873 20.3787 47.48 20.3944 47.105V42.4383C20.3944 42.0373 20.3006 41.7248 20.1235 41.5008C19.9412 41.2664 19.6965 41.1466 19.3944 41.1466H18.686C18.6444 41.1466 18.6235 41.1779 18.6235 41.23V48.3133Z" fill="#D72333"/>
<path d="M28.5747 50.3133C28.4497 50.3133 28.3768 50.2612 28.3664 50.1466L28.1164 48.6258C28.1164 48.5737 28.0799 48.5425 28.0122 48.5425H26.0122C25.9393 48.5425 25.908 48.5737 25.908 48.6258L25.658 50.1466C25.6424 50.2612 25.5747 50.3133 25.4497 50.3133H23.5955C23.4549 50.3133 23.408 50.2456 23.4497 50.105L25.7622 39.3966C25.7882 39.2873 25.8559 39.23 25.9705 39.23H28.1164C28.2257 39.23 28.2934 39.2873 28.3247 39.3966L30.6372 50.105V50.1675C30.6372 50.2664 30.5799 50.3133 30.4705 50.3133H28.5747ZM26.2205 46.73C26.2205 46.7873 26.2414 46.8133 26.283 46.8133H27.7205C27.7726 46.8133 27.7934 46.7873 27.783 46.73L27.033 42.4175C27.0174 42.3758 26.9966 42.355 26.9705 42.355C26.9549 42.355 26.9497 42.3758 26.9497 42.4175L26.2205 46.73Z" fill="#D72333"/>
<path d="M4.71403 89.6312C4.09945 89.6312 3.55778 89.5114 3.08903 89.277C2.6307 89.027 2.27653 88.6885 2.02653 88.2562C1.77653 87.8135 1.65153 87.3083 1.65153 86.7354V86.277C1.65153 86.2249 1.66195 86.1833 1.6932 86.152C1.73486 86.1104 1.78174 86.0895 1.83903 86.0895H3.65153C3.70361 86.0895 3.74528 86.1104 3.77653 86.152C3.8182 86.1833 3.83903 86.2249 3.83903 86.277V86.6312C3.83903 86.9541 3.92236 87.2145 4.08903 87.4229C4.26611 87.6208 4.48486 87.7145 4.73486 87.7145C4.98486 87.7145 5.1932 87.626 5.35986 87.4437C5.53695 87.251 5.6307 87.001 5.6307 86.6937C5.6307 86.376 5.51611 86.1051 5.29736 85.8812C5.08903 85.6468 4.67757 85.3083 4.0682 84.8604C3.53695 84.4854 3.10986 84.152 2.77653 83.8604C2.45361 83.5583 2.17757 83.1885 1.9432 82.7562C1.71924 82.3291 1.60986 81.8291 1.60986 81.2562C1.60986 80.3551 1.8859 79.6416 2.4432 79.1104C2.99528 78.5687 3.73486 78.2979 4.65153 78.2979C5.57861 78.2979 6.3234 78.5791 6.8807 79.1312C7.4484 79.6885 7.73486 80.4229 7.73486 81.3395V81.7145C7.73486 81.7718 7.71403 81.8187 7.67236 81.8604C7.64111 81.8916 7.59945 81.902 7.54736 81.902H5.73486C5.67757 81.902 5.6307 81.8916 5.58903 81.8604C5.55778 81.8187 5.54736 81.7718 5.54736 81.7145V81.2979C5.54736 80.9645 5.46403 80.7041 5.29736 80.5062C5.1307 80.3135 4.91195 80.2145 4.65153 80.2145C4.40153 80.2145 4.1932 80.3083 4.02653 80.4854C3.87028 80.6676 3.79736 80.9229 3.79736 81.2562C3.79736 81.5791 3.89111 81.8604 4.08903 82.1104C4.29736 82.3499 4.6984 82.6833 5.29736 83.1104C5.9484 83.5999 6.4432 83.9958 6.77653 84.2979C7.10986 84.5895 7.36507 84.9229 7.54736 85.2979C7.72445 85.6624 7.8182 86.0895 7.8182 86.5895C7.8182 87.5218 7.53174 88.2666 6.96403 88.8187C6.39111 89.3604 5.64111 89.6312 4.71403 89.6312Z" fill="#D72333"/>
<path d="M11.9287 89.6312C10.9548 89.6312 10.1787 89.3499 9.59538 88.777C9.02246 88.2093 8.74121 87.4541 8.74121 86.5062V81.4229C8.74121 80.4801 9.02246 79.7249 9.59538 79.152C10.1787 78.5843 10.9548 78.2979 11.9287 78.2979C12.8975 78.2979 13.6787 78.5843 14.262 79.152C14.8558 79.7249 15.1579 80.4801 15.1579 81.4229V86.5062C15.1579 87.4541 14.8558 88.2093 14.262 88.777C13.6787 89.3499 12.8975 89.6312 11.9287 89.6312ZM11.9287 87.7145C12.2308 87.7145 12.4704 87.6104 12.637 87.402C12.8141 87.1937 12.9079 86.9229 12.9079 86.5895V81.3395C12.9079 81.0062 12.8141 80.7354 12.637 80.527C12.4704 80.3187 12.2308 80.2145 11.9287 80.2145C11.637 80.2145 11.3975 80.3187 11.2204 80.527C11.0537 80.7354 10.9704 81.0062 10.9704 81.3395V86.5895C10.9704 86.9229 11.0537 87.1937 11.2204 87.402C11.3975 87.6104 11.637 87.7145 11.9287 87.7145Z" fill="#D72333"/>
<path d="M16.5819 89.5062C16.5246 89.5062 16.4777 89.4958 16.436 89.4645C16.3944 89.4229 16.3735 89.376 16.3735 89.3187V78.6104C16.3735 78.5583 16.3944 78.5166 16.436 78.4854C16.4777 78.4437 16.5246 78.4229 16.5819 78.4229H19.436C20.3944 78.4229 21.1652 78.7093 21.7485 79.277C22.3319 79.8343 22.6235 80.5687 22.6235 81.4854V86.4437C22.6235 87.3604 22.3319 88.1051 21.7485 88.6729C21.1652 89.2301 20.3944 89.5062 19.436 89.5062H16.5819ZM18.6235 87.5062C18.6235 87.5635 18.6444 87.5895 18.686 87.5895L19.4152 87.5687C19.6912 87.5687 19.9204 87.4541 20.1027 87.2145C20.2798 86.9801 20.3787 86.6729 20.3944 86.2979V81.6312C20.3944 81.2301 20.3006 80.9176 20.1235 80.6937C19.9412 80.4593 19.6965 80.3395 19.3944 80.3395H18.686C18.6444 80.3395 18.6235 80.3708 18.6235 80.4229V87.5062Z" fill="#D72333"/>
<path d="M28.5747 89.5062C28.4497 89.5062 28.3768 89.4541 28.3664 89.3395L28.1164 87.8187C28.1164 87.7666 28.0799 87.7354 28.0122 87.7354H26.0122C25.9393 87.7354 25.908 87.7666 25.908 87.8187L25.658 89.3395C25.6424 89.4541 25.5747 89.5062 25.4497 89.5062H23.5955C23.4549 89.5062 23.408 89.4385 23.4497 89.2979L25.7622 78.5895C25.7882 78.4801 25.8559 78.4229 25.9705 78.4229H28.1164C28.2257 78.4229 28.2934 78.4801 28.3247 78.5895L30.6372 89.2979V89.3604C30.6372 89.4593 30.5799 89.5062 30.4705 89.5062H28.5747ZM26.2205 85.9229C26.2205 85.9801 26.2414 86.0062 26.283 86.0062H27.7205C27.7726 86.0062 27.7934 85.9801 27.783 85.9229L27.033 81.6104C27.0174 81.5687 26.9966 81.5479 26.9705 81.5479C26.9549 81.5479 26.9497 81.5687 26.9497 81.6104L26.2205 85.9229Z" fill="#D72333"/>
<path d="M34.5146 89.5062C34.473 89.5062 34.4313 89.4958 34.3896 89.4645C34.348 89.4229 34.3271 89.376 34.3271 89.3187V87.7145C34.3271 87.6312 34.3376 87.5583 34.3688 87.4854L37.7646 80.4437C37.7751 80.402 37.7751 80.376 37.7646 80.3604C37.749 80.3499 37.7282 80.3395 37.7021 80.3395H34.5146C34.473 80.3395 34.4313 80.3291 34.3896 80.2979C34.348 80.2562 34.3271 80.2093 34.3271 80.152V78.6104C34.3271 78.5583 34.348 78.5166 34.3896 78.4854C34.4313 78.4437 34.473 78.4229 34.5146 78.4229H39.973C40.0251 78.4229 40.0667 78.4437 40.098 78.4854C40.1396 78.5166 40.1605 78.5583 40.1605 78.6104V80.2145C40.1605 80.2874 40.1449 80.3604 40.1188 80.4437L36.723 87.4854C36.7074 87.527 36.7074 87.5583 36.723 87.5687C36.7334 87.5843 36.7542 87.5895 36.7855 87.5895H39.973C40.0251 87.5895 40.0667 87.6104 40.098 87.652C40.1396 87.6833 40.1605 87.7249 40.1605 87.777V89.3187C40.1605 89.376 40.1396 89.4229 40.098 89.4645C40.0667 89.4958 40.0251 89.5062 39.973 89.5062H34.5146Z" fill="#D72333"/>
<path d="M41.432 89.5062C41.3747 89.5062 41.3278 89.4958 41.2861 89.4645C41.2445 89.4229 41.2236 89.376 41.2236 89.3187V78.6104C41.2236 78.5583 41.2445 78.5166 41.2861 78.4854C41.3278 78.4437 41.3747 78.4229 41.432 78.4229H43.2653C43.3174 78.4229 43.3695 78.4437 43.4111 78.4854C43.4528 78.5166 43.4736 78.5583 43.4736 78.6104V89.3187C43.4736 89.376 43.4528 89.4229 43.4111 89.4645C43.3695 89.4958 43.3174 89.5062 43.2653 89.5062H41.432Z" fill="#D72333"/>
<path d="M51.0096 78.4229C51.0617 78.4229 51.1034 78.4437 51.1346 78.4854C51.1763 78.5166 51.1971 78.5583 51.1971 78.6104V80.152C51.1971 80.2093 51.1763 80.2562 51.1346 80.2979C51.1034 80.3291 51.0617 80.3395 51.0096 80.3395H49.0304C48.9888 80.3395 48.9679 80.3708 48.9679 80.4229V89.3187C48.9679 89.376 48.9471 89.4229 48.9054 89.4645C48.8638 89.4958 48.8117 89.5062 48.7596 89.5062H46.9054C46.8638 89.5062 46.8221 89.4958 46.7804 89.4645C46.7388 89.4229 46.7179 89.376 46.7179 89.3187V80.4229C46.7179 80.3708 46.6971 80.3395 46.6554 80.3395H44.7388C44.6971 80.3395 44.6554 80.3291 44.6138 80.2979C44.5721 80.2562 44.5513 80.2093 44.5513 80.152V78.6104C44.5513 78.5583 44.5721 78.5166 44.6138 78.4854C44.6554 78.4437 44.6971 78.4229 44.7388 78.4229H51.0096Z" fill="#D72333"/>
<path d="M56.646 89.5062C56.5314 89.5062 56.4637 89.4541 56.4377 89.3395L55.2085 84.9854C55.1929 84.9437 55.1668 84.9229 55.1252 84.9229H54.5835C54.5418 84.9229 54.521 84.9437 54.521 84.9854V89.3187C54.521 89.376 54.5002 89.4229 54.4585 89.4645C54.4168 89.4958 54.3647 89.5062 54.3127 89.5062H52.4793C52.422 89.5062 52.3752 89.4958 52.3335 89.4645C52.2918 89.4229 52.271 89.376 52.271 89.3187V78.6104C52.271 78.5583 52.2918 78.5166 52.3335 78.4854C52.3752 78.4437 52.422 78.4229 52.4793 78.4229H55.6668C56.2502 78.4229 56.7606 78.5635 57.2085 78.8395C57.6668 79.1208 58.021 79.5166 58.271 80.027C58.521 80.527 58.646 81.1051 58.646 81.7562C58.646 82.3812 58.5262 82.9385 58.2918 83.4229C58.0522 83.8968 57.7189 84.2666 57.2918 84.527C57.2762 84.527 57.2606 84.5426 57.2502 84.5687C57.2345 84.5843 57.2345 84.5999 57.2502 84.6104L58.7085 89.277L58.7293 89.3395C58.7293 89.4541 58.6668 89.5062 58.5418 89.5062H56.646ZM54.5835 80.3395C54.5418 80.3395 54.521 80.3708 54.521 80.4229V83.1312C54.521 83.1885 54.5418 83.2145 54.5835 83.2145H55.3127C55.6304 83.2145 55.896 83.0843 56.1043 82.8187C56.3127 82.5583 56.4168 82.2093 56.4168 81.777C56.4168 81.3343 56.3127 80.9854 56.1043 80.7354C55.896 80.4749 55.6304 80.3395 55.3127 80.3395H54.5835Z" fill="#D72333"/>
<path d="M62.7676 89.6312C61.7936 89.6312 61.0176 89.3499 60.4342 88.777C59.8613 88.2093 59.5801 87.4541 59.5801 86.5062V81.4229C59.5801 80.4801 59.8613 79.7249 60.4342 79.152C61.0176 78.5843 61.7936 78.2979 62.7676 78.2979C63.7363 78.2979 64.5176 78.5843 65.1009 79.152C65.6947 79.7249 65.9967 80.4801 65.9967 81.4229V86.5062C65.9967 87.4541 65.6947 88.2093 65.1009 88.777C64.5176 89.3499 63.7363 89.6312 62.7676 89.6312ZM62.7676 87.7145C63.0697 87.7145 63.3092 87.6104 63.4759 87.402C63.653 87.1937 63.7467 86.9229 63.7467 86.5895V81.3395C63.7467 81.0062 63.653 80.7354 63.4759 80.527C63.3092 80.3187 63.0697 80.2145 62.7676 80.2145C62.4759 80.2145 62.2363 80.3187 62.0592 80.527C61.8926 80.7354 61.8092 81.0062 61.8092 81.3395V86.5895C61.8092 86.9229 61.8926 87.1937 62.0592 87.402C62.2363 87.6104 62.4759 87.7145 62.7676 87.7145Z" fill="#D72333"/>
<path d="M71.7546 78.6104C71.7546 78.5583 71.765 78.5166 71.7962 78.4854C71.8379 78.4437 71.8848 78.4229 71.9421 78.4229H73.7754C73.8275 78.4229 73.8691 78.4437 73.9004 78.4854C73.9421 78.5166 73.9629 78.5583 73.9629 78.6104V89.3187C73.9629 89.376 73.9421 89.4229 73.9004 89.4645C73.8691 89.4958 73.8275 89.5062 73.7754 89.5062H71.6921C71.5775 89.5062 71.5098 89.4541 71.4837 89.3395L69.5254 83.2145C69.5098 83.1885 69.4889 83.1833 69.4629 83.1937C69.4316 83.1937 69.4212 83.2093 69.4212 83.2354L69.4421 89.3187C69.4421 89.376 69.4212 89.4229 69.3796 89.4645C69.3483 89.4958 69.3066 89.5062 69.2546 89.5062H67.4212C67.3639 89.5062 67.3171 89.4958 67.2754 89.4645C67.2337 89.4229 67.2129 89.376 67.2129 89.3187V78.6104C67.2129 78.5583 67.2337 78.5166 67.2754 78.4854C67.3171 78.4437 67.3639 78.4229 67.4212 78.4229H69.4837C69.5931 78.4229 69.6608 78.4801 69.6921 78.5895L71.6712 84.7145C71.6816 84.7458 71.7025 84.7562 71.7337 84.7562C71.7598 84.7458 71.7754 84.7249 71.7754 84.6937L71.7546 78.6104Z" fill="#D72333"/>
<path d="M77.0771 83.2355C77.0198 83.2355 76.9729 83.2251 76.9313 83.1938C76.9 83.1522 76.8896 83.1053 76.8896 83.048L76.9104 81.7355C76.9104 81.7095 76.8948 81.6886 76.8688 81.673C76.8531 81.6626 76.8323 81.6678 76.8063 81.6938L75.6813 82.3397C75.6396 82.3709 75.6031 82.3813 75.5771 82.3813C75.5198 82.3813 75.4625 82.3501 75.4104 82.2772L74.9729 81.4855C74.9573 81.4438 74.9521 81.4126 74.9521 81.3813C74.9521 81.3293 74.9781 81.2772 75.0354 81.2355L76.2646 80.5272C76.275 80.5168 76.2854 80.5011 76.2854 80.4855C76.2854 80.4595 76.275 80.4386 76.2646 80.423L75.0354 79.7355C74.9365 79.6678 74.9156 79.5845 74.9729 79.4855L75.4104 78.6522C75.4521 78.6001 75.4938 78.5636 75.5354 78.548C75.5875 78.5376 75.6396 78.5428 75.6813 78.5688L76.8063 79.2563C76.8323 79.2876 76.8531 79.2928 76.8688 79.2772C76.8948 79.2668 76.9104 79.2459 76.9104 79.2147L76.8896 77.8813C76.8896 77.8293 76.9 77.7876 76.9313 77.7563C76.9729 77.7147 77.0198 77.6938 77.0771 77.6938H77.9729C78.025 77.6938 78.0667 77.7147 78.0979 77.7563C78.1396 77.7876 78.1604 77.8293 78.1604 77.8813L78.1396 79.2147C78.1396 79.2459 78.1448 79.2668 78.1604 79.2772C78.1865 79.2928 78.2125 79.2876 78.2438 79.2563L79.3688 78.5688C79.4104 78.5428 79.4365 78.5272 79.4521 78.5272C79.5354 78.5272 79.5979 78.5688 79.6396 78.6522L80.0771 79.4855C80.0875 79.5272 80.0979 79.5584 80.0979 79.5688C80.0979 79.6261 80.0667 79.6834 80.0146 79.7355L78.8063 80.423C78.7906 80.4386 78.7854 80.4595 78.7854 80.4855C78.7854 80.5011 78.7906 80.5168 78.8063 80.5272L80.0146 81.2355C80.1083 81.2928 80.1292 81.3761 80.0771 81.4855L79.6396 82.3188C79.5979 82.3761 79.5563 82.4126 79.5146 82.423C79.4729 82.423 79.4208 82.4126 79.3688 82.3813L78.2438 81.6938C78.2125 81.6678 78.1865 81.6626 78.1604 81.673C78.1448 81.6886 78.1396 81.7095 78.1396 81.7355L78.1604 83.048C78.1604 83.1053 78.1396 83.1522 78.0979 83.1938C78.0667 83.2251 78.025 83.2355 77.9729 83.2355H77.0771Z" fill="#D72333"/>
<path d="M8.54704 98.7163C9.18245 98.7163 9.67725 98.9559 10.0262 99.4246C10.37 99.883 10.547 100.524 10.547 101.341V106.675C10.547 106.789 10.4897 106.841 10.3804 106.841H9.5887C9.48975 106.841 9.44287 106.789 9.44287 106.675V101.445C9.44287 100.904 9.32308 100.482 9.0887 100.175C8.86475 99.8569 8.56787 99.6955 8.19287 99.6955C7.80225 99.6955 7.48975 99.8517 7.25537 100.154C7.01579 100.461 6.9012 100.878 6.9012 101.404V106.675C6.9012 106.789 6.84912 106.841 6.75537 106.841H5.94287C5.82829 106.841 5.7762 106.789 5.7762 106.675V101.445C5.7762 100.904 5.65641 100.482 5.42204 100.175C5.19808 99.8569 4.91162 99.6955 4.56787 99.6955C4.16162 99.6955 3.84391 99.8517 3.60954 100.154C3.36996 100.461 3.25537 100.878 3.25537 101.404V106.675C3.25537 106.789 3.19808 106.841 3.0887 106.841H2.29704C2.18245 106.841 2.13037 106.789 2.13037 106.675V98.9871C2.13037 98.8778 2.18245 98.8205 2.29704 98.8205H3.0887C3.19808 98.8205 3.25537 98.8778 3.25537 98.9871V99.4871C3.25537 99.5028 3.26058 99.5184 3.2762 99.5288C3.28662 99.5288 3.30225 99.5184 3.31787 99.4871C3.5262 99.2267 3.76058 99.0288 4.0262 98.9038C4.30225 98.7788 4.59391 98.7163 4.9012 98.7163C5.30225 98.7163 5.6512 98.8153 5.94287 99.008C6.24496 99.2059 6.47412 99.4819 6.63037 99.8413C6.64079 99.8726 6.65641 99.883 6.67204 99.883C6.69808 99.883 6.71891 99.8621 6.73454 99.8205C6.91162 99.4455 7.17204 99.1694 7.50537 98.9871C7.8387 98.8101 8.18245 98.7163 8.54704 98.7163Z" fill="#D72333"/>
<path d="M13.0745 97.383C12.8089 97.383 12.5954 97.2996 12.4287 97.133C12.262 96.9559 12.1787 96.7371 12.1787 96.4871C12.1787 96.2267 12.262 96.008 12.4287 95.8413C12.5954 95.6746 12.8089 95.5913 13.0745 95.5913C13.3245 95.5913 13.5329 95.6746 13.6995 95.8413C13.8662 96.008 13.9495 96.2267 13.9495 96.4871C13.9495 96.7371 13.8662 96.9559 13.6995 97.133C13.5329 97.2996 13.3245 97.383 13.0745 97.383ZM12.6787 106.841C12.5641 106.841 12.512 106.789 12.512 106.675V98.9871C12.512 98.8778 12.5641 98.8205 12.6787 98.8205H13.4912C13.585 98.8205 13.637 98.8778 13.637 98.9871V106.675C13.637 106.789 13.585 106.841 13.4912 106.841H12.6787Z" fill="#D72333"/>
<path d="M18.5127 99.508C18.5127 99.6226 18.4554 99.6746 18.346 99.6746H17.1377C17.096 99.6746 17.0752 99.6955 17.0752 99.7371V104.57C17.0752 105.06 17.1585 105.399 17.3252 105.591C17.5023 105.774 17.7679 105.857 18.1169 105.841H18.2627C18.3721 105.841 18.4294 105.899 18.4294 106.008V106.675C18.4294 106.789 18.3721 106.841 18.2627 106.841H17.8669C17.2419 106.841 16.7679 106.711 16.4502 106.445C16.1273 106.169 15.971 105.654 15.971 104.904V99.7371C15.971 99.6955 15.9502 99.6746 15.9085 99.6746H15.2835C15.1846 99.6746 15.1377 99.6226 15.1377 99.508V98.9871C15.1377 98.8778 15.1846 98.8205 15.2835 98.8205H15.9085C15.9502 98.8205 15.971 98.7996 15.971 98.758V96.9871C15.971 96.8934 16.0231 96.8413 16.1377 96.8413H16.9294C17.0231 96.8413 17.0752 96.8934 17.0752 96.9871V98.758C17.0752 98.7996 17.096 98.8205 17.1377 98.8205H18.346C18.4554 98.8205 18.5127 98.8778 18.5127 98.9871V99.508Z" fill="#D72333"/>
<path d="M25.6331 96.6121C25.2269 96.6121 24.9456 96.7528 24.779 97.0288C24.6123 97.2944 24.529 97.7111 24.529 98.2788V98.758C24.529 98.7996 24.5498 98.8205 24.5915 98.8205H25.7998C25.9092 98.8205 25.9665 98.8778 25.9665 98.9871V99.508C25.9665 99.6226 25.9092 99.6746 25.7998 99.6746H24.5915C24.5498 99.6746 24.529 99.6955 24.529 99.7371V106.675C24.529 106.789 24.4717 106.841 24.3623 106.841H23.5706C23.4561 106.841 23.404 106.789 23.404 106.675V99.7371C23.404 99.6955 23.3831 99.6746 23.3415 99.6746H22.7165C22.6019 99.6746 22.5498 99.6226 22.5498 99.508V98.9871C22.5498 98.8778 22.6019 98.8205 22.7165 98.8205H23.3415C23.3831 98.8205 23.404 98.7996 23.404 98.758V98.258C23.404 97.3413 23.5706 96.6851 23.904 96.2788C24.2477 95.8621 24.8206 95.6538 25.6123 95.6538H25.8415C25.9352 95.6538 25.9873 95.7059 25.9873 95.7996L25.9665 96.4455C25.9665 96.5601 25.9144 96.6121 25.8206 96.6121H25.6331Z" fill="#D72333"/>
<path d="M30.1634 98.7583C30.4238 98.7583 30.653 98.8156 30.8509 98.925C30.9186 98.9666 30.9447 99.0396 30.9342 99.1333L30.7467 99.9458C30.7311 100.045 30.6686 100.081 30.5592 100.05C30.4186 99.9823 30.2572 99.9458 30.0801 99.9458C29.9967 99.9458 29.9342 99.9562 29.8926 99.9666C29.502 99.9979 29.1842 100.196 28.9342 100.571C28.6947 100.946 28.5801 101.399 28.5801 101.925V106.675C28.5801 106.79 28.528 106.842 28.4342 106.842H27.6217C27.5072 106.842 27.4551 106.79 27.4551 106.675V98.9875C27.4551 98.8781 27.5072 98.8208 27.6217 98.8208H28.4342C28.528 98.8208 28.5801 98.8781 28.5801 98.9875V99.9458C28.5801 99.9771 28.5853 99.9875 28.6009 99.9875C28.627 99.9875 28.6478 99.9771 28.6634 99.9458C28.9655 99.1541 29.4655 98.7583 30.1634 98.7583Z" fill="#D72333"/>
<path d="M32.764 97.383C32.4984 97.383 32.2848 97.2996 32.1182 97.133C31.9515 96.9559 31.8682 96.7371 31.8682 96.4871C31.8682 96.2267 31.9515 96.008 32.1182 95.8413C32.2848 95.6746 32.4984 95.5913 32.764 95.5913C33.014 95.5913 33.2223 95.6746 33.389 95.8413C33.5557 96.008 33.639 96.2267 33.639 96.4871C33.639 96.7371 33.5557 96.9559 33.389 97.133C33.2223 97.2996 33.014 97.383 32.764 97.383ZM32.3682 106.841C32.2536 106.841 32.2015 106.789 32.2015 106.675V98.9871C32.2015 98.8778 32.2536 98.8205 32.3682 98.8205H33.1807C33.2744 98.8205 33.3265 98.8778 33.3265 98.9871V106.675C33.3265 106.789 33.2744 106.841 33.1807 106.841H32.3682Z" fill="#D72333"/>
<path d="M37.4728 106.925C36.7332 106.925 36.1447 106.737 35.702 106.362C35.2697 105.987 35.0562 105.487 35.0562 104.862V104.758C35.0562 104.649 35.1082 104.592 35.2228 104.592H35.9728C36.0822 104.592 36.1395 104.649 36.1395 104.758V104.842C36.1395 105.191 36.2645 105.482 36.5145 105.717C36.7645 105.941 37.0822 106.05 37.4728 106.05C37.8582 106.05 38.1655 105.941 38.3895 105.717C38.6239 105.482 38.7437 105.185 38.7437 104.821C38.7437 104.545 38.6655 104.316 38.5145 104.133C38.3739 103.941 38.2072 103.795 38.0145 103.696C37.8166 103.586 37.5249 103.446 37.1395 103.279C36.7228 103.112 36.3739 102.946 36.0978 102.779C35.8322 102.612 35.603 102.383 35.4103 102.092C35.2124 101.79 35.1187 101.404 35.1187 100.946C35.1187 100.269 35.327 99.7323 35.7437 99.3416C36.1603 98.9562 36.7228 98.7583 37.4312 98.7583C38.1499 98.7583 38.7228 98.9614 39.1395 99.3625C39.5666 99.7531 39.7853 100.279 39.7853 100.946V101.008C39.7853 101.107 39.728 101.154 39.6187 101.154H38.8895C38.7749 101.154 38.7228 101.107 38.7228 101.008V100.904C38.7228 100.545 38.603 100.253 38.3687 100.029C38.1291 99.7948 37.827 99.675 37.452 99.675C37.077 99.675 36.7697 99.7948 36.5353 100.029C36.3114 100.269 36.202 100.56 36.202 100.904C36.202 101.154 36.2697 101.373 36.4103 101.55C36.5457 101.717 36.7124 101.857 36.9103 101.967C37.1187 102.081 37.3947 102.217 37.7437 102.383C38.1864 102.566 38.5457 102.748 38.827 102.925C39.103 103.092 39.3478 103.331 39.5562 103.633C39.7645 103.941 39.8687 104.316 39.8687 104.758C39.8687 105.425 39.6499 105.956 39.2228 106.342C38.7905 106.732 38.2072 106.925 37.4728 106.925Z" fill="#D72333"/>
<path d="M43.6007 106.967C42.8507 106.967 42.2466 106.748 41.7882 106.3C41.3403 105.857 41.1216 105.274 41.1216 104.55V101.133C41.1216 100.415 41.3403 99.8312 41.7882 99.3833C42.2466 98.925 42.8507 98.6958 43.6007 98.6958C44.0851 98.6958 44.5174 98.8 44.8924 99.0083C45.2778 99.2062 45.5799 99.4666 45.7882 99.8C45.9966 100.133 46.1007 100.503 46.1007 100.904V101.071C46.1007 101.17 46.0435 101.217 45.9341 101.217L45.1216 101.258C45.0226 101.258 44.9757 101.206 44.9757 101.092V100.987C44.9757 100.644 44.8403 100.336 44.5799 100.071C44.3143 99.8104 43.9862 99.675 43.6007 99.675C43.1945 99.675 42.8716 99.8208 42.6216 100.112C42.3716 100.394 42.2466 100.753 42.2466 101.196V104.467C42.2466 104.925 42.3716 105.295 42.6216 105.571C42.8716 105.852 43.1945 105.987 43.6007 105.987C43.9862 105.987 44.3143 105.862 44.5799 105.612C44.8403 105.352 44.9757 105.045 44.9757 104.696V104.571C44.9757 104.477 45.0226 104.425 45.1216 104.425H45.9341C46.0435 104.425 46.1007 104.482 46.1007 104.592V104.758C46.1007 105.399 45.8716 105.925 45.4132 106.342C44.9549 106.758 44.3507 106.967 43.6007 106.967Z" fill="#D72333"/>
<path d="M50.5055 98.7166C51.1566 98.7166 51.6566 98.9406 52.0055 99.3833C52.3493 99.8312 52.5264 100.446 52.5264 101.237V106.675C52.5264 106.79 52.4743 106.842 52.3805 106.842H51.568C51.4534 106.842 51.4014 106.79 51.4014 106.675V101.342C51.4014 100.816 51.2868 100.415 51.068 100.133C50.8441 99.8416 50.5316 99.6958 50.1305 99.6958C49.7139 99.6958 49.3805 99.8521 49.1305 100.154C48.891 100.461 48.7764 100.878 48.7764 101.404V106.675C48.7764 106.79 48.7243 106.842 48.6305 106.842H47.818C47.7034 106.842 47.6514 106.79 47.6514 106.675V95.925C47.6514 95.8156 47.7034 95.7583 47.818 95.7583H48.6305C48.7243 95.7583 48.7764 95.8156 48.7764 95.925V99.4875C48.7764 99.5187 48.7816 99.5396 48.7972 99.55C48.8232 99.55 48.8441 99.5396 48.8597 99.5083C49.0524 99.2479 49.2972 99.05 49.5889 98.925C49.8805 98.7896 50.1826 98.7166 50.5055 98.7166Z" fill="#D72333"/>
<path d="M59.1541 103.112C59.1541 103.211 59.0968 103.258 58.9875 103.258H55.3833C55.3416 103.258 55.3208 103.279 55.3208 103.321V104.487C55.3208 104.935 55.4458 105.295 55.6958 105.571C55.9458 105.852 56.2687 105.987 56.675 105.987C57.0083 105.987 57.2896 105.883 57.5291 105.675C57.7635 105.467 57.9146 105.206 57.9875 104.883C58.0291 104.79 58.0916 104.737 58.175 104.737L58.9666 104.758C59.0083 104.758 59.0396 104.779 59.0708 104.821C59.0968 104.852 59.1125 104.894 59.1125 104.946C59.0291 105.571 58.7687 106.066 58.3416 106.425C57.9093 106.79 57.3521 106.967 56.675 106.967C55.925 106.967 55.3208 106.748 54.8625 106.3C54.4146 105.857 54.1958 105.274 54.1958 104.55V101.133C54.1958 100.415 54.4146 99.8312 54.8625 99.3833C55.3208 98.925 55.925 98.6958 56.675 98.6958C57.425 98.6958 58.0187 98.925 58.4666 99.3833C58.925 99.8312 59.1541 100.415 59.1541 101.133V103.112ZM56.675 99.675C56.2687 99.675 55.9458 99.8208 55.6958 100.112C55.4458 100.394 55.3208 100.753 55.3208 101.196V102.258C55.3208 102.3 55.3416 102.321 55.3833 102.321H57.9875C58.0291 102.321 58.05 102.3 58.05 102.258V101.196C58.05 100.753 57.9146 100.394 57.6541 100.112C57.4041 99.8208 57.076 99.675 56.675 99.675Z" fill="#D72333"/>
<path d="M67.2209 98.7163C67.8563 98.7163 68.3511 98.9559 68.7 99.4246C69.0438 99.883 69.2209 100.524 69.2209 101.341V106.675C69.2209 106.789 69.1636 106.841 69.0542 106.841H68.2625C68.1636 106.841 68.1167 106.789 68.1167 106.675V101.445C68.1167 100.904 67.9969 100.482 67.7625 100.175C67.5386 99.8569 67.2417 99.6955 66.8667 99.6955C66.4761 99.6955 66.1636 99.8517 65.9292 100.154C65.6896 100.461 65.575 100.878 65.575 101.404V106.675C65.575 106.789 65.5229 106.841 65.4292 106.841H64.6167C64.5021 106.841 64.45 106.789 64.45 106.675V101.445C64.45 100.904 64.3302 100.482 64.0959 100.175C63.8719 99.8569 63.5854 99.6955 63.2417 99.6955C62.8354 99.6955 62.5177 99.8517 62.2834 100.154C62.0438 100.461 61.9292 100.878 61.9292 101.404V106.675C61.9292 106.789 61.8719 106.841 61.7625 106.841H60.9709C60.8563 106.841 60.8042 106.789 60.8042 106.675V98.9871C60.8042 98.8778 60.8563 98.8205 60.9709 98.8205H61.7625C61.8719 98.8205 61.9292 98.8778 61.9292 98.9871V99.4871C61.9292 99.5028 61.9344 99.5184 61.95 99.5288C61.9604 99.5288 61.9761 99.5184 61.9917 99.4871C62.2 99.2267 62.4344 99.0288 62.7 98.9038C62.9761 98.7788 63.2677 98.7163 63.575 98.7163C63.9761 98.7163 64.325 98.8153 64.6167 99.008C64.9188 99.2059 65.1479 99.4819 65.3042 99.8413C65.3146 99.8726 65.3302 99.883 65.3459 99.883C65.3719 99.883 65.3927 99.8621 65.4084 99.8205C65.5855 99.4455 65.8459 99.1694 66.1792 98.9871C66.5125 98.8101 66.8563 98.7163 67.2209 98.7163Z" fill="#D72333"/>
<path d="M73.9552 106.842C73.8407 106.842 73.7886 106.79 73.7886 106.675V105.946C73.7886 105.904 73.799 105.842 73.8302 105.758L77.6844 96.8208C77.6948 96.7948 77.6948 96.7739 77.6844 96.7583C77.6688 96.7479 77.6532 96.7375 77.6427 96.7375H73.9552C73.8407 96.7375 73.7886 96.6906 73.7886 96.5916V95.925C73.7886 95.8156 73.8407 95.7583 73.9552 95.7583H78.7469C78.8563 95.7583 78.9136 95.8156 78.9136 95.925V96.6541C78.9136 96.6958 78.8927 96.7583 78.8511 96.8416L75.0177 105.779C75.0177 105.81 75.0177 105.831 75.0177 105.842C75.0282 105.857 75.049 105.862 75.0802 105.862H78.7469C78.8563 105.862 78.9136 105.915 78.9136 106.008V106.675C78.9136 106.79 78.8563 106.842 78.7469 106.842H73.9552Z" fill="#D72333"/>
<path d="M81.1659 97.383C80.9002 97.383 80.6867 97.2996 80.52 97.133C80.3534 96.9559 80.27 96.7371 80.27 96.4871C80.27 96.2267 80.3534 96.008 80.52 95.8413C80.6867 95.6746 80.9002 95.5913 81.1659 95.5913C81.4159 95.5913 81.6242 95.6746 81.7909 95.8413C81.9575 96.008 82.0409 96.2267 82.0409 96.4871C82.0409 96.7371 81.9575 96.9559 81.7909 97.133C81.6242 97.2996 81.4159 97.383 81.1659 97.383ZM80.77 106.841C80.6554 106.841 80.6034 106.789 80.6034 106.675V98.9871C80.6034 98.8778 80.6554 98.8205 80.77 98.8205H81.5825C81.6763 98.8205 81.7284 98.8778 81.7284 98.9871V106.675C81.7284 106.789 81.6763 106.841 81.5825 106.841H80.77Z" fill="#D72333"/>
<path d="M86.6035 99.508C86.6035 99.6226 86.5462 99.6746 86.4368 99.6746H85.2285C85.1868 99.6746 85.166 99.6955 85.166 99.7371V104.57C85.166 105.06 85.2493 105.399 85.416 105.591C85.5931 105.774 85.8587 105.857 86.2077 105.841H86.3535C86.4629 105.841 86.5202 105.899 86.5202 106.008V106.675C86.5202 106.789 86.4629 106.841 86.3535 106.841H85.9577C85.3327 106.841 84.8587 106.711 84.541 106.445C84.2181 106.169 84.0618 105.654 84.0618 104.904V99.7371C84.0618 99.6955 84.041 99.6746 83.9993 99.6746H83.3743C83.2754 99.6746 83.2285 99.6226 83.2285 99.508V98.9871C83.2285 98.8778 83.2754 98.8205 83.3743 98.8205H83.9993C84.041 98.8205 84.0618 98.7996 84.0618 98.758V96.9871C84.0618 96.8934 84.1139 96.8413 84.2285 96.8413H85.0202C85.1139 96.8413 85.166 96.8934 85.166 96.9871V98.758C85.166 98.7996 85.1868 98.8205 85.2285 98.8205H86.4368C86.5462 98.8205 86.6035 98.8778 86.6035 98.9871V99.508Z" fill="#D72333"/>
<path d="M90.7044 98.7583C90.9648 98.7583 91.194 98.8156 91.3919 98.925C91.4596 98.9666 91.4857 99.0396 91.4753 99.1333L91.2878 99.9458C91.2721 100.045 91.2096 100.081 91.1003 100.05C90.9596 99.9823 90.7982 99.9458 90.6211 99.9458C90.5378 99.9458 90.4753 99.9562 90.4336 99.9666C90.043 99.9979 89.7253 100.196 89.4753 100.571C89.2357 100.946 89.1211 101.399 89.1211 101.925V106.675C89.1211 106.79 89.069 106.842 88.9753 106.842H88.1628C88.0482 106.842 87.9961 106.79 87.9961 106.675V98.9875C87.9961 98.8781 88.0482 98.8208 88.1628 98.8208H88.9753C89.069 98.8208 89.1211 98.8781 89.1211 98.9875V99.9458C89.1211 99.9771 89.1263 99.9875 89.1419 99.9875C89.168 99.9875 89.1888 99.9771 89.2044 99.9458C89.5065 99.1541 90.0065 98.7583 90.7044 98.7583Z" fill="#D72333"/>
<path d="M94.9303 106.967C94.1803 106.967 93.5762 106.748 93.1178 106.3C92.6699 105.857 92.4512 105.274 92.4512 104.55V101.133C92.4512 100.425 92.6699 99.8416 93.1178 99.3833C93.5762 98.925 94.1803 98.6958 94.9303 98.6958C95.6908 98.6958 96.2949 98.925 96.7428 99.3833C97.2012 99.8416 97.4303 100.425 97.4303 101.133V104.55C97.4303 105.274 97.2012 105.857 96.7428 106.3C96.2949 106.748 95.6908 106.967 94.9303 106.967ZM94.9303 105.967C95.3314 105.967 95.6595 105.836 95.9095 105.571C96.1699 105.295 96.3053 104.925 96.3053 104.467V101.196C96.3053 100.753 96.1699 100.394 95.9095 100.112C95.6595 99.8208 95.3314 99.675 94.9303 99.675C94.5241 99.675 94.2012 99.8208 93.9512 100.112C93.7012 100.394 93.5762 100.753 93.5762 101.196V104.467C93.5762 104.925 93.7012 105.295 93.9512 105.571C94.2012 105.836 94.5241 105.967 94.9303 105.967Z" fill="#D72333"/>
<path d="M102.041 98.7163C102.692 98.7163 103.192 98.9403 103.541 99.383C103.884 99.8309 104.062 100.445 104.062 101.237V106.675C104.062 106.789 104.009 106.841 103.916 106.841H103.103C102.989 106.841 102.937 106.789 102.937 106.675V101.341C102.937 100.815 102.822 100.414 102.603 100.133C102.379 99.8413 102.067 99.6955 101.666 99.6955C101.249 99.6955 100.916 99.8517 100.666 100.154C100.426 100.461 100.312 100.878 100.312 101.404V106.675C100.312 106.789 100.259 106.841 100.166 106.841H99.3532C99.2386 106.841 99.1865 106.789 99.1865 106.675V98.9871C99.1865 98.8778 99.2386 98.8205 99.3532 98.8205H100.166C100.259 98.8205 100.312 98.8778 100.312 98.9871V99.4871C100.312 99.5184 100.317 99.5392 100.332 99.5496C100.358 99.5496 100.379 99.5392 100.395 99.508C100.588 99.2476 100.832 99.0496 101.124 98.9246C101.416 98.7892 101.718 98.7163 102.041 98.7163Z" fill="#D72333"/>
<path d="M110.689 103.112C110.689 103.211 110.632 103.258 110.523 103.258H106.918C106.877 103.258 106.856 103.279 106.856 103.321V104.487C106.856 104.935 106.981 105.295 107.231 105.571C107.481 105.852 107.804 105.987 108.21 105.987C108.543 105.987 108.825 105.883 109.064 105.675C109.299 105.467 109.45 105.206 109.523 104.883C109.564 104.79 109.627 104.737 109.71 104.737L110.502 104.758C110.543 104.758 110.575 104.779 110.606 104.821C110.632 104.852 110.648 104.894 110.648 104.946C110.564 105.571 110.304 106.066 109.877 106.425C109.444 106.79 108.887 106.967 108.21 106.967C107.46 106.967 106.856 106.748 106.398 106.3C105.95 105.857 105.731 105.274 105.731 104.55V101.133C105.731 100.415 105.95 99.8312 106.398 99.3833C106.856 98.925 107.46 98.6958 108.21 98.6958C108.96 98.6958 109.554 98.925 110.002 99.3833C110.46 99.8312 110.689 100.415 110.689 101.133V103.112ZM108.21 99.675C107.804 99.675 107.481 99.8208 107.231 100.112C106.981 100.394 106.856 100.753 106.856 101.196V102.258C106.856 102.3 106.877 102.321 106.918 102.321H109.523C109.564 102.321 109.585 102.3 109.585 102.258V101.196C109.585 100.753 109.45 100.394 109.189 100.112C108.939 99.8208 108.611 99.675 108.21 99.675Z" fill="#D72333"/>
<path d="M115.194 98.7163C115.845 98.7163 116.345 98.9403 116.694 99.383C117.037 99.8309 117.214 100.445 117.214 101.237V106.675C117.214 106.789 117.162 106.841 117.069 106.841H116.256C116.141 106.841 116.089 106.789 116.089 106.675V101.341C116.089 100.815 115.975 100.414 115.756 100.133C115.532 99.8413 115.22 99.6955 114.819 99.6955C114.402 99.6955 114.069 99.8517 113.819 100.154C113.579 100.461 113.464 100.878 113.464 101.404V106.675C113.464 106.789 113.412 106.841 113.319 106.841H112.506C112.391 106.841 112.339 106.789 112.339 106.675V98.9871C112.339 98.8778 112.391 98.8205 112.506 98.8205H113.319C113.412 98.8205 113.464 98.8778 113.464 98.9871V99.4871C113.464 99.5184 113.47 99.5392 113.485 99.5496C113.511 99.5496 113.532 99.5392 113.548 99.508C113.74 99.2476 113.985 99.0496 114.277 98.9246C114.569 98.7892 114.871 98.7163 115.194 98.7163Z" fill="#D72333"/>
<path d="M121.154 106.925C120.415 106.925 119.826 106.737 119.384 106.362C118.951 105.987 118.738 105.487 118.738 104.862V104.758C118.738 104.649 118.79 104.592 118.904 104.592H119.654C119.764 104.592 119.821 104.649 119.821 104.758V104.842C119.821 105.191 119.946 105.482 120.196 105.717C120.446 105.941 120.764 106.05 121.154 106.05C121.54 106.05 121.847 105.941 122.071 105.717C122.306 105.482 122.425 105.185 122.425 104.821C122.425 104.545 122.347 104.316 122.196 104.133C122.056 103.941 121.889 103.795 121.696 103.696C121.498 103.586 121.207 103.446 120.821 103.279C120.404 103.112 120.056 102.946 119.779 102.779C119.514 102.612 119.285 102.383 119.092 102.092C118.894 101.79 118.8 101.404 118.8 100.946C118.8 100.269 119.009 99.7323 119.425 99.3416C119.842 98.9562 120.404 98.7583 121.113 98.7583C121.832 98.7583 122.404 98.9614 122.821 99.3625C123.248 99.7531 123.467 100.279 123.467 100.946V101.008C123.467 101.107 123.41 101.154 123.3 101.154H122.571C122.457 101.154 122.404 101.107 122.404 101.008V100.904C122.404 100.545 122.285 100.253 122.05 100.029C121.811 99.7948 121.509 99.675 121.134 99.675C120.759 99.675 120.451 99.7948 120.217 100.029C119.993 100.269 119.884 100.56 119.884 100.904C119.884 101.154 119.951 101.373 120.092 101.55C120.227 101.717 120.394 101.857 120.592 101.967C120.8 102.081 121.076 102.217 121.425 102.383C121.868 102.566 122.227 102.748 122.509 102.925C122.785 103.092 123.029 103.331 123.238 103.633C123.446 103.941 123.55 104.316 123.55 104.758C123.55 105.425 123.332 105.956 122.904 106.342C122.472 106.732 121.889 106.925 121.154 106.925Z" fill="#D72333"/>
<path d="M127.324 98.6958C128.059 98.6958 128.647 98.9406 129.095 99.425C129.538 99.9146 129.762 100.55 129.762 101.342V106.675C129.762 106.79 129.704 106.842 129.595 106.842H128.803C128.689 106.842 128.637 106.79 128.637 106.675V106.217C128.637 106.191 128.626 106.175 128.616 106.175C128.6 106.165 128.579 106.17 128.553 106.196C128.163 106.711 127.579 106.967 126.803 106.967C126.22 106.967 125.71 106.8 125.283 106.467C124.85 106.133 124.637 105.545 124.637 104.696C124.637 103.81 124.892 103.154 125.408 102.737C125.934 102.321 126.621 102.112 127.47 102.112H128.574C128.616 102.112 128.637 102.092 128.637 102.05V101.425C128.637 100.899 128.512 100.477 128.262 100.154C128.022 99.8364 127.699 99.675 127.283 99.675C126.975 99.675 126.704 99.7896 126.47 100.008C126.246 100.217 126.116 100.482 126.074 100.8C126.074 100.915 126.017 100.967 125.908 100.967L125.033 100.946C124.975 100.946 124.934 100.935 124.908 100.904C124.876 100.878 124.871 100.842 124.887 100.8C124.939 100.175 125.189 99.6698 125.637 99.2791C126.095 98.8937 126.658 98.6958 127.324 98.6958ZM127.033 105.987C127.46 105.987 127.835 105.852 128.158 105.571C128.475 105.295 128.637 104.904 128.637 104.404V103.071C128.637 103.029 128.616 103.008 128.574 103.008H127.449C126.934 103.008 126.533 103.149 126.241 103.425C125.949 103.691 125.803 104.086 125.803 104.612C125.803 105.071 125.913 105.42 126.137 105.654C126.371 105.878 126.668 105.987 127.033 105.987Z" fill="#D72333"/>
<path d="M134.069 96.6121C133.663 96.6121 133.382 96.7528 133.215 97.0288C133.048 97.2944 132.965 97.7111 132.965 98.2788V98.758C132.965 98.7996 132.986 98.8205 133.028 98.8205H134.236C134.345 98.8205 134.403 98.8778 134.403 98.9871V99.508C134.403 99.6226 134.345 99.6746 134.236 99.6746H133.028C132.986 99.6746 132.965 99.6955 132.965 99.7371V106.675C132.965 106.789 132.908 106.841 132.798 106.841H132.007C131.892 106.841 131.84 106.789 131.84 106.675V99.7371C131.84 99.6955 131.819 99.6746 131.778 99.6746H131.153C131.038 99.6746 130.986 99.6226 130.986 99.508V98.9871C130.986 98.8778 131.038 98.8205 131.153 98.8205H131.778C131.819 98.8205 131.84 98.7996 131.84 98.758V98.258C131.84 97.3413 132.007 96.6851 132.34 96.2788C132.684 95.8621 133.257 95.6538 134.048 95.6538H134.278C134.371 95.6538 134.423 95.7059 134.423 95.7996L134.403 96.4455C134.403 96.5601 134.35 96.6121 134.257 96.6121H134.069Z" fill="#D72333"/>
<path d="M138.725 99.508C138.725 99.6226 138.667 99.6746 138.558 99.6746H137.35C137.308 99.6746 137.287 99.6955 137.287 99.7371V104.57C137.287 105.06 137.37 105.399 137.537 105.591C137.714 105.774 137.98 105.857 138.329 105.841H138.475C138.584 105.841 138.641 105.899 138.641 106.008V106.675C138.641 106.789 138.584 106.841 138.475 106.841H138.079C137.454 106.841 136.98 106.711 136.662 106.445C136.339 106.169 136.183 105.654 136.183 104.904V99.7371C136.183 99.6955 136.162 99.6746 136.12 99.6746H135.495C135.396 99.6746 135.35 99.6226 135.35 99.508V98.9871C135.35 98.8778 135.396 98.8205 135.495 98.8205H136.12C136.162 98.8205 136.183 98.7996 136.183 98.758V96.9871C136.183 96.8934 136.235 96.8413 136.35 96.8413H137.141C137.235 96.8413 137.287 96.8934 137.287 96.9871V98.758C137.287 98.7996 137.308 98.8205 137.35 98.8205H138.558C138.667 98.8205 138.725 98.8778 138.725 98.9871V99.508Z" fill="#D72333"/>
<path d="M8.23486 138.45C8.23486 139.439 7.93278 140.194 7.33903 140.72C6.7557 141.252 5.99007 141.512 5.04736 141.512H2.0682C2.0109 141.512 1.96403 141.502 1.92236 141.47C1.8807 141.429 1.85986 141.382 1.85986 141.325V130.616C1.85986 130.564 1.8807 130.522 1.92236 130.491C1.96403 130.45 2.0109 130.429 2.0682 130.429H4.6932C5.74528 130.429 6.5734 130.689 7.17236 131.2C7.76611 131.7 8.0682 132.45 8.0682 133.45C8.0682 134.491 7.71403 135.257 7.0057 135.741C6.96403 135.772 6.95361 135.799 6.98486 135.825C7.8182 136.424 8.23486 137.299 8.23486 138.45ZM4.17236 132.345C4.1307 132.345 4.10986 132.377 4.10986 132.429V134.908C4.10986 134.965 4.1307 134.991 4.17236 134.991H4.7557C5.11507 134.991 5.39111 134.882 5.58903 134.658C5.78174 134.424 5.8807 134.106 5.8807 133.7C5.8807 133.257 5.78174 132.924 5.58903 132.7C5.39111 132.465 5.11507 132.345 4.7557 132.345H4.17236ZM4.8807 139.575C5.22445 139.575 5.49528 139.45 5.6932 139.2C5.90153 138.95 6.0057 138.59 6.0057 138.116C6.0057 137.658 5.90153 137.293 5.6932 137.012C5.49528 136.736 5.23486 136.595 4.90153 136.595H4.17236C4.1307 136.595 4.10986 136.627 4.10986 136.679V139.491C4.10986 139.549 4.1307 139.575 4.17236 139.575H4.8807Z" fill="#D72333"/>
<path d="M9.50716 141.512C9.44987 141.512 9.40299 141.502 9.36133 141.47C9.31966 141.429 9.29883 141.382 9.29883 141.325V130.616C9.29883 130.564 9.31966 130.522 9.36133 130.491C9.40299 130.45 9.44987 130.429 9.50716 130.429H11.3405C11.3926 130.429 11.4447 130.45 11.4863 130.491C11.528 130.522 11.5488 130.564 11.5488 130.616V141.325C11.5488 141.382 11.528 141.429 11.4863 141.47C11.4447 141.502 11.3926 141.512 11.3405 141.512H9.50716Z" fill="#D72333"/>
<path d="M15.981 141.637C15.007 141.637 14.231 141.356 13.6476 140.783C13.0747 140.215 12.7935 139.46 12.7935 138.512V133.429C12.7935 132.486 13.0747 131.731 13.6476 131.158C14.231 130.59 15.007 130.304 15.981 130.304C16.9497 130.304 17.731 130.59 18.3143 131.158C18.908 131.731 19.2101 132.486 19.2101 133.429V138.512C19.2101 139.46 18.908 140.215 18.3143 140.783C17.731 141.356 16.9497 141.637 15.981 141.637ZM15.981 139.72C16.283 139.72 16.5226 139.616 16.6893 139.408C16.8664 139.2 16.9601 138.929 16.9601 138.595V133.345C16.9601 133.012 16.8664 132.741 16.6893 132.533C16.5226 132.325 16.283 132.22 15.981 132.22C15.6893 132.22 15.4497 132.325 15.2726 132.533C15.106 132.741 15.0226 133.012 15.0226 133.345V138.595C15.0226 138.929 15.106 139.2 15.2726 139.408C15.4497 139.616 15.6893 139.72 15.981 139.72Z" fill="#D72333"/>
<path d="M20.3008 137.783C20.2591 137.783 20.2174 137.772 20.1758 137.741C20.1341 137.7 20.1133 137.653 20.1133 137.595V136.075C20.1133 136.022 20.1341 135.97 20.1758 135.929C20.2174 135.887 20.2591 135.866 20.3008 135.866H24.4049C24.457 135.866 24.4987 135.887 24.5299 135.929C24.5716 135.97 24.5924 136.022 24.5924 136.075V137.595C24.5924 137.653 24.5716 137.7 24.5299 137.741C24.4987 137.772 24.457 137.783 24.4049 137.783H20.3008Z" fill="#D72333"/>
<path d="M29.6437 130.616C29.6437 130.564 29.6646 130.522 29.7062 130.491C29.7479 130.45 29.7896 130.429 29.8312 130.429H31.6854C31.7375 130.429 31.7791 130.45 31.8104 130.491C31.8521 130.522 31.8729 130.564 31.8729 130.616V141.325C31.8729 141.382 31.8521 141.429 31.8104 141.47C31.7791 141.502 31.7375 141.512 31.6854 141.512H29.8312C29.7896 141.512 29.7479 141.502 29.7062 141.47C29.6646 141.429 29.6437 141.382 29.6437 141.325V136.991C29.6437 136.95 29.6125 136.929 29.5604 136.929H27.9771C27.9354 136.929 27.9146 136.95 27.9146 136.991V141.325C27.9146 141.382 27.8937 141.429 27.8521 141.47C27.8104 141.502 27.7583 141.512 27.7062 141.512H25.8729C25.8156 141.512 25.7687 141.502 25.7271 141.47C25.6854 141.429 25.6646 141.382 25.6646 141.325V130.616C25.6646 130.564 25.6854 130.522 25.7271 130.491C25.7687 130.45 25.8156 130.429 25.8729 130.429H27.7062C27.7583 130.429 27.8104 130.45 27.8521 130.491C27.8937 130.522 27.9146 130.564 27.9146 130.616V134.929C27.9146 134.986 27.9354 135.012 27.9771 135.012H29.5604C29.6125 135.012 29.6437 134.986 29.6437 134.929V130.616Z" fill="#D72333"/>
<path d="M36.3037 141.637C35.3298 141.637 34.5537 141.356 33.9704 140.783C33.3975 140.215 33.1162 139.46 33.1162 138.512V133.429C33.1162 132.486 33.3975 131.731 33.9704 131.158C34.5537 130.59 35.3298 130.304 36.3037 130.304C37.2725 130.304 38.0537 130.59 38.637 131.158C39.2308 131.731 39.5329 132.486 39.5329 133.429V138.512C39.5329 139.46 39.2308 140.215 38.637 140.783C38.0537 141.356 37.2725 141.637 36.3037 141.637ZM36.3037 139.72C36.6058 139.72 36.8454 139.616 37.012 139.408C37.1891 139.2 37.2829 138.929 37.2829 138.595V133.345C37.2829 133.012 37.1891 132.741 37.012 132.533C36.8454 132.325 36.6058 132.22 36.3037 132.22C36.012 132.22 35.7725 132.325 35.5954 132.533C35.4287 132.741 35.3454 133.012 35.3454 133.345V138.595C35.3454 138.929 35.4287 139.2 35.5954 139.408C35.7725 139.616 36.012 139.72 36.3037 139.72Z" fill="#D72333"/>
<path d="M40.9569 141.512C40.8996 141.512 40.8527 141.502 40.811 141.47C40.7694 141.429 40.7485 141.382 40.7485 141.325V130.616C40.7485 130.564 40.7694 130.522 40.811 130.491C40.8527 130.45 40.8996 130.429 40.9569 130.429H42.7902C42.8423 130.429 42.8944 130.45 42.936 130.491C42.9777 130.522 42.9985 130.564 42.9985 130.616V139.512C42.9985 139.569 43.0194 139.595 43.061 139.595H46.3944C46.4465 139.595 46.4881 139.616 46.5194 139.658C46.561 139.689 46.5819 139.731 46.5819 139.783V141.325C46.5819 141.382 46.561 141.429 46.5194 141.47C46.4881 141.502 46.4465 141.512 46.3944 141.512H40.9569Z" fill="#D72333"/>
<path d="M50.5955 141.637C49.6476 141.637 48.8872 141.34 48.3039 140.741C47.731 140.147 47.4497 139.356 47.4497 138.366V130.616C47.4497 130.564 47.4601 130.522 47.4914 130.491C47.533 130.45 47.5799 130.429 47.6372 130.429H49.4914C49.5435 130.429 49.5851 130.45 49.6164 130.491C49.658 130.522 49.6789 130.564 49.6789 130.616V138.575C49.6789 138.924 49.7622 139.2 49.9289 139.408C50.106 139.616 50.3299 139.72 50.5955 139.72C50.8716 139.72 51.0955 139.616 51.2622 139.408C51.4289 139.2 51.5122 138.924 51.5122 138.575V130.616C51.5122 130.564 51.5226 130.522 51.5539 130.491C51.5955 130.45 51.6424 130.429 51.6997 130.429H53.5539C53.606 130.429 53.6476 130.45 53.6789 130.491C53.7205 130.522 53.7414 130.564 53.7414 130.616V138.366C53.7414 139.356 53.4497 140.147 52.8664 140.741C52.2935 141.34 51.5382 141.637 50.5955 141.637Z" fill="#D72333"/>
<path d="M59.6144 130.616C59.6144 130.564 59.6248 130.522 59.6561 130.491C59.6978 130.45 59.7446 130.429 59.8019 130.429H61.6353C61.6873 130.429 61.729 130.45 61.7603 130.491C61.8019 130.522 61.8228 130.564 61.8228 130.616V141.325C61.8228 141.382 61.8019 141.429 61.7603 141.47C61.729 141.502 61.6873 141.512 61.6353 141.512H59.5519C59.4373 141.512 59.3696 141.46 59.3436 141.345L57.3853 135.22C57.3696 135.194 57.3488 135.189 57.3228 135.2C57.2915 135.2 57.2811 135.215 57.2811 135.241L57.3019 141.325C57.3019 141.382 57.2811 141.429 57.2394 141.47C57.2082 141.502 57.1665 141.512 57.1144 141.512H55.2811C55.2238 141.512 55.1769 141.502 55.1353 141.47C55.0936 141.429 55.0728 141.382 55.0728 141.325V130.616C55.0728 130.564 55.0936 130.522 55.1353 130.491C55.1769 130.45 55.2238 130.429 55.2811 130.429H57.3436C57.453 130.429 57.5207 130.486 57.5519 130.595L59.5311 136.72C59.5415 136.752 59.5623 136.762 59.5936 136.762C59.6196 136.752 59.6353 136.731 59.6353 136.7L59.6144 130.616Z" fill="#D72333"/>
<path d="M63.4163 141.512C63.359 141.512 63.3122 141.502 63.2705 141.47C63.2288 141.429 63.208 141.382 63.208 141.325V130.616C63.208 130.564 63.2288 130.522 63.2705 130.491C63.3122 130.45 63.359 130.429 63.4163 130.429H66.2705C67.2288 130.429 67.9997 130.715 68.583 131.283C69.1663 131.84 69.458 132.575 69.458 133.491V138.45C69.458 139.366 69.1663 140.111 68.583 140.679C67.9997 141.236 67.2288 141.512 66.2705 141.512H63.4163ZM65.458 139.512C65.458 139.569 65.4788 139.595 65.5205 139.595L66.2497 139.575C66.5257 139.575 66.7549 139.46 66.9372 139.22C67.1143 138.986 67.2132 138.679 67.2288 138.304V133.637C67.2288 133.236 67.1351 132.924 66.958 132.7C66.7757 132.465 66.5309 132.345 66.2288 132.345H65.5205C65.4788 132.345 65.458 132.377 65.458 132.429V139.512Z" fill="#D72333"/>
<path d="M76.5547 132.158C76.5547 132.215 76.5339 132.262 76.4922 132.304C76.4609 132.335 76.4193 132.345 76.3672 132.345H73.0547C73.013 132.345 72.9922 132.377 72.9922 132.429V134.929C72.9922 134.986 73.013 135.012 73.0547 135.012H74.9714C75.013 135.012 75.0547 135.033 75.0964 135.075C75.138 135.106 75.1589 135.147 75.1589 135.2V136.72C75.1589 136.778 75.138 136.825 75.0964 136.866C75.0547 136.908 75.013 136.929 74.9714 136.929H73.0547C73.013 136.929 72.9922 136.95 72.9922 136.991V139.512C72.9922 139.569 73.013 139.595 73.0547 139.595H76.3672C76.4193 139.595 76.4609 139.616 76.4922 139.658C76.5339 139.689 76.5547 139.731 76.5547 139.783V141.325C76.5547 141.382 76.5339 141.429 76.4922 141.47C76.4609 141.502 76.4193 141.512 76.3672 141.512H70.9505C70.8932 141.512 70.8464 141.502 70.8047 141.47C70.763 141.429 70.7422 141.382 70.7422 141.325V130.616C70.7422 130.564 70.763 130.522 70.8047 130.491C70.8464 130.45 70.8932 130.429 70.9505 130.429H76.3672C76.4193 130.429 76.4609 130.45 76.4922 130.491C76.5339 130.522 76.5547 130.564 76.5547 130.616V132.158Z" fill="#D72333"/>
<path d="M82.0498 141.512C81.9352 141.512 81.8675 141.46 81.8415 141.345L80.6123 136.991C80.5967 136.95 80.5706 136.929 80.529 136.929H79.9873C79.9456 136.929 79.9248 136.95 79.9248 136.991V141.325C79.9248 141.382 79.904 141.429 79.8623 141.47C79.8206 141.502 79.7686 141.512 79.7165 141.512H77.8831C77.8258 141.512 77.779 141.502 77.7373 141.47C77.6956 141.429 77.6748 141.382 77.6748 141.325V130.616C77.6748 130.564 77.6956 130.522 77.7373 130.491C77.779 130.45 77.8258 130.429 77.8831 130.429H81.0706C81.654 130.429 82.1644 130.569 82.6123 130.845C83.0706 131.127 83.4248 131.522 83.6748 132.033C83.9248 132.533 84.0498 133.111 84.0498 133.762C84.0498 134.387 83.93 134.944 83.6956 135.429C83.4561 135.903 83.1227 136.272 82.6956 136.533C82.68 136.533 82.6644 136.549 82.654 136.575C82.6383 136.59 82.6383 136.606 82.654 136.616L84.1123 141.283L84.1331 141.345C84.1331 141.46 84.0706 141.512 83.9456 141.512H82.0498ZM79.9873 132.345C79.9456 132.345 79.9248 132.377 79.9248 132.429V135.137C79.9248 135.194 79.9456 135.22 79.9873 135.22H80.7165C81.0342 135.22 81.2998 135.09 81.5081 134.825C81.7165 134.564 81.8206 134.215 81.8206 133.783C81.8206 133.34 81.7165 132.991 81.5081 132.741C81.2998 132.481 81.0342 132.345 80.7165 132.345H79.9873Z" fill="#D72333"/>
<path d="M85.0049 137.783C84.9632 137.783 84.9215 137.772 84.8799 137.741C84.8382 137.7 84.8174 137.653 84.8174 137.595V136.075C84.8174 136.022 84.8382 135.97 84.8799 135.929C84.9215 135.887 84.9632 135.866 85.0049 135.866H89.109C89.1611 135.866 89.2028 135.887 89.234 135.929C89.2757 135.97 89.2965 136.022 89.2965 136.075V137.595C89.2965 137.653 89.2757 137.7 89.234 137.741C89.2028 137.772 89.1611 137.783 89.109 137.783H85.0049Z" fill="#D72333"/>
<path d="M93.2228 141.637C92.6082 141.637 92.0666 141.517 91.5978 141.283C91.1395 141.033 90.7853 140.694 90.5353 140.262C90.2853 139.819 90.1603 139.314 90.1603 138.741V138.283C90.1603 138.231 90.1707 138.189 90.202 138.158C90.2437 138.116 90.2905 138.095 90.3478 138.095H92.1603C92.2124 138.095 92.2541 138.116 92.2853 138.158C92.327 138.189 92.3478 138.231 92.3478 138.283V138.637C92.3478 138.96 92.4312 139.22 92.5978 139.429C92.7749 139.627 92.9937 139.72 93.2437 139.72C93.4937 139.72 93.702 139.632 93.8687 139.45C94.0457 139.257 94.1395 139.007 94.1395 138.7C94.1395 138.382 94.0249 138.111 93.8062 137.887C93.5978 137.653 93.1864 137.314 92.577 136.866C92.0457 136.491 91.6187 136.158 91.2853 135.866C90.9624 135.564 90.6864 135.194 90.452 134.762C90.228 134.335 90.1187 133.835 90.1187 133.262C90.1187 132.361 90.3947 131.647 90.952 131.116C91.5041 130.575 92.2437 130.304 93.1603 130.304C94.0874 130.304 94.8322 130.585 95.3895 131.137C95.9572 131.694 96.2437 132.429 96.2437 133.345V133.72C96.2437 133.778 96.2228 133.825 96.1812 133.866C96.1499 133.897 96.1082 133.908 96.0562 133.908H94.2437C94.1864 133.908 94.1395 133.897 94.0978 133.866C94.0666 133.825 94.0562 133.778 94.0562 133.72V133.304C94.0562 132.97 93.9728 132.71 93.8062 132.512C93.6395 132.319 93.4207 132.22 93.1603 132.22C92.9103 132.22 92.702 132.314 92.5353 132.491C92.3791 132.674 92.3062 132.929 92.3062 133.262C92.3062 133.585 92.3999 133.866 92.5978 134.116C92.8062 134.356 93.2072 134.689 93.8062 135.116C94.4572 135.606 94.952 136.002 95.2853 136.304C95.6187 136.595 95.8739 136.929 96.0562 137.304C96.2332 137.668 96.327 138.095 96.327 138.595C96.327 139.528 96.0405 140.272 95.4728 140.825C94.8999 141.366 94.1499 141.637 93.2228 141.637Z" fill="#D72333"/>
<path d="M100.438 141.637C99.464 141.637 98.688 141.356 98.1047 140.783C97.5317 140.215 97.2505 139.46 97.2505 138.512V133.429C97.2505 132.486 97.5317 131.731 98.1047 131.158C98.688 130.59 99.464 130.304 100.438 130.304C101.407 130.304 102.188 130.59 102.771 131.158C103.365 131.731 103.667 132.486 103.667 133.429V138.512C103.667 139.46 103.365 140.215 102.771 140.783C102.188 141.356 101.407 141.637 100.438 141.637ZM100.438 139.72C100.74 139.72 100.98 139.616 101.146 139.408C101.323 139.2 101.417 138.929 101.417 138.595V133.345C101.417 133.012 101.323 132.741 101.146 132.533C100.98 132.325 100.74 132.22 100.438 132.22C100.146 132.22 99.9067 132.325 99.7297 132.533C99.563 132.741 99.4797 133.012 99.4797 133.345V138.595C99.4797 138.929 99.563 139.2 99.7297 139.408C99.9067 139.616 100.146 139.72 100.438 139.72Z" fill="#D72333"/>
<path d="M105.091 141.512C105.034 141.512 104.987 141.502 104.945 141.47C104.904 141.429 104.883 141.382 104.883 141.325V130.616C104.883 130.564 104.904 130.522 104.945 130.491C104.987 130.45 105.034 130.429 105.091 130.429H107.945C108.904 130.429 109.674 130.715 110.258 131.283C110.841 131.84 111.133 132.575 111.133 133.491V138.45C111.133 139.366 110.841 140.111 110.258 140.679C109.674 141.236 108.904 141.512 107.945 141.512H105.091ZM107.133 139.512C107.133 139.569 107.154 139.595 107.195 139.595L107.924 139.575C108.201 139.575 108.43 139.46 108.612 139.22C108.789 138.986 108.888 138.679 108.904 138.304V133.637C108.904 133.236 108.81 132.924 108.633 132.7C108.451 132.465 108.206 132.345 107.904 132.345H107.195C107.154 132.345 107.133 132.377 107.133 132.429V139.512Z" fill="#D72333"/>
<path d="M117.083 141.512C116.958 141.512 116.886 141.46 116.875 141.345L116.625 139.825C116.625 139.772 116.589 139.741 116.521 139.741H114.521C114.448 139.741 114.417 139.772 114.417 139.825L114.167 141.345C114.151 141.46 114.083 141.512 113.958 141.512H112.104C111.964 141.512 111.917 141.444 111.958 141.304L114.271 130.595C114.297 130.486 114.365 130.429 114.479 130.429H116.625C116.735 130.429 116.802 130.486 116.833 130.595L119.146 141.304V141.366C119.146 141.465 119.089 141.512 118.979 141.512H117.083ZM114.729 137.929C114.729 137.986 114.75 138.012 114.792 138.012H116.229C116.281 138.012 116.302 137.986 116.292 137.929L115.542 133.616C115.526 133.575 115.505 133.554 115.479 133.554C115.464 133.554 115.458 133.575 115.458 133.616L114.729 137.929Z" fill="#D72333"/>
<path d="M121.775 135.241C121.718 135.241 121.671 135.231 121.629 135.2C121.598 135.158 121.587 135.111 121.587 135.054L121.608 133.741C121.608 133.715 121.593 133.694 121.567 133.679C121.551 133.668 121.53 133.674 121.504 133.7L120.379 134.346C120.337 134.377 120.301 134.387 120.275 134.387C120.218 134.387 120.16 134.356 120.108 134.283L119.671 133.491C119.655 133.45 119.65 133.418 119.65 133.387C119.65 133.335 119.676 133.283 119.733 133.241L120.962 132.533C120.973 132.523 120.983 132.507 120.983 132.491C120.983 132.465 120.973 132.444 120.962 132.429L119.733 131.741C119.634 131.674 119.613 131.59 119.671 131.491L120.108 130.658C120.15 130.606 120.192 130.569 120.233 130.554C120.285 130.543 120.337 130.549 120.379 130.575L121.504 131.262C121.53 131.293 121.551 131.299 121.567 131.283C121.593 131.273 121.608 131.252 121.608 131.221L121.587 129.887C121.587 129.835 121.598 129.793 121.629 129.762C121.671 129.721 121.718 129.7 121.775 129.7H122.671C122.723 129.7 122.764 129.721 122.796 129.762C122.837 129.793 122.858 129.835 122.858 129.887L122.837 131.221C122.837 131.252 122.843 131.273 122.858 131.283C122.884 131.299 122.91 131.293 122.942 131.262L124.067 130.575C124.108 130.549 124.134 130.533 124.15 130.533C124.233 130.533 124.296 130.575 124.337 130.658L124.775 131.491C124.785 131.533 124.796 131.564 124.796 131.575C124.796 131.632 124.764 131.689 124.712 131.741L123.504 132.429C123.488 132.444 123.483 132.465 123.483 132.491C123.483 132.507 123.488 132.523 123.504 132.533L124.712 133.241C124.806 133.299 124.827 133.382 124.775 133.491L124.337 134.325C124.296 134.382 124.254 134.418 124.212 134.429C124.171 134.429 124.119 134.418 124.067 134.387L122.942 133.7C122.91 133.674 122.884 133.668 122.858 133.679C122.843 133.694 122.837 133.715 122.837 133.741L122.858 135.054C122.858 135.111 122.837 135.158 122.796 135.2C122.764 135.231 122.723 135.241 122.671 135.241H121.775Z" fill="#D72333"/>
</g>
</svg>
