<svg width="4" height="6" viewBox="0 0 4 6" fill="none" xmlns="http://www.w3.org/2000/svg">
<path d="M2.5 0.125C2.5 0.0416667 2.53125 0 2.60417 0H3.14583C3.21354 0 3.25 0.0416667 3.25 0.125V5.29167C3.25 5.36458 3.21354 5.39583 3.14583 5.39583H2.60417C2.53125 5.39583 2.5 5.36458 2.5 5.29167V4.9375C2.5 4.91146 2.48958 4.89583 2.47917 4.89583C2.47917 4.89583 2.46875 4.90625 2.45833 4.91667C2.23437 5.29167 1.88021 5.47917 1.39583 5.47917C0.963541 5.47917 0.625 5.34896 0.375 5.08333C0.125 4.82292 0 4.42708 0 3.89583V0.125C0 0.0416667 0.0312493 0 0.104167 0H0.645833C0.713541 0 0.75 0.0416667 0.75 0.125V3.72917C0.75 4.09375 0.817708 4.36458 0.958333 4.54167C1.10937 4.72396 1.32292 4.8125 1.60417 4.8125C1.88021 4.8125 2.09375 4.70833 2.25 4.5C2.41667 4.29167 2.5 4.01563 2.5 3.66667V0.125Z" fill="#D72333"/>
</svg>
