<svg width="5" height="8" viewBox="0 0 5 8" fill="none" xmlns="http://www.w3.org/2000/svg">
<path d="M0.145833 7.9375C0.0468747 7.9375 0 7.88542 0 7.77083V7.02083C0 6.95313 0.0104173 6.89063 0.0416667 6.83333L3.25 1.10417C3.26042 1.07813 3.26042 1.05729 3.25 1.04167C3.25 1.03125 3.23958 1.02083 3.22917 1.02083H0.208333C0.109375 1.02083 0.0625 0.968751 0.0625 0.854167V0.166667C0.0625 0.057292 0.109375 0 0.208333 0H4.45833C4.55208 0 4.60417 0.057292 4.60417 0.166667V0.916667C4.60417 0.989583 4.58854 1.05208 4.5625 1.10417L1.3125 6.83333C1.29687 6.86458 1.29687 6.88542 1.3125 6.89583C1.32292 6.91146 1.33854 6.91667 1.35417 6.91667H4.47917C4.58854 6.91667 4.64583 6.97396 4.64583 7.08333V7.77083C4.64583 7.88542 4.58854 7.9375 4.47917 7.9375H0.145833Z" fill="#D72333"/>
</svg>
