<svg width="27" height="38" viewBox="0 0 27 38" fill="none" xmlns="http://www.w3.org/2000/svg">
<mask id="mask0_25_20188" style="mask-type:luminance" maskUnits="userSpaceOnUse" x="0" y="0" width="27" height="38">
<path d="M26.6667 0H0V37.3333H26.6667V0Z" fill="white"/>
</mask>
<g mask="url(#mask0_25_20188)">
<path d="M4.64844 13.8301C4.61719 13.8613 4.61198 13.8874 4.6276 13.9134C4.63802 13.929 4.65885 13.9342 4.6901 13.9342H8.0026C8.05469 13.9342 8.09635 13.9551 8.1276 13.9967C8.16927 14.028 8.1901 14.0697 8.1901 14.1217V15.6634C8.1901 15.7207 8.16927 15.7676 8.1276 15.8092C8.09635 15.8405 8.05469 15.8509 8.0026 15.8509H2.14844C2.09115 15.8509 2.04427 15.8405 2.0026 15.8092C1.97135 15.7676 1.96094 15.7207 1.96094 15.6634V14.0592C1.96094 13.9655 1.98177 13.8874 2.02344 13.8301C2.45052 13.2624 2.7526 12.8822 2.91927 12.6842C3.84635 11.4915 4.50781 10.5905 4.89844 9.97591C5.46615 9.07487 5.7526 8.30924 5.7526 7.68424C5.7526 7.32487 5.67448 7.04883 5.52344 6.85091C5.38281 6.6582 5.19531 6.55924 4.96094 6.55924C4.71094 6.55924 4.50781 6.6582 4.35677 6.85091C4.21615 7.04883 4.15365 7.29883 4.16927 7.60091V8.24674C4.16927 8.30404 4.14844 8.35091 4.10677 8.39258C4.07552 8.42383 4.03385 8.43424 3.98177 8.43424H2.08594C2.04427 8.43424 2.0026 8.42383 1.96094 8.39258C1.91927 8.35091 1.89844 8.30404 1.89844 8.24674V7.49674C1.9401 6.63737 2.2526 5.94987 2.83594 5.43424C3.41927 4.9082 4.15365 4.64258 5.04427 4.64258C5.92969 4.64258 6.64844 4.92383 7.1901 5.47591C7.74219 6.0332 8.02344 6.77799 8.02344 7.70508C8.02344 8.24674 7.92969 8.76758 7.7526 9.26758C7.58594 9.76758 7.29948 10.304 6.89844 10.8717C6.60677 11.304 6.09635 11.9759 5.3776 12.8926L4.64844 13.8301Z" fill="#D72333"/>
<path d="M10.2231 15.9136C9.85856 15.9136 9.56169 15.799 9.32731 15.5594C9.08773 15.325 8.97314 15.0282 8.97314 14.6636C8.97314 14.3042 9.08252 14.0073 9.30648 13.7677C9.54085 13.5334 9.84814 13.4136 10.2231 13.4136C10.5825 13.4136 10.8794 13.5334 11.119 13.7677C11.3534 14.0073 11.4731 14.3042 11.4731 14.6636C11.4731 15.0282 11.3534 15.325 11.119 15.5594C10.8794 15.799 10.5825 15.9136 10.2231 15.9136Z" fill="#D72333"/>
<path d="M18.5003 11.4134C18.542 11.8197 18.5628 12.1426 18.5628 12.3926C18.5628 12.7415 18.5472 13.0749 18.5212 13.3926C18.4795 14.2155 18.1878 14.8509 17.6462 15.3092C17.1149 15.7572 16.4014 15.9759 15.5003 15.9759C14.667 15.9759 13.9847 15.7676 13.4587 15.3509C12.943 14.9238 12.6357 14.2884 12.542 13.4551L12.4795 13.0176C12.4795 12.8926 12.542 12.8301 12.667 12.8301H14.5212C14.6462 12.8301 14.7139 12.8926 14.7295 13.0176C14.7295 13.0905 14.7399 13.1738 14.7712 13.2676C14.8649 13.7988 15.1097 14.0592 15.5003 14.0592C15.7191 14.0592 15.8962 13.9915 16.0212 13.8509C16.1566 13.7155 16.2503 13.5124 16.292 13.2467C16.318 12.9863 16.3337 12.6999 16.3337 12.3926C16.3337 12.1738 16.3128 11.903 16.2712 11.5801C16.2295 11.3301 16.1357 11.1426 16.0003 11.0176C15.8753 10.8926 15.7087 10.8301 15.5003 10.8301C15.1097 10.8301 14.8545 11.0176 14.7295 11.3926C14.6982 11.5072 14.6305 11.5592 14.5212 11.5592H12.667C12.6097 11.5592 12.5628 11.5488 12.5212 11.5176C12.4899 11.4759 12.4795 11.429 12.4795 11.3717V4.95508C12.4795 4.90299 12.4899 4.86133 12.5212 4.83008C12.5628 4.78841 12.6097 4.76758 12.667 4.76758H18.2503C18.3024 4.76758 18.3441 4.78841 18.3753 4.83008C18.417 4.86133 18.4378 4.90299 18.4378 4.95508V6.49674C18.4378 6.55404 18.417 6.60091 18.3753 6.64258C18.3441 6.67383 18.3024 6.68424 18.2503 6.68424H14.792C14.7347 6.68424 14.7087 6.7155 14.7087 6.76758V9.41341C14.7087 9.45508 14.7139 9.48633 14.7295 9.49675C14.7555 9.49675 14.7764 9.48633 14.792 9.45508C14.9691 9.27799 15.1774 9.13737 15.417 9.03841C15.667 8.94466 15.9274 8.89258 16.2087 8.89258C16.8857 8.89258 17.4274 9.11654 17.8337 9.55925C18.2347 10.0072 18.4587 10.6217 18.5003 11.4134Z" fill="#D72333"/>
<mask id="mask1_25_20188" style="mask-type:luminance" maskUnits="userSpaceOnUse" x="18" y="4" width="9" height="14">
<path d="M18.6665 4H26.4738V17.3333H18.6665V4Z" fill="white"/>
</mask>
<g mask="url(#mask1_25_20188)">
<path d="M22.507 16.0177C21.5747 16.0177 20.8247 15.7261 20.257 15.1427C19.6841 14.5594 19.4028 13.7886 19.4028 12.8302V7.78857C19.4028 6.83024 19.6841 6.05941 20.257 5.47607C20.8247 4.89274 21.5747 4.60107 22.507 4.60107C23.1164 4.60107 23.658 4.73649 24.132 4.99691C24.6007 5.26253 24.9653 5.63753 25.2153 6.12191C25.4757 6.61149 25.6112 7.16357 25.6112 7.78857V12.8302C25.6112 13.4552 25.4757 14.0125 25.2153 14.4969C24.9653 14.9865 24.6007 15.3615 24.132 15.6219C23.658 15.8823 23.1164 16.0177 22.507 16.0177ZM22.507 14.1011C22.7674 14.1011 22.9757 13.9969 23.132 13.7886C23.2987 13.5802 23.382 13.3042 23.382 12.9552V7.66357C23.382 7.31982 23.2987 7.03857 23.132 6.83024C22.9757 6.62191 22.7674 6.51774 22.507 6.51774C22.2414 6.51774 22.0278 6.62191 21.8612 6.83024C21.7049 7.03857 21.632 7.31982 21.632 7.66357V12.9552C21.632 13.3042 21.7049 13.5802 21.8612 13.7886C22.0278 13.9969 22.2414 14.1011 22.507 14.1011Z" fill="#D72333"/>
</g>
<mask id="mask2_25_20188" style="mask-type:luminance" maskUnits="userSpaceOnUse" x="0" y="21" width="10" height="13">
<path d="M0.28125 21.3335H9.33333V33.3335H0.28125V21.3335Z" fill="white"/>
</mask>
<g mask="url(#mask2_25_20188)">
<path d="M8.04378 28.4183C8.09587 28.4183 8.13753 28.4391 8.16878 28.4808C8.21045 28.512 8.23128 28.5537 8.23128 28.6058V30.2308C8.23128 30.2881 8.21045 30.335 8.16878 30.3766C8.13753 30.4079 8.09587 30.4183 8.04378 30.4183H7.56462C7.50732 30.4183 7.48128 30.4495 7.48128 30.5016V33.0433C7.48128 33.1006 7.46045 33.1475 7.41878 33.1891C7.37712 33.2204 7.33545 33.2308 7.29378 33.2308H5.43962C5.38232 33.2308 5.33545 33.2204 5.29378 33.1891C5.26253 33.1475 5.25212 33.1006 5.25212 33.0433V30.5016C5.25212 30.4495 5.22087 30.4183 5.16878 30.4183H1.21045C1.15316 30.4183 1.10628 30.4079 1.06462 30.3766C1.03337 30.335 1.02295 30.2881 1.02295 30.2308V28.9391C1.02295 28.8454 1.02816 28.7673 1.04378 28.71L3.14795 22.3141C3.18962 22.2048 3.25732 22.1475 3.35628 22.1475H5.37712C5.4292 22.1475 5.47087 22.1683 5.50212 22.21C5.54378 22.2412 5.54899 22.2933 5.52295 22.3766L3.62712 28.3141C3.61149 28.387 3.63232 28.4183 3.68962 28.4183H5.16878C5.22087 28.4183 5.25212 28.3923 5.25212 28.335V26.6891C5.25212 26.637 5.26253 26.5954 5.29378 26.5641C5.33545 26.5225 5.38232 26.5016 5.43962 26.5016H7.29378C7.33545 26.5016 7.37712 26.5225 7.41878 26.5641C7.46045 26.5954 7.48128 26.637 7.48128 26.6891V28.335C7.48128 28.3923 7.50732 28.4183 7.56462 28.4183H8.04378Z" fill="#D72333"/>
</g>
<path d="M10.2207 33.2935C9.85612 33.2935 9.55924 33.1789 9.32487 32.9393C9.08529 32.7049 8.9707 32.408 8.9707 32.0435C8.9707 31.6841 9.08008 31.3872 9.30404 31.1476C9.53841 30.9132 9.8457 30.7935 10.2207 30.7935C10.5801 30.7935 10.877 30.9132 11.1165 31.1476C11.3509 31.3872 11.4707 31.6841 11.4707 32.0435C11.4707 32.408 11.3509 32.7049 11.1165 32.9393C10.877 33.1789 10.5801 33.2935 10.2207 33.2935Z" fill="#D72333"/>
<path d="M18.4984 28.7933C18.54 29.1995 18.5609 29.5225 18.5609 29.7725C18.5609 30.1214 18.5452 30.4548 18.5192 30.7725C18.4775 31.5954 18.1859 32.2308 17.6442 32.6891C17.113 33.137 16.3994 33.3558 15.4984 33.3558C14.665 33.3558 13.9827 33.1475 13.4567 32.7308C12.9411 32.3037 12.6338 31.6683 12.54 30.835L12.4775 30.3975C12.4775 30.2725 12.54 30.21 12.665 30.21H14.5192C14.6442 30.21 14.7119 30.2725 14.7275 30.3975C14.7275 30.4704 14.738 30.5537 14.7692 30.6475C14.863 31.1787 15.1077 31.4391 15.4984 31.4391C15.7171 31.4391 15.8942 31.3714 16.0192 31.2308C16.1546 31.0954 16.2484 30.8923 16.29 30.6266C16.3161 30.3662 16.3317 30.0798 16.3317 29.7725C16.3317 29.5537 16.3109 29.2829 16.2692 28.96C16.2275 28.71 16.1338 28.5225 15.9984 28.3975C15.8734 28.2725 15.7067 28.21 15.4984 28.21C15.1077 28.21 14.8525 28.3975 14.7275 28.7725C14.6963 28.887 14.6286 28.9391 14.5192 28.9391H12.665C12.6077 28.9391 12.5609 28.9287 12.5192 28.8975C12.488 28.8558 12.4775 28.8089 12.4775 28.7516V22.335C12.4775 22.2829 12.488 22.2412 12.5192 22.21C12.5609 22.1683 12.6077 22.1475 12.665 22.1475H18.2484C18.3005 22.1475 18.3421 22.1683 18.3734 22.21C18.415 22.2412 18.4359 22.2829 18.4359 22.335V23.8766C18.4359 23.9339 18.415 23.9808 18.3734 24.0225C18.3421 24.0537 18.3005 24.0641 18.2484 24.0641H14.79C14.7327 24.0641 14.7067 24.0954 14.7067 24.1475V26.7933C14.7067 26.835 14.7119 26.8662 14.7275 26.8766C14.7536 26.8766 14.7744 26.8662 14.79 26.835C14.9671 26.6579 15.1755 26.5173 15.415 26.4183C15.665 26.3245 15.9255 26.2725 16.2067 26.2725C16.8838 26.2725 17.4255 26.4964 17.8317 26.9391C18.2327 27.387 18.4567 28.0016 18.4984 28.7933Z" fill="#D72333"/>
<mask id="mask3_25_20188" style="mask-type:luminance" maskUnits="userSpaceOnUse" x="18" y="21" width="9" height="14">
<path d="M18.6665 21.3335H26.4738V34.6668H18.6665V21.3335Z" fill="white"/>
</mask>
<g mask="url(#mask3_25_20188)">
<path d="M22.505 33.3976C21.5728 33.3976 20.8228 33.106 20.255 32.5226C19.6821 31.9393 19.4009 31.1685 19.4009 30.2101V25.1685C19.4009 24.2101 19.6821 23.4393 20.255 22.856C20.8228 22.2726 21.5728 21.981 22.505 21.981C23.1144 21.981 23.6561 22.1164 24.13 22.3768C24.5988 22.6424 24.9634 23.0174 25.2134 23.5018C25.4738 23.9914 25.6092 24.5435 25.6092 25.1685V30.2101C25.6092 30.8351 25.4738 31.3924 25.2134 31.8768C24.9634 32.3664 24.5988 32.7414 24.13 33.0018C23.6561 33.2622 23.1144 33.3976 22.505 33.3976ZM22.505 31.481C22.7655 31.481 22.9738 31.3768 23.13 31.1685C23.2967 30.9601 23.38 30.6841 23.38 30.3351V25.0435C23.38 24.6997 23.2967 24.4185 23.13 24.2101C22.9738 24.0018 22.7655 23.8976 22.505 23.8976C22.2394 23.8976 22.0259 24.0018 21.8592 24.2101C21.703 24.4185 21.63 24.6997 21.63 25.0435V30.3351C21.63 30.6841 21.703 30.9601 21.8592 31.1685C22.0259 31.3768 22.2394 31.481 22.505 31.481Z" fill="#D72333"/>
</g>
</g>
</svg>
