<svg width="7" height="12" viewBox="0 0 7 12" fill="none" xmlns="http://www.w3.org/2000/svg">
<path d="M0.1875 11.1042C0.130208 11.1042 0.0833333 11.0938 0.0416667 11.0625C0.010416 11.0208 0 10.974 0 10.9167V0.1875C0 0.135417 0.010416 0.0937507 0.0416667 0.0625C0.0833333 0.0208333 0.130208 0 0.1875 0H3.0625C4.02083 0 4.79167 0.281249 5.375 0.833333C5.95833 1.39063 6.25 2.13542 6.25 3.0625V8.02083C6.25 8.95313 5.95833 9.70313 5.375 10.2708C4.79167 10.8281 4.02083 11.1042 3.0625 11.1042H0.1875ZM2.22917 9.10417C2.22917 9.16146 2.25521 9.1875 2.3125 9.1875L3.02083 9.16667C3.3125 9.15625 3.54687 9.03646 3.72917 8.8125C3.90625 8.57813 4 8.26563 4 7.875V3.20833C4 2.80729 3.90625 2.49479 3.72917 2.27083C3.54687 2.03646 3.30208 1.91667 3 1.91667H2.3125C2.25521 1.91667 2.22917 1.94792 2.22917 2V9.10417Z" fill="#D72333"/>
</svg>
