<svg width="6" height="8" viewBox="0 0 6 8" fill="none" xmlns="http://www.w3.org/2000/svg">
<path d="M2.125 7.9375C2.04167 7.9375 1.98437 7.89063 1.95833 7.79167L0.0208333 0.166667L0 0.104167C0 0.0364587 0.0468747 0 0.145833 0H1.0625C1.14583 0 1.19792 0.052084 1.22917 0.145833L2.58333 6.08333C2.58333 6.11458 2.58854 6.125 2.60417 6.125C2.61458 6.125 2.63021 6.11458 2.64583 6.08333L3.97917 0.145833C3.98958 0.052084 4.04688 0 4.14583 0L5.0625 0.0208333C5.10417 0.0208333 5.13542 0.0364587 5.16667 0.0625C5.19271 0.0937507 5.19792 0.135417 5.1875 0.1875L3.25 7.79167C3.23437 7.89063 3.17708 7.9375 3.08333 7.9375H2.125Z" fill="#D72333"/>
</svg>
