<svg width="5" height="11" viewBox="0 0 5 11" fill="none" xmlns="http://www.w3.org/2000/svg">
<path d="M2.4375 10.4792C1.71354 10.4792 1.125 10.2448 0.666667 9.77083C0.218751 9.28646 0 8.65625 0 7.875V7.54167C0 7.44792 0.052084 7.39583 0.166667 7.39583H0.875C0.968751 7.39583 1.02083 7.44792 1.02083 7.54167V7.83333C1.02083 8.34896 1.15104 8.76563 1.41667 9.08333C1.67708 9.40625 2.02083 9.5625 2.4375 9.5625C2.83854 9.5625 3.17708 9.41667 3.45833 9.125C3.73437 8.82292 3.875 8.41667 3.875 7.91667C3.875 7.58333 3.80208 7.30208 3.66667 7.0625C3.54167 6.82813 3.375 6.61979 3.16667 6.4375C2.95833 6.26042 2.60937 5.97917 2.125 5.60417C1.625 5.24479 1.23437 4.9375 0.958333 4.6875C0.677084 4.42708 0.447916 4.11458 0.270833 3.75C0.0885413 3.39063 0 2.96875 0 2.47917C0 1.71875 0.213541 1.11458 0.645833 0.666667C1.08854 0.223959 1.66667 0 2.375 0C3.10937 0 3.69792 0.244792 4.14583 0.729167C4.58854 1.20313 4.8125 1.84375 4.8125 2.64583V3.02083C4.8125 3.11979 4.76042 3.16667 4.66667 3.16667H3.9375C3.83854 3.16667 3.79167 3.11979 3.79167 3.02083V2.625C3.79167 2.11458 3.65625 1.70313 3.39583 1.39583C3.13021 1.07813 2.79167 0.916667 2.375 0.916667C1.96875 0.916667 1.64583 1.05729 1.39583 1.33333C1.14583 1.61458 1.02083 2 1.02083 2.5C1.02083 2.80729 1.07292 3.07813 1.1875 3.3125C1.29687 3.53646 1.46354 3.75 1.6875 3.95833C1.90625 4.15625 2.23958 4.41667 2.6875 4.75C3.27083 5.18229 3.69792 5.53646 3.97917 5.8125C4.27083 6.07813 4.48958 6.36979 4.64583 6.6875C4.8125 6.99479 4.89583 7.375 4.89583 7.83333C4.89583 8.625 4.66667 9.26563 4.20833 9.75C3.75 10.2396 3.15625 10.4792 2.4375 10.4792Z" fill="#D72333"/>
</svg>
