<svg width="4" height="11" viewBox="0 0 4 11" fill="none" xmlns="http://www.w3.org/2000/svg">
<path d="M1.33333 0.0416667C1.41667 0.0156253 1.48958 0 1.5625 0H3.33333C3.375 0 3.40625 0.0208333 3.4375 0.0625C3.47917 0.0937507 3.5 0.125 3.5 0.166667V10.0625C3.5 10.1042 3.47917 10.1458 3.4375 10.1875C3.40625 10.2188 3.375 10.2292 3.33333 10.2292H1.625C1.56771 10.2292 1.52083 10.2188 1.47917 10.1875C1.44792 10.1458 1.4375 10.1042 1.4375 10.0625V2.0625C1.4375 2.02083 1.41667 2 1.375 2L0.25 2.14583H0.208333C0.0937493 2.14583 0.0416667 2.09375 0.0416667 1.97917L0 0.729167C0 0.635417 0.0468747 0.5625 0.145833 0.520833L1.33333 0.0416667Z" fill="#D72333"/>
</svg>
