<svg width="6" height="11" viewBox="0 0 6 11" fill="none" xmlns="http://www.w3.org/2000/svg">
<path d="M0.166667 10.9792C0.0520827 10.9792 0 10.9271 0 10.8125V0.145833C0 0.052084 0.0520827 0 0.166667 0H0.958333C1.06771 0 1.125 0.052084 1.125 0.145833V5.22917C1.125 5.27083 1.13021 5.30208 1.14583 5.3125C1.17187 5.3125 1.1875 5.30208 1.1875 5.27083L4.22917 0.104167C4.28125 0.0364587 4.34375 0 4.41667 0H5.29167C5.34375 0 5.38542 0.0208333 5.41667 0.0625C5.44271 0.0937507 5.4375 0.135417 5.39583 0.1875L2.95833 4.4375C2.92708 4.47917 2.92187 4.51563 2.9375 4.54167L5.64583 10.7917V10.8542C5.64583 10.9375 5.60417 10.9792 5.52083 10.9792H4.625C4.54167 10.9792 4.47917 10.9375 4.4375 10.8542L2.1875 5.52083C2.17187 5.47917 2.14583 5.47917 2.10417 5.52083L1.125 7.02083C1.125 7.03646 1.125 7.0625 1.125 7.10417V10.8125C1.125 10.9271 1.06771 10.9792 0.958333 10.9792H0.166667Z" fill="#D72333"/>
</svg>
