<svg width="6" height="11" viewBox="0 0 6 11" fill="none" xmlns="http://www.w3.org/2000/svg">
<path d="M5.35417 1.58333C5.35417 1.64063 5.33333 1.6875 5.29167 1.72917C5.26042 1.76042 5.21875 1.77083 5.16667 1.77083H2.125C2.08333 1.77083 2.0625 1.79167 2.0625 1.83333V4.14583C2.0625 4.1875 2.08333 4.20833 2.125 4.20833H3.875C3.91667 4.20833 3.94792 4.22917 3.97917 4.27083C4.02083 4.30208 4.04167 4.34375 4.04167 4.39583V5.8125C4.04167 5.86979 4.02083 5.91146 3.97917 5.9375C3.94792 5.96875 3.91667 5.97917 3.875 5.97917H2.125C2.08333 5.97917 2.0625 6.01042 2.0625 6.0625V10.0625C2.0625 10.1042 2.04167 10.1458 2 10.1875C1.96875 10.2188 1.92708 10.2292 1.875 10.2292H0.166667C0.125 10.2292 0.0833333 10.2188 0.0416667 10.1875C0.0104173 10.1458 0 10.1042 0 10.0625V0.166667C0 0.125 0.0104173 0.0937507 0.0416667 0.0625C0.0833333 0.0208333 0.125 0 0.166667 0H5.16667C5.21875 0 5.26042 0.0208333 5.29167 0.0625C5.33333 0.0937507 5.35417 0.125 5.35417 0.166667V1.58333Z" fill="#D72333"/>
</svg>
