<svg width="6" height="11" viewBox="0 0 6 11" fill="none" xmlns="http://www.w3.org/2000/svg">
<path d="M2.02083 10.7708C1.38021 10.7708 0.880208 10.599 0.520833 10.25C0.171875 9.89063 0 9.41667 0 8.83333C0 8.66667 0.005208 8.55208 0.0208333 8.47917L0.416667 5.25C0.484375 4.57292 0.755208 4.01563 1.22917 3.58333C1.69792 3.15625 2.28125 2.9375 2.97917 2.9375C3.61458 2.9375 4.11458 3.11979 4.47917 3.47917C4.83854 3.82813 5.02083 4.30208 5.02083 4.89583C5.02083 5.05208 5.01042 5.16667 5 5.25L4.58333 8.47917C4.51042 9.16146 4.23958 9.71875 3.77083 10.1458C3.29687 10.5625 2.71354 10.7708 2.02083 10.7708ZM2.125 9.8125C2.51042 9.8125 2.83854 9.6875 3.10417 9.4375C3.36458 9.17708 3.52083 8.82813 3.5625 8.39583L3.9375 5.3125C3.94792 5.24479 3.95833 5.16146 3.95833 5.0625C3.95833 4.70313 3.85417 4.41667 3.64583 4.20833C3.44792 3.98958 3.19271 3.875 2.875 3.875C2.5 3.875 2.17708 4.01042 1.91667 4.27083C1.65104 4.53646 1.48958 4.88542 1.4375 5.3125L1.0625 8.39583C1.04687 8.45313 1.04167 8.53646 1.04167 8.64583C1.04167 8.99479 1.13542 9.28125 1.33333 9.5C1.54167 9.70833 1.80208 9.8125 2.125 9.8125ZM4.22917 1.66667C4.02083 1.66667 3.84375 1.60417 3.70833 1.47917C3.58333 1.34375 3.52083 1.16667 3.52083 0.958333C3.52083 0.682292 3.60937 0.453125 3.79167 0.270833C3.96875 0.0937507 4.1875 0 4.4375 0C4.65625 0 4.83333 0.072916 4.95833 0.208333C5.09375 0.333333 5.16667 0.5 5.16667 0.708333C5.16667 0.989583 5.07292 1.21875 4.89583 1.39583C4.71354 1.57813 4.48958 1.66667 4.22917 1.66667ZM2.02083 1.66667C1.8125 1.66667 1.63542 1.60417 1.5 1.47917C1.375 1.34375 1.3125 1.16667 1.3125 0.958333C1.3125 0.682292 1.40104 0.453125 1.58333 0.270833C1.76042 0.0937507 1.97917 0 2.22917 0C2.44792 0 2.625 0.072916 2.75 0.208333C2.88542 0.333333 2.95833 0.5 2.95833 0.708333C2.95833 0.989583 2.86458 1.21875 2.6875 1.39583C2.50521 1.57813 2.28125 1.66667 2.02083 1.66667Z" fill="#D51224"/>
</svg>
