<svg width="6" height="9" viewBox="0 0 6 9" fill="none" xmlns="http://www.w3.org/2000/svg">
<path d="M2.10417 8.1875C1.4375 8.1875 0.916667 8.01042 0.541667 7.64583C0.177084 7.27083 0 6.78125 0 6.16667C0 6 0 5.875 0 5.79167L0.416667 2.41667C0.5 1.70833 0.781249 1.13542 1.27083 0.6875C1.77083 0.229167 2.38021 0 3.10417 0C3.77083 0 4.29167 0.1875 4.66667 0.5625C5.04167 0.927084 5.22917 1.41667 5.22917 2.04167C5.22917 2.20833 5.21875 2.33333 5.20833 2.41667L4.79167 5.79167C4.70833 6.51563 4.41667 7.09896 3.91667 7.54167C3.42708 7.97396 2.82292 8.1875 2.10417 8.1875ZM2.22917 7.20833C2.61458 7.20833 2.94792 7.07292 3.22917 6.79167C3.50521 6.51563 3.67187 6.15625 3.72917 5.70833L4.125 2.47917C4.125 2.41146 4.125 2.32813 4.125 2.22917C4.125 1.85417 4.02083 1.55729 3.8125 1.33333C3.60417 1.09896 3.32292 0.979167 2.97917 0.979167C2.60417 0.979167 2.27604 1.11979 2 1.39583C1.71875 1.67708 1.55208 2.03646 1.5 2.47917L1.08333 5.70833C1.08333 5.78125 1.08333 5.86458 1.08333 5.95833C1.08333 6.33333 1.1875 6.64063 1.39583 6.875C1.60417 7.09896 1.88021 7.20833 2.22917 7.20833Z" fill="#D72333"/>
</svg>
