<svg width="7" height="13" viewBox="0 0 7 13" fill="none" xmlns="http://www.w3.org/2000/svg">
<path d="M5.33333 0.125C5.375 0.0416667 5.44271 0 5.54167 0H6.45833C6.56771 0 6.625 0.0625 6.625 0.1875V12C6.625 12.1146 6.56771 12.1667 6.45833 12.1667H5.5625C5.44792 12.1667 5.39583 12.1146 5.39583 12V2.6875C5.39583 2.64583 5.38021 2.625 5.35417 2.625C5.33854 2.625 5.32292 2.64063 5.3125 2.66667L3.5 6.41667C3.46875 6.5 3.41667 6.54167 3.33333 6.54167C3.23437 6.54167 3.16667 6.5 3.125 6.41667L1.33333 2.6875C1.30208 2.66146 1.28125 2.64583 1.27083 2.64583C1.25521 2.64583 1.25 2.66146 1.25 2.6875V12C1.25 12.1146 1.1875 12.1667 1.0625 12.1667H0.1875C0.0625 12.1667 0 12.1146 0 12V0.1875C0 0.0625 0.0625 0 0.1875 0H1.08333C1.19271 0 1.26042 0.0416667 1.29167 0.125L3.27083 4.14583C3.28125 4.16146 3.29687 4.16667 3.3125 4.16667C3.33854 4.16667 3.35937 4.16146 3.375 4.14583L5.33333 0.125Z" fill="#D72333"/>
</svg>
