<svg width="18" height="20" viewBox="0 0 18 20" fill="none" xmlns="http://www.w3.org/2000/svg">
<path d="M11.875 12.7708C12.2188 11.8854 12.3958 11.0313 12.3958 10.2083C12.3958 9.94792 12.2292 9.79167 11.8958 9.75L11 9.6875V7.52083H16.8958V9.77083L15.375 9.83333C15.375 11.625 14.9792 13.2656 14.1875 14.75C15.0312 15.4583 16.2083 16.3542 17.7083 17.4375L15.875 19.875C14.75 19.125 13.5729 18.25 12.3542 17.25C10.9792 18.625 9.11458 19.3125 6.77083 19.3125C4.42188 19.3125 2.70833 18.7656 1.625 17.6667C0.541667 16.5729 0 15.2292 0 13.6458C0 11.1875 1.13542 9.25 3.41667 7.83333C2.83333 6.875 2.54167 5.84896 2.54167 4.75C2.54167 3.33333 3.01042 2.1875 3.95833 1.3125C4.91667 0.4375 6.25521 0 7.97917 0C9.69792 0 11.3802 0.385416 13.0208 1.14583V5.375L10.1667 5.5625V3.85417C10.1667 3.34375 9.96875 3.01563 9.58333 2.875C9.08333 2.73958 8.58854 2.66667 8.10417 2.66667C6.58854 2.66667 5.83333 3.38542 5.83333 4.8125C5.83333 6.71875 7.84375 9.36979 11.875 12.7708ZM10 15.2917C7.76042 13.3906 6.07292 11.6771 4.9375 10.1458C3.8125 10.9531 3.25 12.0417 3.25 13.4167C3.25 14.3646 3.54167 15.1354 4.125 15.7292C4.70833 16.3125 5.63542 16.6042 6.91667 16.6042C8.19271 16.6042 9.21875 16.1667 10 15.2917Z" fill="#D72333"/>
</svg>
