<svg width="31" height="242" viewBox="0 0 31 242" fill="none" xmlns="http://www.w3.org/2000/svg">
<mask id="mask0_25_14724" style="mask-type:luminance" maskUnits="userSpaceOnUse" x="0" y="0" width="31" height="242">
<path d="M30.6667 0H0V241.333H30.6667V0Z" fill="white"/>
</mask>
<g mask="url(#mask0_25_14724)">
<path d="M4.17464 15.2899C3.43506 15.2899 2.84131 15.0555 2.38298 14.5815C1.93506 14.0972 1.71631 13.4565 1.71631 12.6649V7.37321C1.71631 6.59717 1.93506 5.97217 2.38298 5.49821C2.84131 5.01383 3.43506 4.76904 4.17464 4.76904C4.92464 4.76904 5.52881 5.01383 5.98714 5.49821C6.44548 5.97217 6.67464 6.59717 6.67464 7.37321V12.6649C6.67464 13.4565 6.44548 14.0972 5.98714 14.5815C5.52881 15.0555 4.92464 15.2899 4.17464 15.2899ZM4.17464 14.3732C4.61735 14.3732 4.97152 14.2274 5.23714 13.9357C5.49756 13.6336 5.63298 13.2274 5.63298 12.7274V7.31071C5.63298 6.82633 5.49756 6.4305 5.23714 6.12321C4.97152 5.82113 4.61735 5.66488 4.17464 5.66488C3.74235 5.66488 3.39339 5.82113 3.13298 6.12321C2.86735 6.4305 2.73714 6.82633 2.73714 7.31071V12.7274C2.73714 13.2274 2.86735 13.6336 3.13298 13.9357C3.39339 14.2274 3.74235 14.3732 4.17464 14.3732Z" fill="#D72333"/>
<path d="M8.8374 15.1025C8.5874 15.1025 8.38428 15.0296 8.23324 14.8734C8.09261 14.7223 8.0249 14.5296 8.0249 14.29C8.0249 14.04 8.09261 13.8473 8.23324 13.7067C8.38428 13.5557 8.5874 13.4775 8.8374 13.4775C9.07178 13.4775 9.26449 13.5557 9.42074 13.7067C9.57178 13.8473 9.6499 14.04 9.6499 14.29C9.6499 14.5296 9.57178 14.7223 9.42074 14.8734C9.26449 15.0296 9.07178 15.1025 8.8374 15.1025Z" fill="#D72333"/>
<path d="M11.9714 4.95671C12.0234 4.93066 12.0859 4.91504 12.1589 4.91504H12.9505C13.0443 4.91504 13.0964 4.96712 13.0964 5.06087V14.9984C13.0964 15.0973 13.0443 15.1442 12.9505 15.1442H12.2005C12.1016 15.1442 12.0547 15.0973 12.0547 14.9984V6.14421C12.0547 6.11816 12.0443 6.10254 12.0339 6.10254C12.0182 6.09212 12.0026 6.08171 11.9922 6.08171L10.6172 6.54004L10.5755 6.56087C10.5026 6.56087 10.4609 6.51921 10.4505 6.43587L10.3672 5.89421V5.85254C10.3672 5.81087 10.3984 5.764 10.4714 5.70671L11.9714 4.95671Z" fill="#D72333"/>
<path d="M15.8001 14.165C15.8001 14.1807 15.8001 14.1963 15.8001 14.2067C15.8105 14.2223 15.8314 14.2275 15.8626 14.2275H19.3001C19.3939 14.2275 19.446 14.2796 19.446 14.3734V14.9984C19.446 15.0973 19.3939 15.1442 19.3001 15.1442H14.696C14.597 15.1442 14.5501 15.0973 14.5501 14.9984V14.3317C14.5501 14.264 14.571 14.2015 14.6126 14.1442C14.9147 13.6755 15.0814 13.4046 15.1126 13.3317C15.972 11.9723 16.6543 10.8682 17.1543 10.0192C17.7793 8.9515 18.0918 8.07129 18.0918 7.37337C18.0918 6.86296 17.972 6.45671 17.7376 6.16504C17.498 5.86296 17.196 5.70671 16.821 5.70671C16.446 5.70671 16.1387 5.85254 15.9043 6.14421C15.6803 6.43587 15.5762 6.8265 15.5918 7.31087V7.87337C15.5918 7.97233 15.5397 8.01921 15.446 8.01921H14.6751C14.5762 8.01921 14.5293 7.97233 14.5293 7.87337V7.29004C14.5553 6.54004 14.7793 5.93587 15.196 5.47754C15.623 5.01921 16.1803 4.79004 16.8626 4.79004C17.5397 4.79004 18.0918 5.02962 18.5085 5.49837C18.9355 5.97233 19.1543 6.59733 19.1543 7.37337C19.1543 8.29004 18.8053 9.32129 18.1126 10.4567C17.748 11.0557 17.2585 11.8525 16.6335 12.8525L15.8001 14.165Z" fill="#D72333"/>
<path d="M25.14 10.6234C25.2337 10.988 25.2858 11.4515 25.2858 12.0192C25.2858 12.4671 25.2546 12.8734 25.2025 13.2484C25.1035 13.9046 24.8587 14.4046 24.4733 14.7484C24.0827 15.0973 23.5775 15.2692 22.9525 15.2692C22.3118 15.2692 21.7962 15.0973 21.4108 14.7484C21.0358 14.4046 20.791 13.889 20.6816 13.2067L20.64 12.7692V12.7484C20.64 12.665 20.6816 12.6234 20.765 12.6234H21.515C21.6087 12.6234 21.666 12.6755 21.6816 12.7692L21.7233 13.1234C21.8743 13.9463 22.2858 14.3525 22.9525 14.3525C23.2546 14.3525 23.515 14.2588 23.7233 14.0609C23.9316 13.8525 24.0671 13.5609 24.14 13.1859C24.2077 12.8682 24.2441 12.4775 24.2441 12.0192C24.2441 11.5348 24.2025 11.113 24.1191 10.7484C23.9368 10.0713 23.5462 9.72754 22.9525 9.72754C22.2702 9.72754 21.8483 10.0713 21.6816 10.7484C21.6504 10.8317 21.6035 10.8734 21.5358 10.8734H20.765C20.666 10.8734 20.6191 10.8265 20.6191 10.7275V5.06087C20.6191 4.96712 20.666 4.91504 20.765 4.91504H24.9108C25.0046 4.91504 25.0566 4.96712 25.0566 5.06087V5.66504C25.0566 5.764 25.0046 5.81087 24.9108 5.81087H21.7233C21.6816 5.81087 21.6608 5.83171 21.6608 5.87337L21.64 9.49837C21.64 9.514 21.6452 9.52962 21.6608 9.54004C21.6712 9.55566 21.6921 9.55046 21.7233 9.51921C21.8743 9.30046 22.0775 9.12337 22.3275 8.99837C22.5879 8.87337 22.8796 8.81087 23.2025 8.81087C23.7285 8.81087 24.1504 8.97233 24.4733 9.29004C24.8066 9.59733 25.0254 10.04 25.14 10.6234Z" fill="#D72333"/>
<path d="M26.7909 15.1442C26.6919 15.1442 26.645 15.0973 26.645 14.9984V5.06087C26.645 4.96712 26.6919 4.91504 26.7909 4.91504H27.52C27.6138 4.91504 27.6659 4.96712 27.6659 5.06087V14.9984C27.6659 15.0973 27.6138 15.1442 27.52 15.1442H26.7909Z" fill="#D72333"/>
<path d="M4.17464 31.2508C3.43506 31.2508 2.84131 31.0164 2.38298 30.5425C1.93506 30.0581 1.71631 29.4175 1.71631 28.6258V23.3341C1.71631 22.5581 1.93506 21.9331 2.38298 21.4591C2.84131 20.9748 3.43506 20.73 4.17464 20.73C4.92464 20.73 5.52881 20.9748 5.98714 21.4591C6.44548 21.9331 6.67464 22.5581 6.67464 23.3341V28.6258C6.67464 29.4175 6.44548 30.0581 5.98714 30.5425C5.52881 31.0164 4.92464 31.2508 4.17464 31.2508ZM4.17464 30.3341C4.61735 30.3341 4.97152 30.1883 5.23714 29.8966C5.49756 29.5946 5.63298 29.1883 5.63298 28.6883V23.2716C5.63298 22.7873 5.49756 22.3914 5.23714 22.0841C4.97152 21.7821 4.61735 21.6258 4.17464 21.6258C3.74235 21.6258 3.39339 21.7821 3.13298 22.0841C2.86735 22.3914 2.73714 22.7873 2.73714 23.2716V28.6883C2.73714 29.1883 2.86735 29.5946 3.13298 29.8966C3.39339 30.1883 3.74235 30.3341 4.17464 30.3341Z" fill="#D72333"/>
<path d="M8.8374 31.063C8.5874 31.063 8.38428 30.9901 8.23324 30.8338C8.09261 30.6828 8.0249 30.4901 8.0249 30.2505C8.0249 30.0005 8.09261 29.8078 8.23324 29.6672C8.38428 29.5161 8.5874 29.438 8.8374 29.438C9.07178 29.438 9.26449 29.5161 9.42074 29.6672C9.57178 29.8078 9.6499 30.0005 9.6499 30.2505C9.6499 30.4901 9.57178 30.6828 9.42074 30.8338C9.26449 30.9901 9.07178 31.063 8.8374 31.063Z" fill="#D72333"/>
<path d="M11.8464 31.1047C11.7891 31.1047 11.7474 31.0942 11.7214 31.063C11.7057 31.0369 11.7057 30.9953 11.7214 30.938L14.2214 21.8338C14.2214 21.8234 14.2109 21.8078 14.2005 21.7922C14.1849 21.7817 14.1693 21.7713 14.1589 21.7713H11.4714C11.4401 21.7713 11.4297 21.7922 11.4297 21.8338V22.438C11.4297 22.5369 11.3776 22.5838 11.2839 22.5838H10.7005C10.6016 22.5838 10.5547 22.5369 10.5547 22.438V21.0213C10.5547 20.9276 10.6016 20.8755 10.7005 20.8755H15.1797C15.2734 20.8755 15.3255 20.9276 15.3255 21.0213V21.688C15.3255 21.7036 15.3151 21.7609 15.3047 21.8547L12.8047 30.9797C12.7891 31.063 12.7422 31.1047 12.6589 31.1047H11.8464Z" fill="#D72333"/>
<path d="M20.868 26.5838C20.9618 26.9484 21.0138 27.4119 21.0138 27.9797C21.0138 28.4276 20.9826 28.8338 20.9305 29.2088C20.8315 29.8651 20.5868 30.3651 20.2013 30.7088C19.8107 31.0578 19.3055 31.2297 18.6805 31.2297C18.0399 31.2297 17.5243 31.0578 17.1388 30.7088C16.7638 30.3651 16.519 29.8494 16.4097 29.1672L16.368 28.7297V28.7088C16.368 28.6255 16.4097 28.5838 16.493 28.5838H17.243C17.3368 28.5838 17.394 28.6359 17.4097 28.7297L17.4513 29.0838C17.6024 29.9067 18.0138 30.313 18.6805 30.313C18.9826 30.313 19.243 30.2192 19.4513 30.0213C19.6597 29.813 19.7951 29.5213 19.868 29.1463C19.9357 28.8286 19.9722 28.438 19.9722 27.9797C19.9722 27.4953 19.9305 27.0734 19.8472 26.7088C19.6649 26.0317 19.2743 25.688 18.6805 25.688C17.9982 25.688 17.5763 26.0317 17.4097 26.7088C17.3784 26.7922 17.3315 26.8338 17.2638 26.8338H16.493C16.394 26.8338 16.3472 26.7869 16.3472 26.688V21.0213C16.3472 20.9276 16.394 20.8755 16.493 20.8755H20.6388C20.7326 20.8755 20.7847 20.9276 20.7847 21.0213V21.6255C20.7847 21.7244 20.7326 21.7713 20.6388 21.7713H17.4513C17.4097 21.7713 17.3888 21.7922 17.3888 21.8338L17.368 25.4588C17.368 25.4744 17.3732 25.4901 17.3888 25.5005C17.3993 25.5161 17.4201 25.5109 17.4513 25.4797C17.6024 25.2609 17.8055 25.0838 18.0555 24.9588C18.3159 24.8338 18.6076 24.7713 18.9305 24.7713C19.4565 24.7713 19.8784 24.9328 20.2013 25.2505C20.5347 25.5578 20.7534 26.0005 20.868 26.5838Z" fill="#D72333"/>
<path d="M22.5184 31.1047C22.4194 31.1047 22.3726 31.0578 22.3726 30.9588V21.0213C22.3726 20.9276 22.4194 20.8755 22.5184 20.8755H23.2476C23.3413 20.8755 23.3934 20.9276 23.3934 21.0213V30.9588C23.3934 31.0578 23.3413 31.1047 23.2476 31.1047H22.5184Z" fill="#D72333"/>
<path d="M4.17464 74.6995C3.43506 74.6995 2.84131 74.4652 2.38298 73.9912C1.93506 73.5068 1.71631 72.8662 1.71631 72.0745V66.7829C1.71631 66.0068 1.93506 65.3818 2.38298 64.9079C2.84131 64.4235 3.43506 64.1787 4.17464 64.1787C4.92464 64.1787 5.52881 64.4235 5.98714 64.9079C6.44548 65.3818 6.67464 66.0068 6.67464 66.7829V72.0745C6.67464 72.8662 6.44548 73.5068 5.98714 73.9912C5.52881 74.4652 4.92464 74.6995 4.17464 74.6995ZM4.17464 73.7829C4.61735 73.7829 4.97152 73.637 5.23714 73.3454C5.49756 73.0433 5.63298 72.637 5.63298 72.137V66.7204C5.63298 66.236 5.49756 65.8402 5.23714 65.5329C4.97152 65.2308 4.61735 65.0745 4.17464 65.0745C3.74235 65.0745 3.39339 65.2308 3.13298 65.5329C2.86735 65.8402 2.73714 66.236 2.73714 66.7204V72.137C2.73714 72.637 2.86735 73.0433 3.13298 73.3454C3.39339 73.637 3.74235 73.7829 4.17464 73.7829Z" fill="#D72333"/>
<path d="M8.8374 74.5122C8.5874 74.5122 8.38428 74.4393 8.23324 74.283C8.09261 74.132 8.0249 73.9393 8.0249 73.6997C8.0249 73.4497 8.09261 73.257 8.23324 73.1164C8.38428 72.9653 8.5874 72.8872 8.8374 72.8872C9.07178 72.8872 9.26449 72.9653 9.42074 73.1164C9.57178 73.257 9.6499 73.4497 9.6499 73.6997C9.6499 73.9393 9.57178 74.132 9.42074 74.283C9.26449 74.4393 9.07178 74.5122 8.8374 74.5122Z" fill="#D72333"/>
<path d="M12.0545 73.5747C12.0545 73.5903 12.0545 73.606 12.0545 73.6164C12.0649 73.632 12.0858 73.6372 12.117 73.6372H15.5545C15.6483 73.6372 15.7004 73.6893 15.7004 73.783V74.408C15.7004 74.507 15.6483 74.5539 15.5545 74.5539H10.9504C10.8514 74.5539 10.8045 74.507 10.8045 74.408V73.7414C10.8045 73.6737 10.8254 73.6112 10.867 73.5539C11.1691 73.0851 11.3358 72.8143 11.367 72.7414C12.2264 71.382 12.9087 70.2778 13.4087 69.4289C14.0337 68.3612 14.3462 67.481 14.3462 66.783C14.3462 66.2726 14.2264 65.8664 13.992 65.5747C13.7524 65.2726 13.4504 65.1164 13.0754 65.1164C12.7004 65.1164 12.3931 65.2622 12.1587 65.5539C11.9347 65.8455 11.8306 66.2362 11.8462 66.7205V67.283C11.8462 67.382 11.7941 67.4289 11.7004 67.4289H10.9295C10.8306 67.4289 10.7837 67.382 10.7837 67.283V66.6997C10.8097 65.9497 11.0337 65.3455 11.4504 64.8872C11.8774 64.4289 12.4347 64.1997 13.117 64.1997C13.7941 64.1997 14.3462 64.4393 14.7629 64.908C15.1899 65.382 15.4087 66.007 15.4087 66.783C15.4087 67.6997 15.0597 68.731 14.367 69.8664C14.0024 70.4653 13.5129 71.2622 12.8879 72.2622L12.0545 73.5747Z" fill="#D72333"/>
<path d="M21.3944 70.033C21.4881 70.3976 21.5402 70.8612 21.5402 71.4289C21.5402 71.8768 21.509 72.283 21.4569 72.658C21.3579 73.3143 21.1131 73.8143 20.7277 74.158C20.3371 74.507 19.8319 74.6789 19.2069 74.6789C18.5662 74.6789 18.0506 74.507 17.6652 74.158C17.2902 73.8143 17.0454 73.2987 16.936 72.6164L16.8944 72.1789V72.158C16.8944 72.0747 16.936 72.033 17.0194 72.033H17.7694C17.8631 72.033 17.9204 72.0851 17.936 72.1789L17.9777 72.533C18.1287 73.356 18.5402 73.7622 19.2069 73.7622C19.509 73.7622 19.7694 73.6685 19.9777 73.4705C20.186 73.2622 20.3215 72.9705 20.3944 72.5955C20.4621 72.2778 20.4985 71.8872 20.4985 71.4289C20.4985 70.9445 20.4569 70.5226 20.3735 70.158C20.1912 69.481 19.8006 69.1372 19.2069 69.1372C18.5246 69.1372 18.1027 69.481 17.936 70.158C17.9048 70.2414 17.8579 70.283 17.7902 70.283H17.0194C16.9204 70.283 16.8735 70.2362 16.8735 70.1372V64.4705C16.8735 64.3768 16.9204 64.3247 17.0194 64.3247H21.1652C21.259 64.3247 21.311 64.3768 21.311 64.4705V65.0747C21.311 65.1737 21.259 65.2205 21.1652 65.2205H17.9777C17.936 65.2205 17.9152 65.2414 17.9152 65.283L17.8944 68.908C17.8944 68.9237 17.8996 68.9393 17.9152 68.9497C17.9256 68.9653 17.9465 68.9601 17.9777 68.9289C18.1287 68.7101 18.3319 68.533 18.5819 68.408C18.8423 68.283 19.134 68.2205 19.4569 68.2205C19.9829 68.2205 20.4048 68.382 20.7277 68.6997C21.061 69.007 21.2798 69.4497 21.3944 70.033Z" fill="#D72333"/>
<path d="M23.0452 74.5539C22.9463 74.5539 22.8994 74.507 22.8994 74.408V64.4705C22.8994 64.3768 22.9463 64.3247 23.0452 64.3247H23.7744C23.8682 64.3247 23.9202 64.3768 23.9202 64.4705V74.408C23.9202 74.507 23.8682 74.5539 23.7744 74.5539H23.0452Z" fill="#D72333"/>
<path d="M4.17464 118.148C3.43506 118.148 2.84131 117.914 2.38298 117.44C1.93506 116.956 1.71631 116.315 1.71631 115.523V110.232C1.71631 109.456 1.93506 108.831 2.38298 108.357C2.84131 107.872 3.43506 107.627 4.17464 107.627C4.92464 107.627 5.52881 107.872 5.98714 108.357C6.44548 108.831 6.67464 109.456 6.67464 110.232V115.523C6.67464 116.315 6.44548 116.956 5.98714 117.44C5.52881 117.914 4.92464 118.148 4.17464 118.148ZM4.17464 117.232C4.61735 117.232 4.97152 117.086 5.23714 116.794C5.49756 116.492 5.63298 116.086 5.63298 115.586V110.169C5.63298 109.685 5.49756 109.289 5.23714 108.982C4.97152 108.68 4.61735 108.523 4.17464 108.523C3.74235 108.523 3.39339 108.68 3.13298 108.982C2.86735 109.289 2.73714 109.685 2.73714 110.169V115.586C2.73714 116.086 2.86735 116.492 3.13298 116.794C3.39339 117.086 3.74235 117.232 4.17464 117.232Z" fill="#D72333"/>
<path d="M8.8374 117.961C8.5874 117.961 8.38428 117.888 8.23324 117.732C8.09261 117.581 8.0249 117.388 8.0249 117.148C8.0249 116.898 8.09261 116.706 8.23324 116.565C8.38428 116.414 8.5874 116.336 8.8374 116.336C9.07178 116.336 9.26449 116.414 9.42074 116.565C9.57178 116.706 9.6499 116.898 9.6499 117.148C9.6499 117.388 9.57178 117.581 9.42074 117.732C9.26449 117.888 9.07178 117.961 8.8374 117.961Z" fill="#D72333"/>
<path d="M12.0545 117.023C12.0545 117.039 12.0545 117.055 12.0545 117.065C12.0649 117.081 12.0858 117.086 12.117 117.086H15.5545C15.6483 117.086 15.7004 117.138 15.7004 117.232V117.857C15.7004 117.956 15.6483 118.003 15.5545 118.003H10.9504C10.8514 118.003 10.8045 117.956 10.8045 117.857V117.19C10.8045 117.122 10.8254 117.06 10.867 117.003C11.1691 116.534 11.3358 116.263 11.367 116.19C12.2264 114.831 12.9087 113.727 13.4087 112.878C14.0337 111.81 14.3462 110.93 14.3462 110.232C14.3462 109.721 14.2264 109.315 13.992 109.023C13.7524 108.721 13.4504 108.565 13.0754 108.565C12.7004 108.565 12.3931 108.711 12.1587 109.003C11.9347 109.294 11.8306 109.685 11.8462 110.169V110.732C11.8462 110.831 11.7941 110.878 11.7004 110.878H10.9295C10.8306 110.878 10.7837 110.831 10.7837 110.732V110.148C10.8097 109.398 11.0337 108.794 11.4504 108.336C11.8774 107.878 12.4347 107.648 13.117 107.648C13.7941 107.648 14.3462 107.888 14.7629 108.357C15.1899 108.831 15.4087 109.456 15.4087 110.232C15.4087 111.148 15.0597 112.18 14.367 113.315C14.0024 113.914 13.5129 114.711 12.8879 115.711L12.0545 117.023Z" fill="#D72333"/>
<path d="M21.3944 113.482C21.4881 113.846 21.5402 114.31 21.5402 114.878C21.5402 115.326 21.509 115.732 21.4569 116.107C21.3579 116.763 21.1131 117.263 20.7277 117.607C20.3371 117.956 19.8319 118.128 19.2069 118.128C18.5662 118.128 18.0506 117.956 17.6652 117.607C17.2902 117.263 17.0454 116.747 16.936 116.065L16.8944 115.628V115.607C16.8944 115.523 16.936 115.482 17.0194 115.482H17.7694C17.8631 115.482 17.9204 115.534 17.936 115.628L17.9777 115.982C18.1287 116.805 18.5402 117.211 19.2069 117.211C19.509 117.211 19.7694 117.117 19.9777 116.919C20.186 116.711 20.3215 116.419 20.3944 116.044C20.4621 115.727 20.4985 115.336 20.4985 114.878C20.4985 114.393 20.4569 113.971 20.3735 113.607C20.1912 112.93 19.8006 112.586 19.2069 112.586C18.5246 112.586 18.1027 112.93 17.936 113.607C17.9048 113.69 17.8579 113.732 17.7902 113.732H17.0194C16.9204 113.732 16.8735 113.685 16.8735 113.586V107.919C16.8735 107.826 16.9204 107.773 17.0194 107.773H21.1652C21.259 107.773 21.311 107.826 21.311 107.919V108.523C21.311 108.622 21.259 108.669 21.1652 108.669H17.9777C17.936 108.669 17.9152 108.69 17.9152 108.732L17.8944 112.357C17.8944 112.372 17.8996 112.388 17.9152 112.398C17.9256 112.414 17.9465 112.409 17.9777 112.378C18.1287 112.159 18.3319 111.982 18.5819 111.857C18.8423 111.732 19.134 111.669 19.4569 111.669C19.9829 111.669 20.4048 111.831 20.7277 112.148C21.061 112.456 21.2798 112.898 21.3944 113.482Z" fill="#D72333"/>
<path d="M23.0452 118.003C22.9463 118.003 22.8994 117.956 22.8994 117.857V107.919C22.8994 107.826 22.9463 107.773 23.0452 107.773H23.7744C23.8682 107.773 23.9202 107.826 23.9202 107.919V117.857C23.9202 117.956 23.8682 118.003 23.7744 118.003H23.0452Z" fill="#D72333"/>
<path d="M4.17464 161.597C3.43506 161.597 2.84131 161.363 2.38298 160.889C1.93506 160.404 1.71631 159.764 1.71631 158.972V153.68C1.71631 152.904 1.93506 152.279 2.38298 151.805C2.84131 151.321 3.43506 151.076 4.17464 151.076C4.92464 151.076 5.52881 151.321 5.98714 151.805C6.44548 152.279 6.67464 152.904 6.67464 153.68V158.972C6.67464 159.764 6.44548 160.404 5.98714 160.889C5.52881 161.363 4.92464 161.597 4.17464 161.597ZM4.17464 160.68C4.61735 160.68 4.97152 160.535 5.23714 160.243C5.49756 159.941 5.63298 159.535 5.63298 159.035V153.618C5.63298 153.133 5.49756 152.738 5.23714 152.43C4.97152 152.128 4.61735 151.972 4.17464 151.972C3.74235 151.972 3.39339 152.128 3.13298 152.43C2.86735 152.738 2.73714 153.133 2.73714 153.618V159.035C2.73714 159.535 2.86735 159.941 3.13298 160.243C3.39339 160.535 3.74235 160.68 4.17464 160.68Z" fill="#D72333"/>
<path d="M8.8374 161.41C8.5874 161.41 8.38428 161.337 8.23324 161.181C8.09261 161.029 8.0249 160.837 8.0249 160.597C8.0249 160.347 8.09261 160.154 8.23324 160.014C8.38428 159.863 8.5874 159.785 8.8374 159.785C9.07178 159.785 9.26449 159.863 9.42074 160.014C9.57178 160.154 9.6499 160.347 9.6499 160.597C9.6499 160.837 9.57178 161.029 9.42074 161.181C9.26449 161.337 9.07178 161.41 8.8374 161.41Z" fill="#D72333"/>
<path d="M12.0545 160.472C12.0545 160.488 12.0545 160.503 12.0545 160.514C12.0649 160.529 12.0858 160.535 12.117 160.535H15.5545C15.6483 160.535 15.7004 160.587 15.7004 160.681V161.306C15.7004 161.404 15.6483 161.451 15.5545 161.451H10.9504C10.8514 161.451 10.8045 161.404 10.8045 161.306V160.639C10.8045 160.571 10.8254 160.509 10.867 160.451C11.1691 159.983 11.3358 159.712 11.367 159.639C12.2264 158.279 12.9087 157.175 13.4087 156.326C14.0337 155.259 14.3462 154.378 14.3462 153.681C14.3462 153.17 14.2264 152.764 13.992 152.472C13.7524 152.17 13.4504 152.014 13.0754 152.014C12.7004 152.014 12.3931 152.16 12.1587 152.451C11.9347 152.743 11.8306 153.134 11.8462 153.618V154.181C11.8462 154.279 11.7941 154.326 11.7004 154.326H10.9295C10.8306 154.326 10.7837 154.279 10.7837 154.181V153.597C10.8097 152.847 11.0337 152.243 11.4504 151.785C11.8774 151.326 12.4347 151.097 13.117 151.097C13.7941 151.097 14.3462 151.337 14.7629 151.806C15.1899 152.279 15.4087 152.904 15.4087 153.681C15.4087 154.597 15.0597 155.628 14.367 156.764C14.0024 157.363 13.5129 158.16 12.8879 159.16L12.0545 160.472Z" fill="#D72333"/>
<path d="M21.3944 156.931C21.4881 157.295 21.5402 157.759 21.5402 158.326C21.5402 158.774 21.509 159.181 21.4569 159.556C21.3579 160.212 21.1131 160.712 20.7277 161.056C20.3371 161.404 19.8319 161.576 19.2069 161.576C18.5662 161.576 18.0506 161.404 17.6652 161.056C17.2902 160.712 17.0454 160.196 16.936 159.514L16.8944 159.076V159.056C16.8944 158.972 16.936 158.931 17.0194 158.931H17.7694C17.8631 158.931 17.9204 158.983 17.936 159.076L17.9777 159.431C18.1287 160.253 18.5402 160.66 19.2069 160.66C19.509 160.66 19.7694 160.566 19.9777 160.368C20.186 160.16 20.3215 159.868 20.3944 159.493C20.4621 159.175 20.4985 158.785 20.4985 158.326C20.4985 157.842 20.4569 157.42 20.3735 157.056C20.1912 156.378 19.8006 156.035 19.2069 156.035C18.5246 156.035 18.1027 156.378 17.936 157.056C17.9048 157.139 17.8579 157.181 17.7902 157.181H17.0194C16.9204 157.181 16.8735 157.134 16.8735 157.035V151.368C16.8735 151.274 16.9204 151.222 17.0194 151.222H21.1652C21.259 151.222 21.311 151.274 21.311 151.368V151.972C21.311 152.071 21.259 152.118 21.1652 152.118H17.9777C17.936 152.118 17.9152 152.139 17.9152 152.181L17.8944 155.806C17.8944 155.821 17.8996 155.837 17.9152 155.847C17.9256 155.863 17.9465 155.858 17.9777 155.826C18.1287 155.608 18.3319 155.431 18.5819 155.306C18.8423 155.181 19.134 155.118 19.4569 155.118C19.9829 155.118 20.4048 155.279 20.7277 155.597C21.061 155.904 21.2798 156.347 21.3944 156.931Z" fill="#D72333"/>
<path d="M23.0452 161.451C22.9463 161.451 22.8994 161.404 22.8994 161.306V151.368C22.8994 151.274 22.9463 151.222 23.0452 151.222H23.7744C23.8682 151.222 23.9202 151.274 23.9202 151.368V161.306C23.9202 161.404 23.8682 161.451 23.7744 161.451H23.0452Z" fill="#D72333"/>
<path d="M4.17464 236.968C3.43506 236.968 2.84131 236.733 2.38298 236.259C1.93506 235.775 1.71631 235.134 1.71631 234.343V229.051C1.71631 228.275 1.93506 227.65 2.38298 227.176C2.84131 226.692 3.43506 226.447 4.17464 226.447C4.92464 226.447 5.52881 226.692 5.98714 227.176C6.44548 227.65 6.67464 228.275 6.67464 229.051V234.343C6.67464 235.134 6.44548 235.775 5.98714 236.259C5.52881 236.733 4.92464 236.968 4.17464 236.968ZM4.17464 236.051C4.61735 236.051 4.97152 235.905 5.23714 235.613C5.49756 235.311 5.63298 234.905 5.63298 234.405V228.988C5.63298 228.504 5.49756 228.108 5.23714 227.801C4.97152 227.499 4.61735 227.343 4.17464 227.343C3.74235 227.343 3.39339 227.499 3.13298 227.801C2.86735 228.108 2.73714 228.504 2.73714 228.988V234.405C2.73714 234.905 2.86735 235.311 3.13298 235.613C3.39339 235.905 3.74235 236.051 4.17464 236.051Z" fill="#D72333"/>
<path d="M8.8374 236.78C8.5874 236.78 8.38428 236.707 8.23324 236.551C8.09261 236.4 8.0249 236.207 8.0249 235.968C8.0249 235.718 8.09261 235.525 8.23324 235.384C8.38428 235.233 8.5874 235.155 8.8374 235.155C9.07178 235.155 9.26449 235.233 9.42074 235.384C9.57178 235.525 9.6499 235.718 9.6499 235.968C9.6499 236.207 9.57178 236.4 9.42074 236.551C9.26449 236.707 9.07178 236.78 8.8374 236.78Z" fill="#D72333"/>
<path d="M12.0545 235.843C12.0545 235.858 12.0545 235.874 12.0545 235.884C12.0649 235.9 12.0858 235.905 12.117 235.905H15.5545C15.6483 235.905 15.7004 235.957 15.7004 236.051V236.676C15.7004 236.775 15.6483 236.822 15.5545 236.822H10.9504C10.8514 236.822 10.8045 236.775 10.8045 236.676V236.009C10.8045 235.942 10.8254 235.879 10.867 235.822C11.1691 235.353 11.3358 235.082 11.367 235.009C12.2264 233.65 12.9087 232.546 13.4087 231.697C14.0337 230.629 14.3462 229.749 14.3462 229.051C14.3462 228.541 14.2264 228.134 13.992 227.843C13.7524 227.541 13.4504 227.384 13.0754 227.384C12.7004 227.384 12.3931 227.53 12.1587 227.822C11.9347 228.114 11.8306 228.504 11.8462 228.989V229.551C11.8462 229.65 11.7941 229.697 11.7004 229.697H10.9295C10.8306 229.697 10.7837 229.65 10.7837 229.551V228.968C10.8097 228.218 11.0337 227.614 11.4504 227.155C11.8774 226.697 12.4347 226.468 13.117 226.468C13.7941 226.468 14.3462 226.707 14.7629 227.176C15.1899 227.65 15.4087 228.275 15.4087 229.051C15.4087 229.968 15.0597 230.999 14.367 232.134C14.0024 232.733 13.5129 233.53 12.8879 234.53L12.0545 235.843Z" fill="#D72333"/>
<path d="M21.3944 232.301C21.4881 232.666 21.5402 233.129 21.5402 233.697C21.5402 234.145 21.509 234.551 21.4569 234.926C21.3579 235.582 21.1131 236.082 20.7277 236.426C20.3371 236.775 19.8319 236.947 19.2069 236.947C18.5662 236.947 18.0506 236.775 17.6652 236.426C17.2902 236.082 17.0454 235.567 16.936 234.884L16.8944 234.447V234.426C16.8944 234.343 16.936 234.301 17.0194 234.301H17.7694C17.8631 234.301 17.9204 234.353 17.936 234.447L17.9777 234.801C18.1287 235.624 18.5402 236.03 19.2069 236.03C19.509 236.03 19.7694 235.937 19.9777 235.739C20.186 235.53 20.3215 235.239 20.3944 234.864C20.4621 234.546 20.4985 234.155 20.4985 233.697C20.4985 233.213 20.4569 232.791 20.3735 232.426C20.1912 231.749 19.8006 231.405 19.2069 231.405C18.5246 231.405 18.1027 231.749 17.936 232.426C17.9048 232.509 17.8579 232.551 17.7902 232.551H17.0194C16.9204 232.551 16.8735 232.504 16.8735 232.405V226.739C16.8735 226.645 16.9204 226.593 17.0194 226.593H21.1652C21.259 226.593 21.311 226.645 21.311 226.739V227.343C21.311 227.442 21.259 227.489 21.1652 227.489H17.9777C17.936 227.489 17.9152 227.509 17.9152 227.551L17.8944 231.176C17.8944 231.192 17.8996 231.207 17.9152 231.218C17.9256 231.233 17.9465 231.228 17.9777 231.197C18.1287 230.978 18.3319 230.801 18.5819 230.676C18.8423 230.551 19.134 230.489 19.4569 230.489C19.9829 230.489 20.4048 230.65 20.7277 230.968C21.061 231.275 21.2798 231.718 21.3944 232.301Z" fill="#D72333"/>
<path d="M23.0452 236.822C22.9463 236.822 22.8994 236.775 22.8994 236.676V226.739C22.8994 226.645 22.9463 226.593 23.0452 226.593H23.7744C23.8682 226.593 23.9202 226.645 23.9202 226.739V236.676C23.9202 236.775 23.8682 236.822 23.7744 236.822H23.0452Z" fill="#D72333"/>
</g>
</svg>
