<svg width="8" height="8" viewBox="0 0 8 8" fill="none" xmlns="http://www.w3.org/2000/svg">
<path d="M5.91667 0C6.5 0 6.94792 0.218749 7.27083 0.645833C7.60417 1.07813 7.77083 1.66667 7.77083 2.41667V7.35417C7.77083 7.45313 7.71875 7.5 7.625 7.5H6.875C6.77604 7.5 6.72917 7.45313 6.72917 7.35417V2.52083C6.72917 2.02083 6.625 1.625 6.41667 1.33333C6.20833 1.04167 5.9375 0.895833 5.60417 0.895833C5.22917 0.895833 4.92708 1.04167 4.70833 1.33333C4.5 1.61458 4.39583 1.99479 4.39583 2.47917V7.35417C4.39583 7.45313 4.34375 7.5 4.25 7.5H3.5C3.40104 7.5 3.35417 7.45313 3.35417 7.35417V2.52083C3.35417 2.02083 3.25 1.625 3.04167 1.33333C2.83333 1.04167 2.5625 0.895833 2.22917 0.895833C1.86458 0.895833 1.57292 1.04167 1.35417 1.33333C1.13021 1.61458 1.02083 1.99479 1.02083 2.47917V7.35417C1.02083 7.45313 0.968751 7.5 0.875 7.5H0.145833C0.0468747 7.5 0 7.45313 0 7.35417V0.25C0 0.156251 0.0468747 0.104167 0.145833 0.104167H0.875C0.968751 0.104167 1.02083 0.156251 1.02083 0.25V0.708333C1.02083 0.723959 1.02604 0.739584 1.04167 0.75C1.05208 0.75 1.06771 0.739584 1.08333 0.708333C1.27604 0.473959 1.5 0.302083 1.75 0.1875C2 0.0625 2.27083 0 2.5625 0C2.92187 0 3.23958 0.0937493 3.52083 0.270833C3.79687 0.453125 4.00521 0.708333 4.14583 1.04167C4.15625 1.05729 4.17188 1.0625 4.1875 1.0625C4.21354 1.0625 4.22917 1.05208 4.22917 1.02083C4.40625 0.677083 4.65104 0.416667 4.95833 0.25C5.26042 0.0833333 5.58333 0 5.91667 0Z" fill="#D72333"/>
</svg>
