<svg width="5" height="12" viewBox="0 0 5 12" fill="none" xmlns="http://www.w3.org/2000/svg">
<path d="M3.77083 0.145833C3.77083 0.052084 3.82292 0 3.9375 0H4.72917C4.83854 0 4.89583 0.052084 4.89583 0.145833V10.8125C4.89583 10.9271 4.83854 10.9792 4.72917 10.9792H3.9375C3.82292 10.9792 3.77083 10.9271 3.77083 10.8125V10.4792C3.77083 10.4531 3.76042 10.4375 3.75 10.4375C3.73437 10.4271 3.71354 10.4271 3.6875 10.4375C3.29687 10.8854 2.79687 11.1042 2.1875 11.1042C1.52083 11.1042 0.984375 10.8854 0.583333 10.4375C0.192708 9.99479 0 9.41667 0 8.70833V5.3125C0 4.57813 0.192708 3.99479 0.583333 3.5625C0.984375 3.13542 1.52083 2.91667 2.1875 2.91667C2.79687 2.91667 3.29687 3.14063 3.6875 3.58333C3.71354 3.61458 3.73437 3.61979 3.75 3.60417C3.76042 3.59375 3.77083 3.57813 3.77083 3.5625V0.145833ZM2.45833 10.125C2.84375 10.125 3.15625 9.98958 3.39583 9.70833C3.64583 9.43229 3.77083 9.07813 3.77083 8.64583V5.39583C3.77083 4.95313 3.64583 4.59375 3.39583 4.3125C3.15625 4.03646 2.84375 3.89583 2.45833 3.89583C2.05208 3.89583 1.71875 4.03646 1.45833 4.3125C1.20833 4.59375 1.08333 4.95313 1.08333 5.39583V8.64583C1.08333 9.07813 1.20833 9.43229 1.45833 9.70833C1.71875 9.98958 2.05208 10.125 2.45833 10.125Z" fill="#D72333"/>
</svg>
