<svg width="6" height="19" viewBox="0 0 6 19" fill="none" xmlns="http://www.w3.org/2000/svg">
<path d="M2.60417 0C2.96354 0.0156253 3.3125 0.0312507 3.64583 0.0416667C3.97917 0.0416667 4.3125 0.0625 4.64583 0.104167C4.8125 0.119792 4.94271 0.197917 5.04167 0.333333C5.13542 0.458333 5.17188 0.604167 5.14583 0.770833L5.22917 0.854167C5.23958 1.1875 5.23958 1.52083 5.22917 1.85417C5.22917 2.1875 5.21875 2.52083 5.20833 2.85417C5.20833 3.13542 5.17188 3.40625 5.10417 3.66667C5.03125 3.93229 5.01042 4.20313 5.04167 4.47917C5.05208 4.61979 5.07292 4.76042 5.10417 4.89583C5.13021 5.02083 5.14583 5.16146 5.14583 5.3125C5.13021 5.4375 5.10417 5.5625 5.0625 5.6875C5.03125 5.80208 5.01042 5.92708 5 6.0625C4.96875 6.35417 5.00521 6.64583 5.10417 6.9375C5.19792 7.22917 5.27604 7.53125 5.33333 7.83333L5.1875 7.97917C5.19792 8.17708 5.19792 8.39583 5.1875 8.64583C5.1875 8.88542 5.23958 9.09896 5.35417 9.29167C5.23958 9.68229 5.1875 10.0781 5.1875 10.4792C5.1875 10.8698 5.19271 11.2656 5.20833 11.6667C5.21875 12.1146 5.17708 12.5521 5.08333 12.9792C4.98438 13.3958 4.92708 13.8229 4.91667 14.25L5.25 14.3958C5.125 14.6771 5.04688 14.9479 5.02083 15.2083C5.00521 15.474 5.09375 15.75 5.29167 16.0417C5.125 16.5156 5.04167 16.9583 5.04167 17.375C5.04167 17.8646 4.80208 18.1875 4.33333 18.3542C4.09375 18.4271 3.85937 18.4688 3.625 18.4792C3.38542 18.4948 3.14583 18.4896 2.89583 18.4583C2.72917 18.4323 2.58333 18.4375 2.45833 18.4792C2.33333 18.5104 2.17708 18.5521 2 18.6042C1.77604 18.6719 1.5625 18.6771 1.35417 18.625C1.14583 18.5833 0.9375 18.5833 0.729167 18.625L0.104167 18.0208C0.130208 17.6875 0.125 17.3542 0.0833333 17.0208C0.052084 16.6771 0.104167 16.349 0.229167 16.0417C0.072916 15.7396 0.0104173 15.4167 0.0416667 15.0833C0.0833333 14.75 0.125 14.4271 0.166667 14.1042C0.25 13.7188 0.276041 13.3438 0.25 12.9792C0.218751 12.6198 0.1875 12.25 0.145833 11.875C0.114583 11.5313 0.125 11.1875 0.166667 10.8542C0.218751 10.5104 0.239583 10.1667 0.229167 9.83333C0.213541 9.43229 0.192708 9.03646 0.166667 8.64583C0.151041 8.26042 0.104167 7.86979 0.0208333 7.47917L0.166667 7.25C0.067708 7.01563 0.0208333 6.80208 0.0208333 6.60417C0.0312493 6.39583 0.0468747 6.18229 0.0625 5.95833C0.104167 5.65625 0.104167 5.36458 0.0625 5.08333C0.0312493 4.79167 0.0104173 4.51042 0 4.22917L0.125 4.125C0.0416667 3.55729 0.0208333 3.01042 0.0625 2.47917C0.114583 1.95313 0.109375 1.41667 0.0416667 0.875C0.0104173 0.697917 0.067708 0.557292 0.208333 0.458333C0.541667 0.114584 0.9375 -0.010416 1.39583 0.0833333C1.64583 0.0989587 1.875 0.114584 2.08333 0.125C2.30208 0.125 2.47917 0.0833333 2.60417 0Z" fill="#D72333"/>
</svg>
