<svg width="7" height="11" viewBox="0 0 7 11" fill="none" xmlns="http://www.w3.org/2000/svg">
<path d="M4.72917 0.104167C4.75521 0.0364587 4.82292 0 4.9375 0H6.625C6.67708 0 6.71875 0.0208333 6.75 0.0625C6.79167 0.0937507 6.8125 0.125 6.8125 0.166667V10.0625C6.8125 10.1042 6.79167 10.1458 6.75 10.1875C6.71875 10.2188 6.67708 10.2292 6.625 10.2292H4.91667C4.875 10.2292 4.83333 10.2188 4.79167 10.1875C4.76042 10.1458 4.75 10.1042 4.75 10.0625V3.47917C4.75 3.45313 4.73438 3.4375 4.70833 3.4375C4.69271 3.4375 4.67708 3.45313 4.66667 3.47917L3.52083 5.5C3.46354 5.57292 3.42187 5.60417 3.39583 5.60417C3.36458 5.60417 3.33333 5.57292 3.29167 5.5L2.14583 3.47917C2.13021 3.45313 2.10937 3.4375 2.08333 3.4375C2.06771 3.4375 2.0625 3.45313 2.0625 3.47917V10.0625C2.0625 10.1042 2.04167 10.1458 2 10.1875C1.96875 10.2188 1.92708 10.2292 1.875 10.2292H0.166667C0.125 10.2292 0.0833333 10.2188 0.0416667 10.1875C0.0104173 10.1458 0 10.1042 0 10.0625V0.166667C0 0.125 0.0104173 0.0937507 0.0416667 0.0625C0.0833333 0.0208333 0.125 0 0.166667 0H1.85417C1.94792 0 2.02083 0.0364587 2.0625 0.104167L3.375 2.4375C3.40104 2.47917 3.42708 2.47917 3.45833 2.4375L4.72917 0.104167Z" fill="#D72333"/>
</svg>
