<svg width="6" height="12" viewBox="0 0 6 12" fill="none" xmlns="http://www.w3.org/2000/svg">
<path d="M2.64583 11.3542C1.86458 11.3542 1.23437 11.099 0.75 10.5833C0.260417 10.0573 0.0208333 9.375 0.0208333 8.54167V8.1875C0.0208333 8.07813 0.072916 8.02083 0.1875 8.02083H0.958333C1.06771 8.02083 1.125 8.07813 1.125 8.1875V8.5C1.125 9.05729 1.26042 9.51042 1.54167 9.85417C1.83333 10.2031 2.19792 10.375 2.64583 10.375C3.08854 10.375 3.45833 10.2188 3.75 9.89583C4.05208 9.5625 4.20833 9.125 4.20833 8.58333C4.20833 8.22396 4.13542 7.91667 4 7.66667C3.85937 7.40625 3.67187 7.17708 3.4375 6.97917C3.21354 6.77083 2.83854 6.46875 2.3125 6.0625C1.78125 5.67708 1.35937 5.34375 1.04167 5.0625C0.734375 4.78646 0.484375 4.45313 0.291667 4.0625C0.0937507 3.66146 0 3.19792 0 2.66667C0 1.84896 0.234375 1.20313 0.708333 0.729167C1.19271 0.244792 1.81771 0 2.58333 0C3.38542 0 4.02604 0.265625 4.5 0.791667C4.98438 1.30729 5.22917 1.99479 5.22917 2.85417V3.25C5.22917 3.36458 5.17188 3.41667 5.0625 3.41667H4.27083C4.17188 3.41667 4.125 3.36458 4.125 3.25V2.85417C4.125 2.28646 3.97917 1.83333 3.6875 1.5C3.40625 1.15625 3.04167 0.979167 2.58333 0.979167C2.15104 0.979167 1.79687 1.13542 1.52083 1.4375C1.25521 1.72917 1.125 2.15625 1.125 2.70833C1.125 3.03125 1.17708 3.3125 1.29167 3.5625C1.41667 3.8125 1.59375 4.05208 1.83333 4.27083C2.08333 4.49479 2.44271 4.78646 2.91667 5.14583C3.55208 5.61979 4.02604 6 4.33333 6.29167C4.65104 6.58333 4.89583 6.90625 5.0625 7.25C5.23958 7.58333 5.33333 7.99479 5.33333 8.47917C5.33333 9.35417 5.08333 10.0573 4.58333 10.5833C4.08333 11.099 3.4375 11.3542 2.64583 11.3542Z" fill="#D72333"/>
</svg>
