<svg width="22" height="38" viewBox="0 0 22 38" fill="none" xmlns="http://www.w3.org/2000/svg">
<mask id="mask0_25_20326" style="mask-type:luminance" maskUnits="userSpaceOnUse" x="0" y="0" width="22" height="38">
<path d="M21.3333 0H0V37.3333H21.3333V0Z" fill="white"/>
</mask>
<g mask="url(#mask0_25_20326)">
<path d="M4.70768 16.7121C3.90039 16.7121 3.25456 16.4517 2.77018 15.9204C2.2806 15.3944 2.04102 14.7121 2.04102 13.8787V8.12874C2.04102 7.29541 2.2806 6.61833 2.77018 6.08708C3.25456 5.56104 3.90039 5.29541 4.70768 5.29541C5.50977 5.29541 6.16602 5.56104 6.66602 6.08708C7.16602 6.61833 7.41602 7.29541 7.41602 8.12874V13.8787C7.41602 14.7121 7.16602 15.3944 6.66602 15.9204C6.16602 16.4517 5.50977 16.7121 4.70768 16.7121ZM4.70768 15.7121C5.19206 15.7121 5.57227 15.5558 5.85352 15.2329C6.14518 14.8996 6.29102 14.4725 6.29102 13.9412V8.06624C6.29102 7.5402 6.14518 7.11833 5.85352 6.79541C5.57227 6.46208 5.19206 6.29541 4.70768 6.29541C4.24935 6.29541 3.87435 6.46208 3.58268 6.79541C3.29102 7.11833 3.14518 7.5402 3.14518 8.06624V13.9412C3.14518 14.4725 3.29102 14.8996 3.58268 15.2329C3.87435 15.5558 4.24935 15.7121 4.70768 15.7121Z" fill="#D72333"/>
<path d="M9.73096 16.5246C9.46533 16.5246 9.25179 16.4412 9.08512 16.2746C8.92887 16.0975 8.85596 15.8787 8.85596 15.6287C8.85596 15.3683 8.92887 15.1496 9.08512 14.9829C9.25179 14.8162 9.46533 14.7329 9.73096 14.7329C9.99137 14.7329 10.2101 14.8162 10.3768 14.9829C10.5435 15.1496 10.6268 15.3683 10.6268 15.6287C10.6268 15.8787 10.5435 16.0975 10.3768 16.2746C10.2101 16.4412 9.99137 16.5246 9.73096 16.5246Z" fill="#D72333"/>
<path d="M16.6115 11.3786C16.7886 11.9202 16.8823 12.5244 16.8823 13.1911C16.8823 13.7484 16.8198 14.264 16.6948 14.7327C16.4032 16.0244 15.6219 16.6702 14.3615 16.6702C13.6948 16.6702 13.1427 16.4932 12.7157 16.1286C12.2834 15.7536 12.0177 15.2432 11.924 14.5869C11.8511 14.2119 11.8198 13.8057 11.8198 13.3577C11.8198 13.264 11.8719 13.2119 11.9865 13.2119H12.7782C12.8875 13.2119 12.9448 13.264 12.9448 13.3577C12.9448 13.7484 12.9761 14.0973 13.049 14.3994C13.2261 15.264 13.6636 15.6911 14.3615 15.6911C14.6792 15.6911 14.95 15.5973 15.174 15.3994C15.3927 15.1911 15.5542 14.8994 15.6532 14.5244C15.7365 14.0817 15.7782 13.6025 15.7782 13.0869C15.7782 12.4202 15.7157 11.8734 15.5907 11.4411C15.4761 11.0973 15.3198 10.8369 15.1115 10.6702C14.9032 10.4932 14.6532 10.3994 14.3615 10.3994C14.2625 10.3994 14.1375 10.4359 13.9865 10.5036C13.8875 10.5452 13.8198 10.54 13.7782 10.4827L13.3615 10.0452C13.3042 9.97754 13.299 9.90983 13.3407 9.83691L15.4448 6.52441C15.4552 6.514 15.4552 6.49837 15.4448 6.48275C15.4292 6.45671 15.4136 6.44108 15.4032 6.44108H12.0698C11.9552 6.44108 11.9032 6.39421 11.9032 6.29525V5.62858C11.9032 5.51921 11.9552 5.46191 12.0698 5.46191H16.674C16.7834 5.46191 16.8407 5.51921 16.8407 5.62858V6.33691C16.8407 6.39421 16.8198 6.46191 16.7782 6.54525L14.8198 9.60775C14.8042 9.639 14.799 9.65983 14.799 9.67025C14.8094 9.68587 14.825 9.69108 14.8407 9.69108C15.2677 9.73275 15.6375 9.90983 15.9448 10.2119C16.2625 10.5036 16.4865 10.8942 16.6115 11.3786Z" fill="#D72333"/>
<path d="M18.7113 16.5452C18.6123 16.5452 18.5654 16.4932 18.5654 16.3786V5.62858C18.5654 5.51921 18.6123 5.46191 18.7113 5.46191H19.5238C19.6331 5.46191 19.6904 5.51921 19.6904 5.62858V16.3786C19.6904 16.4932 19.6331 16.5452 19.5238 16.5452H18.7113Z" fill="#D72333"/>
<path d="M4.70768 33.549C3.90039 33.549 3.25456 33.2886 2.77018 32.7573C2.2806 32.2313 2.04102 31.549 2.04102 30.7157V24.9657C2.04102 24.1323 2.2806 23.4552 2.77018 22.924C3.25456 22.3979 3.90039 22.1323 4.70768 22.1323C5.50977 22.1323 6.16602 22.3979 6.66602 22.924C7.16602 23.4552 7.41602 24.1323 7.41602 24.9657V30.7157C7.41602 31.549 7.16602 32.2313 6.66602 32.7573C6.16602 33.2886 5.50977 33.549 4.70768 33.549ZM4.70768 32.549C5.19206 32.549 5.57227 32.3927 5.85352 32.0698C6.14518 31.7365 6.29102 31.3094 6.29102 30.7782V24.9032C6.29102 24.3771 6.14518 23.9552 5.85352 23.6323C5.57227 23.299 5.19206 23.1323 4.70768 23.1323C4.24935 23.1323 3.87435 23.299 3.58268 23.6323C3.29102 23.9552 3.14518 24.3771 3.14518 24.9032V30.7782C3.14518 31.3094 3.29102 31.7365 3.58268 32.0698C3.87435 32.3927 4.24935 32.549 4.70768 32.549Z" fill="#D72333"/>
<path d="M9.73096 33.3615C9.46533 33.3615 9.25179 33.2782 9.08512 33.1115C8.92887 32.9344 8.85596 32.7157 8.85596 32.4657C8.85596 32.2052 8.92887 31.9865 9.08512 31.8198C9.25179 31.6532 9.46533 31.5698 9.73096 31.5698C9.99137 31.5698 10.2101 31.6532 10.3768 31.8198C10.5435 31.9865 10.6268 32.2052 10.6268 32.4657C10.6268 32.7157 10.5435 32.9344 10.3768 33.1115C10.2101 33.2782 9.99137 33.3615 9.73096 33.3615Z" fill="#D72333"/>
<path d="M16.9657 28.4863C17.075 28.877 17.1323 29.3822 17.1323 30.0072C17.1323 30.4811 17.0959 30.9186 17.0282 31.3197C16.9292 32.028 16.674 32.5697 16.2573 32.9447C15.8407 33.3197 15.2834 33.5072 14.5907 33.5072C13.9084 33.5072 13.3615 33.3301 12.9448 32.9655C12.5282 32.5905 12.2573 32.0384 12.1323 31.2988L12.0907 30.8197V30.778C12.0907 30.6947 12.1375 30.653 12.2365 30.653H13.049C13.1427 30.653 13.2 30.7103 13.2157 30.8197L13.2573 31.1947C13.424 32.0853 13.8667 32.528 14.5907 32.528C14.924 32.528 15.2 32.4238 15.424 32.2155C15.6427 31.9967 15.799 31.6738 15.8823 31.2572C15.9657 30.9238 16.0073 30.502 16.0073 29.9863C16.0073 29.4603 15.9552 29.0072 15.8615 28.6322C15.6636 27.8978 15.2417 27.528 14.5907 27.528C13.8667 27.528 13.4136 27.8926 13.2365 28.6113C13.1948 28.7103 13.1323 28.7572 13.049 28.7572H12.2365C12.1219 28.7572 12.0698 28.7051 12.0698 28.5905V22.4655C12.0698 22.3561 12.1219 22.2988 12.2365 22.2988H16.7157C16.825 22.2988 16.8823 22.3561 16.8823 22.4655V23.1322C16.8823 23.2311 16.825 23.278 16.7157 23.278H13.2573C13.2157 23.278 13.1948 23.2988 13.1948 23.3405L13.174 27.278C13.174 27.2936 13.1792 27.3092 13.1948 27.3197C13.2209 27.3353 13.2417 27.3301 13.2573 27.2988C13.424 27.0488 13.6427 26.8613 13.924 26.7363C14.2157 26.6009 14.5334 26.528 14.8823 26.528C15.4344 26.528 15.8927 26.7051 16.2573 27.0488C16.6167 27.3822 16.8511 27.8613 16.9657 28.4863Z" fill="#D72333"/>
<path d="M18.7274 33.3822C18.6284 33.3822 18.5815 33.3301 18.5815 33.2155V22.4655C18.5815 22.3561 18.6284 22.2988 18.7274 22.2988H19.5399C19.6493 22.2988 19.7065 22.3561 19.7065 22.4655V33.2155C19.7065 33.3301 19.6493 33.3822 19.5399 33.3822H18.7274Z" fill="#D72333"/>
</g>
</svg>
