<svg width="5" height="11" viewBox="0 0 5 11" fill="none" xmlns="http://www.w3.org/2000/svg">
<path d="M2.64583 0C3.29687 0 3.8125 0.218751 4.1875 0.645833C4.57292 1.07813 4.77083 1.64063 4.77083 2.33333V5.64583C4.77083 6.35417 4.57292 6.92708 4.1875 7.35417C3.8125 7.77083 3.29687 7.97917 2.64583 7.97917C2.36458 7.97917 2.09375 7.92188 1.83333 7.8125C1.58333 7.70313 1.35937 7.53646 1.16667 7.3125C1.15104 7.30208 1.13542 7.30208 1.125 7.3125C1.10937 7.3125 1.10417 7.32813 1.10417 7.35417V10.6667C1.10417 10.7604 1.04687 10.8125 0.9375 10.8125H0.166667C0.0520827 10.8125 0 10.7604 0 10.6667V0.270833C0 0.177084 0.0520827 0.125 0.166667 0.125H0.9375C1.04687 0.125 1.10417 0.177084 1.10417 0.270833V0.625C1.10417 0.640625 1.10937 0.656249 1.125 0.666667C1.13542 0.666667 1.15625 0.661459 1.1875 0.645833C1.36458 0.427084 1.58854 0.265625 1.85417 0.166667C2.11458 0.057292 2.38021 0 2.64583 0ZM3.70833 2.41667C3.70833 1.97396 3.58333 1.61979 3.33333 1.35417C3.08333 1.07813 2.76042 0.9375 2.375 0.9375C2 0.9375 1.69271 1.07813 1.45833 1.35417C1.21875 1.61979 1.10417 1.97396 1.10417 2.41667V5.5625C1.10417 5.99479 1.21875 6.34896 1.45833 6.625C1.69271 6.89063 2 7.02083 2.375 7.02083C2.76042 7.02083 3.08333 6.89063 3.33333 6.625C3.58333 6.34896 3.70833 5.99479 3.70833 5.5625V2.41667Z" fill="#D72333"/>
</svg>
