<svg width="9" height="8" viewBox="0 0 9 8" fill="none" xmlns="http://www.w3.org/2000/svg">
<path d="M6.1875 0C6.79688 0 7.27083 0.229167 7.60417 0.6875C7.94792 1.13542 8.125 1.75 8.125 2.54167V7.70833C8.125 7.80729 8.06771 7.85417 7.95833 7.85417H7.1875C7.08854 7.85417 7.04167 7.80729 7.04167 7.70833V2.64583C7.04167 2.11979 6.92708 1.70833 6.70833 1.41667C6.5 1.11458 6.21354 0.958333 5.85417 0.958333C5.46354 0.958333 5.15625 1.11458 4.9375 1.41667C4.71354 1.70833 4.60417 2.10417 4.60417 2.60417V7.70833C4.60417 7.80729 4.54688 7.85417 4.4375 7.85417H3.66667C3.56771 7.85417 3.52083 7.80729 3.52083 7.70833V2.64583C3.52083 2.11979 3.40625 1.70833 3.1875 1.41667C2.96354 1.11458 2.67708 0.958333 2.33333 0.958333C1.94271 0.958333 1.63021 1.11458 1.39583 1.41667C1.17187 1.70833 1.0625 2.10417 1.0625 2.60417V7.70833C1.0625 7.80729 1.01042 7.85417 0.916667 7.85417H0.145833C0.0468747 7.85417 0 7.80729 0 7.70833V0.270833C0 0.177084 0.0468747 0.125 0.145833 0.125H0.916667C1.01042 0.125 1.0625 0.177084 1.0625 0.270833V0.75C1.0625 0.765625 1.06771 0.781249 1.08333 0.791667C1.09375 0.791667 1.11458 0.781249 1.14583 0.75C1.33854 0.5 1.56771 0.3125 1.83333 0.1875C2.09375 0.0625 2.375 0 2.66667 0C3.05208 0 3.38542 0.0989587 3.66667 0.291667C3.95833 0.489583 4.17708 0.760417 4.33333 1.10417C4.34375 1.11979 4.35938 1.125 4.375 1.125C4.40104 1.125 4.42188 1.11458 4.4375 1.08333C4.61458 0.708333 4.85938 0.4375 5.16667 0.270833C5.48438 0.0937507 5.82292 0 6.1875 0Z" fill="#D72333"/>
</svg>
