<svg width="7" height="12" viewBox="0 0 7 12" fill="none" xmlns="http://www.w3.org/2000/svg">
<path d="M3.16667 11.4167C2.21875 11.4167 1.45833 11.1458 0.875 10.6042C0.291667 10.0521 0 9.3125 0 8.39583V3C0 2.09896 0.291667 1.375 0.875 0.833333C1.45833 0.281251 2.21875 0 3.16667 0C4.125 0 4.89583 0.281251 5.47917 0.833333C6.07292 1.375 6.375 2.10417 6.375 3.02083V3.625C6.375 3.68229 6.35417 3.72917 6.3125 3.77083C6.27083 3.8125 6.21875 3.83333 6.16667 3.83333H4.3125C4.25521 3.83333 4.20833 3.8125 4.16667 3.77083C4.13542 3.72917 4.125 3.68229 4.125 3.625V3C4.125 2.68229 4.03125 2.42708 3.85417 2.22917C3.6875 2.02083 3.45833 1.91667 3.16667 1.91667C2.90104 1.91667 2.67708 2.02083 2.5 2.22917C2.33333 2.42708 2.25 2.68229 2.25 3V8.41667C2.25 8.73958 2.33333 8.99479 2.5 9.1875C2.67708 9.38542 2.90104 9.47917 3.16667 9.47917C3.45833 9.47917 3.6875 9.38542 3.85417 9.1875C4.03125 8.99479 4.125 8.73958 4.125 8.41667V7.14583C4.125 7.09375 4.09375 7.0625 4.04167 7.0625H3.33333C3.27604 7.0625 3.22917 7.05208 3.1875 7.02083C3.15625 6.97917 3.14583 6.93229 3.14583 6.875V5.45833C3.14583 5.40625 3.15625 5.35417 3.1875 5.3125C3.22917 5.27083 3.27604 5.25 3.33333 5.25H6.16667C6.21875 5.25 6.27083 5.27083 6.3125 5.3125C6.35417 5.35417 6.375 5.40625 6.375 5.45833V8.39583C6.375 9.3125 6.07292 10.0521 5.47917 10.6042C4.89583 11.1458 4.125 11.4167 3.16667 11.4167Z" fill="#D72333"/>
</svg>
