<svg width="6" height="10" viewBox="0 0 6 10" fill="none" xmlns="http://www.w3.org/2000/svg">
<path d="M2.9375 0C3.75521 0 4.40625 0.265625 4.89583 0.791667C5.38021 1.32292 5.625 2.03125 5.625 2.91667V8.77083C5.625 8.88542 5.5625 8.9375 5.4375 8.9375H4.5625C4.44792 8.9375 4.39583 8.88542 4.39583 8.77083V8.25C4.39583 8.22396 4.38021 8.20833 4.35417 8.20833C4.33854 8.19792 4.31771 8.20313 4.29167 8.22917C3.85937 8.80208 3.21875 9.08333 2.375 9.08333C1.73437 9.08333 1.17708 8.90625 0.708333 8.54167C0.234375 8.16667 0 7.51563 0 6.58333C0 5.61458 0.281249 4.89583 0.854167 4.4375C1.42187 3.97917 2.17187 3.75 3.10417 3.75H4.3125C4.36458 3.75 4.39583 3.72396 4.39583 3.66667V3C4.39583 2.41667 4.25521 1.95313 3.97917 1.60417C3.71354 1.26042 3.35937 1.08333 2.91667 1.08333C2.56771 1.08333 2.27083 1.20313 2.02083 1.4375C1.77083 1.66146 1.61458 1.95313 1.5625 2.3125C1.5625 2.4375 1.50521 2.5 1.39583 2.5L0.416667 2.47917C0.359375 2.47917 0.317708 2.46875 0.291667 2.4375C0.260417 2.39583 0.255208 2.34896 0.270833 2.29167C0.322916 1.61458 0.604167 1.0625 1.10417 0.645833C1.60417 0.218751 2.21354 0 2.9375 0ZM2.625 8C3.09375 8 3.50521 7.84896 3.85417 7.54167C4.21354 7.23958 4.39583 6.8125 4.39583 6.27083V4.8125C4.39583 4.76042 4.36458 4.72917 4.3125 4.72917H3.08333C2.52604 4.72917 2.08333 4.88542 1.75 5.1875C1.42708 5.47917 1.27083 5.91146 1.27083 6.47917C1.27083 6.99479 1.39583 7.375 1.64583 7.625C1.89583 7.875 2.21875 8 2.625 8Z" fill="#D72333"/>
</svg>
