<svg width="5" height="17" viewBox="0 0 5 17" fill="none" xmlns="http://www.w3.org/2000/svg">
<path d="M2.375 0C2.69271 0.0156253 3 0.0312493 3.29167 0.0416667C3.59375 0.0416667 3.90104 0.0625 4.20833 0.104167C4.35938 0.119792 4.47917 0.1875 4.5625 0.3125C4.64583 0.427084 4.67708 0.552084 4.66667 0.6875L4.75 0.770833C4.76042 1.07813 4.76042 1.38542 4.75 1.6875C4.75 1.97917 4.73438 2.28125 4.70833 2.58333C4.70833 2.84896 4.67188 3.09896 4.60417 3.33333C4.54688 3.57292 4.54167 3.80729 4.58333 4.04167C4.59375 4.16667 4.60938 4.29167 4.625 4.41667C4.65104 4.54167 4.66667 4.67708 4.66667 4.8125C4.65104 4.92708 4.625 5.03646 4.58333 5.14583C4.55208 5.24479 4.53125 5.35417 4.52083 5.47917C4.50521 5.76042 4.54167 6.03125 4.625 6.29167C4.71875 6.55729 4.79167 6.82292 4.83333 7.08333L4.6875 7.22917C4.69792 7.41146 4.69792 7.61458 4.6875 7.83333C4.6875 8.04167 4.73958 8.22917 4.85417 8.39583C4.73958 8.76042 4.6875 9.11979 4.6875 9.47917C4.6875 9.82813 4.69271 10.1875 4.70833 10.5625C4.73438 10.9688 4.69792 11.3646 4.60417 11.75C4.52083 12.125 4.46875 12.5104 4.45833 12.8958L4.77083 13.0208C4.65625 13.2865 4.58854 13.5365 4.5625 13.7708C4.53125 14.0104 4.60938 14.25 4.79167 14.5C4.65104 14.9323 4.58333 15.3438 4.58333 15.7292C4.58333 16.1615 4.35938 16.4583 3.91667 16.625C3.71875 16.6823 3.51042 16.7188 3.29167 16.7292C3.08333 16.7292 2.85937 16.724 2.625 16.7083C2.46875 16.6823 2.33854 16.6823 2.22917 16.7083C2.11458 16.7396 1.97917 16.7812 1.8125 16.8333C1.60417 16.8854 1.40625 16.8958 1.22917 16.8542C1.04687 16.8281 0.859375 16.8281 0.666667 16.8542L0.104167 16.3125C0.130208 16.0104 0.125 15.7031 0.0833333 15.3958C0.0520827 15.0938 0.0937493 14.7917 0.208333 14.5C0.067708 14.2396 0.010416 13.9531 0.0416667 13.6458C0.0833333 13.3438 0.125 13.0521 0.166667 12.7708C0.234375 12.4115 0.255208 12.0729 0.229167 11.75C0.197917 11.4167 0.171875 11.0833 0.145833 10.75C0.114584 10.4323 0.125 10.1198 0.166667 9.8125C0.218749 9.51042 0.234375 9.20833 0.208333 8.91667C0.192708 8.54167 0.177083 8.18229 0.166667 7.83333C0.151041 7.48958 0.104167 7.13542 0.0208333 6.77083L0.166667 6.5625C0.067708 6.35417 0.0208333 6.16146 0.0208333 5.97917C0.0312507 5.80208 0.0468747 5.60417 0.0625 5.39583C0.104167 5.11979 0.104167 4.85417 0.0625 4.60417C0.0312507 4.34375 0.010416 4.08333 0 3.83333L0.125 3.72917C0.0416667 3.22917 0.0208333 2.74479 0.0625 2.27083C0.114584 1.78646 0.109375 1.29167 0.0416667 0.791667C0.010416 0.640625 0.0625 0.515625 0.1875 0.416667C0.489584 0.114583 0.854167 0 1.27083 0.0833333C1.48958 0.0989587 1.69792 0.114583 1.89583 0.125C2.10417 0.125 2.26042 0.0833333 2.375 0Z" fill="#D72333"/>
</svg>
