<svg width="6" height="12" viewBox="0 0 6 12" fill="none" xmlns="http://www.w3.org/2000/svg">
<path d="M0.166667 11.1667C0.052084 11.1667 0 11.1146 0 11V0.145833C0 0.0520827 0.052084 0 0.166667 0H0.979167C1.08854 0 1.14583 0.0520827 1.14583 0.145833V5.33333C1.14583 5.36458 1.15104 5.38542 1.16667 5.39583C1.19271 5.39583 1.20833 5.38542 1.20833 5.35417L4.29167 0.104167C4.34375 0.0364587 4.40625 0 4.47917 0H5.375C5.44271 0 5.48438 0.0208333 5.5 0.0625C5.52604 0.0937493 5.52604 0.135416 5.5 0.1875L3 4.52083C2.98437 4.5625 2.97917 4.59375 2.97917 4.60417L5.72917 10.9792L5.75 11.0417C5.75 11.125 5.69792 11.1667 5.60417 11.1667H4.6875C4.60417 11.1667 4.54688 11.125 4.52083 11.0417L2.22917 5.60417C2.21354 5.5625 2.1875 5.5625 2.14583 5.60417L1.14583 7.14583C1.14583 7.16146 1.14583 7.1875 1.14583 7.22917V11C1.14583 11.1146 1.08854 11.1667 0.979167 11.1667H0.166667Z" fill="#D72333"/>
</svg>
