<svg width="5" height="12" viewBox="0 0 5 12" fill="none" xmlns="http://www.w3.org/2000/svg">
<path d="M3.83333 0.145833C3.83333 0.052084 3.88021 0 3.97917 0H4.79167C4.90104 0 4.95833 0.052084 4.95833 0.145833V10.9375C4.95833 11.0521 4.90104 11.1042 4.79167 11.1042H3.97917C3.88021 11.1042 3.83333 11.0521 3.83333 10.9375V10.6042C3.83333 10.5781 3.81771 10.5625 3.79167 10.5625C3.77604 10.5521 3.76042 10.5521 3.75 10.5625C3.34375 11.0104 2.83854 11.2292 2.22917 11.2292C1.54687 11.2292 1.00521 11.0104 0.604167 10.5625C0.197917 10.1042 0 9.52083 0 8.8125V5.375C0 4.64063 0.197917 4.05208 0.604167 3.60417C1.00521 3.16146 1.54687 2.9375 2.22917 2.9375C2.85417 2.9375 3.35937 3.16667 3.75 3.625C3.76042 3.65625 3.77604 3.66146 3.79167 3.64583C3.81771 3.63542 3.83333 3.61979 3.83333 3.60417V0.145833ZM2.5 10.25C2.88542 10.25 3.20833 10.1146 3.45833 9.83333C3.70833 9.54167 3.83333 9.17708 3.83333 8.72917V5.45833C3.83333 5 3.70833 4.63542 3.45833 4.35417C3.20833 4.07813 2.88542 3.9375 2.5 3.9375C2.09375 3.9375 1.76042 4.07813 1.5 4.35417C1.23437 4.63542 1.10417 5 1.10417 5.45833V8.72917C1.10417 9.17708 1.23437 9.54167 1.5 9.83333C1.76042 10.1146 2.09375 10.25 2.5 10.25Z" fill="#D72333"/>
</svg>
