<svg width="4" height="4" viewBox="0 0 4 4" fill="none" xmlns="http://www.w3.org/2000/svg">
<path d="M0.112666 3.08333C-0.00191757 3.08333 -0.0279589 3.03125 0.0293331 2.91667L1.30017 0.125C1.32621 0.0416667 1.38871 0 1.48767 0H1.98767C2.11267 0 2.14392 0.057292 2.09183 0.166667L1.0085 2.9375C1.0085 2.97917 0.987666 3.01563 0.946 3.04167C0.914749 3.07292 0.8835 3.08333 0.841833 3.08333H0.112666ZM1.92517 3.08333C1.86787 3.08333 1.83142 3.07292 1.821 3.04167C1.80537 3 1.80537 2.95833 1.821 2.91667L3.09183 0.125C3.09183 0.0833333 3.11267 0.057292 3.15433 0.0416667C3.196 0.0156253 3.22725 0 3.2585 0H3.77933C3.821 0 3.85225 0.0156253 3.8835 0.0416667C3.90954 0.0729173 3.91475 0.114584 3.90433 0.166667L2.821 2.9375C2.78975 3.03646 2.73767 3.08333 2.65433 3.08333H1.92517Z" fill="#D51224"/>
</svg>
