<svg width="7" height="14" viewBox="0 0 7 14" fill="none" xmlns="http://www.w3.org/2000/svg">
<mask id="mask0_24_3461" style="mask-type:luminance" maskUnits="userSpaceOnUse" x="0" y="0" width="7" height="14">
<path d="M6.66667 0H0V13.3333H6.66667V0Z" fill="white"/>
</mask>
<g mask="url(#mask0_24_3461)">
<mask id="mask1_24_3461" style="mask-type:luminance" maskUnits="userSpaceOnUse" x="0" y="2" width="6" height="9">
<path d="M0.427246 2.6665H5.3335V10.6665H0.427246V2.6665Z" fill="white"/>
</mask>
<g mask="url(#mask1_24_3461)">
<path d="M2.78141 9.88119C2.30745 9.88119 1.93245 9.75098 1.65641 9.48535C1.37516 9.20931 1.23975 8.83952 1.23975 8.38119V4.92285C1.23975 4.46452 1.37516 4.10514 1.65641 3.83952C1.93245 3.56348 2.30745 3.42285 2.78141 3.42285C3.23975 3.42285 3.60433 3.56348 3.88558 3.83952C4.16162 4.12077 4.30225 4.48535 4.30225 4.94368V5.31868C4.30225 5.3916 4.271 5.42285 4.21891 5.42285H3.76058C3.70329 5.42285 3.67725 5.3916 3.67725 5.31868V4.92285C3.67725 4.63118 3.59391 4.40202 3.42725 4.23535C3.26058 4.06868 3.04183 3.98535 2.78141 3.98535C2.51579 3.98535 2.30225 4.0791 2.13558 4.25618C1.96891 4.42285 1.88558 4.64681 1.88558 4.92285V8.38119C1.88558 8.66243 1.96891 8.8916 2.13558 9.06869C2.30225 9.25098 2.51579 9.33952 2.78141 9.33952C3.04183 9.33952 3.26058 9.25619 3.42725 9.08952C3.59391 8.91243 3.67725 8.67285 3.67725 8.38119V7.23535C3.67725 7.20931 3.66162 7.19369 3.63558 7.19369H2.86475C2.79183 7.19369 2.76058 7.16764 2.76058 7.11035V6.73535C2.76058 6.66764 2.79183 6.63119 2.86475 6.63119H4.21891C4.271 6.63119 4.30225 6.66764 4.30225 6.73535V8.38119C4.30225 8.83952 4.16162 9.20931 3.88558 9.48535C3.60433 9.75098 3.23975 9.88119 2.78141 9.88119Z" fill="#D72333"/>
</g>
</g>
</svg>
