<svg width="14" height="20" viewBox="0 0 14 20" fill="none" xmlns="http://www.w3.org/2000/svg">
<path d="M13.1182 0.88636V1.11553L13.2016 1.46969C13.2849 1.76136 13.2328 2.04261 13.0557 2.30303C12.8891 2.55303 12.6443 2.69365 12.3266 2.71969C12.2276 2.71969 12.1286 2.71969 12.0349 2.71969C11.9359 2.71969 11.8318 2.71449 11.7224 2.69886C11.3474 2.65719 10.9776 2.63115 10.6182 2.61553C10.2693 2.60511 9.9099 2.61032 9.5349 2.63636C9.14427 2.66761 8.75365 2.69886 8.36823 2.74053C7.9776 2.77178 7.58177 2.79261 7.18073 2.80303C6.88906 2.83428 6.58698 2.83949 6.2849 2.82386C5.9776 2.81344 5.68594 2.88115 5.4099 3.03219C5.37865 3.46449 5.38906 3.88115 5.43073 4.28219C5.48281 4.68844 5.4776 5.09469 5.4099 5.51136C5.3526 5.96969 5.33698 6.42282 5.36823 6.86553C5.4099 7.29782 5.46198 7.73532 5.5349 8.17803L6.0974 8.44886L6.18073 8.69886C6.6651 8.53219 7.17031 8.44886 7.70156 8.44886C7.81094 8.65719 7.96198 8.77178 8.1599 8.78219C8.3526 8.78219 8.5401 8.75094 8.7224 8.67803C8.87344 8.61032 9.0349 8.61032 9.20156 8.67803C9.36823 8.73532 9.48281 8.84469 9.55573 9.01136C9.5974 9.08428 9.62865 9.16761 9.6599 9.26136C9.68594 9.34469 9.70677 9.42803 9.7224 9.51136C9.74844 9.65199 9.75365 9.79782 9.74323 9.94886C9.7276 10.0895 9.73281 10.2353 9.76406 10.3864C9.76406 10.6676 9.63906 10.8655 9.38906 10.9905C9.0974 11.1312 8.80573 11.1937 8.51406 11.178C8.2224 11.152 7.9099 11.1155 7.57656 11.0739C7.14427 11.0218 6.76927 11.0426 6.45156 11.1364C6.14427 11.2353 5.82656 11.428 5.49323 11.7197C5.46198 11.9176 5.42031 12.1312 5.36823 12.3655C5.31094 12.6051 5.35781 12.8134 5.51406 12.9905L5.26406 13.8239L5.68073 14.1155C5.6651 14.4905 5.6599 14.8395 5.6599 15.1572C5.67031 15.4645 5.56094 15.7718 5.32656 16.0739C5.43594 16.2822 5.51406 16.4801 5.55573 16.6572C5.5974 16.8395 5.62865 17.0426 5.6599 17.2614C5.8526 17.2197 6.02448 17.1884 6.18073 17.1572C6.3474 17.1312 6.51406 17.0634 6.68073 16.9489C7.01406 17.0218 7.3474 17.0634 7.68073 17.0739C8.02448 17.0895 8.37344 17.1103 8.7224 17.1364C9.0974 17.1676 9.39948 17.1728 9.63906 17.1572C9.87344 17.1468 10.1651 17.0478 10.5141 16.8655C11.3734 17.3655 12.2276 17.428 13.0766 17.053C13.2953 16.9697 13.5245 17.0114 13.7641 17.178L13.9307 17.553C14.0974 18.3187 13.9411 18.9697 13.4724 19.5114C13.3057 19.7614 13.087 19.8343 12.8266 19.7405C12.7016 19.6989 12.5818 19.6624 12.4724 19.6364C12.3578 19.5947 12.2276 19.5478 12.0766 19.4905L11.9724 19.678C11.4984 19.6259 11.0557 19.6051 10.6391 19.6155C10.2328 19.6312 9.7901 19.6103 9.30573 19.553L9.2224 19.8239C8.76406 19.7509 8.32656 19.6989 7.9099 19.6572C7.50365 19.6051 7.06094 19.6259 6.57656 19.7197C6.36823 19.7301 6.1651 19.7197 5.9724 19.678C5.7901 19.652 5.6026 19.6364 5.4099 19.6364C5.1599 19.652 4.9776 19.6572 4.86823 19.6572C4.75365 19.6468 4.58698 19.5947 4.36823 19.5114L3.88906 19.8239C3.51406 19.7509 3.14427 19.6884 2.7849 19.6364C2.42031 19.5843 2.05573 19.5634 1.68073 19.5739C1.55573 19.5739 1.43594 19.5739 1.32656 19.5739C1.2276 19.5634 1.12865 19.5426 1.0349 19.5114C0.795313 19.4593 0.618229 19.3187 0.493229 19.0947C0.378647 18.8603 0.389063 18.6155 0.514063 18.3655C0.441145 18.1312 0.378647 17.902 0.326563 17.678C0.269271 17.4593 0.222396 17.2197 0.180729 16.9697C0.165104 16.7093 0.170313 16.4384 0.201563 16.1572C0.227604 15.8812 0.222396 15.6103 0.180729 15.3447L0.243229 15.303C0.295313 14.6937 0.295313 14.0739 0.243229 13.4489C0.201563 12.8239 0.21198 12.1937 0.284896 11.553C0.326563 11.2353 0.347396 10.9228 0.347396 10.6155C0.347396 10.2978 0.33698 9.98011 0.326563 9.65719C0.295313 9.38115 0.253647 9.10511 0.201563 8.82386C0.144271 8.54782 0.107812 8.27699 0.097396 8.01136C0.097396 7.79261 0.139063 7.57386 0.222396 7.36553C0.305729 7.15719 0.352604 6.94886 0.368229 6.74053C0.409896 6.50615 0.399479 6.28219 0.347396 6.07386C0.305729 5.85511 0.269271 5.63115 0.243229 5.40719C0.201563 5.19886 0.144271 4.95928 0.0765627 4.67803C0.00364667 4.40199 -0.017188 4.13636 0.0140627 3.88636C0.040104 3.62594 0.149479 3.41761 0.347396 3.26136C0.290104 2.95928 0.253647 2.63115 0.243229 2.28219C0.243229 1.92282 0.274479 1.57386 0.347396 1.24053C0.399479 0.922819 0.545313 0.66761 0.784896 0.469694C1.0349 0.276986 1.30573 0.178027 1.5974 0.178027C1.85781 0.16761 2.10781 0.157194 2.3474 0.157194C2.5974 0.157194 2.83698 0.178027 3.07656 0.219694L3.20156 0.0946935C3.62865 0.235319 4.0401 0.26136 4.43073 0.178027C4.81615 0.0946935 5.23281 0.0634442 5.68073 0.0738602C5.88906 0.0894855 6.0974 0.125943 6.30573 0.178027C6.52448 0.235319 6.74844 0.26136 6.9724 0.26136C7.1651 0.26136 7.36823 0.235319 7.57656 0.178027C7.79531 0.110319 8.01406 0.0686522 8.2224 0.0530269C8.70677 -0.0303065 9.13906 -0.0146811 9.51406 0.0946935C9.88906 0.193652 10.2953 0.276986 10.7432 0.344694C10.9776 0.375943 11.212 0.355111 11.4516 0.282194C11.7016 0.214486 11.9411 0.16761 12.1807 0.13636C12.4307 0.0946935 12.6443 0.151986 12.8266 0.303027C13.0193 0.443652 13.1182 0.63636 13.1182 0.88636Z" fill="#D72333"/>
</svg>
