<svg width="10" height="20" viewBox="0 0 10 20" fill="none" xmlns="http://www.w3.org/2000/svg">
<path d="M7.8125 0.291667C7.8125 0.0989587 7.90104 0 8.08333 0H9.47917C9.67188 0 9.77083 0.0989587 9.77083 0.291667V19.2917C9.77083 19.474 9.67188 19.5625 9.47917 19.5625H7.83333C7.69271 19.5625 7.59375 19.4896 7.54167 19.3333L2.08333 4.89583C2.06771 4.84375 2.04167 4.82292 2 4.83333C1.95833 4.83333 1.9375 4.86458 1.9375 4.91667L1.97917 19.2917C1.97917 19.474 1.88021 19.5625 1.6875 19.5625H0.270833C0.0885413 19.5625 0 19.474 0 19.2917V0.291667C0 0.0989587 0.0885413 0 0.270833 0H1.89583C2.03125 0 2.13021 0.0781253 2.1875 0.229167L7.66667 14.7083C7.69271 14.7656 7.71875 14.7865 7.75 14.7708C7.79167 14.7604 7.8125 14.724 7.8125 14.6667V0.291667Z" fill="#D72333"/>
</svg>
