<svg width="54" height="12" viewBox="0 0 54 12" fill="none" xmlns="http://www.w3.org/2000/svg">
<mask id="mask0_24_8353" style="mask-type:luminance" maskUnits="userSpaceOnUse" x="0" y="0" width="54" height="12">
<path d="M53.3333 0H0V12H53.3333V0Z" fill="white"/>
</mask>
<g mask="url(#mask0_24_8353)">
<mask id="mask1_24_8353" style="mask-type:luminance" maskUnits="userSpaceOnUse" x="0" y="2" width="4" height="9">
<path d="M0.21875 2.6665H4V10.6665H0.21875V2.6665Z" fill="white"/>
</mask>
<g mask="url(#mask1_24_8353)">
<path d="M2.24593 9.54346C1.7876 9.54346 1.41781 9.39762 1.14176 9.10596C0.860515 8.80387 0.725098 8.41325 0.725098 7.93929V4.66846C0.725098 4.18408 0.860515 3.79346 1.14176 3.50179C1.41781 3.19971 1.7876 3.04346 2.24593 3.04346C2.70426 3.04346 3.06885 3.19971 3.3501 3.50179C3.64176 3.79346 3.7876 4.18408 3.7876 4.66846V7.93929C3.7876 8.41325 3.64176 8.80387 3.3501 9.10596C3.06885 9.39762 2.70426 9.54346 2.24593 9.54346ZM2.24593 8.98096C2.52197 8.98096 2.73552 8.89242 2.89176 8.71012C3.05843 8.53304 3.14176 8.28304 3.14176 7.96012V4.62679C3.14176 4.32471 3.05843 4.07992 2.89176 3.89762C2.73552 3.70492 2.52197 3.60596 2.24593 3.60596C1.98031 3.60596 1.76676 3.70492 1.6001 3.89762C1.43343 4.07992 1.3501 4.32471 1.3501 4.62679V7.96012C1.3501 8.28304 1.43343 8.53304 1.6001 8.71012C1.76676 8.89242 1.98031 8.98096 2.24593 8.98096Z" fill="white"/>
</g>
<path d="M5.11621 9.43945C4.95996 9.43945 4.83496 9.39779 4.74121 9.31445C4.65788 9.2207 4.61621 9.0957 4.61621 8.93945C4.61621 8.78841 4.65788 8.66862 4.74121 8.58529C4.83496 8.49154 4.95996 8.43945 5.11621 8.43945C5.25163 8.43945 5.37142 8.49154 5.47038 8.58529C5.56413 8.66862 5.61621 8.78841 5.61621 8.93945C5.61621 9.0957 5.56413 9.2207 5.47038 9.31445C5.37142 9.39779 5.25163 9.43945 5.11621 9.43945Z" fill="white"/>
<path d="M7.12614 8.85612C7.11051 8.87175 7.10531 8.88737 7.10531 8.89779C7.11572 8.89779 7.13135 8.89779 7.14697 8.89779H9.27197C9.32406 8.89779 9.35531 8.92904 9.35531 8.98112V9.37695C9.35531 9.43425 9.32406 9.46029 9.27197 9.46029H6.43864C6.36572 9.46029 6.33447 9.43425 6.33447 9.37695V8.96029C6.33447 8.91862 6.34489 8.87695 6.37614 8.83529C6.56885 8.54362 6.67301 8.37695 6.68864 8.33529C7.21468 7.50195 7.63656 6.82487 7.95947 6.29362C8.33447 5.62695 8.52197 5.08008 8.52197 4.64779C8.52197 4.3457 8.44906 4.10091 8.31364 3.91862C8.17301 3.72591 7.98551 3.62695 7.75114 3.62695C7.51156 3.62695 7.32406 3.7207 7.18864 3.89779C7.04801 4.08008 6.98031 4.32487 6.98031 4.62695V4.96029C6.98031 5.0332 6.94906 5.06445 6.89697 5.06445H6.41781C6.36051 5.06445 6.33447 5.0332 6.33447 4.96029V4.60612C6.34489 4.14779 6.48551 3.7832 6.75114 3.50195C7.01156 3.21029 7.35531 3.06445 7.77197 3.06445C8.18864 3.06445 8.52718 3.21029 8.79281 3.50195C9.05322 3.79362 9.18864 4.17904 9.18864 4.64779C9.18864 5.2207 8.96989 5.85612 8.54281 6.56445C8.31885 6.93945 8.01156 7.43425 7.62614 8.04362L7.12614 8.85612Z" fill="white"/>
<path d="M12.8874 6.66862C12.9395 6.89258 12.9707 7.18425 12.9707 7.54362C12.9707 7.80925 12.9551 8.05925 12.929 8.29362C12.8717 8.69987 12.7207 9.00195 12.4707 9.21029C12.2311 9.41862 11.9186 9.52279 11.5332 9.52279C11.1426 9.52279 10.8301 9.41862 10.5957 9.21029C10.3561 9.00195 10.2051 8.68945 10.1374 8.27279L10.0957 8.00195V7.98112C10.0957 7.92904 10.1217 7.89779 10.179 7.89779H10.6374C10.7051 7.89779 10.7415 7.93425 10.7415 8.00195L10.7832 8.21029C10.8665 8.72591 11.1165 8.98112 11.5332 8.98112C11.7259 8.98112 11.8874 8.91862 12.0124 8.79362C12.1374 8.66862 12.2259 8.49154 12.2832 8.25195C12.3249 8.05925 12.3457 7.81445 12.3457 7.52279C12.3457 7.2207 12.3145 6.96029 12.2624 6.75195C12.1478 6.32487 11.9082 6.10612 11.5332 6.10612C11.1165 6.10612 10.8561 6.31445 10.7624 6.73112C10.7311 6.78841 10.6999 6.81445 10.6582 6.81445H10.179C10.1217 6.81445 10.0957 6.78841 10.0957 6.73112V3.23112C10.0957 3.16341 10.1217 3.12695 10.179 3.12695H12.7415C12.8092 3.12695 12.8457 3.16341 12.8457 3.23112V3.60612C12.8457 3.66341 12.8092 3.68945 12.7415 3.68945H10.7832C10.752 3.68945 10.7415 3.70508 10.7415 3.73112L10.7207 5.96029C10.7207 5.97591 10.7259 5.99154 10.7415 6.00195C10.752 6.00195 10.7676 5.99675 10.7832 5.98112C10.8665 5.8457 10.9811 5.74154 11.1374 5.66862C11.304 5.58529 11.4915 5.54362 11.6999 5.54362C12.0176 5.54362 12.2728 5.64258 12.4707 5.83529C12.679 6.0332 12.8145 6.30925 12.8874 6.66862Z" fill="white"/>
<path d="M13.8988 9.46029C13.8415 9.46029 13.8154 9.43425 13.8154 9.37695V3.23112C13.8154 3.16341 13.8415 3.12695 13.8988 3.12695H14.3571C14.4248 3.12695 14.4613 3.16341 14.4613 3.23112V9.37695C14.4613 9.43425 14.4248 9.46029 14.3571 9.46029H13.8988Z" fill="white"/>
</g>
</svg>
