<svg width="7" height="12" viewBox="0 0 7 12" fill="none" xmlns="http://www.w3.org/2000/svg">
<path d="M6.41667 8.08333C6.41667 9.07292 6.11458 9.83333 5.52083 10.375C4.92188 10.9063 4.15104 11.1667 3.20833 11.1667H0.1875C0.130208 11.1667 0.0833333 11.1562 0.0416667 11.125C0.010416 11.0833 0 11.0365 0 10.9792V0.1875C0 0.135416 0.010416 0.0937493 0.0416667 0.0625C0.0833333 0.0208333 0.130208 0 0.1875 0H2.85417C3.90625 0 4.73438 0.260416 5.33333 0.770833C5.94271 1.27083 6.25 2.03125 6.25 3.04167C6.25 4.09896 5.88542 4.86458 5.16667 5.33333C5.125 5.375 5.11458 5.41146 5.14583 5.4375C5.98958 6.03646 6.41667 6.91667 6.41667 8.08333ZM2.33333 1.91667C2.27604 1.91667 2.25 1.94792 2.25 2V4.52083C2.25 4.5625 2.27604 4.58333 2.33333 4.58333H2.89583C3.25521 4.58333 3.53125 4.47396 3.72917 4.25C3.9375 4.01563 4.04167 3.69792 4.04167 3.29167C4.04167 2.84896 3.94271 2.51042 3.75 2.27083C3.55208 2.03646 3.27083 1.91667 2.89583 1.91667H2.33333ZM3.02083 9.22917C3.38021 9.22917 3.65625 9.10417 3.85417 8.85417C4.0625 8.59375 4.16667 8.22396 4.16667 7.75C4.16667 7.28125 4.0625 6.91146 3.85417 6.64583C3.65625 6.36979 3.38542 6.22917 3.04167 6.22917H2.33333C2.27604 6.22917 2.25 6.25 2.25 6.29167V9.14583C2.25 9.20313 2.27604 9.22917 2.33333 9.22917H3.02083Z" fill="#D72333"/>
</svg>
