<svg width="6" height="12" viewBox="0 0 6 12" fill="none" xmlns="http://www.w3.org/2000/svg">
<path d="M1.39583 10.2292C1.38021 10.2448 1.375 10.2656 1.375 10.2917C1.38542 10.3073 1.40625 10.3125 1.4375 10.3125H5.1875C5.28125 10.3125 5.33333 10.3646 5.33333 10.4583V11.125C5.33333 11.2396 5.28125 11.2917 5.1875 11.2917H0.166667C0.067708 11.2917 0.0208333 11.2396 0.0208333 11.125V10.4167C0.0208333 10.3333 0.0416667 10.2656 0.0833333 10.2083C0.401041 9.68229 0.588541 9.38542 0.645833 9.3125C1.57292 7.84375 2.3125 6.64063 2.85417 5.70833C3.53125 4.54167 3.875 3.57292 3.875 2.79167C3.875 2.25 3.73958 1.8125 3.47917 1.47917C3.22917 1.14583 2.89583 0.979167 2.47917 0.979167C2.07292 0.979167 1.75 1.14583 1.5 1.47917C1.25 1.80208 1.13021 2.22396 1.14583 2.75V3.35417C1.14583 3.46875 1.08854 3.52083 0.979167 3.52083H0.166667C0.0520827 3.52083 0 3.46875 0 3.35417V2.72917C0.010416 1.91146 0.25 1.25 0.708333 0.75C1.17708 0.25 1.79167 0 2.54167 0C3.27604 0 3.875 0.260416 4.33333 0.770833C4.79167 1.28646 5.02083 1.95833 5.02083 2.79167C5.02083 3.79167 4.64583 4.92708 3.89583 6.1875C3.50521 6.84375 2.96354 7.71875 2.27083 8.8125L1.39583 10.2292Z" fill="#D72333"/>
</svg>
