<svg width="9" height="9" viewBox="0 0 9 9" fill="none" xmlns="http://www.w3.org/2000/svg">
<path d="M6.4375 0C7.07292 0 7.56771 0.239583 7.91667 0.708333C8.26042 1.16667 8.4375 1.8125 8.4375 2.64583V7.97917C8.4375 8.09375 8.38021 8.14583 8.27083 8.14583H7.47917C7.38021 8.14583 7.33333 8.09375 7.33333 7.97917V2.72917C7.33333 2.1875 7.21354 1.76563 6.97917 1.45833C6.75521 1.14063 6.45833 0.979167 6.08333 0.979167C5.67708 0.979167 5.35938 1.14063 5.125 1.45833C4.90104 1.76563 4.79167 2.18229 4.79167 2.70833V7.97917C4.79167 8.09375 4.73438 8.14583 4.625 8.14583H3.8125C3.71354 8.14583 3.66667 8.09375 3.66667 7.97917V2.72917C3.66667 2.1875 3.54687 1.76563 3.3125 1.45833C3.08854 1.14063 2.79687 0.979167 2.4375 0.979167C2.03125 0.979167 1.71354 1.14063 1.47917 1.45833C1.23958 1.76563 1.125 2.18229 1.125 2.70833V7.97917C1.125 8.09375 1.06771 8.14583 0.958333 8.14583H0.166667C0.0520827 8.14583 0 8.09375 0 7.97917V0.270833C0 0.161459 0.0520827 0.104167 0.166667 0.104167H0.958333C1.06771 0.104167 1.125 0.161459 1.125 0.270833V0.770833C1.125 0.786459 1.13021 0.802084 1.14583 0.8125C1.15625 0.8125 1.17708 0.802084 1.20833 0.770833C1.40104 0.510417 1.63542 0.3125 1.91667 0.1875C2.19271 0.0625 2.48437 0 2.79167 0C3.19271 0 3.54167 0.0989587 3.83333 0.291667C4.125 0.489583 4.35417 0.765625 4.52083 1.125C4.53125 1.15625 4.54688 1.16667 4.5625 1.16667C4.58854 1.16667 4.60417 1.14583 4.60417 1.10417C4.79688 0.729167 5.05208 0.453125 5.375 0.270833C5.70833 0.0937507 6.0625 0 6.4375 0Z" fill="#D72333"/>
</svg>
