<svg width="5" height="9" viewBox="0 0 5 9" fill="none" xmlns="http://www.w3.org/2000/svg">
<path d="M2.375 8.10417C1.65104 8.10417 1.07292 7.91667 0.645833 7.54167C0.213541 7.16667 0 6.67708 0 6.0625V5.95833C0 5.84896 0.0468747 5.79167 0.145833 5.79167H0.916667C1.01042 5.79167 1.0625 5.84896 1.0625 5.95833V6.04167C1.0625 6.375 1.17708 6.66146 1.41667 6.89583C1.66667 7.11979 1.98958 7.22917 2.39583 7.22917C2.77083 7.22917 3.06771 7.11979 3.29167 6.89583C3.52604 6.66146 3.64583 6.36979 3.64583 6.02083C3.64583 5.74479 3.56771 5.51563 3.41667 5.33333C3.27604 5.15625 3.10937 5.01563 2.91667 4.91667C2.71875 4.80729 2.4375 4.66667 2.0625 4.5C1.64583 4.33333 1.30208 4.16667 1.04167 4C0.776041 3.83333 0.546875 3.60417 0.354167 3.3125C0.156249 3.01042 0.0625 2.625 0.0625 2.16667C0.0625 1.5 0.260417 0.973959 0.666667 0.583333C1.08333 0.197916 1.64583 0 2.35417 0C3.0625 0 3.625 0.203125 4.04167 0.604167C4.45833 0.994792 4.66667 1.52083 4.66667 2.1875V2.22917C4.66667 2.34375 4.61458 2.39583 4.52083 2.39583H3.79167C3.69271 2.39583 3.64583 2.34375 3.64583 2.22917V2.14583C3.64583 1.78646 3.52604 1.49479 3.29167 1.27083C3.05208 1.03646 2.75 0.916667 2.375 0.916667C1.98437 0.916667 1.67708 1.03646 1.45833 1.27083C1.23437 1.51042 1.125 1.80208 1.125 2.14583C1.125 2.39583 1.19271 2.61458 1.33333 2.79167C1.46875 2.95833 1.63542 3.09896 1.83333 3.20833C2.02604 3.30729 2.30208 3.4375 2.66667 3.60417C3.09375 3.78646 3.44792 3.95833 3.72917 4.125C4.00521 4.29167 4.25 4.53125 4.45833 4.83333C4.66667 5.14063 4.77083 5.51563 4.77083 5.95833C4.77083 6.61458 4.55208 7.13542 4.125 7.52083C3.69271 7.91146 3.10937 8.10417 2.375 8.10417Z" fill="#D72333"/>
</svg>
