<svg width="6" height="12" viewBox="0 0 6 12" fill="none" xmlns="http://www.w3.org/2000/svg">
<path d="M0.166667 11.1042C0.0520827 11.1042 0 11.0521 0 10.9375V0.145833C0 0.052084 0.0520827 0 0.166667 0H0.979167C1.08854 0 1.14583 0.052084 1.14583 0.145833V6.54167C1.14583 6.55729 1.15104 6.57292 1.16667 6.58333C1.19271 6.59896 1.20833 6.59375 1.20833 6.5625L3.60417 3.16667C3.64583 3.09896 3.70833 3.0625 3.79167 3.0625H4.60417C4.67188 3.0625 4.71354 3.08333 4.72917 3.125C4.75521 3.16667 4.75 3.21875 4.70833 3.27083L3.14583 5.52083C3.10417 5.55208 3.09375 5.57813 3.125 5.60417L5 10.9375L5.02083 11C5.02083 11.0729 4.96875 11.1042 4.875 11.1042H4.02083C3.92187 11.1042 3.85937 11.0625 3.83333 10.9792L2.41667 6.5625C2.41667 6.49479 2.38542 6.48958 2.33333 6.54167L1.16667 8.20833C1.15104 8.22396 1.14583 8.24479 1.14583 8.27083V10.9375C1.14583 11.0521 1.08854 11.1042 0.979167 11.1042H0.166667Z" fill="#D72333"/>
</svg>
