<svg width="4" height="11" viewBox="0 0 4 11" fill="none" xmlns="http://www.w3.org/2000/svg">
<path d="M2.83333 0.895833C2.45833 0.895833 2.19271 1.02083 2.04167 1.27083C1.88542 1.51042 1.8125 1.89063 1.8125 2.41667V2.875C1.8125 2.91667 1.83333 2.9375 1.875 2.9375H3C3.09375 2.9375 3.14583 2.98958 3.14583 3.08333V3.5625C3.14583 3.66146 3.09375 3.70833 3 3.70833H1.875C1.83333 3.70833 1.8125 3.72917 1.8125 3.77083V10.1875C1.8125 10.2865 1.76042 10.3333 1.66667 10.3333H0.9375C0.838541 10.3333 0.791667 10.2865 0.791667 10.1875V3.77083C0.791667 3.72917 0.770833 3.70833 0.729167 3.70833H0.145833C0.0468747 3.70833 0 3.66146 0 3.5625V3.08333C0 2.98958 0.0468747 2.9375 0.145833 2.9375H0.729167C0.770833 2.9375 0.791667 2.91667 0.791667 2.875V2.41667C0.791667 1.55729 0.942708 0.9375 1.25 0.5625C1.55208 0.1875 2.07292 0 2.8125 0H3.02083C3.11458 0 3.16667 0.0520827 3.16667 0.145833L3.14583 0.729167C3.14583 0.843749 3.09375 0.895833 3 0.895833H2.83333Z" fill="#D72333"/>
</svg>
