<svg width="5" height="11" viewBox="0 0 5 11" fill="none" xmlns="http://www.w3.org/2000/svg">
<path d="M3.45833 3.125C3.45833 3.03125 3.50521 2.97917 3.60417 2.97917H4.35417C4.44792 2.97917 4.5 3.03125 4.5 3.125V10.2292C4.5 10.3281 4.44792 10.375 4.35417 10.375H3.60417C3.50521 10.375 3.45833 10.3281 3.45833 10.2292V9.72917C3.45833 9.70313 3.44792 9.6875 3.4375 9.6875C3.42187 9.6875 3.40104 9.69792 3.375 9.70833C3.08333 10.224 2.59375 10.4792 1.91667 10.4792C1.33333 10.4792 0.864583 10.3073 0.520833 9.95833C0.171875 9.59896 0 9.05729 0 8.33333V3.125C0 3.03125 0.0468747 2.97917 0.145833 2.97917H0.895833C0.989583 2.97917 1.04167 3.03125 1.04167 3.125V8.08333C1.04167 8.58333 1.13542 8.95833 1.33333 9.20833C1.54167 9.44792 1.83333 9.5625 2.20833 9.5625C2.59375 9.5625 2.90104 9.42708 3.125 9.14583C3.34375 8.86979 3.45833 8.48958 3.45833 8V3.125ZM3.33333 1.625C3.08333 1.625 2.88021 1.55208 2.72917 1.39583C2.58854 1.24479 2.52083 1.05208 2.52083 0.8125C2.52083 0.5625 2.58854 0.369792 2.72917 0.229167C2.88021 0.0781253 3.08333 0 3.33333 0C3.56771 0 3.76042 0.0781253 3.91667 0.229167C4.06771 0.369792 4.14583 0.5625 4.14583 0.8125C4.14583 1.05208 4.06771 1.24479 3.91667 1.39583C3.76042 1.55208 3.56771 1.625 3.33333 1.625ZM1.14583 1.625C0.895833 1.625 0.692708 1.55208 0.541667 1.39583C0.401041 1.24479 0.333333 1.05208 0.333333 0.8125C0.333333 0.5625 0.401041 0.369792 0.541667 0.229167C0.692708 0.0781253 0.895833 0 1.14583 0C1.38021 0 1.57292 0.0781253 1.72917 0.229167C1.88021 0.369792 1.95833 0.5625 1.95833 0.8125C1.95833 1.05208 1.88021 1.24479 1.72917 1.39583C1.57292 1.55208 1.38021 1.625 1.14583 1.625Z" fill="#D72333"/>
</svg>
