<svg width="6" height="9" viewBox="0 0 6 9" fill="none" xmlns="http://www.w3.org/2000/svg">
<path d="M2.16667 8.04167C2.06771 8.04167 2.01042 7.99479 2 7.89583L0.0208333 0.1875L0 0.125C0 0.0416667 0.0468747 0 0.145833 0H1.0625C1.15625 0 1.21875 0.0520827 1.25 0.145833L2.60417 6.16667C2.61458 6.19792 2.63021 6.20833 2.64583 6.20833C2.65625 6.20833 2.66667 6.19792 2.66667 6.16667L4.02083 0.145833C4.04688 0.0520827 4.10417 0 4.1875 0L5.125 0.0208333C5.16667 0.0208333 5.19792 0.0416667 5.22917 0.0833333C5.25521 0.114584 5.26042 0.156251 5.25 0.208333L3.29167 7.89583C3.27604 7.99479 3.21875 8.04167 3.125 8.04167H2.16667Z" fill="#D72333"/>
</svg>
