<svg width="111" height="14" viewBox="0 0 111 14" fill="none" xmlns="http://www.w3.org/2000/svg">
<mask id="mask0_24_6987" style="mask-type:luminance" maskUnits="userSpaceOnUse" x="0" y="0" width="111" height="14">
<path d="M110.667 0H0V13.3333H110.667V0Z" fill="white"/>
</mask>
<g mask="url(#mask0_24_6987)">
<mask id="mask1_24_6987" style="mask-type:luminance" maskUnits="userSpaceOnUse" x="0" y="1" width="6" height="10">
<path d="M0.255371 1.3335H5.3335V10.6668H0.255371V1.3335Z" fill="white"/>
</mask>
<g mask="url(#mask1_24_6987)">
<path d="M0.885254 9.81087C0.843587 9.81087 0.807129 9.80566 0.781087 9.79004C0.765462 9.764 0.760254 9.72754 0.760254 9.68587V2.66504C0.760254 2.639 0.765462 2.61296 0.781087 2.58171C0.807129 2.55566 0.843587 2.54004 0.885254 2.54004H2.76025C3.38525 2.54004 3.88525 2.72754 4.26025 3.10254C4.64567 3.46712 4.84359 3.9515 4.84359 4.56087V7.79004C4.84359 8.40462 4.64567 8.89421 4.26025 9.26921C3.88525 9.63379 3.38525 9.81087 2.76025 9.81087H0.885254ZM2.21859 8.49837C2.21859 8.54004 2.23942 8.56087 2.28109 8.56087L2.73942 8.54004C2.9165 8.54004 3.06234 8.46712 3.17692 8.31087C3.30192 8.15983 3.36963 7.95671 3.38525 7.70671V4.64421C3.38525 4.39421 3.32275 4.19629 3.19775 4.04004C3.08317 3.889 2.93213 3.81087 2.73942 3.81087H2.28109C2.23942 3.81087 2.21859 3.8265 2.21859 3.85254V8.49837Z" fill="#D72333"/>
</g>
<path d="M5.82178 9.81087C5.78011 9.81087 5.74365 9.80566 5.71761 9.79004C5.70199 9.764 5.69678 9.72754 5.69678 9.68587V2.66504C5.69678 2.639 5.70199 2.61296 5.71761 2.58171C5.74365 2.55566 5.78011 2.54004 5.82178 2.54004H7.03011C7.07178 2.54004 7.09782 2.55566 7.11344 2.58171C7.13949 2.61296 7.15511 2.639 7.15511 2.66504V9.68587C7.15511 9.72754 7.13949 9.764 7.11344 9.79004C7.09782 9.80566 7.07178 9.81087 7.03011 9.81087H5.82178Z" fill="#D72333"/>
<path d="M7.99902 7.37354C7.95736 7.37354 7.9209 7.36312 7.89486 7.33187C7.87923 7.30583 7.87402 7.27978 7.87402 7.24854V6.24854C7.87402 6.20687 7.87923 6.18083 7.89486 6.1652C7.9209 6.13916 7.95736 6.12354 7.99902 6.12354H10.6865C10.7126 6.12354 10.7386 6.13916 10.7699 6.1652C10.7959 6.18083 10.8115 6.20687 10.8115 6.24854V7.24854C10.8115 7.27978 10.7959 7.30583 10.7699 7.33187C10.7386 7.36312 10.7126 7.37354 10.6865 7.37354H7.99902Z" fill="#D72333"/>
<path d="M15.3068 3.68587C15.3068 3.71712 15.2912 3.74316 15.2651 3.76921C15.2495 3.80046 15.2235 3.81087 15.1818 3.81087H13.036C12.9943 3.81087 12.9735 3.8265 12.9735 3.85254V5.49837C12.9735 5.52962 12.9943 5.54004 13.036 5.54004H14.2651C14.2912 5.54004 14.3172 5.55566 14.3485 5.58171C14.3745 5.61296 14.3901 5.639 14.3901 5.66504V6.68587C14.3901 6.71712 14.3745 6.74316 14.3485 6.76921C14.3172 6.80046 14.2912 6.81087 14.2651 6.81087H13.036C12.9943 6.81087 12.9735 6.8265 12.9735 6.85254V9.68587C12.9735 9.72754 12.9578 9.764 12.9318 9.79004C12.9162 9.80566 12.8901 9.81087 12.8485 9.81087H11.6401C11.5985 9.81087 11.562 9.80566 11.536 9.79004C11.5203 9.764 11.5151 9.72754 11.5151 9.68587V2.66504C11.5151 2.639 11.5203 2.61296 11.536 2.58171C11.562 2.55566 11.5985 2.54004 11.6401 2.54004H15.1818C15.2235 2.54004 15.2495 2.55566 15.2651 2.58171C15.2912 2.61296 15.3068 2.639 15.3068 2.66504V3.68587Z" fill="#D72333"/>
<path d="M18.7355 9.81087C18.6626 9.81087 18.6157 9.77962 18.5897 9.70671L17.798 6.85254C17.7824 6.8265 17.7668 6.81087 17.7563 6.81087H17.4022C17.3605 6.81087 17.3397 6.8265 17.3397 6.85254V9.68587C17.3397 9.72754 17.3241 9.764 17.298 9.79004C17.2824 9.80566 17.2563 9.81087 17.2147 9.81087H16.0063C15.9647 9.81087 15.9282 9.80566 15.9022 9.79004C15.8866 9.764 15.8813 9.72754 15.8813 9.68587V2.66504C15.8813 2.639 15.8866 2.61296 15.9022 2.58171C15.9282 2.55566 15.9647 2.54004 16.0063 2.54004H18.0897C18.4751 2.54004 18.8188 2.639 19.1105 2.83171C19.4126 3.014 19.6418 3.26921 19.798 3.60254C19.9647 3.93587 20.048 4.31087 20.048 4.72754C20.048 5.14421 19.9699 5.514 19.8188 5.83171C19.6626 6.139 19.4491 6.37337 19.173 6.54004C19.1574 6.55566 19.1418 6.57129 19.1313 6.58171C19.1313 6.58171 19.1313 6.59212 19.1313 6.60254L20.0897 9.66504L20.1105 9.70671C20.1105 9.77962 20.0688 9.81087 19.9855 9.81087H18.7355ZM17.4022 3.81087C17.3605 3.81087 17.3397 3.8265 17.3397 3.85254V5.62337C17.3397 5.66504 17.3605 5.68587 17.4022 5.68587H17.8605C18.0688 5.68587 18.2407 5.60254 18.3813 5.43587C18.5168 5.25879 18.5897 5.02962 18.5897 4.74837C18.5897 4.45671 18.5168 4.22754 18.3813 4.06087C18.2407 3.89421 18.0688 3.81087 17.8605 3.81087H17.4022Z" fill="#D72333"/>
<path d="M24.8112 4.47754C25.2383 4.47754 25.5872 4.62337 25.8529 4.91504C26.1289 5.19629 26.2695 5.5765 26.2695 6.06087V8.31087C26.2695 8.78483 26.1341 9.16504 25.8737 9.45671C25.6081 9.74837 25.2539 9.89421 24.8112 9.89421C24.6289 9.89421 24.4466 9.85775 24.2695 9.79004C24.1029 9.72233 23.9466 9.61296 23.8112 9.45671C23.7956 9.44629 23.7799 9.44629 23.7695 9.45671C23.7695 9.45671 23.7695 9.46712 23.7695 9.47754V9.70671C23.7695 9.77962 23.7331 9.81087 23.6654 9.81087H23.1237C23.0508 9.81087 23.0195 9.77962 23.0195 9.70671V2.64421C23.0195 2.5765 23.0508 2.54004 23.1237 2.54004H23.6654C23.7331 2.54004 23.7695 2.5765 23.7695 2.64421V4.89421C23.7695 4.90983 23.7747 4.92546 23.7904 4.93587C23.8008 4.93587 23.8164 4.92546 23.832 4.89421C23.957 4.75879 24.1029 4.65462 24.2695 4.58171C24.4466 4.514 24.6289 4.47754 24.8112 4.47754ZM25.5195 6.12337C25.5195 5.82129 25.4362 5.5765 25.2695 5.39421C25.1029 5.21712 24.8841 5.12337 24.6237 5.12337C24.3737 5.12337 24.1654 5.21712 23.9987 5.39421C23.8424 5.5765 23.7695 5.82129 23.7695 6.12337V8.26921C23.7695 8.56087 23.8424 8.80046 23.9987 8.97754C24.1654 9.15983 24.3737 9.24837 24.6237 9.24837C24.8841 9.24837 25.1029 9.15983 25.2695 8.97754C25.4362 8.80046 25.5195 8.56087 25.5195 8.26921V6.12337Z" fill="#D72333"/>
<path d="M27.8646 3.6027C27.6823 3.6027 27.5365 3.55062 27.4271 3.43604C27.3281 3.32666 27.2812 3.18604 27.2812 3.01937C27.2812 2.8527 27.3281 2.71729 27.4271 2.6027C27.5365 2.49333 27.6823 2.43604 27.8646 2.43604C28.0312 2.43604 28.1615 2.49333 28.2604 2.6027C28.3698 2.71729 28.4271 2.8527 28.4271 3.01937C28.4271 3.18604 28.3698 3.32666 28.2604 3.43604C28.1615 3.55062 28.0312 3.6027 27.8646 3.6027ZM27.5938 9.81104C27.5208 9.81104 27.4896 9.77979 27.4896 9.70687V4.6652C27.4896 4.59749 27.5208 4.56104 27.5938 4.56104H28.1354C28.2031 4.56104 28.2396 4.59749 28.2396 4.6652V9.70687C28.2396 9.77979 28.2031 9.81104 28.1354 9.81104H27.5938Z" fill="#D72333"/>
<path d="M30.9388 9.85286C30.4648 9.85286 30.0846 9.73828 29.793 9.4987C29.5013 9.2487 29.3555 8.92578 29.3555 8.51953V8.4362C29.3555 8.36849 29.3867 8.33203 29.4596 8.33203H29.9596C30.0273 8.33203 30.0638 8.36849 30.0638 8.4362V8.4987C30.0638 8.72266 30.1471 8.91016 30.3138 9.0612C30.4805 9.21745 30.694 9.29036 30.9596 9.29036C31.2096 9.29036 31.4023 9.21745 31.543 9.0612C31.694 8.91016 31.7721 8.71745 31.7721 8.47786C31.7721 8.30078 31.7201 8.15495 31.6263 8.04036C31.543 7.91536 31.4284 7.82161 31.293 7.7487C31.168 7.68099 30.9805 7.59245 30.7305 7.47786C30.4492 7.36849 30.2201 7.26432 30.043 7.16536C29.8763 7.05599 29.7201 6.90495 29.5846 6.70703C29.4596 6.4987 29.3971 6.24349 29.3971 5.9362C29.3971 5.49349 29.5326 5.14453 29.8138 4.89453C30.0898 4.64453 30.4596 4.51953 30.918 4.51953C31.3867 4.51953 31.7617 4.65495 32.043 4.91536C32.319 5.16536 32.4596 5.51432 32.4596 5.95703V5.97786C32.4596 6.05078 32.4232 6.08203 32.3555 6.08203H31.8763C31.8034 6.08203 31.7721 6.05078 31.7721 5.97786V5.91536C31.7721 5.68099 31.694 5.48828 31.543 5.33203C31.3867 5.18099 31.1888 5.10286 30.9388 5.10286C30.6888 5.10286 30.4857 5.1862 30.3346 5.35286C30.1784 5.50912 30.1055 5.69661 30.1055 5.91536C30.1055 6.08203 30.1471 6.22786 30.2305 6.35286C30.3242 6.46745 30.4388 6.55599 30.5638 6.6237C30.6992 6.69661 30.8867 6.78516 31.1263 6.89453C31.4023 7.01953 31.6315 7.13932 31.8138 7.2487C32.0065 7.34766 32.1732 7.4987 32.3138 7.70703C32.4492 7.90495 32.5221 8.15495 32.5221 8.45703C32.5221 8.88932 32.3763 9.22786 32.0846 9.47786C31.8034 9.72786 31.4232 9.85286 30.9388 9.85286Z" fill="#D72333"/>
<path d="M35.9354 2.58171C35.9875 2.55566 36.0396 2.54004 36.0812 2.54004H37.3521C37.3781 2.54004 37.4041 2.55566 37.4354 2.58171C37.4614 2.61296 37.4771 2.639 37.4771 2.66504V9.68587C37.4771 9.72754 37.4614 9.764 37.4354 9.79004C37.4041 9.80566 37.3781 9.81087 37.3521 9.81087H36.1229C36.0916 9.81087 36.0656 9.80566 36.0396 9.79004C36.0083 9.764 35.9979 9.72754 35.9979 9.68587V4.01921C35.9979 3.99316 35.9823 3.97754 35.9562 3.97754L35.1437 4.08171H35.1229C35.05 4.08171 35.0187 4.04004 35.0187 3.95671L34.9771 3.06087C34.9771 2.99316 35.0083 2.94629 35.0812 2.91504L35.9354 2.58171Z" fill="#D72333"/>
<path d="M41.985 6.74837C42.0111 7.014 42.0267 7.264 42.0267 7.49837C42.0267 7.80566 42.0111 8.07129 41.985 8.29004C41.9277 8.79004 41.735 9.18587 41.4017 9.47754C41.0788 9.75879 40.6413 9.89421 40.0892 9.89421C39.5163 9.89421 39.0527 9.74316 38.6934 9.43587C38.3288 9.13379 38.1361 8.72754 38.11 8.22754C38.0788 8.03483 38.0684 7.83171 38.0684 7.62337C38.0684 7.54004 38.11 7.49837 38.1934 7.49837H39.4225C39.5059 7.49837 39.5475 7.54004 39.5475 7.62337C39.5475 7.77962 39.5527 7.92546 39.5684 8.06087C39.5944 8.24316 39.6517 8.389 39.735 8.49837C39.8288 8.59733 39.9486 8.64421 40.0892 8.64421C40.2246 8.64421 40.3392 8.59733 40.4225 8.49837C40.5163 8.40462 40.5788 8.26921 40.61 8.10254C40.6204 7.85254 40.6309 7.60254 40.6309 7.35254C40.6309 7.03483 40.6152 6.77962 40.5892 6.58171C40.5579 6.43066 40.5059 6.31087 40.4225 6.22754C40.3392 6.13379 40.2246 6.08171 40.0892 6.08171C39.9902 6.08171 39.8861 6.13379 39.7767 6.22754C39.735 6.25879 39.7038 6.26921 39.6934 6.26921C39.6621 6.26921 39.6361 6.24837 39.61 6.20671L38.985 5.58171C38.9538 5.55566 38.9434 5.51921 38.9434 5.47754C38.9434 5.4515 38.9486 5.42546 38.9642 5.39421L40.235 3.85254C40.2454 3.84212 40.2454 3.8265 40.235 3.81087C40.235 3.80046 40.2194 3.79004 40.1934 3.79004H38.3184C38.2871 3.79004 38.2611 3.78483 38.235 3.76921C38.2038 3.74316 38.1934 3.70671 38.1934 3.66504V2.66504C38.1934 2.639 38.2038 2.61296 38.235 2.58171C38.2611 2.55566 38.2871 2.54004 38.3184 2.54004H41.9017C41.9277 2.54004 41.9538 2.55566 41.985 2.58171C42.0111 2.61296 42.0267 2.639 42.0267 2.66504V3.70671C42.0267 3.764 42.0059 3.82129 41.9642 3.87337L40.7975 5.33171C40.7975 5.34733 40.7975 5.36296 40.7975 5.37337C40.7975 5.389 40.8027 5.39421 40.8184 5.39421C41.1204 5.42546 41.3809 5.56087 41.5892 5.81087C41.7975 6.06087 41.9277 6.37337 41.985 6.74837Z" fill="#D72333"/>
<path d="M45.236 4.39421C45.7048 4.39421 46.0589 4.55566 46.2985 4.87337C46.5329 5.18066 46.6527 5.61296 46.6527 6.16504V9.68587C46.6527 9.72754 46.637 9.764 46.611 9.79004C46.5798 9.80566 46.5537 9.81087 46.5277 9.81087H45.2985C45.2673 9.81087 45.2412 9.80566 45.2152 9.79004C45.1839 9.764 45.1735 9.72754 45.1735 9.68587V6.29004C45.1735 6.08171 45.1318 5.92546 45.0485 5.81087C44.9756 5.7015 44.8662 5.64421 44.7152 5.64421C44.5589 5.64421 44.4339 5.70671 44.3402 5.83171C44.2568 5.94629 44.2152 6.10254 44.2152 6.31087V9.68587C44.2152 9.72754 44.1995 9.764 44.1735 9.79004C44.1579 9.80566 44.1318 9.81087 44.0902 9.81087H42.8818C42.8402 9.81087 42.8037 9.80566 42.7777 9.79004C42.762 9.764 42.7568 9.72754 42.7568 9.68587V2.66504C42.7568 2.639 42.762 2.61296 42.7777 2.58171C42.8037 2.55566 42.8402 2.54004 42.8818 2.54004H44.0902C44.1318 2.54004 44.1579 2.55566 44.1735 2.58171C44.1995 2.61296 44.2152 2.639 44.2152 2.66504V4.79004C44.2152 4.82129 44.2204 4.83171 44.236 4.83171C44.262 4.83171 44.2881 4.82129 44.3193 4.79004C44.5381 4.52962 44.8454 4.39421 45.236 4.39421Z" fill="#D72333"/>
<path d="M49.5524 10.6444C49.4795 10.6444 49.4482 10.6079 49.4482 10.5402V2.01937C49.4482 1.96729 49.4795 1.93604 49.5524 1.93604H50.0732C50.141 1.93604 50.1774 1.96729 50.1774 2.01937V10.5402C50.1774 10.6079 50.141 10.6444 50.0732 10.6444H49.5524Z" fill="#D72333"/>
<path d="M54.9766 9.89453C54.5703 9.89453 54.2161 9.81641 53.9141 9.66536C53.6068 9.4987 53.3724 9.27995 53.2057 8.9987C53.0391 8.70703 52.9557 8.3737 52.9557 7.9987V7.6862C52.9557 7.66016 52.9609 7.63412 52.9766 7.60286C53.0026 7.57682 53.0391 7.5612 53.0807 7.5612H54.2682C54.3099 7.5612 54.3359 7.57682 54.3516 7.60286C54.3776 7.63412 54.3932 7.66016 54.3932 7.6862V7.91536C54.3932 8.13932 54.4453 8.32161 54.5599 8.45703C54.6693 8.58203 54.8099 8.64453 54.9766 8.64453C55.1432 8.64453 55.2786 8.58203 55.3932 8.45703C55.5026 8.33203 55.5599 8.16536 55.5599 7.95703C55.5599 7.7487 55.487 7.57682 55.3516 7.4362C55.2109 7.28516 54.9401 7.0612 54.5391 6.76953C54.1901 6.51953 53.9036 6.30078 53.6849 6.10286C53.4766 5.91016 53.2943 5.67578 53.1432 5.39453C52.987 5.10286 52.9141 4.77995 52.9141 4.41536C52.9141 3.82161 53.0911 3.34766 53.4557 2.9987C53.8307 2.63932 54.3203 2.45703 54.9349 2.45703C55.5286 2.45703 56.0182 2.64453 56.3932 3.01953C56.7682 3.38412 56.9557 3.86328 56.9557 4.45703V4.70703C56.9557 4.73828 56.9401 4.76432 56.9141 4.79036C56.8828 4.82161 56.8568 4.83203 56.8307 4.83203H55.6224C55.5911 4.83203 55.5651 4.82161 55.5391 4.79036C55.5078 4.76432 55.4974 4.73828 55.4974 4.70703V4.4362C55.4974 4.21745 55.4401 4.04036 55.3307 3.91536C55.2318 3.79036 55.1016 3.72786 54.9349 3.72786C54.7682 3.72786 54.6276 3.79036 54.5182 3.91536C54.4193 4.02995 54.3724 4.19661 54.3724 4.41536C54.3724 4.61328 54.4349 4.79036 54.5599 4.95703C54.6953 5.11328 54.9557 5.33203 55.3307 5.6237C55.7578 5.94661 56.0859 6.20182 56.3099 6.39453C56.5286 6.59245 56.6953 6.80599 56.8099 7.04036C56.9349 7.27995 56.9974 7.5612 56.9974 7.89453C56.9974 8.50912 56.8099 8.99349 56.4349 9.35286C56.0599 9.71745 55.5703 9.89453 54.9766 9.89453Z" fill="#D72333"/>
<path d="M60.7483 9.81087C60.665 9.81087 60.6233 9.77962 60.6233 9.70671L60.4567 8.70671C60.4567 8.66504 60.4358 8.64421 60.3942 8.64421H59.0817C59.04 8.64421 59.0192 8.66504 59.0192 8.70671L58.8525 9.70671C58.8369 9.77962 58.79 9.81087 58.7067 9.81087H57.4983C57.3994 9.81087 57.3629 9.76921 57.3942 9.68587L58.915 2.66504C58.9254 2.58171 58.9775 2.54004 59.0608 2.54004H60.4567C60.5244 2.54004 60.5661 2.58171 60.5817 2.66504L62.1025 9.68587L62.1234 9.72754C62.1234 9.78483 62.0817 9.81087 61.9984 9.81087H60.7483ZM59.2275 7.45671C59.2275 7.49837 59.2379 7.51921 59.2692 7.51921H60.1858C60.2275 7.51921 60.2379 7.49837 60.2275 7.45671L59.7483 4.62337C59.7483 4.61296 59.7379 4.60254 59.7275 4.60254C59.7119 4.60254 59.6963 4.61296 59.6858 4.62337L59.2275 7.45671Z" fill="#D72333"/>
<path d="M70.1965 9.66536C70.2225 9.69661 70.2381 9.72266 70.2381 9.7487C70.2381 9.79036 70.2017 9.8112 70.134 9.8112H68.8215C68.7485 9.8112 68.6965 9.79036 68.6548 9.7487L68.4048 9.41536C68.3892 9.40495 68.3683 9.40495 68.3423 9.41536C67.8267 9.73828 67.259 9.89453 66.634 9.89453C65.9933 9.89453 65.4933 9.74349 65.134 9.4362C64.7694 9.13412 64.5923 8.67578 64.5923 8.0612C64.5923 7.61849 64.686 7.24349 64.884 6.9362C65.0923 6.61849 65.3683 6.32682 65.7173 6.0612C65.7433 6.05078 65.7433 6.02995 65.7173 5.9987C65.3944 5.57161 65.186 5.2487 65.0923 5.04036C65.009 4.82161 64.9673 4.58203 64.9673 4.33203C64.9673 3.76432 65.1392 3.3112 65.4881 2.97786C65.8319 2.63412 66.3006 2.45703 66.884 2.45703C67.259 2.45703 67.5975 2.54036 67.9048 2.70703C68.2069 2.86328 68.4465 3.08203 68.6131 3.3737C68.7902 3.66536 68.884 3.9987 68.884 4.3737C68.884 4.79036 68.7694 5.16016 68.5506 5.47786C68.3423 5.78516 68.0506 6.07161 67.6756 6.33203C67.634 6.34766 67.6235 6.36849 67.6548 6.39453L67.9465 6.76953L68.259 7.1862L68.4256 7.39453C68.4517 7.42578 68.4777 7.42578 68.509 7.39453C68.66 7.20182 68.8215 6.94661 68.9881 6.6237C69.0142 6.55599 69.0715 6.54036 69.1548 6.58203L70.0506 7.08203C70.1183 7.1237 70.134 7.18099 70.0923 7.2487C69.8423 7.72266 69.5923 8.13412 69.3423 8.47786C69.311 8.49349 69.311 8.51432 69.3423 8.54036L70.1965 9.66536ZM66.9256 3.79036C66.7694 3.79036 66.6444 3.84766 66.5506 3.95703C66.4673 4.07161 66.4256 4.21745 66.4256 4.39453C66.4256 4.51953 66.4465 4.63932 66.4881 4.7487C66.5298 4.84766 66.634 5.01432 66.8006 5.2487C66.8267 5.26432 66.8527 5.26432 66.884 5.2487C67.2277 4.97266 67.4048 4.68099 67.4048 4.3737C67.4048 4.20703 67.3527 4.07161 67.259 3.95703C67.1756 3.84766 67.061 3.79036 66.9256 3.79036ZM66.7798 8.66536C66.9881 8.66536 67.2381 8.57682 67.5298 8.39453C67.5558 8.36849 67.5558 8.34245 67.5298 8.3112L67.2381 7.9362L66.6131 7.14453C66.5819 7.11849 66.5558 7.11849 66.5298 7.14453C66.2225 7.41016 66.0715 7.68099 66.0715 7.95703C66.0715 8.15495 66.134 8.32161 66.259 8.45703C66.384 8.59766 66.5558 8.66536 66.7798 8.66536Z" fill="#D72333"/>
<path d="M74.9829 9.89453C74.5767 9.89453 74.2225 9.81641 73.9204 9.66536C73.6131 9.4987 73.3787 9.27995 73.2121 8.9987C73.0454 8.70703 72.9621 8.3737 72.9621 7.9987V7.6862C72.9621 7.66016 72.9673 7.63412 72.9829 7.60286C73.009 7.57682 73.0454 7.5612 73.0871 7.5612H74.2746C74.3162 7.5612 74.3423 7.57682 74.3579 7.60286C74.384 7.63412 74.3996 7.66016 74.3996 7.6862V7.91536C74.3996 8.13932 74.4517 8.32161 74.5662 8.45703C74.6756 8.58203 74.8162 8.64453 74.9829 8.64453C75.1496 8.64453 75.285 8.58203 75.3996 8.45703C75.509 8.33203 75.5662 8.16536 75.5662 7.95703C75.5662 7.7487 75.4933 7.57682 75.3579 7.4362C75.2173 7.28516 74.9465 7.0612 74.5454 6.76953C74.1965 6.51953 73.91 6.30078 73.6912 6.10286C73.4829 5.91016 73.3006 5.67578 73.1496 5.39453C72.9933 5.10286 72.9204 4.77995 72.9204 4.41536C72.9204 3.82161 73.0975 3.34766 73.4621 2.9987C73.8371 2.63932 74.3267 2.45703 74.9412 2.45703C75.535 2.45703 76.0246 2.64453 76.3996 3.01953C76.7746 3.38412 76.9621 3.86328 76.9621 4.45703V4.70703C76.9621 4.73828 76.9465 4.76432 76.9204 4.79036C76.8892 4.82161 76.8631 4.83203 76.8371 4.83203H75.6287C75.5975 4.83203 75.5715 4.82161 75.5454 4.79036C75.5142 4.76432 75.5037 4.73828 75.5037 4.70703V4.4362C75.5037 4.21745 75.4465 4.04036 75.3371 3.91536C75.2381 3.79036 75.1079 3.72786 74.9412 3.72786C74.7746 3.72786 74.634 3.79036 74.5246 3.91536C74.4256 4.02995 74.3787 4.19661 74.3787 4.41536C74.3787 4.61328 74.4412 4.79036 74.5662 4.95703C74.7017 5.11328 74.9621 5.33203 75.3371 5.6237C75.7642 5.94661 76.0923 6.20182 76.3162 6.39453C76.535 6.59245 76.7017 6.80599 76.8162 7.04036C76.9412 7.27995 77.0037 7.5612 77.0037 7.89453C77.0037 8.50912 76.8162 8.99349 76.4412 9.35286C76.0662 9.71745 75.5767 9.89453 74.9829 9.89453Z" fill="#D72333"/>
<path d="M79.7126 9.89453C79.0719 9.89453 78.5563 9.70703 78.1709 9.33203C77.7959 8.95703 77.6084 8.45703 77.6084 7.83203V4.51953C77.6084 3.89453 77.7959 3.39453 78.1709 3.01953C78.5563 2.64453 79.0719 2.45703 79.7126 2.45703C80.3376 2.45703 80.8428 2.64453 81.2334 3.01953C81.6188 3.39453 81.8167 3.89453 81.8167 4.51953V7.83203C81.8167 8.45703 81.6188 8.95703 81.2334 9.33203C80.8428 9.70703 80.3376 9.89453 79.7126 9.89453ZM79.7126 8.64453C79.8896 8.64453 80.0355 8.57682 80.1501 8.4362C80.2751 8.30078 80.3376 8.11849 80.3376 7.89453V4.45703C80.3376 4.23828 80.2751 4.0612 80.1501 3.9362C80.0355 3.80078 79.8896 3.72786 79.7126 3.72786C79.5146 3.72786 79.3584 3.80078 79.2334 3.9362C79.1188 4.0612 79.0667 4.23828 79.0667 4.45703V7.89453C79.0667 8.11849 79.1188 8.30078 79.2334 8.4362C79.3584 8.57682 79.5146 8.64453 79.7126 8.64453Z" fill="#D72333"/>
<path d="M86.6593 4.47754C87.0864 4.47754 87.4354 4.62337 87.701 4.91504C87.9771 5.19629 88.1177 5.5765 88.1177 6.06087V8.31087C88.1177 8.78483 87.9823 9.16504 87.7218 9.45671C87.4562 9.74837 87.1021 9.89421 86.6593 9.89421C86.4771 9.89421 86.2948 9.85775 86.1177 9.79004C85.951 9.72233 85.7948 9.61296 85.6593 9.45671C85.6437 9.44629 85.6281 9.44629 85.6177 9.45671C85.6177 9.45671 85.6177 9.46712 85.6177 9.47754V9.70671C85.6177 9.77962 85.5812 9.81087 85.5135 9.81087H84.9718C84.8989 9.81087 84.8677 9.77962 84.8677 9.70671V2.64421C84.8677 2.5765 84.8989 2.54004 84.9718 2.54004H85.5135C85.5812 2.54004 85.6177 2.5765 85.6177 2.64421V4.89421C85.6177 4.90983 85.6229 4.92546 85.6385 4.93587C85.6489 4.93587 85.6646 4.92546 85.6802 4.89421C85.8052 4.75879 85.951 4.65462 86.1177 4.58171C86.2948 4.514 86.4771 4.47754 86.6593 4.47754ZM87.3677 6.12337C87.3677 5.82129 87.2843 5.5765 87.1177 5.39421C86.951 5.21712 86.7323 5.12337 86.4718 5.12337C86.2218 5.12337 86.0135 5.21712 85.8468 5.39421C85.6906 5.5765 85.6177 5.82129 85.6177 6.12337V8.26921C85.6177 8.56087 85.6906 8.80046 85.8468 8.97754C86.0135 9.15983 86.2218 9.24837 86.4718 9.24837C86.7323 9.24837 86.951 9.15983 87.1177 8.97754C87.2843 8.80046 87.3677 8.56087 87.3677 8.26921V6.12337Z" fill="#D72333"/>
<path d="M89.7132 3.6027C89.5309 3.6027 89.3851 3.55062 89.2757 3.43604C89.1768 3.32666 89.1299 3.18604 89.1299 3.01937C89.1299 2.8527 89.1768 2.71729 89.2757 2.6027C89.3851 2.49333 89.5309 2.43604 89.7132 2.43604C89.8799 2.43604 90.0101 2.49333 90.109 2.6027C90.2184 2.71729 90.2757 2.8527 90.2757 3.01937C90.2757 3.18604 90.2184 3.32666 90.109 3.43604C90.0101 3.55062 89.8799 3.6027 89.7132 3.6027ZM89.4424 9.81104C89.3695 9.81104 89.3382 9.77979 89.3382 9.70687V4.6652C89.3382 4.59749 89.3695 4.56104 89.4424 4.56104H89.984C90.0518 4.56104 90.0882 4.59749 90.0882 4.6652V9.70687C90.0882 9.77979 90.0518 9.81104 89.984 9.81104H89.4424Z" fill="#D72333"/>
<path d="M92.7869 9.85286C92.313 9.85286 91.9328 9.73828 91.6411 9.4987C91.3494 9.2487 91.2036 8.92578 91.2036 8.51953V8.4362C91.2036 8.36849 91.2349 8.33203 91.3078 8.33203H91.8078C91.8755 8.33203 91.9119 8.36849 91.9119 8.4362V8.4987C91.9119 8.72266 91.9953 8.91016 92.1619 9.0612C92.3286 9.21745 92.5422 9.29036 92.8078 9.29036C93.0578 9.29036 93.2505 9.21745 93.3911 9.0612C93.5422 8.91016 93.6203 8.71745 93.6203 8.47786C93.6203 8.30078 93.5682 8.15495 93.4744 8.04036C93.3911 7.91536 93.2765 7.82161 93.1411 7.7487C93.0161 7.68099 92.8286 7.59245 92.5786 7.47786C92.2974 7.36849 92.0682 7.26432 91.8911 7.16536C91.7244 7.05599 91.5682 6.90495 91.4328 6.70703C91.3078 6.4987 91.2453 6.24349 91.2453 5.9362C91.2453 5.49349 91.3807 5.14453 91.6619 4.89453C91.938 4.64453 92.3078 4.51953 92.7661 4.51953C93.2349 4.51953 93.6099 4.65495 93.8911 4.91536C94.1672 5.16536 94.3078 5.51432 94.3078 5.95703V5.97786C94.3078 6.05078 94.2713 6.08203 94.2036 6.08203H93.7244C93.6515 6.08203 93.6203 6.05078 93.6203 5.97786V5.91536C93.6203 5.68099 93.5422 5.48828 93.3911 5.33203C93.2349 5.18099 93.0369 5.10286 92.7869 5.10286C92.5369 5.10286 92.3338 5.1862 92.1828 5.35286C92.0265 5.50912 91.9536 5.69661 91.9536 5.91536C91.9536 6.08203 91.9953 6.22786 92.0786 6.35286C92.1724 6.46745 92.2869 6.55599 92.4119 6.6237C92.5474 6.69661 92.7349 6.78516 92.9744 6.89453C93.2505 7.01953 93.4797 7.13932 93.6619 7.2487C93.8547 7.34766 94.0213 7.4987 94.1619 7.70703C94.2974 7.90495 94.3703 8.15495 94.3703 8.45703C94.3703 8.88932 94.2244 9.22786 93.9328 9.47786C93.6515 9.72786 93.2713 9.85286 92.7869 9.85286Z" fill="#D72333"/>
<path d="M97.7894 2.58171C97.8415 2.55566 97.8936 2.54004 97.9352 2.54004H99.2061C99.2321 2.54004 99.2581 2.55566 99.2894 2.58171C99.3154 2.61296 99.3311 2.639 99.3311 2.66504V9.68587C99.3311 9.72754 99.3154 9.764 99.2894 9.79004C99.2581 9.80566 99.2321 9.81087 99.2061 9.81087H97.9769C97.9456 9.81087 97.9196 9.80566 97.8936 9.79004C97.8623 9.764 97.8519 9.72754 97.8519 9.68587V4.01921C97.8519 3.99316 97.8363 3.97754 97.8102 3.97754L96.9977 4.08171H96.9769C96.904 4.08171 96.8727 4.04004 96.8727 3.95671L96.8311 3.06087C96.8311 2.99316 96.8623 2.94629 96.9352 2.91504L97.7894 2.58171Z" fill="#D72333"/>
<path d="M104.443 6.66504C104.485 6.66504 104.511 6.68066 104.526 6.70671C104.552 6.72233 104.568 6.74837 104.568 6.79004V7.85254C104.568 7.88379 104.552 7.90983 104.526 7.93587C104.511 7.96712 104.485 7.97754 104.443 7.97754H104.131C104.089 7.97754 104.068 7.99316 104.068 8.01921V9.68587C104.068 9.72754 104.052 9.764 104.026 9.79004C104.011 9.80566 103.985 9.81087 103.943 9.81087H102.735C102.693 9.81087 102.657 9.80566 102.631 9.79004C102.615 9.764 102.61 9.72754 102.61 9.68587V8.01921C102.61 7.99316 102.589 7.97754 102.547 7.97754H99.9639C99.9222 7.97754 99.8857 7.96712 99.8597 7.93587C99.8441 7.90983 99.8389 7.88379 99.8389 7.85254V6.99837C99.8389 6.94629 99.8441 6.89421 99.8597 6.85254L101.235 2.64421C101.261 2.5765 101.308 2.54004 101.381 2.54004H102.693C102.735 2.54004 102.761 2.55566 102.776 2.58171C102.802 2.61296 102.808 2.64421 102.797 2.68587L101.547 6.60254C101.547 6.64421 101.558 6.66504 101.589 6.66504H102.547C102.589 6.66504 102.61 6.64421 102.61 6.60254V5.51921C102.61 5.49316 102.615 5.46712 102.631 5.43587C102.657 5.40983 102.693 5.39421 102.735 5.39421H103.943C103.985 5.39421 104.011 5.40983 104.026 5.43587C104.052 5.46712 104.068 5.49316 104.068 5.51921V6.60254C104.068 6.64421 104.089 6.66504 104.131 6.66504H104.443Z" fill="#D72333"/>
<path d="M107.588 4.39421C108.056 4.39421 108.41 4.55566 108.65 4.87337C108.884 5.18066 109.004 5.61296 109.004 6.16504V9.68587C109.004 9.72754 108.989 9.764 108.963 9.79004C108.931 9.80566 108.905 9.81087 108.879 9.81087H107.65C107.619 9.81087 107.593 9.80566 107.567 9.79004C107.535 9.764 107.525 9.72754 107.525 9.68587V6.29004C107.525 6.08171 107.483 5.92546 107.4 5.81087C107.327 5.7015 107.218 5.64421 107.067 5.64421C106.91 5.64421 106.785 5.70671 106.692 5.83171C106.608 5.94629 106.567 6.10254 106.567 6.31087V9.68587C106.567 9.72754 106.551 9.764 106.525 9.79004C106.509 9.80566 106.483 9.81087 106.442 9.81087H105.233C105.192 9.81087 105.155 9.80566 105.129 9.79004C105.114 9.764 105.108 9.72754 105.108 9.68587V2.66504C105.108 2.639 105.114 2.61296 105.129 2.58171C105.155 2.55566 105.192 2.54004 105.233 2.54004H106.442C106.483 2.54004 106.509 2.55566 106.525 2.58171C106.551 2.61296 106.567 2.639 106.567 2.66504V4.79004C106.567 4.82129 106.572 4.83171 106.588 4.83171C106.614 4.83171 106.64 4.82129 106.671 4.79004C106.89 4.52962 107.197 4.39421 107.588 4.39421Z" fill="#D72333"/>
</g>
</svg>
