<svg width="7" height="11" viewBox="0 0 7 11" fill="none" xmlns="http://www.w3.org/2000/svg">
<path d="M6.04167 0C6.09375 0 6.13542 0.0208333 6.16667 0.0625C6.20833 0.0937507 6.22917 0.135417 6.22917 0.1875V1.375C6.22917 1.43229 6.20833 1.47917 6.16667 1.52083C6.13542 1.55208 6.09375 1.5625 6.04167 1.5625H4.04167C4 1.5625 3.97917 1.59375 3.97917 1.64583V10.7917C3.97917 10.849 3.95833 10.8958 3.91667 10.9375C3.875 10.9688 3.83333 10.9792 3.79167 10.9792H2.33333C2.29167 10.9792 2.25 10.9688 2.20833 10.9375C2.16667 10.8958 2.14583 10.849 2.14583 10.7917V1.64583C2.14583 1.59375 2.11458 1.5625 2.0625 1.5625H0.1875C0.130208 1.5625 0.0833333 1.55208 0.0416667 1.52083C0.0104173 1.47917 0 1.43229 0 1.375V0.1875C0 0.135417 0.0104173 0.0937507 0.0416667 0.0625C0.0833333 0.0208333 0.130208 0 0.1875 0H6.04167Z" fill="white"/>
</svg>
