<svg width="6" height="12" viewBox="0 0 6 12" fill="none" xmlns="http://www.w3.org/2000/svg">
<path d="M3.59187 2.91667C4.1752 2.91667 4.63353 3.09896 4.96687 3.45833C5.3002 3.82292 5.46687 4.30729 5.46687 4.91667C5.46687 5 5.45124 5.13542 5.4252 5.3125L5.00853 8.70833C4.9252 9.41667 4.65957 9.99479 4.21687 10.4375C3.78457 10.8854 3.24291 11.1042 2.59187 11.1042C2.32624 11.1042 2.07103 11.0469 1.82103 10.9375C1.57103 10.8281 1.36791 10.6615 1.21687 10.4375C1.18562 10.4271 1.16478 10.4271 1.15437 10.4375C1.13874 10.4375 1.13353 10.4531 1.13353 10.4792L1.09187 10.8125C1.06062 10.9271 1.00853 10.9792 0.925199 10.9792H0.133532C0.0918657 10.9792 0.0554071 10.9688 0.0293657 10.9375C-0.00188494 10.8958 -0.00709294 10.8542 0.0085324 10.8125L1.3002 0.145833C1.31062 0.104167 1.33145 0.072916 1.3627 0.0416667C1.40437 0.0156253 1.44603 0 1.4877 0H2.25853C2.36791 0 2.40957 0.052084 2.38353 0.145833L1.9877 3.54167C1.97207 3.57292 1.97207 3.59375 1.9877 3.60417C2.01374 3.60417 2.03978 3.59375 2.07103 3.5625C2.27937 3.35417 2.51374 3.19792 2.77937 3.08333C3.05541 2.97396 3.32624 2.91667 3.59187 2.91667ZM4.34187 5.39583C4.34187 5.32813 4.34187 5.24479 4.34187 5.14583C4.34187 4.77083 4.2377 4.47396 4.02937 4.25C3.83145 4.01563 3.55541 3.89583 3.19603 3.89583C2.82103 3.89583 2.49291 4.03646 2.21687 4.3125C1.95124 4.59375 1.78978 4.95313 1.7377 5.39583L1.3627 8.64583C1.34707 8.70313 1.34187 8.79167 1.34187 8.91667C1.34187 9.28125 1.43562 9.57292 1.63353 9.79167C1.82624 10.0156 2.09707 10.125 2.44603 10.125C2.82103 10.125 3.14395 9.98958 3.4252 9.70833C3.71687 9.43229 3.88874 9.07813 3.94603 8.64583L4.34187 5.39583Z" fill="#D72333"/>
</svg>
