<svg width="5" height="11" viewBox="0 0 5 11" fill="none" xmlns="http://www.w3.org/2000/svg">
<path d="M2.52083 2.70833C3.13021 2.70833 3.625 2.91146 4 3.3125C4.375 3.71875 4.5625 4.26563 4.5625 4.95833V8.10417C4.5625 8.77083 4.375 9.3125 4 9.72917C3.625 10.1458 3.13021 10.3542 2.52083 10.3542C2.25521 10.3542 2 10.3021 1.75 10.2083C1.51042 10.099 1.29687 9.9375 1.10417 9.72917C1.08854 9.71875 1.07292 9.71875 1.0625 9.72917C1.04687 9.72917 1.04167 9.74479 1.04167 9.77083V10.0833C1.04167 10.1823 0.989583 10.2292 0.895833 10.2292H0.145833C0.0468747 10.2292 0 10.1823 0 10.0833V0.145833C0 0.052084 0.0468747 0 0.145833 0H0.895833C0.989583 0 1.04167 0.052084 1.04167 0.145833V3.29167C1.04167 3.32292 1.04687 3.34375 1.0625 3.35417C1.07292 3.35417 1.09375 3.34375 1.125 3.3125C1.30208 3.11979 1.51042 2.97396 1.75 2.875C2 2.76563 2.25521 2.70833 2.52083 2.70833ZM3.52083 5.02083C3.52083 4.60417 3.40104 4.27083 3.16667 4.02083C2.92708 3.76042 2.625 3.625 2.25 3.625C1.88542 3.625 1.59375 3.76042 1.375 4.02083C1.15104 4.27083 1.04167 4.60417 1.04167 5.02083V8.04167C1.04167 8.45833 1.15104 8.80208 1.375 9.0625C1.59375 9.3125 1.88542 9.4375 2.25 9.4375C2.625 9.4375 2.92708 9.3125 3.16667 9.0625C3.40104 8.80208 3.52083 8.45833 3.52083 8.04167V5.02083Z" fill="#D72333"/>
</svg>
