<svg width="18" height="34" viewBox="0 0 18 34" fill="none" xmlns="http://www.w3.org/2000/svg">
<path d="M11.2292 6.52083C10.3385 6.52083 9.57292 6.19792 8.9375 5.54167C8.29688 4.89063 7.97917 4.11458 7.97917 3.20833C7.97917 2.32292 8.29688 1.5625 8.9375 0.9375C9.57292 0.3125 10.3385 0 11.2292 0C12.1302 0 12.901 0.3125 13.5417 0.9375C14.1771 1.5625 14.5 2.32292 14.5 3.20833C14.5 4.11458 14.1771 4.89063 13.5417 5.54167C12.901 6.19792 12.1302 6.52083 11.2292 6.52083ZM5.875 26.75C5.80208 26.9896 5.77083 27.2031 5.77083 27.3958C5.77083 27.7604 5.90625 28.0729 6.1875 28.3333C6.46354 28.599 6.82292 28.7292 7.27083 28.7292C8.0625 28.7292 8.94792 28.2448 9.9375 27.2708C10.9375 26.2865 11.901 24.5156 12.8333 21.9583C13.0677 21.349 13.4271 20.8958 13.9167 20.6042C14.401 20.3125 14.9062 20.1667 15.4375 20.1667C16.0469 20.1667 16.5938 20.349 17.0833 20.7083C17.5833 21.0573 17.8333 21.5365 17.8333 22.1458C17.8333 22.3854 17.7917 22.6198 17.7083 22.8542C16.776 25.5938 15.7083 27.7292 14.5 29.2708C13.3021 30.8125 12.0417 31.8958 10.7083 32.5208C9.375 33.1458 8.05208 33.4583 6.75 33.4583C5.54167 33.4583 4.42188 33.2292 3.39583 32.7708C2.38021 32.3021 1.5625 31.6354 0.9375 30.7708C0.3125 29.8958 0 28.8333 0 27.5833C0 27.2396 0.072916 26.8281 0.208333 26.3542C0.333333 25.8854 0.453125 25.4479 0.5625 25.0417C0.979167 23.8073 1.42708 22.4896 1.91667 21.0833C2.41667 19.6823 2.90625 18.2813 3.39583 16.875C3.88021 15.474 4.33854 14.1458 4.77083 12.8958C5.08854 11.9792 5.54688 11.3021 6.14583 10.8542C6.73958 10.3958 7.33854 10.1667 7.9375 10.1667C8.63021 10.1667 9.25 10.3958 9.79167 10.8542C10.3333 11.3021 10.6042 11.9531 10.6042 12.8125C10.6042 13.0104 10.5625 13.2396 10.4792 13.5C10.4062 13.7656 10.3333 14.0313 10.25 14.2917L5.875 26.75Z" fill="#D72333"/>
</svg>
