<svg width="8" height="8" viewBox="0 0 8 8" fill="none" xmlns="http://www.w3.org/2000/svg">
<path d="M1.70833 7.39583C1.625 7.39583 1.56771 7.35417 1.54167 7.27083L0 0.166667V0.125C0 0.0416667 0.0416667 0 0.125 0H0.854167C0.947916 0 1 0.0416667 1 0.125L2.0625 5.70833C2.07292 5.73958 2.08333 5.75 2.08333 5.75C2.09375 5.75 2.10937 5.73958 2.125 5.70833L3.20833 0.125C3.21875 0.0416667 3.27083 0 3.35417 0H4.02083C4.11458 0 4.17188 0.0416667 4.1875 0.125L5.27083 5.70833C5.27083 5.73958 5.27604 5.75 5.29167 5.75C5.30208 5.75 5.3125 5.73958 5.3125 5.70833L6.39583 0.125C6.42188 0.0416667 6.47917 0 6.5625 0H7.27083C7.36458 0 7.40625 0.057292 7.39583 0.166667L5.85417 7.27083C5.83854 7.35417 5.78125 7.39583 5.6875 7.39583H4.9375C4.85417 7.39583 4.79688 7.35417 4.77083 7.27083L3.6875 1.91667C3.6875 1.89063 3.67708 1.875 3.66667 1.875C3.65104 1.875 3.64583 1.89063 3.64583 1.91667L2.60417 7.27083C2.58854 7.35417 2.53125 7.39583 2.4375 7.39583H1.70833Z" fill="#D72333"/>
</svg>
