<svg width="6" height="11" viewBox="0 0 6 11" fill="none" xmlns="http://www.w3.org/2000/svg">
<path d="M4.94922 10.7083C4.85026 10.7083 4.79297 10.6615 4.78255 10.5625L4.38672 8.66667C4.38672 8.65625 4.3763 8.64063 4.36589 8.625C4.35026 8.61458 4.33464 8.60417 4.32422 8.60417H1.55339C1.52214 8.60417 1.5013 8.61458 1.49089 8.625C1.47526 8.64063 1.47005 8.65625 1.47005 8.66667L1.09505 10.5625C1.07943 10.6615 1.02214 10.7083 0.928386 10.7083H0.136719C0.079427 10.7083 0.0377603 10.6979 0.011719 10.6667C-0.00390633 10.6406 -0.00390633 10.599 0.011719 10.5417L2.30339 0.145833C2.3138 0.0520827 2.37109 0 2.47005 0H3.38672C3.48047 0 3.53776 0.0520827 3.55339 0.145833L5.86589 10.5417V10.5625C5.86589 10.6615 5.82422 10.7083 5.74089 10.7083H4.94922ZM1.67839 7.66667C1.67839 7.70833 1.6888 7.72917 1.72005 7.72917H4.13672C4.16276 7.72917 4.17839 7.70833 4.17839 7.66667L2.94922 1.64583C2.93359 1.61979 2.91797 1.60417 2.90755 1.60417C2.90755 1.60417 2.89714 1.61979 2.88672 1.64583L1.67839 7.66667Z" fill="#D72333"/>
</svg>
