<svg width="6" height="11" viewBox="0 0 6 11" fill="none" xmlns="http://www.w3.org/2000/svg">
<path d="M2.875 10.4792C2.31771 10.4792 1.82292 10.3646 1.39583 10.1458C0.963541 9.91146 0.630208 9.59375 0.395833 9.1875C0.156249 8.78646 0.0416667 8.32292 0.0416667 7.79167V7.375C0.0416667 7.32292 0.052084 7.28125 0.0833333 7.25C0.125 7.20833 0.166667 7.1875 0.208333 7.1875H1.89583C1.94792 7.1875 1.98958 7.20833 2.02083 7.25C2.0625 7.28125 2.08333 7.32292 2.08333 7.375V7.6875C2.08333 7.99479 2.15625 8.24479 2.3125 8.4375C2.46354 8.61979 2.65625 8.70833 2.89583 8.70833C3.13021 8.70833 3.32292 8.61979 3.47917 8.4375C3.63021 8.26042 3.70833 8.03125 3.70833 7.75C3.70833 7.45833 3.60937 7.20833 3.41667 7C3.21875 6.79167 2.83854 6.47917 2.27083 6.0625C1.78125 5.71875 1.38542 5.41146 1.08333 5.14583C0.791667 4.86979 0.531249 4.53125 0.3125 4.125C0.104167 3.72396 0 3.26042 0 2.72917C0 1.91146 0.255208 1.25 0.770833 0.75C1.28125 0.25 1.96354 0 2.8125 0C3.67187 0 4.35938 0.260417 4.875 0.770833C5.40104 1.28646 5.66667 1.96875 5.66667 2.8125V3.16667C5.66667 3.20833 5.64583 3.25 5.60417 3.29167C5.57292 3.32292 5.54167 3.33333 5.5 3.33333H3.8125C3.77083 3.33333 3.72917 3.32292 3.6875 3.29167C3.65625 3.25 3.64583 3.20833 3.64583 3.16667V2.77083C3.64583 2.46875 3.56771 2.22396 3.41667 2.04167C3.26042 1.86458 3.0625 1.77083 2.8125 1.77083C2.58854 1.77083 2.40104 1.85417 2.25 2.02083C2.10937 2.1875 2.04167 2.42708 2.04167 2.72917C2.04167 3.02083 2.13021 3.28646 2.3125 3.52083C2.48958 3.74479 2.85937 4.05208 3.41667 4.4375C4.01042 4.89583 4.46354 5.26563 4.77083 5.54167C5.07292 5.82292 5.3125 6.125 5.47917 6.45833C5.65625 6.79167 5.75 7.19792 5.75 7.66667C5.75 8.53125 5.48438 9.21875 4.95833 9.72917C4.42708 10.2292 3.73437 10.4792 2.875 10.4792Z" fill="#D72333"/>
</svg>
