<svg width="3" height="12" viewBox="0 0 3 12" fill="none" xmlns="http://www.w3.org/2000/svg">
<path d="M1.72917 0.0416667C1.79687 0.0156253 1.86458 0 1.9375 0H2.79167C2.90104 0 2.95833 0.052084 2.95833 0.145833V10.9375C2.95833 11.0521 2.90104 11.1042 2.79167 11.1042H2C1.88542 11.1042 1.83333 11.0521 1.83333 10.9375V1.33333C1.83333 1.30729 1.82292 1.29167 1.8125 1.29167C1.79687 1.28125 1.77604 1.27083 1.75 1.27083L0.270833 1.77083L0.208333 1.79167C0.135416 1.79167 0.0885413 1.74479 0.0625 1.64583L0 1.0625V1.02083C0 0.968751 0.0312507 0.916667 0.104167 0.875L1.72917 0.0416667Z" fill="#D72333"/>
</svg>
