<svg width="6" height="11" viewBox="0 0 6 11" fill="none" xmlns="http://www.w3.org/2000/svg">
<path d="M0.166667 10.9792C0.0520827 10.9792 0 10.9271 0 10.8125V0.145833C0 0.052084 0.0520827 0 0.166667 0H2.58333C3.38542 0 4.02604 0.265625 4.5 0.791667C4.98438 1.32292 5.22917 2.03125 5.22917 2.91667V8.0625C5.22917 8.95313 4.98438 9.66146 4.5 10.1875C4.02604 10.7188 3.38542 10.9792 2.58333 10.9792H0.166667ZM1.125 9.9375C1.125 9.97917 1.14583 10 1.1875 10H2.5625C3.02083 10 3.38542 9.82292 3.66667 9.45833C3.94271 9.09896 4.08854 8.61979 4.10417 8.02083V2.95833C4.10417 2.34896 3.96354 1.86979 3.6875 1.52083C3.42187 1.16146 3.04687 0.979167 2.5625 0.979167H1.1875C1.14583 0.979167 1.125 1 1.125 1.04167V9.9375Z" fill="#D72333"/>
</svg>
