<svg width="5" height="8" viewBox="0 0 5 8" fill="none" xmlns="http://www.w3.org/2000/svg">
<path d="M2.47917 0C3.15625 0 3.69792 0.223959 4.10417 0.666667C4.52083 1.11458 4.72917 1.70313 4.72917 2.4375V7.375C4.72917 7.47396 4.67708 7.52083 4.58333 7.52083H3.83333C3.73437 7.52083 3.6875 7.47396 3.6875 7.375V6.9375C3.6875 6.92708 3.67708 6.91667 3.66667 6.91667C3.65104 6.90625 3.63021 6.90625 3.60417 6.91667C3.23958 7.40625 2.70833 7.64583 2 7.64583C1.45833 7.64583 0.984375 7.49479 0.583333 7.1875C0.192708 6.86979 0 6.32292 0 5.54167C0 4.72396 0.234375 4.11979 0.708333 3.72917C1.19271 3.34375 1.82292 3.14583 2.60417 3.14583H3.625C3.66667 3.14583 3.6875 3.125 3.6875 3.08333V2.52083C3.6875 2.03646 3.57292 1.64583 3.35417 1.35417C3.13021 1.0625 2.82292 0.916667 2.4375 0.916667C2.14583 0.916667 1.89583 1.01563 1.6875 1.20833C1.47917 1.40625 1.35417 1.65625 1.3125 1.95833C1.3125 2.05729 1.26042 2.10417 1.16667 2.10417L0.354167 2.08333C0.296875 2.08333 0.255208 2.07292 0.229167 2.04167C0.213541 2.01563 0.213541 1.97917 0.229167 1.9375C0.270833 1.35417 0.5 0.890625 0.916667 0.541667C1.33333 0.182292 1.85417 0 2.47917 0ZM2.20833 6.72917C2.60937 6.72917 2.95833 6.60417 3.25 6.35417C3.54167 6.09375 3.6875 5.72917 3.6875 5.27083V4.04167C3.6875 4 3.66667 3.97917 3.625 3.97917H2.58333C2.125 3.97917 1.75521 4.10417 1.47917 4.35417C1.19792 4.60417 1.0625 4.97396 1.0625 5.45833C1.0625 5.89063 1.16667 6.20833 1.375 6.41667C1.59375 6.625 1.875 6.72917 2.20833 6.72917Z" fill="#D72333"/>
</svg>
