<svg width="6" height="11" viewBox="0 0 6 11" fill="none" xmlns="http://www.w3.org/2000/svg">
<path d="M2.5 10.3542C1.75 10.3542 1.14583 10.099 0.6875 9.58333C0.229167 9.05729 0 8.36979 0 7.52083V0.145833C0 0.052084 0.0468747 0 0.145833 0H0.895833C0.989584 0 1.04167 0.052084 1.04167 0.145833V7.64583C1.04167 8.17708 1.17187 8.60417 1.4375 8.9375C1.71354 9.27083 2.06771 9.4375 2.5 9.4375C2.95833 9.4375 3.31771 9.27083 3.58333 8.9375C3.85937 8.60417 4 8.17708 4 7.64583V0.145833C4 0.052084 4.04688 0 4.14583 0H4.89583C4.98958 0 5.04167 0.052084 5.04167 0.145833V7.52083C5.04167 8.36979 4.80208 9.05729 4.33333 9.58333C3.875 10.099 3.26042 10.3542 2.5 10.3542Z" fill="#D72333"/>
</svg>
