<svg width="5" height="11" viewBox="0 0 5 11" fill="none" xmlns="http://www.w3.org/2000/svg">
<path d="M5 7.45833C5 8.33333 4.76042 9.01563 4.29167 9.5C3.81771 9.98958 3.17708 10.2292 2.375 10.2292H0.145833C0.0468747 10.2292 0 10.1823 0 10.0833V0.145833C0 0.052084 0.0468747 0 0.145833 0H2.25C3.08333 0 3.73437 0.229167 4.20833 0.6875C4.69271 1.14583 4.9375 1.80729 4.9375 2.66667C4.9375 3.76563 4.53125 4.51042 3.72917 4.89583C3.69792 4.91146 3.6875 4.92708 3.6875 4.9375C3.6875 4.95313 3.69271 4.95833 3.70833 4.95833C4.56771 5.45833 5 6.29167 5 7.45833ZM1.08333 0.895833C1.04167 0.895833 1.02083 0.916667 1.02083 0.958333V4.47917C1.02083 4.52083 1.04167 4.54167 1.08333 4.54167H2.25C2.77604 4.54167 3.1875 4.39063 3.47917 4.08333C3.77083 3.76563 3.91667 3.32292 3.91667 2.75C3.91667 2.16667 3.77083 1.71875 3.47917 1.39583C3.1875 1.0625 2.77604 0.895833 2.25 0.895833H1.08333ZM2.29167 9.3125C2.81771 9.3125 3.22917 9.14063 3.52083 8.79167C3.8125 8.44792 3.95833 7.95833 3.95833 7.33333C3.95833 6.69792 3.8125 6.20313 3.52083 5.85417C3.22917 5.51042 2.81771 5.33333 2.29167 5.33333H1.08333C1.04167 5.33333 1.02083 5.35417 1.02083 5.39583V9.25C1.02083 9.29167 1.04167 9.3125 1.08333 9.3125H2.29167Z" fill="#D72333"/>
</svg>
