<svg width="5" height="11" viewBox="0 0 5 11" fill="none" xmlns="http://www.w3.org/2000/svg">
<path d="M2.8125 2.9375C3.44792 2.9375 3.94271 3.16146 4.29167 3.60417C4.65104 4.03646 4.83333 4.64063 4.83333 5.41667V10.8125C4.83333 10.9271 4.77604 10.9792 4.66667 10.9792H3.875C3.76042 10.9792 3.70833 10.9271 3.70833 10.8125V5.52083C3.70833 5.01042 3.59375 4.61458 3.375 4.33333C3.15104 4.04167 2.83854 3.89583 2.4375 3.89583C2.02083 3.89583 1.69271 4.05208 1.45833 4.35417C1.21875 4.66146 1.10417 5.07813 1.10417 5.60417V10.8125C1.10417 10.9271 1.05208 10.9792 0.958333 10.9792H0.145833C0.0468747 10.9792 0 10.9271 0 10.8125V0.145833C0 0.052084 0.0468747 0 0.145833 0H0.958333C1.05208 0 1.10417 0.052084 1.10417 0.145833V3.70833C1.10417 3.72396 1.10937 3.73958 1.125 3.75C1.15104 3.76563 1.17187 3.75 1.1875 3.70833C1.38021 3.45833 1.61458 3.27083 1.89583 3.14583C2.1875 3.01042 2.48958 2.9375 2.8125 2.9375Z" fill="#D72333"/>
</svg>
