<svg width="7" height="11" viewBox="0 0 7 11" fill="none" xmlns="http://www.w3.org/2000/svg">
<path d="M2.45833 10.9792C2.34375 10.9792 2.27604 10.9271 2.25 10.8125L0 0.208333V0.145833C0 0.052084 0.052084 0 0.166667 0H2.1875C2.3125 0 2.38021 0.057292 2.39583 0.166667L3.47917 7.08333C3.47917 7.125 3.48437 7.14583 3.5 7.14583C3.52604 7.14583 3.54687 7.125 3.5625 7.08333L4.625 0.166667C4.625 0.057292 4.6875 0 4.8125 0H6.79167C6.91667 0 6.96354 0.072916 6.9375 0.208333L4.6875 10.8125C4.65625 10.9271 4.58854 10.9792 4.47917 10.9792H2.45833Z" fill="#D72333"/>
</svg>
