<svg width="9" height="11" viewBox="0 0 9 11" fill="none" xmlns="http://www.w3.org/2000/svg">
<path d="M1.16667 10.2292C1.10937 10.2292 1.06771 10.2083 1.04167 10.1667C1.01042 10.125 1.00521 10.0781 1.02083 10.0208L3.41667 1.85417C3.42708 1.80208 3.40625 1.77083 3.35417 1.77083H1.75C1.69271 1.77083 1.66667 1.79167 1.66667 1.83333V2.35417C1.66667 2.39583 1.64583 2.4375 1.60417 2.47917C1.57292 2.51042 1.54167 2.52083 1.5 2.52083H0.1875C0.130208 2.52083 0.0833333 2.51042 0.0416667 2.47917C0.0104173 2.4375 0 2.39583 0 2.35417L0.0208333 0.166667C0.0208333 0.125 0.0312493 0.0937507 0.0625 0.0625C0.104167 0.0208333 0.145833 0 0.1875 0H5.4375C5.48958 0 5.53125 0.0208333 5.5625 0.0625C5.60417 0.0937507 5.625 0.125 5.625 0.166667V1.66667C5.625 1.69792 5.60938 1.76042 5.58333 1.85417L3.16667 10.0833C3.13542 10.1823 3.07292 10.2292 2.97917 10.2292H1.16667Z" fill="#D72333"/>
<path d="M7.41325 10.2707C7.07992 10.2707 6.79867 10.1665 6.57992 9.95817C6.35596 9.73942 6.24658 9.45817 6.24658 9.12484C6.24658 8.78109 6.35075 8.49984 6.55908 8.2915C6.77783 8.08317 7.06429 7.979 7.41325 7.979C7.74658 7.979 8.01742 8.08317 8.22575 8.2915C8.4445 8.49984 8.55908 8.78109 8.55908 9.12484C8.55908 9.45817 8.4445 9.73942 8.22575 9.95817C8.01742 10.1665 7.74658 10.2707 7.41325 10.2707Z" fill="#D72333"/>
</svg>
