<svg width="5" height="11" viewBox="0 0 5 11" fill="none" xmlns="http://www.w3.org/2000/svg">
<path d="M2.47917 10.4792C1.72917 10.4792 1.125 10.25 0.666667 9.79167C0.218751 9.33333 0 8.71875 0 7.9375V2.52083C0 1.76042 0.218751 1.14583 0.666667 0.6875C1.125 0.229167 1.72917 0 2.47917 0C3.23958 0 3.84375 0.229167 4.29167 0.6875C4.75 1.13542 4.97917 1.74479 4.97917 2.52083V2.77083C4.97917 2.86979 4.92708 2.91667 4.83333 2.91667L4.0625 2.95833C3.96354 2.95833 3.91667 2.91146 3.91667 2.8125V2.4375C3.91667 1.97917 3.78125 1.61458 3.52083 1.33333C3.27083 1.05729 2.92187 0.916667 2.47917 0.916667C2.04687 0.916667 1.69271 1.05729 1.41667 1.33333C1.15104 1.61458 1.02083 1.97917 1.02083 2.4375V8.02083C1.02083 8.47917 1.15104 8.85417 1.41667 9.14583C1.69271 9.42708 2.04687 9.5625 2.47917 9.5625C2.92187 9.5625 3.27083 9.42708 3.52083 9.14583C3.78125 8.85417 3.91667 8.47917 3.91667 8.02083V7.66667C3.91667 7.57292 3.96354 7.52083 4.0625 7.52083L4.83333 7.5625C4.92708 7.5625 4.97917 7.61458 4.97917 7.70833V7.9375C4.97917 8.71875 4.75 9.33333 4.29167 9.79167C3.83333 10.25 3.22917 10.4792 2.47917 10.4792Z" fill="#D72333"/>
</svg>
