<svg width="62" height="23" viewBox="0 0 62 23" fill="none" xmlns="http://www.w3.org/2000/svg">
<mask id="mask0_24_7801" style="mask-type:luminance" maskUnits="userSpaceOnUse" x="0" y="0" width="62" height="23">
<path d="M61.3333 0H0V22.6667H61.3333V0Z" fill="white"/>
</mask>
<g mask="url(#mask0_24_7801)">
<mask id="mask1_24_7801" style="mask-type:luminance" maskUnits="userSpaceOnUse" x="0" y="2" width="4" height="9">
<path d="M0.21875 2.6665H4V10.6665H0.21875V2.6665Z" fill="white"/>
</mask>
<g mask="url(#mask1_24_7801)">
<path d="M2.24593 9.40527C1.7876 9.40527 1.41781 9.25944 1.14176 8.96777C0.860515 8.66569 0.725098 8.27507 0.725098 7.80111V4.53027C0.725098 4.0459 0.860515 3.65527 1.14176 3.36361C1.41781 3.06152 1.7876 2.90527 2.24593 2.90527C2.70426 2.90527 3.06885 3.06152 3.3501 3.36361C3.64176 3.65527 3.7876 4.0459 3.7876 4.53027V7.80111C3.7876 8.27507 3.64176 8.66569 3.3501 8.96777C3.06885 9.25944 2.70426 9.40527 2.24593 9.40527ZM2.24593 8.84277C2.52197 8.84277 2.73552 8.75423 2.89176 8.57194C3.05843 8.39486 3.14176 8.14486 3.14176 7.82194V4.48861C3.14176 4.18652 3.05843 3.94173 2.89176 3.75944C2.73552 3.56673 2.52197 3.46777 2.24593 3.46777C1.98031 3.46777 1.76676 3.56673 1.6001 3.75944C1.43343 3.94173 1.3501 4.18652 1.3501 4.48861V7.82194C1.3501 8.14486 1.43343 8.39486 1.6001 8.57194C1.76676 8.75423 1.98031 8.84277 2.24593 8.84277Z" fill="white"/>
</g>
<path d="M5.11621 9.30127C4.95996 9.30127 4.83496 9.2596 4.74121 9.17627C4.65788 9.08252 4.61621 8.95752 4.61621 8.80127C4.61621 8.65023 4.65788 8.53044 4.74121 8.4471C4.83496 8.35335 4.95996 8.30127 5.11621 8.30127C5.25163 8.30127 5.37142 8.35335 5.47038 8.4471C5.56413 8.53044 5.61621 8.65023 5.61621 8.80127C5.61621 8.95752 5.56413 9.08252 5.47038 9.17627C5.37142 9.2596 5.25163 9.30127 5.11621 9.30127Z" fill="white"/>
<path d="M7.06396 3.0096C7.10563 2.99919 7.1473 2.98877 7.18896 2.98877H7.66813C7.72022 2.98877 7.75146 3.02523 7.75146 3.09294V9.23877C7.75146 9.29606 7.72022 9.3221 7.66813 9.3221H7.2098C7.15251 9.3221 7.12646 9.29606 7.12646 9.23877V3.7596C7.12646 3.74919 7.11605 3.73877 7.10563 3.73877C7.09001 3.72835 7.0848 3.71794 7.0848 3.71794L6.23063 4.0096H6.18896C6.1473 4.0096 6.12646 3.98356 6.12646 3.92627L6.06396 3.59294V3.5721C6.06396 3.54606 6.0848 3.52002 6.12646 3.48877L7.06396 3.0096Z" fill="white"/>
<path d="M9.44157 8.71794C9.42594 8.73356 9.42074 8.74919 9.42074 8.7596C9.43115 8.7596 9.44678 8.7596 9.4624 8.7596H11.5874C11.6395 8.7596 11.6707 8.79085 11.6707 8.84294V9.23877C11.6707 9.29606 11.6395 9.3221 11.5874 9.3221H8.75407C8.68115 9.3221 8.6499 9.29606 8.6499 9.23877V8.8221C8.6499 8.78044 8.66032 8.73877 8.69157 8.6971C8.88428 8.40544 8.98844 8.23877 9.00407 8.1971C9.53011 7.36377 9.95199 6.68669 10.2749 6.15544C10.6499 5.48877 10.8374 4.9419 10.8374 4.5096C10.8374 4.20752 10.7645 3.96273 10.6291 3.78044C10.4884 3.58773 10.3009 3.48877 10.0666 3.48877C9.82699 3.48877 9.63949 3.58252 9.50407 3.7596C9.36344 3.94189 9.29574 4.18669 9.29574 4.48877V4.8221C9.29574 4.89502 9.26449 4.92627 9.2124 4.92627H8.73324C8.67594 4.92627 8.6499 4.89502 8.6499 4.8221V4.46794C8.66032 4.0096 8.80094 3.64502 9.06657 3.36377C9.32699 3.0721 9.67074 2.92627 10.0874 2.92627C10.5041 2.92627 10.8426 3.0721 11.1082 3.36377C11.3687 3.65544 11.5041 4.04085 11.5041 4.5096C11.5041 5.08252 11.2853 5.71794 10.8582 6.42627C10.6343 6.80127 10.327 7.29606 9.94157 7.90544L9.44157 8.71794Z" fill="white"/>
<path d="M15.2028 6.53044C15.2549 6.7544 15.2861 7.04606 15.2861 7.40544C15.2861 7.67106 15.2705 7.92106 15.2445 8.15544C15.1872 8.56169 15.0361 8.86377 14.7861 9.0721C14.5466 9.28044 14.234 9.3846 13.8486 9.3846C13.458 9.3846 13.1455 9.28044 12.9111 9.0721C12.6716 8.86377 12.5205 8.55127 12.4528 8.1346L12.4111 7.86377V7.84294C12.4111 7.79085 12.4372 7.7596 12.4945 7.7596H12.9528C13.0205 7.7596 13.057 7.79606 13.057 7.86377L13.0986 8.0721C13.182 8.58773 13.432 8.84294 13.8486 8.84294C14.0413 8.84294 14.2028 8.78044 14.3278 8.65544C14.4528 8.53044 14.5413 8.35335 14.5986 8.11377C14.6403 7.92106 14.6611 7.67627 14.6611 7.3846C14.6611 7.08252 14.6299 6.8221 14.5778 6.61377C14.4632 6.18669 14.2236 5.96794 13.8486 5.96794C13.432 5.96794 13.1716 6.17627 13.0778 6.59294C13.0466 6.65023 13.0153 6.67627 12.9736 6.67627H12.4945C12.4372 6.67627 12.4111 6.65023 12.4111 6.59294V3.09294C12.4111 3.02523 12.4372 2.98877 12.4945 2.98877H15.057C15.1247 2.98877 15.1611 3.02523 15.1611 3.09294V3.46794C15.1611 3.52523 15.1247 3.55127 15.057 3.55127H13.0986C13.0674 3.55127 13.057 3.56689 13.057 3.59294L13.0361 5.8221C13.0361 5.83773 13.0413 5.85335 13.057 5.86377C13.0674 5.86377 13.083 5.85856 13.0986 5.84294C13.182 5.70752 13.2966 5.60335 13.4528 5.53044C13.6195 5.4471 13.807 5.40544 14.0153 5.40544C14.333 5.40544 14.5882 5.5044 14.7861 5.6971C14.9945 5.89502 15.1299 6.17106 15.2028 6.53044Z" fill="white"/>
<path d="M16.2142 9.3221C16.1569 9.3221 16.1309 9.29606 16.1309 9.23877V3.09294C16.1309 3.02523 16.1569 2.98877 16.2142 2.98877H16.6725C16.7402 2.98877 16.7767 3.02523 16.7767 3.09294V9.23877C16.7767 9.29606 16.7402 9.3221 16.6725 9.3221H16.2142Z" fill="white"/>
<mask id="mask2_24_7801" style="mask-type:luminance" maskUnits="userSpaceOnUse" x="0" y="13" width="4" height="7">
<path d="M0.21875 13.333H4V19.9997H0.21875V13.333Z" fill="white"/>
</mask>
<g mask="url(#mask2_24_7801)">
<path d="M2.24593 19.9575C1.7876 19.9575 1.41781 19.8117 1.14176 19.52C0.860515 19.2179 0.725098 18.8273 0.725098 18.3534V15.0825C0.725098 14.5981 0.860515 14.2075 1.14176 13.9159C1.41781 13.6138 1.7876 13.4575 2.24593 13.4575C2.70426 13.4575 3.06885 13.6138 3.3501 13.9159C3.64176 14.2075 3.7876 14.5981 3.7876 15.0825V18.3534C3.7876 18.8273 3.64176 19.2179 3.3501 19.52C3.06885 19.8117 2.70426 19.9575 2.24593 19.9575ZM2.24593 19.395C2.52197 19.395 2.73552 19.3065 2.89176 19.1242C3.05843 18.9471 3.14176 18.6971 3.14176 18.3742V15.0409C3.14176 14.7388 3.05843 14.494 2.89176 14.3117C2.73552 14.119 2.52197 14.02 2.24593 14.02C1.98031 14.02 1.76676 14.119 1.6001 14.3117C1.43343 14.494 1.3501 14.7388 1.3501 15.0409V18.3742C1.3501 18.6971 1.43343 18.9471 1.6001 19.1242C1.76676 19.3065 1.98031 19.395 2.24593 19.395Z" fill="white"/>
</g>
<path d="M5.11621 19.8535C4.95996 19.8535 4.83496 19.8118 4.74121 19.7285C4.65788 19.6348 4.61621 19.5098 4.61621 19.3535C4.61621 19.2025 4.65788 19.0827 4.74121 18.9993C4.83496 18.9056 4.95996 18.8535 5.11621 18.8535C5.25163 18.8535 5.37142 18.9056 5.47038 18.9993C5.56413 19.0827 5.61621 19.2025 5.61621 19.3535C5.61621 19.5098 5.56413 19.6348 5.47038 19.7285C5.37142 19.8118 5.25163 19.8535 5.11621 19.8535Z" fill="white"/>
<path d="M7.12614 19.2702C7.11051 19.2858 7.10531 19.3014 7.10531 19.3118C7.11572 19.3118 7.13135 19.3118 7.14697 19.3118H9.27197C9.32406 19.3118 9.35531 19.3431 9.35531 19.3952V19.791C9.35531 19.8483 9.32406 19.8743 9.27197 19.8743H6.43864C6.36572 19.8743 6.33447 19.8483 6.33447 19.791V19.3743C6.33447 19.3327 6.34489 19.291 6.37614 19.2493C6.56885 18.9577 6.67301 18.791 6.68864 18.7493C7.21468 17.916 7.63656 17.2389 7.95947 16.7077C8.33447 16.041 8.52197 15.4941 8.52197 15.0618C8.52197 14.7598 8.44906 14.515 8.31364 14.3327C8.17301 14.14 7.98551 14.041 7.75114 14.041C7.51156 14.041 7.32406 14.1348 7.18864 14.3118C7.04801 14.4941 6.98031 14.7389 6.98031 15.041V15.3743C6.98031 15.4473 6.94906 15.4785 6.89697 15.4785H6.41781C6.36051 15.4785 6.33447 15.4473 6.33447 15.3743V15.0202C6.34489 14.5618 6.48551 14.1973 6.75114 13.916C7.01156 13.6243 7.35531 13.4785 7.77197 13.4785C8.18864 13.4785 8.52718 13.6243 8.79281 13.916C9.05322 14.2077 9.18864 14.5931 9.18864 15.0618C9.18864 15.6348 8.96989 16.2702 8.54281 16.9785C8.31885 17.3535 8.01156 17.8483 7.62614 18.4577L7.12614 19.2702Z" fill="white"/>
<path d="M12.8874 17.0827C12.9395 17.3066 12.9707 17.5983 12.9707 17.9577C12.9707 18.2233 12.9551 18.4733 12.929 18.7077C12.8717 19.1139 12.7207 19.416 12.4707 19.6243C12.2311 19.8327 11.9186 19.9368 11.5332 19.9368C11.1426 19.9368 10.8301 19.8327 10.5957 19.6243C10.3561 19.416 10.2051 19.1035 10.1374 18.6868L10.0957 18.416V18.3952C10.0957 18.3431 10.1217 18.3118 10.179 18.3118H10.6374C10.7051 18.3118 10.7415 18.3483 10.7415 18.416L10.7832 18.6243C10.8665 19.14 11.1165 19.3952 11.5332 19.3952C11.7259 19.3952 11.8874 19.3327 12.0124 19.2077C12.1374 19.0827 12.2259 18.9056 12.2832 18.666C12.3249 18.4733 12.3457 18.2285 12.3457 17.9368C12.3457 17.6348 12.3145 17.3743 12.2624 17.166C12.1478 16.7389 11.9082 16.5202 11.5332 16.5202C11.1165 16.5202 10.8561 16.7285 10.7624 17.1452C10.7311 17.2025 10.6999 17.2285 10.6582 17.2285H10.179C10.1217 17.2285 10.0957 17.2025 10.0957 17.1452V13.6452C10.0957 13.5775 10.1217 13.541 10.179 13.541H12.7415C12.8092 13.541 12.8457 13.5775 12.8457 13.6452V14.0202C12.8457 14.0775 12.8092 14.1035 12.7415 14.1035H10.7832C10.752 14.1035 10.7415 14.1191 10.7415 14.1452L10.7207 16.3743C10.7207 16.39 10.7259 16.4056 10.7415 16.416C10.752 16.416 10.7676 16.4108 10.7832 16.3952C10.8665 16.2598 10.9811 16.1556 11.1374 16.0827C11.304 15.9993 11.4915 15.9577 11.6999 15.9577C12.0176 15.9577 12.2728 16.0566 12.4707 16.2493C12.679 16.4473 12.8145 16.7233 12.8874 17.0827Z" fill="white"/>
<path d="M13.8988 19.8743C13.8415 19.8743 13.8154 19.8483 13.8154 19.791V13.6452C13.8154 13.5775 13.8415 13.541 13.8988 13.541H14.3571C14.4248 13.541 14.4613 13.5775 14.4613 13.6452V19.791C14.4613 19.8483 14.4248 19.8743 14.3571 19.8743H13.8988Z" fill="white"/>
</g>
</svg>
