<svg width="6" height="13" viewBox="0 0 6 13" fill="none" xmlns="http://www.w3.org/2000/svg">
<path d="M2.97917 3.22917C3.71354 3.22917 4.30208 3.47396 4.75 3.95833C5.19271 4.44792 5.41667 5.09375 5.41667 5.89583V9.64583C5.41667 10.4375 5.19271 11.0833 4.75 11.5833C4.31771 12.0729 3.72917 12.3125 2.97917 12.3125C2.67187 12.3125 2.375 12.25 2.08333 12.125C1.79167 12 1.53125 11.8229 1.3125 11.5833C1.29687 11.5573 1.27604 11.5521 1.25 11.5625C1.23437 11.5781 1.22917 11.5938 1.22917 11.6042V12C1.22917 12.1146 1.17187 12.1667 1.0625 12.1667H0.166667C0.052084 12.1667 0 12.1146 0 12V0.1875C0 0.0625 0.052084 0 0.166667 0H1.0625C1.17187 0 1.22917 0.0625 1.22917 0.1875V3.9375C1.22917 3.95313 1.23437 3.96875 1.25 3.97917C1.27604 3.99479 1.30208 3.98958 1.33333 3.95833C1.54167 3.72396 1.79167 3.54167 2.08333 3.41667C2.375 3.29167 2.67187 3.22917 2.97917 3.22917ZM4.1875 5.97917C4.1875 5.47917 4.04688 5.07813 3.77083 4.77083C3.48958 4.46875 3.125 4.3125 2.66667 4.3125C2.23437 4.3125 1.88542 4.46875 1.625 4.77083C1.35937 5.07813 1.22917 5.47917 1.22917 5.97917V9.58333C1.22917 10.0729 1.35937 10.4688 1.625 10.7708C1.88542 11.0781 2.23437 11.2292 2.66667 11.2292C3.125 11.2292 3.48958 11.0781 3.77083 10.7708C4.04688 10.4688 4.1875 10.0729 4.1875 9.58333V5.97917Z" fill="#D72333"/>
</svg>
