<svg width="6" height="12" viewBox="0 0 6 12" fill="none" xmlns="http://www.w3.org/2000/svg">
<path d="M0.395833 11.2708C0.364583 11.2708 0.338541 11.2552 0.3125 11.2292C0.296875 11.1979 0.291667 11.1667 0.291667 11.125V10.4792C0.291667 10.3646 0.343751 10.3125 0.458333 10.3125C0.791667 10.2969 1.04687 10.2344 1.22917 10.125C1.40625 10.0104 1.55208 9.80208 1.66667 9.5C1.79167 9.20833 1.91667 8.75 2.04167 8.125C2.04167 8.10938 2.04167 8.09375 2.04167 8.08333C2.04167 8.05729 2.04167 8.04167 2.04167 8.04167L0 0.1875V0.145833C0 0.0520827 0.0468747 0 0.145833 0H1.02083C1.11458 0 1.17187 0.0520827 1.1875 0.145833L2.58333 6.41667C2.59375 6.45833 2.60937 6.47917 2.625 6.47917C2.63542 6.47917 2.64583 6.45833 2.64583 6.41667L4.04167 0.145833C4.06771 0.0520827 4.13021 0 4.22917 0L5.10417 0.0208333C5.15625 0.0208333 5.19792 0.0416667 5.22917 0.0833333C5.25521 0.114584 5.26042 0.156251 5.25 0.208333L3.02083 8.79167C2.82292 9.5 2.63021 10.0208 2.4375 10.3542C2.25521 10.6979 2.02083 10.9375 1.72917 11.0625C1.4375 11.1979 1.02083 11.2708 0.479167 11.2708H0.395833Z" fill="#D72333"/>
</svg>
