<svg width="2" height="10" viewBox="0 0 2 10" fill="none" xmlns="http://www.w3.org/2000/svg">
<path d="M0.625 0C0.677084 0 0.718751 0.0312507 0.75 0.0833333C1.02604 0.614584 1.25 1.27083 1.41667 2.0625C1.59375 2.85417 1.6875 3.6875 1.6875 4.5625C1.6875 5.46875 1.59375 6.32813 1.41667 7.14583C1.25 7.95313 1.02083 8.625 0.729167 9.16667C0.697916 9.20833 0.656249 9.22917 0.604167 9.22917H0.104167C0.0625 9.22917 0.0312493 9.21354 0.0208333 9.1875C0.005208 9.17188 0.005208 9.15104 0.0208333 9.125C0.255208 8.55208 0.447916 7.875 0.604167 7.08333C0.770833 6.28125 0.854167 5.44792 0.854167 4.58333C0.854167 3.75 0.770833 2.94792 0.604167 2.16667C0.447916 1.375 0.255208 0.697917 0.0208333 0.125C0.005208 0.114584 0 0.0989587 0 0.0833333C0 0.057292 0.005208 0.0364587 0.0208333 0.0208333C0.0468747 0.010416 0.072916 0 0.104167 0H0.625Z" fill="#D72333"/>
</svg>
