<svg width="5" height="11" viewBox="0 0 5 11" fill="none" xmlns="http://www.w3.org/2000/svg">
<path d="M0.145833 10.9792C0.0468747 10.9792 0 10.9271 0 10.8125V0.145833C0 0.052084 0.0468747 0 0.145833 0H0.958333C1.05208 0 1.10417 0.052084 1.10417 0.145833V6.45833C1.10417 6.48958 1.10937 6.51042 1.125 6.52083C1.15104 6.52083 1.17187 6.51563 1.1875 6.5L3.54167 3.125C3.58333 3.07292 3.64583 3.04167 3.72917 3.04167H4.54167C4.60938 3.04167 4.65104 3.0625 4.66667 3.10417C4.69271 3.13542 4.6875 3.17708 4.64583 3.22917L3.08333 5.45833C3.05208 5.48958 3.05208 5.51563 3.08333 5.54167L4.91667 10.8125L4.9375 10.875C4.9375 10.9479 4.88542 10.9792 4.79167 10.9792H3.95833C3.875 10.9792 3.8125 10.9375 3.77083 10.8542L2.375 6.5C2.375 6.43229 2.34375 6.42708 2.29167 6.47917L1.14583 8.10417C1.11458 8.13542 1.10417 8.16146 1.10417 8.1875V10.8125C1.10417 10.9271 1.05208 10.9792 0.958333 10.9792H0.145833Z" fill="#D72333"/>
</svg>
