<svg width="8" height="11" viewBox="0 0 8 11" fill="none" xmlns="http://www.w3.org/2000/svg">
<path d="M4.1752 10.9792C4.07624 10.9792 4.01374 10.9271 3.9877 10.8125L3.34187 6.5C3.32624 6.45833 3.3002 6.4375 3.25853 6.4375H2.75853C2.70124 6.4375 2.6752 6.45833 2.6752 6.5L2.15437 10.7917C2.13874 10.849 2.1127 10.8958 2.07103 10.9375C2.02937 10.9688 1.97728 10.9792 1.9252 10.9792H0.154366C0.112699 10.9792 0.0710324 10.9688 0.0293657 10.9375C-0.00188494 10.8958 -0.00709294 10.849 0.0085324 10.7917L1.3002 0.1875C1.31062 0.135417 1.33145 0.0937507 1.3627 0.0625C1.40437 0.0208333 1.45124 0 1.50853 0H4.59187C5.34187 0 5.93562 0.25 6.38353 0.75C6.84187 1.23958 7.07103 1.89583 7.07103 2.72917C7.07103 2.97917 7.05541 3.17708 7.02937 3.3125C6.95645 3.91146 6.77937 4.45313 6.4877 4.9375C6.19603 5.41146 5.83145 5.78125 5.40437 6.04167C5.37312 6.05729 5.35228 6.07292 5.34187 6.08333C5.34187 6.09896 5.34707 6.11458 5.3627 6.125L6.19603 10.75V10.7917C6.19603 10.849 6.1752 10.8958 6.13353 10.9375C6.09187 10.9688 6.03978 10.9792 5.9877 10.9792H4.1752ZM3.32103 1.89583C3.26374 1.89583 3.2377 1.92708 3.2377 1.97917L2.90437 4.66667C2.88874 4.70833 2.90957 4.72917 2.96687 4.72917H3.65437C3.99812 4.72917 4.28978 4.57813 4.52937 4.27083C4.77937 3.95313 4.90437 3.53646 4.90437 3.02083C4.90437 2.67708 4.82103 2.40625 4.65437 2.20833C4.4877 2 4.26895 1.89583 4.00853 1.89583H3.32103Z" fill="white"/>
</svg>
