<svg width="5" height="11" viewBox="0 0 5 11" fill="none" xmlns="http://www.w3.org/2000/svg">
<path d="M4.08333 3.39583C4.08333 3.45313 4.0625 3.5 4.02083 3.54167C3.98958 3.57292 3.94792 3.58333 3.89583 3.58333H3.02083C2.96354 3.58333 2.9375 3.61458 2.9375 3.66667V7.41667C2.9375 7.72396 2.98958 7.9375 3.10417 8.0625C3.22917 8.17708 3.40104 8.22396 3.625 8.20833H3.75C3.80208 8.20833 3.84375 8.22917 3.875 8.27083C3.91667 8.3125 3.9375 8.36458 3.9375 8.41667V9.95833C3.9375 10.0156 3.91667 10.0625 3.875 10.1042C3.84375 10.1354 3.80208 10.1458 3.75 10.1458H3.10417C2.33854 10.1458 1.76042 10.0208 1.375 9.77083C0.984375 9.51042 0.791667 9.01042 0.791667 8.27083V3.66667C0.791667 3.61458 0.760416 3.58333 0.708333 3.58333H0.1875C0.130208 3.58333 0.0833333 3.57292 0.0416667 3.54167C0.010416 3.5 0 3.45313 0 3.39583V2.20833C0 2.15625 0.010416 2.11458 0.0416667 2.08333C0.0833333 2.04167 0.130208 2.02083 0.1875 2.02083H0.708333C0.760416 2.02083 0.791667 1.99479 0.791667 1.9375V0.1875C0.791667 0.135417 0.802083 0.0937507 0.833333 0.0625C0.875 0.0208333 0.921875 0 0.979167 0H2.75C2.80208 0 2.84375 0.0208333 2.875 0.0625C2.91667 0.0937507 2.9375 0.135417 2.9375 0.1875V1.9375C2.9375 1.99479 2.96354 2.02083 3.02083 2.02083H3.89583C3.94792 2.02083 3.98958 2.04167 4.02083 2.08333C4.0625 2.11458 4.08333 2.15625 4.08333 2.20833V3.39583Z" fill="#D72333"/>
</svg>
