<svg width="16" height="20" viewBox="0 0 16 20" fill="none" xmlns="http://www.w3.org/2000/svg">
<path d="M6.625 0.2936C6.95833 0.241517 7.29167 0.179016 7.625 0.1061C7.95833 0.0227664 8.29167 -0.00848295 8.625 0.00193305C8.98438 0.0175584 9.32292 0.0852664 9.64583 0.210266C9.97917 0.32485 10.3125 0.429016 10.6458 0.522766C10.9635 0.595682 11.2813 0.6686 11.6042 0.751933C11.9219 0.835266 12.2188 0.970682 12.5 1.14777C12.6771 1.2311 12.8542 1.33006 13.0208 1.43943C13.1875 1.55402 13.3542 1.6686 13.5208 1.7936C13.8802 2.03318 14.0729 2.36652 14.1042 2.7936C14.1302 3.22589 13.9792 3.57485 13.6458 3.83527C13.4479 3.96027 13.2604 4.05923 13.0833 4.12693C12.6094 4.30923 12.2292 4.28839 11.9375 4.06443C11.6458 3.84568 11.3438 3.56443 11.0417 3.2311L10.6667 3.4186C10.276 3.25193 9.88021 3.08527 9.47917 2.9186C9.08854 2.75193 8.6875 2.66339 8.27083 2.64777C7.89583 2.63735 7.52604 2.69985 7.16667 2.83527C6.80208 2.97589 6.42708 3.01235 6.04167 2.93943L5.14583 4.02277C5.17188 4.14777 5.21875 4.30923 5.29167 4.50193C5.375 4.69985 5.39583 4.86652 5.35417 5.00193C5.63021 5.39256 5.96875 5.7311 6.375 6.02277C6.79167 6.30402 7.21354 6.5436 7.64583 6.75193L8 6.64777C8.38542 6.84568 8.73958 7.03839 9.0625 7.2311C9.38021 7.42902 9.75521 7.53839 10.1875 7.56443L10.4792 8.14777L11.625 8.39777C11.8177 8.63735 12 8.80402 12.1667 8.89777C12.3438 8.9811 12.5938 9.08527 12.9167 9.21027L13.1042 9.7311L13.4583 9.81443L13.6875 10.4186C14.1458 10.6009 14.4427 10.9134 14.5833 11.3561C14.7188 11.804 14.8229 12.2259 14.8958 12.6269C14.9375 12.9082 14.9792 13.179 15.0208 13.4394C15.0625 13.7051 15.0469 13.9915 14.9792 14.2936C14.8385 14.9499 14.6563 15.5644 14.4375 16.1478C14.1979 16.1634 14.0469 16.2676 13.9792 16.4603C13.9219 16.6582 13.8594 16.8457 13.7917 17.0228C13.6094 17.4551 13.3021 17.7936 12.875 18.0436C12.3177 18.3509 11.7552 18.6165 11.1875 18.8353C10.6302 19.0436 10.0677 19.2936 9.5 19.5853C9.09375 19.4186 8.65104 19.3457 8.16667 19.3769C7.67708 19.4186 7.20833 19.4238 6.75 19.3978C6.31771 19.3561 5.85938 19.3665 5.375 19.4394C4.90104 19.5228 4.46354 19.4499 4.0625 19.2311C3.86458 19.1478 3.6875 19.0332 3.52083 18.8769C3.35417 18.7259 3.17187 18.6009 2.97917 18.5019C2.79687 18.3926 2.60417 18.3092 2.39583 18.2519C2.19792 18.1999 2.01042 18.1165 1.83333 18.0019C1.5 17.7519 1.19792 17.4811 0.9375 17.1894C0.6875 16.8978 0.375 16.6478 0 16.4394C0.0416667 16.179 0.0885413 15.9186 0.145833 15.6686C0.197917 15.4082 0.364584 15.2051 0.645833 15.0644C0.895833 14.9394 1.15625 14.8769 1.4375 14.8769C1.71354 14.8769 1.98437 14.8769 2.25 14.8769C2.40104 15.1165 2.5625 15.3457 2.72917 15.5644C2.90625 15.7884 3.13021 15.9603 3.39583 16.0853C3.67187 16.2103 3.96354 16.3092 4.27083 16.3769C4.57292 16.4499 4.85938 16.5749 5.125 16.7519L5.4375 16.6269L5.83333 16.9603C6.25 16.8769 6.67188 16.8665 7.10417 16.9186C7.54688 16.9603 7.96875 16.9499 8.375 16.8769C8.54167 16.8509 8.69792 16.8249 8.85417 16.7936C9.00521 16.7519 9.15104 16.679 9.29167 16.5644C9.40104 16.4811 9.5 16.3874 9.58333 16.2728C9.67708 16.1634 9.80208 16.1009 9.95833 16.0853C9.96875 15.7676 9.96875 15.4759 9.95833 15.2103C9.94271 14.9342 9.90104 14.6426 9.83333 14.3353C9.21875 13.9186 8.58333 13.5384 7.91667 13.1894C7.26042 12.8301 6.60938 12.4603 5.95833 12.0853C5.40104 11.7832 4.79688 11.5228 4.14583 11.3144C3.50521 11.1061 2.9375 10.7728 2.4375 10.3144C2.10417 10.3561 1.79687 10.2311 1.52083 9.93943C1.25521 9.64777 1.02604 9.31443 0.833333 8.93943C0.651041 8.55402 0.510416 8.24152 0.416667 8.00193C0.0937493 7.1686 0.005208 6.38735 0.145833 5.64777C0.281251 4.89777 0.427083 4.12173 0.583333 3.31443C0.708333 3.22068 0.838541 3.13735 0.979167 3.06443C1.13021 2.9811 1.25521 2.88735 1.35417 2.77277C1.44792 2.68943 1.53125 2.58527 1.60417 2.46027C1.67187 2.33527 1.75 2.22589 1.83333 2.12693C1.94271 2.01756 2.0625 1.93423 2.1875 1.87693C2.32292 1.80923 2.45833 1.72068 2.58333 1.6061C2.67708 1.52277 2.77083 1.43423 2.85417 1.33527C2.94792 1.24152 3.05208 1.15818 3.16667 1.08527C3.26042 1.00193 3.36458 0.929016 3.47917 0.8561C3.60417 0.788392 3.72917 0.7311 3.85417 0.689433C4.02083 0.621725 4.19271 0.600892 4.375 0.626933C4.55208 0.658184 4.72917 0.642558 4.89583 0.585266C5.04688 0.5436 5.17188 0.4811 5.27083 0.397766C5.36458 0.314433 5.46875 0.251933 5.58333 0.210266C5.76042 0.158184 5.9375 0.147766 6.10417 0.189433C6.27083 0.220682 6.44271 0.251933 6.625 0.2936Z" fill="#D72333"/>
</svg>
