<svg width="6" height="8" viewBox="0 0 6 8" fill="none" xmlns="http://www.w3.org/2000/svg">
<path d="M3.53255 0C4.05859 0 4.45443 0.161459 4.72005 0.479167C4.99609 0.802084 5.13672 1.26042 5.13672 1.85417C5.13672 1.96875 5.1263 2.14063 5.11589 2.375L4.49089 7.54167C4.45964 7.64063 4.40755 7.6875 4.32422 7.6875H3.57422C3.53255 7.6875 3.49609 7.67708 3.47005 7.64583C3.4388 7.61979 3.43359 7.58333 3.44922 7.54167L4.07422 2.45833C4.08464 2.30729 4.09505 2.19792 4.09505 2.125C4.09505 1.75 4.0013 1.45833 3.82422 1.25C3.65755 1.03125 3.40755 0.916667 3.07422 0.916667C2.69922 0.916667 2.3763 1.0625 2.11589 1.35417C1.86589 1.64583 1.70964 2.04167 1.65755 2.54167L1.03255 7.54167C1.01693 7.64063 0.959636 7.6875 0.865886 7.6875H0.115886C0.074219 7.6875 0.0377603 7.67708 0.011719 7.64583C-0.00390633 7.61979 -0.00390633 7.58333 0.011719 7.54167L0.907552 0.25C0.907552 0.208333 0.91797 0.177084 0.949219 0.145833C0.97526 0.119792 1.01693 0.104167 1.07422 0.104167H1.80339C1.88672 0.104167 1.92839 0.156249 1.92839 0.25L1.88672 0.729167C1.87109 0.744792 1.87109 0.760417 1.88672 0.770833C1.91276 0.786459 1.93359 0.781249 1.94922 0.75C2.15755 0.5 2.39193 0.3125 2.65755 0.1875C2.93359 0.0625 3.22526 0 3.53255 0Z" fill="#D51224"/>
</svg>
