<svg width="6" height="11" viewBox="0 0 6 11" fill="none" xmlns="http://www.w3.org/2000/svg">
<path d="M5.375 1.58333C5.375 1.64063 5.35417 1.6875 5.3125 1.72917C5.28125 1.76042 5.23958 1.77083 5.1875 1.77083H2.125C2.08333 1.77083 2.0625 1.79167 2.0625 1.83333V4.14583C2.0625 4.1875 2.08333 4.20833 2.125 4.20833H3.89583C3.9375 4.20833 3.96875 4.22917 4 4.27083C4.04167 4.30208 4.0625 4.34375 4.0625 4.39583V5.8125C4.0625 5.86979 4.04167 5.91146 4 5.9375C3.96875 5.96875 3.9375 5.97917 3.89583 5.97917H2.125C2.08333 5.97917 2.0625 6.01042 2.0625 6.0625V8.39583C2.0625 8.4375 2.08333 8.45833 2.125 8.45833H5.1875C5.23958 8.45833 5.28125 8.47917 5.3125 8.52083C5.35417 8.55208 5.375 8.58333 5.375 8.625V10.0625C5.375 10.1042 5.35417 10.1458 5.3125 10.1875C5.28125 10.2188 5.23958 10.2292 5.1875 10.2292H0.166667C0.125 10.2292 0.0833333 10.2188 0.0416667 10.1875C0.0104173 10.1458 0 10.1042 0 10.0625V0.166667C0 0.125 0.0104173 0.0937507 0.0416667 0.0625C0.0833333 0.0208333 0.125 0 0.166667 0H5.1875C5.23958 0 5.28125 0.0208333 5.3125 0.0625C5.35417 0.0937507 5.375 0.125 5.375 0.166667V1.58333Z" fill="#D72333"/>
</svg>
