<svg width="16" height="19" viewBox="0 0 16 19" fill="none" xmlns="http://www.w3.org/2000/svg">
<path d="M3.8125 18.625C3.64583 18.625 3.54687 18.5521 3.52083 18.3958L0 0.291667V0.25C0 0.0833333 0.0833333 0 0.25 0H1.64583C1.82292 0 1.92187 0.0833333 1.9375 0.25L4.4375 14.2292C4.46354 14.2708 4.48438 14.2917 4.5 14.2917C4.51042 14.2917 4.52604 14.2708 4.54167 14.2292L6.70833 0.25C6.73438 0.0833333 6.82292 0 6.97917 0H8.1875C8.35417 0 8.44271 0.0833333 8.45833 0.25L10.7292 14.2292C10.7396 14.2708 10.7552 14.2917 10.7708 14.2917C10.7812 14.2917 10.8021 14.2708 10.8333 14.2292L13.125 0.25C13.151 0.0833333 13.2344 0 13.375 0H14.7917C14.875 0 14.9375 0.0312507 14.9792 0.0833333C15.0312 0.140625 15.0521 0.208333 15.0417 0.291667L11.7292 18.3958C11.7135 18.5521 11.6146 18.625 11.4375 18.625H10.1458C9.98958 18.625 9.90104 18.5521 9.875 18.3958L7.64583 4.33333C7.61458 4.30729 7.58854 4.29167 7.5625 4.29167C7.53125 4.29167 7.52083 4.30729 7.52083 4.33333L5.35417 18.3958C5.32292 18.5521 5.23438 18.625 5.08333 18.625H3.8125Z" fill="#D72333"/>
</svg>
