<svg width="5" height="12" viewBox="0 0 5 12" fill="none" xmlns="http://www.w3.org/2000/svg">
<path d="M2.875 2.95833C3.51042 2.95833 4.00521 3.18229 4.35417 3.625C4.71354 4.07292 4.89583 4.6875 4.89583 5.47917V10.9375C4.89583 11.0521 4.84375 11.1042 4.75 11.1042H3.9375C3.82292 11.1042 3.77083 11.0521 3.77083 10.9375V5.58333C3.77083 5.05729 3.65104 4.65625 3.41667 4.375C3.19271 4.08333 2.88021 3.9375 2.47917 3.9375C2.0625 3.9375 1.73437 4.09896 1.5 4.41667C1.26042 4.72396 1.14583 5.14063 1.14583 5.66667V10.9375C1.14583 11.0521 1.08854 11.1042 0.979167 11.1042H0.166667C0.0520827 11.1042 0 11.0521 0 10.9375V0.145833C0 0.052084 0.0520827 0 0.166667 0H0.979167C1.08854 0 1.14583 0.052084 1.14583 0.145833V3.72917C1.14583 3.76042 1.15104 3.78125 1.16667 3.79167C1.19271 3.79167 1.20833 3.78125 1.20833 3.75C1.40104 3.48958 1.64583 3.29167 1.9375 3.16667C2.22917 3.03125 2.54167 2.95833 2.875 2.95833Z" fill="#D72333"/>
</svg>
