<svg width="192" height="14" viewBox="0 0 192 14" fill="none" xmlns="http://www.w3.org/2000/svg">
<mask id="mask0_25_16397" style="mask-type:luminance" maskUnits="userSpaceOnUse" x="0" y="0" width="192" height="14">
<path d="M192 0H0V13.3333H192V0Z" fill="white"/>
</mask>
<g mask="url(#mask0_25_16397)">
<path d="M3.11963 10.0343C3.06234 10.0343 3.02588 10.0031 3.01546 9.93018L1.61963 2.74268V2.72184C1.61963 2.65413 1.64567 2.61768 1.70296 2.61768H2.26546C2.33317 2.61768 2.37484 2.65413 2.39046 2.72184L3.39046 8.28434C3.39046 8.29997 3.39046 8.30518 3.39046 8.30518C3.40088 8.30518 3.4165 8.29997 3.43213 8.28434L4.2863 2.72184C4.29671 2.65413 4.33317 2.61768 4.39046 2.61768H4.86963C4.93734 2.61768 4.9738 2.65413 4.9738 2.72184L5.86963 8.28434C5.88005 8.29997 5.89046 8.30518 5.89046 8.30518C5.90088 8.30518 5.9113 8.29997 5.9113 8.28434L6.82796 2.72184C6.83838 2.65413 6.87484 2.61768 6.93213 2.61768H7.49463C7.5363 2.61768 7.56234 2.6333 7.57796 2.65934C7.58838 2.67497 7.5988 2.70101 7.5988 2.74268L6.2863 9.93018C6.27067 10.0031 6.229 10.0343 6.1613 10.0343H5.64046C5.58317 10.0343 5.54671 10.0031 5.5363 9.93018L4.6613 4.34684C4.64567 4.33643 4.63005 4.32601 4.61963 4.32601C4.604 4.32601 4.5988 4.33643 4.5988 4.34684L3.74463 9.93018C3.729 10.0031 3.69254 10.0343 3.64046 10.0343H3.11963Z" fill="#D51224"/>
<path d="M11.7339 7.53467C11.7339 7.60759 11.6974 7.63883 11.6297 7.63883H9.21305C9.1818 7.63883 9.17139 7.65446 9.17139 7.6805V8.45133C9.17139 8.75863 9.25472 9.00863 9.42139 9.20133C9.58805 9.38363 9.8068 9.47217 10.0881 9.47217C10.3068 9.47217 10.4943 9.40446 10.6506 9.26383C10.8172 9.12842 10.9214 8.94613 10.9631 8.72217C10.9891 8.65446 11.0308 8.618 11.0881 8.618L11.6089 8.63883C11.6349 8.63883 11.6558 8.65446 11.6714 8.6805C11.6974 8.71175 11.7131 8.73779 11.7131 8.76383C11.6558 9.1805 11.4839 9.51383 11.1922 9.76383C10.911 10.0034 10.5464 10.118 10.0881 10.118C9.58805 10.118 9.1818 9.97217 8.87972 9.6805C8.57243 9.37842 8.42139 8.98259 8.42139 8.493V6.22217C8.42139 5.73779 8.57243 5.34717 8.87972 5.0555C9.1818 4.75342 9.58805 4.59717 10.0881 4.59717C10.5881 4.59717 10.9839 4.75342 11.2756 5.0555C11.5776 5.34717 11.7339 5.73779 11.7339 6.22217V7.53467ZM10.0881 5.243C9.8068 5.243 9.58805 5.34196 9.42139 5.53467C9.25472 5.71696 9.17139 5.96175 9.17139 6.26383V6.97217C9.17139 7.00342 9.1818 7.01383 9.21305 7.01383H10.9631C10.9891 7.01383 11.0047 7.00342 11.0047 6.97217V6.26383C11.0047 5.96175 10.911 5.71696 10.7339 5.53467C10.5672 5.34196 10.3485 5.243 10.0881 5.243Z" fill="#D51224"/>
<path d="M13.3127 3.70117C13.1304 3.70117 12.9845 3.64909 12.8752 3.53451C12.7606 3.42513 12.7085 3.28451 12.7085 3.11784C12.7085 2.94076 12.7606 2.79492 12.8752 2.68034C12.9845 2.57096 13.1304 2.51367 13.3127 2.51367C13.4793 2.51367 13.6147 2.57096 13.7293 2.68034C13.8387 2.79492 13.896 2.94076 13.896 3.11784C13.896 3.28451 13.8387 3.42513 13.7293 3.53451C13.6147 3.64909 13.4793 3.70117 13.3127 3.70117ZM13.0418 10.0345C12.9689 10.0345 12.9377 10.0033 12.9377 9.93034V4.78451C12.9377 4.7168 12.9689 4.68034 13.0418 4.68034H13.5835C13.6512 4.68034 13.6877 4.7168 13.6877 4.78451V9.93034C13.6877 10.0033 13.6512 10.0345 13.5835 10.0345H13.0418Z" fill="#D51224"/>
<path d="M16.9515 4.59717C17.3786 4.59717 17.7119 4.75342 17.9515 5.0555C18.1859 5.34717 18.3057 5.75863 18.3057 6.28467V9.9305C18.3057 10.0034 18.2692 10.0347 18.2015 10.0347H17.6598C17.5869 10.0347 17.5557 10.0034 17.5557 9.9305V6.34717C17.5557 6.00342 17.4775 5.73779 17.3265 5.5555C17.1859 5.36279 16.9775 5.26383 16.7015 5.26383C16.4202 5.26383 16.2015 5.368 16.0348 5.57633C15.8786 5.77425 15.8057 6.05029 15.8057 6.40967V9.9305C15.8057 10.0034 15.7692 10.0347 15.7015 10.0347H15.1598C15.0869 10.0347 15.0557 10.0034 15.0557 9.9305V4.78467C15.0557 4.71696 15.0869 4.6805 15.1598 4.6805H15.7015C15.7692 4.6805 15.8057 4.71696 15.8057 4.78467V5.118C15.8057 5.13363 15.8109 5.14925 15.8265 5.15967C15.8369 5.15967 15.8525 5.15446 15.8682 5.13883C15.9932 4.96175 16.1494 4.82633 16.3473 4.743C16.54 4.64925 16.7432 4.59717 16.9515 4.59717Z" fill="#D51224"/>
<path d="M22.7305 7.53467C22.7305 7.60759 22.694 7.63883 22.6263 7.63883H20.2096C20.1784 7.63883 20.168 7.65446 20.168 7.6805V8.45133C20.168 8.75863 20.2513 9.00863 20.418 9.20133C20.5846 9.38363 20.8034 9.47217 21.0846 9.47217C21.3034 9.47217 21.4909 9.40446 21.6471 9.26383C21.8138 9.12842 21.918 8.94613 21.9596 8.72217C21.9857 8.65446 22.0273 8.618 22.0846 8.618L22.6055 8.63883C22.6315 8.63883 22.6523 8.65446 22.668 8.6805C22.694 8.71175 22.7096 8.73779 22.7096 8.76383C22.6523 9.1805 22.4805 9.51383 22.1888 9.76383C21.9076 10.0034 21.543 10.118 21.0846 10.118C20.5846 10.118 20.1784 9.97217 19.8763 9.6805C19.569 9.37842 19.418 8.98259 19.418 8.493V6.22217C19.418 5.73779 19.569 5.34717 19.8763 5.0555C20.1784 4.75342 20.5846 4.59717 21.0846 4.59717C21.5846 4.59717 21.9805 4.75342 22.2721 5.0555C22.5742 5.34717 22.7305 5.73779 22.7305 6.22217V7.53467ZM21.0846 5.243C20.8034 5.243 20.5846 5.34196 20.418 5.53467C20.2513 5.71696 20.168 5.96175 20.168 6.26383V6.97217C20.168 7.00342 20.1784 7.01383 20.2096 7.01383H21.9596C21.9857 7.01383 22.0013 7.00342 22.0013 6.97217V6.26383C22.0013 5.96175 21.9076 5.71696 21.7305 5.53467C21.5638 5.34196 21.3451 5.243 21.0846 5.243Z" fill="#D51224"/>
<path d="M26.3423 11.1387C26.285 11.1387 26.2433 11.1074 26.2173 11.0553C25.936 10.5241 25.7069 9.86784 25.5298 9.07617C25.3631 8.28451 25.2798 7.46159 25.2798 6.59701C25.2798 5.71159 25.3683 4.86263 25.5506 4.05534C25.7277 3.25325 25.9569 2.57617 26.2381 2.03451C26.2642 1.98242 26.3058 1.95117 26.3631 1.95117H26.884C26.9256 1.95117 26.9517 1.9668 26.9673 1.99284C26.9777 2.02409 26.9777 2.05013 26.9673 2.07617C26.7277 2.63346 26.535 3.31576 26.384 4.11784C26.2277 4.90951 26.1548 5.73242 26.1548 6.57617C26.1548 7.42513 26.2277 8.23763 26.384 9.01367C26.535 9.79492 26.7277 10.4564 26.9673 11.0137L26.9881 11.0553C26.9881 11.1074 26.9517 11.1387 26.884 11.1387H26.3423Z" fill="#D51224"/>
<path d="M30.0669 10.118C29.5252 10.118 29.0877 9.95133 28.7544 9.618C28.4211 9.27425 28.2544 8.82113 28.2544 8.26383V4.38883C28.2544 3.83675 28.4211 3.38883 28.7544 3.0555C29.0877 2.71175 29.5252 2.53467 30.0669 2.53467C30.619 2.53467 31.0669 2.71175 31.4002 3.0555C31.744 3.38883 31.9211 3.83675 31.9211 4.38883V8.26383C31.9211 8.82113 31.744 9.27425 31.4002 9.618C31.0669 9.95133 30.619 10.118 30.0669 10.118ZM30.0669 9.47217C30.4002 9.47217 30.6606 9.368 30.8586 9.15967C31.0669 8.94092 31.1711 8.65446 31.1711 8.3055V4.368C31.1711 4.02425 31.0669 3.743 30.8586 3.53467C30.6606 3.31592 30.4002 3.20133 30.0669 3.20133C29.744 3.20133 29.4888 3.31592 29.2961 3.53467C29.0981 3.743 29.0044 4.02425 29.0044 4.368V8.3055C29.0044 8.65446 29.0981 8.94092 29.2961 9.15967C29.4888 9.368 29.744 9.47217 30.0669 9.47217Z" fill="#D51224"/>
<path d="M33.8096 1.95117C33.8617 1.95117 33.9033 1.98242 33.9346 2.03451C34.2106 2.56576 34.4346 3.22201 34.6012 4.01367C34.7783 4.80534 34.8721 5.63346 34.8721 6.49284C34.8721 7.39909 34.7783 8.25325 34.6012 9.05534C34.4189 9.86263 34.1898 10.5241 33.9137 11.0553C33.8825 11.1074 33.8408 11.1387 33.7887 11.1387H33.2887C33.2471 11.1387 33.2158 11.123 33.2054 11.097C33.1898 11.0658 33.1898 11.0397 33.2054 11.0137C33.4398 10.4564 33.6325 9.78451 33.7887 8.99284C33.9398 8.19076 34.0179 7.36263 34.0179 6.51367C34.0179 5.68034 33.9398 4.87825 33.7887 4.09701C33.6325 3.32096 33.4398 2.64909 33.2054 2.07617C33.1898 2.06576 33.1846 2.05013 33.1846 2.03451C33.1846 2.00846 33.1898 1.98763 33.2054 1.97201C33.2314 1.96159 33.2575 1.95117 33.2887 1.95117H33.8096Z" fill="#D51224"/>
<path d="M40.7969 7.53467C40.7969 7.60759 40.7604 7.63883 40.6927 7.63883H38.276C38.2448 7.63883 38.2344 7.65446 38.2344 7.6805V8.45133C38.2344 8.75863 38.3177 9.00863 38.4844 9.20133C38.651 9.38363 38.8698 9.47217 39.151 9.47217C39.3698 9.47217 39.5573 9.40446 39.7135 9.26383C39.8802 9.12842 39.9844 8.94613 40.026 8.72217C40.0521 8.65446 40.0937 8.618 40.151 8.618L40.6719 8.63883C40.6979 8.63883 40.7187 8.65446 40.7344 8.6805C40.7604 8.71175 40.776 8.73779 40.776 8.76383C40.7187 9.1805 40.5469 9.51383 40.2552 9.76383C39.974 10.0034 39.6094 10.118 39.151 10.118C38.651 10.118 38.2448 9.97217 37.9427 9.6805C37.6354 9.37842 37.4844 8.98259 37.4844 8.493V6.22217C37.4844 5.73779 37.6354 5.34717 37.9427 5.0555C38.2448 4.75342 38.651 4.59717 39.151 4.59717C39.651 4.59717 40.0469 4.75342 40.3385 5.0555C40.6406 5.34717 40.7969 5.73779 40.7969 6.22217V7.53467ZM39.151 5.243C38.8698 5.243 38.651 5.34196 38.4844 5.53467C38.3177 5.71696 38.2344 5.96175 38.2344 6.26383V6.97217C38.2344 7.00342 38.2448 7.01383 38.276 7.01383H40.026C40.0521 7.01383 40.0677 7.00342 40.0677 6.97217V6.26383C40.0677 5.96175 39.974 5.71696 39.7969 5.53467C39.6302 5.34196 39.4115 5.243 39.151 5.243Z" fill="#D51224"/>
<path d="M43.8128 4.59717C44.2399 4.59717 44.5732 4.75342 44.8128 5.0555C45.0472 5.34717 45.167 5.75863 45.167 6.28467V9.9305C45.167 10.0034 45.1305 10.0347 45.0628 10.0347H44.5212C44.4482 10.0347 44.417 10.0034 44.417 9.9305V6.34717C44.417 6.00342 44.3389 5.73779 44.1878 5.5555C44.0472 5.36279 43.8389 5.26383 43.5628 5.26383C43.2816 5.26383 43.0628 5.368 42.8962 5.57633C42.7399 5.77425 42.667 6.05029 42.667 6.40967V9.9305C42.667 10.0034 42.6305 10.0347 42.5628 10.0347H42.0212C41.9482 10.0347 41.917 10.0034 41.917 9.9305V4.78467C41.917 4.71696 41.9482 4.6805 42.0212 4.6805H42.5628C42.6305 4.6805 42.667 4.71696 42.667 4.78467V5.118C42.667 5.13363 42.6722 5.14925 42.6878 5.15967C42.6982 5.15967 42.7139 5.15446 42.7295 5.13883C42.8545 4.96175 43.0107 4.82633 43.2087 4.743C43.4014 4.64925 43.6045 4.59717 43.8128 4.59717Z" fill="#D51224"/>
<path d="M48.2793 5.13883C48.2793 5.21175 48.2428 5.243 48.1751 5.243H47.3835C47.3522 5.243 47.3418 5.25863 47.3418 5.28467V8.51383C47.3418 8.84717 47.3939 9.07633 47.5085 9.20133C47.6178 9.32633 47.7897 9.38363 48.0293 9.368H48.1335C48.2012 9.368 48.2376 9.40446 48.2376 9.47217V9.9305C48.2376 10.0034 48.2012 10.0347 48.1335 10.0347H47.8626C47.446 10.0347 47.123 9.94613 46.9043 9.76383C46.696 9.58675 46.5918 9.243 46.5918 8.743V5.28467C46.5918 5.25863 46.5762 5.243 46.5501 5.243H46.1335C46.0605 5.243 46.0293 5.21175 46.0293 5.13883V4.78467C46.0293 4.71696 46.0605 4.6805 46.1335 4.6805H46.5501C46.5762 4.6805 46.5918 4.67008 46.5918 4.63883V3.45133C46.5918 3.38363 46.623 3.34717 46.696 3.34717H47.2376C47.3053 3.34717 47.3418 3.38363 47.3418 3.45133V4.63883C47.3418 4.67008 47.3522 4.6805 47.3835 4.6805H48.1751C48.2428 4.6805 48.2793 4.71696 48.2793 4.78467V5.13883Z" fill="#D51224"/>
<path d="M51.1263 4.59684C51.5534 4.59684 51.8867 4.75309 52.1263 5.05518C52.3607 5.34684 52.4805 5.7583 52.4805 6.28434V9.93018C52.4805 10.0031 52.444 10.0343 52.3763 10.0343H51.8346C51.7617 10.0343 51.7305 10.0031 51.7305 9.93018V6.34684C51.7305 6.00309 51.6523 5.73747 51.5013 5.55518C51.3607 5.36247 51.1523 5.26351 50.8763 5.26351C50.5951 5.26351 50.3763 5.36768 50.2096 5.57601C50.0534 5.77393 49.9805 6.04997 49.9805 6.40934V9.93018C49.9805 10.0031 49.944 10.0343 49.8763 10.0343H49.3346C49.2617 10.0343 49.2305 10.0031 49.2305 9.93018V2.72184C49.2305 2.65413 49.2617 2.61768 49.3346 2.61768H49.8763C49.944 2.61768 49.9805 2.65413 49.9805 2.72184V5.11768C49.9805 5.1333 49.9857 5.14893 50.0013 5.15934C50.0117 5.15934 50.0273 5.15413 50.043 5.13851C50.168 4.96143 50.3242 4.82601 50.5221 4.74268C50.7148 4.64893 50.918 4.59684 51.1263 4.59684Z" fill="#D51224"/>
<path d="M55.2804 4.59717C55.7804 4.59717 56.1763 4.75863 56.4679 5.07633C56.7596 5.39925 56.9054 5.82633 56.9054 6.368V9.9305C56.9054 10.0034 56.869 10.0347 56.8013 10.0347H56.2596C56.1867 10.0347 56.1554 10.0034 56.1554 9.9305V9.618C56.1554 9.60759 56.145 9.59717 56.1346 9.59717C56.1346 9.58675 56.1242 9.58675 56.1138 9.59717C55.8481 9.94613 55.4523 10.118 54.9263 10.118C54.5356 10.118 54.1971 10.0086 53.9054 9.78467C53.6242 9.56592 53.4888 9.17008 53.4888 8.59717C53.4888 8.00342 53.6606 7.56592 54.0096 7.28467C54.3534 7.00863 54.8117 6.868 55.3846 6.868H56.1138C56.1398 6.868 56.1554 6.85759 56.1554 6.82633V6.40967C56.1554 6.06592 56.0721 5.78467 55.9054 5.57633C55.7492 5.35759 55.5356 5.243 55.2596 5.243C55.0513 5.243 54.869 5.32113 54.7179 5.47217C54.5617 5.61279 54.4731 5.78467 54.4471 5.993C54.4471 6.07633 54.4106 6.118 54.3429 6.118L53.7596 6.09717C53.7179 6.09717 53.6815 6.09196 53.6554 6.07633C53.6398 6.05029 53.6398 6.02425 53.6554 5.993C53.6815 5.57633 53.8481 5.243 54.1554 4.993C54.4575 4.73259 54.8325 4.59717 55.2804 4.59717ZM55.0929 9.47217C55.3846 9.47217 55.6346 9.38363 55.8429 9.20133C56.0513 9.00863 56.1554 8.743 56.1554 8.40967V7.51383C56.1554 7.48779 56.1398 7.47217 56.1138 7.47217H55.3638C55.0304 7.47217 54.7596 7.56592 54.5513 7.743C54.3534 7.92529 54.2596 8.19092 54.2596 8.53467C54.2596 8.85759 54.3325 9.09196 54.4888 9.243C54.6398 9.39925 54.8429 9.47217 55.0929 9.47217Z" fill="#D51224"/>
<path d="M58.1305 10.0343C58.0576 10.0343 58.0264 10.0031 58.0264 9.93018V2.72184C58.0264 2.65413 58.0576 2.61768 58.1305 2.61768H58.6722C58.7399 2.61768 58.7764 2.65413 58.7764 2.72184V9.93018C58.7764 10.0031 58.7399 10.0343 58.6722 10.0343H58.1305Z" fill="#D51224"/>
<path d="M61.8794 5.13883C61.8794 5.21175 61.8429 5.243 61.7752 5.243H60.9836C60.9523 5.243 60.9419 5.25863 60.9419 5.28467V8.51383C60.9419 8.84717 60.994 9.07633 61.1086 9.20133C61.2179 9.32633 61.3898 9.38363 61.6294 9.368H61.7336C61.8013 9.368 61.8377 9.40446 61.8377 9.47217V9.9305C61.8377 10.0034 61.8013 10.0347 61.7336 10.0347H61.4627C61.0461 10.0347 60.7231 9.94613 60.5044 9.76383C60.2961 9.58675 60.1919 9.243 60.1919 8.743V5.28467C60.1919 5.25863 60.1763 5.243 60.1502 5.243H59.7336C59.6606 5.243 59.6294 5.21175 59.6294 5.13883V4.78467C59.6294 4.71696 59.6606 4.6805 59.7336 4.6805H60.1502C60.1763 4.6805 60.1919 4.67008 60.1919 4.63883V3.45133C60.1919 3.38363 60.2231 3.34717 60.2961 3.34717H60.8377C60.9054 3.34717 60.9419 3.38363 60.9419 3.45133V4.63883C60.9419 4.67008 60.9523 4.6805 60.9836 4.6805H61.7752C61.8429 4.6805 61.8794 4.71696 61.8794 4.78467V5.13883Z" fill="#D51224"/>
<path d="M66.0181 7.53467C66.0181 7.60759 65.9816 7.63883 65.9139 7.63883H63.4972C63.466 7.63883 63.4556 7.65446 63.4556 7.6805V8.45133C63.4556 8.75863 63.5389 9.00863 63.7056 9.20133C63.8722 9.38363 64.091 9.47217 64.3722 9.47217C64.591 9.47217 64.7785 9.40446 64.9347 9.26383C65.1014 9.12842 65.2056 8.94613 65.2472 8.72217C65.2733 8.65446 65.3149 8.618 65.3722 8.618L65.8931 8.63883C65.9191 8.63883 65.9399 8.65446 65.9556 8.6805C65.9816 8.71175 65.9972 8.73779 65.9972 8.76383C65.9399 9.1805 65.7681 9.51383 65.4764 9.76383C65.1951 10.0034 64.8306 10.118 64.3722 10.118C63.8722 10.118 63.466 9.97217 63.1639 9.6805C62.8566 9.37842 62.7056 8.98259 62.7056 8.493V6.22217C62.7056 5.73779 62.8566 5.34717 63.1639 5.0555C63.466 4.75342 63.8722 4.59717 64.3722 4.59717C64.8722 4.59717 65.2681 4.75342 65.5597 5.0555C65.8618 5.34717 66.0181 5.73779 66.0181 6.22217V7.53467ZM64.3722 5.243C64.091 5.243 63.8722 5.34196 63.7056 5.53467C63.5389 5.71696 63.4556 5.96175 63.4556 6.26383V6.97217C63.4556 7.00342 63.466 7.01383 63.4972 7.01383H65.2472C65.2733 7.01383 65.2889 7.00342 65.2889 6.97217V6.26383C65.2889 5.96175 65.1951 5.71696 65.0181 5.53467C64.8514 5.34196 64.6327 5.243 64.3722 5.243Z" fill="#D51224"/>
<path d="M69.034 4.59717C69.4611 4.59717 69.7944 4.75342 70.034 5.0555C70.2684 5.34717 70.3882 5.75863 70.3882 6.28467V9.9305C70.3882 10.0034 70.3517 10.0347 70.284 10.0347H69.7424C69.6694 10.0347 69.6382 10.0034 69.6382 9.9305V6.34717C69.6382 6.00342 69.5601 5.73779 69.409 5.5555C69.2684 5.36279 69.0601 5.26383 68.784 5.26383C68.5028 5.26383 68.284 5.368 68.1174 5.57633C67.9611 5.77425 67.8882 6.05029 67.8882 6.40967V9.9305C67.8882 10.0034 67.8517 10.0347 67.784 10.0347H67.2424C67.1694 10.0347 67.1382 10.0034 67.1382 9.9305V4.78467C67.1382 4.71696 67.1694 4.6805 67.2424 4.6805H67.784C67.8517 4.6805 67.8882 4.71696 67.8882 4.78467V5.118C67.8882 5.13363 67.8934 5.14925 67.909 5.15967C67.9194 5.15967 67.9351 5.15446 67.9507 5.13883C68.0757 4.96175 68.2319 4.82633 68.4299 4.743C68.6226 4.64925 68.8257 4.59717 69.034 4.59717Z" fill="#D51224"/>
<path d="M75.3045 10.118C74.7733 10.118 74.3462 9.94613 74.0129 9.59717C73.6899 9.25342 73.5337 8.80029 73.5337 8.243V7.993C73.5337 7.92529 73.5649 7.88883 73.6379 7.88883H74.1587C74.2264 7.88883 74.2629 7.92529 74.2629 7.993V8.22217C74.2629 8.59717 74.3566 8.90446 74.5545 9.13883C74.7472 9.36279 74.9972 9.47217 75.3045 9.47217C75.5962 9.47217 75.8358 9.36279 76.0337 9.13883C76.2264 8.92008 76.3254 8.62842 76.3254 8.26383C76.3254 8.02946 76.2733 7.82633 76.1795 7.65967C76.0962 7.48259 75.9764 7.32633 75.8254 7.20133C75.6691 7.06592 75.4139 6.86279 75.0545 6.59717C74.7056 6.33675 74.4295 6.11279 74.2212 5.9305C74.0233 5.73779 73.8566 5.51383 73.7212 5.26383C73.5962 5.00342 73.5337 4.69092 73.5337 4.32633C73.5337 3.78467 73.6899 3.35759 74.0129 3.03467C74.3306 2.70133 74.742 2.53467 75.242 2.53467C75.7837 2.53467 76.2108 2.71696 76.5337 3.07633C76.8514 3.42529 77.0129 3.88363 77.0129 4.45133V4.72217C77.0129 4.79508 76.9764 4.82633 76.9087 4.82633H76.367C76.2941 4.82633 76.2629 4.79508 76.2629 4.72217V4.45133C76.2629 4.07633 76.1639 3.77946 75.9712 3.5555C75.7889 3.32113 75.5441 3.20133 75.242 3.20133C74.9608 3.20133 74.7264 3.3055 74.5337 3.51383C74.3514 3.71175 74.2629 3.98779 74.2629 4.34717C74.2629 4.57113 74.3045 4.76383 74.3879 4.9305C74.4712 5.09717 74.5858 5.25863 74.742 5.40967C74.9087 5.55029 75.1483 5.73779 75.4712 5.97217C75.8983 6.29508 76.2212 6.55029 76.4295 6.743C76.6379 6.94092 76.7941 7.15446 76.9087 7.38883C77.0181 7.61279 77.0754 7.88363 77.0754 8.20133C77.0754 8.78467 76.9087 9.25342 76.5754 9.59717C76.242 9.94613 75.8149 10.118 75.3045 10.118Z" fill="#D51224"/>
<path d="M80.5825 4.78434C80.5825 4.71663 80.6138 4.68018 80.6867 4.68018H81.2284C81.2961 4.68018 81.3325 4.71663 81.3325 4.78434V9.93018C81.3325 10.0031 81.2961 10.0343 81.2284 10.0343H80.6867C80.6138 10.0343 80.5825 10.0031 80.5825 9.93018V9.57601C80.5825 9.54997 80.5721 9.53434 80.5617 9.53434C80.5617 9.53434 80.5513 9.54476 80.5409 9.55518C80.3169 9.93018 79.9627 10.1177 79.4784 10.1177C79.0617 10.1177 78.7179 9.98747 78.4575 9.72184C78.2075 9.46143 78.0825 9.0708 78.0825 8.55518V4.78434C78.0825 4.71663 78.1242 4.68018 78.2075 4.68018H78.7284C78.8117 4.68018 78.8534 4.71663 78.8534 4.78434V8.38851C78.8534 8.73747 78.9211 9.00309 79.0617 9.18018C79.1971 9.36247 79.4054 9.45101 79.6867 9.45101C79.9627 9.45101 80.1763 9.35726 80.3325 9.15934C80.4992 8.95101 80.5825 8.66976 80.5825 8.30518V4.78434Z" fill="#D51224"/>
<path d="M82.674 10.0343C82.6011 10.0343 82.5698 10.0031 82.5698 9.93018V2.72184C82.5698 2.65413 82.6011 2.61768 82.674 2.61768H83.2157C83.2834 2.61768 83.3198 2.65413 83.3198 2.72184V9.93018C83.3198 10.0031 83.2834 10.0343 83.2157 10.0343H82.674Z" fill="#D51224"/>
<path d="M86.2563 3.20101C85.9751 3.20101 85.7824 3.29476 85.673 3.47184C85.5584 3.65413 85.5063 3.93018 85.5063 4.30518V4.63851C85.5063 4.66976 85.5168 4.68018 85.548 4.68018H86.3605C86.4282 4.68018 86.4647 4.71663 86.4647 4.78434V5.13851C86.4647 5.21143 86.4282 5.24268 86.3605 5.24268H85.548C85.5168 5.24268 85.5063 5.2583 85.5063 5.28434V9.93018C85.5063 10.0031 85.4699 10.0343 85.4022 10.0343H84.8813C84.8084 10.0343 84.7772 10.0031 84.7772 9.93018V5.28434C84.7772 5.2583 84.7616 5.24268 84.7355 5.24268H84.298C84.2251 5.24268 84.1938 5.21143 84.1938 5.13851V4.78434C84.1938 4.71663 84.2251 4.68018 84.298 4.68018H84.7355C84.7616 4.68018 84.7772 4.66976 84.7772 4.63851V4.30518C84.7772 3.68018 84.8866 3.23747 85.1105 2.97184C85.3293 2.6958 85.7043 2.55518 86.2355 2.55518H86.3813C86.4491 2.55518 86.4855 2.59163 86.4855 2.65934V3.09684C86.4855 3.16976 86.4491 3.20101 86.3813 3.20101H86.2563Z" fill="#D51224"/>
<path d="M87.9382 3.70117C87.7559 3.70117 87.61 3.64909 87.5007 3.53451C87.3861 3.42513 87.334 3.28451 87.334 3.11784C87.334 2.94076 87.3861 2.79492 87.5007 2.68034C87.61 2.57096 87.7559 2.51367 87.9382 2.51367C88.1048 2.51367 88.2402 2.57096 88.3548 2.68034C88.4642 2.79492 88.5215 2.94076 88.5215 3.11784C88.5215 3.28451 88.4642 3.42513 88.3548 3.53451C88.2402 3.64909 88.1048 3.70117 87.9382 3.70117ZM87.6673 10.0345C87.5944 10.0345 87.5632 10.0033 87.5632 9.93034V4.78451C87.5632 4.7168 87.5944 4.68034 87.6673 4.68034H88.209C88.2767 4.68034 88.3132 4.7168 88.3132 4.78451V9.93034C88.3132 10.0033 88.2767 10.0345 88.209 10.0345H87.6673Z" fill="#D51224"/>
<path d="M91.5562 5.13883C91.5562 5.21175 91.5197 5.243 91.452 5.243H90.6603C90.6291 5.243 90.6187 5.25863 90.6187 5.28467V8.51383C90.6187 8.84717 90.6707 9.07633 90.7853 9.20133C90.8947 9.32633 91.0666 9.38363 91.3062 9.368H91.4103C91.478 9.368 91.5145 9.40446 91.5145 9.47217V9.9305C91.5145 10.0034 91.478 10.0347 91.4103 10.0347H91.1395C90.7228 10.0347 90.3999 9.94613 90.1812 9.76383C89.9728 9.58675 89.8687 9.243 89.8687 8.743V5.28467C89.8687 5.25863 89.853 5.243 89.827 5.243H89.4103C89.3374 5.243 89.3062 5.21175 89.3062 5.13883V4.78467C89.3062 4.71696 89.3374 4.6805 89.4103 4.6805H89.827C89.853 4.6805 89.8687 4.67008 89.8687 4.63883V3.45133C89.8687 3.38363 89.8999 3.34717 89.9728 3.34717H90.5145C90.5822 3.34717 90.6187 3.38363 90.6187 3.45133V4.63883C90.6187 4.67008 90.6291 4.6805 90.6603 4.6805H91.452C91.5197 4.6805 91.5562 4.71696 91.5562 4.78467V5.13883Z" fill="#D51224"/>
<path d="M95.6948 7.53467C95.6948 7.60759 95.6584 7.63883 95.5907 7.63883H93.174C93.1427 7.63883 93.1323 7.65446 93.1323 7.6805V8.45133C93.1323 8.75863 93.2157 9.00863 93.3823 9.20133C93.549 9.38363 93.7677 9.47217 94.049 9.47217C94.2677 9.47217 94.4552 9.40446 94.6115 9.26383C94.7782 9.12842 94.8823 8.94613 94.924 8.72217C94.95 8.65446 94.9917 8.618 95.049 8.618L95.5698 8.63883C95.5959 8.63883 95.6167 8.65446 95.6323 8.6805C95.6584 8.71175 95.674 8.73779 95.674 8.76383C95.6167 9.1805 95.4448 9.51383 95.1532 9.76383C94.8719 10.0034 94.5073 10.118 94.049 10.118C93.549 10.118 93.1427 9.97217 92.8407 9.6805C92.5334 9.37842 92.3823 8.98259 92.3823 8.493V6.22217C92.3823 5.73779 92.5334 5.34717 92.8407 5.0555C93.1427 4.75342 93.549 4.59717 94.049 4.59717C94.549 4.59717 94.9448 4.75342 95.2365 5.0555C95.5386 5.34717 95.6948 5.73779 95.6948 6.22217V7.53467ZM94.049 5.243C93.7677 5.243 93.549 5.34196 93.3823 5.53467C93.2157 5.71696 93.1323 5.96175 93.1323 6.26383V6.97217C93.1323 7.00342 93.1427 7.01383 93.174 7.01383H94.924C94.95 7.01383 94.9657 7.00342 94.9657 6.97217V6.26383C94.9657 5.96175 94.8719 5.71696 94.6948 5.53467C94.5282 5.34196 94.3094 5.243 94.049 5.243Z" fill="#D51224"/>
<path d="M96.6688 10.8678C96.6375 10.8678 96.6115 10.8522 96.5854 10.8262C96.5698 10.8105 96.5698 10.7897 96.5854 10.7637L96.9188 8.49284C96.9188 8.42513 96.95 8.38867 97.0229 8.38867H97.4813C97.5646 8.38867 97.5959 8.43034 97.5854 8.51367L97.1063 10.7845C97.1063 10.8366 97.0698 10.8678 97.0021 10.8678H96.6688Z" fill="#D51224"/>
<path d="M104.534 8.01351C104.544 8.65413 104.378 9.15413 104.034 9.51351C103.685 9.86247 103.221 10.0343 102.638 10.0343H101.034C100.961 10.0343 100.93 10.0031 100.93 9.93018V2.72184C100.93 2.65413 100.961 2.61768 101.034 2.61768H102.555C103.148 2.61768 103.622 2.79476 103.971 3.13851C104.315 3.47184 104.492 3.9458 104.492 4.55518C104.492 5.34684 104.201 5.88851 103.617 6.18018C103.602 6.1958 103.596 6.21143 103.596 6.22184C103.596 6.22184 103.602 6.22184 103.617 6.22184C104.227 6.58643 104.534 7.18018 104.534 8.01351ZM101.721 3.28434C101.69 3.28434 101.68 3.29997 101.68 3.32601V5.86768C101.68 5.89893 101.69 5.90934 101.721 5.90934H102.555C102.93 5.90934 103.221 5.79997 103.43 5.57601C103.648 5.35726 103.763 5.03434 103.763 4.61768C103.763 4.20101 103.648 3.87809 103.43 3.63851C103.221 3.40413 102.93 3.28434 102.555 3.28434H101.721ZM102.596 9.36768C102.971 9.36768 103.263 9.24268 103.471 8.99268C103.68 8.74268 103.784 8.38851 103.784 7.93018C103.784 7.47184 103.68 7.11768 103.471 6.86768C103.263 6.61768 102.971 6.49268 102.596 6.49268H101.721C101.69 6.49268 101.68 6.5083 101.68 6.53434V9.32601C101.68 9.35726 101.69 9.36768 101.721 9.36768H102.596Z" fill="#D51224"/>
<path d="M106.015 3.70117C105.833 3.70117 105.687 3.64909 105.578 3.53451C105.463 3.42513 105.411 3.28451 105.411 3.11784C105.411 2.94076 105.463 2.79492 105.578 2.68034C105.687 2.57096 105.833 2.51367 106.015 2.51367C106.182 2.51367 106.317 2.57096 106.432 2.68034C106.541 2.79492 106.599 2.94076 106.599 3.11784C106.599 3.28451 106.541 3.42513 106.432 3.53451C106.317 3.64909 106.182 3.70117 106.015 3.70117ZM105.744 10.0345C105.672 10.0345 105.64 10.0033 105.64 9.93034V4.78451C105.64 4.7168 105.672 4.68034 105.744 4.68034H106.286C106.354 4.68034 106.39 4.7168 106.39 4.78451V9.93034C106.39 10.0033 106.354 10.0345 106.286 10.0345H105.744Z" fill="#D51224"/>
<path d="M110.946 7.53467C110.946 7.60759 110.909 7.63883 110.842 7.63883H108.425C108.394 7.63883 108.383 7.65446 108.383 7.6805V8.45133C108.383 8.75863 108.467 9.00863 108.633 9.20133C108.8 9.38363 109.019 9.47217 109.3 9.47217C109.519 9.47217 109.706 9.40446 109.862 9.26383C110.029 9.12842 110.133 8.94613 110.175 8.72217C110.201 8.65446 110.243 8.618 110.3 8.618L110.821 8.63883C110.847 8.63883 110.868 8.65446 110.883 8.6805C110.909 8.71175 110.925 8.73779 110.925 8.76383C110.868 9.1805 110.696 9.51383 110.404 9.76383C110.123 10.0034 109.758 10.118 109.3 10.118C108.8 10.118 108.394 9.97217 108.092 9.6805C107.784 9.37842 107.633 8.98259 107.633 8.493V6.22217C107.633 5.73779 107.784 5.34717 108.092 5.0555C108.394 4.75342 108.8 4.59717 109.3 4.59717C109.8 4.59717 110.196 4.75342 110.487 5.0555C110.79 5.34717 110.946 5.73779 110.946 6.22217V7.53467ZM109.3 5.243C109.019 5.243 108.8 5.34196 108.633 5.53467C108.467 5.71696 108.383 5.96175 108.383 6.26383V6.97217C108.383 7.00342 108.394 7.01383 108.425 7.01383H110.175C110.201 7.01383 110.217 7.00342 110.217 6.97217V6.26383C110.217 5.96175 110.123 5.71696 109.946 5.53467C109.779 5.34196 109.56 5.243 109.3 5.243Z" fill="#D51224"/>
<path d="M113.878 4.61768C114.056 4.61768 114.212 4.65934 114.337 4.74268C114.378 4.77393 114.389 4.8208 114.378 4.88851L114.253 5.43018C114.253 5.50309 114.212 5.52393 114.128 5.49268C114.045 5.45101 113.941 5.43018 113.816 5.43018C113.759 5.43018 113.717 5.44059 113.691 5.45101C113.425 5.46663 113.212 5.59684 113.045 5.84684C112.889 6.09684 112.816 6.40413 112.816 6.76351V9.93018C112.816 10.0031 112.779 10.0343 112.712 10.0343H112.17C112.097 10.0343 112.066 10.0031 112.066 9.93018V4.78434C112.066 4.71663 112.097 4.68018 112.17 4.68018H112.712C112.779 4.68018 112.816 4.71663 112.816 4.78434V5.43018C112.816 5.4458 112.821 5.45101 112.837 5.45101C112.847 5.45101 112.863 5.4458 112.878 5.43018C113.071 4.88851 113.404 4.61768 113.878 4.61768Z" fill="#D51224"/>
<path d="M118.344 7.53467C118.344 7.60759 118.307 7.63883 118.24 7.63883H115.823C115.792 7.63883 115.781 7.65446 115.781 7.6805V8.45133C115.781 8.75863 115.865 9.00863 116.031 9.20133C116.198 9.38363 116.417 9.47217 116.698 9.47217C116.917 9.47217 117.104 9.40446 117.26 9.26383C117.427 9.12842 117.531 8.94613 117.573 8.72217C117.599 8.65446 117.641 8.618 117.698 8.618L118.219 8.63883C118.245 8.63883 118.266 8.65446 118.281 8.6805C118.307 8.71175 118.323 8.73779 118.323 8.76383C118.266 9.1805 118.094 9.51383 117.802 9.76383C117.521 10.0034 117.156 10.118 116.698 10.118C116.198 10.118 115.792 9.97217 115.49 9.6805C115.182 9.37842 115.031 8.98259 115.031 8.493V6.22217C115.031 5.73779 115.182 5.34717 115.49 5.0555C115.792 4.75342 116.198 4.59717 116.698 4.59717C117.198 4.59717 117.594 4.75342 117.885 5.0555C118.187 5.34717 118.344 5.73779 118.344 6.22217V7.53467ZM116.698 5.243C116.417 5.243 116.198 5.34196 116.031 5.53467C115.865 5.71696 115.781 5.96175 115.781 6.26383V6.97217C115.781 7.00342 115.792 7.01383 115.823 7.01383H117.573C117.599 7.01383 117.615 7.00342 117.615 6.97217V6.26383C117.615 5.96175 117.521 5.71696 117.344 5.53467C117.177 5.34196 116.958 5.243 116.698 5.243Z" fill="#D51224"/>
<path d="M124.768 7.53467C124.768 7.60759 124.732 7.63883 124.664 7.63883H122.247C122.216 7.63883 122.206 7.65446 122.206 7.6805V8.45133C122.206 8.75863 122.289 9.00863 122.456 9.20133C122.622 9.38363 122.841 9.47217 123.122 9.47217C123.341 9.47217 123.528 9.40446 123.685 9.26383C123.851 9.12842 123.956 8.94613 123.997 8.72217C124.023 8.65446 124.065 8.618 124.122 8.618L124.643 8.63883C124.669 8.63883 124.69 8.65446 124.706 8.6805C124.732 8.71175 124.747 8.73779 124.747 8.76383C124.69 9.1805 124.518 9.51383 124.226 9.76383C123.945 10.0034 123.581 10.118 123.122 10.118C122.622 10.118 122.216 9.97217 121.914 9.6805C121.607 9.37842 121.456 8.98259 121.456 8.493V6.22217C121.456 5.73779 121.607 5.34717 121.914 5.0555C122.216 4.75342 122.622 4.59717 123.122 4.59717C123.622 4.59717 124.018 4.75342 124.31 5.0555C124.612 5.34717 124.768 5.73779 124.768 6.22217V7.53467ZM123.122 5.243C122.841 5.243 122.622 5.34196 122.456 5.53467C122.289 5.71696 122.206 5.96175 122.206 6.26383V6.97217C122.206 7.00342 122.216 7.01383 122.247 7.01383H123.997C124.023 7.01383 124.039 7.00342 124.039 6.97217V6.26383C124.039 5.96175 123.945 5.71696 123.768 5.53467C123.601 5.34196 123.383 5.243 123.122 5.243Z" fill="#D51224"/>
<path d="M127.784 4.59717C128.211 4.59717 128.544 4.75342 128.784 5.0555C129.018 5.34717 129.138 5.75863 129.138 6.28467V9.9305C129.138 10.0034 129.102 10.0347 129.034 10.0347H128.492C128.419 10.0347 128.388 10.0034 128.388 9.9305V6.34717C128.388 6.00342 128.31 5.73779 128.159 5.5555C128.018 5.36279 127.81 5.26383 127.534 5.26383C127.253 5.26383 127.034 5.368 126.867 5.57633C126.711 5.77425 126.638 6.05029 126.638 6.40967V9.9305C126.638 10.0034 126.602 10.0347 126.534 10.0347H125.992C125.919 10.0347 125.888 10.0034 125.888 9.9305V4.78467C125.888 4.71696 125.919 4.6805 125.992 4.6805H126.534C126.602 4.6805 126.638 4.71696 126.638 4.78467V5.118C126.638 5.13363 126.643 5.14925 126.659 5.15967C126.669 5.15967 126.685 5.15446 126.701 5.13883C126.826 4.96175 126.982 4.82633 127.18 4.743C127.373 4.64925 127.576 4.59717 127.784 4.59717Z" fill="#D51224"/>
<path d="M132.25 5.13883C132.25 5.21175 132.214 5.243 132.146 5.243H131.355C131.323 5.243 131.313 5.25863 131.313 5.28467V8.51383C131.313 8.84717 131.365 9.07633 131.48 9.20133C131.589 9.32633 131.761 9.38363 132 9.368H132.105C132.172 9.368 132.209 9.40446 132.209 9.47217V9.9305C132.209 10.0034 132.172 10.0347 132.105 10.0347H131.834C131.417 10.0347 131.094 9.94613 130.875 9.76383C130.667 9.58675 130.563 9.243 130.563 8.743V5.28467C130.563 5.25863 130.547 5.243 130.521 5.243H130.105C130.032 5.243 130 5.21175 130 5.13883V4.78467C130 4.71696 130.032 4.6805 130.105 4.6805H130.521C130.547 4.6805 130.563 4.67008 130.563 4.63883V3.45133C130.563 3.38363 130.594 3.34717 130.667 3.34717H131.209C131.277 3.34717 131.313 3.38363 131.313 3.45133V4.63883C131.313 4.67008 131.323 4.6805 131.355 4.6805H132.146C132.214 4.6805 132.25 4.71696 132.25 4.78467V5.13883Z" fill="#D51224"/>
<path d="M135.097 4.59684C135.525 4.59684 135.858 4.75309 136.097 5.05518C136.332 5.34684 136.452 5.7583 136.452 6.28434V9.93018C136.452 10.0031 136.415 10.0343 136.347 10.0343H135.806C135.733 10.0343 135.702 10.0031 135.702 9.93018V6.34684C135.702 6.00309 135.624 5.73747 135.472 5.55518C135.332 5.36247 135.124 5.26351 134.847 5.26351C134.566 5.26351 134.347 5.36768 134.181 5.57601C134.025 5.77393 133.952 6.04997 133.952 6.40934V9.93018C133.952 10.0031 133.915 10.0343 133.847 10.0343H133.306C133.233 10.0343 133.202 10.0031 133.202 9.93018V2.72184C133.202 2.65413 133.233 2.61768 133.306 2.61768H133.847C133.915 2.61768 133.952 2.65413 133.952 2.72184V5.11768C133.952 5.1333 133.957 5.14893 133.972 5.15934C133.983 5.15934 133.999 5.15413 134.014 5.13851C134.139 4.96143 134.295 4.82601 134.493 4.74268C134.686 4.64893 134.889 4.59684 135.097 4.59684Z" fill="#D51224"/>
<path d="M139.252 4.59717C139.752 4.59717 140.147 4.75863 140.439 5.07633C140.731 5.39925 140.877 5.82633 140.877 6.368V9.9305C140.877 10.0034 140.84 10.0347 140.772 10.0347H140.231C140.158 10.0347 140.127 10.0034 140.127 9.9305V9.618C140.127 9.60759 140.116 9.59717 140.106 9.59717C140.106 9.58675 140.095 9.58675 140.085 9.59717C139.819 9.94613 139.424 10.118 138.897 10.118C138.507 10.118 138.168 10.0086 137.877 9.78467C137.595 9.56592 137.46 9.17008 137.46 8.59717C137.46 8.00342 137.632 7.56592 137.981 7.28467C138.325 7.00863 138.783 6.868 139.356 6.868H140.085C140.111 6.868 140.127 6.85759 140.127 6.82633V6.40967C140.127 6.06592 140.043 5.78467 139.877 5.57633C139.72 5.35759 139.507 5.243 139.231 5.243C139.022 5.243 138.84 5.32113 138.689 5.47217C138.533 5.61279 138.444 5.78467 138.418 5.993C138.418 6.07633 138.382 6.118 138.314 6.118L137.731 6.09717C137.689 6.09717 137.653 6.09196 137.627 6.07633C137.611 6.05029 137.611 6.02425 137.627 5.993C137.653 5.57633 137.819 5.243 138.127 4.993C138.429 4.73259 138.804 4.59717 139.252 4.59717ZM139.064 9.47217C139.356 9.47217 139.606 9.38363 139.814 9.20133C140.022 9.00863 140.127 8.743 140.127 8.40967V7.51383C140.127 7.48779 140.111 7.47217 140.085 7.47217H139.335C139.002 7.47217 138.731 7.56592 138.522 7.743C138.325 7.92529 138.231 8.19092 138.231 8.53467C138.231 8.85759 138.304 9.09196 138.46 9.243C138.611 9.39925 138.814 9.47217 139.064 9.47217Z" fill="#D51224"/>
<path d="M142.102 10.0343C142.029 10.0343 141.998 10.0031 141.998 9.93018V2.72184C141.998 2.65413 142.029 2.61768 142.102 2.61768H142.643C142.711 2.61768 142.748 2.65413 142.748 2.72184V9.93018C142.748 10.0031 142.711 10.0343 142.643 10.0343H142.102Z" fill="#D51224"/>
<path d="M145.851 5.13883C145.851 5.21175 145.814 5.243 145.746 5.243H144.955C144.924 5.243 144.913 5.25863 144.913 5.28467V8.51383C144.913 8.84717 144.965 9.07633 145.08 9.20133C145.189 9.32633 145.361 9.38363 145.601 9.368H145.705C145.772 9.368 145.809 9.40446 145.809 9.47217V9.9305C145.809 10.0034 145.772 10.0347 145.705 10.0347H145.434C145.017 10.0347 144.694 9.94613 144.476 9.76383C144.267 9.58675 144.163 9.243 144.163 8.743V5.28467C144.163 5.25863 144.147 5.243 144.121 5.243H143.705C143.632 5.243 143.601 5.21175 143.601 5.13883V4.78467C143.601 4.71696 143.632 4.6805 143.705 4.6805H144.121C144.147 4.6805 144.163 4.67008 144.163 4.63883V3.45133C144.163 3.38363 144.194 3.34717 144.267 3.34717H144.809C144.877 3.34717 144.913 3.38363 144.913 3.45133V4.63883C144.913 4.67008 144.924 4.6805 144.955 4.6805H145.746C145.814 4.6805 145.851 4.71696 145.851 4.78467V5.13883Z" fill="#D51224"/>
<path d="M149.989 7.53467C149.989 7.60759 149.952 7.63883 149.885 7.63883H147.468C147.437 7.63883 147.426 7.65446 147.426 7.6805V8.45133C147.426 8.75863 147.51 9.00863 147.676 9.20133C147.843 9.38363 148.062 9.47217 148.343 9.47217C148.562 9.47217 148.749 9.40446 148.905 9.26383C149.072 9.12842 149.176 8.94613 149.218 8.72217C149.244 8.65446 149.286 8.618 149.343 8.618L149.864 8.63883C149.89 8.63883 149.911 8.65446 149.926 8.6805C149.952 8.71175 149.968 8.73779 149.968 8.76383C149.911 9.1805 149.739 9.51383 149.447 9.76383C149.166 10.0034 148.801 10.118 148.343 10.118C147.843 10.118 147.437 9.97217 147.135 9.6805C146.827 9.37842 146.676 8.98259 146.676 8.493V6.22217C146.676 5.73779 146.827 5.34717 147.135 5.0555C147.437 4.75342 147.843 4.59717 148.343 4.59717C148.843 4.59717 149.239 4.75342 149.53 5.0555C149.833 5.34717 149.989 5.73779 149.989 6.22217V7.53467ZM148.343 5.243C148.062 5.243 147.843 5.34196 147.676 5.53467C147.51 5.71696 147.426 5.96175 147.426 6.26383V6.97217C147.426 7.00342 147.437 7.01383 147.468 7.01383H149.218C149.244 7.01383 149.26 7.00342 149.26 6.97217V6.26383C149.26 5.96175 149.166 5.71696 148.989 5.53467C148.822 5.34196 148.603 5.243 148.343 5.243Z" fill="#D51224"/>
<path d="M153.005 4.59717C153.432 4.59717 153.765 4.75342 154.005 5.0555C154.239 5.34717 154.359 5.75863 154.359 6.28467V9.9305C154.359 10.0034 154.322 10.0347 154.255 10.0347H153.713C153.64 10.0347 153.609 10.0034 153.609 9.9305V6.34717C153.609 6.00342 153.531 5.73779 153.38 5.5555C153.239 5.36279 153.031 5.26383 152.755 5.26383C152.473 5.26383 152.255 5.368 152.088 5.57633C151.932 5.77425 151.859 6.05029 151.859 6.40967V9.9305C151.859 10.0034 151.822 10.0347 151.755 10.0347H151.213C151.14 10.0347 151.109 10.0034 151.109 9.9305V4.78467C151.109 4.71696 151.14 4.6805 151.213 4.6805H151.755C151.822 4.6805 151.859 4.71696 151.859 4.78467V5.118C151.859 5.13363 151.864 5.14925 151.88 5.15967C151.89 5.15967 151.906 5.15446 151.921 5.13883C152.046 4.96175 152.203 4.82633 152.401 4.743C152.593 4.64925 152.796 4.59717 153.005 4.59717Z" fill="#D51224"/>
<path d="M158.088 11.1387C158.031 11.1387 157.989 11.1074 157.963 11.0553C157.682 10.5241 157.453 9.86784 157.276 9.07617C157.109 8.28451 157.026 7.46159 157.026 6.59701C157.026 5.71159 157.114 4.86263 157.297 4.05534C157.474 3.25325 157.703 2.57617 157.984 2.03451C158.01 1.98242 158.052 1.95117 158.109 1.95117H158.63C158.672 1.95117 158.698 1.9668 158.713 1.99284C158.724 2.02409 158.724 2.05013 158.713 2.07617C158.474 2.63346 158.281 3.31576 158.13 4.11784C157.974 4.90951 157.901 5.73242 157.901 6.57617C157.901 7.42513 157.974 8.23763 158.13 9.01367C158.281 9.79492 158.474 10.4564 158.713 11.0137L158.734 11.0553C158.734 11.1074 158.698 11.1387 158.63 11.1387H158.088Z" fill="#D51224"/>
<path d="M162.98 10.0343C162.907 10.0343 162.865 10.0031 162.855 9.93018L162.584 8.61768C162.584 8.60726 162.573 8.59684 162.563 8.59684C162.563 8.58643 162.553 8.57601 162.542 8.57601H160.625C160.61 8.57601 160.594 8.58643 160.584 8.59684C160.568 8.59684 160.563 8.60726 160.563 8.61768L160.313 9.93018C160.297 10.0031 160.256 10.0343 160.188 10.0343H159.646C159.615 10.0343 159.589 10.0291 159.563 10.0135C159.547 9.98747 159.547 9.95101 159.563 9.90934L161.146 2.72184C161.157 2.65413 161.193 2.61768 161.25 2.61768H161.896C161.964 2.61768 162 2.65413 162 2.72184L163.625 9.90934V9.93018C163.625 10.0031 163.589 10.0343 163.521 10.0343H162.98ZM160.709 7.93018C160.709 7.96143 160.714 7.97184 160.73 7.97184H162.417C162.428 7.97184 162.438 7.96143 162.438 7.93018L161.605 3.76351C161.589 3.75309 161.573 3.74268 161.563 3.74268C161.563 3.74268 161.563 3.75309 161.563 3.76351L160.709 7.93018Z" fill="#D51224"/>
<path d="M165.069 1.95117C165.121 1.95117 165.163 1.98242 165.194 2.03451C165.47 2.56576 165.694 3.22201 165.861 4.01367C166.038 4.80534 166.131 5.63346 166.131 6.49284C166.131 7.39909 166.038 8.25325 165.861 9.05534C165.678 9.86263 165.449 10.5241 165.173 11.0553C165.142 11.1074 165.1 11.1387 165.048 11.1387H164.548C164.506 11.1387 164.475 11.123 164.465 11.097C164.449 11.0658 164.449 11.0397 164.465 11.0137C164.699 10.4564 164.892 9.78451 165.048 8.99284C165.199 8.19076 165.277 7.36263 165.277 6.51367C165.277 5.68034 165.199 4.87825 165.048 4.09701C164.892 3.32096 164.699 2.64909 164.465 2.07617C164.449 2.06576 164.444 2.05013 164.444 2.03451C164.444 2.00846 164.449 1.98763 164.465 1.97201C164.491 1.96159 164.517 1.95117 164.548 1.95117H165.069Z" fill="#D51224"/>
<path d="M170.598 10.118C170.056 10.118 169.619 9.96175 169.285 9.63883C168.962 9.32113 168.806 8.88883 168.806 8.34717V4.3055C168.806 3.77946 168.962 3.35759 169.285 3.03467C169.619 2.70133 170.056 2.53467 170.598 2.53467C171.139 2.53467 171.577 2.70133 171.91 3.03467C172.244 3.35759 172.41 3.78467 172.41 4.32633V4.78467C172.41 4.85759 172.374 4.88883 172.306 4.88883H171.764C171.692 4.88883 171.66 4.85759 171.66 4.78467V4.3055C171.66 3.97217 171.561 3.71175 171.369 3.51383C171.171 3.3055 170.916 3.20133 170.598 3.20133C170.291 3.20133 170.041 3.3055 169.848 3.51383C169.65 3.71175 169.556 3.97217 169.556 4.3055V8.368C169.556 8.69092 169.65 8.95133 169.848 9.15967C170.041 9.368 170.291 9.47217 170.598 9.47217C170.916 9.47217 171.171 9.37842 171.369 9.1805C171.561 8.97217 171.66 8.70133 171.66 8.368V7.01383C171.66 6.98779 171.645 6.97217 171.619 6.97217H170.702C170.629 6.97217 170.598 6.94092 170.598 6.868V6.40967C170.598 6.34196 170.629 6.3055 170.702 6.3055H172.306C172.374 6.3055 172.41 6.34196 172.41 6.40967V8.34717C172.41 8.88883 172.244 9.32113 171.91 9.63883C171.577 9.96175 171.139 10.118 170.598 10.118Z" fill="#D51224"/>
<path d="M173.683 10.0343C173.61 10.0343 173.579 10.0031 173.579 9.93018V2.72184C173.579 2.65413 173.61 2.61768 173.683 2.61768H174.225C174.293 2.61768 174.329 2.65413 174.329 2.72184V9.93018C174.329 10.0031 174.293 10.0343 174.225 10.0343H173.683Z" fill="#D51224"/>
<path d="M177.995 4.78434C177.995 4.71663 178.026 4.68018 178.099 4.68018H178.64C178.708 4.68018 178.745 4.71663 178.745 4.78434V9.93018C178.745 10.0031 178.708 10.0343 178.64 10.0343H178.099C178.026 10.0343 177.995 10.0031 177.995 9.93018V9.57601C177.995 9.54997 177.984 9.53434 177.974 9.53434C177.974 9.53434 177.963 9.54476 177.953 9.55518C177.729 9.93018 177.375 10.1177 176.89 10.1177C176.474 10.1177 176.13 9.98747 175.87 9.72184C175.62 9.46143 175.495 9.0708 175.495 8.55518V4.78434C175.495 4.71663 175.536 4.68018 175.62 4.68018H176.14C176.224 4.68018 176.265 4.71663 176.265 4.78434V8.38851C176.265 8.73747 176.333 9.00309 176.474 9.18018C176.609 9.36247 176.818 9.45101 177.099 9.45101C177.375 9.45101 177.588 9.35726 177.745 9.15934C177.911 8.95101 177.995 8.66976 177.995 8.30518V4.78434Z" fill="#D51224"/>
<path d="M181.92 5.13883C181.92 5.21175 181.883 5.243 181.816 5.243H181.024C180.993 5.243 180.982 5.25863 180.982 5.28467V8.51383C180.982 8.84717 181.035 9.07633 181.149 9.20133C181.258 9.32633 181.43 9.38363 181.67 9.368H181.774C181.842 9.368 181.878 9.40446 181.878 9.47217V9.9305C181.878 10.0034 181.842 10.0347 181.774 10.0347H181.503C181.087 10.0347 180.764 9.94613 180.545 9.76383C180.337 9.58675 180.232 9.243 180.232 8.743V5.28467C180.232 5.25863 180.217 5.243 180.191 5.243H179.774C179.701 5.243 179.67 5.21175 179.67 5.13883V4.78467C179.67 4.71696 179.701 4.6805 179.774 4.6805H180.191C180.217 4.6805 180.232 4.67008 180.232 4.63883V3.45133C180.232 3.38363 180.264 3.34717 180.337 3.34717H180.878C180.946 3.34717 180.982 3.38363 180.982 3.45133V4.63883C180.982 4.67008 180.993 4.6805 181.024 4.6805H181.816C181.883 4.6805 181.92 4.71696 181.92 4.78467V5.13883Z" fill="#D51224"/>
<path d="M186.058 7.53467C186.058 7.60759 186.022 7.63883 185.954 7.63883H183.537C183.506 7.63883 183.496 7.65446 183.496 7.6805V8.45133C183.496 8.75863 183.579 9.00863 183.746 9.20133C183.912 9.38363 184.131 9.47217 184.412 9.47217C184.631 9.47217 184.819 9.40446 184.975 9.26383C185.141 9.12842 185.246 8.94613 185.287 8.72217C185.313 8.65446 185.355 8.618 185.412 8.618L185.933 8.63883C185.959 8.63883 185.98 8.65446 185.996 8.6805C186.022 8.71175 186.037 8.73779 186.037 8.76383C185.98 9.1805 185.808 9.51383 185.516 9.76383C185.235 10.0034 184.871 10.118 184.412 10.118C183.912 10.118 183.506 9.97217 183.204 9.6805C182.897 9.37842 182.746 8.98259 182.746 8.493V6.22217C182.746 5.73779 182.897 5.34717 183.204 5.0555C183.506 4.75342 183.912 4.59717 184.412 4.59717C184.912 4.59717 185.308 4.75342 185.6 5.0555C185.902 5.34717 186.058 5.73779 186.058 6.22217V7.53467ZM184.412 5.243C184.131 5.243 183.912 5.34196 183.746 5.53467C183.579 5.71696 183.496 5.96175 183.496 6.26383V6.97217C183.496 7.00342 183.506 7.01383 183.537 7.01383H185.287C185.313 7.01383 185.329 7.00342 185.329 6.97217V6.26383C185.329 5.96175 185.235 5.71696 185.058 5.53467C184.891 5.34196 184.673 5.243 184.412 5.243Z" fill="#D51224"/>
<path d="M189.074 4.59717C189.501 4.59717 189.834 4.75342 190.074 5.0555C190.308 5.34717 190.428 5.75863 190.428 6.28467V9.9305C190.428 10.0034 190.392 10.0347 190.324 10.0347H189.782C189.709 10.0347 189.678 10.0034 189.678 9.9305V6.34717C189.678 6.00342 189.6 5.73779 189.449 5.5555C189.308 5.36279 189.1 5.26383 188.824 5.26383C188.543 5.26383 188.324 5.368 188.157 5.57633C188.001 5.77425 187.928 6.05029 187.928 6.40967V9.9305C187.928 10.0034 187.892 10.0347 187.824 10.0347H187.282C187.209 10.0347 187.178 10.0034 187.178 9.9305V4.78467C187.178 4.71696 187.209 4.6805 187.282 4.6805H187.824C187.892 4.6805 187.928 4.71696 187.928 4.78467V5.118C187.928 5.13363 187.933 5.14925 187.949 5.15967C187.959 5.15967 187.975 5.15446 187.991 5.13883C188.116 4.96175 188.272 4.82633 188.47 4.743C188.663 4.64925 188.866 4.59717 189.074 4.59717Z" fill="#D51224"/>
</g>
</svg>
