<svg width="6" height="9" viewBox="0 0 6 9" fill="none" xmlns="http://www.w3.org/2000/svg">
<path d="M4.10417 0.166667C4.10417 0.057292 4.15625 0 4.27083 0H5.14583C5.27083 0 5.33333 0.057292 5.33333 0.166667V8.625C5.33333 8.73958 5.27083 8.79167 5.14583 8.79167H4.27083C4.15625 8.79167 4.10417 8.73958 4.10417 8.625V8.02083C4.10417 7.99479 4.08854 7.97917 4.0625 7.97917C4.04688 7.97917 4.02604 7.98958 4 8C3.65104 8.61458 3.07292 8.91667 2.27083 8.91667C1.57292 8.91667 1.02083 8.70833 0.604167 8.29167C0.197916 7.86458 0 7.21875 0 6.35417V0.166667C0 0.057292 0.052084 0 0.166667 0H1.0625C1.17187 0 1.22917 0.057292 1.22917 0.166667V6.08333C1.22917 6.66667 1.34375 7.10417 1.58333 7.39583C1.81771 7.6875 2.16667 7.83333 2.625 7.83333C3.08333 7.83333 3.44271 7.66667 3.70833 7.33333C3.96875 7 4.10417 6.54167 4.10417 5.95833V0.166667Z" fill="#D72333"/>
</svg>
