<svg width="11" height="20" viewBox="0 0 11 20" fill="none" xmlns="http://www.w3.org/2000/svg">
<path d="M10.2292 3.04167C10.2292 3.14063 10.1927 3.22396 10.125 3.29167C10.0521 3.36458 9.97917 3.39583 9.89583 3.39583H4.08333C3.98437 3.39583 3.9375 3.4375 3.9375 3.52083V7.9375C3.9375 8.03646 3.98437 8.08333 4.08333 8.08333H7.39583C7.48958 8.08333 7.56771 8.11979 7.625 8.1875C7.69271 8.24479 7.72917 8.32292 7.72917 8.41667V11.125C7.72917 11.224 7.69271 11.3073 7.625 11.375C7.56771 11.4323 7.48958 11.4583 7.39583 11.4583H4.08333C3.98437 11.4583 3.9375 11.5104 3.9375 11.6042V19.2292C3.9375 19.3281 3.90104 19.4115 3.83333 19.4792C3.77604 19.5365 3.69792 19.5625 3.60417 19.5625H0.333333C0.234375 19.5625 0.151041 19.5365 0.0833333 19.4792C0.0260413 19.4115 0 19.3281 0 19.2292V0.333333C0 0.25 0.0260413 0.177084 0.0833333 0.104167C0.151041 0.0364587 0.234375 0 0.333333 0H9.89583C9.97917 0 10.0521 0.0364587 10.125 0.104167C10.1927 0.177084 10.2292 0.25 10.2292 0.333333V3.04167Z" fill="#D72333"/>
</svg>
