<svg width="9" height="20" viewBox="0 0 9 20" fill="none" xmlns="http://www.w3.org/2000/svg">
<path d="M4.45833 19.0417C3.13542 19.0417 2.06771 18.6146 1.25 17.75C0.442708 16.875 0.0416667 15.7396 0.0416667 14.3333V13.7292C0.0416667 13.5521 0.125 13.4583 0.291667 13.4583H1.60417C1.78125 13.4583 1.875 13.5521 1.875 13.7292V14.25C1.875 15.1979 2.10937 15.9583 2.58333 16.5417C3.06771 17.1146 3.69271 17.3958 4.45833 17.3958C5.19271 17.3958 5.8125 17.125 6.3125 16.5833C6.8125 16.0313 7.0625 15.3021 7.0625 14.3958C7.0625 13.7865 6.9375 13.2656 6.6875 12.8333C6.44792 12.4063 6.13542 12.0313 5.75 11.7083C5.375 11.375 4.75 10.8698 3.875 10.1875C2.98437 9.53646 2.28125 8.97396 1.77083 8.5C1.25521 8.03125 0.833333 7.46875 0.5 6.8125C0.166667 6.16146 0 5.39063 0 4.5C0 3.11458 0.395833 2.01563 1.1875 1.20833C1.98958 0.406251 3.03125 0 4.3125 0C5.65625 0 6.73438 0.4375 7.54167 1.3125C8.34375 2.1875 8.75 3.35417 8.75 4.8125V5.47917C8.75 5.66146 8.66667 5.75 8.5 5.75H7.16667C6.98438 5.75 6.89583 5.66146 6.89583 5.47917V4.79167C6.89583 3.84896 6.65625 3.09375 6.1875 2.52083C5.71354 1.9375 5.08854 1.64583 4.3125 1.64583C3.60417 1.64583 3.02083 1.90625 2.5625 2.41667C2.10417 2.91667 1.875 3.625 1.875 4.54167C1.875 5.09896 1.96875 5.58333 2.16667 6C2.375 6.41667 2.67708 6.8125 3.08333 7.1875C3.5 7.55208 4.10417 8.03646 4.89583 8.64583C5.96354 9.42708 6.75521 10.0573 7.27083 10.5417C7.79688 11.0313 8.19792 11.5625 8.47917 12.1458C8.77083 12.7188 8.91667 13.4115 8.91667 14.2292C8.91667 15.6875 8.5 16.8542 7.66667 17.7292C6.83333 18.6042 5.76042 19.0417 4.45833 19.0417Z" fill="#D72333"/>
</svg>
