<svg width="6" height="12" viewBox="0 0 6 12" fill="none" xmlns="http://www.w3.org/2000/svg">
<path d="M2.6875 11.3542C1.88021 11.3542 1.22917 11.1042 0.729167 10.6042C0.239584 10.1042 0 9.4375 0 8.60417V2.72917C0 1.89583 0.239584 1.23958 0.729167 0.75C1.22917 0.25 1.88021 0 2.6875 0C3.52083 0 4.17708 0.244792 4.66667 0.729167C5.16667 1.21875 5.41667 1.88542 5.41667 2.72917V3C5.41667 3.09896 5.35938 3.14583 5.25 3.14583L4.4375 3.1875C4.32292 3.1875 4.27083 3.14063 4.27083 3.04167V2.64583C4.27083 2.14583 4.125 1.74479 3.83333 1.4375C3.55208 1.13542 3.17187 0.979167 2.6875 0.979167C2.22917 0.979167 1.85417 1.13542 1.5625 1.4375C1.27083 1.74479 1.125 2.14583 1.125 2.64583V8.70833C1.125 9.20833 1.27083 9.61458 1.5625 9.91667C1.85417 10.224 2.22917 10.375 2.6875 10.375C3.17187 10.375 3.55208 10.224 3.83333 9.91667C4.125 9.61458 4.27083 9.20833 4.27083 8.70833V8.3125C4.27083 8.20313 4.32292 8.14583 4.4375 8.14583L5.25 8.1875C5.35938 8.1875 5.41667 8.24479 5.41667 8.35417V8.60417C5.41667 9.4375 5.16667 10.1042 4.66667 10.6042C4.16667 11.1042 3.50521 11.3542 2.6875 11.3542Z" fill="#D72333"/>
</svg>
