<svg width="7" height="11" viewBox="0 0 7 11" fill="none" xmlns="http://www.w3.org/2000/svg">
<path d="M4.45833 0.1875C4.45833 0.135417 4.46875 0.0937507 4.5 0.0625C4.54167 0.0208333 4.58854 0 4.64583 0H6.0625C6.11458 0 6.15625 0.0208333 6.1875 0.0625C6.22917 0.0937507 6.25 0.135417 6.25 0.1875V10.7917C6.25 10.849 6.22917 10.8958 6.1875 10.9375C6.15625 10.9688 6.11458 10.9792 6.0625 10.9792H4.41667C4.30208 10.9792 4.23438 10.9271 4.20833 10.8125L1.875 4.16667C1.85937 4.14063 1.83854 4.13542 1.8125 4.14583C1.79687 4.14583 1.79167 4.16146 1.79167 4.1875V10.7917C1.79167 10.849 1.77083 10.8958 1.72917 10.9375C1.69792 10.9688 1.65625 10.9792 1.60417 10.9792H0.1875C0.130208 10.9792 0.0833333 10.9688 0.0416667 10.9375C0.0104173 10.8958 0 10.849 0 10.7917V0.1875C0 0.135417 0.0104173 0.0937507 0.0416667 0.0625C0.0833333 0.0208333 0.130208 0 0.1875 0H1.79167C1.90104 0 1.96875 0.052084 2 0.145833L4.35417 6.75C4.36458 6.79167 4.38542 6.8125 4.41667 6.8125C4.44271 6.80208 4.45833 6.78125 4.45833 6.75V0.1875Z" fill="white"/>
</svg>
