<svg width="5" height="9" viewBox="0 0 5 9" fill="none" xmlns="http://www.w3.org/2000/svg">
<path d="M2.45833 8.1875C1.70833 8.1875 1.10937 7.97396 0.666667 7.54167C0.218749 7.09896 0 6.51563 0 5.79167V2.41667C0 1.70833 0.218749 1.13542 0.666667 0.6875C1.10937 0.229167 1.70833 0 2.45833 0C3.20833 0 3.80208 0.229167 4.25 0.6875C4.70833 1.13542 4.9375 1.70833 4.9375 2.41667V5.79167C4.9375 6.51563 4.70833 7.09896 4.25 7.54167C3.80208 7.97396 3.20833 8.1875 2.45833 8.1875ZM2.45833 7.20833C2.84375 7.20833 3.16667 7.07292 3.41667 6.79167C3.67708 6.51563 3.8125 6.15625 3.8125 5.70833V2.47917C3.8125 2.03646 3.67708 1.67708 3.41667 1.39583C3.16667 1.11979 2.84375 0.979167 2.45833 0.979167C2.05208 0.979167 1.72917 1.11979 1.47917 1.39583C1.22917 1.67708 1.10417 2.03646 1.10417 2.47917V5.70833C1.10417 6.15625 1.22917 6.51563 1.47917 6.79167C1.72917 7.07292 2.05208 7.20833 2.45833 7.20833Z" fill="#D72333"/>
</svg>
