<svg width="7" height="12" viewBox="0 0 7 12" fill="none" xmlns="http://www.w3.org/2000/svg">
<path d="M3.20833 11.3542C2.23437 11.3542 1.45833 11.0729 0.875 10.5C0.291667 9.93229 0 9.16667 0 8.20833V3.125C0 2.18229 0.291667 1.42708 0.875 0.854167C1.45833 0.286459 2.23437 0 3.20833 0C4.17708 0 4.95833 0.286459 5.54167 0.854167C6.13542 1.42708 6.4375 2.18229 6.4375 3.125V8.20833C6.4375 9.16667 6.13542 9.93229 5.54167 10.5C4.95833 11.0729 4.17708 11.3542 3.20833 11.3542ZM3.20833 9.4375C3.5 9.4375 3.73437 9.33333 3.91667 9.125C4.09375 8.91667 4.1875 8.64583 4.1875 8.3125V3.04167C4.1875 2.69792 4.09375 2.42708 3.91667 2.22917C3.73437 2.02083 3.5 1.91667 3.20833 1.91667C2.90104 1.91667 2.65625 2.02083 2.47917 2.22917C2.3125 2.42708 2.22917 2.69792 2.22917 3.04167V8.3125C2.22917 8.64583 2.3125 8.91667 2.47917 9.125C2.65625 9.33333 2.90104 9.4375 3.20833 9.4375Z" fill="#D72333"/>
</svg>
