<svg width="5" height="9" viewBox="0 0 5 9" fill="none" xmlns="http://www.w3.org/2000/svg">
<path d="M4.89583 4.35417C4.89583 4.46875 4.84375 4.52083 4.75 4.52083H1.16667C1.125 4.52083 1.10417 4.54167 1.10417 4.58333V5.72917C1.10417 6.16146 1.22917 6.51563 1.47917 6.79167C1.72917 7.07292 2.04687 7.20833 2.4375 7.20833C2.77083 7.20833 3.05208 7.11458 3.29167 6.91667C3.52604 6.70833 3.67708 6.44792 3.75 6.125C3.79167 6.03125 3.85417 5.97917 3.9375 5.97917L4.70833 6C4.75 6 4.78125 6.02083 4.8125 6.0625C4.85417 6.09375 4.86458 6.13542 4.85417 6.1875C4.77083 6.80208 4.51042 7.28646 4.08333 7.64583C3.66667 8.01042 3.11458 8.1875 2.4375 8.1875C1.69792 8.1875 1.10937 7.97396 0.666667 7.54167C0.218749 7.09896 0 6.51563 0 5.79167V2.39583C0 1.6875 0.218749 1.11458 0.666667 0.666667C1.10937 0.223959 1.69792 0 2.4375 0C3.1875 0 3.78125 0.223959 4.22917 0.666667C4.67188 1.11458 4.89583 1.6875 4.89583 2.39583V4.35417ZM2.4375 0.979167C2.04687 0.979167 1.72917 1.11979 1.47917 1.39583C1.22917 1.67708 1.10417 2.03646 1.10417 2.47917V3.52083C1.10417 3.5625 1.125 3.58333 1.16667 3.58333H3.75C3.79167 3.58333 3.8125 3.5625 3.8125 3.52083V2.47917C3.8125 2.03646 3.67708 1.67708 3.41667 1.39583C3.16667 1.11979 2.83854 0.979167 2.4375 0.979167Z" fill="#D51224"/>
</svg>
