<svg width="28" height="39" viewBox="0 0 28 39" fill="none" xmlns="http://www.w3.org/2000/svg">
<mask id="mask0_25_20237" style="mask-type:luminance" maskUnits="userSpaceOnUse" x="0" y="0" width="28" height="39">
<path d="M28 0H0V38.6667H28V0Z" fill="white"/>
</mask>
<g mask="url(#mask0_25_20237)">
<path d="M4.35661 16.6764C3.54932 16.6764 2.90348 16.416 2.41911 15.8848C1.92953 15.3587 1.68994 14.6764 1.68994 13.8431V8.0931C1.68994 7.25977 1.92953 6.58268 2.41911 6.05143C2.90348 5.52539 3.54932 5.25977 4.35661 5.25977C5.15869 5.25977 5.81494 5.52539 6.31494 6.05143C6.81494 6.58268 7.06494 7.25977 7.06494 8.0931V13.8431C7.06494 14.6764 6.81494 15.3587 6.31494 15.8848C5.81494 16.416 5.15869 16.6764 4.35661 16.6764ZM4.35661 15.6764C4.84098 15.6764 5.22119 15.5202 5.50244 15.1973C5.79411 14.8639 5.93994 14.4368 5.93994 13.9056V8.0306C5.93994 7.50456 5.79411 7.08268 5.50244 6.75977C5.22119 6.42643 4.84098 6.25977 4.35661 6.25977C3.89827 6.25977 3.52327 6.42643 3.23161 6.75977C2.93994 7.08268 2.79411 7.50456 2.79411 8.0306V13.9056C2.79411 14.4368 2.93994 14.8639 3.23161 15.1973C3.52327 15.5202 3.89827 15.6764 4.35661 15.6764Z" fill="#D72333"/>
<path d="M9.37988 16.4889C9.11426 16.4889 8.90072 16.4056 8.73405 16.2389C8.5778 16.0618 8.50488 15.8431 8.50488 15.5931C8.50488 15.3327 8.5778 15.1139 8.73405 14.9473C8.90072 14.7806 9.11426 14.6973 9.37988 14.6973C9.6403 14.6973 9.85905 14.7806 10.0257 14.9473C10.1924 15.1139 10.2757 15.3327 10.2757 15.5931C10.2757 15.8431 10.1924 16.0618 10.0257 16.2389C9.85905 16.4056 9.6403 16.4889 9.37988 16.4889Z" fill="#D72333"/>
<path d="M12.8853 15.4471C12.8696 15.4784 12.8696 15.4992 12.8853 15.5096C12.8957 15.5252 12.9113 15.5304 12.9269 15.5304H16.6561C16.7498 15.5304 16.8019 15.5825 16.8019 15.6763V16.3429C16.8019 16.4575 16.7498 16.5096 16.6561 16.5096H11.6769C11.5623 16.5096 11.5103 16.4575 11.5103 16.3429V15.6346C11.5103 15.5513 11.5311 15.4836 11.5728 15.4263C11.9061 14.9159 12.0936 14.6242 12.1353 14.5513C13.0623 13.0825 13.8019 11.8846 14.3436 10.9679C15.0103 9.80127 15.3436 8.84294 15.3436 8.09294C15.3436 7.54085 15.2186 7.10335 14.9686 6.78044C14.7186 6.4471 14.3853 6.28044 13.9686 6.28044C13.5623 6.28044 13.2394 6.44189 12.9894 6.7596C12.7498 7.08252 12.6353 7.5044 12.6353 8.03044V8.6346C12.6353 8.74919 12.5832 8.80127 12.4894 8.80127H11.6561C11.5571 8.80127 11.5103 8.74919 11.5103 8.6346V8.0096C11.5207 7.19189 11.7603 6.54085 12.2186 6.05127C12.6769 5.55127 13.2707 5.30127 14.0103 5.30127C14.7603 5.30127 15.354 5.56169 15.8019 6.0721C16.2603 6.58773 16.4894 7.2596 16.4894 8.09294C16.4894 9.08252 16.1144 10.1971 15.3644 11.4471C14.9894 12.0877 14.453 12.9471 13.7603 14.0304L12.8853 15.4471Z" fill="#D72333"/>
<path d="M22.9735 11.6138C23.0828 12.0044 23.1401 12.5096 23.1401 13.1346C23.1401 13.6086 23.1037 14.0461 23.036 14.4471C22.937 15.1554 22.6818 15.6971 22.2651 16.0721C21.8485 16.4471 21.2912 16.6346 20.5985 16.6346C19.9162 16.6346 19.3693 16.4575 18.9526 16.0929C18.536 15.7179 18.2651 15.1659 18.1401 14.4263L18.0985 13.9471V13.9054C18.0985 13.8221 18.1453 13.7804 18.2443 13.7804H19.0568C19.1506 13.7804 19.2078 13.8377 19.2235 13.9471L19.2651 14.3221C19.4318 15.2127 19.8745 15.6554 20.5985 15.6554C20.9318 15.6554 21.2078 15.5513 21.4318 15.3429C21.6506 15.1242 21.8068 14.8013 21.8901 14.3846C21.9735 14.0513 22.0151 13.6294 22.0151 13.1138C22.0151 12.5877 21.9631 12.1346 21.8693 11.7596C21.6714 11.0252 21.2495 10.6554 20.5985 10.6554C19.8745 10.6554 19.4214 11.02 19.2443 11.7388C19.2026 11.8377 19.1401 11.8846 19.0568 11.8846H18.2443C18.1297 11.8846 18.0776 11.8325 18.0776 11.7179V5.59294C18.0776 5.48356 18.1297 5.42627 18.2443 5.42627H22.7235C22.8328 5.42627 22.8901 5.48356 22.8901 5.59294V6.2596C22.8901 6.35856 22.8328 6.40544 22.7235 6.40544H19.2651C19.2235 6.40544 19.2026 6.42627 19.2026 6.46794L19.1818 10.4054C19.1818 10.4211 19.187 10.4367 19.2026 10.4471C19.2287 10.4627 19.2495 10.4575 19.2651 10.4263C19.4318 10.1763 19.6506 9.98877 19.9318 9.86377C20.2235 9.72835 20.5412 9.65544 20.8901 9.65544C21.4422 9.65544 21.9006 9.83252 22.2651 10.1763C22.6245 10.5096 22.8589 10.9888 22.9735 11.6138Z" fill="#D72333"/>
<path d="M24.7352 16.5096C24.6362 16.5096 24.5894 16.4575 24.5894 16.3429V5.59294C24.5894 5.48356 24.6362 5.42627 24.7352 5.42627H25.5477C25.6571 5.42627 25.7144 5.48356 25.7144 5.59294V16.3429C25.7144 16.4575 25.6571 16.5096 25.5477 16.5096H24.7352Z" fill="#D72333"/>
<path d="M4.35661 34.0563C3.54932 34.0563 2.90348 33.7959 2.41911 33.2646C1.92953 32.7386 1.68994 32.0563 1.68994 31.223V25.473C1.68994 24.6396 1.92953 23.9626 2.41911 23.4313C2.90348 22.9053 3.54932 22.6396 4.35661 22.6396C5.15869 22.6396 5.81494 22.9053 6.31494 23.4313C6.81494 23.9626 7.06494 24.6396 7.06494 25.473V31.223C7.06494 32.0563 6.81494 32.7386 6.31494 33.2646C5.81494 33.7959 5.15869 34.0563 4.35661 34.0563ZM4.35661 33.0563C4.84098 33.0563 5.22119 32.9001 5.50244 32.5771C5.79411 32.2438 5.93994 31.8167 5.93994 31.2855V25.4105C5.93994 24.8844 5.79411 24.4626 5.50244 24.1396C5.22119 23.8063 4.84098 23.6396 4.35661 23.6396C3.89827 23.6396 3.52327 23.8063 3.23161 24.1396C2.93994 24.4626 2.79411 24.8844 2.79411 25.4105V31.2855C2.79411 31.8167 2.93994 32.2438 3.23161 32.5771C3.52327 32.9001 3.89827 33.0563 4.35661 33.0563Z" fill="#D72333"/>
<path d="M9.37988 33.8688C9.11426 33.8688 8.90072 33.7855 8.73405 33.6188C8.5778 33.4417 8.50488 33.223 8.50488 32.973C8.50488 32.7126 8.5778 32.4938 8.73405 32.3271C8.90072 32.1605 9.11426 32.0771 9.37988 32.0771C9.6403 32.0771 9.85905 32.1605 10.0257 32.3271C10.1924 32.4938 10.2757 32.7126 10.2757 32.973C10.2757 33.223 10.1924 33.4417 10.0257 33.6188C9.85905 33.7855 9.6403 33.8688 9.37988 33.8688Z" fill="#D72333"/>
<path d="M16.6146 28.9937C16.724 29.3843 16.7812 29.8895 16.7812 30.5145C16.7812 30.9884 16.7448 31.4259 16.6771 31.827C16.5781 32.5353 16.3229 33.077 15.9062 33.452C15.4896 33.827 14.9323 34.0145 14.2396 34.0145C13.5573 34.0145 13.0104 33.8374 12.5938 33.4728C12.1771 33.0978 11.9062 32.5457 11.7812 31.8062L11.7396 31.327V31.2853C11.7396 31.202 11.7865 31.1603 11.8854 31.1603H12.6979C12.7917 31.1603 12.849 31.2176 12.8646 31.327L12.9062 31.702C13.0729 32.5926 13.5156 33.0353 14.2396 33.0353C14.5729 33.0353 14.849 32.9312 15.0729 32.7228C15.2917 32.5041 15.4479 32.1812 15.5312 31.7645C15.6146 31.4312 15.6562 31.0093 15.6562 30.4937C15.6562 29.9676 15.6042 29.5145 15.5104 29.1395C15.3125 28.4051 14.8906 28.0353 14.2396 28.0353C13.5156 28.0353 13.0625 28.3999 12.8854 29.1187C12.8438 29.2176 12.7812 29.2645 12.6979 29.2645H11.8854C11.7708 29.2645 11.7188 29.2124 11.7188 29.0978V22.9728C11.7188 22.8634 11.7708 22.8062 11.8854 22.8062H16.3646C16.474 22.8062 16.5312 22.8634 16.5312 22.9728V23.6395C16.5312 23.7384 16.474 23.7853 16.3646 23.7853H12.9062C12.8646 23.7853 12.8438 23.8062 12.8438 23.8478L12.8229 27.7853C12.8229 27.8009 12.8281 27.8166 12.8438 27.827C12.8698 27.8426 12.8906 27.8374 12.9062 27.8062C13.0729 27.5562 13.2917 27.3687 13.5729 27.2437C13.8646 27.1082 14.1823 27.0353 14.5312 27.0353C15.0833 27.0353 15.5417 27.2124 15.9062 27.5562C16.2656 27.8895 16.5 28.3687 16.6146 28.9937Z" fill="#D72333"/>
<path d="M18.3758 33.8895C18.2769 33.8895 18.23 33.8374 18.23 33.7228V22.9728C18.23 22.8634 18.2769 22.8062 18.3758 22.8062H19.1883C19.2977 22.8062 19.355 22.8634 19.355 22.9728V33.7228C19.355 33.8374 19.2977 33.8895 19.1883 33.8895H18.3758Z" fill="#D72333"/>
</g>
</svg>
