<svg width="3" height="8" viewBox="0 0 3 8" fill="none" xmlns="http://www.w3.org/2000/svg">
<path d="M2.0625 0.645833C1.79687 0.645833 1.60937 0.739583 1.5 0.916667C1.38542 1.09896 1.33333 1.38542 1.33333 1.77083V2.08333C1.33333 2.11458 1.34375 2.125 1.375 2.125H2.1875C2.25521 2.125 2.29167 2.16667 2.29167 2.25V2.58333C2.29167 2.66667 2.25521 2.70833 2.1875 2.70833H1.375C1.34375 2.70833 1.33333 2.72396 1.33333 2.75V7.41667C1.33333 7.48958 1.29687 7.52083 1.22917 7.52083H0.6875C0.614584 7.52083 0.583333 7.48958 0.583333 7.41667V2.75C0.583333 2.72396 0.567708 2.70833 0.541667 2.70833H0.104167C0.0312507 2.70833 0 2.66667 0 2.58333V2.25C0 2.16667 0.0312507 2.125 0.104167 2.125H0.541667C0.567708 2.125 0.583333 2.11458 0.583333 2.08333V1.75C0.583333 1.14063 0.692708 0.697916 0.916667 0.416667C1.15104 0.140625 1.53125 0 2.0625 0H2.20833C2.27604 0 2.3125 0.0364587 2.3125 0.104167V0.541667C2.3125 0.614583 2.27604 0.645833 2.20833 0.645833H2.0625Z" fill="#D72333"/>
</svg>
