<svg width="5" height="8" viewBox="0 0 5 8" fill="none" xmlns="http://www.w3.org/2000/svg">
<path d="M2.58333 0C3.30208 0 3.875 0.239583 4.29167 0.708333C4.71875 1.16667 4.9375 1.78125 4.9375 2.54167V7.70833C4.9375 7.80729 4.88542 7.85417 4.79167 7.85417H4.02083C3.90625 7.85417 3.85417 7.80729 3.85417 7.70833V7.25C3.85417 7.22396 3.84375 7.20833 3.83333 7.20833C3.81771 7.19792 3.80208 7.20313 3.79167 7.22917C3.40104 7.72917 2.83333 7.97917 2.08333 7.97917C1.52604 7.97917 1.04167 7.82292 0.625 7.5C0.208333 7.18229 0 6.61458 0 5.79167C0 4.93229 0.25 4.30208 0.75 3.89583C1.25 3.49479 1.90625 3.29167 2.72917 3.29167H3.79167C3.83333 3.29167 3.85417 3.27083 3.85417 3.22917V2.625C3.85417 2.11458 3.73437 1.70313 3.5 1.39583C3.27604 1.09375 2.96354 0.9375 2.5625 0.9375C2.25521 0.9375 1.98958 1.04167 1.77083 1.25C1.54687 1.45833 1.41667 1.71875 1.375 2.02083C1.375 2.13542 1.32292 2.1875 1.22917 2.1875L0.375 2.16667C0.317708 2.16667 0.276041 2.15625 0.25 2.125C0.234375 2.09896 0.229167 2.0625 0.229167 2.02083C0.281249 1.41146 0.526041 0.927084 0.958333 0.5625C1.40104 0.1875 1.94271 0 2.58333 0ZM2.3125 7.02083C2.72917 7.02083 3.08854 6.89063 3.39583 6.625C3.69792 6.34896 3.85417 5.97396 3.85417 5.5V4.20833C3.85417 4.16667 3.83333 4.14583 3.79167 4.14583H2.70833C2.21875 4.14583 1.83333 4.28125 1.54167 4.54167C1.26042 4.80729 1.125 5.19792 1.125 5.70833C1.125 6.15625 1.23437 6.48958 1.45833 6.70833C1.67708 6.91667 1.96354 7.02083 2.3125 7.02083Z" fill="#D72333"/>
</svg>
