<svg width="7" height="12" viewBox="0 0 7 12" fill="none" xmlns="http://www.w3.org/2000/svg">
<path d="M2.625 11.2292C1.81771 11.2292 1.17708 11.0104 0.708333 10.5625C0.234375 10.1042 0 9.51563 0 8.79167C0 8.69792 0.005208 8.55208 0.0208333 8.35417L0.0833333 7.89583C0.0937493 7.85417 0.114584 7.8125 0.145833 7.77083C0.1875 7.72917 0.234375 7.70833 0.291667 7.70833H2.04167C2.15104 7.70833 2.20833 7.77083 2.20833 7.89583L2.16667 8.25C2.15104 8.29167 2.14583 8.35417 2.14583 8.4375C2.14583 8.71875 2.21354 8.9375 2.35417 9.10417C2.48958 9.26042 2.66667 9.33333 2.875 9.33333C3.15104 9.33333 3.38542 9.22396 3.58333 9C3.77604 8.78125 3.875 8.49479 3.875 8.14583C3.875 7.88542 3.78125 7.64583 3.60417 7.4375C3.42187 7.22917 3.08333 6.91667 2.58333 6.5C2.16667 6.16667 1.82292 5.86979 1.5625 5.60417C1.29687 5.34375 1.07292 5.02083 0.895833 4.64583C0.713541 4.27083 0.625 3.84896 0.625 3.375C0.625 2.70833 0.760416 2.125 1.04167 1.625C1.33333 1.11458 1.72917 0.718751 2.22917 0.4375C2.73958 0.145833 3.31771 0 3.95833 0C4.76042 0 5.40104 0.239583 5.875 0.708333C6.34375 1.16667 6.58333 1.78646 6.58333 2.5625C6.58333 2.64583 6.57292 2.79167 6.5625 3L6.5 3.39583C6.5 3.4375 6.47917 3.47917 6.4375 3.52083C6.39583 3.5625 6.34375 3.58333 6.29167 3.58333H4.54167C4.48438 3.58333 4.44271 3.5625 4.41667 3.52083C4.38542 3.47917 4.38021 3.4375 4.39583 3.39583L4.4375 2.95833C4.44792 2.91667 4.45833 2.84896 4.45833 2.75C4.45833 2.5 4.38542 2.30208 4.25 2.14583C4.125 1.97917 3.94271 1.89583 3.70833 1.89583C3.44271 1.89583 3.21354 2.01042 3.02083 2.22917C2.83854 2.45313 2.75 2.75 2.75 3.125C2.75 3.39063 2.83333 3.63542 3 3.85417C3.17708 4.07813 3.5 4.38542 3.95833 4.77083C4.48438 5.20313 4.88021 5.55729 5.14583 5.83333C5.40625 6.09896 5.61458 6.39063 5.77083 6.70833C5.9375 7.01563 6.02083 7.36979 6.02083 7.77083C6.02083 7.85417 6.00521 8 5.97917 8.20833C5.86458 9.14063 5.5 9.875 4.875 10.4167C4.26042 10.9583 3.51042 11.2292 2.625 11.2292Z" fill="white"/>
</svg>
