<svg width="7" height="12" viewBox="0 0 7 12" fill="none" xmlns="http://www.w3.org/2000/svg">
<path d="M6.375 8.04167C6.375 9.03125 6.07292 9.78646 5.47917 10.3125C4.89583 10.8438 4.13021 11.1042 3.1875 11.1042H0.1875C0.130208 11.1042 0.0833333 11.0938 0.0416667 11.0625C0.010416 11.0208 0 10.974 0 10.9167V0.1875C0 0.135417 0.010416 0.0937507 0.0416667 0.0625C0.0833333 0.0208333 0.130208 0 0.1875 0H2.83333C3.88542 0 4.71354 0.260417 5.3125 0.770833C5.90625 1.27083 6.20833 2.02083 6.20833 3.02083C6.20833 4.07813 5.84375 4.84375 5.125 5.3125C5.08333 5.34375 5.08333 5.36979 5.125 5.39583C5.95833 5.99479 6.375 6.875 6.375 8.04167ZM2.3125 1.91667C2.25521 1.91667 2.22917 1.94792 2.22917 2V4.47917C2.22917 4.53646 2.25521 4.5625 2.3125 4.5625H2.875C3.23437 4.5625 3.51042 4.45313 3.70833 4.22917C3.91667 3.99479 4.02083 3.67708 4.02083 3.27083C4.02083 2.82813 3.92187 2.49479 3.72917 2.27083C3.53125 2.03646 3.25 1.91667 2.875 1.91667H2.3125ZM3 9.16667C3.34375 9.16667 3.61458 9.04167 3.8125 8.79167C4.02083 8.53125 4.125 8.16667 4.125 7.70833C4.125 7.23958 4.02083 6.86979 3.8125 6.60417C3.61458 6.32813 3.35417 6.1875 3.02083 6.1875H2.3125C2.25521 6.1875 2.22917 6.21875 2.22917 6.27083V9.08333C2.22917 9.14063 2.25521 9.16667 2.3125 9.16667H3Z" fill="#D72333"/>
</svg>
