<svg width="6" height="12" viewBox="0 0 6 12" fill="none" xmlns="http://www.w3.org/2000/svg">
<path d="M0.166667 11.1667C0.052084 11.1667 0 11.1146 0 11V10.2708C0 10.2188 0.0208333 10.1563 0.0625 10.0833L3.9375 1.0625C3.9375 1.05208 3.92708 1.03646 3.91667 1.02083C3.91667 0.994792 3.90104 0.979167 3.875 0.979167H0.166667C0.052084 0.979167 0 0.932292 0 0.833333V0.145833C0 0.0520827 0.052084 0 0.166667 0H5C5.10938 0 5.16667 0.0520827 5.16667 0.145833V0.895833C5.16667 0.9375 5.14583 1 5.10417 1.08333L1.25 10.1042C1.23437 10.1198 1.23437 10.1406 1.25 10.1667C1.26042 10.1823 1.27604 10.1875 1.29167 10.1875H5C5.10938 10.1875 5.16667 10.2396 5.16667 10.3333V11C5.16667 11.1146 5.10938 11.1667 5 11.1667H0.166667Z" fill="#D72333"/>
</svg>
