<svg width="6" height="12" viewBox="0 0 6 12" fill="none" xmlns="http://www.w3.org/2000/svg">
<path d="M5.10417 8.6875C5.10417 9.52083 4.86458 10.1875 4.39583 10.6875C3.9375 11.1771 3.32292 11.4167 2.5625 11.4167C1.86458 11.4167 1.29167 11.1667 0.833333 10.6667C0.385417 10.1667 0.166667 9.51042 0.166667 8.6875V8.4375C0.166667 8.32813 0.213541 8.27083 0.3125 8.27083H1.125C1.23437 8.27083 1.29167 8.32813 1.29167 8.4375V8.66667C1.29167 9.16667 1.40625 9.58333 1.64583 9.91667C1.89583 10.2396 2.19792 10.3958 2.5625 10.3958C2.97917 10.3958 3.3125 10.2396 3.5625 9.91667C3.82292 9.59896 3.95833 9.18229 3.95833 8.66667V6.52083C3.95833 6.49479 3.94792 6.47917 3.9375 6.47917C3.92187 6.47917 3.90104 6.48958 3.875 6.5C3.71875 6.72396 3.52604 6.89063 3.29167 7C3.06771 7.11458 2.8125 7.16667 2.52083 7.16667C1.86458 7.16667 1.33333 6.97396 0.916667 6.58333C0.510417 6.18229 0.25 5.63542 0.125 4.9375C0.0416667 4.51042 0 4.03646 0 3.52083C0 3.0625 0.0208333 2.66667 0.0625 2.33333C0.145833 1.58333 0.401041 1.01042 0.833333 0.604167C1.26042 0.203125 1.83854 0 2.5625 0C3.21354 0 3.75 0.1875 4.16667 0.5625C4.59375 0.927083 4.86458 1.46875 4.97917 2.1875C5.04688 2.53646 5.08333 2.95833 5.08333 3.45833L5.10417 8.6875ZM2.5625 6.16667C3.23958 6.16667 3.67187 5.75 3.85417 4.91667C3.92187 4.57292 3.95833 4.13542 3.95833 3.60417C3.95833 3.10417 3.92708 2.6875 3.875 2.35417C3.69271 1.4375 3.25521 0.979167 2.5625 0.979167C2.1875 0.979167 1.88542 1.10417 1.66667 1.35417C1.44271 1.59375 1.29167 1.95313 1.20833 2.4375C1.15104 2.86979 1.125 3.26042 1.125 3.60417C1.125 4.07813 1.17187 4.53646 1.27083 4.97917C1.35417 5.36979 1.50521 5.66667 1.72917 5.875C1.94792 6.07292 2.22917 6.16667 2.5625 6.16667Z" fill="#D72333"/>
</svg>
