<svg width="11" height="12" viewBox="0 0 11 12" fill="none" xmlns="http://www.w3.org/2000/svg">
<path d="M2.375 11.1667C2.26042 11.1667 2.19271 11.1146 2.16667 11L0.0208333 0.208333L0 0.145833C0 0.0520827 0.0625 0 0.1875 0H2.125C2.25 0 2.31771 0.057292 2.33333 0.166667L3.25 5.91667C3.26042 5.95833 3.27604 5.97917 3.29167 5.97917C3.31771 5.97917 3.33333 5.95833 3.33333 5.91667L4.20833 0.166667C4.21875 0.057292 4.29167 0 4.41667 0H6.02083C6.14583 0 6.21354 0.057292 6.22917 0.166667L7.16667 5.91667C7.17708 5.95833 7.19271 5.97917 7.20833 5.97917C7.23438 5.97917 7.25521 5.95833 7.27083 5.91667L8.08333 0.166667C8.09375 0.057292 8.16667 0 8.29167 0H10.1667C10.3021 0 10.3646 0.0729173 10.3542 0.208333L8.3125 11C8.3125 11.1146 8.23958 11.1667 8.10417 11.1667H6.39583C6.27083 11.1667 6.19792 11.1146 6.1875 11L5.25 5.08333C5.23438 5.04167 5.21354 5.02083 5.1875 5.02083C5.17188 5.02083 5.15625 5.04167 5.14583 5.08333L4.29167 11C4.29167 11.1146 4.21875 11.1667 4.08333 11.1667H2.375Z" fill="#D72333"/>
</svg>
