<svg width="6" height="11" viewBox="0 0 6 11" fill="none" xmlns="http://www.w3.org/2000/svg">
<path d="M2.375 10.9583C2.26042 10.9583 2.20833 10.9115 2.20833 10.8125V6.125C2.20833 6.08333 2.20833 6.05729 2.20833 6.04167L0.0208333 0.1875L0 0.125C0 0.0416667 0.0468747 0 0.145833 0H1C1.08333 0 1.14583 0.0416667 1.1875 0.125L2.70833 4.72917C2.71875 4.74479 2.73437 4.75 2.75 4.75C2.77604 4.75 2.79687 4.74479 2.8125 4.72917L4.35417 0.125C4.38021 0.0416667 4.44271 0 4.54167 0H5.375C5.42708 0 5.46875 0.0208333 5.5 0.0625C5.52604 0.0937507 5.52604 0.135417 5.5 0.1875L3.33333 6.04167C3.33333 6.05729 3.33333 6.08333 3.33333 6.125V10.8125C3.33333 10.9115 3.27604 10.9583 3.16667 10.9583H2.375Z" fill="#D72333"/>
</svg>
