<svg width="72" height="11" viewBox="0 0 72 11" fill="none" xmlns="http://www.w3.org/2000/svg">
<mask id="mask0_24_8246" style="mask-type:luminance" maskUnits="userSpaceOnUse" x="0" y="0" width="72" height="11">
<path d="M72 0H0V10.6667H72V0Z" fill="white"/>
</mask>
<g mask="url(#mask0_24_8246)">
<path d="M2.86507 8.4738C2.8234 8.4738 2.78695 8.45817 2.7609 8.43213C2.56299 8.0415 2.40674 7.56755 2.28174 6.99463C2.15674 6.4113 2.09424 5.80713 2.09424 5.18213C2.09424 4.53109 2.15674 3.9113 2.28174 3.32796C2.40674 2.74463 2.5734 2.25505 2.78174 1.8488C2.80778 1.82275 2.84424 1.80713 2.8859 1.80713H3.26091C3.28695 1.80713 3.30257 1.81754 3.30257 1.82796C3.31299 1.84359 3.32341 1.86442 3.32341 1.89046C3.14111 2.29671 2.99528 2.7863 2.8859 3.36963C2.77132 3.95296 2.71924 4.55192 2.71924 5.1613C2.71924 5.77588 2.77132 6.36442 2.8859 6.93213C2.99528 7.50505 3.14111 7.98421 3.32341 8.39046V8.43213C3.32341 8.45817 3.30257 8.4738 3.26091 8.4738H2.86507Z" fill="white"/>
<path d="M5.4318 3.72363C5.79118 3.72363 6.07764 3.84342 6.28597 4.0778C6.50472 4.30176 6.6193 4.61426 6.6193 5.0153V7.59863C6.6193 7.65592 6.59847 7.68197 6.5568 7.68197H6.16097C6.10368 7.68197 6.07764 7.65592 6.07764 7.59863V7.36947C6.07764 7.35905 6.06722 7.34863 6.0568 7.34863C6.0568 7.34863 6.04639 7.35905 6.03597 7.36947C5.83805 7.61947 5.5568 7.74447 5.1818 7.74447C4.90055 7.74447 4.66097 7.67155 4.45264 7.5153C4.2443 7.34863 4.14014 7.05697 4.14014 6.6403C4.14014 6.21322 4.26514 5.8903 4.51514 5.68197C4.76514 5.47363 5.09847 5.36947 5.51514 5.36947H6.0568C6.06722 5.36947 6.07764 5.36426 6.07764 5.34863V5.03613C6.07764 4.78613 6.01514 4.58822 5.89014 4.43197C5.77555 4.28092 5.62451 4.2028 5.4318 4.2028C5.26514 4.2028 5.12451 4.26009 5.01514 4.36947C4.91618 4.46842 4.85368 4.59342 4.82764 4.74447C4.82764 4.80176 4.79639 4.8278 4.7443 4.8278L4.32764 4.80697C4.29639 4.80697 4.27555 4.80176 4.26514 4.78613C4.24951 4.77572 4.2443 4.76009 4.2443 4.74447C4.27034 4.44238 4.39534 4.19759 4.6193 4.0153C4.83805 3.82259 5.10889 3.72363 5.4318 3.72363ZM5.3068 7.2653C5.51514 7.2653 5.69222 7.19759 5.84847 7.05697C5.99951 6.92155 6.07764 6.73405 6.07764 6.49447V5.84863C6.07764 5.82259 6.06722 5.80697 6.0568 5.80697H5.4943C5.25472 5.80697 5.06201 5.87988 4.91097 6.0153C4.77034 6.1403 4.70264 6.33822 4.70264 6.59863C4.70264 6.82259 4.75472 6.98926 4.8693 7.09863C4.97868 7.21322 5.12451 7.2653 5.3068 7.2653Z" fill="white"/>
<path d="M9.26367 3.84863C9.26367 3.80697 9.28971 3.78613 9.34701 3.78613H9.74284C9.78451 3.78613 9.80534 3.80697 9.80534 3.84863V7.59863C9.80534 7.65592 9.78451 7.68197 9.74284 7.68197H9.34701C9.28971 7.68197 9.26367 7.65592 9.26367 7.59863V7.34863C9.26367 7.33822 9.25326 7.3278 9.24284 7.3278C9.24284 7.3278 9.23242 7.3278 9.22201 7.3278C9.06575 7.60905 8.81055 7.74447 8.45117 7.74447C8.14388 7.74447 7.89909 7.65592 7.72201 7.47363C7.53971 7.28093 7.45117 6.98926 7.45117 6.59863V3.84863C7.45117 3.80697 7.47201 3.78613 7.51367 3.78613H7.90951C7.96159 3.78613 7.99284 3.80697 7.99284 3.84863V6.47363C7.99284 6.73926 8.03971 6.94238 8.13867 7.0778C8.24805 7.2028 8.40951 7.2653 8.61784 7.2653C8.81055 7.2653 8.96159 7.19238 9.07617 7.03613C9.20117 6.88509 9.26367 6.68197 9.26367 6.43197V3.84863Z" fill="white"/>
<path d="M11.868 7.74447C11.5034 7.74447 11.2118 7.6403 10.993 7.43197C10.769 7.21322 10.6597 6.92155 10.6597 6.55697V4.8903C10.6597 4.54655 10.769 4.2653 10.993 4.05697C11.2118 3.83822 11.5034 3.72363 11.868 3.72363C12.118 3.72363 12.3315 3.77572 12.5138 3.86947C12.6909 3.96842 12.8315 4.09863 12.9305 4.2653C13.0399 4.42155 13.0972 4.59342 13.0972 4.78613V4.86947C13.0972 4.92676 13.0659 4.9528 13.0138 4.9528H12.618C12.5607 4.9528 12.5347 4.93197 12.5347 4.8903V4.8278C12.5347 4.66113 12.4722 4.5153 12.3472 4.3903C12.2222 4.2653 12.0607 4.2028 11.868 4.2028C11.6701 4.2028 11.5138 4.27572 11.3888 4.41113C11.2743 4.53613 11.2222 4.71322 11.2222 4.93197V6.53613C11.2222 6.74447 11.2743 6.92155 11.3888 7.05697C11.5138 7.19759 11.6701 7.2653 11.868 7.2653C12.0607 7.2653 12.2222 7.2028 12.3472 7.0778C12.4722 6.9528 12.5347 6.80697 12.5347 6.6403V6.5778C12.5347 6.52572 12.5607 6.49447 12.618 6.49447L13.0138 6.5153C13.0659 6.5153 13.0972 6.53613 13.0972 6.5778V6.68197C13.0972 6.98926 12.9774 7.24447 12.743 7.4528C12.519 7.65072 12.2274 7.74447 11.868 7.74447Z" fill="white"/>
<path d="M15.2402 3.72363C15.5579 3.72363 15.8027 3.83822 15.9694 4.05697C16.1465 4.2653 16.2402 4.56738 16.2402 4.9528V7.59863C16.2402 7.65592 16.209 7.68197 16.1569 7.68197H15.7611C15.7038 7.68197 15.6777 7.65592 15.6777 7.59863V4.99447C15.6777 4.74447 15.6204 4.55176 15.5111 4.41113C15.3965 4.27572 15.2454 4.2028 15.0527 4.2028C14.8444 4.2028 14.6829 4.28092 14.5736 4.43197C14.459 4.58822 14.4069 4.78613 14.4069 5.03613V7.59863C14.4069 7.65592 14.3757 7.68197 14.3236 7.68197H13.9277C13.8861 7.68197 13.8652 7.65592 13.8652 7.59863V2.36947C13.8652 2.31738 13.8861 2.28613 13.9277 2.28613H14.3236C14.3757 2.28613 14.4069 2.31738 14.4069 2.36947V4.09863C14.4069 4.11426 14.4069 4.12988 14.4069 4.1403C14.4173 4.1403 14.4329 4.13509 14.4486 4.11947C14.5319 3.98405 14.6413 3.88509 14.7819 3.8278C14.9329 3.76009 15.084 3.72363 15.2402 3.72363Z" fill="white"/>
<path d="M19.8039 3.72363C20.1632 3.72363 20.4497 3.84342 20.658 4.0778C20.8768 4.30176 20.9914 4.61426 20.9914 5.0153V7.59863C20.9914 7.65592 20.9705 7.68197 20.9289 7.68197H20.533C20.4757 7.68197 20.4497 7.65592 20.4497 7.59863V7.36947C20.4497 7.35905 20.4393 7.34863 20.4289 7.34863C20.4289 7.34863 20.4185 7.35905 20.408 7.36947C20.2101 7.61947 19.9289 7.74447 19.5539 7.74447C19.2726 7.74447 19.033 7.67155 18.8247 7.5153C18.6164 7.34863 18.5122 7.05697 18.5122 6.6403C18.5122 6.21322 18.6372 5.8903 18.8872 5.68197C19.1372 5.47363 19.4705 5.36947 19.8872 5.36947H20.4289C20.4393 5.36947 20.4497 5.36426 20.4497 5.34863V5.03613C20.4497 4.78613 20.3872 4.58822 20.2622 4.43197C20.1476 4.28092 19.9966 4.2028 19.8039 4.2028C19.6372 4.2028 19.4966 4.26009 19.3872 4.36947C19.2882 4.46842 19.2257 4.59342 19.1997 4.74447C19.1997 4.80176 19.1685 4.8278 19.1164 4.8278L18.6997 4.80697C18.6685 4.80697 18.6476 4.80176 18.6372 4.78613C18.6216 4.77572 18.6164 4.76009 18.6164 4.74447C18.6424 4.44238 18.7674 4.19759 18.9914 4.0153C19.2101 3.82259 19.481 3.72363 19.8039 3.72363ZM19.6789 7.2653C19.8872 7.2653 20.0643 7.19759 20.2205 7.05697C20.3716 6.92155 20.4497 6.73405 20.4497 6.49447V5.84863C20.4497 5.82259 20.4393 5.80697 20.4289 5.80697H19.8664C19.6268 5.80697 19.4341 5.87988 19.283 6.0153C19.1424 6.1403 19.0747 6.33822 19.0747 6.59863C19.0747 6.82259 19.1268 6.98926 19.2414 7.09863C19.3507 7.21322 19.4966 7.2653 19.6789 7.2653Z" fill="white"/>
<path d="M21.8861 7.68197C21.8288 7.68197 21.8027 7.65592 21.8027 7.59863V2.36947C21.8027 2.31738 21.8288 2.28613 21.8861 2.28613H22.2819C22.334 2.28613 22.3652 2.31738 22.3652 2.36947V7.59863C22.3652 7.65592 22.334 7.68197 22.2819 7.68197H21.8861Z" fill="white"/>
<path d="M23.3237 7.68197C23.2821 7.68197 23.2612 7.65592 23.2612 7.59863V2.36947C23.2612 2.31738 23.2821 2.28613 23.3237 2.28613H23.7196C23.7716 2.28613 23.8029 2.31738 23.8029 2.36947V5.4528C23.8029 5.46842 23.8029 5.48405 23.8029 5.49447C23.8133 5.49447 23.8289 5.48926 23.8446 5.47363L24.9904 3.8278C25.0164 3.80176 25.0529 3.78613 25.0946 3.78613H25.4904C25.5164 3.78613 25.5373 3.79655 25.5529 3.80697C25.5633 3.82259 25.5581 3.84342 25.5321 3.86947L24.7612 4.97363C24.7456 4.98926 24.7456 5.00488 24.7612 5.0153L25.6779 7.59863V7.61947C25.6779 7.66113 25.6571 7.68197 25.6154 7.68197H25.1987C25.1571 7.68197 25.1258 7.66113 25.1154 7.61947L24.4279 5.47363C24.4123 5.44759 24.3966 5.44759 24.3862 5.47363L23.8237 6.2653C23.8081 6.28093 23.8029 6.29655 23.8029 6.30697V7.59863C23.8029 7.65592 23.7716 7.68197 23.7196 7.68197H23.3237Z" fill="white"/>
<path d="M27.4338 7.74447C27.0588 7.74447 26.7567 7.6403 26.5379 7.43197C26.314 7.21322 26.2046 6.92155 26.2046 6.55697V4.91113C26.2046 4.56738 26.314 4.28092 26.5379 4.05697C26.7567 3.83822 27.0588 3.72363 27.4338 3.72363C27.7931 3.72363 28.0848 3.83822 28.3088 4.05697C28.5275 4.28092 28.6421 4.56738 28.6421 4.91113V6.55697C28.6421 6.92155 28.5275 7.21322 28.3088 7.43197C28.0848 7.6403 27.7931 7.74447 27.4338 7.74447ZM27.4338 7.2653C27.6265 7.2653 27.7879 7.19759 27.9129 7.05697C28.0379 6.92155 28.1004 6.74447 28.1004 6.53613V4.93197C28.1004 4.71322 28.0379 4.53613 27.9129 4.41113C27.7879 4.27572 27.6265 4.2028 27.4338 4.2028C27.2358 4.2028 27.0796 4.27572 26.9546 4.41113C26.8296 4.53613 26.7671 4.71322 26.7671 4.93197V6.53613C26.7671 6.74447 26.8296 6.92155 26.9546 7.05697C27.0796 7.19759 27.2358 7.2653 27.4338 7.2653Z" fill="white"/>
<path d="M30.8853 3.72363C31.203 3.72363 31.4478 3.83822 31.6144 4.05697C31.7915 4.2653 31.8853 4.56738 31.8853 4.9528V7.59863C31.8853 7.65592 31.854 7.68197 31.8019 7.68197H31.4061C31.3488 7.68197 31.3228 7.65592 31.3228 7.59863V4.99447C31.3228 4.74447 31.2655 4.55176 31.1561 4.41113C31.0415 4.27572 30.8905 4.2028 30.6978 4.2028C30.4894 4.2028 30.328 4.28092 30.2186 4.43197C30.104 4.58822 30.0519 4.78613 30.0519 5.03613V7.59863C30.0519 7.65592 30.0207 7.68197 29.9686 7.68197H29.5728C29.5311 7.68197 29.5103 7.65592 29.5103 7.59863V2.36947C29.5103 2.31738 29.5311 2.28613 29.5728 2.28613H29.9686C30.0207 2.28613 30.0519 2.31738 30.0519 2.36947V4.09863C30.0519 4.11426 30.0519 4.12988 30.0519 4.1403C30.0623 4.1403 30.078 4.13509 30.0936 4.11947C30.1769 3.98405 30.2863 3.88509 30.4269 3.8278C30.578 3.76009 30.729 3.72363 30.8853 3.72363Z" fill="white"/>
<path d="M33.9059 7.74447C33.5309 7.74447 33.2288 7.6403 33.0101 7.43197C32.7861 7.21322 32.6768 6.92155 32.6768 6.55697V4.91113C32.6768 4.56738 32.7861 4.28092 33.0101 4.05697C33.2288 3.83822 33.5309 3.72363 33.9059 3.72363C34.2653 3.72363 34.557 3.83822 34.7809 4.05697C34.9997 4.28092 35.1143 4.56738 35.1143 4.91113V6.55697C35.1143 6.92155 34.9997 7.21322 34.7809 7.43197C34.557 7.6403 34.2653 7.74447 33.9059 7.74447ZM33.9059 7.2653C34.0986 7.2653 34.2601 7.19759 34.3851 7.05697C34.5101 6.92155 34.5726 6.74447 34.5726 6.53613V4.93197C34.5726 4.71322 34.5101 4.53613 34.3851 4.41113C34.2601 4.27572 34.0986 4.2028 33.9059 4.2028C33.708 4.2028 33.5518 4.27572 33.4268 4.41113C33.3018 4.53613 33.2393 4.71322 33.2393 4.93197V6.53613C33.2393 6.74447 33.3018 6.92155 33.4268 7.05697C33.5518 7.19759 33.708 7.2653 33.9059 7.2653Z" fill="white"/>
<path d="M36.0033 7.68197C35.946 7.68197 35.9199 7.65592 35.9199 7.59863V2.36947C35.9199 2.31738 35.946 2.28613 36.0033 2.28613H36.3991C36.4512 2.28613 36.4824 2.31738 36.4824 2.36947V7.59863C36.4824 7.65592 36.4512 7.68197 36.3991 7.68197H36.0033Z" fill="white"/>
<path d="M38.6079 2.7028C38.41 2.7028 38.2746 2.77572 38.1912 2.91113C38.1079 3.03613 38.0662 3.23926 38.0662 3.5153V3.74447C38.0662 3.77572 38.0767 3.78613 38.1079 3.78613H38.6912C38.7433 3.78613 38.7746 3.80697 38.7746 3.84863V4.11947C38.7746 4.16113 38.7433 4.18197 38.6912 4.18197H38.1079C38.0767 4.18197 38.0662 4.19759 38.0662 4.22363V7.59863C38.0662 7.65592 38.0454 7.68197 38.0037 7.68197H37.6079C37.5506 7.68197 37.5246 7.65592 37.5246 7.59863V4.22363C37.5246 4.19759 37.5142 4.18197 37.5037 4.18197H37.1912C37.134 4.18197 37.1079 4.16113 37.1079 4.11947V3.84863C37.1079 3.80697 37.134 3.78613 37.1912 3.78613H37.5037C37.5142 3.78613 37.5246 3.77572 37.5246 3.74447V3.49447C37.5246 3.05176 37.6079 2.73405 37.7746 2.53613C37.9412 2.3278 38.2173 2.22363 38.6079 2.22363H38.7121C38.7642 2.22363 38.7954 2.25488 38.7954 2.30697L38.7746 2.61947C38.7746 2.67676 38.7537 2.7028 38.7121 2.7028H38.6079Z" fill="white"/>
<path d="M40.8281 3.74463C40.9531 3.74463 41.0625 3.77588 41.1615 3.82796C41.1875 3.84359 41.2031 3.88005 41.2031 3.93213L41.099 4.32796C41.099 4.36963 41.0677 4.38525 41.0156 4.36963C40.9427 4.34359 40.8698 4.32796 40.7865 4.32796C40.7448 4.32796 40.7083 4.32796 40.6823 4.32796C40.5 4.34359 40.349 4.44254 40.224 4.61963C40.1094 4.80192 40.0573 5.02588 40.0573 5.2863V7.5988C40.0573 7.65609 40.026 7.68213 39.974 7.68213H39.5781C39.5365 7.68213 39.5156 7.65609 39.5156 7.5988V3.8488C39.5156 3.80713 39.5365 3.7863 39.5781 3.7863H39.974C40.026 3.7863 40.0573 3.80713 40.0573 3.8488V4.32796C40.0573 4.34359 40.0573 4.3488 40.0573 4.3488C40.0677 4.3488 40.0833 4.34359 40.099 4.32796C40.2344 3.94254 40.4792 3.74463 40.8281 3.74463Z" fill="white"/>
<path d="M44.05 5.86947C44.05 5.91113 44.0291 5.93197 43.9875 5.93197H42.2166C42.201 5.93197 42.1958 5.94759 42.1958 5.97363V6.53613C42.1958 6.74447 42.2479 6.92155 42.3625 7.05697C42.4875 7.19759 42.6437 7.2653 42.8416 7.2653C43.0083 7.2653 43.1437 7.21843 43.2583 7.11947C43.3833 7.02572 43.4562 6.8903 43.4875 6.72363C43.4979 6.68197 43.5291 6.66113 43.5708 6.66113L43.9666 6.68197C43.9771 6.68197 43.9927 6.69238 44.0083 6.7028C44.0343 6.71842 44.0396 6.73926 44.0291 6.7653C43.9875 7.05697 43.8625 7.29655 43.6541 7.47363C43.4458 7.65592 43.175 7.74447 42.8416 7.74447C42.4771 7.74447 42.1854 7.6403 41.9666 7.43197C41.7427 7.21322 41.6333 6.92155 41.6333 6.55697V4.8903C41.6333 4.54655 41.7427 4.2653 41.9666 4.05697C42.1854 3.83822 42.4771 3.72363 42.8416 3.72363C43.2166 3.72363 43.5083 3.83822 43.7166 4.05697C43.9354 4.2653 44.05 4.54655 44.05 4.8903V5.86947ZM42.8416 4.2028C42.6437 4.2028 42.4875 4.27572 42.3625 4.41113C42.2479 4.53613 42.1958 4.71322 42.1958 4.93197V5.4528C42.1958 5.48405 42.201 5.49447 42.2166 5.49447H43.4875C43.4979 5.49447 43.5083 5.48405 43.5083 5.4528V4.93197C43.5083 4.71322 43.4458 4.53613 43.3208 4.41113C43.2062 4.27572 43.05 4.2028 42.8416 4.2028Z" fill="white"/>
<path d="M45.1896 3.07812C45.0646 3.07812 44.9604 3.03646 44.8771 2.95312C44.8042 2.86979 44.7729 2.76562 44.7729 2.64062C44.7729 2.51562 44.8042 2.41146 44.8771 2.32812C44.9604 2.24479 45.0646 2.20312 45.1896 2.20312C45.3146 2.20312 45.4188 2.24479 45.5021 2.32812C45.5854 2.41146 45.6271 2.51562 45.6271 2.64062C45.6271 2.76562 45.5854 2.86979 45.5021 2.95312C45.4188 3.03646 45.3146 3.07812 45.1896 3.07812ZM45.0021 7.68229C44.9604 7.68229 44.9396 7.65625 44.9396 7.59896V3.84896C44.9396 3.80729 44.9604 3.78646 45.0021 3.78646H45.3979C45.45 3.78646 45.4813 3.80729 45.4813 3.84896V7.59896C45.4813 7.65625 45.45 7.68229 45.3979 7.68229H45.0021Z" fill="white"/>
<path d="M51.1291 3.72363C51.4468 3.72363 51.6916 3.84342 51.8582 4.0778C52.0249 4.30176 52.1082 4.61426 52.1082 5.0153V7.59863C52.1082 7.65592 52.077 7.68197 52.0249 7.68197H51.6499C51.5926 7.68197 51.5666 7.65592 51.5666 7.59863V5.05697C51.5666 4.79655 51.5093 4.58822 51.3999 4.43197C51.2853 4.28092 51.1395 4.2028 50.9624 4.2028C50.7645 4.2028 50.6134 4.28092 50.5041 4.43197C50.3895 4.58822 50.3374 4.78613 50.3374 5.03613V7.59863C50.3374 7.65592 50.3062 7.68197 50.2541 7.68197H49.8582C49.8166 7.68197 49.7957 7.65592 49.7957 7.59863V5.05697C49.7957 4.79655 49.7384 4.58822 49.6291 4.43197C49.5145 4.28092 49.3687 4.2028 49.1916 4.2028C48.9937 4.2028 48.8374 4.28092 48.7124 4.43197C48.5978 4.58822 48.5457 4.78613 48.5457 5.03613V7.59863C48.5457 7.65592 48.5249 7.68197 48.4832 7.68197H48.0874C48.0457 7.68197 48.0249 7.65592 48.0249 7.59863V3.84863C48.0249 3.80697 48.0457 3.78613 48.0874 3.78613H48.4832C48.5249 3.78613 48.5457 3.80697 48.5457 3.84863V4.09863C48.5457 4.11426 48.5509 4.11947 48.5666 4.11947C48.577 4.11947 48.5874 4.11426 48.5874 4.09863C48.6812 3.97363 48.8009 3.88509 48.9416 3.8278C49.077 3.76009 49.2176 3.72363 49.3582 3.72363C49.5509 3.72363 49.7176 3.77572 49.8582 3.86947C50.0093 3.96842 50.1291 4.09863 50.2124 4.2653C50.2124 4.28092 50.2124 4.28613 50.2124 4.28613C50.2228 4.28613 50.2384 4.28092 50.2541 4.2653C50.3478 4.08822 50.4728 3.9528 50.6291 3.86947C50.7801 3.77572 50.9468 3.72363 51.1291 3.72363Z" fill="white"/>
<path d="M54.1491 7.74479C53.7741 7.74479 53.472 7.64062 53.2533 7.43229C53.0293 7.21354 52.9199 6.92188 52.9199 6.55729V4.91146C52.9199 4.56771 53.0293 4.28125 53.2533 4.05729C53.472 3.83854 53.7741 3.72396 54.1491 3.72396C54.5085 3.72396 54.8001 3.83854 55.0241 4.05729C55.2428 4.28125 55.3574 4.56771 55.3574 4.91146V6.55729C55.3574 6.92188 55.2428 7.21354 55.0241 7.43229C54.8001 7.64062 54.5085 7.74479 54.1491 7.74479ZM54.1491 7.26562C54.3418 7.26562 54.5033 7.19792 54.6283 7.05729C54.7533 6.92188 54.8158 6.74479 54.8158 6.53646V4.93229C54.8158 4.71354 54.7533 4.53646 54.6283 4.41146C54.5033 4.27604 54.3418 4.20312 54.1491 4.20312C53.9512 4.20312 53.7949 4.27604 53.6699 4.41146C53.5449 4.53646 53.4824 4.71354 53.4824 4.93229V6.53646C53.4824 6.74479 53.5449 6.92188 53.6699 7.05729C53.7949 7.19792 53.9512 7.26562 54.1491 7.26562ZM54.7116 3.07812C54.5866 3.07812 54.4824 3.03646 54.3991 2.95312C54.3158 2.86979 54.2741 2.76562 54.2741 2.64062C54.2741 2.51562 54.3158 2.41146 54.3991 2.32812C54.4824 2.24479 54.5866 2.20312 54.7116 2.20312C54.8366 2.20312 54.9408 2.24479 55.0241 2.32812C55.1074 2.41146 55.1491 2.51562 55.1491 2.64062C55.1491 2.76562 55.1074 2.86979 55.0241 2.95312C54.9408 3.03646 54.8366 3.07812 54.7116 3.07812ZM53.5658 3.07812C53.4408 3.07812 53.3366 3.03646 53.2533 2.95312C53.1699 2.86979 53.1283 2.76562 53.1283 2.64062C53.1283 2.51562 53.1699 2.41146 53.2533 2.32812C53.3366 2.24479 53.4408 2.20312 53.5658 2.20312C53.6908 2.20312 53.7949 2.24479 53.8783 2.32812C53.9616 2.41146 54.0033 2.51562 54.0033 2.64062C54.0033 2.76562 53.9616 2.86979 53.8783 2.95312C53.7949 3.03646 53.6908 3.07812 53.5658 3.07812Z" fill="white"/>
<path d="M57.9888 3.84863C57.9888 3.80697 58.0096 3.78613 58.0513 3.78613H58.4471C58.4992 3.78613 58.5304 3.80697 58.5304 3.84863V7.59863C58.5304 8.15072 58.395 8.56738 58.1346 8.84863C57.8846 9.1403 57.4575 9.27051 56.8638 9.24447C56.8221 9.24447 56.8013 9.21322 56.8013 9.16113V8.8278C56.8013 8.77051 56.8221 8.74447 56.8638 8.74447C57.2804 8.75488 57.5721 8.66634 57.7388 8.47363C57.9054 8.27572 57.9888 7.97363 57.9888 7.55697V7.3278C57.9888 7.31738 57.9784 7.30697 57.9679 7.30697C57.9679 7.30697 57.9575 7.30697 57.9471 7.30697C57.8638 7.43197 57.7492 7.53093 57.6138 7.59863C57.4731 7.67155 57.3273 7.7028 57.1763 7.7028C56.8534 7.7028 56.5981 7.59863 56.4054 7.3903C56.2075 7.17155 56.1138 6.88509 56.1138 6.53613V4.8903C56.1138 4.54655 56.2075 4.2653 56.4054 4.05697C56.5981 3.83822 56.8534 3.72363 57.1763 3.72363C57.3273 3.72363 57.4731 3.76009 57.6138 3.8278C57.7492 3.88509 57.8638 3.97363 57.9471 4.09863C57.9575 4.11426 57.9679 4.11947 57.9679 4.11947C57.9784 4.11947 57.9888 4.11426 57.9888 4.09863V3.84863ZM57.3429 7.22363C57.52 7.22363 57.6763 7.16113 57.8013 7.03613C57.9263 6.90072 57.9888 6.71842 57.9888 6.49447V4.93197C57.9888 4.71322 57.9263 4.53613 57.8013 4.41113C57.6763 4.27572 57.52 4.2028 57.3429 4.2028C57.145 4.2028 56.9888 4.27572 56.8638 4.41113C56.7388 4.53613 56.6763 4.71322 56.6763 4.93197V6.49447C56.6763 6.71842 56.7388 6.90072 56.8638 7.03613C56.9888 7.16113 57.145 7.22363 57.3429 7.22363Z" fill="white"/>
<path d="M59.4246 7.68197C59.3673 7.68197 59.3413 7.65592 59.3413 7.59863V2.36947C59.3413 2.31738 59.3673 2.28613 59.4246 2.28613H59.8205C59.8726 2.28613 59.9038 2.31738 59.9038 2.36947V7.59863C59.9038 7.65592 59.8726 7.68197 59.8205 7.68197H59.4246Z" fill="white"/>
<path d="M61.1125 3.07812C60.9875 3.07812 60.8833 3.03646 60.8 2.95312C60.7271 2.86979 60.6958 2.76562 60.6958 2.64062C60.6958 2.51562 60.7271 2.41146 60.8 2.32812C60.8833 2.24479 60.9875 2.20312 61.1125 2.20312C61.2375 2.20312 61.3416 2.24479 61.425 2.32812C61.5083 2.41146 61.55 2.51562 61.55 2.64062C61.55 2.76562 61.5083 2.86979 61.425 2.95312C61.3416 3.03646 61.2375 3.07812 61.1125 3.07812ZM60.925 7.68229C60.8833 7.68229 60.8625 7.65625 60.8625 7.59896V3.84896C60.8625 3.80729 60.8833 3.78646 60.925 3.78646H61.3208C61.3729 3.78646 61.4041 3.80729 61.4041 3.84896V7.59896C61.4041 7.65625 61.3729 7.68229 61.3208 7.68229H60.925Z" fill="white"/>
<path d="M63.5086 7.74447C63.144 7.74447 62.8524 7.6403 62.6336 7.43197C62.4097 7.21322 62.3003 6.92155 62.3003 6.55697V4.8903C62.3003 4.54655 62.4097 4.2653 62.6336 4.05697C62.8524 3.83822 63.144 3.72363 63.5086 3.72363C63.7586 3.72363 63.9722 3.77572 64.1545 3.86947C64.3315 3.96842 64.4722 4.09863 64.5711 4.2653C64.6805 4.42155 64.7378 4.59342 64.7378 4.78613V4.86947C64.7378 4.92676 64.7065 4.9528 64.6545 4.9528H64.2586C64.2013 4.9528 64.1753 4.93197 64.1753 4.8903V4.8278C64.1753 4.66113 64.1128 4.5153 63.9878 4.3903C63.8628 4.2653 63.7013 4.2028 63.5086 4.2028C63.3107 4.2028 63.1545 4.27572 63.0295 4.41113C62.9149 4.53613 62.8628 4.71322 62.8628 4.93197V6.53613C62.8628 6.74447 62.9149 6.92155 63.0295 7.05697C63.1545 7.19759 63.3107 7.2653 63.5086 7.2653C63.7013 7.2653 63.8628 7.2028 63.9878 7.0778C64.1128 6.9528 64.1753 6.80697 64.1753 6.6403V6.5778C64.1753 6.52572 64.2013 6.49447 64.2586 6.49447L64.6545 6.5153C64.7065 6.5153 64.7378 6.53613 64.7378 6.5778V6.68197C64.7378 6.98926 64.618 7.24447 64.3836 7.4528C64.1597 7.65072 63.868 7.74447 63.5086 7.74447Z" fill="white"/>
<path d="M66.8809 3.72363C67.1986 3.72363 67.4434 3.83822 67.61 4.05697C67.7871 4.2653 67.8809 4.56738 67.8809 4.9528V7.59863C67.8809 7.65592 67.8496 7.68197 67.7975 7.68197H67.4017C67.3444 7.68197 67.3184 7.65592 67.3184 7.59863V4.99447C67.3184 4.74447 67.2611 4.55176 67.1517 4.41113C67.0371 4.27572 66.8861 4.2028 66.6934 4.2028C66.485 4.2028 66.3236 4.28092 66.2142 4.43197C66.0996 4.58822 66.0475 4.78613 66.0475 5.03613V7.59863C66.0475 7.65592 66.0163 7.68197 65.9642 7.68197H65.5684C65.5267 7.68197 65.5059 7.65592 65.5059 7.59863V2.36947C65.5059 2.31738 65.5267 2.28613 65.5684 2.28613H65.9642C66.0163 2.28613 66.0475 2.31738 66.0475 2.36947V4.09863C66.0475 4.11426 66.0475 4.12988 66.0475 4.1403C66.0579 4.1403 66.0736 4.13509 66.0892 4.11947C66.1725 3.98405 66.2819 3.88509 66.4225 3.8278C66.5736 3.76009 66.7246 3.72363 66.8809 3.72363Z" fill="white"/>
<path d="M69.2562 1.80713C69.2979 1.80713 69.3239 1.82275 69.3395 1.8488C69.5479 2.23942 69.7145 2.7238 69.8395 3.30713C69.9645 3.88005 70.027 4.4738 70.027 5.0988C70.027 5.75505 69.9541 6.38005 69.8187 6.9738C69.6937 7.55713 69.5322 8.0415 69.3395 8.43213C69.3083 8.45817 69.277 8.4738 69.2354 8.4738H68.8604C68.8447 8.4738 68.8291 8.46338 68.8187 8.45296C68.8031 8.43734 68.7979 8.4165 68.7979 8.39046C68.9749 7.98421 69.1208 7.50505 69.2354 6.93213C69.3447 6.3488 69.402 5.74463 69.402 5.11963C69.402 4.51025 69.3447 3.92171 69.2354 3.3488C69.1208 2.78109 68.9749 2.29671 68.7979 1.89046C68.7979 1.88005 68.7979 1.86442 68.7979 1.8488C68.7979 1.83838 68.8031 1.82796 68.8187 1.82796C68.8291 1.81754 68.8447 1.80713 68.8604 1.80713H69.2562Z" fill="white"/>
</g>
</svg>
