<svg width="6" height="14" viewBox="0 0 6 14" fill="none" xmlns="http://www.w3.org/2000/svg">
<mask id="mask0_24_2816" style="mask-type:luminance" maskUnits="userSpaceOnUse" x="0" y="0" width="6" height="14">
<path d="M5.33333 0H0V13.3333H5.33333V0Z" fill="white"/>
</mask>
<g mask="url(#mask0_24_2816)">
<mask id="mask1_24_2816" style="mask-type:luminance" maskUnits="userSpaceOnUse" x="0" y="2" width="4" height="9">
<path d="M0.015625 2.6665H4V10.6665H0.015625V2.6665Z" fill="white"/>
</mask>
<g mask="url(#mask1_24_2816)">
<path d="M2.11637 9.81234C1.64242 9.81234 1.26742 9.68213 0.991374 9.4165C0.710123 9.14046 0.574707 8.77067 0.574707 8.31234V4.854C0.574707 4.39567 0.710123 4.0363 0.991374 3.77067C1.26742 3.49463 1.64242 3.354 2.11637 3.354C2.57471 3.354 2.93929 3.49463 3.22054 3.77067C3.49658 4.05192 3.63721 4.4165 3.63721 4.87484V5.24984C3.63721 5.32275 3.60596 5.354 3.55387 5.354H3.09554C3.03825 5.354 3.01221 5.32275 3.01221 5.24984V4.854C3.01221 4.56234 2.92887 4.33317 2.76221 4.1665C2.59554 3.99984 2.37679 3.9165 2.11637 3.9165C1.85075 3.9165 1.63721 4.01025 1.47054 4.18734C1.30387 4.354 1.22054 4.57796 1.22054 4.854V8.31234C1.22054 8.59359 1.30387 8.82275 1.47054 8.99984C1.63721 9.18213 1.85075 9.27067 2.11637 9.27067C2.37679 9.27067 2.59554 9.18734 2.76221 9.02067C2.92887 8.84359 3.01221 8.604 3.01221 8.31234V7.1665C3.01221 7.14046 2.99658 7.12484 2.97054 7.12484H2.19971C2.12679 7.12484 2.09554 7.0988 2.09554 7.0415V6.6665C2.09554 6.5988 2.12679 6.56234 2.19971 6.56234H3.55387C3.60596 6.56234 3.63721 6.5988 3.63721 6.6665V8.31234C3.63721 8.77067 3.49658 9.14046 3.22054 9.4165C2.93929 9.68213 2.57471 9.81234 2.11637 9.81234Z" fill="#D72333"/>
</g>
</g>
</svg>
