<svg width="7" height="11" viewBox="0 0 7 11" fill="none" xmlns="http://www.w3.org/2000/svg">
<path d="M6.39583 0C6.44792 0 6.48958 0.0208333 6.52083 0.0625C6.5625 0.0937507 6.58333 0.135417 6.58333 0.1875V1.70833C6.58333 1.76563 6.5625 1.8125 6.52083 1.85417C6.48958 1.88542 6.44792 1.89583 6.39583 1.89583H4.4375C4.38021 1.89583 4.35417 1.92708 4.35417 1.97917V10.7917C4.35417 10.849 4.33333 10.8958 4.29167 10.9375C4.26042 10.9688 4.21875 10.9792 4.16667 10.9792H2.33333C2.29167 10.9792 2.25 10.9688 2.20833 10.9375C2.16667 10.8958 2.14583 10.849 2.14583 10.7917V1.97917C2.14583 1.92708 2.11458 1.89583 2.0625 1.89583H0.1875C0.130208 1.89583 0.0833333 1.88542 0.0416667 1.85417C0.010416 1.8125 0 1.76563 0 1.70833V0.1875C0 0.135417 0.010416 0.0937507 0.0416667 0.0625C0.0833333 0.0208333 0.130208 0 0.1875 0H6.39583Z" fill="#D72333"/>
</svg>
