<svg width="27" height="39" viewBox="0 0 27 39" fill="none" xmlns="http://www.w3.org/2000/svg">
<mask id="mask0_25_20363" style="mask-type:luminance" maskUnits="userSpaceOnUse" x="0" y="0" width="27" height="39">
<path d="M26.6667 0H0V38.6667H26.6667V0Z" fill="white"/>
</mask>
<g mask="url(#mask0_25_20363)">
<mask id="mask1_25_20363" style="mask-type:luminance" maskUnits="userSpaceOnUse" x="0" y="5" width="8" height="13">
<path d="M0.224121 5.33301H8.00016V17.333H0.224121V5.33301Z" fill="white"/>
</mask>
<g mask="url(#mask1_25_20363)">
<path d="M3.72559 14.5244C3.69434 14.5557 3.68913 14.5817 3.70475 14.6077C3.71517 14.6234 3.736 14.6286 3.76725 14.6286H7.07975C7.13184 14.6286 7.1735 14.6494 7.20475 14.6911C7.24642 14.7223 7.26725 14.764 7.26725 14.8161V16.3577C7.26725 16.415 7.24642 16.4619 7.20475 16.5036C7.1735 16.5348 7.13184 16.5452 7.07975 16.5452H1.22559C1.16829 16.5452 1.12142 16.5348 1.07975 16.5036C1.0485 16.4619 1.03809 16.415 1.03809 16.3577V14.7536C1.03809 14.6598 1.05892 14.5817 1.10059 14.5244C1.52767 13.9567 1.82975 13.5765 1.99642 13.3786C2.9235 12.1859 3.58496 11.2848 3.97559 10.6702C4.54329 9.76921 4.82975 9.00358 4.82975 8.37858C4.82975 8.01921 4.75163 7.74316 4.60059 7.54525C4.45996 7.35254 4.27246 7.25358 4.03809 7.25358C3.78809 7.25358 3.58496 7.35254 3.43392 7.54525C3.29329 7.74316 3.23079 7.99316 3.24642 8.29525V8.94108C3.24642 8.99837 3.22559 9.04525 3.18392 9.08691C3.15267 9.11816 3.111 9.12858 3.05892 9.12858H1.16309C1.12142 9.12858 1.07975 9.11816 1.03809 9.08691C0.996419 9.04525 0.975586 8.99837 0.975586 8.94108V8.19108C1.01725 7.33171 1.32975 6.64421 1.91309 6.12858C2.49642 5.60254 3.23079 5.33691 4.12142 5.33691C5.00684 5.33691 5.72559 5.61816 6.26725 6.17025C6.81934 6.72754 7.10059 7.47233 7.10059 8.39941C7.10059 8.94108 7.00684 9.46191 6.82975 9.96191C6.66309 10.4619 6.37663 10.9984 5.97559 11.5661C5.68392 11.9984 5.1735 12.6702 4.45475 13.5869L3.72559 14.5244Z" fill="#D72333"/>
</g>
<path d="M9.30029 16.6079C8.93571 16.6079 8.63883 16.4933 8.40446 16.2537C8.16488 16.0194 8.05029 15.7225 8.05029 15.3579C8.05029 14.9985 8.15967 14.7017 8.38363 14.4621C8.618 14.2277 8.92529 14.1079 9.30029 14.1079C9.65967 14.1079 9.95654 14.2277 10.1961 14.4621C10.4305 14.7017 10.5503 14.9985 10.5503 15.3579C10.5503 15.7225 10.4305 16.0194 10.1961 16.2537C9.95654 16.4933 9.65967 16.6079 9.30029 16.6079Z" fill="#D72333"/>
<path d="M17.432 13.8369C17.4424 14.7015 17.1716 15.389 16.6195 15.8994C16.0622 16.415 15.3278 16.6702 14.4111 16.6702C13.5466 16.6702 12.8486 16.415 12.307 15.8994C11.7653 15.389 11.4945 14.7015 11.4945 13.8369V13.3577C11.4945 13.3057 11.5153 13.264 11.557 13.2327C11.5986 13.1911 11.6403 13.1702 11.682 13.1702H13.5361C13.5882 13.1702 13.6299 13.1911 13.6611 13.2327C13.7028 13.264 13.7236 13.3057 13.7236 13.3577V13.7119C13.7236 13.9932 13.7861 14.2275 13.9111 14.4202C14.0466 14.6182 14.2132 14.7119 14.4111 14.7119C14.6455 14.7119 14.833 14.6234 14.9736 14.4411C15.109 14.2484 15.182 14.0036 15.182 13.7119V12.1286C15.182 12.1025 15.1663 12.0869 15.1403 12.0869C15.1247 12.0765 15.109 12.0765 15.0986 12.0869C14.7497 12.3786 14.359 12.5244 13.932 12.5244C13.182 12.5244 12.583 12.2848 12.1403 11.7952C11.6924 11.3109 11.4424 10.665 11.3903 9.85775C11.359 9.56608 11.3486 9.25358 11.3486 8.92025C11.3486 8.68587 11.3538 8.36816 11.3695 7.96191C11.3955 7.12858 11.682 6.48275 12.2236 6.02441C12.7653 5.56608 13.484 5.33691 14.3903 5.33691C15.2236 5.33691 15.9007 5.55566 16.432 5.98275C16.958 6.39941 17.2653 7.02441 17.3486 7.85775C17.4007 8.19108 17.432 8.48275 17.432 8.73275V13.8369ZM15.1611 10.0244C15.1716 9.74837 15.182 9.43066 15.182 9.06608C15.182 8.68066 15.1716 8.35254 15.1611 8.08691C15.1299 7.81087 15.0466 7.60254 14.9111 7.46191C14.7861 7.31087 14.609 7.23275 14.3903 7.23275C14.182 7.23275 14.0049 7.31608 13.8695 7.48275C13.7445 7.639 13.6663 7.85254 13.6403 8.12858C13.609 8.39421 13.5986 8.70671 13.5986 9.06608C13.5986 9.31608 13.6195 9.64421 13.6611 10.0452C13.7028 10.2952 13.7861 10.4932 13.9111 10.6286C14.0361 10.7692 14.1924 10.8369 14.3903 10.8369C14.5986 10.8369 14.7653 10.7692 14.8903 10.6286C15.0257 10.4775 15.1195 10.2744 15.1611 10.0244Z" fill="#D72333"/>
<path d="M21.5212 16.7121C20.5889 16.7121 19.8389 16.4204 19.2712 15.8371C18.6982 15.2537 18.417 14.4829 18.417 13.5246V8.48291C18.417 7.52458 18.6982 6.75374 19.2712 6.17041C19.8389 5.58708 20.5889 5.29541 21.5212 5.29541C22.1305 5.29541 22.6722 5.43083 23.1462 5.69124C23.6149 5.95687 23.9795 6.33187 24.2295 6.81624C24.4899 7.30583 24.6253 7.85791 24.6253 8.48291V13.5246C24.6253 14.1496 24.4899 14.7069 24.2295 15.1912C23.9795 15.6808 23.6149 16.0558 23.1462 16.3162C22.6722 16.5767 22.1305 16.7121 21.5212 16.7121ZM21.5212 14.7954C21.7816 14.7954 21.9899 14.6912 22.1462 14.4829C22.3128 14.2746 22.3962 13.9985 22.3962 13.6496V8.35791C22.3962 8.01416 22.3128 7.73291 22.1462 7.52458C21.9899 7.31624 21.7816 7.21208 21.5212 7.21208C21.2555 7.21208 21.042 7.31624 20.8753 7.52458C20.7191 7.73291 20.6462 8.01416 20.6462 8.35791V13.6496C20.6462 13.9985 20.7191 14.2746 20.8753 14.4829C21.042 14.6912 21.2555 14.7954 21.5212 14.7954Z" fill="#D72333"/>
<mask id="mask2_25_20363" style="mask-type:luminance" maskUnits="userSpaceOnUse" x="0" y="22" width="8" height="13">
<path d="M0.224121 22.6665H8.00016V34.6665H0.224121V22.6665Z" fill="white"/>
</mask>
<g mask="url(#mask2_25_20363)">
<path d="M7.08773 29.4876C7.12939 29.8939 7.15023 30.2168 7.15023 30.4668C7.15023 30.8158 7.1346 31.1491 7.10856 31.4668C7.06689 32.2897 6.77523 32.9251 6.23356 33.3835C5.70231 33.8314 4.98877 34.0501 4.08773 34.0501C3.25439 34.0501 2.5721 33.8418 2.04606 33.4251C1.53044 32.998 1.22315 32.3626 1.12939 31.5293L1.06689 31.0918C1.06689 30.9668 1.12939 30.9043 1.25439 30.9043H3.10856C3.23356 30.9043 3.30127 30.9668 3.31689 31.0918C3.31689 31.1647 3.32731 31.248 3.35856 31.3418C3.45231 31.873 3.6971 32.1335 4.08773 32.1335C4.30648 32.1335 4.48356 32.0658 4.60856 31.9251C4.74398 31.7897 4.83773 31.5866 4.87939 31.321C4.90544 31.0605 4.92106 30.7741 4.92106 30.4668C4.92106 30.248 4.90023 29.9772 4.85856 29.6543C4.81689 29.4043 4.72315 29.2168 4.58773 29.0918C4.46273 28.9668 4.29606 28.9043 4.08773 28.9043C3.6971 28.9043 3.44189 29.0918 3.31689 29.4668C3.28564 29.5814 3.21794 29.6335 3.10856 29.6335H1.25439C1.1971 29.6335 1.15023 29.623 1.10856 29.5918C1.07731 29.5501 1.06689 29.5033 1.06689 29.446V23.0293C1.06689 22.9772 1.07731 22.9355 1.10856 22.9043C1.15023 22.8626 1.1971 22.8418 1.25439 22.8418H6.83773C6.88981 22.8418 6.93148 22.8626 6.96273 22.9043C7.00439 22.9355 7.02523 22.9772 7.02523 23.0293V24.571C7.02523 24.6283 7.00439 24.6751 6.96273 24.7168C6.93148 24.748 6.88981 24.7585 6.83773 24.7585H3.37939C3.3221 24.7585 3.29606 24.7897 3.29606 24.8418V27.4876C3.29606 27.5293 3.30127 27.5605 3.31689 27.571C3.34294 27.571 3.36377 27.5605 3.37939 27.5293C3.55648 27.3522 3.76481 27.2116 4.00439 27.1126C4.25439 27.0189 4.51481 26.9668 4.79606 26.9668C5.47315 26.9668 6.01481 27.1908 6.42106 27.6335C6.8221 28.0814 7.04606 28.696 7.08773 29.4876Z" fill="#D72333"/>
</g>
<path d="M9.28223 33.9878C8.91764 33.9878 8.62077 33.8732 8.38639 33.6336C8.14681 33.3993 8.03223 33.1024 8.03223 32.7378C8.03223 32.3784 8.1416 32.0815 8.36556 31.842C8.59993 31.6076 8.90723 31.4878 9.28223 31.4878C9.6416 31.4878 9.93848 31.6076 10.1781 31.842C10.4124 32.0815 10.5322 32.3784 10.5322 32.7378C10.5322 33.1024 10.4124 33.3993 10.1781 33.6336C9.93848 33.8732 9.6416 33.9878 9.28223 33.9878Z" fill="#D72333"/>
<path d="M17.3509 29.2376C17.403 29.6439 17.4342 30.0293 17.4342 30.4043C17.4342 30.8783 17.4134 31.2741 17.3717 31.5918C17.2884 32.3574 16.9967 32.9616 16.4967 33.4043C15.9967 33.8366 15.3197 34.0501 14.4759 34.0501C13.6009 34.0501 12.8822 33.821 12.3301 33.3626C11.7884 32.8939 11.4967 32.2741 11.4551 31.5085C11.4134 31.2168 11.3926 30.9147 11.3926 30.5918C11.3926 30.4668 11.4603 30.4043 11.6009 30.4043H13.4551C13.5801 30.4043 13.6426 30.4668 13.6426 30.5918C13.6426 30.8314 13.653 31.0501 13.6842 31.2585C13.7103 31.5397 13.7936 31.7533 13.9342 31.9043C14.0697 32.0605 14.252 32.1335 14.4759 32.1335C14.6842 32.1335 14.8561 32.0658 14.9967 31.9251C15.1322 31.7741 15.2259 31.571 15.2676 31.321C15.2936 30.946 15.3092 30.5658 15.3092 30.1751C15.3092 29.6751 15.278 29.2897 15.2259 29.0085C15.1842 28.7585 15.0905 28.571 14.9551 28.446C14.8301 28.3105 14.6686 28.2376 14.4759 28.2376C14.3197 28.2376 14.1634 28.3105 13.9967 28.446C13.9395 28.4876 13.8978 28.5085 13.8717 28.5085C13.8301 28.5085 13.778 28.4824 13.7259 28.4251L12.7884 27.4668C12.7467 27.4251 12.7259 27.3783 12.7259 27.321C12.7259 27.2793 12.7363 27.2376 12.7676 27.196L14.6842 24.8418C14.6947 24.8158 14.6947 24.7949 14.6842 24.7793C14.6842 24.7533 14.6686 24.7376 14.6426 24.7376H11.7884C11.7311 24.7376 11.6842 24.7272 11.6426 24.696C11.6113 24.6543 11.6009 24.6074 11.6009 24.5501V23.0293C11.6009 22.9772 11.6113 22.9355 11.6426 22.9043C11.6842 22.8626 11.7311 22.8418 11.7884 22.8418H17.2259C17.278 22.8418 17.3197 22.8626 17.3509 22.9043C17.3926 22.9355 17.4134 22.9772 17.4134 23.0293V24.6126C17.4134 24.696 17.3822 24.7793 17.3301 24.8626L15.5592 27.0918C15.5592 27.1074 15.5592 27.1283 15.5592 27.1543C15.5592 27.1699 15.5645 27.1751 15.5801 27.1751C16.0488 27.2168 16.4447 27.4355 16.7676 27.821C17.0853 28.196 17.278 28.6699 17.3509 29.2376Z" fill="#D72333"/>
<path d="M21.5187 34.092C20.5864 34.092 19.8364 33.8003 19.2687 33.217C18.6958 32.6336 18.4146 31.8628 18.4146 30.9045V25.8628C18.4146 24.9045 18.6958 24.1336 19.2687 23.5503C19.8364 22.967 20.5864 22.6753 21.5187 22.6753C22.1281 22.6753 22.6698 22.8107 23.1437 23.0711C23.6125 23.3368 23.9771 23.7118 24.2271 24.1961C24.4875 24.6857 24.6229 25.2378 24.6229 25.8628V30.9045C24.6229 31.5295 24.4875 32.0868 24.2271 32.5711C23.9771 33.0607 23.6125 33.4357 23.1437 33.6961C22.6698 33.9565 22.1281 34.092 21.5187 34.092ZM21.5187 32.1753C21.7791 32.1753 21.9875 32.0711 22.1437 31.8628C22.3104 31.6545 22.3937 31.3784 22.3937 31.0295V25.7378C22.3937 25.394 22.3104 25.1128 22.1437 24.9045C21.9875 24.6961 21.7791 24.592 21.5187 24.592C21.2531 24.592 21.0396 24.6961 20.8729 24.9045C20.7166 25.1128 20.6437 25.394 20.6437 25.7378V31.0295C20.6437 31.3784 20.7166 31.6545 20.8729 31.8628C21.0396 32.0711 21.2531 32.1753 21.5187 32.1753Z" fill="#D72333"/>
</g>
</svg>
