<svg width="5" height="9" viewBox="0 0 5 9" fill="none" xmlns="http://www.w3.org/2000/svg">
<path d="M3.75 0.166667C3.75 0.057292 3.79687 0 3.89583 0H4.70833C4.81771 0 4.875 0.057292 4.875 0.166667V7.875C4.875 7.98958 4.81771 8.04167 4.70833 8.04167H3.89583C3.79687 8.04167 3.75 7.98958 3.75 7.875V7.33333C3.75 7.30729 3.73437 7.29167 3.70833 7.29167C3.69271 7.29167 3.67708 7.30729 3.66667 7.33333C3.33333 7.875 2.79687 8.14583 2.0625 8.14583C1.4375 8.14583 0.9375 7.95833 0.5625 7.58333C0.1875 7.19792 0 6.60417 0 5.8125V0.166667C0 0.057292 0.0468747 0 0.145833 0H0.958333C1.06771 0 1.125 0.057292 1.125 0.166667V5.5625C1.125 6.09375 1.22917 6.49479 1.4375 6.77083C1.65625 7.03646 1.97917 7.16667 2.39583 7.16667C2.8125 7.16667 3.13542 7.01563 3.375 6.70833C3.625 6.40625 3.75 5.98958 3.75 5.45833V0.166667Z" fill="#D72333"/>
</svg>
