<svg width="14" height="12" viewBox="0 0 14 12" fill="none" xmlns="http://www.w3.org/2000/svg">
<path d="M3.125 2.625C2.92708 2.83333 2.71875 2.9375 2.5 2.9375C2.26042 2.9375 2.05208 2.84375 1.875 2.64583C1.70833 2.45313 1.625 2.22917 1.625 1.97917C1.625 1.78646 1.69271 1.60417 1.83333 1.4375C2.23437 0.968751 2.65625 0.640625 3.10417 0.458333C3.5625 0.265625 4.07292 0.166667 4.64583 0.166667C5.27083 0.166667 5.80208 0.286459 6.25 0.520833C6.69271 0.760417 7.08854 1.04167 7.4375 1.375C7.82292 0.848959 8.25521 0.489583 8.72917 0.291667C9.19792 0.0989587 9.6875 0 10.1875 0C10.5625 0 10.9167 0.0989587 11.25 0.291667C11.5833 0.473959 11.8542 0.744792 12.0625 1.10417C12.2813 1.45313 12.3958 1.86979 12.3958 2.35417C12.3958 2.85417 12.276 3.32292 12.0417 3.75C11.8021 4.16667 11.4896 4.5 11.1042 4.75C10.7292 5 10.3177 5.125 9.875 5.125C9.56771 5.14063 9.28125 5.08333 9.02083 4.95833C8.75521 4.83333 8.52083 4.6875 8.3125 4.52083L6.95833 8.5C7.17708 8.70833 7.38542 8.91146 7.58333 9.10417C7.79167 9.30208 8.01042 9.45833 8.25 9.58333C8.48438 9.70833 8.75521 9.77083 9.0625 9.77083C9.53125 9.77083 9.96875 9.63542 10.375 9.35417C10.7917 9.07813 11.1458 8.5625 11.4375 7.8125C11.5208 7.60417 11.6354 7.45313 11.7917 7.35417C11.9427 7.26042 12.1042 7.20833 12.2708 7.20833C12.4792 7.20833 12.6667 7.28125 12.8333 7.41667C13 7.54167 13.0833 7.70833 13.0833 7.91667C13.0833 7.98958 13.0677 8.0625 13.0417 8.14583C12.6354 9.32813 12.0625 10.2083 11.3125 10.7917C10.5729 11.3646 9.75521 11.6458 8.85417 11.6458C8.23958 11.6458 7.70833 11.5365 7.25 11.3125C6.80208 11.0781 6.40625 10.7917 6.0625 10.4583C5.6875 10.974 5.22917 11.3646 4.6875 11.625C4.14583 11.875 3.57292 12 2.97917 12C2.44792 12 1.95833 11.901 1.5 11.7083C1.05208 11.5156 0.692708 11.2292 0.416667 10.8542C0.140625 10.4792 0 10.0417 0 9.54167C0 9.44792 0.010416 9.34896 0.0208333 9.25C0.0364584 9.14063 0.0572917 9.03125 0.0833333 8.91667C0.192708 8.39063 0.406251 7.96875 0.729167 7.64583C1.0625 7.32813 1.44271 7.09375 1.875 6.9375C2.31771 6.78646 2.75521 6.70833 3.1875 6.70833C3.57292 6.70833 3.9375 6.76563 4.27083 6.875C4.61458 6.98958 4.92188 7.125 5.1875 7.29167L6.64583 3.14583C6.32292 2.82813 5.98958 2.55729 5.64583 2.33333C5.29688 2.09896 4.90104 1.97917 4.45833 1.97917C4.21875 1.97917 3.98958 2.03646 3.77083 2.14583C3.54687 2.26042 3.33333 2.41667 3.125 2.625ZM10 1.9375C9.83333 1.9375 9.66667 2 9.5 2.125C9.33333 2.25 9.1875 2.44792 9.0625 2.70833C9.14583 2.80729 9.25 2.91146 9.375 3.02083C9.51042 3.13542 9.67708 3.1875 9.875 3.1875C10.0521 3.1875 10.2135 3.13542 10.3542 3.02083C10.4896 2.89583 10.5625 2.72917 10.5625 2.52083C10.5625 2.32813 10.5104 2.18229 10.4167 2.08333C10.3177 1.98958 10.1771 1.9375 10 1.9375ZM2.9375 10.3333C3.23958 10.3333 3.54167 10.224 3.83333 10C4.125 9.76563 4.38021 9.41146 4.60417 8.9375C4.40625 8.77083 4.20833 8.64063 4 8.54167C3.80208 8.43229 3.58333 8.375 3.33333 8.375C3.04167 8.375 2.78125 8.45833 2.5625 8.625C2.33854 8.79167 2.19271 8.99479 2.125 9.22917C2.10937 9.28646 2.10417 9.34375 2.10417 9.39583C2.10417 9.4375 2.10417 9.47917 2.10417 9.52083C2.10417 9.74479 2.17187 9.9375 2.3125 10.1042C2.46354 10.2604 2.67187 10.3333 2.9375 10.3333Z" fill="#D72333"/>
</svg>
