<svg width="10" height="11" viewBox="0 0 10 11" fill="none" xmlns="http://www.w3.org/2000/svg">
<path d="M2.1875 10.2292C2.07292 10.2292 2.01042 10.1771 2 10.0625L0.0208333 0.1875L0 0.125C0 0.0416667 0.0520827 0 0.166667 0H1.9375C2.0625 0 2.13021 0.052084 2.14583 0.145833L2.97917 5.41667C2.97917 5.45833 2.98437 5.47917 3 5.47917C3.02604 5.47917 3.04687 5.45833 3.0625 5.41667L3.85417 0.145833C3.85417 0.052084 3.91667 0 4.04167 0H5.52083C5.63021 0 5.69271 0.052084 5.70833 0.145833L6.5625 5.41667C6.57292 5.45833 6.58854 5.47917 6.60417 5.47917C6.63021 5.47917 6.64583 5.45833 6.64583 5.41667L7.39583 0.145833C7.40625 0.052084 7.46875 0 7.58333 0H9.3125C9.4375 0 9.48958 0.0625 9.47917 0.1875L7.625 10.0625C7.60938 10.1771 7.54688 10.2292 7.4375 10.2292H5.85417C5.72917 10.2292 5.66667 10.1771 5.66667 10.0625L4.79167 4.66667C4.79167 4.625 4.77604 4.60417 4.75 4.60417C4.73438 4.60417 4.71875 4.625 4.70833 4.66667L3.9375 10.0625C3.92187 10.1771 3.85937 10.2292 3.75 10.2292H2.1875Z" fill="#D72333"/>
</svg>
