<svg width="6" height="12" viewBox="0 0 6 12" fill="none" xmlns="http://www.w3.org/2000/svg">
<path d="M2.72917 11.2917C1.90625 11.2917 1.25 11.0156 0.75 10.4583C0.25 9.89063 0 9.14063 0 8.20833V0.145833C0 0.0520827 0.0468747 0 0.145833 0H0.958333C1.06771 0 1.125 0.0520827 1.125 0.145833V8.33333C1.125 8.93229 1.27083 9.41146 1.5625 9.77083C1.85417 10.1354 2.23958 10.3125 2.72917 10.3125C3.21354 10.3125 3.60417 10.1354 3.89583 9.77083C4.19792 9.41146 4.35417 8.93229 4.35417 8.33333V0.145833C4.35417 0.0520827 4.40104 0 4.5 0H5.3125C5.42188 0 5.47917 0.0520827 5.47917 0.145833V8.20833C5.47917 9.14063 5.21875 9.89063 4.70833 10.4583C4.20833 11.0156 3.54687 11.2917 2.72917 11.2917Z" fill="#D72333"/>
</svg>
