<svg width="6" height="12" viewBox="0 0 6 12" fill="none" xmlns="http://www.w3.org/2000/svg">
<path d="M4.97917 6.47917C5.0625 6.89583 5.10417 7.36979 5.10417 7.89583C5.10417 8.35417 5.08333 8.75 5.04167 9.08333C4.95833 9.83333 4.69271 10.4115 4.25 10.8125C3.81771 11.2188 3.25 11.4167 2.54167 11.4167C1.88542 11.4167 1.34375 11.2396 0.916667 10.875C0.484375 10.5 0.218751 9.94792 0.125 9.20833C0.0416667 8.875 0 8.45833 0 7.95833V2.72917C0 1.89583 0.229167 1.23958 0.6875 0.75C1.15625 0.25 1.77604 0 2.54167 0C3.23437 0 3.80208 0.25 4.25 0.75C4.70833 1.25 4.9375 1.91146 4.9375 2.72917V2.97917C4.9375 3.09375 4.88021 3.14583 4.77083 3.14583H3.95833C3.85937 3.14583 3.8125 3.09375 3.8125 2.97917V2.75C3.8125 2.23958 3.6875 1.82292 3.4375 1.5C3.1875 1.18229 2.88542 1.02083 2.54167 1.02083C2.125 1.02083 1.78125 1.18229 1.52083 1.5C1.27083 1.82292 1.14583 2.23958 1.14583 2.75V4.89583C1.14583 4.91146 1.15104 4.92708 1.16667 4.9375C1.17708 4.9375 1.19792 4.93229 1.22917 4.91667C1.36458 4.69792 1.55208 4.53125 1.79167 4.41667C2.02604 4.30729 2.29167 4.25 2.58333 4.25C3.21875 4.25 3.75 4.45313 4.16667 4.85417C4.58333 5.24479 4.85417 5.78646 4.97917 6.47917ZM3.89583 8.97917C3.9375 8.55208 3.95833 8.16146 3.95833 7.8125C3.95833 7.32813 3.90625 6.86979 3.8125 6.4375C3.72917 6.05208 3.57292 5.76042 3.35417 5.5625C3.14583 5.35417 2.875 5.25 2.54167 5.25C1.84375 5.25 1.40625 5.66667 1.22917 6.5C1.17187 6.84896 1.14583 7.28646 1.14583 7.8125C1.14583 8.3125 1.17187 8.72917 1.22917 9.0625C1.40625 9.97917 1.84375 10.4375 2.54167 10.4375C2.90104 10.4375 3.19271 10.3125 3.41667 10.0625C3.65104 9.8125 3.8125 9.45313 3.89583 8.97917Z" fill="#D72333"/>
</svg>
