<svg width="6" height="12" viewBox="0 0 6 12" fill="none" xmlns="http://www.w3.org/2000/svg">
<path d="M3.75 2.16667C3.44271 2.16667 3.1875 2.0625 2.97917 1.85417C2.77083 1.63542 2.66667 1.36979 2.66667 1.0625C2.66667 0.770833 2.77083 0.520833 2.97917 0.3125C3.1875 0.104167 3.44271 0 3.75 0C4.04167 0 4.29167 0.104167 4.5 0.3125C4.71875 0.520833 4.83333 0.770833 4.83333 1.0625C4.83333 1.36979 4.71875 1.63542 4.5 1.85417C4.29167 2.0625 4.04167 2.16667 3.75 2.16667ZM1.95833 8.91667C1.92708 8.98958 1.91667 9.05729 1.91667 9.125C1.91667 9.25 1.96354 9.35417 2.0625 9.4375C2.15625 9.52083 2.27604 9.5625 2.41667 9.5625C2.67708 9.5625 2.97917 9.40625 3.3125 9.08333C3.64583 8.75 3.96354 8.16146 4.27083 7.3125C4.35417 7.10417 4.46875 6.95313 4.625 6.85417C4.79167 6.76042 4.96354 6.70833 5.14583 6.70833C5.35417 6.70833 5.53125 6.77083 5.6875 6.89583C5.85417 7.01042 5.9375 7.16667 5.9375 7.375C5.9375 7.45833 5.92188 7.53646 5.89583 7.60417C5.58854 8.52083 5.23438 9.23958 4.83333 9.75C4.42708 10.2656 4.00521 10.625 3.5625 10.8333C3.11458 11.0417 2.67708 11.1458 2.25 11.1458C1.84375 11.1458 1.46875 11.0729 1.125 10.9167C0.791667 10.7656 0.520833 10.5417 0.3125 10.25C0.104167 9.95833 0 9.60417 0 9.1875C0 9.07813 0.0208333 8.94792 0.0625 8.79167C0.104167 8.625 0.145833 8.47396 0.1875 8.33333C0.322916 7.93229 0.479167 7.49479 0.645833 7.02083C0.8125 6.55208 0.968751 6.08333 1.125 5.625C1.29167 5.15625 1.44271 4.70833 1.58333 4.29167C1.69271 3.98958 1.84375 3.76042 2.04167 3.60417C2.25 3.45313 2.44792 3.375 2.64583 3.375C2.88021 3.375 3.08854 3.45313 3.27083 3.60417C3.44792 3.76042 3.54167 3.97917 3.54167 4.27083C3.54167 4.32813 3.52604 4.40625 3.5 4.5C3.46875 4.58333 3.44271 4.66667 3.41667 4.75L1.95833 8.91667Z" fill="#D72333"/>
</svg>
