<svg width="12" height="20" viewBox="0 0 12 20" fill="none" xmlns="http://www.w3.org/2000/svg">
<path d="M11.3958 0C11.4896 0 11.5677 0.0364587 11.625 0.104167C11.6927 0.177084 11.7292 0.25 11.7292 0.333333V3.04167C11.7292 3.14063 11.6927 3.22396 11.625 3.29167C11.5677 3.36458 11.4896 3.39583 11.3958 3.39583H7.91667C7.81771 3.39583 7.77083 3.4375 7.77083 3.52083V19.2292C7.77083 19.3281 7.73438 19.4115 7.66667 19.4792C7.60938 19.5365 7.53125 19.5625 7.4375 19.5625H4.16667C4.06771 19.5625 3.98437 19.5365 3.91667 19.4792C3.85937 19.4115 3.83333 19.3281 3.83333 19.2292V3.52083C3.83333 3.4375 3.78125 3.39583 3.6875 3.39583H0.333333C0.25 3.39583 0.171875 3.36458 0.104167 3.29167C0.0312507 3.22396 0 3.14063 0 3.04167V0.333333C0 0.25 0.0312507 0.177084 0.104167 0.104167C0.171875 0.0364587 0.25 0 0.333333 0H11.3958Z" fill="#D72333"/>
</svg>
