<svg width="7" height="12" viewBox="0 0 7 12" fill="none" xmlns="http://www.w3.org/2000/svg">
<path d="M4.89583 0.104167C4.92188 0.0364587 4.98438 0 5.08333 0H5.91667C6.01042 0 6.0625 0.0520827 6.0625 0.145833V11C6.0625 11.1146 6.01042 11.1667 5.91667 11.1667H5.10417C4.98958 11.1667 4.9375 11.1146 4.9375 11V2.45833C4.9375 2.41667 4.92708 2.39583 4.91667 2.39583C4.90104 2.39583 4.88021 2.41146 4.85417 2.4375L3.20833 5.875C3.16667 5.95833 3.10937 6 3.04167 6C2.95833 6 2.90104 5.95833 2.875 5.875L1.20833 2.45833C1.17708 2.43229 1.15625 2.41667 1.14583 2.41667C1.13021 2.41667 1.125 2.4375 1.125 2.47917V11C1.125 11.1146 1.06771 11.1667 0.958333 11.1667H0.145833C0.0468747 11.1667 0 11.1146 0 11V0.145833C0 0.0520827 0.0468747 0 0.145833 0H0.979167C1.07292 0 1.13542 0.0364587 1.16667 0.104167L3 3.79167C3 3.82292 3.00521 3.83333 3.02083 3.83333C3.04687 3.83333 3.06771 3.82292 3.08333 3.79167L4.89583 0.104167Z" fill="#D72333"/>
</svg>
