<svg width="11" height="13" viewBox="0 0 11 13" fill="none" xmlns="http://www.w3.org/2000/svg">
<path d="M6.89583 6.625C7.42188 6.36458 7.89583 6.02083 8.3125 5.60417C8.73958 5.17708 9.07292 4.61979 9.3125 3.9375C9.40625 3.6875 9.54167 3.51042 9.70833 3.39583C9.88542 3.27083 10.0677 3.20833 10.25 3.20833C10.4427 3.20833 10.6094 3.27083 10.75 3.39583C10.901 3.52083 10.9792 3.69792 10.9792 3.91667C10.9792 4.03125 10.9635 4.13542 10.9375 4.22917C10.6979 4.92708 10.4063 5.51563 10.0625 6C9.72917 6.48958 9.34375 6.90625 8.91667 7.25C8.5 7.58333 8.05208 7.85417 7.58333 8.0625C7.125 8.28125 6.65625 8.46875 6.1875 8.625L5.58333 10.3125C5.30208 11.0729 4.88021 11.6354 4.3125 12C3.75521 12.3594 3.15104 12.5417 2.5 12.5417C2.06771 12.5417 1.66667 12.4479 1.29167 12.2708C0.906251 12.1042 0.593749 11.8542 0.354167 11.5208C0.119792 11.1979 0 10.8333 0 10.4167C0 10.2083 0.0364587 10 0.104167 9.79167C0.229167 9.34375 0.473959 8.98958 0.833333 8.72917C1.18229 8.46354 1.57813 8.25521 2.02083 8.10417C2.46354 7.96354 2.88542 7.85417 3.29167 7.77083C2.84375 7.67708 2.46354 7.45833 2.14583 7.125C1.82812 6.78125 1.66667 6.34896 1.66667 5.83333C1.66667 5.57292 1.71875 5.29167 1.8125 5L2.9375 1.79167C3.15625 1.18229 3.5 0.729167 3.95833 0.4375C4.42708 0.145833 4.90625 0 5.39583 0C5.73958 0 6.04688 0.057292 6.3125 0.166667C6.57292 0.265625 6.81771 0.432292 7.04167 0.666667C7.125 0.432292 7.25521 0.265625 7.4375 0.166667C7.63021 0.057292 7.82292 0 8.02083 0C8.11458 0 8.19792 0.0156253 8.27083 0.0416667C8.33854 0.057292 8.41667 0.0937507 8.5 0.145833C8.58333 0.1875 8.65625 0.265625 8.72917 0.375C8.8125 0.473959 8.85417 0.625 8.85417 0.833333C8.85417 1.01563 8.8125 1.23958 8.72917 1.5L6.89583 6.625ZM6.33333 2.54167C6.34375 2.5 6.35417 2.46875 6.35417 2.4375C6.35417 2.41146 6.35417 2.38542 6.35417 2.35417C6.35417 2.11979 6.27083 1.93229 6.10417 1.79167C5.94792 1.64063 5.77604 1.5625 5.58333 1.5625C5.44271 1.5625 5.30208 1.61458 5.16667 1.70833C5.02604 1.80729 4.92188 1.94792 4.85417 2.125L3.66667 5.47917C3.65104 5.52083 3.63542 5.57292 3.625 5.625C3.60937 5.66667 3.60417 5.70833 3.60417 5.75C3.60417 5.89063 3.65104 6 3.75 6.08333C3.85937 6.15625 4 6.1875 4.16667 6.1875C4.38542 6.1875 4.60417 6.10417 4.8125 5.9375C5.02083 5.77083 5.19271 5.57292 5.33333 5.33333L6.33333 2.54167ZM3.77083 9.22917C3.33854 9.35417 2.96875 9.48438 2.66667 9.625C2.35937 9.76042 2.15625 9.94792 2.0625 10.1875C2.02083 10.2812 2 10.375 2 10.4583C2 10.5677 2.03125 10.6667 2.10417 10.75C2.1875 10.8333 2.30208 10.875 2.45833 10.875C2.65104 10.875 2.83854 10.8125 3.02083 10.6875C3.21354 10.5625 3.35417 10.3802 3.4375 10.1458L3.77083 9.22917Z" fill="#D72333"/>
</svg>
