<svg width="5" height="8" viewBox="0 0 5 8" fill="none" xmlns="http://www.w3.org/2000/svg">
<path d="M0.166667 7.72917C0.0520827 7.72917 0 7.68229 0 7.58333V6.83333C0 6.76563 0.010416 6.70313 0.0416667 6.64583L3.1875 1.0625C3.19792 1.05208 3.19792 1.03646 3.1875 1.02083C3.1875 0.994792 3.17187 0.979167 3.14583 0.979167H0.208333C0.109375 0.979167 0.0625 0.932292 0.0625 0.833333V0.145833C0.0625 0.052084 0.109375 0 0.208333 0H4.35417C4.44792 0 4.5 0.052084 4.5 0.145833V0.875C4.5 0.947916 4.48438 1.01563 4.45833 1.08333L1.29167 6.66667C1.27604 6.68229 1.27604 6.69792 1.29167 6.70833C1.30208 6.72396 1.31771 6.72917 1.33333 6.72917H4.375C4.46875 6.72917 4.52083 6.78646 4.52083 6.89583V7.58333C4.52083 7.68229 4.46875 7.72917 4.375 7.72917H0.166667Z" fill="#D72333"/>
</svg>
