<svg width="5" height="8" viewBox="0 0 5 8" fill="none" xmlns="http://www.w3.org/2000/svg">
<path d="M3.45833 0.145833C3.45833 0.052084 3.50521 0 3.60417 0H4.35417C4.44792 0 4.5 0.052084 4.5 0.145833V7.25C4.5 7.34896 4.44792 7.39583 4.35417 7.39583H3.60417C3.50521 7.39583 3.45833 7.34896 3.45833 7.25V6.75C3.45833 6.72396 3.44792 6.70833 3.4375 6.70833C3.42187 6.70833 3.40104 6.71875 3.375 6.72917C3.08333 7.24479 2.59375 7.5 1.91667 7.5C1.33333 7.5 0.864583 7.32813 0.520833 6.97917C0.171875 6.61979 0 6.07813 0 5.35417V0.145833C0 0.052084 0.0468747 0 0.145833 0H0.895833C0.989583 0 1.04167 0.052084 1.04167 0.145833V5.10417C1.04167 5.60417 1.13542 5.97917 1.33333 6.22917C1.54167 6.46875 1.83333 6.58333 2.20833 6.58333C2.59375 6.58333 2.90104 6.44792 3.125 6.16667C3.34375 5.89063 3.45833 5.51042 3.45833 5.02083V0.145833Z" fill="#D72333"/>
</svg>
