<svg width="6" height="12" viewBox="0 0 6 12" fill="none" xmlns="http://www.w3.org/2000/svg">
<path d="M2.77083 0C3.54687 0 4.17188 0.286459 4.64583 0.854167C5.13021 1.41146 5.375 2.15625 5.375 3.08333C5.375 3.98958 5.13542 4.71875 4.66667 5.27083C4.20833 5.82813 3.59375 6.10417 2.83333 6.10417H1.1875C1.14583 6.10417 1.125 6.125 1.125 6.16667V10.9583C1.125 11.0729 1.07292 11.125 0.979167 11.125H0.166667C0.0520827 11.125 0 11.0729 0 10.9583V0.145833C0 0.0520827 0.0520827 0 0.166667 0H2.77083ZM2.64583 5.1875C3.11458 5.1875 3.5 5 3.79167 4.625C4.09375 4.23958 4.25 3.72396 4.25 3.08333C4.25 2.45833 4.09375 1.95313 3.79167 1.5625C3.5 1.17708 3.11458 0.979167 2.64583 0.979167H1.1875C1.14583 0.979167 1.125 1 1.125 1.04167V5.125C1.125 5.16667 1.14583 5.1875 1.1875 5.1875H2.64583Z" fill="#D72333"/>
</svg>
