<svg width="6" height="11" viewBox="0 0 6 11" fill="none" xmlns="http://www.w3.org/2000/svg">
<path d="M4.08333 0.145833C4.08333 0.052084 4.13021 0 4.22917 0H4.95833C5.05208 0 5.10417 0.052084 5.10417 0.145833V10.0833C5.10417 10.1823 5.05208 10.2292 4.95833 10.2292H4.10417C4.02083 10.2292 3.96354 10.1875 3.9375 10.1042L1.08333 2.54167C1.06771 2.51563 1.05208 2.51042 1.04167 2.52083C1.02604 2.52083 1.02083 2.53646 1.02083 2.5625V10.0833C1.02083 10.1823 0.968751 10.2292 0.875 10.2292H0.145833C0.0468747 10.2292 0 10.1823 0 10.0833V0.145833C0 0.052084 0.0468747 0 0.145833 0H0.979167C1.0625 0 1.11458 0.0364587 1.14583 0.104167L4.02083 7.6875C4.02083 7.71875 4.02604 7.72917 4.04167 7.72917C4.06771 7.71875 4.08333 7.69792 4.08333 7.66667V0.145833Z" fill="#D72333"/>
</svg>
