<svg width="7" height="12" viewBox="0 0 7 12" fill="none" xmlns="http://www.w3.org/2000/svg">
<path d="M3.10417 11.2292C2.17187 11.2292 1.42187 10.9531 0.854167 10.3958C0.281251 9.82813 0 9.07813 0 8.14583V3.0625C0 2.13542 0.281251 1.39063 0.854167 0.833333C1.42187 0.281249 2.17187 0 3.10417 0C4.0625 0 4.82292 0.281249 5.39583 0.833333C5.96354 1.39063 6.25 2.13542 6.25 3.0625V3.22917C6.25 3.28646 6.22917 3.33333 6.1875 3.375C6.15625 3.40625 6.11458 3.41667 6.0625 3.41667L4.22917 3.5C4.10417 3.5 4.04167 3.44792 4.04167 3.33333V2.91667C4.04167 2.61458 3.95833 2.36979 3.79167 2.1875C3.625 1.99479 3.39583 1.89583 3.10417 1.89583C2.83854 1.89583 2.625 1.99479 2.45833 2.1875C2.29167 2.36979 2.20833 2.61458 2.20833 2.91667V8.33333C2.20833 8.64063 2.29167 8.88542 2.45833 9.0625C2.625 9.24479 2.83854 9.33333 3.10417 9.33333C3.39583 9.33333 3.625 9.24479 3.79167 9.0625C3.95833 8.88542 4.04167 8.64063 4.04167 8.33333V7.89583C4.04167 7.85417 4.05208 7.8125 4.08333 7.77083C4.125 7.72917 4.17188 7.70833 4.22917 7.70833L6.0625 7.79167C6.11458 7.79167 6.15625 7.8125 6.1875 7.85417C6.22917 7.88542 6.25 7.92708 6.25 7.97917V8.14583C6.25 9.07813 5.95833 9.82813 5.375 10.3958C4.80208 10.9531 4.04688 11.2292 3.10417 11.2292Z" fill="#D72333"/>
</svg>
