<svg width="10" height="19" viewBox="0 0 10 19" fill="none" xmlns="http://www.w3.org/2000/svg">
<path d="M9.1875 0C9.36458 0 9.45833 0.0937493 9.45833 0.270833V1.39583C9.45833 1.5625 9.36458 1.64583 9.1875 1.64583H5.66667C5.59375 1.64583 5.5625 1.68229 5.5625 1.75V18.3542C5.5625 18.5365 5.47917 18.625 5.3125 18.625H3.9375C3.77083 18.625 3.6875 18.5365 3.6875 18.3542V1.75C3.6875 1.68229 3.65104 1.64583 3.58333 1.64583H0.270833C0.0885413 1.64583 0 1.5625 0 1.39583V0.270833C0 0.0937493 0.0885413 0 0.270833 0H9.1875Z" fill="#D72333"/>
</svg>
