<svg width="6" height="12" viewBox="0 0 6 12" fill="none" xmlns="http://www.w3.org/2000/svg">
<path d="M2.39583 11.1458C2.29687 11.1458 2.25 11.099 2.25 11V6.22917C2.25 6.17708 2.23958 6.14583 2.22917 6.14583L0 0.1875V0.125C0 0.0416667 0.0416667 0 0.125 0H1C1.09375 0 1.15625 0.0416667 1.1875 0.125L2.75 4.79167C2.76042 4.82292 2.77604 4.83333 2.79167 4.83333C2.81771 4.83333 2.83854 4.82292 2.85417 4.79167L4.41667 0.125C4.44271 0.0416667 4.50521 0 4.60417 0H5.45833C5.51042 0 5.55208 0.0208333 5.58333 0.0625C5.60938 0.0937493 5.60938 0.135416 5.58333 0.1875L3.39583 6.14583C3.38021 6.14583 3.375 6.17708 3.375 6.22917V11C3.375 11.099 3.31771 11.1458 3.20833 11.1458H2.39583Z" fill="#D72333"/>
</svg>
