<svg width="5" height="11" viewBox="0 0 5 11" fill="none" xmlns="http://www.w3.org/2000/svg">
<path d="M3.6875 0.270833C3.6875 0.177084 3.73437 0.125 3.83333 0.125H4.60417C4.71354 0.125 4.77083 0.177084 4.77083 0.270833V7.70833C4.77083 8.79167 4.51042 9.61458 4 10.1875C3.5 10.7552 2.65625 11.0104 1.47917 10.9583C1.38021 10.9427 1.33333 10.8854 1.33333 10.7917V10.125C1.33333 10.026 1.38021 9.97917 1.47917 9.97917C2.29687 9.98958 2.86458 9.80208 3.1875 9.41667C3.52083 9.02604 3.6875 8.42188 3.6875 7.60417V7.14583C3.6875 7.13542 3.67187 7.11979 3.64583 7.10417C3.63021 7.09375 3.61458 7.09896 3.60417 7.125C3.42187 7.375 3.19792 7.57292 2.9375 7.70833C2.67187 7.83333 2.38542 7.89583 2.08333 7.89583C1.42708 7.89583 0.916667 7.6875 0.541667 7.27083C0.177084 6.84375 0 6.27083 0 5.5625V2.33333C0 1.625 0.177084 1.0625 0.541667 0.645833C0.916667 0.218751 1.42708 0 2.08333 0C2.38542 0 2.67187 0.0625 2.9375 0.1875C3.19792 0.3125 3.42187 0.5 3.60417 0.75C3.61458 0.791667 3.63021 0.8125 3.64583 0.8125C3.67187 0.802084 3.6875 0.781249 3.6875 0.75V0.270833ZM2.39583 6.95833C2.77083 6.95833 3.07292 6.82813 3.3125 6.5625C3.5625 6.28646 3.6875 5.93229 3.6875 5.5V2.41667C3.6875 1.97396 3.5625 1.61979 3.3125 1.35417C3.07292 1.07813 2.77083 0.9375 2.39583 0.9375C2.00521 0.9375 1.6875 1.07813 1.4375 1.35417C1.19792 1.61979 1.08333 1.97396 1.08333 2.41667V5.5C1.08333 5.93229 1.19792 6.28646 1.4375 6.5625C1.6875 6.82813 2.00521 6.95833 2.39583 6.95833Z" fill="#D72333"/>
</svg>
