<svg width="7" height="11" viewBox="0 0 7 11" fill="none" xmlns="http://www.w3.org/2000/svg">
<path d="M5.07103 10.9792C4.97207 10.9792 4.91478 10.9323 4.90437 10.8333L4.50853 8.89583C4.50853 8.86979 4.49812 8.85417 4.4877 8.85417C4.47207 8.84375 4.45124 8.83333 4.4252 8.83333H1.59187C1.56061 8.83333 1.53978 8.84375 1.52937 8.85417C1.51374 8.85417 1.50853 8.86979 1.50853 8.89583L1.1127 10.8333C1.09707 10.9323 1.03978 10.9792 0.946032 10.9792H0.154365C0.0970734 10.9792 0.0554067 10.9688 0.0293654 10.9375C-0.00188394 10.8958 -0.00709327 10.8542 0.00853206 10.8125L2.3627 0.145833C2.37312 0.052084 2.43041 0 2.52937 0H3.46687C3.57624 0 3.63353 0.052084 3.63353 0.145833L6.02937 10.8125V10.8333C6.02937 10.9323 5.97728 10.9792 5.88353 10.9792H5.07103ZM1.71687 7.85417C1.71687 7.89583 1.72728 7.91667 1.75853 7.91667H4.2377C4.26374 7.91667 4.27937 7.89583 4.27937 7.85417L3.02937 1.6875C3.01374 1.66146 2.99812 1.64583 2.9877 1.64583C2.9877 1.64583 2.97728 1.66146 2.96687 1.6875L1.71687 7.85417Z" fill="#D72333"/>
</svg>
