<svg width="6" height="11" viewBox="0 0 6 11" fill="none" xmlns="http://www.w3.org/2000/svg">
<path d="M2.5 10.4792C1.75 10.4792 1.14583 10.2448 0.6875 9.77083C0.229167 9.30208 0 8.68229 0 7.91667V2.5625C0 1.78646 0.229167 1.16667 0.6875 0.708333C1.14583 0.239583 1.75 0 2.5 0C3.26042 0 3.88021 0.239583 4.35417 0.708333C4.82292 1.16667 5.0625 1.78646 5.0625 2.5625V7.91667C5.0625 8.68229 4.82292 9.30208 4.35417 9.77083C3.88021 10.2448 3.26042 10.4792 2.5 10.4792ZM2.5 9.5625C2.95833 9.5625 3.32292 9.41667 3.60417 9.125C3.88021 8.82292 4.02083 8.4375 4.02083 7.97917V2.52083C4.02083 2.03646 3.88021 1.64583 3.60417 1.35417C3.32292 1.0625 2.95833 0.916667 2.5 0.916667C2.06771 0.916667 1.71354 1.0625 1.4375 1.35417C1.15625 1.64583 1.02083 2.03646 1.02083 2.52083V7.97917C1.02083 8.4375 1.15625 8.82292 1.4375 9.125C1.71354 9.41667 2.06771 9.5625 2.5 9.5625Z" fill="#D72333"/>
</svg>
