<svg width="46" height="74" viewBox="0 0 46 74" fill="none" xmlns="http://www.w3.org/2000/svg">
<mask id="mask0_24_7597" style="mask-type:luminance" maskUnits="userSpaceOnUse" x="0" y="0" width="46" height="74">
<path d="M45.3333 0H0V73.3333H45.3333V0Z" fill="white"/>
</mask>
<g mask="url(#mask0_24_7597)">
<path d="M5.60758 6.72689C5.35758 6.72689 5.14925 6.64355 4.98258 6.47689C4.81592 6.31022 4.73258 6.10189 4.73258 5.85189C4.73258 5.59147 4.81592 5.37272 4.98258 5.20605C5.14925 5.03939 5.35758 4.95605 5.60758 4.95605C5.868 4.95605 6.07633 5.03939 6.23258 5.20605C6.39925 5.37272 6.48258 5.59147 6.48258 5.85189C6.48258 6.10189 6.39925 6.31022 6.23258 6.47689C6.06592 6.64355 5.85758 6.72689 5.60758 6.72689ZM3.79508 19.3727C3.68571 19.3727 3.62842 19.3154 3.62842 19.2061V18.5394C3.62842 18.4404 3.68571 18.3936 3.79508 18.3936C4.63884 18.3623 5.06592 17.8311 5.06592 16.7894V8.33105C5.06592 8.22168 5.11279 8.16439 5.21175 8.16439H6.02425C6.118 8.16439 6.17008 8.22168 6.17008 8.33105V16.7894C6.17008 17.6488 6.00342 18.2946 5.67008 18.7269C5.33675 19.154 4.71175 19.3727 3.79508 19.3727Z" fill="#D72333"/>
<path d="M12.9329 12.3937C12.9329 12.5083 12.8809 12.5604 12.7871 12.5604H9.20378C9.16211 12.5604 9.14128 12.5812 9.14128 12.6229V13.7687C9.14128 14.201 9.26628 14.5552 9.51628 14.8312C9.76628 15.1125 10.084 15.2479 10.4746 15.2479C10.8079 15.2479 11.0892 15.1541 11.3288 14.9562C11.5632 14.7479 11.7142 14.4875 11.7871 14.1646C11.8288 14.0708 11.8913 14.0187 11.9746 14.0187L12.7454 14.0396C12.7871 14.0396 12.8184 14.0604 12.8496 14.1021C12.8913 14.1333 12.9017 14.175 12.8913 14.2271C12.8079 14.8416 12.5475 15.326 12.1204 15.6854C11.7038 16.05 11.1517 16.2271 10.4746 16.2271C9.73503 16.2271 9.14648 16.0135 8.70378 15.5812C8.25586 15.1385 8.03711 14.5552 8.03711 13.8312V10.4354C8.03711 9.72705 8.25586 9.15413 8.70378 8.70622C9.14648 8.26351 9.73503 8.03955 10.4746 8.03955C11.2246 8.03955 11.8184 8.26351 12.2663 8.70622C12.709 9.15413 12.9329 9.72705 12.9329 10.4354V12.3937ZM10.4746 9.01872C10.084 9.01872 9.76628 9.15934 9.51628 9.43538C9.26628 9.71663 9.14128 10.076 9.14128 10.5187V11.5604C9.14128 11.6021 9.16211 11.6229 9.20378 11.6229H11.7871C11.8288 11.6229 11.8496 11.6021 11.8496 11.5604V10.5187C11.8496 10.076 11.7142 9.71663 11.4538 9.43538C11.2038 9.15934 10.8757 9.01872 10.4746 9.01872Z" fill="#D72333"/>
<path d="M31.2049 5.16423C31.2726 5.13818 31.3403 5.12256 31.4132 5.12256H32.2674C32.3612 5.12256 32.4132 5.17464 32.4132 5.26839V15.9351C32.4132 16.0496 32.3612 16.1017 32.2674 16.1017H31.4549C31.356 16.1017 31.3091 16.0496 31.3091 15.9351V6.43506C31.3091 6.42464 31.2987 6.40902 31.2882 6.39339C31.2726 6.38298 31.2518 6.38298 31.2257 6.39339L29.7466 6.87256L29.7049 6.89339C29.632 6.89339 29.5851 6.84652 29.5591 6.74756L29.4966 6.16423V6.14339C29.4966 6.09131 29.5278 6.03402 29.6007 5.97673L31.2049 5.16423Z" fill="#D72333"/>
<path d="M34.8467 16.0809C34.5811 16.0809 34.3675 15.9976 34.2008 15.8309C34.0446 15.6642 33.9717 15.4559 33.9717 15.2059C33.9717 14.9455 34.0446 14.7267 34.2008 14.5601C34.3675 14.3934 34.5811 14.3101 34.8467 14.3101C35.0967 14.3101 35.305 14.3934 35.4717 14.5601C35.6383 14.7267 35.7217 14.9455 35.7217 15.2059C35.7217 15.4559 35.6383 15.6642 35.4717 15.8309C35.305 15.9976 35.0967 16.0809 34.8467 16.0809Z" fill="#D72333"/>
<path d="M42.0153 11.2476C42.1091 11.6382 42.1611 12.1434 42.1611 12.7684C42.1611 13.2267 42.1299 13.659 42.0778 14.0601C41.9632 14.7684 41.7028 15.3101 41.2861 15.6851C40.8799 16.0496 40.3382 16.2267 39.6611 16.2267C38.9788 16.2267 38.432 16.0496 38.0153 15.6851C37.5986 15.3101 37.333 14.7632 37.2236 14.0392L37.182 13.5601V13.5392C37.182 13.4455 37.2236 13.3934 37.307 13.3934H38.1195C38.2132 13.3934 38.2705 13.4507 38.2861 13.5601L38.3278 13.9351C38.4945 14.8101 38.9372 15.2476 39.6611 15.2476C39.9945 15.2476 40.2653 15.1434 40.4736 14.9351C40.6924 14.7163 40.8486 14.4038 40.932 13.9976C41.0153 13.6642 41.057 13.2476 41.057 12.7476C41.057 12.2215 41.0049 11.7684 40.9111 11.3934C40.7132 10.659 40.2965 10.2892 39.6611 10.2892C38.9372 10.2892 38.4841 10.6538 38.307 11.3726C38.2757 11.4715 38.2236 11.5184 38.1403 11.5184H37.307C37.208 11.5184 37.1611 11.4715 37.1611 11.3726V5.26839C37.1611 5.17464 37.208 5.12256 37.307 5.12256H41.7653C41.8591 5.12256 41.9111 5.17464 41.9111 5.26839V5.93506C41.9111 6.04964 41.8591 6.10173 41.7653 6.10173H38.3278C38.2861 6.10173 38.2653 6.12256 38.2653 6.16423V10.0392C38.2653 10.0705 38.2705 10.0913 38.2861 10.1017C38.2965 10.1017 38.3122 10.0965 38.3278 10.0809C38.4945 9.83089 38.7132 9.64339 38.9945 9.51839C39.2705 9.38298 39.583 9.31006 39.932 9.31006C40.4841 9.31006 40.9372 9.47673 41.2861 9.81006C41.6455 10.1434 41.8903 10.6226 42.0153 11.2476Z" fill="#D72333"/>
<path d="M30.9775 40.1318C30.9619 40.1475 30.9619 40.1631 30.9775 40.1735C30.988 40.1891 31.0036 40.1943 31.0192 40.1943H34.7067C34.8161 40.1943 34.8734 40.2516 34.8734 40.361V41.0068C34.8734 41.1214 34.8161 41.1735 34.7067 41.1735H29.79C29.6755 41.1735 29.6234 41.1214 29.6234 41.0068V40.3193C29.6234 40.236 29.6442 40.1683 29.6859 40.111C30.0036 39.6006 30.1859 39.3089 30.2275 39.236C31.1546 37.7777 31.8838 36.5902 32.415 35.6735C33.0817 34.5381 33.415 33.585 33.415 32.8193C33.415 32.2777 33.29 31.8506 33.04 31.5277C32.79 31.21 32.4619 31.0485 32.0609 31.0485C31.6546 31.0485 31.3317 31.21 31.0817 31.5277C30.8421 31.835 30.7327 32.2516 30.7484 32.7777V33.3818C30.7484 33.4808 30.6911 33.5277 30.5817 33.5277H29.7692C29.6546 33.5277 29.6025 33.4808 29.6025 33.3818V32.7568C29.6286 31.9548 29.863 31.3089 30.3109 30.8193C30.7692 30.3193 31.363 30.0693 32.1025 30.0693C32.8369 30.0693 33.4255 30.3298 33.8734 30.8402C34.3317 31.3402 34.5609 32.0016 34.5609 32.8193C34.5609 33.8089 34.1859 34.9183 33.4359 36.1527C33.0609 36.7933 32.5296 37.6527 31.8525 38.736L30.9775 40.1318Z" fill="#D72333"/>
<path d="M36.8057 41.1527C36.54 41.1527 36.3265 41.0693 36.1598 40.9027C36.0036 40.736 35.9307 40.5277 35.9307 40.2777C35.9307 40.0173 36.0036 39.7985 36.1598 39.6318C36.3265 39.4652 36.54 39.3818 36.8057 39.3818C37.0557 39.3818 37.264 39.4652 37.4307 39.6318C37.5973 39.7985 37.6807 40.0173 37.6807 40.2777C37.6807 40.5277 37.5973 40.736 37.4307 40.9027C37.264 41.0693 37.0557 41.1527 36.8057 41.1527Z" fill="#D72333"/>
<path d="M40.2661 40.1318C40.2505 40.1475 40.2505 40.1631 40.2661 40.1735C40.2765 40.1891 40.2922 40.1943 40.3078 40.1943H43.9953C44.1047 40.1943 44.1619 40.2516 44.1619 40.361V41.0068C44.1619 41.1214 44.1047 41.1735 43.9953 41.1735H39.0786C38.964 41.1735 38.9119 41.1214 38.9119 41.0068V40.3193C38.9119 40.236 38.9328 40.1683 38.9744 40.111C39.2922 39.6006 39.4744 39.3089 39.5161 39.236C40.4432 37.7777 41.1724 36.5902 41.7036 35.6735C42.3703 34.5381 42.7036 33.585 42.7036 32.8193C42.7036 32.2777 42.5786 31.8506 42.3286 31.5277C42.0786 31.21 41.7505 31.0485 41.3494 31.0485C40.9432 31.0485 40.6203 31.21 40.3703 31.5277C40.1307 31.835 40.0213 32.2516 40.0369 32.7777V33.3818C40.0369 33.4808 39.9797 33.5277 39.8703 33.5277H39.0578C38.9432 33.5277 38.8911 33.4808 38.8911 33.3818V32.7568C38.9172 31.9548 39.1515 31.3089 39.5994 30.8193C40.0578 30.3193 40.6515 30.0693 41.3911 30.0693C42.1255 30.0693 42.714 30.3298 43.1619 30.8402C43.6203 31.3402 43.8494 32.0016 43.8494 32.8193C43.8494 33.8089 43.4744 34.9183 42.7244 36.1527C42.3494 36.7933 41.8182 37.6527 41.1411 38.736L40.2661 40.1318Z" fill="#D72333"/>
<path d="M31.9521 68.418C31.9365 68.4336 31.9365 68.4492 31.9521 68.4596C31.9626 68.4753 31.9782 68.4805 31.9938 68.4805H35.6813C35.7907 68.4805 35.848 68.5378 35.848 68.6471V69.293C35.848 69.4076 35.7907 69.4596 35.6813 69.4596H30.7646C30.6501 69.4596 30.598 69.4076 30.598 69.293V68.6055C30.598 68.5221 30.6188 68.4544 30.6605 68.3971C30.9782 67.8867 31.1605 67.5951 31.2021 67.5221C32.1292 66.0638 32.8584 64.8763 33.3896 63.9596C34.0563 62.8242 34.3896 61.8711 34.3896 61.1055C34.3896 60.5638 34.2646 60.1367 34.0146 59.8138C33.7646 59.4961 33.4365 59.3346 33.0355 59.3346C32.6292 59.3346 32.3063 59.4961 32.0563 59.8138C31.8167 60.1211 31.7074 60.5378 31.723 61.0638V61.668C31.723 61.7669 31.6657 61.8138 31.5563 61.8138H30.7438C30.6292 61.8138 30.5771 61.7669 30.5771 61.668V61.043C30.6032 60.2409 30.8376 59.5951 31.2855 59.1055C31.7438 58.6055 32.3376 58.3555 33.0771 58.3555C33.8115 58.3555 34.4001 58.6159 34.848 59.1263C35.3063 59.6263 35.5355 60.2878 35.5355 61.1055C35.5355 62.0951 35.1605 63.2044 34.4105 64.4388C34.0355 65.0794 33.5042 65.9388 32.8271 67.0221L31.9521 68.418Z" fill="#D72333"/>
<path d="M37.7803 69.4388C37.5146 69.4388 37.3011 69.3555 37.1344 69.1888C36.9782 69.0221 36.9053 68.8138 36.9053 68.5638C36.9053 68.3034 36.9782 68.0846 37.1344 67.918C37.3011 67.7513 37.5146 67.668 37.7803 67.668C38.0303 67.668 38.2386 67.7513 38.4053 67.918C38.5719 68.0846 38.6553 68.3034 38.6553 68.5638C38.6553 68.8138 38.5719 69.0221 38.4053 69.1888C38.2386 69.3555 38.0303 69.4388 37.7803 69.4388Z" fill="#D72333"/>
<path d="M40.6034 69.4596C40.5461 69.4596 40.5044 69.4492 40.4784 69.418C40.4471 69.3763 40.4419 69.3346 40.4575 69.293L43.145 59.5221C43.145 59.5117 43.1346 59.4961 43.1242 59.4805C43.1086 59.4701 43.0929 59.4596 43.0825 59.4596H40.2075C40.1659 59.4596 40.145 59.4805 40.145 59.5221V60.1471C40.145 60.2617 40.0877 60.3138 39.9784 60.3138H39.3742C39.2596 60.3138 39.2075 60.2617 39.2075 60.1471V58.6263C39.2075 58.5326 39.2596 58.4805 39.3742 58.4805H44.1659C44.2752 58.4805 44.3325 58.5326 44.3325 58.6263V59.3555C44.3325 59.3867 44.3169 59.4492 44.2909 59.543L41.6242 69.3138C41.6086 69.4128 41.5513 69.4596 41.4575 69.4596H40.6034Z" fill="#D72333"/>
</g>
</svg>
