<svg width="4" height="4" viewBox="0 0 4 4" fill="none" xmlns="http://www.w3.org/2000/svg">
<path d="M1.99679 0C2.09054 0 2.127 0.057292 2.10096 0.166667L0.830121 2.95833C0.772829 3.04167 0.710329 3.08333 0.642621 3.08333H0.121788C0.00720412 3.08333 -0.0240452 3.03125 0.0176215 2.91667L1.08012 0.125C1.09054 0.0989587 1.11137 0.0729173 1.14262 0.0416667C1.18429 0.0156253 1.22595 0 1.26762 0H1.99679ZM3.78845 0C3.89783 0 3.93429 0.057292 3.89262 0.166667L2.62179 2.95833C2.5645 3.04167 2.49679 3.08333 2.41346 3.08333H1.91345C1.85616 3.08333 1.8145 3.07292 1.78845 3.04167C1.77283 3 1.77804 2.95833 1.80929 2.91667L2.89262 0.125C2.93429 0.0416667 2.98637 0 3.05929 0H3.78845Z" fill="#D51224"/>
</svg>
