<svg width="8" height="12" viewBox="0 0 8 12" fill="none" xmlns="http://www.w3.org/2000/svg">
<path d="M5.16047 11.1042C5.01985 11.1042 4.95214 11.0521 4.95214 10.9375L4.68131 9.39583C4.68131 9.35417 4.65006 9.33333 4.59797 9.33333H2.57714C2.51985 9.33333 2.49381 9.35417 2.49381 9.39583L2.22297 10.9375C2.22297 11.0521 2.15006 11.1042 2.01464 11.1042H0.160472C0.0198468 11.1042 -0.0270279 11.0365 0.0146388 10.8958L2.34797 0.166667C2.35839 0.057292 2.43131 0 2.55631 0H4.68131C4.80631 0 4.87401 0.057292 4.88964 0.166667L7.22297 10.8958V10.9583C7.22297 11.0573 7.16568 11.1042 7.05631 11.1042H5.16047ZM2.80631 7.52083C2.80631 7.57813 2.82714 7.60417 2.86881 7.60417H4.28547C4.33755 7.60417 4.35839 7.57813 4.34797 7.52083L3.61881 3.1875C3.60318 3.14583 3.58235 3.125 3.55631 3.125C3.54068 3.125 3.52506 3.14583 3.51464 3.1875L2.80631 7.52083Z" fill="#D72333"/>
</svg>
