<svg width="10" height="11" viewBox="0 0 10 11" fill="none" xmlns="http://www.w3.org/2000/svg">
<path d="M2.3125 10.9792C2.1875 10.9792 2.11458 10.9271 2.10417 10.8125L0.0208333 0.208333L0 0.145833C0 0.052084 0.0625 0 0.1875 0H1.6875C1.8125 0 1.88021 0.057292 1.89583 0.166667L2.97917 6.70833C2.98958 6.73958 3.00521 6.75 3.02083 6.75C3.04687 6.75 3.06771 6.73958 3.08333 6.70833L4.0625 0.166667C4.07292 0.057292 4.14583 0 4.27083 0H5.52083C5.64583 0 5.71354 0.057292 5.72917 0.166667L6.79167 6.70833C6.80208 6.73958 6.81771 6.75 6.83333 6.75C6.85938 6.75 6.88021 6.73958 6.89583 6.70833L7.875 0.166667C7.88542 0.057292 7.95833 0 8.08333 0H9.54167C9.67708 0 9.73438 0.072916 9.70833 0.208333L7.72917 10.8125C7.71354 10.9271 7.64583 10.9792 7.52083 10.9792H6.1875C6.0625 10.9792 5.98958 10.9271 5.97917 10.8125L4.9375 4.14583C4.92188 4.10417 4.90104 4.08333 4.875 4.08333C4.85938 4.08333 4.84375 4.10417 4.83333 4.14583L3.875 10.8125C3.85937 10.9271 3.79167 10.9792 3.66667 10.9792H2.3125Z" fill="white"/>
</svg>
