<svg width="6" height="12" viewBox="0 0 6 12" fill="none" xmlns="http://www.w3.org/2000/svg">
<path d="M4.75 0.145833C4.75 0.104167 4.76042 0.072916 4.79167 0.0416667C4.83333 0.0156253 4.875 0 4.91667 0H5.6875C5.79688 0 5.83854 0.052084 5.8125 0.145833L4.52083 10.8125C4.48958 10.9271 4.42708 10.9792 4.33333 10.9792H3.58333C3.52604 10.9792 3.48437 10.9688 3.45833 10.9375C3.42708 10.8958 3.42187 10.8542 3.4375 10.8125L3.47917 10.4792C3.47917 10.4531 3.46875 10.4375 3.45833 10.4375C3.44271 10.4271 3.42187 10.4271 3.39583 10.4375C3.1875 10.6615 2.94792 10.8281 2.6875 10.9375C2.42187 11.0469 2.14583 11.1042 1.85417 11.1042C1.27083 11.1042 0.8125 10.9271 0.479167 10.5625C0.156251 10.2031 0 9.72396 0 9.125C0 9.03125 0.005208 8.89063 0.0208333 8.70833L0.4375 5.3125C0.531251 4.57813 0.796875 3.99479 1.22917 3.5625C1.67187 3.13542 2.21875 2.91667 2.875 2.91667C3.15104 2.91667 3.40625 2.97396 3.64583 3.08333C3.89583 3.19792 4.09375 3.36458 4.25 3.58333C4.26042 3.61458 4.27604 3.61979 4.29167 3.60417C4.31771 3.59375 4.33333 3.57813 4.33333 3.5625L4.75 0.145833ZM2.25 10.125C2.625 10.125 2.94271 9.98958 3.20833 9.70833C3.48437 9.43229 3.65104 9.07813 3.70833 8.64583L4.10417 5.39583C4.11458 5.32813 4.125 5.24479 4.125 5.14583C4.125 4.77083 4.02083 4.47396 3.8125 4.25C3.61458 4.01563 3.34375 3.89583 3 3.89583C2.625 3.89583 2.29167 4.03646 2 4.3125C1.71875 4.59375 1.55208 4.95313 1.5 5.39583L1.10417 8.64583C1.08854 8.70313 1.08333 8.78125 1.08333 8.875C1.08333 9.25 1.1875 9.55729 1.39583 9.79167C1.61458 10.0156 1.90104 10.125 2.25 10.125Z" fill="#D72333"/>
</svg>
