<svg width="7" height="12" viewBox="0 0 7 12" fill="none" xmlns="http://www.w3.org/2000/svg">
<path d="M3.16667 11.2292C2.19271 11.2292 1.42187 10.9531 0.854167 10.3958C0.281251 9.82813 0 9.07292 0 8.125V3.10417C0 2.16146 0.281251 1.41146 0.854167 0.854167C1.42187 0.286459 2.19271 0 3.16667 0C4.125 0 4.89583 0.286459 5.47917 0.854167C6.0625 1.41146 6.35417 2.16146 6.35417 3.10417V8.125C6.35417 9.07292 6.0625 9.82813 5.47917 10.3958C4.89583 10.9531 4.125 11.2292 3.16667 11.2292ZM3.16667 9.33333C3.45833 9.33333 3.6875 9.23958 3.85417 9.04167C4.03125 8.83333 4.125 8.55729 4.125 8.20833V3C4.125 2.66667 4.03125 2.40625 3.85417 2.20833C3.6875 2 3.45833 1.89583 3.16667 1.89583C2.875 1.89583 2.63542 2 2.45833 2.20833C2.29167 2.40625 2.20833 2.66667 2.20833 3V8.20833C2.20833 8.55729 2.29167 8.83333 2.45833 9.04167C2.63542 9.23958 2.875 9.33333 3.16667 9.33333Z" fill="#F8F7F6"/>
</svg>
