<svg width="6" height="11" viewBox="0 0 6 11" fill="none" xmlns="http://www.w3.org/2000/svg">
<path d="M4.39583 10.9792C4.29688 10.9792 4.23438 10.9375 4.20833 10.8542L2.60417 6C2.58854 5.97396 2.56771 5.95833 2.54167 5.95833H1.1875C1.14583 5.95833 1.125 5.97917 1.125 6.02083V10.8125C1.125 10.9271 1.06771 10.9792 0.958333 10.9792H0.166667C0.0520827 10.9792 0 10.9271 0 10.8125V0.145833C0 0.052084 0.0520827 0 0.166667 0H2.75C3.51042 0 4.13021 0.281249 4.60417 0.833333C5.07292 1.39063 5.3125 2.11979 5.3125 3.02083C5.3125 3.70313 5.16667 4.29167 4.875 4.79167C4.58333 5.28125 4.17708 5.61979 3.66667 5.8125C3.625 5.82813 3.60937 5.85417 3.625 5.89583L5.33333 10.8125L5.35417 10.875C5.35417 10.9479 5.30208 10.9792 5.20833 10.9792H4.39583ZM1.1875 0.979167C1.14583 0.979167 1.125 1 1.125 1.04167V5C1.125 5.04167 1.14583 5.0625 1.1875 5.0625H2.58333C3.06771 5.0625 3.45833 4.88542 3.75 4.52083C4.04167 4.14583 4.1875 3.64583 4.1875 3.02083C4.1875 2.41146 4.04167 1.91667 3.75 1.54167C3.45833 1.16667 3.06771 0.979167 2.58333 0.979167H1.1875Z" fill="#D72333"/>
</svg>
