<svg width="12" height="12" viewBox="0 0 12 12" fill="none" xmlns="http://www.w3.org/2000/svg">
<path d="M9.5 7.20833C9.56771 6.97396 9.6875 6.80208 9.85417 6.6875C10.0312 6.57813 10.2083 6.52083 10.375 6.52083C10.5833 6.52083 10.7604 6.58333 10.9167 6.70833C11.0833 6.83333 11.1667 7.01563 11.1667 7.25C11.1667 7.34896 11.1458 7.44792 11.1042 7.54167C10.8385 8.33333 10.5104 9.03646 10.125 9.64583C9.75 10.2604 9.30208 10.7396 8.79167 11.0833C8.27604 11.4167 7.6875 11.5833 7.02083 11.5833C6.57292 11.5833 6.16667 11.5 5.79167 11.3333C5.41667 11.1667 5.11458 10.9167 4.89583 10.5833C4.5625 10.9167 4.1875 11.1667 3.77083 11.3333C3.36458 11.5 2.96875 11.5833 2.58333 11.5833C2.09375 11.5833 1.65625 11.4792 1.27083 11.2708C0.880208 11.0625 0.572916 10.7813 0.354167 10.4167C0.119792 10.0573 0 9.64063 0 9.16667C0 8.86458 0.0625 8.53646 0.1875 8.1875L2.33333 2.10417C2.48437 1.6875 2.71354 1.33333 3.02083 1.04167C3.33854 0.739584 3.69792 0.510416 4.10417 0.354167C4.52083 0.1875 4.94271 0.104167 5.375 0.104167C5.56771 0.104167 5.78125 0.135416 6.02083 0.1875C6.25521 0.229167 6.48438 0.307292 6.70833 0.416667C6.92708 0.531251 7.10417 0.682292 7.22917 0.875C7.33854 0.583333 7.52083 0.369792 7.77083 0.229167C8.02083 0.0781253 8.27083 0 8.52083 0C8.77083 0 8.98958 0.0781253 9.1875 0.229167C9.38021 0.369792 9.47917 0.593749 9.47917 0.895833C9.47917 1.0625 9.4375 1.26042 9.35417 1.47917L6.77083 8.70833C6.67188 8.97396 6.625 9.19792 6.625 9.375C6.625 9.55729 6.67188 9.69792 6.77083 9.79167C6.88021 9.875 7.02083 9.91667 7.1875 9.91667C7.61458 9.91667 8.03125 9.67708 8.4375 9.1875C8.85417 8.70313 9.20833 8.04167 9.5 7.20833ZM3.04167 9.58333C3.26042 9.58333 3.47917 9.53646 3.6875 9.4375C3.90625 9.34375 4.11458 9.16667 4.3125 8.91667C4.52083 8.65625 4.70833 8.28125 4.875 7.79167L6.45833 3.33333C6.48438 3.29167 6.5 3.25 6.5 3.20833C6.51042 3.15625 6.52083 3.09896 6.52083 3.04167C6.52083 2.78125 6.40625 2.54167 6.1875 2.33333C5.96354 2.125 5.69792 2.02083 5.39583 2.02083C5.13021 2.02083 4.88542 2.11458 4.66667 2.29167C4.45833 2.47396 4.29688 2.71875 4.1875 3.02083L2.35417 8.22917C2.28125 8.4375 2.25 8.61979 2.25 8.77083C2.25 9.01042 2.31771 9.20313 2.45833 9.35417C2.59375 9.51042 2.79167 9.58333 3.04167 9.58333Z" fill="#D72333"/>
</svg>
