<svg width="5" height="9" viewBox="0 0 5 9" fill="none" xmlns="http://www.w3.org/2000/svg">
<path d="M4.97917 4.41667C4.97917 4.53125 4.92188 4.58333 4.8125 4.58333H1.1875C1.14583 4.58333 1.125 4.60417 1.125 4.64583V5.79167C1.125 6.23958 1.25 6.60417 1.5 6.89583C1.75 7.17708 2.07292 7.3125 2.47917 7.3125C2.8125 7.3125 3.09375 7.20833 3.33333 7C3.58333 6.79167 3.73958 6.53125 3.8125 6.20833C3.83854 6.11458 3.89583 6.0625 3.97917 6.0625L4.77083 6.08333C4.82292 6.08333 4.86458 6.10417 4.89583 6.14583C4.92188 6.17708 4.92708 6.21875 4.91667 6.27083C4.83333 6.89583 4.57292 7.39063 4.14583 7.75C3.72917 8.11458 3.17187 8.29167 2.47917 8.29167C1.72917 8.29167 1.125 8.07292 0.666667 7.625C0.218749 7.18229 0 6.59896 0 5.875V2.4375C0 1.71875 0.218749 1.13542 0.666667 0.6875C1.125 0.229167 1.72917 0 2.47917 0C3.23958 0 3.84375 0.229167 4.29167 0.6875C4.75 1.13542 4.97917 1.71875 4.97917 2.4375V4.41667ZM2.47917 1C2.07292 1 1.75 1.14063 1.5 1.41667C1.25 1.69792 1.125 2.0625 1.125 2.52083V3.58333C1.125 3.625 1.14583 3.64583 1.1875 3.64583H3.79167C3.83333 3.64583 3.85417 3.625 3.85417 3.58333V2.52083C3.85417 2.0625 3.72917 1.69792 3.47917 1.41667C3.22917 1.14063 2.89583 1 2.47917 1Z" fill="#D72333"/>
</svg>
