<svg width="32" height="38" viewBox="0 0 32 38" fill="none" xmlns="http://www.w3.org/2000/svg">
<mask id="mask0_25_20408" style="mask-type:luminance" maskUnits="userSpaceOnUse" x="0" y="0" width="32" height="38">
<path d="M32 0H0V37.3333H32V0Z" fill="white"/>
</mask>
<g mask="url(#mask0_25_20408)">
<path d="M4.83219 17.2077C4.0249 17.2077 3.37907 16.9473 2.89469 16.416C2.40511 15.89 2.16553 15.2077 2.16553 14.3743V8.62435C2.16553 7.79102 2.40511 7.11393 2.89469 6.58268C3.37907 6.05664 4.0249 5.79102 4.83219 5.79102C5.63428 5.79102 6.29053 6.05664 6.79053 6.58268C7.29053 7.11393 7.54053 7.79102 7.54053 8.62435V14.3743C7.54053 15.2077 7.29053 15.89 6.79053 16.416C6.29053 16.9473 5.63428 17.2077 4.83219 17.2077ZM4.83219 16.2077C5.31657 16.2077 5.69678 16.0514 5.97803 15.7285C6.26969 15.3952 6.41553 14.9681 6.41553 14.4368V8.56185C6.41553 8.03581 6.26969 7.61393 5.97803 7.29102C5.69678 6.95768 5.31657 6.79102 4.83219 6.79102C4.37386 6.79102 3.99886 6.95768 3.70719 7.29102C3.41553 7.61393 3.26969 8.03581 3.26969 8.56185V14.4368C3.26969 14.9681 3.41553 15.3952 3.70719 15.7285C3.99886 16.0514 4.37386 16.2077 4.83219 16.2077Z" fill="#D72333"/>
<path d="M9.85547 17.0202C9.58984 17.0202 9.3763 16.9368 9.20964 16.7702C9.05339 16.5931 8.98047 16.3743 8.98047 16.1243C8.98047 15.8639 9.05339 15.6452 9.20964 15.4785C9.3763 15.3118 9.58984 15.2285 9.85547 15.2285C10.1159 15.2285 10.3346 15.3118 10.5013 15.4785C10.668 15.6452 10.7513 15.8639 10.7513 16.1243C10.7513 16.3743 10.668 16.5931 10.5013 16.7702C10.3346 16.9368 10.1159 17.0202 9.85547 17.0202Z" fill="#D72333"/>
<path d="M13.257 5.99919C13.3247 5.97314 13.3924 5.95752 13.4653 5.95752H14.3195C14.4289 5.95752 14.4862 6.01481 14.4862 6.12419V16.8742C14.4862 16.9888 14.4289 17.0409 14.3195 17.0409H13.507C13.408 17.0409 13.3612 16.9888 13.3612 16.8742V7.29085C13.3612 7.26481 13.3455 7.24919 13.3195 7.24919C13.3039 7.23877 13.2882 7.23877 13.2778 7.24919L11.7987 7.72835L11.7362 7.74919C11.6632 7.74919 11.6164 7.70231 11.5903 7.60335L11.5278 7.02002V6.97835C11.5278 6.93669 11.5591 6.88981 11.632 6.83252L13.257 5.99919Z" fill="#D72333"/>
<path d="M17.4106 15.9784C17.395 16.0096 17.395 16.0304 17.4106 16.0409C17.4211 16.0565 17.4367 16.0617 17.4523 16.0617H21.1815C21.2752 16.0617 21.3273 16.1138 21.3273 16.2075V16.8742C21.3273 16.9888 21.2752 17.0409 21.1815 17.0409H16.2023C16.0877 17.0409 16.0356 16.9888 16.0356 16.8742V16.1659C16.0356 16.0825 16.0565 16.0148 16.0981 15.9575C16.4315 15.4471 16.619 15.1554 16.6606 15.0825C17.5877 13.6138 18.3273 12.4159 18.869 11.4992C19.5356 10.3325 19.869 9.37419 19.869 8.62419C19.869 8.0721 19.744 7.6346 19.494 7.31169C19.244 6.97835 18.9106 6.81169 18.494 6.81169C18.0877 6.81169 17.7648 6.97314 17.5148 7.29085C17.2752 7.61377 17.1606 8.03565 17.1606 8.56169V9.16585C17.1606 9.28044 17.1086 9.33252 17.0148 9.33252H16.1815C16.0825 9.33252 16.0356 9.28044 16.0356 9.16585V8.54085C16.0461 7.72314 16.2856 7.0721 16.744 6.58252C17.2023 6.08252 17.7961 5.83252 18.5356 5.83252C19.2856 5.83252 19.8794 6.09294 20.3273 6.60335C20.7856 7.11898 21.0148 7.79085 21.0148 8.62419C21.0148 9.61377 20.6398 10.7284 19.8898 11.9784C19.5148 12.619 18.9784 13.4784 18.2856 14.5617L17.4106 15.9784Z" fill="#D72333"/>
<path d="M27.4989 12.145C27.6082 12.5356 27.6655 13.0409 27.6655 13.6659C27.6655 14.1398 27.6291 14.5773 27.5614 14.9784C27.4624 15.6867 27.2072 16.2284 26.7905 16.6034C26.3739 16.9784 25.8166 17.1659 25.1239 17.1659C24.4416 17.1659 23.8947 16.9888 23.478 16.6242C23.0614 16.2492 22.7905 15.6971 22.6655 14.9575L22.6239 14.4784V14.4367C22.6239 14.3534 22.6707 14.3117 22.7697 14.3117H23.5822C23.6759 14.3117 23.7332 14.369 23.7489 14.4784L23.7905 14.8534C23.9572 15.744 24.3999 16.1867 25.1239 16.1867C25.4572 16.1867 25.7332 16.0825 25.9572 15.8742C26.1759 15.6554 26.3322 15.3325 26.4155 14.9159C26.4989 14.5825 26.5405 14.1606 26.5405 13.645C26.5405 13.119 26.4884 12.6659 26.3947 12.2909C26.1968 11.5565 25.7749 11.1867 25.1239 11.1867C24.3999 11.1867 23.9468 11.5513 23.7697 12.27C23.728 12.369 23.6655 12.4159 23.5822 12.4159H22.7697C22.6551 12.4159 22.603 12.3638 22.603 12.2492V6.12419C22.603 6.01481 22.6551 5.95752 22.7697 5.95752H27.2489C27.3582 5.95752 27.4155 6.01481 27.4155 6.12419V6.79085C27.4155 6.88981 27.3582 6.93669 27.2489 6.93669H23.7905C23.7489 6.93669 23.728 6.95752 23.728 6.99919L23.7072 10.9367C23.7072 10.9523 23.7124 10.9679 23.728 10.9784C23.7541 10.994 23.7749 10.9888 23.7905 10.9575C23.9572 10.7075 24.1759 10.52 24.4572 10.395C24.7489 10.2596 25.0666 10.1867 25.4155 10.1867C25.9676 10.1867 26.4259 10.3638 26.7905 10.7075C27.1499 11.0409 27.3843 11.52 27.4989 12.145Z" fill="#D72333"/>
<path d="M29.2601 17.0409C29.1611 17.0409 29.1143 16.9888 29.1143 16.8742V6.12419C29.1143 6.01481 29.1611 5.95752 29.2601 5.95752H30.0726C30.182 5.95752 30.2393 6.01481 30.2393 6.12419V16.8742C30.2393 16.9888 30.182 17.0409 30.0726 17.0409H29.2601Z" fill="#D72333"/>
<path d="M4.83219 34.0446C4.0249 34.0446 3.37907 33.7842 2.89469 33.2529C2.40511 32.7269 2.16553 32.0446 2.16553 31.2113V25.4613C2.16553 24.6279 2.40511 23.9508 2.89469 23.4196C3.37907 22.8936 4.0249 22.6279 4.83219 22.6279C5.63428 22.6279 6.29053 22.8936 6.79053 23.4196C7.29053 23.9508 7.54053 24.6279 7.54053 25.4613V31.2113C7.54053 32.0446 7.29053 32.7269 6.79053 33.2529C6.29053 33.7842 5.63428 34.0446 4.83219 34.0446ZM4.83219 33.0446C5.31657 33.0446 5.69678 32.8883 5.97803 32.5654C6.26969 32.2321 6.41553 31.805 6.41553 31.2738V25.3988C6.41553 24.8727 6.26969 24.4508 5.97803 24.1279C5.69678 23.7946 5.31657 23.6279 4.83219 23.6279C4.37386 23.6279 3.99886 23.7946 3.70719 24.1279C3.41553 24.4508 3.26969 24.8727 3.26969 25.3988V31.2738C3.26969 31.805 3.41553 32.2321 3.70719 32.5654C3.99886 32.8883 4.37386 33.0446 4.83219 33.0446Z" fill="#D72333"/>
<path d="M9.85547 33.8571C9.58984 33.8571 9.3763 33.7738 9.20964 33.6071C9.05339 33.43 8.98047 33.2113 8.98047 32.9613C8.98047 32.7008 9.05339 32.4821 9.20964 32.3154C9.3763 32.1488 9.58984 32.0654 9.85547 32.0654C10.1159 32.0654 10.3346 32.1488 10.5013 32.3154C10.668 32.4821 10.7513 32.7008 10.7513 32.9613C10.7513 33.2113 10.668 33.43 10.5013 33.6071C10.3346 33.7738 10.1159 33.8571 9.85547 33.8571Z" fill="#D72333"/>
<path d="M13.3608 32.8153C13.3452 32.8465 13.3452 32.8674 13.3608 32.8778C13.3713 32.8934 13.3869 32.8986 13.4025 32.8986H17.1317C17.2254 32.8986 17.2775 32.9507 17.2775 33.0444V33.7111C17.2775 33.8257 17.2254 33.8778 17.1317 33.8778H12.1525C12.0379 33.8778 11.9858 33.8257 11.9858 33.7111V33.0028C11.9858 32.9194 12.0067 32.8517 12.0483 32.7944C12.3817 32.284 12.5692 31.9924 12.6108 31.9194C13.5379 30.4507 14.2775 29.2528 14.8192 28.3361C15.4858 27.1694 15.8192 26.2111 15.8192 25.4611C15.8192 24.909 15.6942 24.4715 15.4442 24.1486C15.1942 23.8153 14.8608 23.6486 14.4442 23.6486C14.0379 23.6486 13.715 23.8101 13.465 24.1278C13.2254 24.4507 13.1108 24.8726 13.1108 25.3986V26.0028C13.1108 26.1174 13.0588 26.1694 12.965 26.1694H12.1317C12.0327 26.1694 11.9858 26.1174 11.9858 26.0028V25.3778C11.9963 24.5601 12.2358 23.909 12.6942 23.4194C13.1525 22.9194 13.7463 22.6694 14.4858 22.6694C15.2358 22.6694 15.8296 22.9298 16.2775 23.4403C16.7358 23.9559 16.965 24.6278 16.965 25.4611C16.965 26.4507 16.59 27.5653 15.84 28.8153C15.465 29.4559 14.9285 30.3153 14.2358 31.3986L13.3608 32.8153Z" fill="#D72333"/>
<path d="M23.4491 28.9819C23.5584 29.3726 23.6157 29.8778 23.6157 30.5028C23.6157 30.9767 23.5793 31.4142 23.5116 31.8153C23.4126 32.5236 23.1574 33.0653 22.7407 33.4403C22.3241 33.8153 21.7668 34.0028 21.0741 34.0028C20.3918 34.0028 19.8449 33.8257 19.4282 33.4611C19.0116 33.0861 18.7407 32.534 18.6157 31.7944L18.5741 31.3153V31.2736C18.5741 31.1903 18.6209 31.1486 18.7199 31.1486H19.5324C19.6261 31.1486 19.6834 31.2059 19.6991 31.3153L19.7407 31.6903C19.9074 32.5809 20.3501 33.0236 21.0741 33.0236C21.4074 33.0236 21.6834 32.9194 21.9074 32.7111C22.1261 32.4924 22.2824 32.1694 22.3657 31.7528C22.4491 31.4194 22.4907 30.9976 22.4907 30.4819C22.4907 29.9559 22.4386 29.5028 22.3449 29.1278C22.147 28.3934 21.7251 28.0236 21.0741 28.0236C20.3501 28.0236 19.897 28.3882 19.7199 29.1069C19.6782 29.2059 19.6157 29.2528 19.5324 29.2528H18.7199C18.6053 29.2528 18.5532 29.2007 18.5532 29.0861V22.9611C18.5532 22.8517 18.6053 22.7944 18.7199 22.7944H23.1991C23.3084 22.7944 23.3657 22.8517 23.3657 22.9611V23.6278C23.3657 23.7267 23.3084 23.7736 23.1991 23.7736H19.7407C19.6991 23.7736 19.6782 23.7944 19.6782 23.8361L19.6574 27.7736C19.6574 27.7892 19.6626 27.8048 19.6782 27.8153C19.7043 27.8309 19.7251 27.8257 19.7407 27.7944C19.9074 27.5444 20.1261 27.3569 20.4074 27.2319C20.6991 27.0965 21.0168 27.0236 21.3657 27.0236C21.9178 27.0236 22.3761 27.2007 22.7407 27.5444C23.1001 27.8778 23.3345 28.3569 23.4491 28.9819Z" fill="#D72333"/>
<path d="M25.2108 33.8778C25.1118 33.8778 25.0649 33.8257 25.0649 33.7111V22.9611C25.0649 22.8517 25.1118 22.7944 25.2108 22.7944H26.0233C26.1326 22.7944 26.1899 22.8517 26.1899 22.9611V33.7111C26.1899 33.8257 26.1326 33.8778 26.0233 33.8778H25.2108Z" fill="#D72333"/>
</g>
</svg>
