<svg width="7" height="12" viewBox="0 0 7 12" fill="none" xmlns="http://www.w3.org/2000/svg">
<path d="M3.1875 11.2917C2.22917 11.2917 1.45833 10.9948 0.875 10.3958C0.291667 9.80208 0 9 0 8V0.1875C0 0.135416 0.0208333 0.0937493 0.0625 0.0625C0.104167 0.0208333 0.151041 0 0.208333 0H2.0625C2.11458 0 2.15625 0.0208333 2.1875 0.0625C2.22917 0.0937493 2.25 0.135416 2.25 0.1875V8.20833C2.25 8.55729 2.33333 8.83333 2.5 9.04167C2.67708 9.25 2.90625 9.35417 3.1875 9.35417C3.46354 9.35417 3.6875 9.25 3.85417 9.04167C4.02083 8.83333 4.10417 8.55729 4.10417 8.20833V0.1875C4.10417 0.135416 4.11458 0.0937493 4.14583 0.0625C4.1875 0.0208333 4.23438 0 4.29167 0H6.14583C6.19792 0 6.25 0.0208333 6.29167 0.0625C6.33333 0.0937493 6.35417 0.135416 6.35417 0.1875V8C6.35417 9 6.0625 9.80208 5.47917 10.3958C4.89583 10.9948 4.13021 11.2917 3.1875 11.2917Z" fill="#D72333"/>
</svg>
