<svg width="6" height="12" viewBox="0 0 6 12" fill="none" xmlns="http://www.w3.org/2000/svg">
<path d="M5.08333 8.64583C5.08333 9.46875 4.84375 10.125 4.375 10.625C3.91667 11.1146 3.30208 11.3542 2.54167 11.3542C1.84375 11.3542 1.27083 11.1042 0.8125 10.6042C0.364583 10.1042 0.145833 9.45313 0.145833 8.64583V8.39583C0.145833 8.28646 0.197916 8.22917 0.3125 8.22917H1.125C1.23437 8.22917 1.29167 8.28646 1.29167 8.39583V8.60417C1.29167 9.11979 1.40625 9.53646 1.64583 9.85417C1.89583 10.1771 2.19271 10.3333 2.54167 10.3333C2.95833 10.3333 3.29167 10.1823 3.54167 9.875C3.80208 9.55729 3.9375 9.13542 3.9375 8.60417V6.47917C3.9375 6.46875 3.92708 6.45833 3.91667 6.45833C3.90104 6.44792 3.88021 6.44792 3.85417 6.45833C3.69792 6.68229 3.50521 6.84896 3.27083 6.95833C3.04687 7.07292 2.79167 7.125 2.5 7.125C1.85937 7.125 1.33333 6.93229 0.916667 6.54167C0.5 6.14063 0.234375 5.59896 0.125 4.91667C0.0416667 4.48958 0 4.01563 0 3.5C0 3.04167 0.0208333 2.65625 0.0625 2.33333C0.145833 1.57292 0.401041 0.994792 0.833333 0.604167C1.26042 0.203125 1.83333 0 2.54167 0C3.19271 0 3.72917 0.1875 4.14583 0.5625C4.57292 0.927084 4.84375 1.46875 4.95833 2.1875C5.02604 2.52083 5.0625 2.9375 5.0625 3.4375L5.08333 8.64583ZM2.54167 6.125C3.21875 6.125 3.65104 5.70833 3.83333 4.875C3.90104 4.54167 3.9375 4.11458 3.9375 3.58333C3.9375 3.08333 3.90625 2.66667 3.85417 2.33333C3.67187 1.43229 3.23437 0.979167 2.54167 0.979167C2.17708 0.979167 1.88021 1.10417 1.64583 1.35417C1.42187 1.59375 1.27604 1.94792 1.20833 2.41667C1.15104 2.84896 1.125 3.23958 1.125 3.58333C1.125 4.05729 1.17187 4.51042 1.27083 4.9375C1.35417 5.32813 1.5 5.625 1.70833 5.83333C1.92708 6.03125 2.20833 6.125 2.54167 6.125Z" fill="#D72333"/>
</svg>
