<svg width="7" height="12" viewBox="0 0 7 12" fill="none" xmlns="http://www.w3.org/2000/svg">
<path d="M6.52083 0C6.57292 0 6.61458 0.0208333 6.64583 0.0625C6.6875 0.0937493 6.70833 0.135416 6.70833 0.1875V1.72917C6.70833 1.78646 6.6875 1.83333 6.64583 1.875C6.61458 1.90625 6.57292 1.91667 6.52083 1.91667H4.52083C4.46354 1.91667 4.4375 1.94792 4.4375 2V10.9792C4.4375 11.0365 4.41667 11.0833 4.375 11.125C4.34375 11.1562 4.30208 11.1667 4.25 11.1667H2.39583C2.33854 11.1667 2.29167 11.1562 2.25 11.125C2.20833 11.0833 2.1875 11.0365 2.1875 10.9792V2C2.1875 1.94792 2.15625 1.91667 2.10417 1.91667H0.208333C0.151041 1.91667 0.104167 1.90625 0.0625 1.875C0.0208333 1.83333 0 1.78646 0 1.72917V0.1875C0 0.135416 0.0208333 0.0937493 0.0625 0.0625C0.104167 0.0208333 0.151041 0 0.208333 0H6.52083Z" fill="#D72333"/>
</svg>
