<svg width="17" height="20" viewBox="0 0 17 20" fill="none" xmlns="http://www.w3.org/2000/svg">
<path d="M0 15.298L0.0625 14.8396L0.333333 14.3188C0.208333 14.0167 0.156249 13.7094 0.1875 13.4021C0.229167 13.0844 0.270833 12.7771 0.3125 12.4855C0.354167 12.1261 0.359375 11.7876 0.333333 11.4646C0.302084 11.1469 0.291667 10.8136 0.291667 10.4646C0.291667 10.173 0.260417 9.89173 0.208333 9.61048C0.166667 9.33444 0.145833 9.04277 0.145833 8.73548C0.114583 8.44382 0.135417 8.16777 0.208333 7.90215C0.291667 7.62611 0.302084 7.33444 0.25 7.02715C0.416667 6.89173 0.489583 6.70944 0.479167 6.48548C0.463541 6.26673 0.421875 6.03756 0.354167 5.79798C0.281249 5.56361 0.239583 5.35527 0.229167 5.17298C0.213541 4.95423 0.234375 4.73548 0.291667 4.52715C0.343751 4.3084 0.375 4.08444 0.375 3.86048C0.375 3.60007 0.359375 3.35007 0.333333 3.11048C0.302084 2.86048 0.276041 2.6209 0.25 2.38131L0.0625 2.25631C0.130208 1.9959 0.192708 1.75111 0.25 1.52715C0.302084 1.3084 0.322916 1.07923 0.3125 0.839648C0.296875 0.704231 0.343751 0.589648 0.458333 0.506315C0.541667 0.422981 0.614583 0.355273 0.6875 0.297981C0.770833 0.245897 0.859375 0.204231 0.958333 0.172981C1.09375 0.120897 1.23958 0.14694 1.39583 0.256315C1.4375 0.313607 1.53125 0.355273 1.6875 0.381315C1.90625 0.381315 2.17187 0.376107 2.47917 0.360481C2.78125 0.350065 3.02604 0.27194 3.20833 0.131315C3.34375 0.0479813 3.48437 0.037564 3.625 0.089648C3.92708 0.214648 4.27083 0.256315 4.64583 0.214648C4.75521 0.204231 4.85417 0.225065 4.9375 0.277148L5.39583 0.631315C5.52083 0.77194 5.55208 0.922981 5.5 1.08965L5.45833 1.31881C5.41667 1.40215 5.41667 1.4959 5.45833 1.58965C5.56771 1.85527 5.65104 2.10007 5.70833 2.31881C5.76042 2.52715 5.77083 2.78756 5.72917 3.08965L5.375 3.25631L5.625 3.48548C5.58333 3.79277 5.57292 4.11048 5.60417 4.44381C5.63021 4.76673 5.60938 5.07923 5.54167 5.38131C5.45833 5.68861 5.42188 5.93861 5.4375 6.13131C5.44792 6.32923 5.5 6.58444 5.58333 6.90215L5.64583 6.92298C5.57292 7.20423 5.52604 7.44381 5.5 7.65215C5.48438 7.86048 5.48438 8.11048 5.5 8.40215L5.97917 8.86048C6.39583 8.76673 6.80208 8.70423 7.20833 8.67298C7.625 8.63132 8.03125 8.58965 8.4375 8.54798C8.65625 8.53756 8.91667 8.53756 9.20833 8.54798C9.51042 8.54798 9.71354 8.6834 9.8125 8.94382C10.1302 8.90215 10.4167 8.85527 10.6667 8.79798C10.9167 8.7459 11.1719 8.65215 11.4375 8.52715C11.6146 7.77715 11.625 7.00111 11.4583 6.19381C11.4167 6.02715 11.375 5.8709 11.3333 5.71465C11.2917 5.54798 11.276 5.38131 11.2917 5.21465C11.3021 5.04798 11.3229 4.89173 11.3542 4.73548C11.3802 4.56881 11.3542 4.40215 11.2708 4.23548L11.6042 3.56881C11.4375 3.16777 11.3802 2.76673 11.4375 2.36048C11.4896 1.94381 11.4896 1.52715 11.4375 1.11048C11.3958 0.818815 11.4844 0.579231 11.7083 0.381315C11.9271 0.188607 12.1719 0.131315 12.4375 0.214648L12.875 0.339648C13.0833 0.39694 13.276 0.376107 13.4583 0.277148C13.9271 0.016732 14.4062 -0.0613934 14.8958 0.0479813C15.3802 0.162564 15.8385 0.350065 16.2708 0.610481C16.4896 0.725065 16.6146 0.933399 16.6458 1.23548C16.6458 1.3084 16.6562 1.37611 16.6875 1.44381C16.7135 1.50111 16.7396 1.56881 16.7708 1.65215C16.8542 1.83444 16.8646 2.02715 16.8125 2.23548C16.6979 2.5584 16.6354 2.85527 16.625 3.13131C16.6094 3.41256 16.6667 3.72507 16.7917 4.06881C16.6354 4.31881 16.5521 4.57923 16.5417 4.83965C16.526 5.08965 16.526 5.35527 16.5417 5.63131C16.5833 5.98027 16.5885 6.31881 16.5625 6.65215C16.5469 6.97507 16.5677 7.29798 16.625 7.63131C16.6667 7.96465 16.6771 8.28756 16.6667 8.58965C16.651 8.89694 16.6302 9.21465 16.6042 9.54798C16.5625 9.85527 16.5677 10.1469 16.625 10.423C16.6771 10.7042 16.7396 10.9855 16.8125 11.2771L16.5625 11.5688C16.6042 11.7094 16.6354 11.8709 16.6667 12.048C16.7083 12.2146 16.7188 12.3813 16.7083 12.548C16.7083 12.6886 16.6771 12.8344 16.625 12.9855C16.5677 13.1417 16.5208 13.2928 16.4792 13.4438C16.4062 13.7511 16.3802 14.0792 16.3958 14.423C16.4219 14.7719 16.4635 15.1053 16.5208 15.423C16.5729 15.7459 16.651 16.1001 16.75 16.4855C16.8438 16.8605 16.8958 17.2303 16.8958 17.5896C16.8958 17.9542 16.7708 18.2771 16.5208 18.5688L16.7917 19.1521L16.5625 19.5896C16.5312 19.673 16.4635 19.7303 16.3542 19.7563C16.2552 19.7719 16.1719 19.7459 16.1042 19.673C15.7552 19.7876 15.4062 19.8292 15.0625 19.798C14.7292 19.7719 14.3958 19.7719 14.0625 19.798C13.8958 19.8292 13.7188 19.8553 13.5417 19.8813C13.375 19.9074 13.2083 19.923 13.0417 19.923C12.8594 19.8917 12.6771 19.8605 12.5 19.8188C12.3177 19.7771 12.1354 19.7667 11.9583 19.7771C11.7188 19.4438 11.5312 19.1261 11.3958 18.8188C11.2708 18.5167 11.1667 18.1521 11.0833 17.7355L11.5417 17.3188L11.2708 16.9646C11.2969 16.423 11.3125 15.8917 11.3125 15.3605C11.3125 14.8188 11.3385 14.2928 11.3958 13.7771C11.4479 13.3501 11.4792 12.923 11.4792 12.5063C11.4792 12.0792 11.3333 11.6886 11.0417 11.3396C10.8438 11.4646 10.6458 11.5063 10.4375 11.4646C10.2396 11.423 10.0469 11.3917 9.85417 11.3605C9.61458 11.3501 9.38021 11.3553 9.14583 11.3813C8.92188 11.3969 8.6875 11.4126 8.4375 11.423C8.25521 11.423 8.0625 11.4178 7.85417 11.4021C7.64583 11.3761 7.4375 11.3761 7.22917 11.4021C7.04688 11.4178 6.84375 11.4438 6.625 11.4855C6.40104 11.5167 6.19271 11.4959 6 11.423C5.75 11.6469 5.58333 11.9126 5.5 12.2146C5.41667 12.5219 5.375 12.8344 5.375 13.1521C5.375 13.5688 5.36458 14.0011 5.35417 14.4438C5.33854 14.8761 5.35417 15.3084 5.39583 15.7355C5.40625 16.0844 5.44792 16.4386 5.52083 16.798C5.58854 17.1469 5.60417 17.5063 5.5625 17.8813C5.50521 18.3292 5.39583 18.7511 5.22917 19.1521C5.15625 19.3605 5.02604 19.5376 4.83333 19.673C4.65104 19.798 4.44792 19.8553 4.22917 19.8396C3.75521 19.798 3.28125 19.8084 2.8125 19.8605C2.33854 19.9126 1.88021 19.9021 1.4375 19.8188C1.00521 19.7251 0.609375 19.4594 0.25 19.0271C0.302084 18.7251 0.3125 18.4438 0.270833 18.1938C0.229167 17.9438 0.1875 17.6834 0.145833 17.4021C0.104167 17.0844 0.0937507 16.7667 0.125 16.4438C0.151041 16.1105 0.166667 15.7876 0.166667 15.4646L0 15.298Z" fill="#D72333"/>
</svg>
