<svg width="4" height="8" viewBox="0 0 4 8" fill="none" xmlns="http://www.w3.org/2000/svg">
<path d="M0.104167 7.45833C0.0312493 7.45833 0 7.42708 0 7.35417V0.104167C0 0.0364587 0.0312493 0 0.104167 0H0.645833C0.713541 0 0.75 0.0364587 0.75 0.104167V4.39583C0.75 4.41146 0.755208 4.42708 0.770833 4.4375C0.781249 4.4375 0.796875 4.43229 0.8125 4.41667L2.41667 2.125C2.44271 2.08333 2.48437 2.0625 2.54167 2.0625H3.08333C3.125 2.0625 3.15104 2.07813 3.16667 2.10417C3.17708 2.13542 3.17187 2.16667 3.14583 2.20833L2.10417 3.70833C2.07292 3.73958 2.06771 3.76042 2.08333 3.77083L3.35417 7.33333V7.375C3.35417 7.43229 3.32292 7.45833 3.27083 7.45833H2.6875C2.63021 7.45833 2.58854 7.43229 2.5625 7.375L1.625 4.41667C1.60937 4.375 1.58854 4.36979 1.5625 4.39583L0.770833 5.5C0.755208 5.53125 0.75 5.55208 0.75 5.5625V7.35417C0.75 7.42708 0.713541 7.45833 0.645833 7.45833H0.104167Z" fill="#D72333"/>
</svg>
