<svg width="6" height="21" viewBox="0 0 6 21" fill="none" xmlns="http://www.w3.org/2000/svg">
<path d="M2.83333 0C3.21875 0.0312507 3.59375 0.0520827 3.95833 0.0625C4.31771 0.0625 4.67708 0.0833333 5.04167 0.125C5.21875 0.140625 5.35938 0.223959 5.45833 0.375C5.56771 0.515625 5.61458 0.666667 5.60417 0.833333L5.6875 0.9375C5.69792 1.30208 5.69792 1.66146 5.6875 2.02083C5.6875 2.38542 5.67188 2.75 5.64583 3.125C5.64583 3.43229 5.60417 3.72917 5.52083 4.02083C5.44792 4.30208 5.4375 4.58333 5.47917 4.875C5.48958 5.03125 5.51042 5.17708 5.54167 5.3125C5.58333 5.45313 5.60417 5.61458 5.60417 5.79167C5.57292 5.93229 5.54167 6.0625 5.5 6.1875C5.46875 6.30208 5.44271 6.43229 5.41667 6.58333C5.40104 6.91667 5.44271 7.24479 5.54167 7.5625C5.65104 7.86979 5.73438 8.1875 5.79167 8.52083L5.625 8.6875C5.63542 8.89583 5.63542 9.13542 5.625 9.39583C5.625 9.66146 5.69271 9.89583 5.83333 10.1042C5.69271 10.5208 5.625 10.9479 5.625 11.375C5.625 11.8073 5.63021 12.2448 5.64583 12.6875C5.67188 13.1771 5.63021 13.6458 5.52083 14.1042C5.42188 14.5625 5.35938 15.0313 5.33333 15.5L5.70833 15.6458C5.56771 15.9531 5.48438 16.25 5.45833 16.5417C5.42708 16.8333 5.52604 17.1354 5.75 17.4375C5.56771 17.9531 5.47917 18.4375 5.47917 18.8958C5.47917 19.4115 5.21875 19.7656 4.70833 19.9583C4.45833 20.0417 4.19792 20.0938 3.9375 20.1042C3.6875 20.1042 3.42187 20.099 3.14583 20.0833C2.96354 20.0417 2.80208 20.0417 2.66667 20.0833C2.52604 20.1146 2.35937 20.1615 2.16667 20.2292C1.91667 20.2969 1.67708 20.3021 1.45833 20.25C1.25 20.2083 1.02604 20.2083 0.791667 20.25L0.104167 19.5833C0.145833 19.224 0.145833 18.8646 0.104167 18.5C0.0625 18.1406 0.109375 17.7865 0.25 17.4375C0.0833333 17.1042 0.0104173 16.7604 0.0416667 16.3958C0.0833333 16.0365 0.130208 15.6823 0.1875 15.3333C0.270833 14.9167 0.296875 14.5156 0.270833 14.125C0.239583 13.724 0.208333 13.3229 0.166667 12.9167C0.125 12.5313 0.130208 12.1563 0.1875 11.7917C0.239583 11.4323 0.260417 11.0729 0.25 10.7083C0.234375 10.2656 0.213541 9.83333 0.1875 9.41667C0.171875 8.98958 0.114583 8.5625 0.0208333 8.14583L0.1875 7.89583C0.072916 7.64583 0.0208333 7.41146 0.0208333 7.1875C0.0312493 6.96875 0.052084 6.72917 0.0833333 6.47917C0.109375 6.16146 0.104167 5.84896 0.0625 5.54167C0.0312493 5.22396 0.0104173 4.91146 0 4.60417L0.125 4.5C0.0416667 3.89063 0.0260413 3.30208 0.0833333 2.72917C0.135417 2.14583 0.125 1.55729 0.0416667 0.958333C0.0104173 0.765625 0.072916 0.614584 0.229167 0.5C0.588541 0.140625 1.02083 0.010416 1.52083 0.104167C1.78125 0.119792 2.03125 0.135416 2.27083 0.145833C2.50521 0.145833 2.69271 0.0989587 2.83333 0Z" fill="#D72333"/>
</svg>
