<svg width="17" height="21" viewBox="0 0 17 21" fill="none" xmlns="http://www.w3.org/2000/svg">
<path d="M3.25 11.0286H2.95833L3.25 11.8828C3.19271 12.0234 3.13021 12.1484 3.0625 12.2578C2.98958 12.3724 2.94271 12.5026 2.91667 12.6536C2.88542 12.8359 2.90625 13.0078 2.97917 13.1745C3.04688 13.3307 3.10417 13.4818 3.14583 13.6328L2.9375 13.8411C3.14583 14.3411 3.23438 14.8516 3.20833 15.362C3.19271 15.8776 3.15104 16.3984 3.08333 16.9245C3.02604 17.4557 3.01042 17.9818 3.04167 18.5078C3.08333 18.7891 3.08854 19.0703 3.0625 19.362C3.04688 19.6536 2.91667 19.9141 2.66667 20.1328C2.44271 20.3411 2.17708 20.4661 1.875 20.5078C1.58333 20.5599 1.27604 20.5807 0.958333 20.5703C0.817708 20.5703 0.697916 20.513 0.604167 20.4036L0.229167 19.9453C0.104167 19.7786 0.0833333 19.6068 0.166667 19.4245C0.234375 19.2891 0.234375 19.1641 0.166667 19.0495L0 18.5911C0.151041 18.2161 0.276041 17.8307 0.375 17.4245C0.484375 17.0234 0.484375 16.6276 0.375 16.237C0.302084 15.8516 0.208333 15.5182 0.0833333 15.237C-0.0312493 14.9609 0.0468747 14.6432 0.3125 14.2786C0.1875 13.9766 0.151041 13.6536 0.208333 13.3203C0.276041 12.9766 0.234375 12.6745 0.0833333 12.4245L0.375 11.737L0.0416667 11.3411C0.192708 10.8984 0.25 10.4609 0.208333 10.0286C0.177084 9.60156 0.130208 9.16927 0.0625 8.73698C0.005208 8.29427 0.005208 7.83594 0.0625 7.36198C0.072916 7.21094 0.109375 7.0599 0.166667 6.90365C0.234375 6.7526 0.276041 6.60156 0.291667 6.44531C0.333333 6.23698 0.333333 6.0599 0.291667 5.90365C0.25 5.7526 0.208333 5.58073 0.166667 5.38281C0.0937507 5.00781 0.0625 4.6276 0.0625 4.23698C0.0625 3.83594 0.052084 3.45573 0.0416667 3.09115L0.291667 2.88281C0.276041 2.6224 0.255208 2.35156 0.229167 2.07031C0.213541 1.79427 0.234375 1.52865 0.291667 1.27865C0.333333 1.1276 0.380208 0.976562 0.4375 0.820312C0.489583 0.669271 0.5625 0.523438 0.645833 0.382812C0.770833 0.0911458 0.984375 -0.0338542 1.29167 0.0078125C1.52604 0.0390632 1.75521 0.0598952 1.97917 0.0703125C2.21354 0.0703125 2.44271 0.0703125 2.66667 0.0703125C2.84375 0.0703125 3.00521 0.122396 3.14583 0.216146C3.29688 0.372396 3.45833 0.424479 3.625 0.382812C3.94271 0.372396 4.25521 0.33073 4.5625 0.257812C4.88021 0.190104 5.19271 0.153646 5.5 0.153646C5.71875 0.153646 5.90104 0.252605 6.04167 0.445312C6.45833 1.04427 6.875 1.66406 7.29167 2.29948C7.70833 2.92448 8.04688 3.57031 8.3125 4.23698C8.44792 4.54427 8.57292 4.85156 8.6875 5.15365C8.79688 5.44531 8.98958 5.70573 9.27083 5.92448C9.57292 6.17448 9.79167 6.41927 9.91667 6.65365C10.0417 6.89323 10.1771 7.1901 10.3333 7.54948H10.4583C10.5417 7.7474 10.6458 7.92448 10.7708 8.09115C10.9063 8.2474 11.0208 8.41927 11.1042 8.61198C11.1719 8.8099 11.2135 9.0026 11.2292 9.19531C11.2552 9.3776 11.3177 9.5651 11.4167 9.75781C11.625 10.0651 11.875 10.3203 12.1667 10.5286C12.4583 10.737 12.6354 11.0443 12.7083 11.4453C12.8594 11.5286 12.9896 11.6068 13.1042 11.6745C13.2292 11.7474 13.375 11.7943 13.5417 11.8203C13.401 11.5182 13.3542 11.1953 13.3958 10.862C13.4479 10.5182 13.4427 10.1745 13.375 9.84115L13.4583 9.73698C13.3594 9.35156 13.3385 8.96094 13.3958 8.57031C13.4479 8.16927 13.4896 7.76823 13.5208 7.36198C13.5625 6.9349 13.5313 6.4974 13.4375 6.04948C13.3542 5.60677 13.3646 5.16927 13.4792 4.73698C13.6302 4.10156 13.6302 3.47656 13.4792 2.86198C13.3802 2.40365 13.3646 1.98177 13.4375 1.59115C13.5052 1.1901 13.6875 0.835938 13.9792 0.528646C14.0729 0.419271 14.1979 0.361979 14.3542 0.361979C14.5625 0.335938 14.7552 0.315105 14.9375 0.299479C15.1146 0.289063 15.3021 0.257812 15.5 0.216146C15.7083 0.164063 15.8854 0.236979 16.0417 0.445312C16.2344 0.736979 16.3802 1.01823 16.4792 1.27865C16.5469 1.41927 16.5417 1.57031 16.4583 1.73698C16.375 1.8776 16.3594 2.02865 16.4167 2.19531C16.5521 2.5026 16.5833 2.82031 16.5 3.15365C16.4271 3.47656 16.3802 3.79948 16.3542 4.13281C16.3385 4.28906 16.3438 4.4401 16.375 4.59115C16.401 4.7474 16.4271 4.89844 16.4583 5.04948C16.4688 5.25781 16.4635 5.46094 16.4375 5.65365C16.4063 5.83594 16.375 6.03906 16.3333 6.25781C16.3177 6.59115 16.3385 6.9349 16.3958 7.27865C16.4635 7.6276 16.5104 7.97656 16.5417 8.32031C16.5521 8.52865 16.5313 8.73698 16.4792 8.94531C16.4375 9.14323 16.4063 9.34115 16.3958 9.54948C16.3958 9.78906 16.4219 10.0078 16.4792 10.2161C16.5469 10.4245 16.6042 10.6328 16.6458 10.8411L16.3958 11.112C16.4375 11.3776 16.5 11.6484 16.5833 11.9245C16.6667 12.1901 16.6979 12.4661 16.6875 12.7578C16.6563 12.9974 16.6094 13.2474 16.5417 13.5078C16.4844 13.7734 16.4219 14.0286 16.3542 14.2786C16.2813 14.6953 16.2344 15.1432 16.2083 15.612C16.1771 16.0859 16.2917 16.5026 16.5417 16.862C16.4167 17.2266 16.3854 17.5911 16.4583 17.9661C16.5417 18.3307 16.5677 18.6953 16.5417 19.0703C16.5104 19.4036 16.4063 19.6693 16.2292 19.862C16.0469 20.0443 15.8333 20.2266 15.5833 20.4036L15.25 20.2786C14.9583 20.4557 14.7344 20.5339 14.5833 20.5078C14.4427 20.4922 14.2188 20.4141 13.9167 20.2578C13.5104 20.3828 13.0938 20.4453 12.6667 20.4453C12.25 20.4453 11.8594 20.3151 11.5 20.0495C11.2344 19.8411 11.0104 19.5807 10.8333 19.2578C10.651 18.9401 10.4063 18.6901 10.1042 18.5078C10.0729 18.0234 9.94271 17.5391 9.70833 17.0495C9.48438 16.5651 9.15104 16.2109 8.70833 15.987C8.60938 15.7266 8.47917 15.4661 8.3125 15.2161C8.14583 14.9661 8 14.7109 7.875 14.4453C7.84375 14.3099 7.81771 14.1693 7.79167 14.0286C7.77604 13.8932 7.72917 13.7578 7.64583 13.6328C7.57292 13.5078 7.46354 13.4141 7.3125 13.3411C7.17188 13.2578 7.03125 13.1745 6.89583 13.0911C6.77083 12.3724 6.5 11.7057 6.08333 11.0911C5.66667 10.4661 5.21875 9.86198 4.75 9.27865C4.29167 8.6849 3.89583 8.08073 3.5625 7.46615C3.3125 7.5651 3.13542 7.76823 3.04167 8.07031C2.95833 8.3776 2.91667 8.72656 2.91667 9.11198C2.92708 9.5026 2.96875 9.8776 3.04167 10.237C3.10938 10.5859 3.17708 10.8516 3.25 11.0286Z" fill="#D72333"/>
</svg>
