<svg width="7" height="13" viewBox="0 0 7 13" fill="none" xmlns="http://www.w3.org/2000/svg">
<path d="M0.166667 12.1667C0.0520827 12.1667 0 12.1146 0 12V0.1875C0 0.0625 0.0520827 0 0.166667 0H1.0625C1.17187 0 1.22917 0.0625 1.22917 0.1875V5.8125C1.22917 5.84375 1.23958 5.86458 1.27083 5.875C1.29687 5.89063 1.3125 5.875 1.3125 5.83333L4.66667 0.125C4.73438 0.0416667 4.80208 0 4.875 0H5.85417C5.92188 0 5.96354 0.0208333 5.97917 0.0625C6.00521 0.104167 6.00521 0.156251 5.97917 0.208333L3.27083 4.91667C3.23958 4.97396 3.23437 5.01042 3.25 5.02083L6.22917 11.9583L6.25 12.0208C6.25 12.1198 6.19792 12.1667 6.10417 12.1667H5.10417C5.02083 12.1667 4.95833 12.1198 4.91667 12.0208L2.41667 6.125C2.40104 6.07292 2.375 6.07292 2.33333 6.125L1.25 7.79167C1.23437 7.80729 1.22917 7.83333 1.22917 7.875V12C1.22917 12.1146 1.17187 12.1667 1.0625 12.1667H0.166667Z" fill="#D72333"/>
</svg>
