<svg width="4" height="8" viewBox="0 0 4 8" fill="none" xmlns="http://www.w3.org/2000/svg">
<path d="M2.60417 0C2.86458 0 3.08854 0.057292 3.27083 0.166667C3.33854 0.208333 3.36458 0.281249 3.35417 0.375L3.16667 1.16667C3.15104 1.25 3.08854 1.28125 2.97917 1.25C2.85417 1.19792 2.69792 1.16667 2.52083 1.16667C2.4375 1.16667 2.375 1.16667 2.33333 1.16667C1.96875 1.19792 1.67187 1.39063 1.4375 1.75C1.19792 2.11458 1.08333 2.55208 1.08333 3.0625V7.66667C1.08333 7.76563 1.03125 7.8125 0.9375 7.8125H0.145833C0.0468747 7.8125 0 7.76563 0 7.66667V0.229167C0 0.135417 0.0468747 0.0833333 0.145833 0.0833333H0.9375C1.03125 0.0833333 1.08333 0.135417 1.08333 0.229167V1.14583C1.08333 1.17708 1.08854 1.1875 1.10417 1.1875C1.11458 1.1875 1.13542 1.18229 1.16667 1.16667C1.45833 0.390625 1.9375 0 2.60417 0Z" fill="#D72333"/>
</svg>
