<svg width="6" height="12" viewBox="0 0 6 12" fill="none" xmlns="http://www.w3.org/2000/svg">
<path d="M2.66667 11.4167C1.88542 11.4167 1.25 11.1615 0.75 10.6458C0.260417 10.1198 0.0208333 9.4375 0.0208333 8.60417V8.22917C0.0208333 8.11979 0.072916 8.0625 0.1875 8.0625H0.958333C1.06771 8.0625 1.125 8.11979 1.125 8.22917V8.54167C1.125 9.11458 1.26042 9.57292 1.54167 9.91667C1.83333 10.2656 2.20833 10.4375 2.66667 10.4375C3.125 10.4375 3.5 10.2708 3.79167 9.9375C4.08333 9.60417 4.22917 9.16667 4.22917 8.625C4.22917 8.26563 4.15625 7.95313 4.02083 7.6875C3.88021 7.42708 3.69271 7.19792 3.45833 7C3.23437 6.80729 2.85417 6.51042 2.3125 6.10417C1.78125 5.71875 1.36458 5.38542 1.0625 5.10417C0.755208 4.8125 0.5 4.47396 0.291667 4.08333C0.0937507 3.68229 0 3.21875 0 2.6875C0 1.85417 0.234375 1.20313 0.708333 0.729167C1.19271 0.244792 1.81771 0 2.58333 0C3.40104 0 4.04688 0.265625 4.52083 0.791667C5.00521 1.32292 5.25 2.01563 5.25 2.875V3.27083C5.25 3.38542 5.19792 3.4375 5.10417 3.4375H4.29167C4.19271 3.4375 4.14583 3.38542 4.14583 3.27083V2.875C4.14583 2.30729 4 1.84896 3.70833 1.5C3.42708 1.15625 3.05208 0.979167 2.58333 0.979167C2.16667 0.979167 1.81771 1.13542 1.54167 1.4375C1.26042 1.74479 1.125 2.17708 1.125 2.72917C1.125 3.05208 1.1875 3.33333 1.3125 3.58333C1.4375 3.83333 1.61458 4.07813 1.85417 4.3125C2.10417 4.53646 2.46354 4.82813 2.9375 5.1875C3.57292 5.64583 4.05208 6.02083 4.375 6.3125C4.69271 6.60417 4.9375 6.92708 5.10417 7.27083C5.27083 7.61979 5.35417 8.03646 5.35417 8.52083C5.35417 9.39583 5.10417 10.099 4.60417 10.625C4.10417 11.1563 3.45833 11.4167 2.66667 11.4167Z" fill="#D72333"/>
</svg>
