<svg width="6" height="11" viewBox="0 0 6 11" fill="none" xmlns="http://www.w3.org/2000/svg">
<path d="M0.133532 10.9792C0.0918657 10.9792 0.0554071 10.9688 0.0293657 10.9375C-0.00188494 10.8958 -0.00709294 10.8542 0.0085324 10.8125L1.3002 0.145833C1.31062 0.104167 1.33145 0.072916 1.3627 0.0416667C1.40437 0.0156253 1.44603 0 1.4877 0H2.25853C2.36791 0 2.40957 0.052084 2.38353 0.145833L1.6127 6.45833C1.6127 6.48958 1.61791 6.51042 1.63353 6.52083C1.65957 6.52083 1.68041 6.51563 1.69603 6.5L4.38353 3.125C4.43562 3.07292 4.50853 3.04167 4.59187 3.04167H5.3627C5.43041 3.04167 5.47207 3.0625 5.4877 3.10417C5.49812 3.13542 5.4877 3.17708 5.44603 3.22917L3.65437 5.45833C3.63874 5.47396 3.63353 5.5 3.63353 5.54167L4.8002 10.8125V10.8333C4.8002 10.9323 4.74812 10.9792 4.65437 10.9792H3.84187C3.75853 10.9792 3.70124 10.9375 3.6752 10.8542L2.84187 6.5C2.84187 6.45833 2.82624 6.4375 2.8002 6.4375C2.78457 6.4375 2.76895 6.45313 2.75853 6.47917L1.44603 8.10417L1.40437 8.1875L1.09187 10.8125C1.06062 10.9271 1.00853 10.9792 0.925199 10.9792H0.133532Z" fill="#D72333"/>
</svg>
