<svg width="6" height="12" viewBox="0 0 6 12" fill="none" xmlns="http://www.w3.org/2000/svg">
<path d="M5.85417 1.72917C5.85417 1.78646 5.83333 1.83333 5.79167 1.875C5.75 1.90625 5.70833 1.91667 5.66667 1.91667H2.33333C2.27604 1.91667 2.25 1.94792 2.25 2V4.52083C2.25 4.57813 2.27604 4.60417 2.33333 4.60417H4.22917C4.28125 4.60417 4.33333 4.625 4.375 4.66667C4.41667 4.70833 4.4375 4.75 4.4375 4.79167V6.35417C4.4375 6.39583 4.41667 6.4375 4.375 6.47917C4.33333 6.52083 4.28125 6.54167 4.22917 6.54167H2.33333C2.27604 6.54167 2.25 6.57292 2.25 6.625V9.14583C2.25 9.20313 2.27604 9.22917 2.33333 9.22917H5.66667C5.70833 9.22917 5.75 9.25 5.79167 9.29167C5.83333 9.33333 5.85417 9.38542 5.85417 9.4375V10.9792C5.85417 11.0365 5.83333 11.0833 5.79167 11.125C5.75 11.1562 5.70833 11.1667 5.66667 11.1667H0.1875C0.130208 11.1667 0.0833333 11.1562 0.0416667 11.125C0.010416 11.0833 0 11.0365 0 10.9792V0.1875C0 0.135416 0.010416 0.0937493 0.0416667 0.0625C0.0833333 0.0208333 0.130208 0 0.1875 0H5.66667C5.70833 0 5.75 0.0208333 5.79167 0.0625C5.83333 0.0937493 5.85417 0.135416 5.85417 0.1875V1.72917Z" fill="#D72333"/>
</svg>
