<svg width="6" height="11" viewBox="0 0 6 11" fill="none" xmlns="http://www.w3.org/2000/svg">
<path d="M5.75 1.70833C5.75 1.76563 5.72917 1.8125 5.6875 1.85417C5.64583 1.88542 5.60417 1.89583 5.5625 1.89583H2.29167C2.23437 1.89583 2.20833 1.92708 2.20833 1.97917V4.45833C2.20833 4.51563 2.23437 4.54167 2.29167 4.54167H4.16667C4.20833 4.54167 4.25 4.5625 4.29167 4.60417C4.33333 4.63542 4.35417 4.67708 4.35417 4.72917V6.25C4.35417 6.29167 4.33333 6.33333 4.29167 6.375C4.25 6.41667 4.20833 6.4375 4.16667 6.4375H2.29167C2.23437 6.4375 2.20833 6.45833 2.20833 6.5V10.7917C2.20833 10.849 2.1875 10.8958 2.14583 10.9375C2.11458 10.9688 2.07292 10.9792 2.02083 10.9792H0.1875C0.130208 10.9792 0.0833333 10.9688 0.0416667 10.9375C0.0104173 10.8958 0 10.849 0 10.7917V0.1875C0 0.135417 0.0104173 0.0937507 0.0416667 0.0625C0.0833333 0.0208333 0.130208 0 0.1875 0H5.5625C5.60417 0 5.64583 0.0208333 5.6875 0.0625C5.72917 0.0937507 5.75 0.135417 5.75 0.1875V1.70833Z" fill="#F8F7F6"/>
</svg>
