<svg width="6" height="11" viewBox="0 0 6 11" fill="none" xmlns="http://www.w3.org/2000/svg">
<path d="M4.04167 0.145833C4.04167 0.052084 4.08854 0 4.1875 0H5C5.09375 0 5.14583 0.052084 5.14583 0.145833V10.8125C5.14583 10.9271 5.09375 10.9792 5 10.9792H4.1875C4.08854 10.9792 4.04167 10.9271 4.04167 10.8125V6.04167C4.04167 6 4.02083 5.97917 3.97917 5.97917H1.1875C1.14583 5.97917 1.125 6 1.125 6.04167V10.8125C1.125 10.9271 1.06771 10.9792 0.958333 10.9792H0.166667C0.0520827 10.9792 0 10.9271 0 10.8125V0.145833C0 0.052084 0.0520827 0 0.166667 0H0.958333C1.06771 0 1.125 0.052084 1.125 0.145833V4.91667C1.125 4.95833 1.14583 4.97917 1.1875 4.97917H3.97917C4.02083 4.97917 4.04167 4.95833 4.04167 4.91667V0.145833Z" fill="#D72333"/>
</svg>
