<svg width="12" height="20" viewBox="0 0 12 20" fill="none" xmlns="http://www.w3.org/2000/svg">
<path d="M11.2292 14.1667C11.2292 15.9062 10.7083 17.2396 9.66667 18.1667C8.625 19.099 7.27604 19.5625 5.625 19.5625H0.333333C0.234375 19.5625 0.151041 19.5365 0.0833333 19.4792C0.0260413 19.4115 0 19.3281 0 19.2292V0.333333C0 0.25 0.0260413 0.177084 0.0833333 0.104167C0.151041 0.0364587 0.234375 0 0.333333 0H5C6.85938 0 8.31771 0.453125 9.375 1.35417C10.4271 2.24479 10.9583 3.57292 10.9583 5.33333C10.9583 7.18229 10.3177 8.53125 9.04167 9.375C8.96875 9.43229 8.96354 9.48958 9.02083 9.54167C10.4896 10.5833 11.2292 12.125 11.2292 14.1667ZM4.08333 3.39583C3.98437 3.39583 3.9375 3.4375 3.9375 3.52083V7.91667C3.9375 8.01563 3.98437 8.0625 4.08333 8.0625H5.08333C5.71875 8.0625 6.21354 7.86458 6.5625 7.45833C6.92188 7.05729 7.10417 6.49479 7.10417 5.77083C7.10417 5.01042 6.92708 4.42708 6.58333 4.02083C6.23438 3.60417 5.73438 3.39583 5.08333 3.39583H4.08333ZM5.3125 16.1458C5.92188 16.1458 6.40104 15.9271 6.75 15.4792C7.10938 15.0365 7.29167 14.4062 7.29167 13.5833C7.29167 12.7656 7.10938 12.1146 6.75 11.625C6.40104 11.1406 5.92708 10.8958 5.33333 10.8958H4.08333C3.98437 10.8958 3.9375 10.9479 3.9375 11.0417V16.0208C3.9375 16.1042 3.98437 16.1458 4.08333 16.1458H5.3125Z" fill="#D72333"/>
</svg>
