<svg width="9" height="12" viewBox="0 0 9 12" fill="none" xmlns="http://www.w3.org/2000/svg">
<path d="M8.47917 10.875C8.50521 10.9167 8.52083 10.9583 8.52083 11C8.52083 11.0729 8.46875 11.1042 8.375 11.1042H6.375C6.27604 11.1042 6.19792 11.0729 6.14583 11L5.77083 10.5C5.72917 10.474 5.6875 10.474 5.64583 10.5C4.88021 11 4.02083 11.25 3.0625 11.25C2.11458 11.25 1.36458 11.0156 0.8125 10.5417C0.270833 10.0729 0 9.375 0 8.45833C0 7.79167 0.145833 7.22396 0.4375 6.75C0.739584 6.28125 1.15625 5.84375 1.6875 5.4375C1.72917 5.41146 1.73437 5.375 1.70833 5.33333C1.21875 4.68229 0.906251 4.19792 0.770833 3.875C0.630208 3.55729 0.5625 3.20313 0.5625 2.8125C0.5625 1.96875 0.822917 1.28646 1.35417 0.770833C1.88021 0.260417 2.57292 0 3.4375 0C4.02083 0 4.54167 0.125 5 0.375C5.45833 0.614583 5.81771 0.947916 6.08333 1.375C6.34375 1.80729 6.47917 2.30729 6.47917 2.875C6.47917 3.51563 6.3125 4.07292 5.97917 4.54167C5.65625 5 5.21354 5.43229 4.64583 5.83333C4.58854 5.86458 4.58333 5.89583 4.625 5.9375L5.0625 6.5L5.54167 7.125L5.79167 7.45833C5.83333 7.5 5.86458 7.5 5.89583 7.45833C6.13021 7.15625 6.375 6.76563 6.625 6.29167C6.67708 6.18229 6.76042 6.15625 6.875 6.20833L8.25 6.97917C8.34375 7.03646 8.36458 7.125 8.3125 7.25C7.9375 7.94792 7.55208 8.55729 7.16667 9.08333C7.125 9.11458 7.125 9.14583 7.16667 9.1875L8.47917 10.875ZM3.5 2C3.27604 2 3.09375 2.08333 2.95833 2.25C2.83333 2.41667 2.77083 2.63542 2.77083 2.89583C2.77083 3.09375 2.79688 3.27083 2.85417 3.4375C2.92188 3.59375 3.08333 3.84896 3.33333 4.20833C3.35938 4.23958 3.39583 4.23958 3.4375 4.20833C3.97917 3.79167 4.25 3.34896 4.25 2.875C4.25 2.625 4.17708 2.41667 4.04167 2.25C3.90104 2.08333 3.71875 2 3.5 2ZM3.29167 9.35417C3.60938 9.35417 3.98958 9.22396 4.4375 8.95833C4.47917 8.91667 4.47917 8.88542 4.4375 8.85417L4 8.27083L3.04167 7.0625C3 7.02083 2.95833 7.02083 2.91667 7.0625C2.45833 7.46875 2.22917 7.875 2.22917 8.29167C2.22917 8.59896 2.31771 8.85417 2.5 9.0625C2.69271 9.26042 2.95833 9.35417 3.29167 9.35417Z" fill="#F8F7F6"/>
</svg>
