<svg width="6" height="11" viewBox="0 0 6 11" fill="none" xmlns="http://www.w3.org/2000/svg">
<path d="M3.91667 0.166667C3.91667 0.057292 3.96875 0 4.08333 0H4.85417C4.96354 0 5.02083 0.057292 5.02083 0.166667V10.5625C5.02083 10.6615 4.96354 10.7083 4.85417 10.7083H4.08333C3.96875 10.7083 3.91667 10.6615 3.91667 10.5625V5.89583C3.91667 5.85417 3.90104 5.83333 3.875 5.83333H1.14583C1.10417 5.83333 1.08333 5.85417 1.08333 5.89583V10.5625C1.08333 10.6615 1.03125 10.7083 0.9375 10.7083H0.145833C0.0468747 10.7083 0 10.6615 0 10.5625V0.166667C0 0.057292 0.0468747 0 0.145833 0H0.9375C1.03125 0 1.08333 0.057292 1.08333 0.166667V4.8125C1.08333 4.85417 1.10417 4.875 1.14583 4.875H3.875C3.90104 4.875 3.91667 4.85417 3.91667 4.8125V0.166667Z" fill="#D72333"/>
</svg>
