<svg width="27" height="22" viewBox="0 0 27 22" fill="none" xmlns="http://www.w3.org/2000/svg">
<mask id="mask0_25_20122" style="mask-type:luminance" maskUnits="userSpaceOnUse" x="0" y="0" width="27" height="22">
<path d="M26.6667 0H0V21.3333H26.6667V0Z" fill="white"/>
</mask>
<g mask="url(#mask0_25_20122)">
<path d="M7.87874 12.6326C7.93083 13.0389 7.96208 13.4243 7.96208 13.7993C7.96208 14.2733 7.94124 14.6691 7.89958 14.9868C7.81624 15.7524 7.52458 16.3566 7.02458 16.7993C6.52458 17.2316 5.84749 17.4452 5.00374 17.4452C4.12874 17.4452 3.40999 17.216 2.85791 16.7577C2.31624 16.2889 2.02458 15.6691 1.98291 14.9035C1.94124 14.6118 1.92041 14.3097 1.92041 13.9868C1.92041 13.8618 1.98812 13.7993 2.12874 13.7993H3.98291C4.10791 13.7993 4.17041 13.8618 4.17041 13.9868C4.17041 14.2264 4.18083 14.4452 4.21208 14.6535C4.23812 14.9347 4.32145 15.1483 4.46208 15.2993C4.59749 15.4556 4.77978 15.5285 5.00374 15.5285C5.21208 15.5285 5.38395 15.4608 5.52458 15.3202C5.65999 15.1691 5.75374 14.966 5.79541 14.716C5.82145 14.341 5.83708 13.9608 5.83708 13.5701C5.83708 13.0701 5.80583 12.6847 5.75374 12.4035C5.71208 12.1535 5.61833 11.966 5.48291 11.841C5.35791 11.7056 5.19645 11.6326 5.00374 11.6326C4.84749 11.6326 4.69124 11.7056 4.52458 11.841C4.46728 11.8826 4.42562 11.9035 4.39958 11.9035C4.35791 11.9035 4.30583 11.8774 4.25374 11.8201L3.31624 10.8618C3.27458 10.8201 3.25374 10.7733 3.25374 10.716C3.25374 10.6743 3.26416 10.6326 3.29541 10.591L5.21208 8.23682C5.22249 8.21078 5.22249 8.18994 5.21208 8.17432C5.21208 8.14828 5.19645 8.13265 5.17041 8.13265H2.31624C2.25895 8.13265 2.21208 8.12223 2.17041 8.09098C2.13916 8.04932 2.12874 8.00244 2.12874 7.94515V6.42432C2.12874 6.37223 2.13916 6.33057 2.17041 6.29932C2.21208 6.25765 2.25895 6.23682 2.31624 6.23682H7.75374C7.80583 6.23682 7.84749 6.25765 7.87874 6.29932C7.92041 6.33057 7.94124 6.37223 7.94124 6.42432V8.00765C7.94124 8.09098 7.90999 8.17432 7.85791 8.25765L6.08708 10.4868C6.08708 10.5024 6.08708 10.5233 6.08708 10.5493C6.08708 10.5649 6.09229 10.5701 6.10791 10.5701C6.57666 10.6118 6.97249 10.8306 7.29541 11.216C7.61312 11.591 7.80583 12.0649 7.87874 12.6326Z" fill="#D72333"/>
<path d="M10.2339 17.3828C9.8693 17.3828 9.57243 17.2682 9.33805 17.0286C9.09847 16.7943 8.98389 16.4974 8.98389 16.1328C8.98389 15.7734 9.09326 15.4766 9.31722 15.237C9.55159 15.0026 9.85889 14.8828 10.2339 14.8828C10.5933 14.8828 10.8901 15.0026 11.1297 15.237C11.3641 15.4766 11.4839 15.7734 11.4839 16.1328C11.4839 16.4974 11.3641 16.7943 11.1297 17.0286C10.8901 17.2682 10.5933 17.3828 10.2339 17.3828Z" fill="#D72333"/>
<path d="M15.1157 15.2993C15.0845 15.3306 15.0793 15.3566 15.0949 15.3827C15.1053 15.3983 15.1261 15.4035 15.1574 15.4035H18.4699C18.522 15.4035 18.5636 15.4243 18.5949 15.466C18.6366 15.4972 18.6574 15.5389 18.6574 15.591V17.1327C18.6574 17.1899 18.6366 17.2368 18.5949 17.2785C18.5636 17.3097 18.522 17.3202 18.4699 17.3202H12.6157C12.5584 17.3202 12.5116 17.3097 12.4699 17.2785C12.4386 17.2368 12.4282 17.1899 12.4282 17.1327V15.5285C12.4282 15.4347 12.4491 15.3566 12.4907 15.2993C12.9178 14.7316 13.2199 14.3514 13.3866 14.1535C14.3136 12.9608 14.9751 12.0597 15.3657 11.4451C15.9334 10.5441 16.2199 9.77848 16.2199 9.15348C16.2199 8.79411 16.1418 8.51807 15.9907 8.32015C15.8501 8.12744 15.6626 8.02848 15.4282 8.02848C15.1782 8.02848 14.9751 8.12744 14.8241 8.32015C14.6834 8.51807 14.6209 8.76807 14.6366 9.07015V9.71598C14.6366 9.77328 14.6157 9.82015 14.5741 9.86182C14.5428 9.89307 14.5011 9.90348 14.4491 9.90348H12.5532C12.5116 9.90348 12.4699 9.89307 12.4282 9.86182C12.3866 9.82015 12.3657 9.77328 12.3657 9.71598V8.96598C12.4074 8.10661 12.7199 7.41911 13.3032 6.90348C13.8866 6.37744 14.6209 6.11182 15.5116 6.11182C16.397 6.11182 17.1157 6.39307 17.6574 6.94515C18.2095 7.50244 18.4907 8.24723 18.4907 9.17432C18.4907 9.71598 18.397 10.2368 18.2199 10.7368C18.0532 11.2368 17.7668 11.7733 17.3657 12.341C17.0741 12.7733 16.5636 13.4451 15.8449 14.3618L15.1157 15.2993Z" fill="#D72333"/>
<mask id="mask1_25_20122" style="mask-type:luminance" maskUnits="userSpaceOnUse" x="18" y="5" width="9" height="14">
<path d="M18.667 5.3335H26.4743V18.6668H18.667V5.3335Z" fill="white"/>
</mask>
<g mask="url(#mask1_25_20122)">
<path d="M22.5026 17.487C21.5703 17.487 20.8203 17.1953 20.2526 16.612C19.6797 16.0286 19.3984 15.2578 19.3984 14.2995V9.25781C19.3984 8.29948 19.6797 7.52865 20.2526 6.94531C20.8203 6.36198 21.5703 6.07031 22.5026 6.07031C23.112 6.07031 23.6536 6.20573 24.1276 6.46615C24.5964 6.73177 24.9609 7.10677 25.2109 7.59115C25.4714 8.08073 25.6068 8.63281 25.6068 9.25781V14.2995C25.6068 14.9245 25.4714 15.4818 25.2109 15.9661C24.9609 16.4557 24.5964 16.8307 24.1276 17.0911C23.6536 17.3516 23.112 17.487 22.5026 17.487ZM22.5026 15.5703C22.763 15.5703 22.9714 15.4661 23.1276 15.2578C23.2943 15.0495 23.3776 14.7734 23.3776 14.4245V9.13281C23.3776 8.78906 23.2943 8.50781 23.1276 8.29948C22.9714 8.09115 22.763 7.98698 22.5026 7.98698C22.237 7.98698 22.0234 8.09115 21.8568 8.29948C21.7005 8.50781 21.6276 8.78906 21.6276 9.13281V14.4245C21.6276 14.7734 21.7005 15.0495 21.8568 15.2578C22.0234 15.4661 22.237 15.5703 22.5026 15.5703Z" fill="#D72333"/>
</g>
</g>
</svg>
