<svg width="6" height="11" viewBox="0 0 6 11" fill="none" xmlns="http://www.w3.org/2000/svg">
<path d="M4.8125 0.104167C4.83854 0.0364587 4.90104 0 5 0H5.8125C5.92188 0 5.97917 0.052084 5.97917 0.145833V10.8125C5.97917 10.9271 5.92188 10.9792 5.8125 10.9792H5.02083C4.90625 10.9792 4.85417 10.9271 4.85417 10.8125V2.41667C4.85417 2.39063 4.84375 2.375 4.83333 2.375C4.81771 2.375 4.79688 2.38542 4.77083 2.39583L3.14583 5.79167C3.11458 5.86458 3.06771 5.89583 3 5.89583C2.91667 5.89583 2.85417 5.86458 2.8125 5.79167L1.1875 2.41667C1.15625 2.39063 1.13542 2.375 1.125 2.375C1.10937 2.375 1.10417 2.39583 1.10417 2.4375V10.8125C1.10417 10.9271 1.05208 10.9792 0.958333 10.9792H0.145833C0.0468747 10.9792 0 10.9271 0 10.8125V0.145833C0 0.052084 0.0468747 0 0.145833 0H0.958333C1.05208 0 1.11458 0.0364587 1.14583 0.104167L2.9375 3.72917C2.94792 3.76042 2.96354 3.77083 2.97917 3.77083C3.00521 3.77083 3.02604 3.76042 3.04167 3.72917L4.8125 0.104167Z" fill="#D72333"/>
</svg>
