<svg width="7" height="11" viewBox="0 0 7 11" fill="none" xmlns="http://www.w3.org/2000/svg">
<path d="M2.3125 10.2292C2.19792 10.2292 2.13542 10.1771 2.125 10.0625L0.0208333 0.1875L0 0.125C0 0.0416667 0.052084 0 0.166667 0H2.0625C2.17187 0 2.23437 0.052084 2.25 0.145833L3.25 6.58333C3.26042 6.625 3.27604 6.64583 3.29167 6.64583C3.31771 6.64583 3.33333 6.625 3.33333 6.58333L4.33333 0.145833C4.33333 0.052084 4.39583 0 4.52083 0H6.33333C6.46875 0 6.52083 0.0625 6.47917 0.1875L4.375 10.0625C4.35938 10.1771 4.29688 10.2292 4.1875 10.2292H2.3125Z" fill="#D72333"/>
</svg>
