<svg width="3" height="11" viewBox="0 0 3 11" fill="none" xmlns="http://www.w3.org/2000/svg">
<path d="M1.60736 1.66667C1.35736 1.66667 1.16986 1.59375 1.04486 1.4375C0.919863 1.27083 0.862571 1.07292 0.878196 0.833333C0.919863 0.583333 1.02403 0.385417 1.1907 0.229167C1.35736 0.0781253 1.5657 0 1.8157 0C2.02403 0 2.1907 0.072916 2.3157 0.208333C2.45111 0.333333 2.52403 0.5 2.52403 0.708333C2.52403 0.989583 2.43028 1.21875 2.2532 1.39583C2.0709 1.57813 1.85736 1.66667 1.60736 1.66667ZM0.128196 10.6458C0.0292375 10.6458 -0.0124292 10.599 0.00319614 10.5L0.899029 3.20833C0.899029 3.16667 0.909446 3.13542 0.940696 3.10417C0.982363 3.07813 1.02403 3.0625 1.0657 3.0625H1.8157C1.90945 3.0625 1.9459 3.11458 1.91986 3.20833L1.04486 10.5C1.02924 10.599 0.971947 10.6458 0.878196 10.6458H0.128196Z" fill="#D51224"/>
</svg>
