<svg width="6" height="12" viewBox="0 0 6 12" fill="none" xmlns="http://www.w3.org/2000/svg">
<path d="M2.10417 11.2708C1.4375 11.2708 0.916667 11.0938 0.541667 10.7292C0.177084 10.3542 0 9.86458 0 9.25C0 9.08333 0 8.95833 0 8.875L0.416667 5.5C0.5 4.79167 0.781249 4.21875 1.27083 3.77083C1.77083 3.3125 2.38021 3.08333 3.10417 3.08333C3.77083 3.08333 4.29167 3.27083 4.66667 3.64583C5.04167 4.01042 5.22917 4.5 5.22917 5.125C5.22917 5.29167 5.21875 5.41667 5.20833 5.5L4.79167 8.875C4.70833 9.59896 4.41667 10.1823 3.91667 10.625C3.42708 11.0573 2.82292 11.2708 2.10417 11.2708ZM2.22917 10.2917C2.61458 10.2917 2.94792 10.1562 3.22917 9.875C3.50521 9.59896 3.67187 9.23958 3.72917 8.79167L4.125 5.5625C4.125 5.49479 4.125 5.41146 4.125 5.3125C4.125 4.9375 4.02083 4.64063 3.8125 4.41667C3.60417 4.18229 3.32292 4.0625 2.97917 4.0625C2.60417 4.0625 2.27604 4.20313 2 4.47917C1.71875 4.76042 1.55208 5.11979 1.5 5.5625L1.08333 8.79167C1.08333 8.86458 1.08333 8.94792 1.08333 9.04167C1.08333 9.41667 1.1875 9.72396 1.39583 9.95833C1.60417 10.1823 1.88021 10.2917 2.22917 10.2917ZM4.41667 1.77083C4.19271 1.77083 4.01042 1.70313 3.875 1.5625C3.73437 1.41146 3.66667 1.22917 3.66667 1.02083C3.66667 0.718751 3.75521 0.473959 3.9375 0.291667C4.13021 0.0989587 4.36458 0 4.64583 0C4.86458 0 5.04688 0.072916 5.1875 0.208333C5.32292 0.348959 5.39583 0.536459 5.39583 0.770833C5.39583 1.05208 5.29688 1.28646 5.10417 1.47917C4.92188 1.67708 4.69271 1.77083 4.41667 1.77083ZM2.125 1.77083C1.90104 1.77083 1.71875 1.70313 1.58333 1.5625C1.44271 1.41146 1.375 1.22917 1.375 1.02083C1.375 0.718751 1.46354 0.473959 1.64583 0.291667C1.83854 0.0989587 2.07292 0 2.35417 0C2.57292 0 2.75521 0.072916 2.89583 0.208333C3.03125 0.348959 3.10417 0.536459 3.10417 0.770833C3.10417 1.05208 3.00521 1.28646 2.8125 1.47917C2.63021 1.67708 2.40104 1.77083 2.125 1.77083Z" fill="#D72333"/>
</svg>
