<svg width="16" height="21" viewBox="0 0 16 21" fill="none" xmlns="http://www.w3.org/2000/svg">
<path d="M6.97917 0.314433C7.33854 0.262349 7.69271 0.189433 8.04167 0.1061C8.40104 0.0227664 8.75521 -0.00848295 9.10417 0.00193305C9.47917 0.0331837 9.83854 0.1061 10.1875 0.2311C10.5312 0.345682 10.8802 0.455058 11.2292 0.564433C11.5625 0.647766 11.8958 0.7311 12.2292 0.814433C12.5625 0.897766 12.8802 1.03318 13.1875 1.21027C13.3646 1.30923 13.5469 1.4186 13.7292 1.5436C13.9062 1.65818 14.0885 1.78318 14.2708 1.9186C14.6458 2.15818 14.8438 2.50193 14.875 2.96027C14.901 3.4186 14.7396 3.78839 14.3958 4.06443C14.1875 4.18943 13.9844 4.2936 13.7917 4.37693C13.2917 4.55923 12.8854 4.53839 12.5833 4.31443C12.276 4.08006 11.9635 3.78318 11.6458 3.4186L11.25 3.6061C10.8438 3.43943 10.4375 3.27277 10.0208 3.1061C9.60417 2.92902 9.16667 2.83006 8.70833 2.81443C8.31771 2.78839 7.92708 2.85089 7.54167 3.00193C7.16667 3.15818 6.77604 3.18943 6.375 3.1061L5.41667 4.25193C5.45833 4.39256 5.51042 4.56443 5.58333 4.77277C5.65104 4.97068 5.67188 5.14256 5.64583 5.2936C5.9375 5.69985 6.29688 6.05402 6.72917 6.3561C7.15625 6.64777 7.60417 6.90818 8.0625 7.12693L8.4375 7.02277C8.83854 7.2311 9.20833 7.43943 9.54167 7.64777C9.88542 7.84568 10.2917 7.96027 10.75 8.00193L11.0625 8.6061L12.2708 8.87693C12.4635 9.12693 12.651 9.30402 12.8333 9.39777C13.026 9.49673 13.2917 9.6061 13.625 9.7311L13.8333 10.2936L14.1875 10.3769L14.4375 11.0228C14.9219 11.2051 15.2396 11.5332 15.3958 12.0019C15.5469 12.4603 15.6562 12.9082 15.7292 13.3353C15.7708 13.6426 15.8125 13.9342 15.8542 14.2103C15.8958 14.4915 15.8802 14.7884 15.8125 15.1061C15.6562 15.7884 15.4635 16.4342 15.2292 17.0436C14.9792 17.0749 14.8177 17.1894 14.75 17.3978C14.6927 17.5957 14.6302 17.7884 14.5625 17.9811C14.3646 18.4394 14.0417 18.804 13.5833 19.0644C13 19.3874 12.4062 19.6634 11.8125 19.8978C11.2135 20.1217 10.6146 20.3821 10.0208 20.6894C9.60417 20.5228 9.13542 20.4499 8.625 20.4811C8.10938 20.5228 7.60938 20.5228 7.125 20.4811C6.65104 20.4499 6.16667 20.4707 5.66667 20.5436C5.16667 20.6113 4.69792 20.5332 4.27083 20.3144C4.0625 20.2311 3.86458 20.1165 3.6875 19.9603C3.52083 19.7936 3.33333 19.6582 3.125 19.5436C2.94271 19.4342 2.73958 19.3509 2.52083 19.2936C2.3125 19.2415 2.10937 19.1426 1.91667 19.0019C1.56771 18.7519 1.25521 18.4759 0.979167 18.1686C0.713541 17.8509 0.385417 17.5801 0 17.3561C0.0416667 17.0801 0.0885413 16.8092 0.145833 16.5436C0.197916 16.2676 0.375 16.054 0.666667 15.8978C0.927084 15.7728 1.20833 15.7103 1.5 15.7103C1.80208 15.7103 2.09375 15.7103 2.375 15.7103C2.52604 15.9759 2.69271 16.2259 2.875 16.4603C3.05208 16.6842 3.29167 16.8665 3.58333 17.0019C3.875 17.1269 4.17708 17.2311 4.5 17.3144C4.81771 17.3874 5.11458 17.5124 5.39583 17.6894L5.72917 17.5644L6.14583 17.9186C6.58854 17.8249 7.04167 17.804 7.5 17.8561C7.95833 17.9134 8.40104 17.9082 8.83333 17.8353C9.01042 17.7936 9.17708 17.7624 9.33333 17.7311C9.5 17.6894 9.65625 17.6165 9.8125 17.5019C9.92188 17.4082 10.0208 17.304 10.1042 17.1894C10.1979 17.0801 10.3333 17.0176 10.5 17.0019C10.5104 16.6686 10.5104 16.3561 10.5 16.0644C10.4844 15.7728 10.4375 15.4707 10.3542 15.1478C9.72917 14.7051 9.0625 14.2936 8.35417 13.9186C7.65625 13.5436 6.96875 13.1634 6.29167 12.7728C5.69271 12.4394 5.05208 12.1686 4.375 11.9603C3.69271 11.7415 3.08854 11.3873 2.5625 10.8978C2.21354 10.9394 1.89583 10.8092 1.60417 10.5019C1.3125 10.1999 1.06771 9.84568 0.875 9.43943C0.677084 9.03839 0.526041 8.70506 0.416667 8.43943C0.0833333 7.56443 -0.0156253 6.74152 0.125 5.96027C0.276041 5.18423 0.4375 4.36652 0.604167 3.50193C0.739583 3.40818 0.880208 3.31443 1.02083 3.2311C1.17187 3.14777 1.30208 3.05402 1.41667 2.93943C1.51042 2.8561 1.59375 2.75193 1.66667 2.62693C1.75 2.49152 1.83333 2.36652 1.91667 2.25193C2.04167 2.14256 2.17187 2.05402 2.3125 1.9811C2.44792 1.91339 2.58333 1.82485 2.70833 1.71027C2.81771 1.62693 2.91667 1.53839 3 1.43943C3.09375 1.33006 3.20833 1.2311 3.33333 1.14777C3.44271 1.06443 3.55208 0.991517 3.66667 0.9186C3.79167 0.835266 3.91667 0.772766 4.04167 0.7311C4.23438 0.663392 4.42188 0.642558 4.60417 0.6686C4.79688 0.69985 4.98438 0.684225 5.16667 0.626933C5.31771 0.585266 5.44271 0.522766 5.54167 0.439433C5.63542 0.345682 5.75521 0.272766 5.89583 0.2311C6.07292 0.179016 6.25521 0.1686 6.4375 0.210266C6.61458 0.251933 6.79688 0.288392 6.97917 0.314433Z" fill="#D72333"/>
</svg>
