<svg width="112" height="14" viewBox="0 0 112 14" fill="none" xmlns="http://www.w3.org/2000/svg">
<mask id="mask0_25_11415" style="mask-type:luminance" maskUnits="userSpaceOnUse" x="0" y="0" width="112" height="14">
<path d="M112 0H0V13.3333H112V0Z" fill="white"/>
</mask>
<g mask="url(#mask0_25_11415)">
<path d="M4.81364 2.67513C4.83968 2.62305 4.89697 2.5918 4.98031 2.5918H6.18864C6.21468 2.5918 6.23551 2.60742 6.25114 2.63346C6.27718 2.66471 6.29281 2.69076 6.29281 2.7168V9.73763C6.29281 9.7793 6.27718 9.81576 6.25114 9.8418C6.23551 9.85742 6.21468 9.86263 6.18864 9.86263H4.95947C4.92822 9.86263 4.90218 9.85742 4.87614 9.8418C4.84489 9.81576 4.83447 9.7793 4.83447 9.73763V5.07096C4.83447 5.04492 4.82406 5.0293 4.81364 5.0293C4.79801 5.0293 4.78239 5.04492 4.77197 5.07096L3.95947 6.50846C3.92822 6.56576 3.90218 6.5918 3.87614 6.5918C3.86051 6.5918 3.83447 6.56576 3.79281 6.50846L3.00114 5.07096C2.98551 5.04492 2.96989 5.0293 2.95947 5.0293C2.94385 5.0293 2.93864 5.04492 2.93864 5.07096V9.73763C2.93864 9.7793 2.92301 9.81576 2.89697 9.8418C2.86572 9.85742 2.83968 9.86263 2.81364 9.86263H1.58447C1.55322 9.86263 1.52718 9.85742 1.50114 9.8418C1.46989 9.81576 1.45947 9.7793 1.45947 9.73763V2.7168C1.45947 2.69076 1.46989 2.66471 1.50114 2.63346C1.52718 2.60742 1.55322 2.5918 1.58447 2.5918H2.79281C2.86051 2.5918 2.90739 2.62305 2.93864 2.67513L3.85531 4.3418C3.88135 4.37305 3.90218 4.37305 3.91781 4.3418L4.81364 2.67513Z" fill="#D72333"/>
<path d="M9.18473 9.94629C8.54411 9.94629 8.02848 9.75879 7.64307 9.38379C7.26807 9.00879 7.08057 8.50879 7.08057 7.88379V4.57129C7.08057 3.94629 7.26807 3.44629 7.64307 3.07129C8.02848 2.69629 8.54411 2.50879 9.18473 2.50879C9.80973 2.50879 10.3149 2.69629 10.7056 3.07129C11.091 3.44629 11.2889 3.94629 11.2889 4.57129V7.88379C11.2889 8.50879 11.091 9.00879 10.7056 9.38379C10.3149 9.75879 9.80973 9.94629 9.18473 9.94629ZM9.18473 8.69629C9.36182 8.69629 9.50765 8.62858 9.62223 8.48796C9.74723 8.35254 9.80973 8.17025 9.80973 7.94629V4.50879C9.80973 4.29004 9.74723 4.11296 9.62223 3.98796C9.50765 3.85254 9.36182 3.77962 9.18473 3.77962C8.98682 3.77962 8.83057 3.85254 8.70557 3.98796C8.59098 4.11296 8.5389 4.29004 8.5389 4.50879V7.94629C8.5389 8.17025 8.59098 8.35254 8.70557 8.48796C8.83057 8.62858 8.98682 8.69629 9.18473 8.69629Z" fill="#D72333"/>
<path d="M12.0068 7.42529C11.9652 7.42529 11.9287 7.41488 11.9027 7.38363C11.887 7.35758 11.8818 7.33154 11.8818 7.30029V6.30029C11.8818 6.25863 11.887 6.23258 11.9027 6.21696C11.9287 6.19092 11.9652 6.17529 12.0068 6.17529H14.6943C14.7204 6.17529 14.7464 6.19092 14.7777 6.21696C14.8037 6.23258 14.8193 6.25863 14.8193 6.30029V7.30029C14.8193 7.33154 14.8037 7.35758 14.7777 7.38363C14.7464 7.41488 14.7204 7.42529 14.6943 7.42529H12.0068Z" fill="#D72333"/>
<path d="M19.3146 3.73763C19.3146 3.76888 19.299 3.79492 19.2729 3.82096C19.2573 3.85221 19.2313 3.86263 19.1896 3.86263H17.0438C17.0021 3.86263 16.9813 3.87826 16.9813 3.9043V5.55013C16.9813 5.58138 17.0021 5.5918 17.0438 5.5918H18.2729C18.299 5.5918 18.325 5.60742 18.3563 5.63346C18.3823 5.66471 18.3979 5.69076 18.3979 5.7168V6.73763C18.3979 6.76888 18.3823 6.79492 18.3563 6.82096C18.325 6.85221 18.299 6.86263 18.2729 6.86263H17.0438C17.0021 6.86263 16.9813 6.87826 16.9813 6.9043V9.73763C16.9813 9.7793 16.9657 9.81576 16.9396 9.8418C16.924 9.85742 16.8979 9.86263 16.8563 9.86263H15.6479C15.6063 9.86263 15.5698 9.85742 15.5438 9.8418C15.5282 9.81576 15.5229 9.7793 15.5229 9.73763V2.7168C15.5229 2.69076 15.5282 2.66471 15.5438 2.63346C15.5698 2.60742 15.6063 2.5918 15.6479 2.5918H19.1896C19.2313 2.5918 19.2573 2.60742 19.2729 2.63346C19.299 2.66471 19.3146 2.69076 19.3146 2.7168V3.73763Z" fill="#D72333"/>
<path d="M22.7433 9.86263C22.6704 9.86263 22.6235 9.83138 22.5975 9.75846L21.8058 6.9043C21.7902 6.87826 21.7746 6.86263 21.7642 6.86263H21.41C21.3683 6.86263 21.3475 6.87826 21.3475 6.9043V9.73763C21.3475 9.7793 21.3319 9.81576 21.3058 9.8418C21.2902 9.85742 21.2642 9.86263 21.2225 9.86263H20.0142C19.9725 9.86263 19.936 9.85742 19.91 9.8418C19.8944 9.81576 19.8892 9.7793 19.8892 9.73763V2.7168C19.8892 2.69076 19.8944 2.66471 19.91 2.63346C19.936 2.60742 19.9725 2.5918 20.0142 2.5918H22.0975C22.4829 2.5918 22.8267 2.69076 23.1183 2.88346C23.4204 3.06576 23.6496 3.32096 23.8058 3.6543C23.9725 3.98763 24.0558 4.36263 24.0558 4.7793C24.0558 5.19596 23.9777 5.56576 23.8267 5.88346C23.6704 6.19076 23.4569 6.42513 23.1808 6.5918C23.1652 6.60742 23.1496 6.62305 23.1392 6.63346C23.1392 6.63346 23.1392 6.64388 23.1392 6.6543L24.0975 9.7168L24.1183 9.75846C24.1183 9.83138 24.0767 9.86263 23.9933 9.86263H22.7433ZM21.41 3.86263C21.3683 3.86263 21.3475 3.87826 21.3475 3.9043V5.67513C21.3475 5.7168 21.3683 5.73763 21.41 5.73763H21.8683C22.0767 5.73763 22.2485 5.6543 22.3892 5.48763C22.5246 5.31055 22.5975 5.08138 22.5975 4.80013C22.5975 4.50846 22.5246 4.2793 22.3892 4.11263C22.2485 3.94596 22.0767 3.86263 21.8683 3.86263H21.41Z" fill="#D72333"/>
<path d="M28.5703 4.5293C29.0547 4.5293 29.4453 4.69076 29.737 5.00846C30.0286 5.31576 30.1745 5.73242 30.1745 6.25846V9.75846C30.1745 9.83138 30.138 9.86263 30.0703 9.86263H29.5286C29.4557 9.86263 29.4245 9.83138 29.4245 9.75846V9.44596C29.4245 9.43555 29.4141 9.42513 29.4036 9.42513C29.4036 9.42513 29.3932 9.43555 29.3828 9.44596C29.1328 9.7793 28.7474 9.94596 28.237 9.94596C27.8464 9.94596 27.513 9.8418 27.237 9.63346C26.9557 9.41471 26.8203 9.02409 26.8203 8.4668C26.8203 7.87305 26.987 7.44076 27.3203 7.17513C27.6641 6.89909 28.1172 6.75846 28.6745 6.75846H29.3828C29.4089 6.75846 29.4245 6.74805 29.4245 6.7168V6.32096C29.4245 5.97721 29.3464 5.69596 29.1953 5.48763C29.0391 5.2793 28.8255 5.17513 28.5495 5.17513C28.3411 5.17513 28.1589 5.24805 28.0078 5.38346C27.8672 5.52409 27.7839 5.69596 27.7578 5.9043C27.7578 5.97721 27.7214 6.00846 27.6536 6.00846H27.0703C27.0286 6.00846 26.9974 6.00326 26.987 5.98763C26.9714 5.96159 26.9661 5.93555 26.9661 5.9043C27.0078 5.48763 27.1745 5.1543 27.4661 4.9043C27.7682 4.6543 28.138 4.5293 28.5703 4.5293ZM28.3828 9.30013C28.6745 9.30013 28.9141 9.21159 29.112 9.0293C29.3203 8.85221 29.4245 8.5918 29.4245 8.25846V7.38346C29.4245 7.35742 29.4089 7.3418 29.3828 7.3418H28.6536C28.3203 7.3418 28.0547 7.43555 27.862 7.61263C27.6641 7.79492 27.5703 8.06055 27.5703 8.4043C27.5703 8.71159 27.6432 8.94076 27.7995 9.0918C27.9505 9.23242 28.1432 9.30013 28.3828 9.30013Z" fill="#D72333"/>
<path d="M33.1037 4.5293C33.5308 4.5293 33.8797 4.67513 34.1453 4.9668C34.4214 5.24805 34.562 5.62826 34.562 6.11263V8.36263C34.562 8.83659 34.4266 9.2168 34.1662 9.50846C33.9006 9.80013 33.5464 9.94596 33.1037 9.94596C32.9214 9.94596 32.7391 9.90951 32.562 9.8418C32.3953 9.77409 32.2391 9.66471 32.1037 9.50846C32.0881 9.49805 32.0724 9.49805 32.062 9.50846C32.062 9.50846 32.062 9.51888 32.062 9.5293V9.75846C32.062 9.83138 32.0256 9.86263 31.9578 9.86263H31.4162C31.3433 9.86263 31.312 9.83138 31.312 9.75846V2.69596C31.312 2.62826 31.3433 2.5918 31.4162 2.5918H31.9578C32.0256 2.5918 32.062 2.62826 32.062 2.69596V4.94596C32.062 4.96159 32.0672 4.97721 32.0828 4.98763C32.0933 4.98763 32.1089 4.97721 32.1245 4.94596C32.2495 4.81055 32.3953 4.70638 32.562 4.63346C32.7391 4.56576 32.9214 4.5293 33.1037 4.5293ZM33.812 6.17513C33.812 5.87305 33.7287 5.62826 33.562 5.44596C33.3953 5.26888 33.1766 5.17513 32.9162 5.17513C32.6662 5.17513 32.4578 5.26888 32.2912 5.44596C32.1349 5.62826 32.062 5.87305 32.062 6.17513V8.32096C32.062 8.61263 32.1349 8.85221 32.2912 9.0293C32.4578 9.21159 32.6662 9.30013 32.9162 9.30013C33.1766 9.30013 33.3953 9.21159 33.562 9.0293C33.7287 8.85221 33.812 8.61263 33.812 8.32096V6.17513Z" fill="#D72333"/>
<path d="M38.2025 2.63346C38.2546 2.60742 38.3066 2.5918 38.3483 2.5918H39.6191C39.6452 2.5918 39.6712 2.60742 39.7025 2.63346C39.7285 2.66471 39.7441 2.69076 39.7441 2.7168V9.73763C39.7441 9.7793 39.7285 9.81576 39.7025 9.8418C39.6712 9.85742 39.6452 9.86263 39.6191 9.86263H38.39C38.3587 9.86263 38.3327 9.85742 38.3066 9.8418C38.2754 9.81576 38.265 9.7793 38.265 9.73763V4.07096C38.265 4.04492 38.2493 4.0293 38.2233 4.0293L37.4108 4.13346H37.39C37.3171 4.13346 37.2858 4.0918 37.2858 4.00846L37.2441 3.11263C37.2441 3.04492 37.2754 2.99805 37.3483 2.9668L38.2025 2.63346Z" fill="#D72333"/>
<path d="M44.2521 6.80013C44.2782 7.06576 44.2938 7.31576 44.2938 7.55013C44.2938 7.85742 44.2782 8.12305 44.2521 8.3418C44.1948 8.8418 44.0021 9.23763 43.6688 9.5293C43.3459 9.81055 42.9084 9.94596 42.3563 9.94596C41.7834 9.94596 41.3198 9.79492 40.9604 9.48763C40.5959 9.18555 40.4032 8.7793 40.3771 8.2793C40.3459 8.08659 40.3354 7.88346 40.3354 7.67513C40.3354 7.5918 40.3771 7.55013 40.4604 7.55013H41.6896C41.7729 7.55013 41.8146 7.5918 41.8146 7.67513C41.8146 7.83138 41.8198 7.97721 41.8354 8.11263C41.8615 8.29492 41.9188 8.44076 42.0021 8.55013C42.0959 8.64909 42.2157 8.69596 42.3563 8.69596C42.4917 8.69596 42.6063 8.64909 42.6896 8.55013C42.7834 8.45638 42.8459 8.32096 42.8771 8.1543C42.8875 7.9043 42.8979 7.6543 42.8979 7.4043C42.8979 7.08659 42.8823 6.83138 42.8563 6.63346C42.825 6.48242 42.7729 6.36263 42.6896 6.2793C42.6063 6.18555 42.4917 6.13346 42.3563 6.13346C42.2573 6.13346 42.1532 6.18555 42.0438 6.2793C42.0021 6.31055 41.9709 6.32096 41.9604 6.32096C41.9292 6.32096 41.9032 6.30013 41.8771 6.25846L41.2521 5.63346C41.2209 5.60742 41.2104 5.57096 41.2104 5.5293C41.2104 5.50326 41.2157 5.47721 41.2313 5.44596L42.5021 3.9043C42.5125 3.89388 42.5125 3.87826 42.5021 3.86263C42.5021 3.85221 42.4865 3.8418 42.4604 3.8418H40.5854C40.5542 3.8418 40.5282 3.83659 40.5021 3.82096C40.4709 3.79492 40.4604 3.75846 40.4604 3.7168V2.7168C40.4604 2.69076 40.4709 2.66471 40.5021 2.63346C40.5282 2.60742 40.5542 2.5918 40.5854 2.5918H44.1688C44.1948 2.5918 44.2209 2.60742 44.2521 2.63346C44.2782 2.66471 44.2938 2.69076 44.2938 2.7168V3.75846C44.2938 3.81576 44.2729 3.87305 44.2313 3.92513L43.0646 5.38346C43.0646 5.39909 43.0646 5.41471 43.0646 5.42513C43.0646 5.44076 43.0698 5.44596 43.0854 5.44596C43.3875 5.47721 43.6479 5.61263 43.8563 5.86263C44.0646 6.11263 44.1948 6.42513 44.2521 6.80013Z" fill="#D72333"/>
<path d="M47.5031 4.44596C47.9718 4.44596 48.326 4.60742 48.5656 4.92513C48.8 5.23242 48.9198 5.66471 48.9198 6.2168V9.73763C48.9198 9.7793 48.9041 9.81576 48.8781 9.8418C48.8468 9.85742 48.8208 9.86263 48.7948 9.86263H47.5656C47.5343 9.86263 47.5083 9.85742 47.4823 9.8418C47.451 9.81576 47.4406 9.7793 47.4406 9.73763V6.3418C47.4406 6.13346 47.3989 5.97721 47.3156 5.86263C47.2427 5.75326 47.1333 5.69596 46.9823 5.69596C46.826 5.69596 46.701 5.75846 46.6073 5.88346C46.5239 5.99805 46.4823 6.1543 46.4823 6.36263V9.73763C46.4823 9.7793 46.4666 9.81576 46.4406 9.8418C46.425 9.85742 46.3989 9.86263 46.3573 9.86263H45.1489C45.1073 9.86263 45.0708 9.85742 45.0448 9.8418C45.0291 9.81576 45.0239 9.7793 45.0239 9.73763V2.7168C45.0239 2.69076 45.0291 2.66471 45.0448 2.63346C45.0708 2.60742 45.1073 2.5918 45.1489 2.5918H46.3573C46.3989 2.5918 46.425 2.60742 46.4406 2.63346C46.4666 2.66471 46.4823 2.69076 46.4823 2.7168V4.8418C46.4823 4.87305 46.4875 4.88346 46.5031 4.88346C46.5291 4.88346 46.5552 4.87305 46.5864 4.8418C46.8052 4.58138 47.1125 4.44596 47.5031 4.44596Z" fill="#D72333"/>
<path d="M51.8195 10.6961C51.7466 10.6961 51.7153 10.6597 51.7153 10.592V2.07113C51.7153 2.01904 51.7466 1.98779 51.8195 1.98779H52.3403C52.408 1.98779 52.4445 2.01904 52.4445 2.07113V10.592C52.4445 10.6597 52.408 10.6961 52.3403 10.6961H51.8195Z" fill="#D72333"/>
<path d="M57.2441 9.94629C56.8379 9.94629 56.4837 9.86816 56.1816 9.71712C55.8743 9.55046 55.64 9.33171 55.4733 9.05046C55.3066 8.75879 55.2233 8.42546 55.2233 8.05046V7.73796C55.2233 7.71191 55.2285 7.68587 55.2441 7.65462C55.2702 7.62858 55.3066 7.61296 55.3483 7.61296H56.5358C56.5775 7.61296 56.6035 7.62858 56.6191 7.65462C56.6452 7.68587 56.6608 7.71191 56.6608 7.73796V7.96712C56.6608 8.19108 56.7129 8.37337 56.8275 8.50879C56.9368 8.63379 57.0775 8.69629 57.2441 8.69629C57.4108 8.69629 57.5462 8.63379 57.6608 8.50879C57.7702 8.38379 57.8275 8.21712 57.8275 8.00879C57.8275 7.80046 57.7546 7.62858 57.6191 7.48796C57.4785 7.33691 57.2077 7.11296 56.8066 6.82129C56.4577 6.57129 56.1712 6.35254 55.9525 6.15462C55.7441 5.96191 55.5618 5.72754 55.4108 5.44629C55.2546 5.15462 55.1816 4.83171 55.1816 4.46712C55.1816 3.87337 55.3587 3.39941 55.7233 3.05046C56.0983 2.69108 56.5879 2.50879 57.2025 2.50879C57.7962 2.50879 58.2858 2.69629 58.6608 3.07129C59.0358 3.43587 59.2233 3.91504 59.2233 4.50879V4.75879C59.2233 4.79004 59.2077 4.81608 59.1816 4.84212C59.1504 4.87337 59.1243 4.88379 59.0983 4.88379H57.89C57.8587 4.88379 57.8327 4.87337 57.8066 4.84212C57.7754 4.81608 57.765 4.79004 57.765 4.75879V4.48796C57.765 4.26921 57.7077 4.09212 57.5983 3.96712C57.4993 3.84212 57.3691 3.77962 57.2025 3.77962C57.0358 3.77962 56.8952 3.84212 56.7858 3.96712C56.6868 4.08171 56.64 4.24837 56.64 4.46712C56.64 4.66504 56.7025 4.84212 56.8275 5.00879C56.9629 5.16504 57.2233 5.38379 57.5983 5.67546C58.0254 5.99837 58.3535 6.25358 58.5775 6.44629C58.7962 6.64421 58.9629 6.85775 59.0775 7.09212C59.2025 7.33171 59.265 7.61296 59.265 7.94629C59.265 8.56087 59.0775 9.04525 58.7025 9.40462C58.3275 9.76921 57.8379 9.94629 57.2441 9.94629Z" fill="#D72333"/>
<path d="M63.0154 9.86263C62.9321 9.86263 62.8904 9.83138 62.8904 9.75846L62.7238 8.75846C62.7238 8.7168 62.7029 8.69596 62.6613 8.69596H61.3488C61.3071 8.69596 61.2863 8.7168 61.2863 8.75846L61.1196 9.75846C61.104 9.83138 61.0571 9.86263 60.9738 9.86263H59.7654C59.6665 9.86263 59.63 9.82096 59.6613 9.73763L61.1821 2.7168C61.1925 2.63346 61.2446 2.5918 61.3279 2.5918H62.7238C62.7915 2.5918 62.8331 2.63346 62.8488 2.7168L64.3696 9.73763L64.3904 9.7793C64.3904 9.83659 64.3488 9.86263 64.2654 9.86263H63.0154ZM61.4946 7.50846C61.4946 7.55013 61.505 7.57096 61.5363 7.57096H62.4529C62.4946 7.57096 62.505 7.55013 62.4946 7.50846L62.0154 4.67513C62.0154 4.66471 62.005 4.6543 61.9946 4.6543C61.979 4.6543 61.9634 4.66471 61.9529 4.67513L61.4946 7.50846Z" fill="#D72333"/>
<path d="M72.464 9.71712C72.4901 9.74837 72.5057 9.77441 72.5057 9.80046C72.5057 9.84212 72.4692 9.86296 72.4015 9.86296H71.089C71.0161 9.86296 70.964 9.84212 70.9224 9.80046L70.6724 9.46712C70.6567 9.45671 70.6359 9.45671 70.6099 9.46712C70.0942 9.79004 69.5265 9.94629 68.9015 9.94629C68.2609 9.94629 67.7609 9.79525 67.4015 9.48796C67.0369 9.18587 66.8599 8.72754 66.8599 8.11296C66.8599 7.67025 66.9536 7.29525 67.1515 6.98796C67.3599 6.67025 67.6359 6.37858 67.9849 6.11296C68.0109 6.10254 68.0109 6.08171 67.9849 6.05046C67.6619 5.62337 67.4536 5.30046 67.3599 5.09212C67.2765 4.87337 67.2349 4.63379 67.2349 4.38379C67.2349 3.81608 67.4067 3.36296 67.7557 3.02962C68.0994 2.68587 68.5682 2.50879 69.1515 2.50879C69.5265 2.50879 69.8651 2.59212 70.1724 2.75879C70.4744 2.91504 70.714 3.13379 70.8807 3.42546C71.0578 3.71712 71.1515 4.05046 71.1515 4.42546C71.1515 4.84212 71.0369 5.21191 70.8182 5.52962C70.6099 5.83691 70.3182 6.12337 69.9432 6.38379C69.9015 6.39941 69.8911 6.42025 69.9224 6.44629L70.214 6.82129L70.5265 7.23796L70.6932 7.44629C70.7192 7.47754 70.7453 7.47754 70.7765 7.44629C70.9276 7.25358 71.089 6.99837 71.2557 6.67546C71.2817 6.60775 71.339 6.59212 71.4224 6.63379L72.3182 7.13379C72.3859 7.17546 72.4015 7.23275 72.3599 7.30046C72.1099 7.77441 71.8599 8.18587 71.6099 8.52962C71.5786 8.54525 71.5786 8.56608 71.6099 8.59212L72.464 9.71712ZM69.1932 3.84212C69.0369 3.84212 68.9119 3.89941 68.8182 4.00879C68.7349 4.12337 68.6932 4.26921 68.6932 4.44629C68.6932 4.57129 68.714 4.69108 68.7557 4.80046C68.7974 4.89941 68.9015 5.06608 69.0682 5.30046C69.0942 5.31608 69.1203 5.31608 69.1515 5.30046C69.4953 5.02441 69.6724 4.73275 69.6724 4.42546C69.6724 4.25879 69.6203 4.12337 69.5265 4.00879C69.4432 3.89941 69.3286 3.84212 69.1932 3.84212ZM69.0474 8.71712C69.2557 8.71712 69.5057 8.62858 69.7974 8.44629C69.8234 8.42025 69.8234 8.39421 69.7974 8.36296L69.5057 7.98796L68.8807 7.19629C68.8494 7.17025 68.8234 7.17025 68.7974 7.19629C68.4901 7.46191 68.339 7.73275 68.339 8.00879C68.339 8.20671 68.4015 8.37337 68.5265 8.50879C68.6515 8.64941 68.8234 8.71712 69.0474 8.71712Z" fill="#D72333"/>
<path d="M77.25 9.94629C76.8437 9.94629 76.4896 9.86816 76.1875 9.71712C75.8802 9.55046 75.6458 9.33171 75.4792 9.05046C75.3125 8.75879 75.2292 8.42546 75.2292 8.05046V7.73796C75.2292 7.71191 75.2344 7.68587 75.25 7.65462C75.276 7.62858 75.3125 7.61296 75.3542 7.61296H76.5417C76.5833 7.61296 76.6094 7.62858 76.625 7.65462C76.651 7.68587 76.6667 7.71191 76.6667 7.73796V7.96712C76.6667 8.19108 76.7187 8.37337 76.8333 8.50879C76.9427 8.63379 77.0833 8.69629 77.25 8.69629C77.4167 8.69629 77.5521 8.63379 77.6667 8.50879C77.776 8.38379 77.8333 8.21712 77.8333 8.00879C77.8333 7.80046 77.7604 7.62858 77.625 7.48796C77.4844 7.33691 77.2135 7.11296 76.8125 6.82129C76.4635 6.57129 76.1771 6.35254 75.9583 6.15462C75.75 5.96191 75.5677 5.72754 75.4167 5.44629C75.2604 5.15462 75.1875 4.83171 75.1875 4.46712C75.1875 3.87337 75.3646 3.39941 75.7292 3.05046C76.1042 2.69108 76.5937 2.50879 77.2083 2.50879C77.8021 2.50879 78.2917 2.69629 78.6667 3.07129C79.0417 3.43587 79.2292 3.91504 79.2292 4.50879V4.75879C79.2292 4.79004 79.2135 4.81608 79.1875 4.84212C79.1563 4.87337 79.1302 4.88379 79.1042 4.88379H77.8958C77.8646 4.88379 77.8385 4.87337 77.8125 4.84212C77.7813 4.81608 77.7708 4.79004 77.7708 4.75879V4.48796C77.7708 4.26921 77.7135 4.09212 77.6042 3.96712C77.5052 3.84212 77.375 3.77962 77.2083 3.77962C77.0417 3.77962 76.901 3.84212 76.7917 3.96712C76.6927 4.08171 76.6458 4.24837 76.6458 4.46712C76.6458 4.66504 76.7083 4.84212 76.8333 5.00879C76.9687 5.16504 77.2292 5.38379 77.6042 5.67546C78.0313 5.99837 78.3594 6.25358 78.5833 6.44629C78.8021 6.64421 78.9687 6.85775 79.0833 7.09212C79.2083 7.33171 79.2708 7.61296 79.2708 7.94629C79.2708 8.56087 79.0833 9.04525 78.7083 9.40462C78.3333 9.76921 77.8437 9.94629 77.25 9.94629Z" fill="#D72333"/>
<path d="M81.9801 9.94629C81.3395 9.94629 80.8239 9.75879 80.4385 9.38379C80.0635 9.00879 79.876 8.50879 79.876 7.88379V4.57129C79.876 3.94629 80.0635 3.44629 80.4385 3.07129C80.8239 2.69629 81.3395 2.50879 81.9801 2.50879C82.6051 2.50879 83.1104 2.69629 83.501 3.07129C83.8864 3.44629 84.0843 3.94629 84.0843 4.57129V7.88379C84.0843 8.50879 83.8864 9.00879 83.501 9.38379C83.1104 9.75879 82.6051 9.94629 81.9801 9.94629ZM81.9801 8.69629C82.1572 8.69629 82.3031 8.62858 82.4176 8.48796C82.5426 8.35254 82.6051 8.17025 82.6051 7.94629V4.50879C82.6051 4.29004 82.5426 4.11296 82.4176 3.98796C82.3031 3.85254 82.1572 3.77962 81.9801 3.77962C81.7822 3.77962 81.626 3.85254 81.501 3.98796C81.3864 4.11296 81.3343 4.29004 81.3343 4.50879V7.94629C81.3343 8.17025 81.3864 8.35254 81.501 8.48796C81.626 8.62858 81.7822 8.69629 81.9801 8.69629Z" fill="#D72333"/>
<path d="M88.6772 4.5293C89.1616 4.5293 89.5522 4.69076 89.8439 5.00846C90.1356 5.31576 90.2814 5.73242 90.2814 6.25846V9.75846C90.2814 9.83138 90.245 9.86263 90.1772 9.86263H89.6356C89.5627 9.86263 89.5314 9.83138 89.5314 9.75846V9.44596C89.5314 9.43555 89.521 9.42513 89.5106 9.42513C89.5106 9.42513 89.5002 9.43555 89.4897 9.44596C89.2397 9.7793 88.8543 9.94596 88.3439 9.94596C87.9533 9.94596 87.62 9.8418 87.3439 9.63346C87.0627 9.41471 86.9272 9.02409 86.9272 8.4668C86.9272 7.87305 87.0939 7.44076 87.4272 7.17513C87.771 6.89909 88.2241 6.75846 88.7814 6.75846H89.4897C89.5158 6.75846 89.5314 6.74805 89.5314 6.7168V6.32096C89.5314 5.97721 89.4533 5.69596 89.3022 5.48763C89.146 5.2793 88.9325 5.17513 88.6564 5.17513C88.4481 5.17513 88.2658 5.24805 88.1147 5.38346C87.9741 5.52409 87.8908 5.69596 87.8647 5.9043C87.8647 5.97721 87.8283 6.00846 87.7606 6.00846H87.1772C87.1356 6.00846 87.1043 6.00326 87.0939 5.98763C87.0783 5.96159 87.0731 5.93555 87.0731 5.9043C87.1147 5.48763 87.2814 5.1543 87.5731 4.9043C87.8752 4.6543 88.245 4.5293 88.6772 4.5293ZM88.4897 9.30013C88.7814 9.30013 89.021 9.21159 89.2189 9.0293C89.4272 8.85221 89.5314 8.5918 89.5314 8.25846V7.38346C89.5314 7.35742 89.5158 7.3418 89.4897 7.3418H88.7606C88.4272 7.3418 88.1616 7.43555 87.9689 7.61263C87.771 7.79492 87.6772 8.06055 87.6772 8.4043C87.6772 8.71159 87.7502 8.94076 87.9064 9.0918C88.0575 9.23242 88.2502 9.30013 88.4897 9.30013Z" fill="#D72333"/>
<path d="M93.2106 4.5293C93.6377 4.5293 93.9867 4.67513 94.2523 4.9668C94.5283 5.24805 94.6689 5.62826 94.6689 6.11263V8.36263C94.6689 8.83659 94.5335 9.2168 94.2731 9.50846C94.0075 9.80013 93.6533 9.94596 93.2106 9.94596C93.0283 9.94596 92.846 9.90951 92.6689 9.8418C92.5023 9.77409 92.346 9.66471 92.2106 9.50846C92.195 9.49805 92.1794 9.49805 92.1689 9.50846C92.1689 9.50846 92.1689 9.51888 92.1689 9.5293V9.75846C92.1689 9.83138 92.1325 9.86263 92.0648 9.86263H91.5231C91.4502 9.86263 91.4189 9.83138 91.4189 9.75846V2.69596C91.4189 2.62826 91.4502 2.5918 91.5231 2.5918H92.0648C92.1325 2.5918 92.1689 2.62826 92.1689 2.69596V4.94596C92.1689 4.96159 92.1742 4.97721 92.1898 4.98763C92.2002 4.98763 92.2158 4.97721 92.2314 4.94596C92.3564 4.81055 92.5023 4.70638 92.6689 4.63346C92.846 4.56576 93.0283 4.5293 93.2106 4.5293ZM93.9189 6.17513C93.9189 5.87305 93.8356 5.62826 93.6689 5.44596C93.5023 5.26888 93.2835 5.17513 93.0231 5.17513C92.7731 5.17513 92.5648 5.26888 92.3981 5.44596C92.2419 5.62826 92.1689 5.87305 92.1689 6.17513V8.32096C92.1689 8.61263 92.2419 8.85221 92.3981 9.0293C92.5648 9.21159 92.7731 9.30013 93.0231 9.30013C93.2835 9.30013 93.5023 9.21159 93.6689 9.0293C93.8356 8.85221 93.9189 8.61263 93.9189 8.32096V6.17513Z" fill="#D72333"/>
<path d="M98.3016 2.63346C98.3537 2.60742 98.4058 2.5918 98.4474 2.5918H99.7183C99.7443 2.5918 99.7703 2.60742 99.8016 2.63346C99.8276 2.66471 99.8433 2.69076 99.8433 2.7168V9.73763C99.8433 9.7793 99.8276 9.81576 99.8016 9.8418C99.7703 9.85742 99.7443 9.86263 99.7183 9.86263H98.4891C98.4578 9.86263 98.4318 9.85742 98.4058 9.8418C98.3745 9.81576 98.3641 9.7793 98.3641 9.73763V4.07096C98.3641 4.04492 98.3485 4.0293 98.3224 4.0293L97.5099 4.13346H97.4891C97.4162 4.13346 97.3849 4.0918 97.3849 4.00846L97.3433 3.11263C97.3433 3.04492 97.3745 2.99805 97.4474 2.9668L98.3016 2.63346Z" fill="#D72333"/>
<path d="M104.955 6.7168C104.997 6.7168 105.023 6.73242 105.039 6.75846C105.065 6.77409 105.08 6.80013 105.08 6.8418V7.9043C105.08 7.93555 105.065 7.96159 105.039 7.98763C105.023 8.01888 104.997 8.0293 104.955 8.0293H104.643C104.601 8.0293 104.58 8.04492 104.58 8.07096V9.73763C104.58 9.7793 104.565 9.81576 104.539 9.8418C104.523 9.85742 104.497 9.86263 104.455 9.86263H103.247C103.205 9.86263 103.169 9.85742 103.143 9.8418C103.127 9.81576 103.122 9.7793 103.122 9.73763V8.07096C103.122 8.04492 103.101 8.0293 103.059 8.0293H100.476C100.434 8.0293 100.398 8.01888 100.372 7.98763C100.356 7.96159 100.351 7.93555 100.351 7.9043V7.05013C100.351 6.99805 100.356 6.94596 100.372 6.9043L101.747 2.69596C101.773 2.62826 101.82 2.5918 101.893 2.5918H103.205C103.247 2.5918 103.273 2.60742 103.289 2.63346C103.315 2.66471 103.32 2.69596 103.309 2.73763L102.059 6.6543C102.059 6.69596 102.07 6.7168 102.101 6.7168H103.059C103.101 6.7168 103.122 6.69596 103.122 6.6543V5.57096C103.122 5.54492 103.127 5.51888 103.143 5.48763C103.169 5.46159 103.205 5.44596 103.247 5.44596H104.455C104.497 5.44596 104.523 5.46159 104.539 5.48763C104.565 5.51888 104.58 5.54492 104.58 5.57096V6.6543C104.58 6.69596 104.601 6.7168 104.643 6.7168H104.955Z" fill="#D72333"/>
<path d="M108.1 4.44596C108.569 4.44596 108.923 4.60742 109.162 4.92513C109.397 5.23242 109.516 5.66471 109.516 6.2168V9.73763C109.516 9.7793 109.501 9.81576 109.475 9.8418C109.444 9.85742 109.417 9.86263 109.391 9.86263H108.162C108.131 9.86263 108.105 9.85742 108.079 9.8418C108.048 9.81576 108.037 9.7793 108.037 9.73763V6.3418C108.037 6.13346 107.996 5.97721 107.912 5.86263C107.839 5.75326 107.73 5.69596 107.579 5.69596C107.423 5.69596 107.298 5.75846 107.204 5.88346C107.121 5.99805 107.079 6.1543 107.079 6.36263V9.73763C107.079 9.7793 107.063 9.81576 107.037 9.8418C107.022 9.85742 106.996 9.86263 106.954 9.86263H105.746C105.704 9.86263 105.667 9.85742 105.641 9.8418C105.626 9.81576 105.621 9.7793 105.621 9.73763V2.7168C105.621 2.69076 105.626 2.66471 105.641 2.63346C105.667 2.60742 105.704 2.5918 105.746 2.5918H106.954C106.996 2.5918 107.022 2.60742 107.037 2.63346C107.063 2.66471 107.079 2.69076 107.079 2.7168V4.8418C107.079 4.87305 107.084 4.88346 107.1 4.88346C107.126 4.88346 107.152 4.87305 107.183 4.8418C107.402 4.58138 107.709 4.44596 108.1 4.44596Z" fill="#D72333"/>
</g>
</svg>
