<svg width="5" height="9" viewBox="0 0 5 9" fill="none" xmlns="http://www.w3.org/2000/svg">
<path d="M2.4375 8.1875C1.69792 8.1875 1.10937 7.97396 0.666667 7.54167C0.218749 7.09896 0 6.51563 0 5.79167V2.39583C0 1.6875 0.218749 1.11458 0.666667 0.666667C1.10937 0.223959 1.69792 0 2.4375 0C2.9375 0 3.375 0.104167 3.75 0.3125C4.125 0.510417 4.40625 0.770833 4.60417 1.10417C4.8125 1.42708 4.91667 1.78646 4.91667 2.1875V2.33333C4.91667 2.44792 4.86458 2.5 4.77083 2.5L3.95833 2.52083C3.85937 2.52083 3.8125 2.47396 3.8125 2.375V2.25C3.8125 1.91667 3.67708 1.625 3.41667 1.375C3.16667 1.11458 2.83854 0.979167 2.4375 0.979167C2.04687 0.979167 1.72917 1.11979 1.47917 1.39583C1.22917 1.67708 1.10417 2.03646 1.10417 2.47917V5.70833C1.10417 6.15625 1.22917 6.51563 1.47917 6.79167C1.72917 7.07292 2.04687 7.20833 2.4375 7.20833C2.83854 7.20833 3.16667 7.08333 3.41667 6.83333C3.67708 6.57292 3.8125 6.27083 3.8125 5.9375V5.8125C3.8125 5.71875 3.85937 5.66667 3.95833 5.66667L4.77083 5.6875C4.86458 5.6875 4.91667 5.73958 4.91667 5.83333V6C4.91667 6.64063 4.6875 7.16667 4.22917 7.58333C3.78125 7.98958 3.1875 8.1875 2.4375 8.1875Z" fill="#D72333"/>
</svg>
