<svg width="9" height="11" viewBox="0 0 9 11" fill="none" xmlns="http://www.w3.org/2000/svg">
<path d="M6.2377 0.125C6.27937 0.0416667 6.35228 0 6.46687 0H8.2377C8.28978 0 8.33145 0.0208333 8.3627 0.0625C8.38874 0.0937507 8.39395 0.135417 8.38353 0.1875L7.09187 10.7917C7.07624 10.849 7.0502 10.8958 7.00853 10.9375C6.97728 10.9688 6.93562 10.9792 6.88353 10.9792H5.09187C5.0502 10.9792 5.00853 10.9688 4.96687 10.9375C4.93562 10.8958 4.93041 10.849 4.94603 10.7917L5.8002 3.75C5.81062 3.70833 5.80541 3.6875 5.77937 3.6875C5.76374 3.6875 5.74291 3.70313 5.71687 3.72917L4.25853 5.89583C4.20124 5.97917 4.15957 6.02083 4.13353 6.02083C4.10228 6.02083 4.06062 5.97917 4.00853 5.89583L3.1127 3.72917C3.08145 3.70313 3.05541 3.6875 3.02937 3.6875C3.01374 3.6875 3.00853 3.70833 3.00853 3.75L2.15437 10.7917C2.13874 10.849 2.1127 10.8958 2.07103 10.9375C2.03978 10.9688 1.99812 10.9792 1.94603 10.9792H0.154366C0.0970737 10.9792 0.0554071 10.9688 0.0293657 10.9375C-0.00188494 10.8958 -0.00709294 10.849 0.0085324 10.7917L1.3002 0.1875C1.31062 0.135417 1.33145 0.0937507 1.3627 0.0625C1.40437 0.0208333 1.45124 0 1.50853 0H3.25853C3.3002 0 3.34187 0.0156253 3.38353 0.0416667C3.4252 0.057292 3.45124 0.0833333 3.46687 0.125L4.50853 2.625C4.53457 2.66667 4.57103 2.66667 4.6127 2.625L6.2377 0.125Z" fill="white"/>
</svg>
