<svg width="6" height="9" viewBox="0 0 6 9" fill="none" xmlns="http://www.w3.org/2000/svg">
<path d="M2.64583 0C3.38021 0 3.96354 0.239583 4.39583 0.708333C4.83854 1.18229 5.0625 1.82292 5.0625 2.625V7.89583C5.0625 8.01042 5.01042 8.0625 4.91667 8.0625H4.10417C4.00521 8.0625 3.95833 8.01042 3.95833 7.89583V7.4375C3.95833 7.41146 3.94792 7.39583 3.9375 7.39583C3.92187 7.39583 3.90104 7.40625 3.875 7.41667C3.48437 7.93229 2.90625 8.1875 2.14583 8.1875C1.5625 8.1875 1.05208 8.03125 0.625 7.70833C0.208333 7.375 0 6.78646 0 5.9375C0 5.05208 0.255208 4.40625 0.770833 4C1.28125 3.58333 1.95833 3.375 2.79167 3.375H3.89583C3.9375 3.375 3.95833 3.35417 3.95833 3.3125V2.6875C3.95833 2.17708 3.83333 1.76563 3.58333 1.45833C3.34375 1.14063 3.02604 0.979167 2.625 0.979167C2.30208 0.979167 2.03125 1.08333 1.8125 1.29167C1.58854 1.5 1.45833 1.76563 1.41667 2.08333C1.41667 2.19792 1.35937 2.25 1.25 2.25L0.375 2.22917C0.317708 2.22917 0.276041 2.21875 0.25 2.1875C0.234375 2.14583 0.229167 2.10417 0.229167 2.0625C0.281251 1.45313 0.531251 0.958333 0.979167 0.583333C1.4375 0.197916 1.98958 0 2.64583 0ZM2.375 7.20833C2.80208 7.20833 3.17187 7.07292 3.47917 6.79167C3.79687 6.51563 3.95833 6.13542 3.95833 5.64583V4.33333C3.95833 4.29167 3.9375 4.27083 3.89583 4.27083H2.77083C2.27083 4.27083 1.875 4.40625 1.58333 4.66667C1.29167 4.93229 1.14583 5.32813 1.14583 5.85417C1.14583 6.3125 1.25521 6.65625 1.47917 6.875C1.69792 7.09896 2 7.20833 2.375 7.20833Z" fill="#D72333"/>
</svg>
