<svg width="10" height="20" viewBox="0 0 10 20" fill="none" xmlns="http://www.w3.org/2000/svg">
<path d="M4.66667 20C3.29167 20 2.17187 19.5417 1.3125 18.625C0.447916 17.7083 0.0208333 16.5156 0.0208333 15.0417V14.4167C0.0208333 14.224 0.114583 14.125 0.3125 14.125H1.66667C1.85937 14.125 1.95833 14.224 1.95833 14.4167V14.9583C1.95833 15.9479 2.20833 16.7448 2.70833 17.3542C3.20833 17.9688 3.85937 18.2708 4.66667 18.2708C5.44271 18.2708 6.08854 17.9792 6.60417 17.3958C7.13021 16.8125 7.39583 16.0521 7.39583 15.1042C7.39583 14.4688 7.27083 13.9271 7.02083 13.4792C6.77083 13.0208 6.44271 12.6198 6.04167 12.2708C5.63542 11.9271 4.96875 11.3958 4.04167 10.6875C3.10937 10.0104 2.375 9.41667 1.83333 8.91667C1.30208 8.41667 0.864583 7.82813 0.520833 7.14583C0.171875 6.45313 0 5.64063 0 4.70833C0 3.26563 0.416667 2.11979 1.25 1.27083C2.09375 0.427084 3.1875 0 4.52083 0C5.9375 0 7.06771 0.458333 7.91667 1.375C8.76042 2.29167 9.1875 3.51563 9.1875 5.04167V5.75C9.1875 5.93229 9.09375 6.02083 8.91667 6.02083H7.52083C7.32292 6.02083 7.22917 5.93229 7.22917 5.75V5.02083C7.22917 4.03646 6.97917 3.24479 6.47917 2.64583C5.98958 2.03646 5.33854 1.72917 4.52083 1.72917C3.78125 1.72917 3.17187 1.99479 2.6875 2.52083C2.19792 3.05208 1.95833 3.80208 1.95833 4.77083C1.95833 5.34375 2.0625 5.84896 2.27083 6.29167C2.48958 6.72396 2.8125 7.14063 3.22917 7.54167C3.65625 7.93229 4.29688 8.4375 5.14583 9.0625C6.25521 9.88542 7.08333 10.5521 7.625 11.0625C8.17708 11.5781 8.60417 12.1406 8.89583 12.75C9.19792 13.349 9.35417 14.0781 9.35417 14.9375C9.35417 16.4688 8.91667 17.6979 8.04167 18.625C7.16667 19.5417 6.04167 20 4.66667 20Z" fill="#D72333"/>
</svg>
