<svg width="4" height="10" viewBox="0 0 4 10" fill="none" xmlns="http://www.w3.org/2000/svg">
<path d="M3.10736 2.54167C3.10736 2.58333 3.08653 2.61979 3.04486 2.64583C3.01361 2.67708 2.98236 2.6875 2.9407 2.6875H1.83653C1.80528 2.6875 1.78445 2.70833 1.77403 2.75L1.21153 7.33333C1.1959 7.51563 1.1907 7.64063 1.1907 7.70833C1.1907 8.03125 1.2532 8.25 1.3782 8.375C1.51361 8.48958 1.72195 8.54167 2.0032 8.54167H2.14903C2.1907 8.54167 2.22195 8.55729 2.2532 8.58333C2.27924 8.61458 2.28445 8.64583 2.27403 8.6875L2.1907 9.33333C2.17507 9.43229 2.1282 9.47917 2.04486 9.47917H1.66986C1.16986 9.47917 0.779238 9.38542 0.503196 9.1875C0.237571 8.99479 0.107363 8.63542 0.107363 8.10417C0.107363 8.02083 0.117779 7.86979 0.149029 7.64583L0.753196 2.75C0.753196 2.73958 0.742779 2.72396 0.732363 2.70833C0.732363 2.69792 0.716738 2.6875 0.690696 2.6875H0.128196C0.0292375 2.6875 -0.0124292 2.64063 0.00319614 2.54167L0.0656961 2.04167C0.0656961 2 0.0761121 1.96875 0.107363 1.9375C0.149029 1.91146 0.190696 1.89583 0.232363 1.89583H0.794863C0.80528 1.89583 0.820904 1.89063 0.836529 1.875C0.846947 1.86458 0.857363 1.84896 0.857363 1.83333L1.0657 0.145833C1.0657 0.104167 1.07611 0.072916 1.10736 0.0416667C1.14903 0.0156253 1.1907 0 1.23236 0H1.96153C2.04486 0 2.08653 0.052084 2.08653 0.145833L1.8782 1.83333C1.8782 1.875 1.89903 1.89583 1.9407 1.89583H3.04486C3.13861 1.89583 3.18028 1.94792 3.16986 2.04167L3.10736 2.54167Z" fill="#D51224"/>
</svg>
