<svg width="6" height="11" viewBox="0 0 6 11" fill="none" xmlns="http://www.w3.org/2000/svg">
<path d="M3.14583 0C3.6875 0 4.16667 0.140625 4.58333 0.416667C5.01042 0.682292 5.34375 1.0625 5.58333 1.5625C5.81771 2.05208 5.9375 2.60417 5.9375 3.22917C5.9375 4.17708 5.6875 4.9375 5.1875 5.52083C4.69792 6.09375 4.04688 6.375 3.22917 6.375H1.89583C1.83854 6.375 1.8125 6.40625 1.8125 6.45833V10.8125C1.8125 10.8698 1.79167 10.9167 1.75 10.9583C1.71875 10.9896 1.67708 11 1.625 11H0.1875C0.130208 11 0.0833333 10.9896 0.0416667 10.9583C0.010416 10.9167 0 10.8698 0 10.8125V0.1875C0 0.135416 0.010416 0.0937493 0.0416667 0.0625C0.0833333 0.0208333 0.130208 0 0.1875 0H3.14583ZM2.83333 4.9375C3.21875 4.9375 3.53125 4.79167 3.77083 4.5C4.00521 4.19792 4.125 3.79167 4.125 3.29167C4.125 2.76563 4.00521 2.34896 3.77083 2.04167C3.53125 1.72396 3.21875 1.5625 2.83333 1.5625H1.89583C1.83854 1.5625 1.8125 1.59375 1.8125 1.64583V4.875C1.8125 4.91667 1.83854 4.9375 1.89583 4.9375H2.83333Z" fill="white"/>
</svg>
