<svg width="6" height="12" viewBox="0 0 6 12" fill="none" xmlns="http://www.w3.org/2000/svg">
<path d="M5.75 7.08333C5.85938 7.08333 5.91667 7.14063 5.91667 7.25V7.9375C5.91667 8.05208 5.85938 8.10417 5.75 8.10417H5.27083C5.22917 8.10417 5.20833 8.125 5.20833 8.16667V11C5.20833 11.1146 5.15104 11.1667 5.04167 11.1667H4.22917C4.11458 11.1667 4.0625 11.1146 4.0625 11V8.16667C4.0625 8.125 4.04167 8.10417 4 8.10417H0.166667C0.052084 8.10417 0 8.05208 0 7.9375V7.33333C0 7.29167 0.005208 7.22917 0.0208333 7.14583L2.41667 0.125C2.45833 0.0416667 2.52083 0 2.60417 0H3.5C3.60937 0 3.65104 0.057292 3.625 0.166667L1.3125 7C1.3125 7.03125 1.3125 7.05208 1.3125 7.0625C1.32292 7.07813 1.34375 7.08333 1.375 7.08333H4C4.04167 7.08333 4.0625 7.0625 4.0625 7.02083V4.58333C4.0625 4.47396 4.11458 4.41667 4.22917 4.41667H5.04167C5.15104 4.41667 5.20833 4.47396 5.20833 4.58333V7.02083C5.20833 7.0625 5.22917 7.08333 5.27083 7.08333H5.75Z" fill="#D72333"/>
</svg>
