<svg width="7" height="11" viewBox="0 0 7 11" fill="none" xmlns="http://www.w3.org/2000/svg">
<path d="M6.3125 7.95833C6.3125 8.93229 6.02083 9.68229 5.4375 10.2083C4.85417 10.724 4.08854 10.9792 3.14583 10.9792H0.1875C0.130208 10.9792 0.0833333 10.9688 0.0416667 10.9375C0.0104173 10.8958 0 10.849 0 10.7917V0.1875C0 0.135417 0.0104173 0.0937507 0.0416667 0.0625C0.0833333 0.0208333 0.130208 0 0.1875 0H2.8125C3.85417 0 4.66667 0.25 5.25 0.75C5.84375 1.25 6.14583 2 6.14583 3C6.14583 4.03125 5.79167 4.78125 5.08333 5.25C5.04167 5.28125 5.03125 5.3125 5.0625 5.35417C5.89583 5.9375 6.3125 6.80729 6.3125 7.95833ZM2.29167 1.89583C2.23437 1.89583 2.20833 1.92708 2.20833 1.97917V4.4375C2.20833 4.49479 2.23437 4.52083 2.29167 4.52083H2.85417C3.21354 4.52083 3.48958 4.41146 3.6875 4.1875C3.88021 3.95313 3.97917 3.63542 3.97917 3.22917C3.97917 2.80208 3.88021 2.47396 3.6875 2.25C3.50521 2.01563 3.22917 1.89583 2.85417 1.89583H2.29167ZM2.97917 9.0625C3.32292 9.0625 3.59375 8.9375 3.79167 8.6875C4 8.4375 4.10417 8.08333 4.10417 7.625C4.10417 7.16667 4 6.80729 3.79167 6.54167C3.59375 6.26563 3.33333 6.125 3 6.125H2.29167C2.23437 6.125 2.20833 6.14583 2.20833 6.1875V8.97917C2.20833 9.03646 2.23437 9.0625 2.29167 9.0625H2.97917Z" fill="#F8F7F6"/>
</svg>
