<svg width="223" height="80" viewBox="0 0 223 80" fill="none" xmlns="http://www.w3.org/2000/svg">
<mask id="mask0_25_19680" style="mask-type:luminance" maskUnits="userSpaceOnUse" x="0" y="0" width="223" height="80">
<path d="M222.667 0H0V80H222.667V0Z" fill="white"/>
</mask>
<g mask="url(#mask0_25_19680)">
<path d="M9.5961 16.1201C9.48151 16.1201 9.41902 16.068 9.4086 15.9535L9.17943 14.5576C9.17943 14.516 9.14297 14.4951 9.07527 14.4951H7.24193C7.18464 14.4951 7.1586 14.516 7.1586 14.5576L6.9086 15.9535C6.9086 16.068 6.8461 16.1201 6.7211 16.1201H5.0336C4.9086 16.1201 4.85651 16.0576 4.88777 15.9326L7.01277 6.09928C7.03881 5.98991 7.10131 5.93262 7.20027 5.93262H9.17943C9.27318 5.93262 9.33568 5.98991 9.36693 6.09928L11.4919 15.9326V15.9951C11.4919 16.0785 11.4398 16.1201 11.3461 16.1201H9.5961ZM7.45027 12.8285C7.45027 12.8857 7.46068 12.9118 7.49193 12.9118H8.80443C8.85651 12.9118 8.87735 12.8857 8.86693 12.8285L8.17943 8.87012C8.17943 8.84408 8.16381 8.82845 8.13777 8.82845C8.12214 8.82845 8.10651 8.84408 8.0961 8.87012L7.45027 12.8285Z" fill="#D72333"/>
<path d="M14.2926 16.1201C14.1781 16.1201 14.1156 16.068 14.1051 15.9535L12.0218 6.12012L12.001 6.07845C12.001 5.9847 12.0531 5.93262 12.1676 5.93262H14.0426C14.152 5.93262 14.2145 5.98991 14.2301 6.09928L15.2301 12.4951C15.2406 12.5368 15.2562 12.5576 15.2718 12.5576C15.2979 12.5576 15.3135 12.5368 15.3135 12.4951L16.2926 6.09928C16.3031 5.98991 16.3656 5.93262 16.4801 5.93262H18.3135C18.4385 5.93262 18.4854 5.99512 18.4593 6.12012L16.3551 15.9535C16.3395 16.068 16.277 16.1201 16.1676 16.1201H14.2926Z" fill="#D72333"/>
<path d="M24.7645 7.51595C24.7645 7.57324 24.7437 7.62012 24.702 7.66178C24.6707 7.69303 24.6395 7.70345 24.5978 7.70345H21.5562C21.4989 7.70345 21.4728 7.72428 21.4728 7.76595V10.0785C21.4728 10.1201 21.4989 10.141 21.5562 10.141H23.2853C23.3374 10.141 23.3791 10.1618 23.4103 10.2035C23.452 10.2347 23.4728 10.266 23.4728 10.3076V11.7243C23.4728 11.7816 23.452 11.8285 23.4103 11.8701C23.3791 11.9014 23.3374 11.9118 23.2853 11.9118H21.5562C21.4989 11.9118 21.4728 11.9326 21.4728 11.9743V14.2868C21.4728 14.3441 21.4989 14.3701 21.5562 14.3701H24.5978C24.6395 14.3701 24.6707 14.3857 24.702 14.4118C24.7437 14.443 24.7645 14.4847 24.7645 14.5368V15.9535C24.7645 15.9951 24.7437 16.0368 24.702 16.0785C24.6707 16.1097 24.6395 16.1201 24.5978 16.1201H19.5978C19.5562 16.1201 19.5145 16.1097 19.4728 16.0785C19.4416 16.0368 19.4312 15.9951 19.4312 15.9535V6.12012C19.4312 6.06803 19.4416 6.02637 19.4728 5.99512C19.5145 5.95345 19.5562 5.93262 19.5978 5.93262H24.5978C24.6395 5.93262 24.6707 5.95345 24.702 5.99512C24.7437 6.02637 24.7645 6.06803 24.7645 6.12012V7.51595Z" fill="#D72333"/>
<path d="M29.8003 16.1201C29.7013 16.1201 29.6388 16.0732 29.6128 15.9743L28.4878 11.9535C28.4565 11.9274 28.4305 11.9118 28.4045 11.9118H27.9253C27.868 11.9118 27.842 11.9326 27.842 11.9743V15.9535C27.842 15.9951 27.8211 16.0368 27.7795 16.0785C27.7482 16.1097 27.717 16.1201 27.6753 16.1201H25.967C25.9253 16.1201 25.8836 16.1097 25.842 16.0785C25.8107 16.0368 25.8003 15.9951 25.8003 15.9535V6.12012C25.8003 6.06803 25.8107 6.02637 25.842 5.99512C25.8836 5.95345 25.9253 5.93262 25.967 5.93262H28.9045C29.4305 5.93262 29.9045 6.06803 30.3211 6.32845C30.7482 6.57845 31.0763 6.94303 31.3003 7.41178C31.519 7.87012 31.6336 8.40658 31.6336 9.01595C31.6336 9.58887 31.519 10.0941 31.3003 10.5368C31.092 10.9691 30.7899 11.3024 30.4045 11.5368C30.3888 11.5524 30.3732 11.568 30.3628 11.5785C30.3472 11.5941 30.3472 11.6097 30.3628 11.6201L31.6961 15.9118L31.717 15.9743C31.717 16.0732 31.6597 16.1201 31.5503 16.1201H29.8003ZM27.9253 7.70345C27.868 7.70345 27.842 7.72428 27.842 7.76595V10.266C27.842 10.3076 27.868 10.3285 27.9253 10.3285H28.5711C28.8732 10.3285 29.118 10.2139 29.3003 9.97428C29.493 9.73991 29.592 9.4222 29.592 9.01595C29.592 8.61491 29.493 8.2972 29.3003 8.05762C29.118 7.82324 28.8732 7.70345 28.5711 7.70345H27.9253Z" fill="#D72333"/>
<path d="M36.7957 6.12012C36.7957 6.06803 36.8062 6.02637 36.8374 5.99512C36.8791 5.95345 36.9259 5.93262 36.9832 5.93262H38.6707C38.7124 5.93262 38.7437 5.95345 38.7749 5.99512C38.8166 6.02637 38.8374 6.06803 38.8374 6.12012V15.9535C38.8374 15.9951 38.8166 16.0368 38.7749 16.0785C38.7437 16.1097 38.7124 16.1201 38.6707 16.1201H36.7541C36.6551 16.1201 36.5874 16.0732 36.5457 15.9743L34.7541 10.3493C34.7384 10.3232 34.7176 10.3076 34.6916 10.3076C34.6759 10.3076 34.6707 10.3285 34.6707 10.3701V15.9535C34.6707 15.9951 34.6551 16.0368 34.6291 16.0785C34.5978 16.1097 34.5562 16.1201 34.5041 16.1201H32.8166C32.7749 16.1201 32.7332 16.1097 32.6916 16.0785C32.6603 16.0368 32.6499 15.9951 32.6499 15.9535V6.12012C32.6499 6.06803 32.6603 6.02637 32.6916 5.99512C32.7332 5.95345 32.7749 5.93262 32.8166 5.93262H34.7332C34.827 5.93262 34.8895 5.9847 34.9207 6.07845L36.7332 11.7243C36.7437 11.7555 36.7593 11.766 36.7749 11.766C36.8009 11.7555 36.8166 11.7347 36.8166 11.7035L36.7957 6.12012Z" fill="#D72333"/>
<path d="M44.3949 16.1201C44.2803 16.1201 44.2178 16.068 44.2074 15.9535L43.9783 14.5576C43.9783 14.516 43.9418 14.4951 43.8741 14.4951H42.0408C41.9835 14.4951 41.9574 14.516 41.9574 14.5576L41.7074 15.9535C41.7074 16.068 41.6449 16.1201 41.5199 16.1201H39.8324C39.7074 16.1201 39.6553 16.0576 39.6866 15.9326L41.8116 6.09928C41.8376 5.98991 41.9001 5.93262 41.9991 5.93262H43.9783C44.072 5.93262 44.1345 5.98991 44.1658 6.09928L46.2908 15.9326V15.9951C46.2908 16.0785 46.2387 16.1201 46.1449 16.1201H44.3949ZM42.2491 12.8285C42.2491 12.8857 42.2595 12.9118 42.2908 12.9118H43.6033C43.6553 12.9118 43.6762 12.8857 43.6658 12.8285L42.9783 8.87012C42.9783 8.84408 42.9626 8.82845 42.9366 8.82845C42.921 8.82845 42.9053 8.84408 42.8949 8.87012L42.2491 12.8285Z" fill="#D72333"/>
<path d="M49.9172 12.7036C49.8755 12.7036 49.8338 12.6932 49.7922 12.6619C49.7609 12.6203 49.7505 12.5786 49.7505 12.5369V11.1203C49.7505 11.0682 49.7609 11.0265 49.7922 10.9953C49.8338 10.9692 49.8755 10.9536 49.9172 10.9536H53.688C53.7297 10.9536 53.7609 10.9692 53.7922 10.9953C53.8338 11.0265 53.8547 11.0682 53.8547 11.1203V12.5369C53.8547 12.5786 53.8338 12.6203 53.7922 12.6619C53.7609 12.6932 53.7297 12.7036 53.688 12.7036H49.9172Z" fill="#D72333"/>
<path d="M59.5763 16.1201C59.4618 16.1201 59.3993 16.068 59.3888 15.9535L57.4305 6.12012L57.4097 6.07845C57.4097 5.9847 57.4618 5.93262 57.5763 5.93262H59.3472C59.4565 5.93262 59.519 5.98991 59.5347 6.09928L60.368 11.3285C60.368 11.3701 60.3732 11.391 60.3888 11.391C60.4149 11.391 60.4357 11.3701 60.4513 11.3285L61.243 6.09928C61.243 5.98991 61.3055 5.93262 61.4305 5.93262H62.8888C62.9982 5.93262 63.0607 5.98991 63.0763 6.09928L63.9305 11.3285C63.9409 11.3701 63.9565 11.391 63.9722 11.391C63.9982 11.391 64.019 11.3701 64.0347 11.3285L64.7638 6.09928C64.7743 5.98991 64.8368 5.93262 64.9513 5.93262H66.6805C66.8055 5.93262 66.8524 5.99512 66.8263 6.12012L64.993 15.9535C64.9774 16.068 64.9149 16.1201 64.8055 16.1201H63.2222C63.1076 16.1201 63.0451 16.068 63.0347 15.9535L62.1805 10.5785C62.1649 10.5368 62.144 10.516 62.118 10.516C62.1024 10.516 62.0972 10.5368 62.0972 10.5785L61.3263 15.9535C61.3107 16.068 61.2482 16.1201 61.1388 16.1201H59.5763Z" fill="#D72333"/>
<path d="M67.9499 16.1201C67.9082 16.1201 67.8665 16.1097 67.8249 16.0785C67.7936 16.0368 67.7832 15.9951 67.7832 15.9535V6.12012C67.7832 6.06803 67.7936 6.02637 67.8249 5.99512C67.8665 5.95345 67.9082 5.93262 67.9499 5.93262H69.6582C69.6999 5.93262 69.7311 5.95345 69.7624 5.99512C69.804 6.02637 69.8249 6.06803 69.8249 6.12012V15.9535C69.8249 15.9951 69.804 16.0368 69.7624 16.0785C69.7311 16.1097 69.6999 16.1201 69.6582 16.1201H67.9499Z" fill="#D72333"/>
<path d="M71.2946 16.1201C71.2529 16.1201 71.2113 16.1097 71.1696 16.0785C71.1383 16.0368 71.1279 15.9951 71.1279 15.9535V6.12012C71.1279 6.06803 71.1383 6.02637 71.1696 5.99512C71.2113 5.95345 71.2529 5.93262 71.2946 5.93262H73.0029C73.0446 5.93262 73.0758 5.95345 73.1071 5.99512C73.1488 6.02637 73.1696 6.06803 73.1696 6.12012V14.2868C73.1696 14.3441 73.1956 14.3701 73.2529 14.3701H76.2946C76.3467 14.3701 76.3883 14.3857 76.4196 14.4118C76.4613 14.443 76.4821 14.4847 76.4821 14.5368V15.9535C76.4821 15.9951 76.4613 16.0368 76.4196 16.0785C76.3883 16.1097 76.3467 16.1201 76.2946 16.1201H71.2946Z" fill="#D72333"/>
<path d="M77.4894 16.1201C77.4478 16.1201 77.4061 16.1097 77.3644 16.0785C77.3332 16.0368 77.3228 15.9951 77.3228 15.9535V6.12012C77.3228 6.06803 77.3332 6.02637 77.3644 5.99512C77.4061 5.95345 77.4478 5.93262 77.4894 5.93262H79.1978C79.2394 5.93262 79.2707 5.95345 79.3019 5.99512C79.3436 6.02637 79.3644 6.06803 79.3644 6.12012V14.2868C79.3644 14.3441 79.3905 14.3701 79.4478 14.3701H82.4894C82.5415 14.3701 82.5832 14.3857 82.6144 14.4118C82.6561 14.443 82.6769 14.4847 82.6769 14.5368V15.9535C82.6769 15.9951 82.6561 16.0368 82.6144 16.0785C82.5832 16.1097 82.5415 16.1201 82.4894 16.1201H77.4894Z" fill="#D72333"/>
<path d="M83.6842 16.1201C83.6426 16.1201 83.6009 16.1097 83.5592 16.0785C83.528 16.0368 83.5176 15.9951 83.5176 15.9535V6.12012C83.5176 6.06803 83.528 6.02637 83.5592 5.99512C83.6009 5.95345 83.6426 5.93262 83.6842 5.93262H85.3926C85.4342 5.93262 85.4655 5.95345 85.4967 5.99512C85.5384 6.02637 85.5592 6.06803 85.5592 6.12012V15.9535C85.5592 15.9951 85.5384 16.0368 85.4967 16.0785C85.4655 16.1097 85.4342 16.1201 85.3926 16.1201H83.6842Z" fill="#D72333"/>
<path d="M91.1332 16.1201C91.0186 16.1201 90.9561 16.068 90.9457 15.9535L90.7165 14.5576C90.7165 14.516 90.6801 14.4951 90.6124 14.4951H88.779C88.7217 14.4951 88.6957 14.516 88.6957 14.5576L88.4457 15.9535C88.4457 16.068 88.3832 16.1201 88.2582 16.1201H86.5707C86.4457 16.1201 86.3936 16.0576 86.4249 15.9326L88.5499 6.09928C88.5759 5.98991 88.6384 5.93262 88.7374 5.93262H90.7165C90.8103 5.93262 90.8728 5.98991 90.904 6.09928L93.029 15.9326V15.9951C93.029 16.0785 92.977 16.1201 92.8832 16.1201H91.1332ZM88.9874 12.8285C88.9874 12.8857 88.9978 12.9118 89.029 12.9118H90.3415C90.3936 12.9118 90.4145 12.8857 90.404 12.8285L89.7165 8.87012C89.7165 8.84408 89.7009 8.82845 89.6749 8.82845C89.6592 8.82845 89.6436 8.84408 89.6332 8.87012L88.9874 12.8285Z" fill="#D72333"/>
<path d="M98.5176 6.05762C98.5592 5.97428 98.6322 5.93262 98.7467 5.93262H100.434C100.476 5.93262 100.507 5.95345 100.538 5.99512C100.58 6.02637 100.601 6.06803 100.601 6.12012V15.9535C100.601 15.9951 100.58 16.0368 100.538 16.0785C100.507 16.1097 100.476 16.1201 100.434 16.1201H98.7259C98.6686 16.1201 98.6217 16.1097 98.5801 16.0785C98.5488 16.0368 98.5384 15.9951 98.5384 15.9535V9.41178C98.5384 9.37012 98.528 9.34928 98.5176 9.34928C98.502 9.34928 98.4811 9.37012 98.4551 9.41178L97.3301 11.4118C97.2728 11.4847 97.2311 11.516 97.2051 11.516C97.1738 11.516 97.1426 11.4847 97.1009 11.4118L95.9551 9.41178C95.9395 9.37012 95.9186 9.34928 95.8926 9.34928C95.877 9.34928 95.8717 9.37012 95.8717 9.41178V15.9535C95.8717 15.9951 95.8509 16.0368 95.8092 16.0785C95.778 16.1097 95.7467 16.1201 95.7051 16.1201H93.9967C93.9551 16.1201 93.9134 16.1097 93.8717 16.0785C93.8405 16.0368 93.8301 15.9951 93.8301 15.9535V6.12012C93.8301 6.06803 93.8405 6.02637 93.8717 5.99512C93.9134 5.95345 93.9551 5.93262 93.9967 5.93262H95.6634C95.7572 5.93262 95.8353 5.97428 95.8926 6.05762L97.1842 8.37012C97.2103 8.41178 97.2363 8.41178 97.2676 8.37012L98.5176 6.05762Z" fill="#D72333"/>
<path d="M104.445 16.2453C103.888 16.2453 103.393 16.1307 102.966 15.9119C102.534 15.6776 102.2 15.3651 101.966 14.9744C101.742 14.5734 101.632 14.1099 101.632 13.5786V13.1619C101.632 13.1099 101.643 13.0682 101.674 13.0369C101.716 12.9953 101.757 12.9744 101.799 12.9744H103.487C103.528 12.9744 103.56 12.9953 103.591 13.0369C103.632 13.0682 103.653 13.1099 103.653 13.1619V13.4744C103.653 13.7817 103.726 14.0265 103.882 14.2036C104.034 14.3859 104.226 14.4744 104.466 14.4744C104.7 14.4744 104.893 14.3911 105.049 14.2244C105.2 14.0474 105.278 13.8182 105.278 13.5369C105.278 13.2453 105.179 12.9953 104.987 12.7869C104.789 12.5786 104.414 12.2661 103.862 11.8494C103.372 11.5057 102.976 11.1984 102.674 10.9328C102.382 10.6567 102.122 10.3234 101.903 9.93278C101.695 9.53174 101.591 9.0682 101.591 8.53695C101.591 7.71924 101.846 7.0682 102.362 6.57861C102.872 6.07861 103.554 5.82861 104.403 5.82861C105.247 5.82861 105.929 6.08903 106.445 6.59945C106.971 7.11507 107.237 7.78695 107.237 8.62028V8.97445C107.237 9.01611 107.216 9.05778 107.174 9.09945C107.143 9.1307 107.101 9.14111 107.049 9.14111H105.382C105.341 9.14111 105.299 9.1307 105.257 9.09945C105.226 9.05778 105.216 9.01611 105.216 8.97445V8.57861C105.216 8.27653 105.138 8.03174 104.987 7.84945C104.83 7.67236 104.638 7.57861 104.403 7.57861C104.164 7.57861 103.971 7.67236 103.82 7.84945C103.679 8.01611 103.612 8.24528 103.612 8.53695C103.612 8.82861 103.7 9.08903 103.882 9.30778C104.06 9.53174 104.424 9.84424 104.966 10.2453C105.575 10.6932 106.034 11.0526 106.341 11.3286C106.643 11.6099 106.882 11.9119 107.049 12.2453C107.216 12.5786 107.299 12.9849 107.299 13.4536C107.299 14.3026 107.034 14.9849 106.507 15.4953C105.992 15.9953 105.304 16.2453 104.445 16.2453Z" fill="#D72333"/>
<path d="M117.039 13.3076C117.039 14.2139 116.768 14.9066 116.226 15.391C115.685 15.8805 114.982 16.1201 114.122 16.1201H111.372C111.331 16.1201 111.289 16.1097 111.247 16.0785C111.216 16.0368 111.206 15.9951 111.206 15.9535V6.12012C111.206 6.06803 111.216 6.02637 111.247 5.99512C111.289 5.95345 111.331 5.93262 111.372 5.93262H113.81C114.768 5.93262 115.518 6.1722 116.06 6.64095C116.612 7.09928 116.893 7.7972 116.893 8.72428C116.893 9.68262 116.565 10.3805 115.914 10.8076C115.872 10.8389 115.862 10.8649 115.893 10.891C116.653 11.4482 117.039 12.2555 117.039 13.3076ZM113.331 7.70345C113.273 7.70345 113.247 7.72428 113.247 7.76595V10.0576C113.247 10.0993 113.273 10.1201 113.331 10.1201H113.851C114.169 10.1201 114.419 10.016 114.601 9.80762C114.794 9.59928 114.893 9.30762 114.893 8.93262C114.893 8.5472 114.799 8.24512 114.622 8.03678C114.44 7.81803 114.185 7.70345 113.851 7.70345H113.331ZM113.956 14.3493C114.273 14.3493 114.523 14.2347 114.706 13.9951C114.898 13.7607 114.997 13.4326 114.997 13.016C114.997 12.5889 114.898 12.2451 114.706 11.9951C114.523 11.7451 114.278 11.6201 113.976 11.6201H113.331C113.273 11.6201 113.247 11.641 113.247 11.6826V14.266C113.247 14.3232 113.273 14.3493 113.331 14.3493H113.956Z" fill="#D72333"/>
<path d="M118.207 16.1201C118.166 16.1201 118.124 16.1097 118.082 16.0785C118.051 16.0368 118.041 15.9951 118.041 15.9535V6.12012C118.041 6.06803 118.051 6.02637 118.082 5.99512C118.124 5.95345 118.166 5.93262 118.207 5.93262H119.916C119.957 5.93262 119.988 5.95345 120.02 5.99512C120.061 6.02637 120.082 6.06803 120.082 6.12012V15.9535C120.082 15.9951 120.061 16.0368 120.02 16.0785C119.988 16.1097 119.957 16.1201 119.916 16.1201H118.207Z" fill="#D72333"/>
<path d="M125.385 16.1201C125.286 16.1201 125.224 16.0732 125.198 15.9743L124.073 11.9535C124.042 11.9274 124.015 11.9118 123.989 11.9118H123.51C123.453 11.9118 123.427 11.9326 123.427 11.9743V15.9535C123.427 15.9951 123.406 16.0368 123.364 16.0785C123.333 16.1097 123.302 16.1201 123.26 16.1201H121.552C121.51 16.1201 121.469 16.1097 121.427 16.0785C121.396 16.0368 121.385 15.9951 121.385 15.9535V6.12012C121.385 6.06803 121.396 6.02637 121.427 5.99512C121.469 5.95345 121.51 5.93262 121.552 5.93262H124.489C125.015 5.93262 125.489 6.06803 125.906 6.32845C126.333 6.57845 126.661 6.94303 126.885 7.41178C127.104 7.87012 127.219 8.40658 127.219 9.01595C127.219 9.58887 127.104 10.0941 126.885 10.5368C126.677 10.9691 126.375 11.3024 125.989 11.5368C125.974 11.5524 125.958 11.568 125.948 11.5785C125.932 11.5941 125.932 11.6097 125.948 11.6201L127.281 15.9118L127.302 15.9743C127.302 16.0732 127.245 16.1201 127.135 16.1201H125.385ZM123.51 7.70345C123.453 7.70345 123.427 7.72428 123.427 7.76595V10.266C123.427 10.3076 123.453 10.3285 123.51 10.3285H124.156C124.458 10.3285 124.703 10.2139 124.885 9.97428C125.078 9.73991 125.177 9.4222 125.177 9.01595C125.177 8.61491 125.078 8.2972 124.885 8.05762C124.703 7.82324 124.458 7.70345 124.156 7.70345H123.51Z" fill="#D72333"/>
<path d="M132.38 6.12012C132.38 6.06803 132.391 6.02637 132.422 5.99512C132.464 5.95345 132.51 5.93262 132.568 5.93262H134.255C134.297 5.93262 134.328 5.95345 134.359 5.99512C134.401 6.02637 134.422 6.06803 134.422 6.12012V15.9535C134.422 15.9951 134.401 16.0368 134.359 16.0785C134.328 16.1097 134.297 16.1201 134.255 16.1201H132.339C132.24 16.1201 132.172 16.0732 132.13 15.9743L130.339 10.3493C130.323 10.3232 130.302 10.3076 130.276 10.3076C130.26 10.3076 130.255 10.3285 130.255 10.3701V15.9535C130.255 15.9951 130.24 16.0368 130.214 16.0785C130.182 16.1097 130.141 16.1201 130.089 16.1201H128.401C128.359 16.1201 128.318 16.1097 128.276 16.0785C128.245 16.0368 128.234 15.9951 128.234 15.9535V6.12012C128.234 6.06803 128.245 6.02637 128.276 5.99512C128.318 5.95345 128.359 5.93262 128.401 5.93262H130.318C130.411 5.93262 130.474 5.9847 130.505 6.07845L132.318 11.7243C132.328 11.7555 132.344 11.766 132.359 11.766C132.385 11.7555 132.401 11.7347 132.401 11.7035L132.38 6.12012Z" fill="#D72333"/>
<path d="M141.042 7.51595C141.042 7.57324 141.021 7.62012 140.98 7.66178C140.949 7.69303 140.917 7.70345 140.876 7.70345H137.834C137.777 7.70345 137.751 7.72428 137.751 7.76595V10.0785C137.751 10.1201 137.777 10.141 137.834 10.141H139.563C139.615 10.141 139.657 10.1618 139.688 10.2035C139.73 10.2347 139.751 10.266 139.751 10.3076V11.7243C139.751 11.7816 139.73 11.8285 139.688 11.8701C139.657 11.9014 139.615 11.9118 139.563 11.9118H137.834C137.777 11.9118 137.751 11.9326 137.751 11.9743V14.2868C137.751 14.3441 137.777 14.3701 137.834 14.3701H140.876C140.917 14.3701 140.949 14.3857 140.98 14.4118C141.021 14.443 141.042 14.4847 141.042 14.5368V15.9535C141.042 15.9951 141.021 16.0368 140.98 16.0785C140.949 16.1097 140.917 16.1201 140.876 16.1201H135.876C135.834 16.1201 135.792 16.1097 135.751 16.0785C135.719 16.0368 135.709 15.9951 135.709 15.9535V6.12012C135.709 6.06803 135.719 6.02637 135.751 5.99512C135.792 5.95345 135.834 5.93262 135.876 5.93262H140.876C140.917 5.93262 140.949 5.95345 140.98 5.99512C141.021 6.02637 141.042 6.06803 141.042 6.12012V7.51595Z" fill="#D72333"/>
<path d="M144.862 12.7036C144.82 12.7036 144.779 12.6932 144.737 12.6619C144.706 12.6203 144.695 12.5786 144.695 12.5369V11.1203C144.695 11.0682 144.706 11.0265 144.737 10.9953C144.779 10.9692 144.82 10.9536 144.862 10.9536H148.633C148.674 10.9536 148.706 10.9692 148.737 10.9953C148.779 11.0265 148.799 11.0682 148.799 11.1203V12.5369C148.799 12.5786 148.779 12.6203 148.737 12.6619C148.706 12.6932 148.674 12.7036 148.633 12.7036H144.862Z" fill="#D72333"/>
<path d="M152.875 16.1201C152.833 16.1201 152.792 16.1097 152.75 16.0785C152.719 16.0368 152.708 15.9951 152.708 15.9535V6.12012C152.708 6.06803 152.719 6.02637 152.75 5.99512C152.792 5.95345 152.833 5.93262 152.875 5.93262H154.583C154.625 5.93262 154.656 5.95345 154.688 5.99512C154.729 6.02637 154.75 6.06803 154.75 6.12012V15.9535C154.75 15.9951 154.729 16.0368 154.688 16.0785C154.656 16.1097 154.625 16.1201 154.583 16.1201H152.875Z" fill="#D72333"/>
<path d="M158.803 16.2453C157.928 16.2453 157.225 15.9953 156.699 15.4953C156.168 14.9953 155.907 14.3286 155.907 13.4953V8.57861C155.907 7.74528 156.168 7.07861 156.699 6.57861C157.225 6.07861 157.928 5.82861 158.803 5.82861C159.662 5.82861 160.355 6.07861 160.886 6.57861C161.428 7.07861 161.699 7.74528 161.699 8.57861V9.14111C161.699 9.18278 161.678 9.22445 161.636 9.26611C161.605 9.29736 161.574 9.30778 161.532 9.30778H159.824C159.782 9.30778 159.741 9.29736 159.699 9.26611C159.668 9.22445 159.657 9.18278 159.657 9.14111V8.55778C159.657 8.26611 159.574 8.03174 159.407 7.84945C159.251 7.67236 159.053 7.57861 158.803 7.57861C158.537 7.57861 158.329 7.67236 158.178 7.84945C158.022 8.03174 157.949 8.26611 157.949 8.55778V13.4953C157.949 13.7869 158.022 14.0265 158.178 14.2036C158.329 14.3859 158.537 14.4744 158.803 14.4744C159.053 14.4744 159.251 14.3859 159.407 14.2036C159.574 14.0265 159.657 13.7869 159.657 13.4953V12.3494C159.657 12.2974 159.626 12.2661 159.574 12.2661H158.949C158.892 12.2661 158.845 12.2557 158.803 12.2244C158.772 12.1828 158.761 12.1411 158.761 12.0994V10.8078C158.761 10.7557 158.772 10.714 158.803 10.6828C158.845 10.6411 158.892 10.6203 158.949 10.6203H161.532C161.574 10.6203 161.605 10.6411 161.636 10.6828C161.678 10.714 161.699 10.7557 161.699 10.8078V13.4953C161.699 14.3286 161.428 14.9953 160.886 15.4953C160.355 15.9953 159.662 16.2453 158.803 16.2453Z" fill="#D72333"/>
<path d="M166.99 6.12012C166.99 6.06803 167 6.02637 167.032 5.99512C167.073 5.95345 167.12 5.93262 167.178 5.93262H168.865C168.907 5.93262 168.938 5.95345 168.969 5.99512C169.011 6.02637 169.032 6.06803 169.032 6.12012V15.9535C169.032 15.9951 169.011 16.0368 168.969 16.0785C168.938 16.1097 168.907 16.1201 168.865 16.1201H166.948C166.849 16.1201 166.782 16.0732 166.74 15.9743L164.948 10.3493C164.933 10.3232 164.912 10.3076 164.886 10.3076C164.87 10.3076 164.865 10.3285 164.865 10.3701V15.9535C164.865 15.9951 164.849 16.0368 164.823 16.0785C164.792 16.1097 164.75 16.1201 164.698 16.1201H163.011C162.969 16.1201 162.928 16.1097 162.886 16.0785C162.855 16.0368 162.844 15.9951 162.844 15.9535V6.12012C162.844 6.06803 162.855 6.02637 162.886 5.99512C162.928 5.95345 162.969 5.93262 163.011 5.93262H164.928C165.021 5.93262 165.084 5.9847 165.115 6.07845L166.928 11.7243C166.938 11.7555 166.954 11.766 166.969 11.766C166.995 11.7555 167.011 11.7347 167.011 11.7035L166.99 6.12012Z" fill="#D72333"/>
<path d="M174.59 16.1201C174.475 16.1201 174.413 16.068 174.402 15.9535L174.173 14.5576C174.173 14.516 174.137 14.4951 174.069 14.4951H172.236C172.178 14.4951 172.152 14.516 172.152 14.5576L171.902 15.9535C171.902 16.068 171.84 16.1201 171.715 16.1201H170.027C169.902 16.1201 169.85 16.0576 169.881 15.9326L172.006 6.09928C172.032 5.98991 172.095 5.93262 172.194 5.93262H174.173C174.267 5.93262 174.329 5.98991 174.361 6.09928L176.486 15.9326V15.9951C176.486 16.0785 176.434 16.1201 176.34 16.1201H174.59ZM172.444 12.8285C172.444 12.8857 172.454 12.9118 172.486 12.9118H173.798C173.85 12.9118 173.871 12.8857 173.861 12.8285L173.173 8.87012C173.173 8.84408 173.157 8.82845 173.131 8.82845C173.116 8.82845 173.1 8.84408 173.09 8.87012L172.444 12.8285Z" fill="#D72333"/>
<path d="M177.141 16.1201C177.099 16.1201 177.057 16.1097 177.016 16.0785C176.985 16.0368 176.974 15.9951 176.974 15.9535V14.4743C176.974 14.4066 176.985 14.3389 177.016 14.266L180.12 7.78678C180.13 7.76074 180.13 7.73991 180.12 7.72428C180.12 7.71387 180.104 7.70345 180.078 7.70345H177.141C177.099 7.70345 177.057 7.69303 177.016 7.66178C176.985 7.62012 176.974 7.57324 176.974 7.51595V6.12012C176.974 6.06803 176.985 6.02637 177.016 5.99512C177.057 5.95345 177.099 5.93262 177.141 5.93262H182.141C182.193 5.93262 182.235 5.95345 182.266 5.99512C182.307 6.02637 182.328 6.06803 182.328 6.12012V7.57845C182.328 7.65137 182.313 7.72428 182.287 7.80762L179.162 14.266C179.162 14.2972 179.162 14.3232 179.162 14.3493C179.172 14.3649 179.193 14.3701 179.224 14.3701H182.141C182.193 14.3701 182.235 14.3857 182.266 14.4118C182.307 14.443 182.328 14.4847 182.328 14.5368V15.9535C182.328 15.9951 182.307 16.0368 182.266 16.0785C182.235 16.1097 182.193 16.1201 182.141 16.1201H177.141Z" fill="#D72333"/>
<path d="M188.186 16.1201C188.072 16.1201 188.009 16.068 187.999 15.9535L185.915 6.12012L185.895 6.07845C185.895 5.9847 185.947 5.93262 186.061 5.93262H187.936C188.046 5.93262 188.108 5.98991 188.124 6.09928L189.124 12.4951C189.134 12.5368 189.15 12.5576 189.165 12.5576C189.191 12.5576 189.207 12.5368 189.207 12.4951L190.186 6.09928C190.197 5.98991 190.259 5.93262 190.374 5.93262H192.207C192.332 5.93262 192.379 5.99512 192.353 6.12012L190.249 15.9535C190.233 16.068 190.171 16.1201 190.061 16.1201H188.186Z" fill="#D72333"/>
<path d="M196.116 16.2453C195.226 16.2453 194.512 15.9849 193.97 15.4536C193.439 14.9276 193.179 14.2244 193.179 13.3494V8.70361C193.179 7.82861 193.439 7.13591 193.97 6.62028C194.512 6.09424 195.226 5.82861 196.116 5.82861C197.002 5.82861 197.71 6.09424 198.241 6.62028C198.783 7.13591 199.054 7.82861 199.054 8.70361V13.3494C199.054 14.2244 198.783 14.9276 198.241 15.4536C197.71 15.9849 197.002 16.2453 196.116 16.2453ZM196.116 14.4744C196.377 14.4744 196.595 14.3859 196.762 14.2036C196.929 14.0109 197.012 13.7609 197.012 13.4536V8.62028C197.012 8.30257 196.929 8.05257 196.762 7.87028C196.595 7.67757 196.377 7.57861 196.116 7.57861C195.835 7.57861 195.616 7.67757 195.45 7.87028C195.293 8.05257 195.22 8.30257 195.22 8.62028V13.4536C195.22 13.7609 195.293 14.0109 195.45 14.2036C195.616 14.3859 195.835 14.4744 196.116 14.4744Z" fill="#D72333"/>
<path d="M200.369 16.1201C200.328 16.1201 200.286 16.1097 200.244 16.0785C200.213 16.0368 200.203 15.9951 200.203 15.9535V6.12012C200.203 6.06803 200.213 6.02637 200.244 5.99512C200.286 5.95345 200.328 5.93262 200.369 5.93262H202.994C203.88 5.93262 204.588 6.19303 205.119 6.70345C205.661 7.21908 205.932 7.90658 205.932 8.76595V13.3076C205.932 14.1566 205.661 14.8389 205.119 15.3493C204.588 15.8649 203.88 16.1201 202.994 16.1201H200.369ZM202.244 14.2868C202.244 14.3441 202.27 14.3701 202.328 14.3701L202.973 14.3493C203.234 14.3389 203.453 14.2243 203.619 14.016C203.786 13.7972 203.869 13.5107 203.869 13.1618V8.89095C203.869 8.53158 203.786 8.24512 203.619 8.03678C203.463 7.81803 203.244 7.70345 202.953 7.70345H202.328C202.27 7.70345 202.244 7.72428 202.244 7.76595V14.2868Z" fill="#D72333"/>
<path d="M207.292 16.1201C207.25 16.1201 207.208 16.1097 207.167 16.0785C207.135 16.0368 207.125 15.9951 207.125 15.9535V6.12012C207.125 6.06803 207.135 6.02637 207.167 5.99512C207.208 5.95345 207.25 5.93262 207.292 5.93262H209C209.042 5.93262 209.073 5.95345 209.104 5.99512C209.146 6.02637 209.167 6.06803 209.167 6.12012V9.78678C209.167 9.81803 209.177 9.83887 209.208 9.84928C209.234 9.84928 209.25 9.82845 209.25 9.78678L211.125 6.07845C211.177 5.9847 211.25 5.93262 211.333 5.93262H213.146C213.214 5.93262 213.255 5.95345 213.271 5.99512C213.297 6.02637 213.297 6.07324 213.271 6.14095L211.125 10.3285C211.109 10.3701 211.104 10.4014 211.104 10.4118L213.396 15.9118C213.396 15.943 213.396 15.9691 213.396 15.9951C213.396 16.0785 213.344 16.1201 213.25 16.1201H211.438C211.323 16.1201 211.255 16.0785 211.229 15.9951L209.729 12.1826C209.714 12.1566 209.693 12.141 209.667 12.141C209.651 12.141 209.635 12.1566 209.625 12.1826L209.208 12.9326C209.177 12.9743 209.167 13.0055 209.167 13.016V15.9535C209.167 15.9951 209.146 16.0368 209.104 16.0785C209.073 16.1097 209.042 16.1201 209 16.1201H207.292Z" fill="#D72333"/>
<path d="M218.536 16.1201C218.421 16.1201 218.358 16.068 218.348 15.9535L218.119 14.5576C218.119 14.516 218.082 14.4951 218.015 14.4951H216.181C216.124 14.4951 216.098 14.516 216.098 14.5576L215.848 15.9535C215.848 16.068 215.786 16.1201 215.661 16.1201H213.973C213.848 16.1201 213.796 16.0576 213.827 15.9326L215.952 6.09928C215.978 5.98991 216.041 5.93262 216.14 5.93262H218.119C218.213 5.93262 218.275 5.98991 218.306 6.09928L220.431 15.9326V15.9951C220.431 16.0785 220.379 16.1201 220.286 16.1201H218.536ZM216.39 12.8285C216.39 12.8857 216.4 12.9118 216.431 12.9118H217.744C217.796 12.9118 217.817 12.8857 217.806 12.8285L217.119 8.87012C217.119 8.84408 217.103 8.82845 217.077 8.82845C217.062 8.82845 217.046 8.84408 217.036 8.87012L216.39 12.8285Z" fill="#D72333"/>
<path d="M95.6525 36.0894C94.9442 36.0894 94.3608 35.8706 93.9025 35.4227C93.4546 34.9644 93.2358 34.3706 93.2358 33.631V32.4019C93.2358 32.3081 93.2827 32.256 93.3817 32.256H94.1317C94.2254 32.256 94.2775 32.3081 94.2775 32.4019V33.631C94.2775 34.0894 94.4025 34.4644 94.6525 34.756C94.9025 35.0373 95.2358 35.1727 95.6525 35.1727C96.0692 35.1727 96.4025 35.0373 96.6525 34.756C96.9129 34.4644 97.0483 34.0894 97.0483 33.631V25.9227C97.0483 25.8289 97.0952 25.7769 97.1942 25.7769H97.9233C98.0171 25.7769 98.0692 25.8289 98.0692 25.9227V33.631C98.0692 34.3706 97.8452 34.9644 97.4025 35.4227C96.9546 35.8706 96.3713 36.0894 95.6525 36.0894Z" fill="#D72333"/>
<path d="M104.785 26.5477C104.785 26.6466 104.733 26.6935 104.639 26.6935H101.264C101.223 26.6935 101.202 26.7091 101.202 26.7352V30.3602C101.202 30.3914 101.223 30.4019 101.264 30.4019H103.389C103.473 30.4019 103.514 30.4539 103.514 30.5477V31.1727C103.514 31.2716 103.473 31.3185 103.389 31.3185H101.264C101.223 31.3185 101.202 31.3394 101.202 31.381V35.006C101.202 35.0477 101.223 35.0685 101.264 35.0685H104.639C104.733 35.0685 104.785 35.1206 104.785 35.2144V35.8185C104.785 35.9175 104.733 35.9644 104.639 35.9644H100.306C100.207 35.9644 100.16 35.9175 100.16 35.8185V25.9227C100.16 25.8289 100.207 25.7769 100.306 25.7769H104.639C104.733 25.7769 104.785 25.8289 104.785 25.9227V26.5477Z" fill="#D72333"/>
<path d="M113.828 32.2352C113.921 32.2352 113.973 32.2873 113.973 32.381V33.0269C113.973 33.1258 113.921 33.1727 113.828 33.1727H113.39C113.348 33.1727 113.328 33.1935 113.328 33.2352V35.8185C113.328 35.9175 113.276 35.9644 113.182 35.9644H112.432C112.333 35.9644 112.286 35.9175 112.286 35.8185V33.2352C112.286 33.1935 112.27 33.1727 112.244 33.1727H108.723C108.625 33.1727 108.578 33.1258 108.578 33.0269V32.4644C108.578 32.4383 108.588 32.381 108.619 32.2977L110.786 25.9019C110.828 25.8185 110.89 25.7769 110.973 25.7769H111.765C111.875 25.7769 111.916 25.8341 111.89 25.9435L109.786 32.1727C109.786 32.1883 109.786 32.2039 109.786 32.2144C109.796 32.23 109.812 32.2352 109.828 32.2352H112.244C112.27 32.2352 112.286 32.2248 112.286 32.1935V29.9644C112.286 29.8706 112.333 29.8185 112.432 29.8185H113.182C113.276 29.8185 113.328 29.8706 113.328 29.9644V32.1935C113.328 32.2248 113.348 32.2352 113.39 32.2352H113.828Z" fill="#D72333"/>
<path d="M115.675 35.9437C115.436 35.9437 115.243 35.8708 115.092 35.7145C114.936 35.5479 114.863 35.3551 114.863 35.1312C114.863 34.8812 114.936 34.6833 115.092 34.527C115.243 34.376 115.436 34.2979 115.675 34.2979C115.91 34.2979 116.102 34.376 116.259 34.527C116.41 34.6833 116.488 34.8812 116.488 35.1312C116.488 35.3551 116.41 35.5479 116.259 35.7145C116.102 35.8708 115.91 35.9437 115.675 35.9437Z" fill="#D72333"/>
<path d="M122.334 31.4644C122.428 31.8289 122.48 32.2925 122.48 32.8602C122.48 33.3081 122.443 33.7091 122.376 34.0685C122.277 34.7248 122.032 35.2248 121.646 35.5685C121.271 35.9175 120.771 36.0894 120.146 36.0894C119.521 36.0894 119.011 35.9227 118.626 35.5894C118.235 35.2456 117.99 34.73 117.896 34.0477L117.855 33.6102V33.5894C117.855 33.506 117.896 33.4644 117.98 33.4644H118.73C118.824 33.4644 118.876 33.5164 118.876 33.6102L118.917 33.9644C119.084 34.7716 119.49 35.1727 120.146 35.1727C120.449 35.1727 120.709 35.0789 120.917 34.881C121.126 34.6883 121.261 34.3966 121.334 34.006C121.402 33.7039 121.438 33.3185 121.438 32.8602C121.438 32.3758 121.396 31.9591 121.313 31.6102C121.131 30.9331 120.74 30.5894 120.146 30.5894C119.48 30.5894 119.063 30.9227 118.896 31.5894C118.865 31.6727 118.813 31.7144 118.73 31.7144H117.98C117.881 31.7144 117.834 31.6675 117.834 31.5685V25.9227C117.834 25.8289 117.881 25.7769 117.98 25.7769H122.105C122.188 25.7769 122.23 25.8289 122.23 25.9227V26.5477C122.23 26.6466 122.188 26.6935 122.105 26.6935H118.917C118.886 26.6935 118.876 26.7091 118.876 26.7352L118.855 30.3602C118.855 30.3758 118.86 30.3914 118.876 30.4019C118.886 30.4019 118.902 30.3966 118.917 30.381C119.084 30.1466 119.292 29.9748 119.542 29.8602C119.803 29.7352 120.094 29.6727 120.417 29.6727C120.928 29.6727 121.344 29.8289 121.667 30.131C122.001 30.4383 122.219 30.881 122.334 31.4644Z" fill="#D72333"/>
<path d="M126.219 36.11C125.479 36.11 124.886 35.8757 124.427 35.4017C123.979 34.9173 123.761 34.2871 123.761 33.5059V28.235C123.761 27.4746 123.979 26.8496 124.427 26.36C124.886 25.8757 125.479 25.6309 126.219 25.6309C126.969 25.6309 127.573 25.8757 128.032 26.36C128.49 26.8496 128.719 27.4746 128.719 28.235V33.5059C128.719 34.2871 128.49 34.9173 128.032 35.4017C127.573 35.8757 126.969 36.11 126.219 36.11ZM126.219 35.2142C126.662 35.2142 127.016 35.0632 127.282 34.7559C127.542 34.4538 127.677 34.0579 127.677 33.5684V28.1934C127.677 27.6934 127.542 27.2975 127.282 27.0059C127.016 26.7038 126.662 26.5475 126.219 26.5475C125.802 26.5475 125.459 26.7038 125.198 27.0059C124.933 27.2975 124.802 27.6934 124.802 28.1934V33.5684C124.802 34.0579 124.933 34.4538 125.198 34.7559C125.459 35.0632 125.802 35.2142 126.219 35.2142Z" fill="#D72333"/>
<path d="M49.8952 55.9331C49.0306 55.9331 48.3379 55.6831 47.8118 55.1831C47.2962 54.6831 47.041 54.0164 47.041 53.1831V52.1831C47.041 52.1414 47.0514 52.1102 47.0827 52.0789C47.1243 52.0373 47.166 52.0164 47.2077 52.0164H48.916C48.9577 52.0164 48.9889 52.0373 49.0202 52.0789C49.0618 52.1102 49.0827 52.1414 49.0827 52.1831V53.2248C49.0827 53.506 49.1504 53.7352 49.291 53.9123C49.4421 54.0789 49.6452 54.1623 49.8952 54.1623C50.1452 54.1623 50.3379 54.0789 50.4785 53.9123C50.6296 53.7352 50.7077 53.506 50.7077 53.2248V45.8081C50.7077 45.756 50.7181 45.7144 50.7493 45.6831C50.791 45.6414 50.8379 45.6206 50.8952 45.6206H52.5827C52.6348 45.6206 52.6764 45.6414 52.7077 45.6831C52.7493 45.7144 52.7702 45.756 52.7702 45.8081V53.1831C52.7702 54.0164 52.5046 54.6831 51.9785 55.1831C51.4473 55.6831 50.7546 55.9331 49.8952 55.9331Z" fill="#D72333"/>
<path d="M58.3222 55.8081C58.2076 55.8081 58.1451 55.756 58.1347 55.6414L57.9055 54.2456C57.9055 54.2039 57.869 54.1831 57.8013 54.1831H55.968C55.9107 54.1831 55.8847 54.2039 55.8847 54.2456L55.6347 55.6414C55.6347 55.756 55.5722 55.8081 55.4472 55.8081H53.7597C53.6347 55.8081 53.5826 55.7456 53.6138 55.6206L55.7388 45.7873C55.7649 45.6779 55.8274 45.6206 55.9263 45.6206H57.9055C57.9993 45.6206 58.0618 45.6779 58.093 45.7873L60.218 55.6206V55.6831C60.218 55.7664 60.1659 55.8081 60.0722 55.8081H58.3222ZM56.1763 52.5164C56.1763 52.5737 56.1868 52.5998 56.218 52.5998H57.5305C57.5826 52.5998 57.6034 52.5737 57.593 52.5164L56.9055 48.5581C56.9055 48.5321 56.8899 48.5164 56.8638 48.5164C56.8482 48.5164 56.8326 48.5321 56.8222 48.5581L56.1763 52.5164Z" fill="#D72333"/>
<path d="M65.7065 45.7456C65.7482 45.6623 65.8211 45.6206 65.9357 45.6206H67.6232C67.6649 45.6206 67.6961 45.6414 67.7274 45.6831C67.769 45.7144 67.7899 45.756 67.7899 45.8081V55.6414C67.7899 55.6831 67.769 55.7248 67.7274 55.7664C67.6961 55.7977 67.6649 55.8081 67.6232 55.8081H65.9149C65.8576 55.8081 65.8107 55.7977 65.769 55.7664C65.7378 55.7248 65.7274 55.6831 65.7274 55.6414V49.0998C65.7274 49.0581 65.717 49.0373 65.7065 49.0373C65.6909 49.0373 65.6701 49.0581 65.644 49.0998L64.519 51.0998C64.4618 51.1727 64.4201 51.2039 64.394 51.2039C64.3628 51.2039 64.3315 51.1727 64.2899 51.0998L63.144 49.0998C63.1284 49.0581 63.1076 49.0373 63.0815 49.0373C63.0659 49.0373 63.0607 49.0581 63.0607 49.0998V55.6414C63.0607 55.6831 63.0399 55.7248 62.9982 55.7664C62.967 55.7977 62.9357 55.8081 62.894 55.8081H61.1857C61.144 55.8081 61.1024 55.7977 61.0607 55.7664C61.0295 55.7248 61.019 55.6831 61.019 55.6414V45.8081C61.019 45.756 61.0295 45.7144 61.0607 45.6831C61.1024 45.6414 61.144 45.6206 61.1857 45.6206H62.8524C62.9461 45.6206 63.0243 45.6623 63.0815 45.7456L64.3732 48.0581C64.3993 48.0998 64.4253 48.0998 64.4565 48.0581L65.7065 45.7456Z" fill="#D72333"/>
<path d="M74.3631 47.2039C74.3631 47.2612 74.3423 47.3081 74.3006 47.3498C74.2694 47.381 74.2381 47.3914 74.1965 47.3914H71.1548C71.0975 47.3914 71.0715 47.4123 71.0715 47.4539V49.7664C71.0715 49.8081 71.0975 49.8289 71.1548 49.8289H72.884C72.936 49.8289 72.9777 49.8498 73.009 49.8914C73.0506 49.9227 73.0715 49.9539 73.0715 49.9956V51.4123C73.0715 51.4696 73.0506 51.5164 73.009 51.5581C72.9777 51.5894 72.936 51.5998 72.884 51.5998H71.1548C71.0975 51.5998 71.0715 51.6206 71.0715 51.6623V53.9748C71.0715 54.0321 71.0975 54.0581 71.1548 54.0581H74.1965C74.2381 54.0581 74.2694 54.0737 74.3006 54.0998C74.3423 54.131 74.3631 54.1727 74.3631 54.2248V55.6414C74.3631 55.6831 74.3423 55.7248 74.3006 55.7664C74.2694 55.7977 74.2381 55.8081 74.1965 55.8081H69.1965C69.1548 55.8081 69.1131 55.7977 69.0715 55.7664C69.0402 55.7248 69.0298 55.6831 69.0298 55.6414V45.8081C69.0298 45.756 69.0402 45.7144 69.0715 45.6831C69.1131 45.6414 69.1548 45.6206 69.1965 45.6206H74.1965C74.2381 45.6206 74.2694 45.6414 74.3006 45.6831C74.3423 45.7144 74.3631 45.756 74.3631 45.8081V47.2039Z" fill="#D72333"/>
<path d="M78.0031 55.9333C77.4458 55.9333 76.951 55.8187 76.5239 55.5999C76.0916 55.3656 75.7583 55.0531 75.5239 54.6624C75.3 54.2614 75.1906 53.7979 75.1906 53.2666V52.8499C75.1906 52.7979 75.201 52.7562 75.2323 52.7249C75.2739 52.6833 75.3156 52.6624 75.3573 52.6624H77.0448C77.0864 52.6624 77.1177 52.6833 77.1489 52.7249C77.1906 52.7562 77.2114 52.7979 77.2114 52.8499V53.1624C77.2114 53.4697 77.2843 53.7145 77.4406 53.8916C77.5916 54.0739 77.7843 54.1624 78.0239 54.1624C78.2583 54.1624 78.451 54.0791 78.6073 53.9124C78.7583 53.7354 78.8364 53.5062 78.8364 53.2249C78.8364 52.9333 78.7375 52.6833 78.5448 52.4749C78.3468 52.2666 77.9718 51.9541 77.4198 51.5374C76.9302 51.1937 76.5343 50.8864 76.2323 50.6208C75.9406 50.3447 75.6802 50.0114 75.4614 49.6208C75.2531 49.2197 75.1489 48.7562 75.1489 48.2249C75.1489 47.4072 75.4041 46.7562 75.9198 46.2666C76.4302 45.7666 77.1125 45.5166 77.9614 45.5166C78.8052 45.5166 79.4875 45.777 80.0031 46.2874C80.5291 46.8031 80.7948 47.4749 80.7948 48.3083V48.6624C80.7948 48.7041 80.7739 48.7458 80.7323 48.7874C80.701 48.8187 80.6593 48.8291 80.6073 48.8291H78.9406C78.8989 48.8291 78.8573 48.8187 78.8156 48.7874C78.7843 48.7458 78.7739 48.7041 78.7739 48.6624V48.2666C78.7739 47.9645 78.6958 47.7197 78.5448 47.5374C78.3885 47.3604 78.1958 47.2666 77.9614 47.2666C77.7218 47.2666 77.5291 47.3604 77.3781 47.5374C77.2375 47.7041 77.1698 47.9333 77.1698 48.2249C77.1698 48.5166 77.2583 48.777 77.4406 48.9958C77.6177 49.2197 77.9823 49.5322 78.5239 49.9333C79.1333 50.3812 79.5916 50.7406 79.8989 51.0166C80.201 51.2979 80.4406 51.5999 80.6073 51.9333C80.7739 52.2666 80.8573 52.6729 80.8573 53.1416C80.8573 53.9906 80.5916 54.6729 80.0656 55.1833C79.55 55.6833 78.8625 55.9333 78.0031 55.9333Z" fill="#D72333"/>
<path d="M84.6475 55.9333C83.7568 55.9333 83.0433 55.6729 82.5016 55.1416C81.9704 54.6156 81.71 53.9124 81.71 53.0374V48.3916C81.71 47.5166 81.9704 46.8239 82.5016 46.3083C83.0433 45.7822 83.7568 45.5166 84.6475 45.5166C85.5329 45.5166 86.2412 45.7822 86.7725 46.3083C87.3141 46.8239 87.585 47.5166 87.585 48.3916V53.0374C87.585 53.9124 87.3141 54.6156 86.7725 55.1416C86.2412 55.6729 85.5329 55.9333 84.6475 55.9333ZM84.6475 54.1624C84.9079 54.1624 85.1266 54.0739 85.2933 53.8916C85.46 53.6989 85.5433 53.4489 85.5433 53.1416V48.3083C85.5433 47.9906 85.46 47.7406 85.2933 47.5583C85.1266 47.3656 84.9079 47.2666 84.6475 47.2666C84.3662 47.2666 84.1475 47.3656 83.9808 47.5583C83.8245 47.7406 83.7516 47.9906 83.7516 48.3083V53.1416C83.7516 53.4489 83.8245 53.6989 83.9808 53.8916C84.1475 54.0739 84.3662 54.1624 84.6475 54.1624Z" fill="#D72333"/>
<path d="M92.8797 45.8081C92.8797 45.756 92.8901 45.7144 92.9214 45.6831C92.9631 45.6414 93.0099 45.6206 93.0672 45.6206H94.7547C94.7964 45.6206 94.8276 45.6414 94.8589 45.6831C94.9006 45.7144 94.9214 45.756 94.9214 45.8081V55.6414C94.9214 55.6831 94.9006 55.7248 94.8589 55.7664C94.8276 55.7977 94.7964 55.8081 94.7547 55.8081H92.8381C92.7391 55.8081 92.6714 55.7612 92.6297 55.6623L90.8381 50.0373C90.8224 50.0112 90.8016 49.9956 90.7756 49.9956C90.7599 49.9956 90.7547 50.0164 90.7547 50.0581V55.6414C90.7547 55.6831 90.7391 55.7248 90.7131 55.7664C90.6818 55.7977 90.6401 55.8081 90.5881 55.8081H88.9006C88.8589 55.8081 88.8172 55.7977 88.7756 55.7664C88.7443 55.7248 88.7339 55.6831 88.7339 55.6414V45.8081C88.7339 45.756 88.7443 45.7144 88.7756 45.6831C88.8172 45.6414 88.8589 45.6206 88.9006 45.6206H90.8172C90.911 45.6206 90.9735 45.6727 91.0047 45.7664L92.8172 51.4123C92.8276 51.4435 92.8433 51.4539 92.8589 51.4539C92.8849 51.4435 92.9006 51.4227 92.9006 51.3914L92.8797 45.8081Z" fill="#D72333"/>
<path d="M99.2839 55.8081C99.2422 55.8081 99.2005 55.7977 99.1589 55.7664C99.1276 55.7248 99.1172 55.6831 99.1172 55.6414V45.8081C99.1172 45.756 99.1276 45.7144 99.1589 45.6831C99.2005 45.6414 99.2422 45.6206 99.2839 45.6206H100.992C101.034 45.6206 101.065 45.6414 101.096 45.6831C101.138 45.7144 101.159 45.756 101.159 45.8081V55.6414C101.159 55.6831 101.138 55.7248 101.096 55.7664C101.065 55.7977 101.034 55.8081 100.992 55.8081H99.2839Z" fill="#D72333"/>
<path d="M106.462 55.8081C106.363 55.8081 106.3 55.7612 106.274 55.6623L105.149 51.6414C105.118 51.6154 105.092 51.5998 105.066 51.5998H104.587C104.53 51.5998 104.504 51.6206 104.504 51.6623V55.6414C104.504 55.6831 104.483 55.7248 104.441 55.7664C104.41 55.7977 104.379 55.8081 104.337 55.8081H102.629C102.587 55.8081 102.545 55.7977 102.504 55.7664C102.472 55.7248 102.462 55.6831 102.462 55.6414V45.8081C102.462 45.756 102.472 45.7144 102.504 45.6831C102.545 45.6414 102.587 45.6206 102.629 45.6206H105.566C106.092 45.6206 106.566 45.756 106.983 46.0164C107.41 46.2664 107.738 46.631 107.962 47.0998C108.181 47.5581 108.295 48.0946 108.295 48.7039C108.295 49.2769 108.181 49.7821 107.962 50.2248C107.754 50.6571 107.451 50.9904 107.066 51.2248C107.05 51.2404 107.035 51.256 107.024 51.2664C107.009 51.2821 107.009 51.2977 107.024 51.3081L108.358 55.5998L108.379 55.6623C108.379 55.7612 108.321 55.8081 108.212 55.8081H106.462ZM104.587 47.3914C104.53 47.3914 104.504 47.4123 104.504 47.4539V49.9539C104.504 49.9956 104.53 50.0164 104.587 50.0164H105.233C105.535 50.0164 105.78 49.9019 105.962 49.6623C106.155 49.4279 106.254 49.1102 106.254 48.7039C106.254 48.3029 106.155 47.9852 105.962 47.7456C105.78 47.5112 105.535 47.3914 105.233 47.3914H104.587Z" fill="#D72333"/>
<path d="M109.478 55.8081C109.436 55.8081 109.394 55.7977 109.353 55.7664C109.321 55.7248 109.311 55.6831 109.311 55.6414V45.8081C109.311 45.756 109.321 45.7144 109.353 45.6831C109.394 45.6414 109.436 45.6206 109.478 45.6206H111.186C111.228 45.6206 111.259 45.6414 111.29 45.6831C111.332 45.7144 111.353 45.756 111.353 45.8081V55.6414C111.353 55.6831 111.332 55.7248 111.29 55.7664C111.259 55.7977 111.228 55.8081 111.186 55.8081H109.478Z" fill="#D72333"/>
<path d="M115.26 55.9333C114.703 55.9333 114.208 55.8187 113.781 55.5999C113.348 55.3656 113.015 55.0531 112.781 54.6624C112.557 54.2614 112.447 53.7979 112.447 53.2666V52.8499C112.447 52.7979 112.458 52.7562 112.489 52.7249C112.531 52.6833 112.572 52.6624 112.614 52.6624H114.302C114.343 52.6624 114.375 52.6833 114.406 52.7249C114.447 52.7562 114.468 52.7979 114.468 52.8499V53.1624C114.468 53.4697 114.541 53.7145 114.697 53.8916C114.848 54.0739 115.041 54.1624 115.281 54.1624C115.515 54.1624 115.708 54.0791 115.864 53.9124C116.015 53.7354 116.093 53.5062 116.093 53.2249C116.093 52.9333 115.994 52.6833 115.802 52.4749C115.604 52.2666 115.229 51.9541 114.677 51.5374C114.187 51.1937 113.791 50.8864 113.489 50.6208C113.197 50.3447 112.937 50.0114 112.718 49.6208C112.51 49.2197 112.406 48.7562 112.406 48.2249C112.406 47.4072 112.661 46.7562 113.177 46.2666C113.687 45.7666 114.369 45.5166 115.218 45.5166C116.062 45.5166 116.744 45.777 117.26 46.2874C117.786 46.8031 118.052 47.4749 118.052 48.3083V48.6624C118.052 48.7041 118.031 48.7458 117.989 48.7874C117.958 48.8187 117.916 48.8291 117.864 48.8291H116.197C116.156 48.8291 116.114 48.8187 116.072 48.7874C116.041 48.7458 116.031 48.7041 116.031 48.6624V48.2666C116.031 47.9645 115.953 47.7197 115.802 47.5374C115.645 47.3604 115.453 47.2666 115.218 47.2666C114.979 47.2666 114.786 47.3604 114.635 47.5374C114.494 47.7041 114.427 47.9333 114.427 48.2249C114.427 48.5166 114.515 48.777 114.697 48.9958C114.875 49.2197 115.239 49.5322 115.781 49.9333C116.39 50.3812 116.848 50.7406 117.156 51.0166C117.458 51.2979 117.697 51.5999 117.864 51.9333C118.031 52.2666 118.114 52.6729 118.114 53.1416C118.114 53.9906 117.848 54.6729 117.322 55.1833C116.807 55.6833 116.119 55.9333 115.26 55.9333Z" fill="#D72333"/>
<path d="M122.758 45.8081C122.758 45.756 122.769 45.7144 122.8 45.6831C122.841 45.6414 122.883 45.6206 122.925 45.6206H124.633C124.675 45.6206 124.706 45.6414 124.737 45.6831C124.779 45.7144 124.8 45.756 124.8 45.8081V55.6414C124.8 55.6831 124.779 55.7248 124.737 55.7664C124.706 55.7977 124.675 55.8081 124.633 55.8081H122.925C122.883 55.8081 122.841 55.7977 122.8 55.7664C122.769 55.7248 122.758 55.6831 122.758 55.6414V51.6623C122.758 51.6206 122.727 51.5998 122.675 51.5998H121.237C121.18 51.5998 121.154 51.6206 121.154 51.6623V55.6414C121.154 55.6831 121.133 55.7248 121.091 55.7664C121.06 55.7977 121.029 55.8081 120.987 55.8081H119.279C119.237 55.8081 119.196 55.7977 119.154 55.7664C119.123 55.7248 119.112 55.6831 119.112 55.6414V45.8081C119.112 45.756 119.123 45.7144 119.154 45.6831C119.196 45.6414 119.237 45.6206 119.279 45.6206H120.987C121.029 45.6206 121.06 45.6414 121.091 45.6831C121.133 45.7144 121.154 45.756 121.154 45.8081V49.7664C121.154 49.8081 121.18 49.8289 121.237 49.8289H122.675C122.727 49.8289 122.758 49.8081 122.758 49.7664V45.8081Z" fill="#D72333"/>
<path d="M130.813 55.8081C130.699 55.8081 130.636 55.756 130.626 55.6414L128.667 45.8081L128.646 45.7664C128.646 45.6727 128.699 45.6206 128.813 45.6206H130.584C130.693 45.6206 130.756 45.6779 130.771 45.7873L131.605 51.0164C131.605 51.0581 131.61 51.0789 131.626 51.0789C131.652 51.0789 131.673 51.0581 131.688 51.0164L132.48 45.7873C132.48 45.6779 132.542 45.6206 132.667 45.6206H134.126C134.235 45.6206 134.298 45.6779 134.313 45.7873L135.167 51.0164C135.178 51.0581 135.193 51.0789 135.209 51.0789C135.235 51.0789 135.256 51.0581 135.271 51.0164L136.001 45.7873C136.011 45.6779 136.074 45.6206 136.188 45.6206H137.917C138.042 45.6206 138.089 45.6831 138.063 45.8081L136.23 55.6414C136.214 55.756 136.152 55.8081 136.042 55.8081H134.459C134.344 55.8081 134.282 55.756 134.271 55.6414L133.417 50.2664C133.402 50.2248 133.381 50.2039 133.355 50.2039C133.339 50.2039 133.334 50.2248 133.334 50.2664L132.563 55.6414C132.548 55.756 132.485 55.8081 132.376 55.8081H130.813Z" fill="#D72333"/>
<path d="M142.666 45.8081C142.666 45.756 142.677 45.7144 142.708 45.6831C142.75 45.6414 142.791 45.6206 142.833 45.6206H144.541C144.583 45.6206 144.614 45.6414 144.646 45.6831C144.687 45.7144 144.708 45.756 144.708 45.8081V55.6414C144.708 55.6831 144.687 55.7248 144.646 55.7664C144.614 55.7977 144.583 55.8081 144.541 55.8081H142.833C142.791 55.8081 142.75 55.7977 142.708 55.7664C142.677 55.7248 142.666 55.6831 142.666 55.6414V51.6623C142.666 51.6206 142.635 51.5998 142.583 51.5998H141.146C141.088 51.5998 141.062 51.6206 141.062 51.6623V55.6414C141.062 55.6831 141.041 55.7248 141 55.7664C140.968 55.7977 140.937 55.8081 140.896 55.8081H139.187C139.146 55.8081 139.104 55.7977 139.062 55.7664C139.031 55.7248 139.021 55.6831 139.021 55.6414V45.8081C139.021 45.756 139.031 45.7144 139.062 45.6831C139.104 45.6414 139.146 45.6206 139.187 45.6206H140.896C140.937 45.6206 140.968 45.6414 141 45.6831C141.041 45.7144 141.062 45.756 141.062 45.8081V49.7664C141.062 49.8081 141.088 49.8289 141.146 49.8289H142.583C142.635 49.8289 142.666 49.8081 142.666 49.7664V45.8081Z" fill="#D72333"/>
<path d="M146.167 55.8081C146.125 55.8081 146.084 55.7977 146.042 55.7664C146.011 55.7248 146 55.6831 146 55.6414V45.8081C146 45.756 146.011 45.7144 146.042 45.6831C146.084 45.6414 146.125 45.6206 146.167 45.6206H147.875C147.917 45.6206 147.948 45.6414 147.98 45.6831C148.021 45.7144 148.042 45.756 148.042 45.8081V55.6414C148.042 55.6831 148.021 55.7248 147.98 55.7664C147.948 55.7977 147.917 55.8081 147.875 55.8081H146.167Z" fill="#D72333"/>
<path d="M151.949 55.9333C151.392 55.9333 150.897 55.8187 150.47 55.5999C150.038 55.3656 149.705 55.0531 149.47 54.6624C149.246 54.2614 149.137 53.7979 149.137 53.2666V52.8499C149.137 52.7979 149.147 52.7562 149.179 52.7249C149.22 52.6833 149.262 52.6624 149.304 52.6624H150.991C151.033 52.6624 151.064 52.6833 151.095 52.7249C151.137 52.7562 151.158 52.7979 151.158 52.8499V53.1624C151.158 53.4697 151.231 53.7145 151.387 53.8916C151.538 54.0739 151.731 54.1624 151.97 54.1624C152.205 54.1624 152.397 54.0791 152.554 53.9124C152.705 53.7354 152.783 53.5062 152.783 53.2249C152.783 52.9333 152.684 52.6833 152.491 52.4749C152.293 52.2666 151.918 51.9541 151.366 51.5374C150.876 51.1937 150.481 50.8864 150.179 50.6208C149.887 50.3447 149.626 50.0114 149.408 49.6208C149.199 49.2197 149.095 48.7562 149.095 48.2249C149.095 47.4072 149.35 46.7562 149.866 46.2666C150.376 45.7666 151.059 45.5166 151.908 45.5166C152.751 45.5166 153.434 45.777 153.949 46.2874C154.475 46.8031 154.741 47.4749 154.741 48.3083V48.6624C154.741 48.7041 154.72 48.7458 154.679 48.7874C154.647 48.8187 154.606 48.8291 154.554 48.8291H152.887C152.845 48.8291 152.804 48.8187 152.762 48.7874C152.731 48.7458 152.72 48.7041 152.72 48.6624V48.2666C152.72 47.9645 152.642 47.7197 152.491 47.5374C152.335 47.3604 152.142 47.2666 151.908 47.2666C151.668 47.2666 151.475 47.3604 151.324 47.5374C151.184 47.7041 151.116 47.9333 151.116 48.2249C151.116 48.5166 151.205 48.777 151.387 48.9958C151.564 49.2197 151.929 49.5322 152.47 49.9333C153.08 50.3812 153.538 50.7406 153.845 51.0166C154.147 51.2979 154.387 51.5999 154.554 51.9333C154.72 52.2666 154.804 52.6729 154.804 53.1416C154.804 53.9906 154.538 54.6729 154.012 55.1833C153.496 55.6833 152.809 55.9333 151.949 55.9333Z" fill="#D72333"/>
<path d="M155.968 55.8081C155.927 55.8081 155.885 55.7977 155.843 55.7664C155.812 55.7248 155.802 55.6831 155.802 55.6414V45.8081C155.802 45.756 155.812 45.7144 155.843 45.6831C155.885 45.6414 155.927 45.6206 155.968 45.6206H157.677C157.718 45.6206 157.75 45.6414 157.781 45.6831C157.823 45.7144 157.843 45.756 157.843 45.8081V49.4748C157.843 49.506 157.854 49.5269 157.885 49.5373C157.911 49.5373 157.927 49.5164 157.927 49.4748L159.802 45.7664C159.854 45.6727 159.927 45.6206 160.01 45.6206H161.823C161.89 45.6206 161.932 45.6414 161.948 45.6831C161.974 45.7144 161.974 45.7612 161.948 45.8289L159.802 50.0164C159.786 50.0581 159.781 50.0894 159.781 50.0998L162.073 55.5998C162.073 55.631 162.073 55.6571 162.073 55.6831C162.073 55.7664 162.021 55.8081 161.927 55.8081H160.114C160 55.8081 159.932 55.7664 159.906 55.6831L158.406 51.8706C158.39 51.8446 158.369 51.8289 158.343 51.8289C158.328 51.8289 158.312 51.8446 158.302 51.8706L157.885 52.6206C157.854 52.6623 157.843 52.6935 157.843 52.7039V55.6414C157.843 55.6831 157.823 55.7248 157.781 55.7664C157.75 55.7977 157.718 55.8081 157.677 55.8081H155.968Z" fill="#D72333"/>
<path d="M168.275 47.2039C168.275 47.2612 168.254 47.3081 168.213 47.3498C168.181 47.381 168.15 47.3914 168.109 47.3914H165.067C165.01 47.3914 164.984 47.4123 164.984 47.4539V49.7664C164.984 49.8081 165.01 49.8289 165.067 49.8289H166.796C166.848 49.8289 166.89 49.8498 166.921 49.8914C166.963 49.9227 166.984 49.9539 166.984 49.9956V51.4123C166.984 51.4696 166.963 51.5164 166.921 51.5581C166.89 51.5894 166.848 51.5998 166.796 51.5998H165.067C165.01 51.5998 164.984 51.6206 164.984 51.6623V53.9748C164.984 54.0321 165.01 54.0581 165.067 54.0581H168.109C168.15 54.0581 168.181 54.0737 168.213 54.0998C168.254 54.131 168.275 54.1727 168.275 54.2248V55.6414C168.275 55.6831 168.254 55.7248 168.213 55.7664C168.181 55.7977 168.15 55.8081 168.109 55.8081H163.109C163.067 55.8081 163.025 55.7977 162.984 55.7664C162.952 55.7248 162.942 55.6831 162.942 55.6414V45.8081C162.942 45.756 162.952 45.7144 162.984 45.6831C163.025 45.6414 163.067 45.6206 163.109 45.6206H168.109C168.15 45.6206 168.181 45.6414 168.213 45.6831C168.254 45.7144 168.275 45.756 168.275 45.8081V47.2039Z" fill="#D72333"/>
<path d="M171.249 55.7873C171.207 55.7873 171.165 55.7769 171.124 55.7456C171.092 55.7039 171.082 55.6623 171.082 55.6206V51.8289L171.061 51.7456L169.02 45.8289C169.02 45.8185 169.02 45.7977 169.02 45.7664C169.02 45.6727 169.066 45.6206 169.165 45.6206H170.957C171.066 45.6206 171.134 45.6727 171.165 45.7664L172.061 49.2456C172.072 49.2769 172.087 49.2873 172.103 49.2873C172.129 49.2873 172.15 49.2769 172.165 49.2456L173.061 45.7664C173.087 45.6727 173.155 45.6206 173.27 45.6206H175.04C175.108 45.6206 175.155 45.6414 175.186 45.6831C175.212 45.7144 175.212 45.7612 175.186 45.8289L173.145 51.7456L173.124 51.8289V55.6206C173.124 55.6623 173.103 55.7039 173.061 55.7456C173.03 55.7769 172.999 55.7873 172.957 55.7873H171.249Z" fill="#D72333"/>
<path d="M102.605 75.6523C102.563 75.6523 102.527 75.6419 102.501 75.6107C102.469 75.5846 102.464 75.543 102.48 75.4857L104.98 66.4232C104.98 66.4232 104.969 66.418 104.959 66.4023C104.943 66.3919 104.928 66.3815 104.917 66.3815H102.251C102.209 66.3815 102.188 66.3971 102.188 66.4232V67.0273C102.188 67.1263 102.136 67.1732 102.042 67.1732H101.48C101.381 67.1732 101.334 67.1263 101.334 67.0273V65.6107C101.334 65.5169 101.381 65.4648 101.48 65.4648H105.938C106.032 65.4648 106.084 65.5169 106.084 65.6107V66.2773C106.084 66.3086 106.068 66.3711 106.042 66.4648L103.584 75.5273C103.553 75.6107 103.501 75.6523 103.417 75.6523H102.605Z" fill="#D72333"/>
<path d="M107.698 75.6317C107.458 75.6317 107.265 75.5588 107.114 75.4025C106.958 75.2358 106.885 75.0431 106.885 74.8192C106.885 74.5692 106.958 74.3713 107.114 74.215C107.265 74.064 107.458 73.9858 107.698 73.9858C107.932 73.9858 108.125 74.064 108.281 74.215C108.432 74.3713 108.51 74.5692 108.51 74.8192C108.51 75.0431 108.432 75.2358 108.281 75.4025C108.125 75.5588 107.932 75.6317 107.698 75.6317Z" fill="#D72333"/>
<path d="M110.919 74.6733C110.904 74.7046 110.904 74.7254 110.919 74.7358C110.93 74.7515 110.945 74.7567 110.961 74.7567H114.378C114.471 74.7567 114.523 74.8088 114.523 74.9025V75.5067C114.523 75.6056 114.471 75.6525 114.378 75.6525H109.815C109.716 75.6525 109.669 75.6056 109.669 75.5067V74.8608C109.669 74.7775 109.69 74.715 109.732 74.6733C110.023 74.189 110.19 73.9129 110.232 73.84C111.091 72.4963 111.763 71.4025 112.253 70.5692C112.878 69.5015 113.19 68.6213 113.19 67.9233C113.19 67.4129 113.07 67.0067 112.836 66.715C112.596 66.4129 112.294 66.2567 111.919 66.2567C111.555 66.2567 111.258 66.4129 111.023 66.715C110.799 67.0067 110.69 67.3973 110.69 67.8817V68.4233C110.69 68.5223 110.638 68.5692 110.544 68.5692H109.794C109.695 68.5692 109.648 68.5223 109.648 68.4233V67.84C109.674 67.09 109.898 66.4963 110.315 66.0483C110.732 65.59 111.279 65.3608 111.961 65.3608C112.638 65.3608 113.19 65.6004 113.607 66.0692C114.023 66.5431 114.232 67.1629 114.232 67.9233C114.232 68.8296 113.888 69.8556 113.211 71.0067C112.846 71.59 112.357 72.3817 111.732 73.3817L110.919 74.6733Z" fill="#D72333"/>
<path d="M118.14 75.798C117.4 75.798 116.807 75.5636 116.348 75.0897C115.9 74.6053 115.682 73.9751 115.682 73.1938V67.923C115.682 67.1626 115.9 66.5376 116.348 66.048C116.807 65.5636 117.4 65.3188 118.14 65.3188C118.89 65.3188 119.494 65.5636 119.952 66.048C120.411 66.5376 120.64 67.1626 120.64 67.923V73.1938C120.64 73.9751 120.411 74.6053 119.952 75.0897C119.494 75.5636 118.89 75.798 118.14 75.798ZM118.14 74.9022C118.583 74.9022 118.937 74.7511 119.202 74.4438C119.463 74.1418 119.598 73.7459 119.598 73.2563V67.8813C119.598 67.3813 119.463 66.9855 119.202 66.6938C118.937 66.3918 118.583 66.2355 118.14 66.2355C117.723 66.2355 117.38 66.3918 117.119 66.6938C116.854 66.9855 116.723 67.3813 116.723 67.8813V73.2563C116.723 73.7459 116.854 74.1418 117.119 74.4438C117.38 74.7511 117.723 74.9022 118.14 74.9022Z" fill="#D72333"/>
</g>
</svg>
