<svg width="6" height="11" viewBox="0 0 6 11" fill="none" xmlns="http://www.w3.org/2000/svg">
<path d="M5.39583 0C5.50521 0 5.5625 0.052084 5.5625 0.145833V0.8125C5.5625 0.927084 5.50521 0.979167 5.39583 0.979167H3.33333C3.29167 0.979167 3.27083 1 3.27083 1.04167V10.8125C3.27083 10.9271 3.21354 10.9792 3.10417 10.9792H2.3125C2.21354 10.9792 2.16667 10.9271 2.16667 10.8125V1.04167C2.16667 1 2.14583 0.979167 2.10417 0.979167H0.145833C0.0468747 0.979167 0 0.927084 0 0.8125V0.145833C0 0.052084 0.0468747 0 0.145833 0H5.39583Z" fill="#D51224"/>
</svg>
