<svg width="7" height="11" viewBox="0 0 7 11" fill="none" xmlns="http://www.w3.org/2000/svg">
<path d="M0.128196 10.5C0.0292375 10.5 -0.0124292 10.4531 0.00319614 10.3542L1.2532 0.145833C1.27924 0.0520827 1.33653 0 1.41986 0H2.16986C2.21153 0 2.24278 0.0156253 2.27403 0.0416667C2.30007 0.0729173 2.30528 0.104167 2.29486 0.145833L1.6907 5C1.6907 5.04167 1.6959 5.07292 1.71153 5.08333C1.72195 5.08333 1.74278 5.07292 1.77403 5.04167L5.16986 0.104167C5.23757 0.0364587 5.30007 0 5.35736 0H6.16986C6.23757 0 6.27924 0.0208333 6.29486 0.0625C6.30528 0.0937493 6.30007 0.135416 6.27403 0.1875L3.48236 4.25C3.46674 4.29167 3.46153 4.32292 3.46153 4.33333L5.23236 10.3125L5.2532 10.375C5.2532 10.4583 5.20111 10.5 5.10736 10.5H4.27403C4.17507 10.5 4.1282 10.4583 4.1282 10.375L2.64903 5.27083C2.6334 5.24479 2.61257 5.24479 2.58653 5.27083L1.5032 6.72917C1.48757 6.72917 1.48236 6.75 1.48236 6.79167L1.04486 10.3542C1.02924 10.3958 1.0084 10.4323 0.982363 10.4583C0.951112 10.4896 0.919863 10.5 0.878196 10.5H0.128196Z" fill="#D51224"/>
</svg>
