<svg width="6" height="12" viewBox="0 0 6 12" fill="none" xmlns="http://www.w3.org/2000/svg">
<path d="M5.02083 0.8125C5.02083 0.927084 4.96875 0.979167 4.875 0.979167H1.1875C1.14583 0.979167 1.125 1 1.125 1.04167V4.97917C1.125 5.02083 1.14583 5.04167 1.1875 5.04167H3.5C3.60937 5.04167 3.66667 5.09896 3.66667 5.20833V5.875C3.66667 5.98958 3.60937 6.04167 3.5 6.04167H1.1875C1.14583 6.04167 1.125 6.0625 1.125 6.10417V10.0625C1.125 10.1042 1.14583 10.125 1.1875 10.125H4.875C4.96875 10.125 5.02083 10.1771 5.02083 10.2708V10.9375C5.02083 11.0521 4.96875 11.1042 4.875 11.1042H0.145833C0.0468747 11.1042 0 11.0521 0 10.9375V0.145833C0 0.052084 0.0468747 0 0.145833 0H4.875C4.96875 0 5.02083 0.052084 5.02083 0.145833V0.8125Z" fill="#D72333"/>
</svg>
