<svg width="7" height="12" viewBox="0 0 7 12" fill="none" xmlns="http://www.w3.org/2000/svg">
<path d="M3.97917 0.1875C3.97917 0.135417 3.98958 0.0937507 4.02083 0.0625C4.0625 0.0208333 4.10938 0 4.16667 0H6.02083C6.07292 0 6.11458 0.0208333 6.14583 0.0625C6.1875 0.0937507 6.20833 0.135417 6.20833 0.1875V10.875C6.20833 10.9323 6.1875 10.9792 6.14583 11.0208C6.11458 11.0521 6.07292 11.0625 6.02083 11.0625H4.16667C4.10938 11.0625 4.0625 11.0521 4.02083 11.0208C3.98958 10.9792 3.97917 10.9323 3.97917 10.875V6.5625C3.97917 6.51042 3.94792 6.47917 3.89583 6.47917H2.3125C2.25521 6.47917 2.22917 6.51042 2.22917 6.5625V10.875C2.22917 10.9323 2.20833 10.9792 2.16667 11.0208C2.13542 11.0521 2.09375 11.0625 2.04167 11.0625H0.208333C0.151041 11.0625 0.104167 11.0521 0.0625 11.0208C0.0208333 10.9792 0 10.9323 0 10.875V0.1875C0 0.135417 0.0208333 0.0937507 0.0625 0.0625C0.104167 0.0208333 0.151041 0 0.208333 0H2.04167C2.09375 0 2.13542 0.0208333 2.16667 0.0625C2.20833 0.0937507 2.22917 0.135417 2.22917 0.1875V4.47917C2.22917 4.53646 2.25521 4.5625 2.3125 4.5625H3.89583C3.94792 4.5625 3.97917 4.53646 3.97917 4.47917V0.1875Z" fill="#D72333"/>
</svg>
