<svg width="6" height="11" viewBox="0 0 6 11" fill="none" xmlns="http://www.w3.org/2000/svg">
<path d="M3.66667 0.166667C3.66667 0.125 3.67708 0.0937507 3.70833 0.0625C3.75 0.0208333 3.79687 0 3.85417 0H5.5625C5.60417 0 5.63542 0.0208333 5.66667 0.0625C5.70833 0.0937507 5.72917 0.125 5.72917 0.166667V10.0625C5.72917 10.1042 5.70833 10.1458 5.66667 10.1875C5.63542 10.2188 5.60417 10.2292 5.5625 10.2292H3.85417C3.79687 10.2292 3.75 10.2188 3.70833 10.1875C3.67708 10.1458 3.66667 10.1042 3.66667 10.0625V6.0625C3.66667 6.01042 3.64583 5.97917 3.60417 5.97917H2.125C2.08333 5.97917 2.0625 6.01042 2.0625 6.0625V10.0625C2.0625 10.1042 2.04167 10.1458 2 10.1875C1.96875 10.2188 1.92708 10.2292 1.875 10.2292H0.166667C0.125 10.2292 0.0833333 10.2188 0.0416667 10.1875C0.0104173 10.1458 0 10.1042 0 10.0625V0.166667C0 0.125 0.0104173 0.0937507 0.0416667 0.0625C0.0833333 0.0208333 0.125 0 0.166667 0H1.875C1.92708 0 1.96875 0.0208333 2 0.0625C2.04167 0.0937507 2.0625 0.125 2.0625 0.166667V4.14583C2.0625 4.1875 2.08333 4.20833 2.125 4.20833H3.60417C3.64583 4.20833 3.66667 4.1875 3.66667 4.14583V0.166667Z" fill="#D72333"/>
</svg>
