<svg width="9" height="12" viewBox="0 0 9 12" fill="none" xmlns="http://www.w3.org/2000/svg">
<path d="M2.27083 11.1042C2.17187 11.1042 2.11458 11.0573 2.10417 10.9583L0 0.166667V0.125C0 0.0416667 0.0468747 0 0.145833 0H0.979167C1.08854 0 1.15104 0.0416667 1.16667 0.125L2.64583 8.47917C2.65625 8.51042 2.67187 8.52083 2.6875 8.52083C2.69792 8.52083 2.70833 8.51042 2.70833 8.47917L4 0.125C4.02604 0.0416667 4.08333 0 4.16667 0H4.89583C4.98958 0 5.04167 0.0416667 5.04167 0.125L6.39583 8.47917C6.40625 8.51042 6.41667 8.52083 6.41667 8.52083C6.42708 8.52083 6.44271 8.51042 6.45833 8.47917L7.83333 0.125C7.84375 0.0416667 7.89583 0 7.97917 0H8.83333C8.88542 0 8.92188 0.0156253 8.9375 0.0416667C8.96354 0.072916 8.97917 0.114583 8.97917 0.166667L7 10.9583C6.98438 11.0573 6.92708 11.1042 6.83333 11.1042H6.04167C5.95833 11.1042 5.90625 11.0573 5.89583 10.9583L4.5625 2.58333C4.54688 2.55729 4.53125 2.54167 4.52083 2.54167C4.50521 2.54167 4.5 2.55729 4.5 2.58333L3.1875 10.9583C3.17187 11.0573 3.125 11.1042 3.04167 11.1042H2.27083Z" fill="#D72333"/>
</svg>
