<svg width="8" height="11" viewBox="0 0 8 11" fill="none" xmlns="http://www.w3.org/2000/svg">
<path d="M4.59187 0C5.35228 0 5.95645 0.25 6.40437 0.75C6.84707 1.25 7.07103 1.91667 7.07103 2.75C7.07103 3.01563 7.05541 3.21875 7.02937 3.35417C6.91478 4.32813 6.57103 5.10417 5.9877 5.6875C5.41478 6.27083 4.71687 6.5625 3.88353 6.5625H2.75853C2.71687 6.5625 2.68041 6.59375 2.65437 6.64583L2.15437 10.8125C2.13874 10.8698 2.1127 10.9167 2.07103 10.9583C2.02937 10.9896 1.9877 11 1.94603 11H0.175199C0.117907 11 0.0710321 10.9896 0.0293654 10.9583C-0.00188394 10.9167 -0.00709327 10.8698 0.00853206 10.8125L1.32103 0.1875C1.32103 0.135416 1.34187 0.0937493 1.38353 0.0625C1.4252 0.0208333 1.46687 0 1.50853 0H4.59187ZM3.63353 4.83333C3.99291 4.83333 4.28978 4.68229 4.52937 4.375C4.77937 4.05729 4.90437 3.625 4.90437 3.08333C4.90437 2.70833 4.82103 2.42708 4.65437 2.22917C4.49812 2.02083 4.27937 1.91667 3.9877 1.91667H3.32103C3.26374 1.91667 3.2377 1.94792 3.2377 2L2.90437 4.75C2.90437 4.80729 2.9252 4.83333 2.96687 4.83333H3.63353Z" fill="white"/>
</svg>
