<svg width="11" height="20" viewBox="0 0 11 20" fill="none" xmlns="http://www.w3.org/2000/svg">
<path d="M8.58333 0.208333C8.63542 0.072916 8.75 0 8.91667 0H10.3542C10.5469 0 10.6458 0.0989587 10.6458 0.291667V19.2917C10.6458 19.474 10.5469 19.5625 10.3542 19.5625H8.9375C8.75521 19.5625 8.66667 19.474 8.66667 19.2917V4.3125C8.66667 4.26042 8.65104 4.22917 8.625 4.22917C8.59375 4.22917 8.5625 4.24479 8.52083 4.27083L5.60417 10.3125C5.54688 10.4531 5.45833 10.5208 5.33333 10.5208C5.17708 10.5208 5.07292 10.4531 5.02083 10.3125L2.125 4.3125C2.08333 4.27083 2.04687 4.25 2.02083 4.25C1.98958 4.25 1.97917 4.28125 1.97917 4.33333V19.2917C1.97917 19.474 1.88542 19.5625 1.70833 19.5625H0.270833C0.0885413 19.5625 0 19.474 0 19.2917V0.291667C0 0.0989587 0.0885413 0 0.270833 0H1.72917C1.89583 0 2.00521 0.072916 2.0625 0.208333L5.25 6.64583C5.26042 6.6875 5.29167 6.70833 5.33333 6.70833C5.375 6.70833 5.40104 6.6875 5.41667 6.64583L8.58333 0.208333Z" fill="#D72333"/>
</svg>
