<svg width="5" height="9" viewBox="0 0 5 9" fill="none" xmlns="http://www.w3.org/2000/svg">
<path d="M3.70833 0.166667C3.70833 0.057292 3.75521 0 3.85417 0H4.66667C4.76042 0 4.8125 0.057292 4.8125 0.166667V7.77083C4.8125 7.88542 4.76042 7.9375 4.66667 7.9375H3.85417C3.75521 7.9375 3.70833 7.88542 3.70833 7.77083V7.25C3.70833 7.22396 3.69792 7.20833 3.6875 7.20833C3.67187 7.20833 3.65104 7.21875 3.625 7.22917C3.30208 7.77083 2.78125 8.04167 2.0625 8.04167C1.4375 8.04167 0.9375 7.85417 0.5625 7.47917C0.1875 7.09375 0 6.51563 0 5.75V0.166667C0 0.057292 0.0520827 0 0.166667 0H0.958333C1.06771 0 1.125 0.057292 1.125 0.166667V5.5C1.125 6.01563 1.22917 6.41146 1.4375 6.6875C1.65625 6.95313 1.96875 7.08333 2.375 7.08333C2.79167 7.08333 3.11458 6.93229 3.35417 6.625C3.58854 6.32292 3.70833 5.90625 3.70833 5.375V0.166667Z" fill="#D51224"/>
</svg>
