<svg width="6" height="11" viewBox="0 0 6 11" fill="none" xmlns="http://www.w3.org/2000/svg">
<path d="M4.5 0.104167C4.52604 0.0364587 4.58333 0 4.66667 0H5.4375C5.53125 0 5.58333 0.052084 5.58333 0.145833V10.0833C5.58333 10.1823 5.53125 10.2292 5.4375 10.2292H4.6875C4.58854 10.2292 4.54167 10.1823 4.54167 10.0833V2.25C4.54167 2.22396 4.53125 2.20833 4.52083 2.20833C4.50521 2.20833 4.48438 2.21875 4.45833 2.22917L2.9375 5.39583C2.90625 5.46875 2.85937 5.5 2.79167 5.5C2.71875 5.5 2.66667 5.46875 2.625 5.39583L1.10417 2.25C1.08854 2.22396 1.07292 2.20833 1.0625 2.20833C1.04687 2.20833 1.04167 2.22396 1.04167 2.25V10.0833C1.04167 10.1823 0.989583 10.2292 0.895833 10.2292H0.145833C0.0468747 10.2292 0 10.1823 0 10.0833V0.145833C0 0.052084 0.0468747 0 0.145833 0H0.916667C1 0 1.05208 0.0364587 1.08333 0.104167L2.75 3.47917C2.76042 3.49479 2.77604 3.5 2.79167 3.5C2.81771 3.5 2.83333 3.49479 2.83333 3.47917L4.5 0.104167Z" fill="#D72333"/>
</svg>
