<svg width="7" height="12" viewBox="0 0 7 12" fill="none" xmlns="http://www.w3.org/2000/svg">
<path d="M4.5625 0.1875C4.5625 0.135416 4.57292 0.0937493 4.60417 0.0625C4.64583 0.0208333 4.69271 0 4.75 0H6.60417C6.65625 0 6.69792 0.0208333 6.72917 0.0625C6.77083 0.0937493 6.79167 0.135416 6.79167 0.1875V10.9792C6.79167 11.0365 6.77083 11.0833 6.72917 11.125C6.69792 11.1562 6.65625 11.1667 6.60417 11.1667H4.5C4.38542 11.1667 4.31771 11.1146 4.29167 11L2.3125 4.83333C2.29687 4.80729 2.27604 4.79167 2.25 4.79167C2.21875 4.79167 2.20833 4.8125 2.20833 4.85417L2.22917 10.9792C2.22917 11.0365 2.20833 11.0833 2.16667 11.125C2.13542 11.1562 2.09375 11.1667 2.04167 11.1667H0.1875C0.130208 11.1667 0.0833333 11.1562 0.0416667 11.125C0.010416 11.0833 0 11.0365 0 10.9792V0.1875C0 0.135416 0.010416 0.0937493 0.0416667 0.0625C0.0833333 0.0208333 0.130208 0 0.1875 0H2.27083C2.38021 0 2.44792 0.0520827 2.47917 0.145833L4.47917 6.33333C4.48958 6.36458 4.51042 6.375 4.54167 6.375C4.56771 6.36458 4.58333 6.34375 4.58333 6.3125L4.5625 0.1875Z" fill="#D72333"/>
</svg>
