<svg width="60" height="12" viewBox="0 0 60 12" fill="none" xmlns="http://www.w3.org/2000/svg">
<mask id="mask0_24_8009" style="mask-type:luminance" maskUnits="userSpaceOnUse" x="0" y="0" width="60" height="12">
<path d="M60 0H0V12H60V0Z" fill="white"/>
</mask>
<g mask="url(#mask0_24_8009)">
<mask id="mask1_24_8009" style="mask-type:luminance" maskUnits="userSpaceOnUse" x="0" y="2" width="4" height="8">
<path d="M0.21875 2.6665H4V9.33317H0.21875V2.6665Z" fill="white"/>
</mask>
<g mask="url(#mask1_24_8009)">
<path d="M2.24593 9.22803C1.7876 9.22803 1.41781 9.08219 1.14176 8.79053C0.860515 8.48844 0.725098 8.09782 0.725098 7.62386V4.35303C0.725098 3.86865 0.860515 3.47803 1.14176 3.18636C1.41781 2.88428 1.7876 2.72803 2.24593 2.72803C2.70426 2.72803 3.06885 2.88428 3.3501 3.18636C3.64176 3.47803 3.7876 3.86865 3.7876 4.35303V7.62386C3.7876 8.09782 3.64176 8.48844 3.3501 8.79053C3.06885 9.08219 2.70426 9.22803 2.24593 9.22803ZM2.24593 8.66553C2.52197 8.66553 2.73552 8.57699 2.89176 8.39469C3.05843 8.21761 3.14176 7.96761 3.14176 7.64469V4.31136C3.14176 4.00928 3.05843 3.76449 2.89176 3.58219C2.73552 3.38949 2.52197 3.29053 2.24593 3.29053C1.98031 3.29053 1.76676 3.38949 1.6001 3.58219C1.43343 3.76449 1.3501 4.00928 1.3501 4.31136V7.64469C1.3501 7.96761 1.43343 8.21761 1.6001 8.39469C1.76676 8.57699 1.98031 8.66553 2.24593 8.66553Z" fill="white"/>
</g>
<path d="M5.11621 9.12354C4.95996 9.12354 4.83496 9.08187 4.74121 8.99854C4.65788 8.90478 4.61621 8.77978 4.61621 8.62354C4.61621 8.47249 4.65788 8.3527 4.74121 8.26937C4.83496 8.17562 4.95996 8.12354 5.11621 8.12354C5.25163 8.12354 5.37142 8.17562 5.47038 8.26937C5.56413 8.3527 5.61621 8.47249 5.61621 8.62354C5.61621 8.77978 5.56413 8.90478 5.47038 8.99854C5.37142 9.08187 5.25163 9.12354 5.11621 9.12354Z" fill="white"/>
<path d="M7.06396 2.83187C7.10563 2.82145 7.1473 2.81104 7.18896 2.81104H7.66813C7.72022 2.81104 7.75146 2.84749 7.75146 2.9152V9.06104C7.75146 9.11833 7.72022 9.14437 7.66813 9.14437H7.2098C7.15251 9.14437 7.12646 9.11833 7.12646 9.06104V3.58187C7.12646 3.57145 7.11605 3.56104 7.10563 3.56104C7.09001 3.55062 7.0848 3.5402 7.0848 3.5402L6.23063 3.83187H6.18896C6.1473 3.83187 6.12646 3.80583 6.12646 3.74854L6.06396 3.4152V3.39437C6.06396 3.36833 6.0848 3.34229 6.12646 3.31104L7.06396 2.83187Z" fill="white"/>
<path d="M9.44157 8.5402C9.42594 8.55583 9.42074 8.57145 9.42074 8.58187C9.43115 8.58187 9.44678 8.58187 9.4624 8.58187H11.5874C11.6395 8.58187 11.6707 8.61312 11.6707 8.6652V9.06104C11.6707 9.11833 11.6395 9.14437 11.5874 9.14437H8.75407C8.68115 9.14437 8.6499 9.11833 8.6499 9.06104V8.64437C8.6499 8.6027 8.66032 8.56104 8.69157 8.51937C8.88428 8.2277 8.98844 8.06104 9.00407 8.01937C9.53011 7.18604 9.95199 6.50895 10.2749 5.9777C10.6499 5.31104 10.8374 4.76416 10.8374 4.33187C10.8374 4.02978 10.7645 3.78499 10.6291 3.6027C10.4884 3.40999 10.3009 3.31104 10.0666 3.31104C9.82699 3.31104 9.63949 3.40478 9.50407 3.58187C9.36344 3.76416 9.29574 4.00895 9.29574 4.31104V4.64437C9.29574 4.71729 9.26449 4.74854 9.2124 4.74854H8.73324C8.67594 4.74854 8.6499 4.71729 8.6499 4.64437V4.2902C8.66032 3.83187 8.80094 3.46729 9.06657 3.18604C9.32699 2.89437 9.67074 2.74854 10.0874 2.74854C10.5041 2.74854 10.8426 2.89437 11.1082 3.18604C11.3687 3.4777 11.5041 3.86312 11.5041 4.33187C11.5041 4.90478 11.2853 5.5402 10.8582 6.24854C10.6343 6.62354 10.327 7.11833 9.94157 7.7277L9.44157 8.5402Z" fill="white"/>
<path d="M15.2028 6.3527C15.2549 6.57666 15.2861 6.86833 15.2861 7.2277C15.2861 7.49333 15.2705 7.74333 15.2445 7.9777C15.1872 8.38395 15.0361 8.68604 14.7861 8.89437C14.5466 9.1027 14.234 9.20687 13.8486 9.20687C13.458 9.20687 13.1455 9.1027 12.9111 8.89437C12.6716 8.68604 12.5205 8.37354 12.4528 7.95687L12.4111 7.68604V7.6652C12.4111 7.61312 12.4372 7.58187 12.4945 7.58187H12.9528C13.0205 7.58187 13.057 7.61833 13.057 7.68604L13.0986 7.89437C13.182 8.40999 13.432 8.6652 13.8486 8.6652C14.0413 8.6652 14.2028 8.6027 14.3278 8.4777C14.4528 8.3527 14.5413 8.17562 14.5986 7.93604C14.6403 7.74333 14.6611 7.49854 14.6611 7.20687C14.6611 6.90478 14.6299 6.64437 14.5778 6.43604C14.4632 6.00895 14.2236 5.7902 13.8486 5.7902C13.432 5.7902 13.1716 5.99854 13.0778 6.4152C13.0466 6.47249 13.0153 6.49854 12.9736 6.49854H12.4945C12.4372 6.49854 12.4111 6.47249 12.4111 6.4152V2.9152C12.4111 2.84749 12.4372 2.81104 12.4945 2.81104H15.057C15.1247 2.81104 15.1611 2.84749 15.1611 2.9152V3.2902C15.1611 3.34749 15.1247 3.37354 15.057 3.37354H13.0986C13.0674 3.37354 13.057 3.38916 13.057 3.4152L13.0361 5.64437C13.0361 5.65999 13.0413 5.67562 13.057 5.68604C13.0674 5.68604 13.083 5.68083 13.0986 5.6652C13.182 5.52978 13.2966 5.42562 13.4528 5.3527C13.6195 5.26937 13.807 5.2277 14.0153 5.2277C14.333 5.2277 14.5882 5.32666 14.7861 5.51937C14.9945 5.71729 15.1299 5.99333 15.2028 6.3527Z" fill="white"/>
<path d="M16.2142 9.14437C16.1569 9.14437 16.1309 9.11833 16.1309 9.06104V2.9152C16.1309 2.84749 16.1569 2.81104 16.2142 2.81104H16.6725C16.7402 2.81104 16.7767 2.84749 16.7767 2.9152V9.06104C16.7767 9.11833 16.7402 9.14437 16.6725 9.14437H16.2142Z" fill="white"/>
</g>
</svg>
