<svg width="13" height="20" viewBox="0 0 13 20" fill="none" xmlns="http://www.w3.org/2000/svg">
<path d="M5.52083 16.3958C7.75521 16.3958 8.875 15.5104 8.875 13.7292C8.875 12.8021 8.38021 12.1042 7.39583 11.6458C6.86458 11.3958 6.1875 11.1615 5.35417 10.9375C4.53125 10.7031 3.84375 10.474 3.29167 10.25C2.75 10.0156 2.19792 9.6875 1.64583 9.27083C0.546875 8.45313 0 7.19792 0 5.5C0 3.79167 0.588541 2.45313 1.77083 1.47917C2.94792 0.494792 4.48958 0 6.39583 0C8.3125 0 10.0885 0.385416 11.7292 1.14583V5.33333L8.875 5.54167V3.91667C8.875 3.64063 8.83854 3.43229 8.77083 3.29167C8.5625 2.94792 7.90104 2.77083 6.79167 2.77083C5.67708 2.77083 4.85938 2.96875 4.33333 3.35417C3.80208 3.74479 3.54167 4.34896 3.54167 5.16667C3.54167 5.76563 3.76042 6.28646 4.20833 6.72917C4.51042 7.03646 4.95833 7.28646 5.54167 7.47917C6.125 7.67708 6.73958 7.875 7.39583 8.08333C8.0625 8.28125 8.65104 8.5 9.16667 8.75C9.67708 8.98958 10.2135 9.32292 10.7708 9.75C11.9063 10.5833 12.4792 11.8854 12.4792 13.6458C12.4792 15.3958 11.8438 16.7708 10.5833 17.7708C9.33333 18.7708 7.67708 19.2708 5.625 19.2708C3.56771 19.2708 1.71875 18.8906 0.0833333 18.125V13.7292L2.91667 13.5208V15.2292C2.91667 15.5104 2.94792 15.7188 3.02083 15.8542C3.10417 15.9792 3.33333 16.1042 3.70833 16.2292C4.09375 16.3438 4.69792 16.3958 5.52083 16.3958Z" fill="#D72333"/>
</svg>
