<svg width="14" height="14" viewBox="0 0 14 14" fill="none" xmlns="http://www.w3.org/2000/svg">
<mask id="mask0_24_8442" style="mask-type:luminance" maskUnits="userSpaceOnUse" x="0" y="0" width="14" height="14">
<path d="M13.3333 0H0V13.3333H13.3333V0Z" fill="white"/>
</mask>
<g mask="url(#mask0_24_8442)">
<path d="M4.86133 6.77897C4.91341 7.06022 4.94466 7.3623 4.94466 7.69564C4.94466 7.9873 4.92904 8.24772 4.90299 8.46647C4.8457 8.95605 4.67383 9.33105 4.38216 9.59147C4.10091 9.8571 3.73633 9.9873 3.27799 9.9873C2.8457 9.9873 2.49154 9.87272 2.21549 9.63314C1.93425 9.38314 1.76237 9.02376 1.69466 8.5498C1.65299 8.33105 1.63216 8.06022 1.63216 7.7373L1.61133 4.34147C1.61133 3.7998 1.76237 3.37272 2.06966 3.0498C2.37174 2.71647 2.77799 2.5498 3.27799 2.5498C3.7207 2.5498 4.09049 2.71647 4.38216 3.0498C4.68425 3.37272 4.84049 3.7998 4.84049 4.34147V4.50814C4.84049 4.58105 4.80404 4.6123 4.73633 4.6123H4.19466C4.12174 4.6123 4.09049 4.58105 4.09049 4.50814V4.3623C4.09049 4.02897 4.01237 3.75814 3.86133 3.5498C3.70508 3.33105 3.51237 3.21647 3.27799 3.21647C2.99674 3.21647 2.77799 3.32064 2.61133 3.52897C2.44466 3.7373 2.36133 4.01856 2.36133 4.3623V5.7373C2.36133 5.75293 2.36654 5.76856 2.38216 5.77897C2.39258 5.77897 2.4082 5.77376 2.42383 5.75814C2.51758 5.62272 2.64258 5.51856 2.79883 5.44564C2.94987 5.3623 3.11654 5.32064 3.29883 5.32064C3.71549 5.32064 4.05404 5.45605 4.31966 5.71647C4.5957 5.96647 4.77799 6.32064 4.86133 6.77897ZM4.15299 8.40397C4.17904 8.12793 4.19466 7.87272 4.19466 7.63314C4.19466 7.33105 4.16341 7.03939 4.11133 6.75814C4.05404 6.49772 3.95508 6.2998 3.81966 6.1748C3.67904 6.03939 3.49674 5.96647 3.27799 5.96647C2.83008 5.96647 2.54883 6.24772 2.42383 6.7998C2.38216 7.02376 2.36133 7.2998 2.36133 7.63314C2.36133 7.96647 2.38216 8.2373 2.42383 8.44564C2.5332 9.0446 2.81966 9.34147 3.27799 9.34147C3.51237 9.34147 3.69987 9.26856 3.84049 9.1123C3.99154 8.94564 4.0957 8.71126 4.15299 8.40397Z" fill="white"/>
<path d="M6.30257 9.88298C6.1359 9.88298 5.99528 9.83089 5.8859 9.71631C5.77132 9.60693 5.71924 9.46631 5.71924 9.29964C5.71924 9.13298 5.77132 8.99756 5.8859 8.88298C5.99528 8.7736 6.1359 8.71631 6.30257 8.71631C6.46924 8.71631 6.60466 8.7736 6.71924 8.88298C6.82861 8.99756 6.88591 9.13298 6.88591 9.29964C6.88591 9.46631 6.82861 9.60693 6.71924 9.71631C6.60466 9.83089 6.46924 9.88298 6.30257 9.88298Z" fill="white"/>
<path d="M10.3568 6.02881C10.3151 6.04443 10.3151 6.06527 10.3568 6.09131C10.6068 6.21631 10.7839 6.41422 10.8984 6.67464C11.0495 7.0236 11.1276 7.42464 11.1276 7.88298C11.1276 8.25798 11.0755 8.5861 10.9818 8.86214C10.8672 9.22673 10.6797 9.50277 10.4193 9.69548C10.1536 9.89339 9.84115 9.98714 9.48177 9.98714C9.11719 9.98714 8.80469 9.89339 8.54427 9.69548C8.29427 9.50277 8.10677 9.23193 7.98177 8.88298C7.88281 8.58089 7.83594 8.23714 7.83594 7.86214C7.83594 7.43506 7.89844 7.06527 8.02344 6.75798C8.14844 6.46631 8.34115 6.24756 8.60677 6.09131C8.63281 6.06527 8.63281 6.04443 8.60677 6.02881C8.38281 5.90381 8.20052 5.71631 8.0651 5.46631C7.90885 5.17464 7.83594 4.82048 7.83594 4.40381C7.83594 3.98714 7.90885 3.63298 8.0651 3.34131C8.1901 3.09131 8.36719 2.8986 8.60677 2.75798C8.85677 2.60693 9.14844 2.52881 9.48177 2.52881C9.79948 2.52881 10.0755 2.60173 10.3151 2.73714C10.5651 2.87777 10.7526 3.07048 10.8776 3.32048C11.0443 3.61214 11.1276 3.98193 11.1276 4.42464C11.1276 4.83089 11.0547 5.16943 10.9193 5.44548C10.7786 5.69548 10.5911 5.89339 10.3568 6.02881ZM8.71094 3.69548C8.61198 3.90381 8.5651 4.16422 8.5651 4.46631C8.5651 4.7736 8.61719 5.02881 8.73177 5.23714C8.88281 5.5861 9.13281 5.75798 9.48177 5.75798C9.65885 5.75798 9.8151 5.7111 9.9401 5.61214C10.0755 5.51839 10.1797 5.37777 10.2526 5.19548C10.3464 4.98714 10.3984 4.74756 10.3984 4.46631C10.3984 4.13298 10.3411 3.87256 10.2318 3.67464C10.0651 3.34131 9.8151 3.17464 9.48177 3.17464C9.11719 3.17464 8.86198 3.35173 8.71094 3.69548ZM10.3151 8.57048C10.3672 8.35173 10.3984 8.10693 10.3984 7.84131C10.3984 7.48193 10.3464 7.18506 10.2526 6.94548C10.112 6.54443 9.85677 6.34131 9.48177 6.34131C9.28385 6.34131 9.11719 6.3986 8.98177 6.50798C8.85677 6.62256 8.75781 6.77881 8.6901 6.98714C8.60677 7.2111 8.5651 7.49756 8.5651 7.84131C8.5651 8.12256 8.59115 8.37256 8.64844 8.59131C8.71615 8.83089 8.82031 9.01839 8.96094 9.15381C9.09635 9.27881 9.27344 9.34131 9.48177 9.34131C9.6901 9.34131 9.86198 9.27881 10.0026 9.15381C10.1536 9.01839 10.2578 8.82048 10.3151 8.57048Z" fill="white"/>
</g>
</svg>
