<svg width="4" height="7" viewBox="0 0 4 7" fill="none" xmlns="http://www.w3.org/2000/svg">
<path d="M1.5625 6.5625C1.08854 6.5625 0.708333 6.41667 0.416667 6.125C0.135416 5.83333 0 5.45313 0 4.97917V1.58333C0 1.09896 0.135416 0.718751 0.416667 0.4375C0.708333 0.145833 1.08854 0 1.5625 0C2.03125 0 2.40625 0.145833 2.6875 0.4375C2.97917 0.718751 3.125 1.09896 3.125 1.58333V1.72917C3.125 1.80208 3.08854 1.83333 3.02083 1.83333L2.5625 1.85417C2.48958 1.85417 2.45833 1.82292 2.45833 1.75V1.54167C2.45833 1.25 2.375 1.01563 2.20833 0.833333C2.05208 0.656249 1.83854 0.5625 1.5625 0.5625C1.28125 0.5625 1.0625 0.656249 0.895833 0.833333C0.729167 1.01563 0.645833 1.25 0.645833 1.54167V5.02083C0.645833 5.3125 0.729167 5.55208 0.895833 5.72917C1.0625 5.89583 1.28125 5.97917 1.5625 5.97917C1.83854 5.97917 2.05208 5.89583 2.20833 5.72917C2.375 5.55208 2.45833 5.3125 2.45833 5.02083V4.79167C2.45833 4.73958 2.48958 4.70833 2.5625 4.70833L3.02083 4.72917C3.08854 4.72917 3.125 4.76563 3.125 4.83333V4.97917C3.125 5.45313 2.97917 5.83333 2.6875 6.125C2.40625 6.41667 2.03125 6.5625 1.5625 6.5625Z" fill="#D72333"/>
</svg>
