<svg width="7" height="11" viewBox="0 0 7 11" fill="none" xmlns="http://www.w3.org/2000/svg">
<path d="M4.91146 10.9792C4.79687 10.9792 4.74479 10.9271 4.74479 10.8125L4.68229 9.29167C4.68229 9.28125 4.66667 9.26563 4.64062 9.25C4.625 9.23958 4.60938 9.22917 4.59896 9.22917H2.66146C2.60417 9.22917 2.57812 9.25 2.57812 9.29167L2.14062 10.8125C2.09896 10.9271 2.02083 10.9792 1.91146 10.9792H0.140625C0.015625 10.9792 -0.0260417 10.9115 0.015625 10.7708L3.53646 0.166667C3.57812 0.057292 3.65104 0 3.76562 0H5.82812C5.92187 0 5.98438 0.057292 6.01562 0.166667L6.91146 10.7708V10.8125C6.91146 10.9271 6.85417 10.9792 6.74479 10.9792H4.91146ZM3.09896 7.4375C3.08333 7.49479 3.10417 7.52083 3.16146 7.52083H4.51562C4.56771 7.52083 4.59896 7.49479 4.59896 7.4375L4.41146 3.14583C4.39583 3.11979 4.375 3.10417 4.34896 3.10417C4.33333 3.10417 4.31771 3.11979 4.30729 3.14583L3.09896 7.4375Z" fill="white"/>
</svg>
