<svg width="6" height="11" viewBox="0 0 6 11" fill="none" xmlns="http://www.w3.org/2000/svg">
<path d="M5.58333 6.3125C5.625 6.53646 5.64583 6.82292 5.64583 7.16667C5.64583 7.375 5.63021 7.66667 5.60417 8.04167C5.57292 8.82292 5.3125 9.42708 4.8125 9.85417C4.32292 10.2708 3.66667 10.4792 2.83333 10.4792C2.05208 10.4792 1.42187 10.2865 0.9375 9.89583C0.447917 9.49479 0.166667 8.91146 0.0833333 8.14583C0.0416667 7.9375 0.0208333 7.66667 0.0208333 7.33333L0 2.625C0 1.82292 0.25 1.18229 0.75 0.708333C1.26042 0.239583 1.94792 0 2.8125 0C3.58854 0 4.22917 0.244792 4.72917 0.729167C5.23958 1.20313 5.5 1.83333 5.5 2.625V3.0625C5.5 3.10417 5.47917 3.14583 5.4375 3.1875C5.40625 3.21875 5.36458 3.22917 5.3125 3.22917H3.60417C3.5625 3.22917 3.52083 3.21875 3.47917 3.1875C3.44792 3.14583 3.4375 3.10417 3.4375 3.0625V2.72917C3.4375 2.46875 3.36458 2.25 3.22917 2.08333C3.10417 1.90625 2.96354 1.8125 2.8125 1.8125C2.58854 1.8125 2.40625 1.90625 2.27083 2.08333C2.13021 2.25 2.0625 2.46875 2.0625 2.72917V4.20833C2.0625 4.23958 2.06771 4.26042 2.08333 4.27083C2.10937 4.27083 2.13542 4.26563 2.16667 4.25C2.48437 3.97396 2.84375 3.83333 3.25 3.83333C3.92708 3.83333 4.47917 4.05729 4.89583 4.5C5.3125 4.94792 5.54167 5.55208 5.58333 6.3125ZM3.52083 7.875C3.53125 7.41667 3.54167 7.13542 3.54167 7.02083C3.54167 6.76042 3.52604 6.45313 3.5 6.10417C3.45833 5.88542 3.38021 5.70833 3.27083 5.58333C3.15625 5.45833 3.00521 5.39583 2.8125 5.39583C2.61458 5.39583 2.45833 5.46875 2.33333 5.60417C2.21875 5.72917 2.15104 5.91146 2.125 6.14583C2.08333 6.52083 2.0625 6.8125 2.0625 7.02083C2.0625 7.26042 2.08333 7.55729 2.125 7.91667C2.15104 8.18229 2.21875 8.38542 2.33333 8.52083C2.45833 8.64583 2.61458 8.70833 2.8125 8.70833C3.00521 8.70833 3.16667 8.64063 3.29167 8.5C3.41667 8.34896 3.48958 8.14063 3.52083 7.875Z" fill="#D72333"/>
</svg>
