<svg width="6" height="9" viewBox="0 0 6 9" fill="none" xmlns="http://www.w3.org/2000/svg">
<path d="M5.95833 4.6875C5.95833 4.74479 5.9375 4.79167 5.89583 4.83333C5.86458 4.86458 5.82292 4.875 5.77083 4.875H2.29167C2.25 4.875 2.22917 4.90625 2.22917 4.95833V5.54167C2.22917 5.80729 2.29687 6.03125 2.4375 6.20833C2.57292 6.375 2.75521 6.45833 2.97917 6.45833C3.17187 6.45833 3.33333 6.39583 3.45833 6.27083C3.59375 6.13542 3.6875 5.96875 3.72917 5.77083C3.75521 5.66146 3.82292 5.60417 3.9375 5.60417L5.75 5.70833C5.80208 5.70833 5.84375 5.72917 5.875 5.77083C5.91667 5.80208 5.92708 5.84896 5.91667 5.91667C5.84375 6.72396 5.5625 7.33333 5.0625 7.75C4.57292 8.16667 3.88021 8.375 2.97917 8.375C2.03125 8.375 1.29687 8.14583 0.770833 7.6875C0.255208 7.21875 0 6.5625 0 5.72917V2.64583C0 1.85417 0.260416 1.21875 0.791667 0.729167C1.31771 0.244792 2.04687 0 2.97917 0C3.90625 0 4.63542 0.244792 5.16667 0.729167C5.69271 1.21875 5.95833 1.85417 5.95833 2.64583V4.6875ZM2.97917 1.91667C2.75521 1.91667 2.57292 2 2.4375 2.16667C2.29687 2.33333 2.22917 2.55208 2.22917 2.8125V3.4375C2.22917 3.47917 2.25 3.5 2.29167 3.5H3.66667C3.70833 3.5 3.72917 3.47917 3.72917 3.4375V2.8125C3.72917 2.55208 3.65625 2.33333 3.52083 2.16667C3.38021 2 3.19792 1.91667 2.97917 1.91667Z" fill="#D72333"/>
</svg>
