<svg width="18" height="21" viewBox="0 0 18 21" fill="none" xmlns="http://www.w3.org/2000/svg">
<path d="M15.9583 20.2868H15.8125C15.4635 20.193 15.0938 20.1565 14.7083 20.1826C14.3333 20.2138 13.9688 20.2347 13.625 20.2451C13.4271 20.2451 13.2396 20.2607 13.0625 20.2868C12.8802 20.3128 12.6927 20.318 12.5 20.3076C12.25 20.2972 12.0104 20.2347 11.7917 20.1201C11.5677 20.0107 11.3542 19.9118 11.1458 19.8284C11.1042 19.6357 11.0521 19.4482 11 19.2659C10.9583 19.0888 10.8958 18.9118 10.8125 18.7451C10.6719 18.568 10.5208 18.4065 10.3542 18.2659C10.1875 18.1305 10.026 17.9847 9.875 17.8284C9.76042 17.7034 9.65104 17.568 9.54167 17.4118C9.44271 17.2607 9.35417 17.1097 9.27083 16.9534C9.19792 16.7607 9.14583 16.568 9.10417 16.3701C9.0625 16.1618 9 15.9638 8.91667 15.7659C8.83333 15.6149 8.72917 15.4899 8.60417 15.3909C8.47917 15.2815 8.35938 15.1565 8.25 15.0159C8.10938 14.8649 8 14.7034 7.91667 14.5368C7.84375 14.3597 7.77604 14.1722 7.70833 13.9743C7.55208 13.5576 7.375 13.1618 7.16667 12.7868C6.96875 12.4118 6.71354 12.068 6.39583 11.7451L6.54167 11.5159L5.91667 11.4743L5.47917 11.8493L5.75 12.0784C5.69271 12.4274 5.63021 12.7815 5.5625 13.1409C5.50521 13.4899 5.5 13.844 5.54167 14.2034C5.58333 14.443 5.63021 14.7138 5.6875 15.0159C5.73958 15.3232 5.66667 15.5732 5.45833 15.7659C5.52604 16.0888 5.56771 16.4222 5.58333 16.7659C5.60938 17.0993 5.60417 17.4274 5.5625 17.7451C5.54688 17.9847 5.52083 18.2138 5.47917 18.4326C5.44792 18.6409 5.4375 18.8597 5.4375 19.0784C5.4375 19.5107 5.23958 19.8232 4.85417 20.0159C4.46354 20.2138 4.00521 20.3128 3.47917 20.3284L3.39583 20.1826L2.97917 20.1618L2.91667 20.3701C2.73437 20.2763 2.53125 20.2555 2.3125 20.3076C2.10417 20.3493 1.89583 20.3753 1.6875 20.3909C1.48958 20.417 1.30208 20.4118 1.125 20.3701C0.942708 20.3388 0.755208 20.318 0.5625 20.3076C0.380208 19.9065 0.276041 19.4951 0.25 19.0784C0.234375 18.6513 0.239584 18.219 0.270833 17.7868C0.3125 17.3597 0.296875 16.9326 0.229167 16.5159C0.197917 16.3388 0.166667 16.1722 0.125 16.0159C0.0937493 15.8649 0.0885413 15.7034 0.104167 15.5368C0.130208 15.3597 0.166667 15.193 0.208333 15.0368C0.260416 14.8857 0.276041 14.7243 0.25 14.5576C0.234375 14.1982 0.192708 13.8388 0.125 13.4743C0.067708 13.0993 0.0312507 12.7347 0.0208333 12.3701C0.005208 11.969 0.0208333 11.5784 0.0625 11.2034C0.114584 10.8284 0.156251 10.4534 0.1875 10.0784C0.229167 9.693 0.218749 9.32321 0.166667 8.97425C0.109375 8.6305 0.067708 8.27633 0.0416667 7.91175C0.0416667 7.53675 0.0729173 7.15654 0.145833 6.76592C0.213541 6.3805 0.260416 6.0055 0.291667 5.64092C0.317708 4.78154 0.218749 3.97425 0 3.22425L0.0208333 3.18258C0.171875 2.93258 0.218749 2.67217 0.166667 2.39092C0.151041 2.22425 0.130208 2.05238 0.104167 1.87008C0.0885413 1.693 0.067708 1.51071 0.0416667 1.32842C0.010416 0.885709 0.1875 0.547168 0.5625 0.307584H0.604167C0.770833 0.182584 0.958333 0.120084 1.16667 0.120084C1.44271 0.109667 1.69792 0.0784175 1.9375 0.0367508C2.1875 -0.00491583 2.4375 -0.0101238 2.6875 0.0159175C2.97917 0.0159175 3.27083 0.0367508 3.5625 0.0784175C3.85417 0.109667 4.13542 0.13571 4.41667 0.161751C4.875 0.193 5.19792 0.427376 5.39583 0.870084C5.53125 1.21904 5.55208 1.57842 5.45833 1.95342C5.375 2.32842 5.375 2.73988 5.45833 3.18258C5.67708 4.5055 5.67708 5.80238 5.45833 7.07842L5.60417 7.30758C5.8125 7.33884 6.05208 7.2555 6.33333 7.05758C6.60938 6.84925 6.83333 6.69821 7 6.59925C7.04167 6.23988 7.1875 5.97425 7.4375 5.80758C7.69792 5.64092 7.97917 5.46383 8.27083 5.26592L8.16667 4.78675L8.70833 4.66175C9.17708 3.90133 9.71354 3.13571 10.3125 2.37008C10.9063 1.60967 11.5625 0.932584 12.2708 0.349251C12.3125 0.323209 12.3333 0.286751 12.3333 0.245084C12.3333 0.109667 12.3958 0.0575842 12.5208 0.0992508C12.8542 0.172168 13.1667 0.193 13.4583 0.161751C13.7604 0.120084 14.0625 0.109667 14.3542 0.120084C14.6458 0.120084 14.9375 0.245084 15.2292 0.495084C15.3125 0.578418 15.3177 0.651333 15.25 0.703417C14.8177 1.23467 14.3438 1.74508 13.8333 2.24508C13.3333 2.74508 12.8958 3.30238 12.5208 3.91175C12.1458 4.53675 11.6875 5.09925 11.1458 5.59925C10.6146 6.08883 10.1875 6.67217 9.85417 7.34925C10.2396 7.92217 10.651 8.48467 11.0833 9.03675C11.5104 9.57842 11.8802 10.1565 12.1875 10.7659C12.3125 11.0159 12.4271 11.2659 12.5417 11.5159C12.651 11.7659 12.7969 12.0055 12.9792 12.2243C13.1563 12.4326 13.3177 12.6513 13.4583 12.8701C13.6094 13.0784 13.75 13.318 13.875 13.5784C14.0104 13.8284 14.1563 14.068 14.3125 14.2868C14.4635 14.5107 14.6354 14.7347 14.8333 14.9534C15.026 15.2034 15.1563 15.4743 15.2292 15.7659C15.3125 16.0576 15.4271 16.3388 15.5833 16.5993C15.8333 17.0576 16.125 17.4847 16.4583 17.8701C16.8021 18.2451 17.0208 18.7138 17.1042 19.2659C17.1042 19.3076 17.1354 19.3701 17.2083 19.4534C17.3021 19.5107 17.3385 19.594 17.3125 19.7034C17.2969 19.8024 17.25 19.8701 17.1667 19.9118C16.9688 19.9847 16.7708 20.0472 16.5625 20.0993C16.3646 20.1565 16.1667 20.219 15.9583 20.2868Z" fill="#D72333"/>
</svg>
