<svg width="4" height="12" viewBox="0 0 4 12" fill="none" xmlns="http://www.w3.org/2000/svg">
<path d="M3.08333 0.979167C2.67708 0.979167 2.39583 1.11979 2.22917 1.39583C2.0625 1.66146 1.97917 2.07813 1.97917 2.64583V3.125C1.97917 3.16667 2 3.1875 2.04167 3.1875H3.27083C3.36458 3.1875 3.41667 3.24479 3.41667 3.35417V3.875C3.41667 3.98958 3.36458 4.04167 3.27083 4.04167H2.04167C2 4.04167 1.97917 4.0625 1.97917 4.10417V11.0625C1.97917 11.1771 1.92187 11.2292 1.8125 11.2292H1.02083C0.906249 11.2292 0.854167 11.1771 0.854167 11.0625V4.10417C0.854167 4.0625 0.833333 4.04167 0.791667 4.04167H0.166667C0.052084 4.04167 0 3.98958 0 3.875V3.35417C0 3.24479 0.052084 3.1875 0.166667 3.1875H0.791667C0.833333 3.1875 0.854167 3.16667 0.854167 3.125V2.625C0.854167 1.70833 1.02083 1.04167 1.35417 0.625C1.69792 0.208333 2.27083 0 3.0625 0H3.29167C3.40104 0 3.45833 0.057292 3.45833 0.166667L3.4375 0.8125C3.4375 0.927084 3.38021 0.979167 3.27083 0.979167H3.08333Z" fill="#D72333"/>
</svg>
