<svg width="8" height="12" viewBox="0 0 8 12" fill="none" xmlns="http://www.w3.org/2000/svg">
<path d="M5.125 0.125C5.16667 0.0416667 5.25 0 5.375 0H7.20833C7.26042 0 7.30208 0.0208333 7.33333 0.0625C7.375 0.0937507 7.39583 0.135417 7.39583 0.1875V10.9167C7.39583 10.974 7.375 11.0208 7.33333 11.0625C7.30208 11.0938 7.26042 11.1042 7.20833 11.1042H5.35417C5.29688 11.1042 5.25 11.0938 5.20833 11.0625C5.17708 11.0208 5.16667 10.974 5.16667 10.9167V3.79167C5.16667 3.75 5.15104 3.72917 5.125 3.72917C5.10938 3.72917 5.08854 3.74479 5.0625 3.77083L3.83333 5.95833C3.77604 6.04167 3.73437 6.08333 3.70833 6.08333C3.67708 6.08333 3.63542 6.04167 3.58333 5.95833L2.33333 3.77083C2.31771 3.74479 2.29687 3.72917 2.27083 3.72917C2.25521 3.72917 2.25 3.75 2.25 3.79167V10.9167C2.25 10.974 2.22917 11.0208 2.1875 11.0625C2.14583 11.0938 2.10417 11.1042 2.0625 11.1042H0.1875C0.145833 11.1042 0.104167 11.0938 0.0625 11.0625C0.0208333 11.0208 0 10.974 0 10.9167V0.1875C0 0.135417 0.0208333 0.0937507 0.0625 0.0625C0.104167 0.0208333 0.145833 0 0.1875 0H2.02083C2.13021 0 2.20833 0.0416667 2.25 0.125L3.66667 2.64583C3.70833 2.6875 3.73958 2.6875 3.77083 2.64583L5.125 0.125Z" fill="#D72333"/>
</svg>
