<svg width="7" height="12" viewBox="0 0 7 12" fill="none" xmlns="http://www.w3.org/2000/svg">
<mask id="mask0_24_3319" style="mask-type:luminance" maskUnits="userSpaceOnUse" x="0" y="0" width="7" height="12">
<path d="M6.66667 0H0V12H6.66667V0Z" fill="white"/>
</mask>
<g mask="url(#mask0_24_3319)">
<mask id="mask1_24_3319" style="mask-type:luminance" maskUnits="userSpaceOnUse" x="0" y="2" width="6" height="8">
<path d="M0.427246 2.6665H5.3335V9.33317H0.427246V2.6665Z" fill="white"/>
</mask>
<g mask="url(#mask1_24_3319)">
<path d="M2.78141 9.24495C2.30745 9.24495 1.93245 9.11475 1.65641 8.84912C1.37516 8.57308 1.23975 8.20329 1.23975 7.74495V4.28662C1.23975 3.82829 1.37516 3.46891 1.65641 3.20329C1.93245 2.92725 2.30745 2.78662 2.78141 2.78662C3.23975 2.78662 3.60433 2.92725 3.88558 3.20329C4.16162 3.48454 4.30225 3.84912 4.30225 4.30745V4.68245C4.30225 4.75537 4.271 4.78662 4.21891 4.78662H3.76058C3.70329 4.78662 3.67725 4.75537 3.67725 4.68245V4.28662C3.67725 3.99495 3.59391 3.76579 3.42725 3.59912C3.26058 3.43245 3.04183 3.34912 2.78141 3.34912C2.51579 3.34912 2.30225 3.44287 2.13558 3.61995C1.96891 3.78662 1.88558 4.01058 1.88558 4.28662V7.74495C1.88558 8.0262 1.96891 8.25537 2.13558 8.43245C2.30225 8.61475 2.51579 8.70329 2.78141 8.70329C3.04183 8.70329 3.26058 8.61995 3.42725 8.45329C3.59391 8.2762 3.67725 8.03662 3.67725 7.74495V6.59912C3.67725 6.57308 3.66162 6.55745 3.63558 6.55745H2.86475C2.79183 6.55745 2.76058 6.53141 2.76058 6.47412V6.09912C2.76058 6.03141 2.79183 5.99495 2.86475 5.99495H4.21891C4.271 5.99495 4.30225 6.03141 4.30225 6.09912V7.74495C4.30225 8.20329 4.16162 8.57308 3.88558 8.84912C3.60433 9.11475 3.23975 9.24495 2.78141 9.24495Z" fill="#D72333"/>
</g>
</g>
</svg>
