<svg width="7" height="12" viewBox="0 0 7 12" fill="none" xmlns="http://www.w3.org/2000/svg">
<path d="M5.95833 6.39583C6.01042 6.80208 6.04167 7.19792 6.04167 7.58333C6.04167 8.04167 6.02083 8.4375 5.97917 8.77083C5.89583 9.53646 5.59375 10.1406 5.08333 10.5833C4.58333 11.0156 3.90625 11.2292 3.0625 11.2292C2.1875 11.2292 1.46875 11 0.916667 10.5417C0.375 10.0729 0.0833333 9.44792 0.0416667 8.66667C0.010416 8.39063 0 8.08333 0 7.75C0 7.625 0.0625 7.5625 0.1875 7.5625H2.04167C2.16667 7.5625 2.22917 7.625 2.22917 7.75C2.22917 8 2.23958 8.22917 2.27083 8.4375C2.3125 8.71875 2.39583 8.93229 2.52083 9.08333C2.65625 9.23958 2.83854 9.3125 3.0625 9.3125C3.28125 9.3125 3.45833 9.24479 3.58333 9.10417C3.71875 8.95313 3.8125 8.74479 3.85417 8.47917C3.89583 8.11979 3.91667 7.73958 3.91667 7.33333C3.91667 6.84896 3.88542 6.45833 3.83333 6.16667C3.79167 5.91667 3.69792 5.72917 3.5625 5.60417C3.4375 5.46875 3.27083 5.39583 3.0625 5.39583C2.90625 5.39583 2.75 5.46875 2.58333 5.60417C2.52604 5.64583 2.48437 5.66667 2.45833 5.66667C2.41667 5.66667 2.375 5.64583 2.33333 5.60417L1.375 4.625C1.33333 4.58333 1.3125 4.53646 1.3125 4.47917C1.3125 4.4375 1.32292 4.39583 1.35417 4.35417L3.27083 2C3.29687 1.97396 3.30208 1.95313 3.29167 1.9375C3.27604 1.91146 3.25521 1.89583 3.22917 1.89583H0.375C0.317708 1.89583 0.270833 1.88542 0.229167 1.85417C0.197917 1.8125 0.1875 1.76563 0.1875 1.70833V0.1875C0.1875 0.135417 0.197917 0.0937507 0.229167 0.0625C0.270833 0.0208333 0.317708 0 0.375 0H5.83333C5.88542 0 5.92708 0.0208333 5.95833 0.0625C6 0.0937507 6.02083 0.135417 6.02083 0.1875V1.77083C6.02083 1.85417 5.98958 1.93229 5.9375 2L4.16667 4.25C4.15104 4.26563 4.14583 4.28646 4.14583 4.3125C4.14583 4.32813 4.15625 4.33333 4.1875 4.33333C4.64583 4.375 5.03125 4.59375 5.35417 4.97917C5.6875 5.35417 5.88542 5.82813 5.95833 6.39583Z" fill="#D72333"/>
</svg>
