<svg width="6" height="12" viewBox="0 0 6 12" fill="none" xmlns="http://www.w3.org/2000/svg">
<path d="M3.75 0C4.46875 0 5.02083 0.239584 5.39583 0.708333C5.77083 1.16667 5.95833 1.8125 5.95833 2.64583V5.72917C5.95833 6.57813 5.77083 7.22917 5.39583 7.6875C5.02083 8.14583 4.46875 8.375 3.75 8.375C3.51042 8.375 3.27083 8.33333 3.02083 8.25C2.77083 8.15625 2.54167 7.98958 2.33333 7.75C2.30208 7.72396 2.27604 7.71875 2.25 7.72917C2.23437 7.74479 2.22917 7.76563 2.22917 7.79167V11C2.22917 11.0521 2.20833 11.0938 2.16667 11.125C2.13542 11.1667 2.09375 11.1875 2.04167 11.1875H0.1875C0.130208 11.1875 0.0833333 11.1667 0.0416667 11.125C0.0104173 11.0938 0 11.0521 0 11V0.3125C0 0.260416 0.0104173 0.218749 0.0416667 0.1875C0.0833333 0.145833 0.130208 0.125 0.1875 0.125H2.04167C2.09375 0.125 2.13542 0.145833 2.16667 0.1875C2.20833 0.218749 2.22917 0.260416 2.22917 0.3125V0.5625C2.22917 0.593749 2.23958 0.604167 2.27083 0.604167C2.3125 0.604167 2.35417 0.578125 2.39583 0.520833C2.75521 0.177083 3.20833 0 3.75 0ZM3.72917 2.8125C3.72917 2.53646 3.65625 2.3125 3.52083 2.14583C3.39583 1.97917 3.21354 1.89583 2.97917 1.89583C2.75521 1.89583 2.57292 1.97917 2.4375 2.14583C2.29687 2.3125 2.22917 2.53646 2.22917 2.8125V5.54167C2.22917 5.82292 2.29687 6.04167 2.4375 6.20833C2.57292 6.375 2.75521 6.45833 2.97917 6.45833C3.21354 6.45833 3.39583 6.375 3.52083 6.20833C3.65625 6.04167 3.72917 5.82292 3.72917 5.54167V2.8125Z" fill="#D72333"/>
</svg>
