<svg width="9" height="8" viewBox="0 0 9 8" fill="none" xmlns="http://www.w3.org/2000/svg">
<path d="M6.82422 0C7.32422 0 7.70443 0.166667 7.97005 0.5C8.24609 0.833333 8.38672 1.30208 8.38672 1.89583C8.38672 2.07813 8.37109 2.27083 8.34505 2.47917L7.72005 7.54167C7.70443 7.64063 7.64713 7.6875 7.55339 7.6875H6.84505C6.78776 7.6875 6.74609 7.67708 6.72005 7.64583C6.70443 7.61979 6.69922 7.58333 6.69922 7.54167L7.32422 2.5625C7.33464 2.49479 7.34505 2.375 7.34505 2.20833C7.34505 1.80729 7.2513 1.49479 7.07422 1.27083C6.90755 1.03646 6.67839 0.916667 6.38672 0.916667C6.02213 0.916667 5.72005 1.0625 5.47005 1.35417C5.22005 1.64583 5.05859 2.04167 4.99089 2.54167L4.38672 7.54167C4.35547 7.64063 4.30339 7.6875 4.22005 7.6875H3.49089C3.43359 7.6875 3.39193 7.67708 3.36589 7.64583C3.33464 7.61979 3.32943 7.58333 3.34505 7.54167L3.97005 2.5625C3.97005 2.49479 3.97005 2.375 3.97005 2.20833C3.97005 1.80729 3.88672 1.49479 3.72005 1.27083C3.5638 1.03646 3.34505 0.916667 3.05339 0.916667C2.66276 0.916667 2.34505 1.0625 2.09505 1.35417C1.84505 1.64583 1.6888 2.04167 1.63672 2.54167L1.01172 7.54167C0.996094 7.64063 0.949219 7.6875 0.865886 7.6875H0.115886C0.074219 7.6875 0.0377603 7.67708 0.011719 7.64583C-0.00390633 7.61979 -0.00390633 7.58333 0.011719 7.54167L0.907552 0.25C0.907552 0.208333 0.91797 0.177084 0.949219 0.145833C0.97526 0.119792 1.01693 0.104167 1.07422 0.104167H1.78255C1.8763 0.104167 1.92839 0.156249 1.92839 0.25L1.86589 0.708333C1.85026 0.739583 1.85026 0.75 1.86589 0.75C1.8763 0.75 1.89714 0.744792 1.92839 0.729167C2.14714 0.479167 2.39193 0.302084 2.65755 0.1875C2.91797 0.0625 3.19922 0 3.49089 0C3.83464 0 4.13672 0.0937507 4.38672 0.270833C4.63672 0.453125 4.8138 0.718751 4.92839 1.0625C4.92839 1.07813 4.93359 1.08333 4.94922 1.08333C4.97526 1.08333 4.99609 1.07292 5.01172 1.04167C5.23047 0.682292 5.5013 0.416667 5.82422 0.25C6.15755 0.0833333 6.49089 0 6.82422 0Z" fill="#D51224"/>
</svg>
