<svg width="4" height="8" viewBox="0 0 4 8" fill="none" xmlns="http://www.w3.org/2000/svg">
<path d="M2.5 0C2.73437 0 2.94271 0.057292 3.125 0.166667C3.19271 0.208333 3.21875 0.270833 3.20833 0.354167L3.02083 1.125C3.00521 1.20833 2.94792 1.23958 2.85417 1.20833C2.72917 1.15625 2.58333 1.125 2.41667 1.125C2.33333 1.125 2.27083 1.125 2.22917 1.125C1.88021 1.15625 1.59375 1.34375 1.375 1.6875C1.15104 2.03646 1.04167 2.45313 1.04167 2.9375V7.33333C1.04167 7.43229 0.989583 7.47917 0.895833 7.47917H0.145833C0.0468747 7.47917 0 7.43229 0 7.33333V0.229167C0 0.135417 0.0468747 0.0833333 0.145833 0.0833333H0.895833C0.989583 0.0833333 1.04167 0.135417 1.04167 0.229167V1.10417C1.04167 1.13542 1.04687 1.14583 1.0625 1.14583C1.07292 1.14583 1.08854 1.14063 1.10417 1.125C1.39583 0.375 1.85937 0 2.5 0Z" fill="#D72333"/>
</svg>
