<svg width="5" height="9" viewBox="0 0 5 9" fill="none" xmlns="http://www.w3.org/2000/svg">
<path d="M0.166667 8.04167C0.052084 8.04167 0 7.98958 0 7.875V7.125C0 7.04167 0.0104173 6.97396 0.0416667 6.91667L3.3125 1.125C3.3125 1.09896 3.3125 1.07813 3.3125 1.0625C3.3125 1.05208 3.29687 1.04167 3.27083 1.04167H0.229167C0.114583 1.04167 0.0625 0.989584 0.0625 0.875V0.166667C0.0625 0.057292 0.114583 0 0.229167 0H4.52083C4.61458 0 4.66667 0.057292 4.66667 0.166667V0.9375C4.66667 1.01042 4.65104 1.07813 4.625 1.14583L1.33333 6.9375C1.31771 6.95313 1.31771 6.96875 1.33333 6.97917C1.34375 6.99479 1.35937 7 1.375 7H4.54167C4.65104 7 4.70833 7.05729 4.70833 7.16667V7.875C4.70833 7.98958 4.65104 8.04167 4.54167 8.04167H0.166667Z" fill="#D72333"/>
</svg>
