<svg width="7" height="12" viewBox="0 0 7 12" fill="none" xmlns="http://www.w3.org/2000/svg">
<path d="M0.1875 11.1042C0.130208 11.1042 0.0833333 11.0938 0.0416667 11.0625C0.010416 11.0208 0 10.974 0 10.9167V0.1875C0 0.135417 0.010416 0.0937507 0.0416667 0.0625C0.0833333 0.0208333 0.130208 0 0.1875 0H2.04167C2.09375 0 2.13542 0.0208333 2.16667 0.0625C2.20833 0.0937507 2.22917 0.135417 2.22917 0.1875V4.1875C2.22917 4.22917 2.23958 4.26042 2.27083 4.27083C2.29687 4.27083 2.31771 4.25 2.33333 4.20833L4.375 0.125C4.42708 0.0416667 4.50521 0 4.60417 0H6.5625C6.63021 0 6.67708 0.0208333 6.70833 0.0625C6.73438 0.0937507 6.73438 0.140625 6.70833 0.208333L4.35417 4.79167C4.33854 4.83333 4.33333 4.86458 4.33333 4.875L6.83333 10.875C6.84375 10.9062 6.85417 10.9375 6.85417 10.9792C6.85417 11.0625 6.79688 11.1042 6.6875 11.1042H4.70833C4.58333 11.1042 4.50521 11.0573 4.47917 10.9583L2.83333 6.79167C2.81771 6.76563 2.79687 6.76042 2.77083 6.77083C2.75521 6.77083 2.73958 6.78125 2.72917 6.79167L2.25 7.625C2.23437 7.66667 2.22917 7.70313 2.22917 7.72917V10.9167C2.22917 10.974 2.20833 11.0208 2.16667 11.0625C2.13542 11.0938 2.09375 11.1042 2.04167 11.1042H0.1875Z" fill="#D72333"/>
</svg>
