<svg width="6" height="11" viewBox="0 0 6 11" fill="none" xmlns="http://www.w3.org/2000/svg">
<path d="M4.125 3.20833C4.125 3.16667 4.13542 3.13542 4.16667 3.10417C4.19271 3.07813 4.23438 3.0625 4.29167 3.0625H5.02083C5.11458 3.0625 5.16667 3.11458 5.16667 3.20833L4.25 10.5C4.23438 10.599 4.1875 10.6458 4.10417 10.6458H3.35417C3.3125 10.6458 3.27604 10.6354 3.25 10.6042C3.21875 10.5781 3.21354 10.5417 3.22917 10.5L3.29167 9.97917C3.29167 9.95313 3.28125 9.9375 3.27083 9.9375C3.25521 9.9375 3.23958 9.95313 3.22917 9.97917C2.85417 10.4948 2.33333 10.75 1.66667 10.75C1.13542 10.75 0.729167 10.6042 0.4375 10.3125C0.145833 10.0208 0 9.58333 0 9C0 8.91667 0.005208 8.76563 0.0208333 8.54167L0.6875 3.20833C0.713541 3.11458 0.770833 3.0625 0.854167 3.0625H1.58333C1.67708 3.0625 1.72917 3.11458 1.72917 3.20833L1.10417 8.3125C1.07292 8.49479 1.0625 8.61458 1.0625 8.66667C1.0625 9.43229 1.39583 9.8125 2.0625 9.8125C2.44792 9.8125 2.77083 9.67708 3.02083 9.39583C3.28125 9.10417 3.44271 8.70833 3.5 8.20833L4.125 3.20833ZM4.1875 1.66667C3.97917 1.66667 3.80208 1.60417 3.66667 1.47917C3.54167 1.34375 3.47917 1.16667 3.47917 0.958333C3.47917 0.682292 3.56771 0.453125 3.75 0.270833C3.92708 0.0937507 4.14583 0 4.39583 0C4.61458 0 4.79167 0.072916 4.91667 0.208333C5.05208 0.333333 5.125 0.5 5.125 0.708333C5.125 0.989583 5.03125 1.21875 4.85417 1.39583C4.67188 1.57813 4.44792 1.66667 4.1875 1.66667ZM1.97917 1.66667C1.77083 1.66667 1.59375 1.60417 1.45833 1.47917C1.33333 1.34375 1.27083 1.16667 1.27083 0.958333C1.27083 0.682292 1.35937 0.453125 1.54167 0.270833C1.71875 0.0937507 1.9375 0 2.1875 0C2.40625 0 2.58333 0.072916 2.70833 0.208333C2.84375 0.333333 2.91667 0.5 2.91667 0.708333C2.91667 0.989583 2.82292 1.21875 2.64583 1.39583C2.46354 1.57813 2.23958 1.66667 1.97917 1.66667Z" fill="#D51224"/>
</svg>
