<svg width="18" height="20" viewBox="0 0 18 20" fill="none" xmlns="http://www.w3.org/2000/svg">
<path d="M9.69252 0H10.6717C10.9738 0.265625 11.3436 0.416667 11.7759 0.458333C12.2186 0.5 12.63 0.583333 13.005 0.708333L13.1509 0.583333C13.5259 0.833333 13.9269 1.03646 14.3592 1.1875C14.7863 1.34375 15.1977 1.53125 15.5884 1.75C15.8227 1.86458 15.9686 2.05208 16.0259 2.3125C16.0936 2.5625 16.0571 2.80208 15.9217 3.02083L15.2759 3.91667C15.1613 4.07292 15.0154 4.1875 14.8384 4.27083C14.6717 4.35417 14.4894 4.36979 14.2967 4.3125C14.2811 4.3125 14.2654 4.3125 14.255 4.3125C14.2394 4.30208 14.2238 4.29167 14.2134 4.29167C14.1404 4.25 14.0727 4.20313 14.005 4.14583C13.9477 4.07813 13.8852 4.01563 13.8175 3.95833C13.7186 3.90625 13.6092 3.86979 13.4842 3.85417C13.3696 3.82813 13.2602 3.78646 13.1509 3.72917C13.0363 3.67708 12.9269 3.60417 12.8175 3.52083C12.7029 3.42708 12.5884 3.35417 12.4634 3.3125C12.2394 3.1875 11.9946 3.125 11.7342 3.125C11.4686 3.125 11.2134 3.10417 10.9634 3.0625C10.6977 3.03646 10.4425 2.97396 10.1925 2.875C9.94252 2.78125 9.68211 2.72917 9.42169 2.72917C9.15606 2.95313 8.86961 3.14063 8.56752 3.29167C8.26023 3.44792 7.96336 3.60417 7.67169 3.77083C7.39044 3.9375 7.15606 4.18229 6.96336 4.5C6.63002 4.98958 6.31752 5.47396 6.02586 5.95833C5.74461 6.43229 5.66127 6.97396 5.77586 7.58333L5.56752 7.6875C5.59356 8.02083 5.59356 8.36979 5.56752 8.72917C5.5519 9.07813 5.5519 9.43229 5.56752 9.79167C5.56752 10.125 5.57794 10.4583 5.60919 10.7917C5.63523 11.1146 5.65606 11.4323 5.67169 11.75C5.7394 12.3073 5.83836 12.875 5.96336 13.4583C6.08836 14.0417 6.34356 14.5573 6.73419 15L7.10919 15.0208C7.40086 15.5208 7.74461 15.9583 8.15086 16.3333C8.56752 16.7083 9.07273 16.9271 9.67169 16.9792C9.94773 16.9948 10.2394 17 10.5467 17C10.8644 16.9896 11.1404 16.9167 11.38 16.7917C11.6404 16.6667 11.8488 16.5104 12.005 16.3125C12.1561 16.1042 12.3019 15.8906 12.4425 15.6667L12.255 15.5625C12.3071 14.8542 12.3384 14.1563 12.3384 13.4583C12.3488 12.75 12.2967 12.0573 12.1717 11.375C11.9738 11.2917 11.7759 11.224 11.5675 11.1667C11.3592 11.1146 11.1561 11.0521 10.9634 10.9792L10.5467 11.25C10.2967 11.1563 10.0988 11.0729 9.96336 11C9.83836 10.9167 9.6769 10.7865 9.48419 10.6042C9.48419 10.4115 9.46336 10.2188 9.42169 10.0208C9.39044 9.82813 9.41127 9.64063 9.48419 9.45833C9.51023 9.32292 9.56752 9.19792 9.65086 9.08333C9.74461 8.95833 9.82794 8.83333 9.90086 8.70833C10.2342 8.66667 10.5519 8.66146 10.8592 8.6875C11.1613 8.71875 11.4529 8.66146 11.7342 8.52083C12.1092 8.77083 12.5102 8.88542 12.9425 8.85417C13.3852 8.82813 13.8071 8.79167 14.2134 8.75C14.4477 8.72396 14.6613 8.72396 14.8592 8.75C15.0519 8.76563 15.2602 8.77083 15.4842 8.77083C15.5779 8.77083 15.6769 8.77083 15.7759 8.77083C15.8696 8.76042 15.9686 8.74479 16.0675 8.72917C16.3175 8.6875 16.5519 8.74479 16.7759 8.89583C16.9946 9.03646 17.1404 9.22396 17.2134 9.45833C17.3488 9.95833 17.4009 10.4792 17.3592 11.0208C17.3279 11.5521 17.2967 12.0729 17.255 12.5833C17.2238 13.3073 17.1977 14.0417 17.1717 14.7917C17.1404 15.5313 17.2186 16.25 17.4009 16.9583C17.2863 17.1667 17.2238 17.4063 17.2134 17.6667C17.2134 17.9323 17.1925 18.1875 17.1509 18.4375C17.1196 18.6875 17.0102 18.8958 16.8175 19.0625C16.6352 19.2396 16.4425 19.3125 16.2342 19.2708C16.0259 19.2396 15.8071 19.1927 15.5884 19.125C15.3384 19.0417 15.0571 18.9948 14.755 18.9792C14.4477 18.9531 14.1821 18.875 13.9634 18.75L13.9842 18.6667L13.1509 18.3542C12.8696 18.5625 12.5884 18.7813 12.2967 19C12.005 19.2083 11.6821 19.3385 11.3384 19.3958C10.9738 19.4479 10.63 19.4792 10.2967 19.4792C9.97377 19.4792 9.66127 19.5677 9.35919 19.75C8.90086 19.5417 8.43211 19.4271 7.96336 19.4167C7.4894 19.401 7.01544 19.3021 6.54669 19.125C6.01544 18.9323 5.53627 18.75 5.10919 18.5833C4.6769 18.4167 4.30711 18.0625 4.00502 17.5208C3.55711 17.3958 3.17169 17.1615 2.83836 16.8125C2.50502 16.4531 2.18211 16.1146 1.88002 15.7917C1.54669 15.4479 1.29669 15.0521 1.13002 14.6042C0.963356 14.1615 0.734189 13.7448 0.442522 13.3542C0.484189 13.1354 0.489397 12.9479 0.463356 12.7917C0.447731 12.6406 0.400856 12.4583 0.317522 12.25C0.234189 11.9896 0.192522 11.7292 0.192522 11.4792C0.20294 11.2188 0.20294 10.9479 0.192522 10.6667C0.176897 10.4167 0.13523 10.1667 0.0675225 9.91667C0.0102305 9.66667 -0.0106028 9.41667 0.00502249 9.16667C0.0466892 8.90625 0.0935638 8.65625 0.150856 8.41667C0.218564 8.16667 0.223772 7.91146 0.171689 7.64583C0.32273 7.39583 0.432105 7.14063 0.505023 6.875C0.57273 6.61458 0.656064 6.34896 0.755023 6.08333C0.838356 5.83333 0.947731 5.59375 1.08836 5.35417C1.22377 5.11979 1.36961 4.88542 1.52586 4.64583C1.6769 4.41146 1.83836 4.1875 2.00502 3.97917C2.17169 3.76042 2.34356 3.55208 2.52586 3.35417C2.66127 3.20313 2.82794 3.04167 3.02586 2.875C3.21856 2.70833 3.32273 2.51042 3.33836 2.27083C3.64044 2.1875 3.94252 2.07813 4.23419 1.9375C4.52586 1.78646 4.78106 1.625 5.00502 1.45833C5.09877 1.39063 5.19252 1.3125 5.27586 1.22917C5.35919 1.14583 5.44773 1.07813 5.54669 1.02083C5.68211 0.9375 5.82794 0.895833 5.98419 0.895833C6.15086 0.895833 6.3019 0.869792 6.44252 0.8125C6.69252 0.744792 6.9269 0.635416 7.15086 0.479167C7.38523 0.328125 7.64044 0.244792 7.92169 0.229167C8.05711 0.218749 8.20294 0.229167 8.35919 0.270833C8.51023 0.3125 8.65606 0.333333 8.79669 0.333333C8.94773 0.333333 9.09877 0.322917 9.25502 0.291667C9.40606 0.25 9.5519 0.223959 9.69252 0.208333V0Z" fill="#D72333"/>
</svg>
