<svg width="6" height="12" viewBox="0 0 6 12" fill="none" xmlns="http://www.w3.org/2000/svg">
<path d="M4.10417 0.145833C4.10417 0.0520827 4.15625 0 4.27083 0H5.08333C5.17708 0 5.22917 0.0520827 5.22917 0.145833V11C5.22917 11.1146 5.17708 11.1667 5.08333 11.1667H4.27083C4.15625 11.1667 4.10417 11.1146 4.10417 11V6.14583C4.10417 6.10417 4.08333 6.08333 4.04167 6.08333H1.20833C1.16667 6.08333 1.14583 6.10417 1.14583 6.14583V11C1.14583 11.1146 1.08854 11.1667 0.979167 11.1667H0.166667C0.052084 11.1667 0 11.1146 0 11V0.145833C0 0.0520827 0.052084 0 0.166667 0H0.979167C1.08854 0 1.14583 0.0520827 1.14583 0.145833V5C1.14583 5.04167 1.16667 5.0625 1.20833 5.0625H4.04167C4.08333 5.0625 4.10417 5.04167 4.10417 5V0.145833Z" fill="#D72333"/>
</svg>
