<svg width="6" height="11" viewBox="0 0 6 11" fill="none" xmlns="http://www.w3.org/2000/svg">
<path d="M2.875 10.5625C2.01042 10.5625 1.31771 10.2917 0.791667 9.75C0.260417 9.20833 0 8.49479 0 7.60417V2.95833C0 2.07292 0.260417 1.35417 0.791667 0.8125C1.31771 0.270833 2.01042 0 2.875 0C3.42708 0 3.92708 0.125 4.375 0.375C4.81771 0.614583 5.15625 0.958333 5.39583 1.41667C5.63021 1.86458 5.75 2.375 5.75 2.95833V7.60417C5.75 8.1875 5.63021 8.70833 5.39583 9.16667C5.15625 9.61458 4.81771 9.95833 4.375 10.2083C3.92708 10.4427 3.42708 10.5625 2.875 10.5625ZM2.875 8.79167C3.10937 8.79167 3.30208 8.69792 3.45833 8.5C3.60937 8.30729 3.6875 8.05208 3.6875 7.72917V2.83333C3.6875 2.51563 3.60937 2.26042 3.45833 2.0625C3.30208 1.86979 3.10937 1.77083 2.875 1.77083C2.625 1.77083 2.42187 1.86979 2.27083 2.0625C2.13021 2.26042 2.0625 2.51563 2.0625 2.83333V7.72917C2.0625 8.05208 2.13021 8.30729 2.27083 8.5C2.42187 8.69792 2.625 8.79167 2.875 8.79167Z" fill="#D72333"/>
</svg>
