<svg width="6" height="8" viewBox="0 0 6 8" fill="none" xmlns="http://www.w3.org/2000/svg">
<path d="M2 7.83333C1.375 7.83333 0.880208 7.66146 0.520833 7.3125C0.171875 6.95313 0 6.47917 0 5.89583C0 5.72917 0.005208 5.61458 0.0208333 5.54167L0.416667 2.29167C0.484375 1.61458 0.755208 1.0625 1.22917 0.645833C1.69792 0.218749 2.28125 0 2.97917 0C3.60417 0 4.09375 0.177083 4.45833 0.520833C4.83333 0.869792 5.02083 1.30729 5.02083 1.83333C5.02083 1.94792 5.02083 2.03125 5.02083 2.08333L4.97917 2.22917C4.97917 2.27083 4.96354 2.30729 4.9375 2.33333C4.90625 2.36458 4.875 2.375 4.83333 2.375L4.08333 2.41667C3.98437 2.41667 3.9375 2.36979 3.9375 2.27083L3.95833 2.16667C3.96875 2.125 3.97917 2.07292 3.97917 2C3.97917 1.69792 3.875 1.44792 3.66667 1.25C3.45833 1.04167 3.1875 0.9375 2.85417 0.9375C2.47917 0.9375 2.15625 1.07292 1.89583 1.33333C1.64583 1.59896 1.48958 1.94792 1.4375 2.375L1.0625 5.45833C1.04687 5.51563 1.04167 5.59896 1.04167 5.70833C1.04167 6.05729 1.13542 6.34375 1.33333 6.5625C1.54167 6.78646 1.80208 6.89583 2.125 6.89583C2.48437 6.89583 2.79687 6.78125 3.0625 6.54167C3.32292 6.29167 3.48437 6 3.54167 5.66667V5.5625C3.55208 5.46875 3.60937 5.41667 3.70833 5.41667L4.45833 5.4375C4.5 5.4375 4.52604 5.45313 4.54167 5.47917C4.56771 5.51042 4.58333 5.54167 4.58333 5.58333L4.5625 5.75C4.47917 6.34896 4.19792 6.84896 3.72917 7.25C3.27083 7.64063 2.69271 7.83333 2 7.83333Z" fill="#D51224"/>
</svg>
