<svg width="4" height="4" viewBox="0 0 4 4" fill="none" xmlns="http://www.w3.org/2000/svg">
<path d="M1.77083 0C1.88021 0 1.92187 0.057292 1.89583 0.166667L0.875 3.08333C0.843749 3.16667 0.781251 3.20833 0.6875 3.20833H0.145833C0.0885416 3.20833 0.0468749 3.19792 0.0208333 3.16667C0.00520827 3.14063 0 3.09896 0 3.04167L0.791667 0.145833C0.802083 0.052084 0.859375 0 0.958333 0H1.77083ZM3.6875 0C3.79687 0 3.83854 0.057292 3.8125 0.166667L2.8125 3.08333C2.78125 3.16667 2.71875 3.20833 2.625 3.20833H2.08333C2.02604 3.20833 1.98437 3.19792 1.95833 3.16667C1.92708 3.14063 1.92187 3.09896 1.9375 3.04167L2.72917 0.145833C2.75521 0.052084 2.81771 0 2.91667 0H3.6875Z" fill="#D72333"/>
</svg>
