<svg width="4" height="11" viewBox="0 0 4 11" fill="none" xmlns="http://www.w3.org/2000/svg">
<path d="M3.6875 2.9375C3.6875 3.05208 3.63021 3.10417 3.52083 3.10417H2.20833C2.15104 3.10417 2.125 3.13542 2.125 3.1875V8.5C2.125 9.03125 2.21354 9.39583 2.39583 9.60417C2.58854 9.80208 2.875 9.89063 3.25 9.875H3.4375C3.54687 9.875 3.60417 9.9375 3.60417 10.0625V10.8125C3.60417 10.9271 3.54687 10.9792 3.4375 10.9792H3C2.31771 10.9792 1.79687 10.8333 1.4375 10.5417C1.08854 10.2396 0.916667 9.67708 0.916667 8.85417V3.1875C0.916667 3.13542 0.895833 3.10417 0.854167 3.10417H0.166667C0.0520827 3.10417 0 3.05208 0 2.9375V2.35417C0 2.24479 0.0520827 2.1875 0.166667 2.1875H0.854167C0.895833 2.1875 0.916667 2.16667 0.916667 2.125V0.166667C0.916667 0.057292 0.968749 0 1.08333 0H1.95833C2.06771 0 2.125 0.057292 2.125 0.166667V2.125C2.125 2.16667 2.15104 2.1875 2.20833 2.1875H3.52083C3.63021 2.1875 3.6875 2.24479 3.6875 2.35417V2.9375Z" fill="#D72333"/>
</svg>
