<svg width="7" height="11" viewBox="0 0 7 11" fill="none" xmlns="http://www.w3.org/2000/svg">
<path d="M0.1875 10.9792C0.130208 10.9792 0.0833333 10.9688 0.0416667 10.9375C0.0104173 10.8958 0 10.849 0 10.7917V0.1875C0 0.135417 0.0104173 0.0937507 0.0416667 0.0625C0.0833333 0.0208333 0.130208 0 0.1875 0H2.02083C2.07292 0 2.11458 0.0208333 2.14583 0.0625C2.1875 0.0937507 2.20833 0.135417 2.20833 0.1875V4.14583C2.20833 4.1875 2.21875 4.20833 2.25 4.20833C2.27604 4.20833 2.29687 4.1875 2.3125 4.14583L4.33333 0.145833C4.38542 0.052084 4.46354 0 4.5625 0H6.5C6.56771 0 6.61458 0.0208333 6.64583 0.0625C6.67188 0.0937507 6.67188 0.140625 6.64583 0.208333L4.3125 4.72917C4.29688 4.77083 4.29167 4.80729 4.29167 4.83333L6.77083 10.75C6.77083 10.7812 6.77083 10.8125 6.77083 10.8542C6.77083 10.9375 6.71875 10.9792 6.625 10.9792H4.66667C4.54167 10.9792 4.46354 10.9323 4.4375 10.8333L2.8125 6.72917C2.79687 6.70313 2.77604 6.6875 2.75 6.6875C2.73437 6.6875 2.71875 6.70313 2.70833 6.72917L2.25 7.54167C2.21875 7.58333 2.20833 7.61979 2.20833 7.64583V10.7917C2.20833 10.849 2.1875 10.8958 2.14583 10.9375C2.11458 10.9688 2.07292 10.9792 2.02083 10.9792H0.1875Z" fill="#F8F7F6"/>
</svg>
