<svg width="9" height="9" viewBox="0 0 9 9" fill="none" xmlns="http://www.w3.org/2000/svg">
<path d="M7.13353 0C7.65957 0 8.06062 0.177083 8.34187 0.520833C8.63353 0.869792 8.77937 1.35417 8.77937 1.97917C8.77937 2.17708 8.76374 2.38542 8.7377 2.60417L8.09187 7.875C8.06062 7.98958 7.99812 8.04167 7.90437 8.04167H7.15437C7.09707 8.04167 7.05541 8.03125 7.02937 8C7.01374 7.95833 7.00853 7.91667 7.00853 7.875L7.65437 2.6875C7.66478 2.60417 7.6752 2.47917 7.6752 2.3125C7.6752 1.89583 7.58145 1.57292 7.40437 1.33333C7.22207 1.08333 6.9877 0.958333 6.69603 0.958333C6.30541 0.958333 5.97728 1.11458 5.71687 1.41667C5.45124 1.72396 5.28978 2.14063 5.2377 2.66667L4.59187 7.875C4.56062 7.98958 4.49812 8.04167 4.40437 8.04167H3.65437C3.59707 8.04167 3.55541 8.03125 3.52937 8C3.49812 7.95833 3.49291 7.91667 3.50853 7.875L4.15437 2.6875C4.15437 2.60417 4.15437 2.47917 4.15437 2.3125C4.15437 1.89583 4.07103 1.57292 3.90437 1.33333C3.7377 1.08333 3.49812 0.958333 3.19603 0.958333C2.78978 0.958333 2.45645 1.11458 2.19603 1.41667C1.93041 1.72396 1.76895 2.14063 1.71687 2.66667L1.07103 7.875C1.05541 7.98958 0.998115 8.04167 0.904366 8.04167H0.133532C0.0918657 8.04167 0.0554071 8.03125 0.0293657 8C-0.00188494 7.95833 -0.00709294 7.91667 0.0085324 7.875L0.946032 0.270833C0.946032 0.218749 0.956448 0.177083 0.987699 0.145833C1.02937 0.119792 1.07103 0.104167 1.1127 0.104167H1.8627C1.95645 0.104167 2.00853 0.161459 2.00853 0.270833L1.94603 0.75C1.93041 0.765625 1.93041 0.781251 1.94603 0.791667C1.97207 0.791667 1.99291 0.786459 2.00853 0.770833C2.24291 0.510416 2.49812 0.3125 2.77937 0.1875C3.05541 0.0625 3.34707 0 3.65437 0C4.02937 0 4.34187 0.0989587 4.59187 0.291667C4.85228 0.489584 5.0502 0.760416 5.1752 1.10417C5.1752 1.13542 5.18041 1.14583 5.19603 1.14583C5.22207 1.14583 5.2377 1.125 5.2377 1.08333C5.47207 0.708333 5.75853 0.4375 6.09187 0.270833C6.43562 0.0937493 6.78457 0 7.13353 0Z" fill="#D72333"/>
</svg>
