<svg width="9" height="20" viewBox="0 0 9 20" fill="none" xmlns="http://www.w3.org/2000/svg">
<path d="M8.85417 1.45833C8.85417 1.64063 8.75521 1.72917 8.5625 1.72917H2.08333C2.01042 1.72917 1.97917 1.77083 1.97917 1.85417V8.77083C1.97917 8.85417 2.01042 8.89583 2.08333 8.89583H6.16667C6.34375 8.89583 6.4375 8.98958 6.4375 9.16667V10.375C6.4375 10.5573 6.34375 10.6458 6.16667 10.6458H2.08333C2.01042 10.6458 1.97917 10.6875 1.97917 10.7708V17.7083C1.97917 17.7917 2.01042 17.8333 2.08333 17.8333H8.5625C8.75521 17.8333 8.85417 17.9271 8.85417 18.1042V19.2917C8.85417 19.474 8.75521 19.5625 8.5625 19.5625H0.270833C0.0885413 19.5625 0 19.474 0 19.2917V0.291667C0 0.0989587 0.0885413 0 0.270833 0H8.5625C8.75521 0 8.85417 0.0989587 8.85417 0.291667V1.45833Z" fill="#D72333"/>
</svg>
