<svg width="9" height="9" viewBox="0 0 9 9" fill="none" xmlns="http://www.w3.org/2000/svg">
<path d="M1.85417 8.04167C1.77083 8.04167 1.71354 7.99479 1.6875 7.89583L0 0.1875V0.145833C0 0.0520827 0.0468747 0 0.145833 0H0.916667C1.02604 0 1.08854 0.0520827 1.10417 0.145833L2.25 6.20833C2.25 6.23958 2.25521 6.25 2.27083 6.25C2.28125 6.25 2.29687 6.23958 2.3125 6.20833L3.47917 0.145833C3.50521 0.0520827 3.56771 0 3.66667 0H4.375C4.46875 0 4.52604 0.0520827 4.54167 0.145833L5.72917 6.20833C5.72917 6.23958 5.73438 6.25 5.75 6.25C5.76042 6.25 5.77604 6.23958 5.79167 6.20833L6.95833 0.145833C6.98438 0.0520827 7.04167 0 7.125 0L7.89583 0.0208333C8.00521 0.0208333 8.05208 0.0833333 8.04167 0.208333L6.35417 7.89583C6.33854 7.99479 6.28125 8.04167 6.1875 8.04167H5.375C5.27604 8.04167 5.21354 7.99479 5.1875 7.89583L4.02083 2.08333C4.00521 2.05729 3.98958 2.04167 3.97917 2.04167C3.97917 2.04167 3.96875 2.05729 3.95833 2.08333L2.83333 7.89583C2.81771 7.99479 2.76042 8.04167 2.66667 8.04167H1.85417Z" fill="#D72333"/>
</svg>
