<svg width="6" height="11" viewBox="0 0 6 11" fill="none" xmlns="http://www.w3.org/2000/svg">
<path d="M3.71687 2.9375C4.25853 2.9375 4.66478 3.10417 4.94603 3.4375C5.2377 3.77083 5.38353 4.25 5.38353 4.875C5.38353 4.98958 5.37312 5.16667 5.3627 5.41667L4.69603 10.8125C4.68041 10.9271 4.62312 10.9792 4.52937 10.9792H3.7377C3.69603 10.9792 3.65957 10.9688 3.63353 10.9375C3.60228 10.8958 3.59707 10.8542 3.6127 10.8125L4.25853 5.52083C4.26895 5.35417 4.27937 5.23958 4.27937 5.16667C4.27937 4.76563 4.18562 4.45313 4.00853 4.22917C3.82624 4.01042 3.56062 3.89583 3.21687 3.89583C2.82624 3.89583 2.49291 4.05208 2.21687 4.35417C1.95124 4.66146 1.78978 5.07813 1.7377 5.60417L1.09187 10.8125C1.06062 10.9271 1.00853 10.9792 0.925199 10.9792H0.133532C0.0918657 10.9792 0.0554071 10.9688 0.0293657 10.9375C-0.00188494 10.8958 -0.00709294 10.8542 0.0085324 10.8125L1.3002 0.145833C1.31062 0.104167 1.33145 0.072916 1.3627 0.0416667C1.40437 0.0156253 1.44603 0 1.4877 0H2.25853C2.36791 0 2.40957 0.052084 2.38353 0.145833L1.96687 3.70833C1.95124 3.72396 1.95124 3.73958 1.96687 3.75C1.99291 3.76563 2.01895 3.75 2.0502 3.70833C2.25853 3.45833 2.49812 3.27083 2.77937 3.14583C3.07103 3.01042 3.38353 2.9375 3.71687 2.9375Z" fill="#D72333"/>
</svg>
