<svg width="6" height="12" viewBox="0 0 6 12" fill="none" xmlns="http://www.w3.org/2000/svg">
<mask id="mask0_24_8468" style="mask-type:luminance" maskUnits="userSpaceOnUse" x="0" y="0" width="6" height="12">
<path d="M5.33333 0H0V12H5.33333V0Z" fill="white"/>
</mask>
<g mask="url(#mask0_24_8468)">
<mask id="mask1_24_8468" style="mask-type:luminance" maskUnits="userSpaceOnUse" x="0" y="4" width="6" height="7">
<path d="M0.28125 4H5.07292V10.6667H0.28125V4Z" fill="white"/>
</mask>
<g mask="url(#mask1_24_8468)">
<path d="M2.19515 9.51156C1.82015 9.51156 1.51807 9.40739 1.29932 9.19906C1.09098 8.99072 0.986816 8.70947 0.986816 8.34489C0.986816 8.26156 0.986816 8.19385 0.986816 8.13656L1.23682 6.17822C1.27848 5.77718 1.43473 5.44906 1.71598 5.19906C2.00765 4.93864 2.36182 4.80322 2.77848 4.80322C3.15348 4.80322 3.45036 4.90739 3.67432 5.11572C3.89307 5.32406 4.00765 5.58968 4.00765 5.90739C4.00765 5.98031 4.00765 6.02718 4.00765 6.05322L3.98682 6.15739C3.98682 6.17301 3.97119 6.19385 3.94515 6.21989C3.92952 6.23551 3.9139 6.24072 3.90348 6.24072L3.44515 6.26156C3.38786 6.26156 3.36182 6.23031 3.36182 6.15739L3.38265 6.09489C3.38265 6.08447 3.38265 6.05322 3.38265 6.01156C3.38265 5.83447 3.32015 5.67822 3.19515 5.55322C3.07015 5.42822 2.90348 5.36572 2.69515 5.36572C2.47119 5.36572 2.28369 5.44906 2.13265 5.61572C1.9764 5.77197 1.88786 5.96989 1.86182 6.21989L1.61182 8.09489C1.61182 8.13656 1.61182 8.18864 1.61182 8.24072C1.61182 8.44906 1.6639 8.62614 1.77848 8.76156C1.90348 8.90218 2.05973 8.96989 2.25765 8.96989C2.4764 8.96989 2.6639 8.89697 2.82015 8.74072C2.98682 8.58968 3.08057 8.41781 3.11182 8.21989V8.15739C3.12223 8.10531 3.15869 8.07406 3.21598 8.07406H3.67432C3.70036 8.07406 3.72119 8.08968 3.73682 8.11572C3.74723 8.13135 3.74723 8.14697 3.73682 8.15739V8.26156C3.67952 8.62614 3.51286 8.92301 3.23682 9.15739C2.95557 9.39697 2.61182 9.51156 2.19515 9.51156Z" fill="white"/>
</g>
</g>
</svg>
