<svg width="5" height="11" viewBox="0 0 5 11" fill="none" xmlns="http://www.w3.org/2000/svg">
<path d="M2.625 2.72917C3.21875 2.72917 3.67708 2.9375 4 3.35417C4.33333 3.76042 4.5 4.32292 4.5 5.04167V10.0833C4.5 10.1823 4.44792 10.2292 4.35417 10.2292H3.60417C3.50521 10.2292 3.45833 10.1823 3.45833 10.0833V5.14583C3.45833 4.66146 3.35417 4.28646 3.14583 4.02083C2.9375 3.76042 2.64583 3.625 2.27083 3.625C1.88021 3.625 1.57292 3.77083 1.35417 4.0625C1.14583 4.34375 1.04167 4.72396 1.04167 5.20833V10.0833C1.04167 10.1823 0.989583 10.2292 0.895833 10.2292H0.145833C0.0468747 10.2292 0 10.1823 0 10.0833V0.145833C0 0.052084 0.0468747 0 0.145833 0H0.895833C0.989583 0 1.04167 0.052084 1.04167 0.145833V3.4375C1.04167 3.46875 1.04687 3.48958 1.0625 3.5C1.07292 3.5 1.08854 3.48958 1.10417 3.45833C1.28125 3.20833 1.50521 3.03125 1.77083 2.91667C2.03125 2.79167 2.31771 2.72917 2.625 2.72917Z" fill="#D72333"/>
</svg>
