<svg width="7" height="12" viewBox="0 0 7 12" fill="none" xmlns="http://www.w3.org/2000/svg">
<path d="M4.375 11.1042C4.25 11.1042 4.17188 11.0521 4.14583 10.9375L2.91667 6.5625C2.90104 6.52083 2.88021 6.5 2.85417 6.5H2.3125C2.25521 6.5 2.22917 6.53125 2.22917 6.58333V10.9167C2.22917 10.974 2.20833 11.0208 2.16667 11.0625C2.13542 11.0938 2.09375 11.1042 2.04167 11.1042H0.1875C0.130208 11.1042 0.0833333 11.0938 0.0416667 11.0625C0.010416 11.0208 0 10.974 0 10.9167V0.1875C0 0.135417 0.010416 0.0937507 0.0416667 0.0625C0.0833333 0.0208333 0.130208 0 0.1875 0H3.39583C3.97917 0 4.48958 0.140625 4.9375 0.416667C5.39583 0.697916 5.75 1.09375 6 1.60417C6.25 2.10417 6.375 2.68229 6.375 3.33333C6.375 3.95833 6.25521 4.51563 6.02083 5C5.78125 5.47396 5.44792 5.84375 5.02083 6.10417C5.00521 6.11979 4.98958 6.13542 4.97917 6.14583C4.96354 6.16146 4.96354 6.18229 4.97917 6.20833L6.4375 10.875L6.45833 10.9375C6.45833 11.0521 6.39583 11.1042 6.27083 11.1042H4.375ZM2.3125 1.91667C2.25521 1.91667 2.22917 1.94792 2.22917 2V4.70833C2.22917 4.76563 2.25521 4.79167 2.3125 4.79167H3.02083C3.35417 4.79167 3.61458 4.66146 3.8125 4.39583C4.02083 4.13542 4.125 3.78646 4.125 3.35417C4.125 2.91146 4.02083 2.5625 3.8125 2.3125C3.61458 2.05208 3.35417 1.91667 3.02083 1.91667H2.3125Z" fill="#D72333"/>
</svg>
