<svg width="6" height="12" viewBox="0 0 6 12" fill="none" xmlns="http://www.w3.org/2000/svg">
<path d="M2.47917 11.1042C2.38021 11.1042 2.31771 11.0573 2.29167 10.9583L0 0.166667V0.125C0 0.0416667 0.0468747 0 0.145833 0H1.02083C1.13021 0 1.19271 0.0416667 1.20833 0.125L2.91667 9C2.92708 9.03125 2.9375 9.04167 2.9375 9.04167C2.94792 9.04167 2.96354 9.03125 2.97917 9L4.66667 0.125C4.69271 0.0416667 4.75521 0 4.85417 0H5.70833C5.81771 0 5.86458 0.057292 5.85417 0.166667L3.54167 10.9583C3.54167 11.0573 3.48437 11.1042 3.375 11.1042H2.47917Z" fill="#D72333"/>
</svg>
