<svg width="7" height="11" viewBox="0 0 7 11" fill="none" xmlns="http://www.w3.org/2000/svg">
<path d="M5.09711 10.9792C4.95648 10.9792 4.88878 10.9271 4.88878 10.8125L4.57628 9.16667C4.57628 9.11458 4.54503 9.08333 4.49294 9.08333H2.20128C2.12836 9.08333 2.09711 9.11458 2.09711 9.16667L1.80544 10.8125C1.78982 10.9271 1.72211 10.9792 1.59711 10.9792H0.180443C0.0241939 10.9792 -0.0278901 10.9115 0.0137766 10.7708L2.32628 0.166667C2.33669 0.057292 2.40961 0 2.53461 0H4.20128C4.31065 0 4.37315 0.057292 4.38878 0.166667L6.72211 10.7708V10.8333C6.72211 10.9323 6.66482 10.9792 6.55544 10.9792H5.09711ZM2.38878 7.58333C2.37315 7.625 2.39919 7.64583 2.47211 7.64583H4.20128C4.26898 7.64583 4.29503 7.625 4.28461 7.58333L3.36794 2.625C3.36794 2.58333 3.35232 2.5625 3.32628 2.5625C3.31065 2.5625 3.29503 2.58333 3.28461 2.625L2.38878 7.58333Z" fill="white"/>
</svg>
