<svg width="5" height="11" viewBox="0 0 5 11" fill="none" xmlns="http://www.w3.org/2000/svg">
<path d="M2.75 2.85417C3.375 2.85417 3.85417 3.07292 4.1875 3.5C4.53125 3.93229 4.70833 4.53125 4.70833 5.29167V10.5625C4.70833 10.6615 4.65625 10.7083 4.5625 10.7083H3.77083C3.67187 10.7083 3.625 10.6615 3.625 10.5625V5.39583C3.625 4.89583 3.51042 4.51042 3.29167 4.22917C3.06771 3.95313 2.76042 3.8125 2.375 3.8125C1.96875 3.8125 1.65104 3.96875 1.41667 4.27083C1.19271 4.5625 1.08333 4.95833 1.08333 5.45833V10.5625C1.08333 10.6615 1.03125 10.7083 0.9375 10.7083H0.145833C0.0468747 10.7083 0 10.6615 0 10.5625V0.166667C0 0.057292 0.0468747 0 0.145833 0H0.9375C1.03125 0 1.08333 0.057292 1.08333 0.166667V3.60417C1.08333 3.63542 1.08854 3.65625 1.10417 3.66667C1.13021 3.66667 1.15104 3.65625 1.16667 3.625C1.34375 3.375 1.57292 3.1875 1.85417 3.0625C2.13021 2.92708 2.42708 2.85417 2.75 2.85417Z" fill="#D72333"/>
</svg>
