<svg width="5" height="11" viewBox="0 0 5 11" fill="none" xmlns="http://www.w3.org/2000/svg">
<path d="M0.375 10.3125C0.343751 10.3125 0.322916 10.2969 0.3125 10.2708C0.296875 10.2396 0.291667 10.2083 0.291667 10.1667V9.58333C0.291667 9.48438 0.338541 9.4375 0.4375 9.4375C0.729167 9.4375 0.958333 9.38021 1.125 9.27083C1.30208 9.15625 1.44271 8.96354 1.54167 8.6875C1.65104 8.42188 1.76042 8.00521 1.875 7.4375C1.88542 7.42188 1.88542 7.40625 1.875 7.39583C1.875 7.38542 1.875 7.36979 1.875 7.35417L0.0208333 0.166667L0 0.104167C0 0.0364587 0.0468747 0 0.145833 0H0.9375C1.03125 0 1.08854 0.0416667 1.10417 0.125L2.39583 5.875C2.39583 5.90625 2.40104 5.91667 2.41667 5.91667C2.42708 5.91667 2.44271 5.90625 2.45833 5.875L3.72917 0.125C3.73958 0.0416667 3.79167 0 3.875 0H4.70833C4.75 0 4.78125 0.0208333 4.8125 0.0625C4.83854 0.0937507 4.83854 0.125 4.8125 0.166667L2.79167 8.04167C2.60937 8.69271 2.4375 9.17188 2.27083 9.47917C2.10417 9.79688 1.88021 10.0104 1.60417 10.125C1.32292 10.25 0.9375 10.3125 0.4375 10.3125H0.375Z" fill="#D72333"/>
</svg>
