<svg width="3" height="7" viewBox="0 0 3 7" fill="none" xmlns="http://www.w3.org/2000/svg">
<path d="M2.875 0.479167C2.875 0.536459 2.84375 0.5625 2.79167 0.5625H0.6875C0.656251 0.5625 0.645833 0.578125 0.645833 0.604167V2.875C0.645833 2.89063 0.656251 2.89583 0.6875 2.89583H2C2.06771 2.89583 2.10417 2.93229 2.10417 3V3.39583C2.10417 3.45313 2.06771 3.47917 2 3.47917H0.6875C0.656251 3.47917 0.645833 3.49479 0.645833 3.52083V6.3125C0.645833 6.36979 0.609375 6.39583 0.541667 6.39583H0.0833333C0.0260413 6.39583 0 6.36979 0 6.3125V0.0833333C0 0.0312493 0.0260413 0 0.0833333 0H2.79167C2.84375 0 2.875 0.0312493 2.875 0.0833333V0.479167Z" fill="#D72333"/>
</svg>
