<svg width="14" height="15" viewBox="0 0 14 15" fill="none" xmlns="http://www.w3.org/2000/svg">
<mask id="mask0_24_7957" style="mask-type:luminance" maskUnits="userSpaceOnUse" x="0" y="0" width="14" height="15">
<path d="M13.3333 0H0V14.6667H13.3333V0Z" fill="white"/>
</mask>
<g mask="url(#mask0_24_7957)">
<path d="M5.18359 8.27539C5.2513 8.27539 5.28776 8.30664 5.28776 8.35872V8.81706C5.28776 8.88997 5.2513 8.92122 5.18359 8.92122H4.85026C4.81901 8.92122 4.80859 8.93685 4.80859 8.96289V10.8171C4.80859 10.89 4.77214 10.9212 4.70443 10.9212H4.18359C4.11068 10.9212 4.07943 10.89 4.07943 10.8171V8.96289C4.07943 8.93685 4.0638 8.92122 4.03776 8.92122H1.53776C1.46484 8.92122 1.43359 8.88997 1.43359 8.81706V8.42122C1.43359 8.39518 1.4388 8.35872 1.45443 8.31706L3.01693 3.73372C3.02734 3.68164 3.06901 3.65039 3.14193 3.65039H3.70443C3.77214 3.65039 3.79818 3.69206 3.78776 3.77539L2.28776 8.21289C2.28776 8.22852 2.28776 8.24414 2.28776 8.25456C2.29818 8.27018 2.3138 8.27539 2.32943 8.27539H4.03776C4.0638 8.27539 4.07943 8.26497 4.07943 8.23372V6.62956C4.07943 6.56185 4.11068 6.52539 4.18359 6.52539H4.70443C4.77214 6.52539 4.80859 6.56185 4.80859 6.62956V8.23372C4.80859 8.26497 4.81901 8.27539 4.85026 8.27539H5.18359Z" fill="white"/>
<path d="M6.4891 10.9001C6.32243 10.9001 6.1818 10.848 6.07243 10.7334C5.95785 10.624 5.90576 10.4834 5.90576 10.3167C5.90576 10.1501 5.95785 10.0146 6.07243 9.90007C6.1818 9.79069 6.32243 9.7334 6.4891 9.7334C6.65576 9.7334 6.79118 9.79069 6.90576 9.90007C7.01514 10.0146 7.07243 10.1501 7.07243 10.3167C7.07243 10.4834 7.01514 10.624 6.90576 10.7334C6.79118 10.848 6.65576 10.9001 6.4891 10.9001Z" fill="white"/>
<path d="M11.106 9.23356C11.106 9.77523 10.9497 10.2075 10.6476 10.5252C10.3403 10.8481 9.9445 11.0044 9.46012 11.0044C9.00179 11.0044 8.62679 10.8481 8.33512 10.5252C8.04346 10.1919 7.89762 9.76481 7.89762 9.23356V9.06689C7.89762 8.99919 7.92887 8.96273 8.00179 8.96273H8.52262C8.59033 8.96273 8.62679 8.99919 8.62679 9.06689V9.21273C8.62679 9.54606 8.69971 9.81689 8.85596 10.0252C9.02262 10.2336 9.22054 10.3377 9.46012 10.3377C9.73617 10.3377 9.94971 10.2336 10.106 10.0252C10.2726 9.81689 10.356 9.54606 10.356 9.21273V7.81689C10.356 7.80648 10.3455 7.79606 10.3351 7.79606C10.3351 7.79606 10.3247 7.80648 10.3143 7.81689C10.2153 7.95752 10.0903 8.06169 9.93929 8.12939C9.78304 8.20231 9.61637 8.23356 9.43929 8.23356C9.007 8.23356 8.65283 8.10856 8.37679 7.85856C8.11117 7.59814 7.9445 7.24398 7.87679 6.79606C7.8195 6.52002 7.79346 6.20752 7.79346 5.85856C7.79346 5.56689 7.80387 5.31689 7.83512 5.10856C7.88721 4.60856 8.05387 4.22835 8.33512 3.96273C8.61117 3.70231 8.98617 3.56689 9.46012 3.56689C9.87679 3.56689 10.2205 3.69189 10.5018 3.94189C10.7778 4.18148 10.9497 4.53565 11.0226 5.00439C11.0747 5.22835 11.106 5.49919 11.106 5.81689V9.23356ZM9.46012 7.58773C9.90283 7.58773 10.1789 7.31689 10.2935 6.77523C10.3351 6.55648 10.356 6.27002 10.356 5.92106C10.356 5.60335 10.3403 5.33252 10.3143 5.10856C10.1893 4.51481 9.90283 4.21273 9.46012 4.21273C9.22054 4.21273 9.02783 4.29606 8.87679 4.46273C8.72054 4.61898 8.62679 4.85335 8.58512 5.17106C8.54346 5.45231 8.52262 5.70231 8.52262 5.92106C8.52262 6.22835 8.55387 6.52523 8.62679 6.81689C8.67887 7.06689 8.77783 7.26481 8.91846 7.40023C9.05387 7.52523 9.23617 7.58773 9.46012 7.58773Z" fill="white"/>
</g>
</svg>
