<svg width="3" height="7" viewBox="0 0 3 7" fill="none" xmlns="http://www.w3.org/2000/svg">
<path d="M2.33333 0.0833333C2.33333 0.0312493 2.36458 0 2.4375 0H2.89583C2.96354 0 3 0.0312493 3 0.0833333V6.3125C3 6.36979 2.96354 6.39583 2.89583 6.39583H2.4375C2.36458 6.39583 2.33333 6.36979 2.33333 6.3125V3.52083C2.33333 3.49479 2.32292 3.47917 2.3125 3.47917H0.6875C0.656251 3.47917 0.645833 3.49479 0.645833 3.52083V6.3125C0.645833 6.36979 0.609375 6.39583 0.541667 6.39583H0.0833333C0.0260413 6.39583 0 6.36979 0 6.3125V0.0833333C0 0.0312493 0.0260413 0 0.0833333 0H0.541667C0.609375 0 0.645833 0.0312493 0.645833 0.0833333V2.875C0.645833 2.89063 0.656251 2.89583 0.6875 2.89583H2.3125C2.32292 2.89583 2.33333 2.89063 2.33333 2.875V0.0833333Z" fill="#D72333"/>
</svg>
