<svg width="6" height="9" viewBox="0 0 6 9" fill="none" xmlns="http://www.w3.org/2000/svg">
<path d="M3.125 0C3.83333 0 4.38021 0.244792 4.77083 0.729167C5.15625 1.21875 5.35417 1.89583 5.35417 2.77083V8.75C5.35417 8.86458 5.29167 8.91667 5.16667 8.91667H4.29167C4.17708 8.91667 4.125 8.86458 4.125 8.75V2.875C4.125 2.30729 4 1.86979 3.75 1.5625C3.5 1.24479 3.15104 1.08333 2.70833 1.08333C2.25 1.08333 1.88542 1.25 1.625 1.58333C1.35937 1.91667 1.22917 2.375 1.22917 2.95833V8.75C1.22917 8.86458 1.17187 8.91667 1.0625 8.91667H0.166667C0.052084 8.91667 0 8.86458 0 8.75V0.291667C0 0.182292 0.052084 0.125 0.166667 0.125H1.0625C1.17187 0.125 1.22917 0.182292 1.22917 0.291667V0.854167C1.22917 0.885416 1.23437 0.906251 1.25 0.916667C1.27604 0.916667 1.29687 0.906251 1.3125 0.875C1.52083 0.583333 1.78125 0.369792 2.10417 0.229167C2.42187 0.0781253 2.76042 0 3.125 0Z" fill="#D72333"/>
</svg>
