<svg width="6" height="12" viewBox="0 0 6 12" fill="none" xmlns="http://www.w3.org/2000/svg">
<mask id="mask0_24_3280" style="mask-type:luminance" maskUnits="userSpaceOnUse" x="0" y="0" width="6" height="12">
<path d="M5.33333 0H0V12H5.33333V0Z" fill="white"/>
</mask>
<g mask="url(#mask0_24_3280)">
<mask id="mask1_24_3280" style="mask-type:luminance" maskUnits="userSpaceOnUse" x="0" y="2" width="4" height="9">
<path d="M0.015625 2.6665H4V10.6665H0.015625V2.6665Z" fill="white"/>
</mask>
<g mask="url(#mask1_24_3280)">
<path d="M2.11637 9.3387C1.64242 9.3387 1.26742 9.2085 0.991374 8.94287C0.710123 8.66683 0.574707 8.29704 0.574707 7.8387V4.38037C0.574707 3.92204 0.710123 3.56266 0.991374 3.29704C1.26742 3.021 1.64242 2.88037 2.11637 2.88037C2.57471 2.88037 2.93929 3.021 3.22054 3.29704C3.49658 3.57829 3.63721 3.94287 3.63721 4.4012V4.7762C3.63721 4.84912 3.60596 4.88037 3.55387 4.88037H3.09554C3.03825 4.88037 3.01221 4.84912 3.01221 4.7762V4.38037C3.01221 4.0887 2.92887 3.85954 2.76221 3.69287C2.59554 3.5262 2.37679 3.44287 2.11637 3.44287C1.85075 3.44287 1.63721 3.53662 1.47054 3.7137C1.30387 3.88037 1.22054 4.10433 1.22054 4.38037V7.8387C1.22054 8.11995 1.30387 8.34912 1.47054 8.5262C1.63721 8.7085 1.85075 8.79704 2.11637 8.79704C2.37679 8.79704 2.59554 8.7137 2.76221 8.54704C2.92887 8.36995 3.01221 8.13037 3.01221 7.8387V6.69287C3.01221 6.66683 2.99658 6.6512 2.97054 6.6512H2.19971C2.12679 6.6512 2.09554 6.62516 2.09554 6.56787V6.19287C2.09554 6.12516 2.12679 6.0887 2.19971 6.0887H3.55387C3.60596 6.0887 3.63721 6.12516 3.63721 6.19287V7.8387C3.63721 8.29704 3.49658 8.66683 3.22054 8.94287C2.93929 9.2085 2.57471 9.3387 2.11637 9.3387Z" fill="#D72333"/>
</g>
</g>
</svg>
