<svg width="17" height="22" viewBox="0 0 17 22" fill="none" xmlns="http://www.w3.org/2000/svg">
<path d="M7.1875 0.314433C7.5625 0.262349 7.92708 0.189433 8.29167 0.1061C8.65104 0.0227664 9.01042 -0.00848295 9.375 0.00193305C9.76042 0.0175584 10.1302 0.0852664 10.4792 0.210266C10.8385 0.335266 11.1979 0.460266 11.5625 0.585266C11.9063 0.658184 12.2552 0.741517 12.6042 0.835266C12.9479 0.9186 13.276 1.05402 13.5833 1.2311C13.7604 1.33006 13.9427 1.43943 14.125 1.56443C14.3177 1.68943 14.5052 1.82485 14.6875 1.96027C15.0729 2.21027 15.2813 2.57485 15.3125 3.0436C15.3385 3.51756 15.1719 3.89256 14.8125 4.1686C14.6042 4.30923 14.401 4.41339 14.2083 4.4811C13.6927 4.67902 13.276 4.65818 12.9583 4.4186C12.6354 4.18423 12.3177 3.87693 12 3.50193L11.5833 3.71027C11.1667 3.5436 10.7396 3.37173 10.3125 3.18943C9.88021 2.99673 9.4375 2.89256 8.97917 2.87693C8.57292 2.86652 8.17188 2.93423 7.77083 3.08527C7.38021 3.24152 6.97917 3.27277 6.5625 3.18943L5.58333 4.37693C5.625 4.51756 5.67708 4.68943 5.75 4.89777C5.83333 5.1061 5.85417 5.28839 5.8125 5.43943C6.11458 5.8561 6.48958 6.22068 6.9375 6.52277C7.38021 6.83006 7.83854 7.10089 8.3125 7.33527L8.6875 7.21027C9.10417 7.43423 9.48438 7.64777 9.83333 7.8561C10.1771 8.06443 10.5938 8.18943 11.0833 8.2311L11.3958 8.8561L12.625 9.12693C12.8333 9.39256 13.0313 9.57485 13.2292 9.6686C13.4219 9.76756 13.6927 9.87693 14.0417 10.0019L14.2292 10.5853L14.6042 10.6686L14.875 11.3353C15.375 11.5332 15.6979 11.8717 15.8542 12.3561C16.0052 12.8301 16.1146 13.2832 16.1875 13.7103C16.2292 14.0176 16.2708 14.3144 16.3125 14.6061C16.3646 14.8978 16.3542 15.2051 16.2708 15.5228C16.1146 16.2311 15.9167 16.9082 15.6667 17.5436C15.4167 17.5592 15.2552 17.679 15.1875 17.8978C15.1302 18.1061 15.0625 18.304 14.9792 18.4811C14.7813 18.9707 14.4479 19.3457 13.9792 19.6061C13.3802 19.9394 12.776 20.2259 12.1667 20.4603C11.5521 20.6999 10.9427 20.9655 10.3333 21.2728C9.88542 21.1061 9.40104 21.0332 8.875 21.0644C8.34375 21.1061 7.83333 21.1113 7.33333 21.0853C6.85938 21.0436 6.35938 21.054 5.83333 21.1269C5.31771 21.2103 4.83854 21.1321 4.39583 20.8978C4.1875 20.804 3.98958 20.679 3.8125 20.5228C3.63021 20.3561 3.4375 20.2207 3.22917 20.1061C3.03125 19.9811 2.82292 19.8926 2.60417 19.8353C2.38021 19.7832 2.17708 19.6894 2 19.5644C1.625 19.2884 1.29687 18.9967 1.02083 18.6894C0.739584 18.3717 0.401041 18.0957 0 17.8561C0.0416667 17.5644 0.0885413 17.2832 0.145833 17.0019C0.197917 16.7259 0.380208 16.5124 0.6875 16.3561C0.963541 16.2311 1.25521 16.1686 1.5625 16.1686C1.86458 16.1686 2.16667 16.1686 2.45833 16.1686C2.60938 16.4342 2.77604 16.6842 2.95833 16.9186C3.15104 17.1582 3.39583 17.3457 3.6875 17.4811C3.98958 17.6217 4.30208 17.7311 4.625 17.8144C4.95833 17.8874 5.27083 18.0176 5.5625 18.2103L5.89583 18.0644L6.33333 18.4394C6.79167 18.3457 7.25521 18.3249 7.72917 18.3769C8.19792 18.4342 8.65104 18.429 9.08333 18.3561C9.27604 18.3144 9.45833 18.2728 9.625 18.2311C9.79167 18.1894 9.94792 18.1165 10.1042 18.0019C10.2135 17.9082 10.3177 17.804 10.4167 17.6894C10.5104 17.5801 10.6458 17.5124 10.8125 17.4811C10.8385 17.1374 10.8385 16.8144 10.8125 16.5228C10.7969 16.2311 10.75 15.9186 10.6667 15.5853C10.0104 15.1269 9.32292 14.7103 8.60417 14.3353C7.89583 13.9499 7.1875 13.554 6.47917 13.1478C5.86458 12.804 5.20833 12.5176 4.5 12.2936C3.80208 12.0749 3.1875 11.7103 2.64583 11.2103C2.28125 11.2519 1.94792 11.1217 1.64583 10.8144C1.35417 10.4967 1.10417 10.1269 0.895833 9.71027C0.697917 9.2936 0.546875 8.95506 0.4375 8.68943C0.0885414 7.78839 -0.010416 6.93423 0.145833 6.12693C0.296875 5.32485 0.463541 4.4811 0.645833 3.6061C0.770833 3.51235 0.906251 3.4186 1.0625 3.33527C1.21354 3.24152 1.35417 3.13735 1.47917 3.02277C1.57292 2.92902 1.65625 2.81443 1.72917 2.68943C1.8125 2.55402 1.90104 2.42902 2 2.31443C2.10938 2.18943 2.23438 2.10089 2.375 2.0436C2.52604 1.97589 2.66667 1.87693 2.79167 1.75193C2.90104 1.65818 3.00521 1.55923 3.10417 1.46027C3.19792 1.35089 3.3125 1.26235 3.4375 1.18943C3.54688 1.09568 3.66667 1.01235 3.79167 0.939433C3.91667 0.8561 4.04167 0.7936 4.16667 0.751933C4.35938 0.6686 4.55208 0.647766 4.75 0.689433C4.94271 0.720682 5.13542 0.69985 5.33333 0.626933C5.48438 0.600892 5.60938 0.538392 5.70833 0.439433C5.81771 0.345682 5.9375 0.272766 6.0625 0.2311C6.25521 0.179016 6.44271 0.1686 6.625 0.210266C6.81771 0.251933 7.00521 0.288392 7.1875 0.314433Z" fill="#D72333"/>
</svg>
