<svg width="5" height="11" viewBox="0 0 5 11" fill="none" xmlns="http://www.w3.org/2000/svg">
<path d="M3.6875 0.166667C3.6875 0.057292 3.73437 0 3.83333 0H4.60417C4.71354 0 4.77083 0.057292 4.77083 0.166667V10.5625C4.77083 10.6615 4.71354 10.7083 4.60417 10.7083H3.83333C3.73437 10.7083 3.6875 10.6615 3.6875 10.5625V10.2292C3.6875 10.2031 3.67187 10.1875 3.64583 10.1875C3.63021 10.1771 3.61458 10.1771 3.60417 10.1875C3.21354 10.6198 2.71875 10.8333 2.125 10.8333C1.46875 10.8333 0.947916 10.6198 0.5625 10.1875C0.1875 9.74479 0 9.18229 0 8.5V5.1875C0 4.47917 0.1875 3.91667 0.5625 3.5C0.947916 3.07292 1.46875 2.85417 2.125 2.85417C2.73437 2.85417 3.22917 3.07292 3.60417 3.5C3.61458 3.53125 3.63021 3.53646 3.64583 3.52083C3.67187 3.51042 3.6875 3.49479 3.6875 3.47917V0.166667ZM2.39583 9.875C2.77083 9.875 3.07292 9.74479 3.3125 9.47917C3.5625 9.20313 3.6875 8.85417 3.6875 8.4375V5.27083C3.6875 4.82813 3.5625 4.47396 3.3125 4.20833C3.07292 3.93229 2.77083 3.79167 2.39583 3.79167C2.00521 3.79167 1.6875 3.93229 1.4375 4.20833C1.1875 4.47396 1.0625 4.82813 1.0625 5.27083V8.4375C1.0625 8.85417 1.1875 9.20313 1.4375 9.47917C1.6875 9.74479 2.00521 9.875 2.39583 9.875Z" fill="#D72333"/>
</svg>
