<svg width="8" height="12" viewBox="0 0 8 12" fill="none" xmlns="http://www.w3.org/2000/svg">
<path d="M7.16667 11.0417C7.17708 11.0573 7.1875 11.0833 7.1875 11.125C7.1875 11.1562 7.17188 11.1823 7.14583 11.2083C7.13021 11.224 7.10417 11.2292 7.0625 11.2292H6.20833C6.125 11.2292 6.0625 11.1979 6.02083 11.125L5.375 10.1875C5.35938 10.1615 5.33854 10.1458 5.3125 10.1458C5.29688 10.1458 5.28125 10.1562 5.27083 10.1667C4.88021 10.5833 4.47917 10.8906 4.0625 11.0833C3.64583 11.276 3.17187 11.375 2.64583 11.375C1.83854 11.375 1.19271 11.1458 0.708333 10.6875C0.234375 10.2292 0 9.58333 0 8.75C0 8.04167 0.166667 7.43229 0.5 6.91667C0.843751 6.39063 1.31771 5.875 1.91667 5.375C1.94271 5.36458 1.94271 5.33333 1.91667 5.29167C1.54167 4.72396 1.26042 4.28646 1.08333 3.97917C0.901041 3.66146 0.781249 3.39583 0.729167 3.1875C0.671875 2.96875 0.645833 2.71875 0.645833 2.4375C0.645833 1.70313 0.854167 1.11458 1.27083 0.666667C1.69792 0.223959 2.25521 0 2.9375 0C3.63021 0 4.19271 0.223959 4.625 0.666667C5.06771 1.11458 5.29167 1.69792 5.29167 2.41667C5.29167 3.07292 5.125 3.625 4.79167 4.08333C4.46875 4.54167 4.00521 5.03125 3.39583 5.54167C3.35417 5.55729 3.34375 5.58333 3.375 5.625C3.79167 6.22396 4.10417 6.67708 4.3125 6.97917L5.29167 8.375C5.30208 8.39063 5.31771 8.39583 5.33333 8.39583C5.35938 8.39583 5.38021 8.39063 5.39583 8.375C5.53125 8.15625 5.78125 7.72396 6.14583 7.08333C6.17188 7.04167 6.20833 7.02083 6.25 7.02083C6.29167 7.01042 6.33333 7.01042 6.375 7.02083L6.97917 7.375C7.0625 7.43229 7.07292 7.51042 7.02083 7.60417C6.6875 8.21875 6.34375 8.77083 6 9.27083C5.98438 9.30208 5.98438 9.32813 6 9.35417L7.16667 11.0417ZM2.97917 1.02083C2.61458 1.02083 2.32292 1.15625 2.10417 1.41667C1.88021 1.66667 1.77083 2.01563 1.77083 2.45833C1.77083 2.76563 1.82292 3.05208 1.9375 3.3125C2.04687 3.57813 2.30208 4.01563 2.70833 4.625C2.71875 4.66667 2.75 4.67708 2.79167 4.64583C3.23437 4.26042 3.57292 3.89583 3.8125 3.5625C4.04688 3.22917 4.16667 2.84896 4.16667 2.41667C4.16667 2 4.05208 1.66667 3.83333 1.41667C3.60937 1.15625 3.32292 1.02083 2.97917 1.02083ZM2.77083 10.3958C3.11458 10.3958 3.44271 10.3073 3.75 10.125C4.05208 9.94792 4.36458 9.68229 4.6875 9.33333C4.71354 9.29167 4.71354 9.26042 4.6875 9.22917L3.91667 8.125L2.60417 6.27083C2.58854 6.24479 2.5625 6.24479 2.52083 6.27083C2.07292 6.66146 1.72917 7.05208 1.47917 7.4375C1.23958 7.8125 1.125 8.24479 1.125 8.72917C1.125 9.21875 1.26042 9.61979 1.54167 9.9375C1.83333 10.2448 2.23958 10.3958 2.77083 10.3958Z" fill="#D72333"/>
</svg>
