<svg width="5" height="11" viewBox="0 0 5 11" fill="none" xmlns="http://www.w3.org/2000/svg">
<path d="M3.52083 0.145833C3.52083 0.052084 3.56771 0 3.66667 0H4.41667C4.51042 0 4.5625 0.052084 4.5625 0.145833V10.0833C4.5625 10.1823 4.51042 10.2292 4.41667 10.2292H3.66667C3.56771 10.2292 3.52083 10.1823 3.52083 10.0833V9.77083C3.52083 9.74479 3.51042 9.72917 3.5 9.72917C3.48437 9.71875 3.46875 9.71875 3.45833 9.72917C3.08333 10.1458 2.60937 10.3542 2.04167 10.3542C1.41667 10.3542 0.916667 10.1458 0.541667 9.72917C0.177084 9.3125 0 8.77083 0 8.10417V4.95833C0 4.26563 0.177084 3.71875 0.541667 3.3125C0.916667 2.91146 1.41667 2.70833 2.04167 2.70833C2.625 2.70833 3.09375 2.91667 3.45833 3.33333C3.46875 3.36458 3.48437 3.36979 3.5 3.35417C3.51042 3.34375 3.52083 3.32813 3.52083 3.3125V0.145833ZM2.29167 9.4375C2.65104 9.4375 2.94271 9.3125 3.16667 9.0625C3.40104 8.80208 3.52083 8.45833 3.52083 8.04167V5.02083C3.52083 4.60417 3.40104 4.27083 3.16667 4.02083C2.94271 3.76042 2.65104 3.625 2.29167 3.625C1.92708 3.625 1.625 3.76042 1.375 4.02083C1.13542 4.27083 1.02083 4.60417 1.02083 5.02083V8.04167C1.02083 8.45833 1.13542 8.80208 1.375 9.0625C1.625 9.3125 1.92708 9.4375 2.29167 9.4375Z" fill="#D72333"/>
</svg>
