<svg width="5" height="11" viewBox="0 0 5 11" fill="none" xmlns="http://www.w3.org/2000/svg">
<path d="M4.4375 5.45833C4.58854 5.95833 4.66667 6.51563 4.66667 7.125C4.66667 7.64063 4.60938 8.11458 4.5 8.54167C4.23438 9.75 3.51042 10.3542 2.33333 10.3542C1.71875 10.3542 1.21354 10.1823 0.8125 9.83333C0.421875 9.48958 0.177083 9.01563 0.0833333 8.41667C0.0260413 8.07292 0 7.69792 0 7.29167C0 7.19792 0.0468747 7.14583 0.145833 7.14583H0.895833C0.989584 7.14583 1.04167 7.19792 1.04167 7.29167C1.04167 7.64063 1.06771 7.95833 1.125 8.25C1.29167 9.04167 1.69271 9.4375 2.33333 9.4375C2.63542 9.4375 2.89583 9.34896 3.10417 9.16667C3.3125 8.97396 3.45833 8.70313 3.54167 8.35417C3.60937 7.95313 3.64583 7.51563 3.64583 7.04167C3.64583 6.43229 3.58854 5.91667 3.47917 5.5C3.38021 5.19792 3.23437 4.96875 3.04167 4.8125C2.84375 4.64583 2.60937 4.5625 2.33333 4.5625C2.25 4.5625 2.13542 4.59375 2 4.64583C1.91667 4.6875 1.84375 4.68229 1.79167 4.625L1.41667 4.22917C1.375 4.16146 1.36458 4.09375 1.39583 4.02083L3.35417 0.979167C3.35417 0.968751 3.34375 0.953125 3.33333 0.9375C3.33333 0.911459 3.32292 0.895833 3.3125 0.895833H0.229167C0.114584 0.895833 0.0625 0.848959 0.0625 0.75V0.145833C0.0625 0.052084 0.114584 0 0.229167 0H4.47917C4.58854 0 4.64583 0.052084 4.64583 0.145833V0.791667C4.64583 0.848959 4.625 0.911459 4.58333 0.979167L2.77083 3.83333C2.75521 3.84896 2.75 3.86458 2.75 3.875C2.76042 3.89063 2.77604 3.89583 2.79167 3.89583C3.17708 3.9375 3.52083 4.09896 3.8125 4.375C4.10417 4.65625 4.3125 5.01563 4.4375 5.45833Z" fill="#D72333"/>
</svg>
