<svg width="19" height="22" viewBox="0 0 19 22" fill="none" xmlns="http://www.w3.org/2000/svg">
<path d="M7.05492 21.4109L6.90908 21.3275C6.56013 21.1713 6.19033 21.0879 5.80492 21.0775C5.42992 21.0619 5.06533 20.9942 4.72158 20.8692C4.58096 20.7963 4.45596 20.7234 4.34658 20.64C4.232 20.5567 4.10179 20.4942 3.95075 20.4525C3.78408 20.4109 3.61742 20.39 3.45075 20.39C3.2945 20.39 3.14346 20.3848 2.99242 20.3692C2.6695 19.9004 2.28929 19.4734 1.84658 19.0984C1.41429 18.7234 1.06533 18.2754 0.804917 17.7442C0.664292 17.5254 0.513251 17.3015 0.346584 17.0775C0.190335 16.8432 0.0861666 16.5984 0.0340839 16.3484C-0.0232081 15.989 -0.00758273 15.614 0.0757506 15.2234C0.159084 14.8379 0.226792 14.4734 0.284084 14.14L0.0549173 13.9317C0.289292 13.5984 0.461167 13.239 0.575751 12.8484C0.685125 12.4629 0.867417 12.114 1.11742 11.8067C1.36742 11.5046 1.65908 11.265 1.99242 11.0984C2.33617 10.9213 2.67992 10.7546 3.01325 10.5984C3.08096 10.4473 3.12783 10.3015 3.15908 10.1609C3.20075 10.0098 3.22679 9.85878 3.24242 9.70252C2.82575 9.23378 2.37783 8.78065 1.90908 8.34836C1.93513 7.97336 1.83617 7.55148 1.61742 7.07752C1.40908 6.60878 1.22679 6.21294 1.07575 5.89002C1.20075 5.61398 1.28929 5.32752 1.34658 5.03586C1.39867 4.73378 1.47158 4.42648 1.55492 4.11919C1.64867 3.84315 1.76846 3.57752 1.90908 3.32752C2.06013 3.07752 2.20075 2.82752 2.32575 2.57752C2.61742 2.07752 2.93513 1.71294 3.28408 1.47336C3.62783 1.22336 4.06533 1.01502 4.59658 0.848358C5.12263 0.681691 5.69033 0.488983 6.30492 0.265024C6.91429 0.0462737 7.482 -0.0370596 8.01325 0.0150243C8.28929 0.0306497 8.58617 0.0775244 8.90908 0.160858C9.24242 0.233775 9.56533 0.275442 9.88825 0.285858C10.2216 0.301483 10.5133 0.21294 10.7633 0.0150243C11.3466 0.15565 11.9195 0.33794 12.4924 0.556691C13.0601 0.765024 13.6226 0.994191 14.1799 1.24419C14.6226 1.42648 14.982 1.61398 15.2633 1.80669C15.5549 1.98898 15.8153 2.24419 16.0549 2.57752C16.1383 2.69211 16.1591 2.80669 16.1174 2.93169C16.0862 3.05669 16.0185 3.16086 15.9091 3.24419C15.7528 3.32752 15.6174 3.46815 15.4924 3.66086C15.3674 3.84315 15.2633 4.02544 15.1799 4.20252C15.0237 4.52544 14.7737 4.65044 14.4299 4.57752L13.3674 4.30669L13.3466 4.01502C12.8883 3.78065 12.3726 3.57232 11.8049 3.39002C11.232 3.21294 10.6591 3.10878 10.0758 3.07752C9.50283 3.05148 8.97679 3.15565 8.49242 3.39002C8.01846 3.61398 7.64346 4.03065 7.36742 4.64002C7.15908 5.07232 7.05492 5.55669 7.05492 6.09836C7.05492 6.62961 7.17992 7.09836 7.42992 7.51502C7.607 7.84836 7.85179 8.09836 8.15908 8.26502C8.46117 8.43169 8.7945 8.57232 9.15908 8.68169C9.51846 8.79627 9.85179 8.92648 10.1591 9.07752C10.2841 8.92648 10.4768 8.85878 10.7424 8.86919C11.0185 8.86919 11.2424 8.86398 11.4091 8.84836C11.7008 9.17127 12.0341 9.33794 12.4091 9.34836C12.7841 9.36398 13.1591 9.30669 13.5341 9.18169C13.9195 9.05669 14.2893 8.97336 14.6383 8.93169L14.9508 9.22336C15.4091 9.19732 15.8518 9.15044 16.2841 9.07752C16.7112 8.99419 17.1383 8.96815 17.5549 8.99419C17.9716 9.02544 18.3674 9.21294 18.7424 9.55669L18.5549 9.72336C18.8049 10.265 18.8674 10.7598 18.7424 11.2025C18.6174 11.6088 18.3518 11.7807 17.9508 11.7234H17.3883L16.9091 12.1817L17.0549 12.7859C16.8726 12.9525 16.8258 13.2234 16.9091 13.5984C17.0028 13.9629 17.0862 14.2442 17.1591 14.4525L16.8258 14.7442C16.9924 14.9265 17.0966 15.0723 17.1383 15.1817C17.1903 15.2963 17.1435 15.4682 16.9924 15.7025L17.2841 16.7442C17.1695 16.8848 17.1435 17.0254 17.2008 17.1609C17.2528 17.2859 17.2633 17.4265 17.2216 17.5775C17.206 17.7182 17.1591 17.8379 17.0758 17.9317C17.0028 18.0307 16.9508 18.1348 16.9091 18.2442C16.7945 18.5515 16.7685 18.864 16.8258 19.1817C16.8935 19.5046 16.956 19.8223 17.0133 20.14L16.4508 20.8067C16.0185 20.8588 15.5966 20.8588 15.1799 20.8067C14.7737 20.765 14.3518 20.765 13.9091 20.8067C13.8362 20.6713 13.7528 20.5515 13.6591 20.4525C13.5758 20.3432 13.4924 20.2338 13.4091 20.1192C13.1695 20.1192 12.9299 20.1296 12.6799 20.14C12.4299 20.1557 12.1903 20.2025 11.9716 20.2859C11.732 20.3588 11.5133 20.4525 11.3049 20.5775C11.0966 20.7025 10.8726 20.8067 10.6383 20.89C10.0393 21.0254 9.43513 21.0984 8.82575 21.0984C8.21117 21.0984 7.62263 21.2025 7.05492 21.4109ZM9.26325 18.3275C9.87263 18.3275 10.3518 18.2234 10.7008 18.015C11.0445 17.8067 11.3935 17.4629 11.7424 16.9734C11.7112 16.8067 11.6903 16.6088 11.6799 16.3692C11.6799 16.1192 11.6018 15.9421 11.4508 15.8275C11.6435 15.1921 11.7424 14.5307 11.7424 13.8484C11.7112 13.5567 11.6903 13.2754 11.6799 12.9942C11.6799 12.7025 11.732 12.4213 11.8466 12.14C11.3987 12.015 10.9716 11.9213 10.5549 11.8484C10.1487 11.7807 9.72158 11.765 9.26325 11.8067L8.95075 12.1817L7.74242 12.265V12.515C7.14346 13.0984 6.67992 13.6713 6.34658 14.2234C6.02367 14.7807 5.99242 15.489 6.24242 16.3484C6.43513 17.0046 6.81533 17.5098 7.38825 17.8692C7.97158 18.2182 8.59658 18.3692 9.26325 18.3275Z" fill="#D72333"/>
</svg>
