<svg width="18" height="22" viewBox="0 0 18 22" fill="none" xmlns="http://www.w3.org/2000/svg">
<path d="M0.216866 13.668L0.321032 12.8555C0.26374 12.6784 0.20124 12.4961 0.133532 12.3138C0.0606164 12.1367 0.0189497 11.9492 0.0085324 11.7513C-0.00709294 11.5325 -0.00188494 11.3138 0.0293657 11.1055C0.0710324 10.8971 0.102283 10.6784 0.133532 10.4388C0.14395 10.2305 0.123115 10.0169 0.0710324 9.79296C0.0293657 9.57421 0.0137404 9.34505 0.0293657 9.10546C0.0293657 8.89713 0.0554071 8.6888 0.112699 8.48046C0.180407 8.27213 0.227283 8.0638 0.258532 7.85546L0.487699 7.66796C0.664782 7.0013 0.909574 6.36588 1.21687 5.7513C1.51895 5.14192 1.84707 4.54296 2.19603 3.95963C2.38874 3.64192 2.65437 3.39192 2.9877 3.20963C3.33145 3.03255 3.63353 2.79296 3.88353 2.5013C4.15957 2.19921 4.44603 1.93359 4.7377 1.70963C5.02937 1.47525 5.38874 1.30859 5.82103 1.20963C5.97207 1.16796 6.13353 1.13671 6.3002 1.10546C6.47728 1.0638 6.64395 1.0013 6.8002 0.917963C6.96687 0.824212 7.11791 0.725255 7.25853 0.626296C7.40957 0.532546 7.58145 0.454422 7.77937 0.39713C8.15437 0.287755 8.53978 0.220047 8.94603 0.188796C9.34707 0.14713 9.74291 0.115879 10.1335 0.0846296C10.5762 0.0429629 11.0137 0.0169216 11.446 0.00129626C11.8731 -0.00912108 12.3002 0.0429629 12.7169 0.167963C13.1596 0.308588 13.6231 0.454422 14.1127 0.605463C14.5971 0.746088 15.0502 0.907546 15.4669 1.08463L15.5919 1.5013C15.9773 1.6263 16.3106 1.78775 16.5919 1.98046C16.8835 2.16276 17.1804 2.38671 17.4877 2.64713L17.5085 3.1263C17.5085 3.26692 17.4669 3.38671 17.3835 3.48046C17.3002 3.57942 17.1856 3.6263 17.0502 3.6263L16.8835 3.91796C16.6856 4.16796 16.4252 4.32421 16.0919 4.3763C15.769 4.41796 15.4773 4.34505 15.2169 4.14713C14.9773 3.95442 14.7585 3.80859 14.5502 3.70963C14.3939 3.64192 14.2273 3.60026 14.0502 3.58463C13.8679 3.55859 13.696 3.5013 13.5294 3.41796C13.4044 3.36588 13.3002 3.30338 13.2169 3.23046C13.1439 3.14713 13.0502 3.08463 12.9252 3.04296C12.5919 2.93359 12.196 2.89713 11.7377 2.9388C11.2794 2.98046 10.8314 3.05859 10.4044 3.16796C9.97207 3.28255 9.60228 3.42838 9.3002 3.60546C8.8002 3.87109 8.31062 4.23046 7.84187 4.6888C7.36791 5.14713 7.00853 5.65755 6.75853 6.20963C6.63353 6.51692 6.55541 6.83463 6.52937 7.16796C6.51374 7.5013 6.45124 7.83463 6.34187 8.16796C6.21687 8.47526 6.09187 8.78255 5.96687 9.08463C5.84187 9.3763 5.78978 9.69921 5.82103 10.043L6.15437 10.2096L5.7377 11.2513C5.94603 11.6263 6.09707 11.9753 6.19603 12.293C6.28978 12.6159 6.28978 13.0013 6.19603 13.4596C6.51374 13.918 6.7377 14.4284 6.8627 14.9805C6.99812 15.5378 7.22728 16.0586 7.5502 16.543C7.71687 16.7825 7.90437 16.9596 8.1127 17.0846C8.32103 17.1992 8.5502 17.3294 8.8002 17.4805C9.00853 17.6211 9.20124 17.7878 9.38353 17.9805C9.57624 18.1628 9.80541 18.2825 10.071 18.3346C10.3731 18.4075 10.6804 18.4075 10.9877 18.3346C11.2898 18.2513 11.5971 18.1888 11.9044 18.1471C12.2377 18.1055 12.5606 18.0846 12.8835 18.0846C13.2169 18.0742 13.5189 17.97 13.8002 17.7721C14.0346 17.6211 14.2273 17.4336 14.3835 17.2096C14.5502 16.9753 14.7429 16.7825 14.9669 16.6263C15.1752 16.4492 15.4044 16.3086 15.6544 16.2096C15.9148 16.1159 16.1752 16.0534 16.4252 16.0221C16.8419 16.2721 17.1648 16.4961 17.4044 16.6888C17.6544 16.8711 17.8106 17.2096 17.8835 17.7096L17.1335 18.3346V18.8971C16.7689 19.0534 16.4564 19.22 16.196 19.3971C15.946 19.5638 15.6179 19.6575 15.2169 19.668C15.0502 20.1263 14.8106 20.4128 14.5085 20.5221C14.2169 20.6211 13.8419 20.6211 13.3835 20.5221L13.0919 20.9805C12.6856 20.9232 12.2846 20.944 11.8835 21.043C11.4773 21.1367 11.0762 21.2096 10.6752 21.2513C10.3106 21.3034 9.95645 21.3138 9.6127 21.2721C9.26374 21.2305 8.90957 21.1732 8.5502 21.1055C8.35228 21.0638 8.15437 21.043 7.94603 21.043C7.7377 21.043 7.53457 21.0117 7.34187 20.9596C7.20124 20.918 7.07624 20.8555 6.96687 20.7721C6.85228 20.6888 6.72728 20.6211 6.59187 20.5638C6.28457 20.4388 6.00853 20.3346 5.75853 20.2513C5.50853 20.1575 5.26895 19.9909 5.0502 19.7513C4.57624 19.2825 4.07103 18.8711 3.52937 18.5221C2.9877 18.1628 2.49812 17.72 2.07103 17.1888C1.88874 16.9284 1.7377 16.668 1.6127 16.418C1.49812 16.1575 1.39395 15.8711 1.3002 15.5638C1.20124 15.1784 1.0502 14.845 0.841866 14.5638C0.633532 14.2721 0.425199 13.9753 0.216866 13.668Z" fill="#D72333"/>
</svg>
