<svg width="6" height="12" viewBox="0 0 6 12" fill="none" xmlns="http://www.w3.org/2000/svg">
<path d="M0.1875 11.1042C0.130208 11.1042 0.0833333 11.0938 0.0416667 11.0625C0.010416 11.0208 0 10.974 0 10.9167V0.1875C0 0.135417 0.010416 0.0937507 0.0416667 0.0625C0.0833333 0.0208333 0.130208 0 0.1875 0H2.04167C2.09375 0 2.13542 0.0208333 2.16667 0.0625C2.20833 0.0937507 2.22917 0.135417 2.22917 0.1875V9.10417C2.22917 9.16146 2.25521 9.1875 2.3125 9.1875H5.64583C5.69792 9.1875 5.73958 9.20833 5.77083 9.25C5.8125 9.28125 5.83333 9.32292 5.83333 9.375V10.9167C5.83333 10.974 5.8125 11.0208 5.77083 11.0625C5.73958 11.0938 5.69792 11.1042 5.64583 11.1042H0.1875Z" fill="#D72333"/>
</svg>
