<svg width="6" height="11" viewBox="0 0 6 11" fill="none" xmlns="http://www.w3.org/2000/svg">
<path d="M4.04167 10.2292C3.92708 10.2292 3.85937 10.1823 3.83333 10.0833L2.70833 6.04167C2.67708 6 2.65104 5.97917 2.625 5.97917H2.125C2.08333 5.97917 2.0625 6.01042 2.0625 6.0625V10.0625C2.0625 10.1042 2.04167 10.1458 2 10.1875C1.96875 10.2188 1.92708 10.2292 1.875 10.2292H0.166667C0.125 10.2292 0.0833333 10.2188 0.0416667 10.1875C0.0104173 10.1458 0 10.1042 0 10.0625V0.166667C0 0.125 0.0104173 0.0937507 0.0416667 0.0625C0.0833333 0.0208333 0.125 0 0.166667 0H3.125C3.66667 0 4.14583 0.135417 4.5625 0.395833C4.97917 0.645833 5.29688 1.01042 5.52083 1.47917C5.75521 1.9375 5.875 2.47396 5.875 3.08333C5.875 3.65625 5.76042 4.16146 5.54167 4.60417C5.33333 5.03646 5.02604 5.375 4.625 5.625C4.60938 5.64063 4.59375 5.65625 4.58333 5.66667C4.58333 5.68229 4.58333 5.69792 4.58333 5.70833L5.9375 10.0208L5.95833 10.0833C5.95833 10.1823 5.90104 10.2292 5.79167 10.2292H4.04167ZM2.125 1.77083C2.08333 1.77083 2.0625 1.79167 2.0625 1.83333V4.33333C2.0625 4.39063 2.08333 4.41667 2.125 4.41667H2.79167C3.09375 4.41667 3.33854 4.30208 3.52083 4.0625C3.71354 3.8125 3.8125 3.48958 3.8125 3.08333C3.8125 2.68229 3.71354 2.36458 3.52083 2.125C3.33854 1.89063 3.09375 1.77083 2.79167 1.77083H2.125Z" fill="#D72333"/>
</svg>
