<svg width="6" height="11" viewBox="0 0 6 11" fill="none" xmlns="http://www.w3.org/2000/svg">
<path d="M0.166667 10.2292C0.125 10.2292 0.0833333 10.2188 0.0416667 10.1875C0.0104173 10.1458 0 10.1042 0 10.0625V0.166667C0 0.125 0.0104173 0.0937507 0.0416667 0.0625C0.0833333 0.0208333 0.125 0 0.166667 0H2.8125C3.69792 0 4.40625 0.260417 4.9375 0.770833C5.47917 1.28646 5.75 1.97396 5.75 2.83333V7.39583C5.75 8.26042 5.47917 8.94792 4.9375 9.45833C4.40625 9.97396 3.69792 10.2292 2.8125 10.2292H0.166667ZM2.0625 8.39583C2.0625 8.4375 2.08333 8.45833 2.125 8.45833L2.79167 8.4375C3.05208 8.4375 3.27083 8.33333 3.4375 8.125C3.60417 7.90625 3.6875 7.61458 3.6875 7.25V2.95833C3.6875 2.58333 3.60417 2.29167 3.4375 2.08333C3.28125 1.875 3.0625 1.77083 2.77083 1.77083H2.125C2.08333 1.77083 2.0625 1.79167 2.0625 1.83333V8.39583Z" fill="#D72333"/>
</svg>
