<svg width="5" height="12" viewBox="0 0 5 12" fill="none" xmlns="http://www.w3.org/2000/svg">
<path d="M3.85417 0.291667C3.85417 0.182292 3.90625 0.125 4.02083 0.125H4.83333C4.92708 0.125 4.97917 0.182292 4.97917 0.291667V8.04167C4.97917 9.17708 4.71354 10.0417 4.1875 10.625C3.65625 11.2188 2.78125 11.4896 1.5625 11.4375C1.44792 11.4375 1.39583 11.3802 1.39583 11.2708V10.5833C1.39583 10.4688 1.44792 10.4167 1.5625 10.4167C2.40625 10.4427 3 10.25 3.33333 9.83333C3.67708 9.42708 3.85417 8.80208 3.85417 7.95833V7.47917C3.85417 7.45313 3.84375 7.4375 3.83333 7.4375C3.81771 7.42708 3.79687 7.42708 3.77083 7.4375C3.58854 7.70313 3.35417 7.90625 3.0625 8.04167C2.78125 8.18229 2.48437 8.25 2.16667 8.25C1.5 8.25 0.968749 8.03125 0.583333 7.58333C0.192708 7.14063 0 6.55208 0 5.8125V2.4375C0 1.70313 0.192708 1.11458 0.583333 0.666667C0.968749 0.223959 1.5 0 2.16667 0C2.48437 0 2.78125 0.0729173 3.0625 0.208333C3.35417 0.333333 3.58854 0.536459 3.77083 0.8125C3.79687 0.843749 3.81771 0.854167 3.83333 0.854167C3.84375 0.843749 3.85417 0.822917 3.85417 0.791667V0.291667ZM2.52083 7.27083C2.90625 7.27083 3.22917 7.13542 3.47917 6.85417C3.72917 6.5625 3.85417 6.19792 3.85417 5.75V2.52083C3.85417 2.0625 3.72917 1.69792 3.47917 1.41667C3.22917 1.14063 2.90625 1 2.52083 1C2.10417 1 1.77083 1.14063 1.52083 1.41667C1.27083 1.69792 1.14583 2.0625 1.14583 2.52083V5.75C1.14583 6.19792 1.27083 6.5625 1.52083 6.85417C1.77083 7.13542 2.10417 7.27083 2.52083 7.27083Z" fill="#D72333"/>
</svg>
