<svg width="9" height="11" viewBox="0 0 9 11" fill="none" xmlns="http://www.w3.org/2000/svg">
<path d="M2.10417 10.2292C2.00521 10.2292 1.94792 10.1875 1.9375 10.1042L0 0.145833V0.125C0 0.0416667 0.0468747 0 0.145833 0H0.916667C1.01042 0 1.06771 0.0416667 1.08333 0.125L2.45833 7.8125C2.45833 7.84375 2.46354 7.85417 2.47917 7.85417C2.48958 7.85417 2.5 7.84375 2.5 7.8125L3.6875 0.125C3.71354 0.0416667 3.76042 0 3.83333 0H4.52083C4.60417 0 4.65104 0.0416667 4.66667 0.125L5.89583 7.8125C5.90625 7.84375 5.91667 7.85417 5.91667 7.85417C5.92708 7.85417 5.94271 7.84375 5.95833 7.8125L7.20833 0.125C7.23438 0.0416667 7.28125 0 7.35417 0H8.14583C8.1875 0 8.21875 0.0156253 8.25 0.0416667C8.27604 0.072916 8.28125 0.104167 8.27083 0.145833L6.45833 10.1042C6.44271 10.1875 6.38542 10.2292 6.29167 10.2292H5.58333C5.5 10.2292 5.44792 10.1875 5.4375 10.1042L4.20833 2.375C4.19271 2.36458 4.17708 2.35417 4.16667 2.35417C4.15104 2.35417 4.14583 2.36458 4.14583 2.375L2.9375 10.1042C2.9375 10.1875 2.88542 10.2292 2.79167 10.2292H2.10417Z" fill="#D72333"/>
</svg>
