<svg width="4" height="8" viewBox="0 0 4 8" fill="none" xmlns="http://www.w3.org/2000/svg">
<path d="M1.66667 7.64583C1.15104 7.64583 0.739584 7.5 0.4375 7.20833C0.145833 6.90625 0 6.51042 0 6.02083V3.72917C0 3.24479 0.145833 2.84896 0.4375 2.54167C0.739584 2.23958 1.15104 2.08333 1.66667 2.08333C2.17708 2.08333 2.58854 2.23958 2.89583 2.54167C3.19792 2.84896 3.35417 3.24479 3.35417 3.72917V6.02083C3.35417 6.51042 3.19792 6.90625 2.89583 7.20833C2.58854 7.5 2.17708 7.64583 1.66667 7.64583ZM1.66667 6.97917C1.92708 6.97917 2.14583 6.89063 2.3125 6.70833C2.48958 6.51563 2.58333 6.26563 2.58333 5.95833V3.77083C2.58333 3.46875 2.48958 3.22396 2.3125 3.04167C2.14583 2.84896 1.92708 2.75 1.66667 2.75C1.38542 2.75 1.16667 2.84896 1 3.04167C0.833333 3.22396 0.75 3.46875 0.75 3.77083V5.95833C0.75 6.26563 0.833333 6.51563 1 6.70833C1.16667 6.89063 1.38542 6.97917 1.66667 6.97917ZM2.45833 1.1875C2.29167 1.1875 2.15104 1.13542 2.04167 1.02083C1.92708 0.911459 1.875 0.770833 1.875 0.604167C1.875 0.427084 1.92708 0.281249 2.04167 0.166667C2.15104 0.057292 2.29167 0 2.45833 0C2.63542 0 2.78125 0.057292 2.89583 0.166667C3.00521 0.281249 3.0625 0.427084 3.0625 0.604167C3.0625 0.770833 3.00521 0.911459 2.89583 1.02083C2.78125 1.13542 2.63542 1.1875 2.45833 1.1875ZM0.875 1.1875C0.708333 1.1875 0.567708 1.13542 0.458333 1.02083C0.343749 0.911459 0.291667 0.770833 0.291667 0.604167C0.291667 0.427084 0.343749 0.281249 0.458333 0.166667C0.567708 0.057292 0.708333 0 0.875 0C1.05208 0 1.19792 0.057292 1.3125 0.166667C1.42187 0.281249 1.47917 0.427084 1.47917 0.604167C1.47917 0.770833 1.42187 0.911459 1.3125 1.02083C1.19792 1.13542 1.05208 1.1875 0.875 1.1875Z" fill="#D72333"/>
</svg>
