<svg width="5" height="11" viewBox="0 0 5 11" fill="none" xmlns="http://www.w3.org/2000/svg">
<path d="M3.52083 0.270833C3.52083 0.177084 3.56771 0.125 3.66667 0.125H4.41667C4.51042 0.125 4.5625 0.177084 4.5625 0.270833V7.375C4.5625 8.41667 4.31771 9.20833 3.83333 9.75C3.35937 10.2917 2.55208 10.5417 1.41667 10.5C1.31771 10.4844 1.27083 10.4271 1.27083 10.3333V9.70833C1.27083 9.60938 1.31771 9.5625 1.41667 9.5625C2.19271 9.57292 2.73437 9.39583 3.04167 9.02083C3.35937 8.64583 3.52083 8.06771 3.52083 7.29167V6.85417C3.52083 6.82813 3.51042 6.8125 3.5 6.8125C3.48437 6.80208 3.46875 6.80208 3.45833 6.8125C3.29167 7.0625 3.07292 7.25 2.8125 7.375C2.5625 7.5 2.29167 7.5625 2 7.5625C1.375 7.5625 0.880208 7.36458 0.520833 6.95833C0.171875 6.54167 0 6 0 5.33333V2.25C0 1.55729 0.171875 1.01042 0.520833 0.604167C0.880208 0.203125 1.375 0 2 0C2.29167 0 2.5625 0.0625 2.8125 0.1875C3.07292 0.3125 3.29167 0.494792 3.45833 0.729167C3.46875 0.760417 3.48437 0.770833 3.5 0.770833C3.51042 0.770833 3.52083 0.760417 3.52083 0.729167V0.270833ZM2.29167 6.66667C2.65104 6.66667 2.94271 6.53646 3.16667 6.27083C3.40104 6.01042 3.52083 5.67708 3.52083 5.27083V2.3125C3.52083 1.89583 3.40104 1.5625 3.16667 1.3125C2.94271 1.05208 2.65104 0.916667 2.29167 0.916667C1.92708 0.916667 1.63021 1.05208 1.39583 1.3125C1.15625 1.5625 1.04167 1.89583 1.04167 2.3125V5.27083C1.04167 5.67708 1.15625 6.01042 1.39583 6.27083C1.63021 6.53646 1.92708 6.66667 2.29167 6.66667Z" fill="#D72333"/>
</svg>
