<svg width="6" height="9" viewBox="0 0 6 9" fill="none" xmlns="http://www.w3.org/2000/svg">
<path d="M3.6875 0.1875C3.6875 0.135416 3.70833 0.0937493 3.75 0.0625C3.79167 0.0208333 3.83854 0 3.89583 0H5.72917C5.78125 0 5.82292 0.0208333 5.85417 0.0625C5.89583 0.0937493 5.91667 0.135416 5.91667 0.1875V7.9375C5.91667 7.99479 5.89583 8.04167 5.85417 8.08333C5.82292 8.11458 5.78125 8.125 5.72917 8.125H3.89583C3.83854 8.125 3.79167 8.11458 3.75 8.08333C3.70833 8.04167 3.6875 7.99479 3.6875 7.9375V7.66667C3.6875 7.64063 3.67187 7.61979 3.64583 7.60417C3.63021 7.59375 3.61458 7.59896 3.60417 7.625C3.4375 7.84896 3.23437 8.01042 3 8.10417C2.76042 8.1875 2.48958 8.22917 2.1875 8.22917C1.54687 8.22917 1.02083 8.04167 0.604167 7.66667C0.197917 7.28125 0 6.68229 0 5.875V0.1875C0 0.135416 0.010416 0.0937493 0.0416667 0.0625C0.0833333 0.0208333 0.130208 0 0.1875 0H2.04167C2.09375 0 2.13542 0.0208333 2.16667 0.0625C2.20833 0.0937493 2.22917 0.135416 2.22917 0.1875V5.39583C2.22917 5.70313 2.28125 5.9375 2.39583 6.10417C2.52083 6.26042 2.69792 6.33333 2.9375 6.33333C3.17187 6.33333 3.35417 6.24479 3.47917 6.0625C3.61458 5.88542 3.6875 5.64063 3.6875 5.33333V0.1875Z" fill="#D72333"/>
</svg>
