<svg width="5" height="11" viewBox="0 0 5 11" fill="none" xmlns="http://www.w3.org/2000/svg">
<path d="M0.145833 10.7083C0.0468747 10.7083 0 10.6615 0 10.5625V0.166667C0 0.057292 0.0468747 0 0.145833 0H0.9375C1.03125 0 1.08333 0.057292 1.08333 0.166667V6.3125C1.08333 6.32813 1.08854 6.34375 1.10417 6.35417C1.13021 6.36979 1.15104 6.36458 1.16667 6.33333L3.45833 3.0625C3.5 3.01042 3.55208 2.97917 3.625 2.97917H4.4375C4.48958 2.97917 4.52604 3 4.54167 3.04167C4.56771 3.07292 4.5625 3.10417 4.52083 3.14583L3 5.33333C2.96875 5.36458 2.96875 5.39063 3 5.41667L4.79167 10.5417L4.8125 10.6042C4.8125 10.6771 4.76042 10.7083 4.66667 10.7083H3.85417C3.77083 10.7083 3.71354 10.6667 3.6875 10.5833L2.3125 6.33333C2.3125 6.28125 2.28125 6.27083 2.22917 6.3125L1.10417 7.91667C1.08854 7.93229 1.08333 7.95313 1.08333 7.97917V10.5625C1.08333 10.6615 1.03125 10.7083 0.9375 10.7083H0.145833Z" fill="#D72333"/>
</svg>
