<svg width="5" height="9" viewBox="0 0 5 9" fill="none" xmlns="http://www.w3.org/2000/svg">
<path d="M5 4.4375C5 4.55208 4.94271 4.60417 4.83333 4.60417H1.20833C1.16667 4.60417 1.14583 4.625 1.14583 4.66667V5.83333C1.14583 6.28125 1.27083 6.64583 1.52083 6.9375C1.77083 7.21875 2.09375 7.35417 2.5 7.35417C2.83333 7.35417 3.11458 7.25 3.35417 7.04167C3.60417 6.83333 3.76042 6.5625 3.83333 6.22917C3.85937 6.13542 3.92187 6.08333 4.02083 6.08333L4.8125 6.125C4.85417 6.125 4.88542 6.14063 4.91667 6.16667C4.95833 6.19792 4.96875 6.23958 4.95833 6.29167C4.875 6.91667 4.61458 7.41667 4.1875 7.79167C3.75521 8.15625 3.19271 8.33333 2.5 8.33333C1.73437 8.33333 1.125 8.11458 0.666667 7.66667C0.218749 7.22396 0 6.63542 0 5.89583V2.4375C0 1.71875 0.218749 1.13542 0.666667 0.6875C1.125 0.229167 1.73437 0 2.5 0C3.26042 0 3.86458 0.229167 4.3125 0.6875C4.77083 1.13542 5 1.71875 5 2.4375V4.4375ZM2.5 1C2.09375 1 1.77083 1.14063 1.52083 1.41667C1.27083 1.69792 1.14583 2.0625 1.14583 2.52083V3.60417C1.14583 3.64583 1.16667 3.66667 1.20833 3.66667H3.8125C3.85417 3.66667 3.875 3.64583 3.875 3.60417V2.52083C3.875 2.0625 3.75 1.69792 3.5 1.41667C3.25 1.14063 2.91667 1 2.5 1Z" fill="#D72333"/>
</svg>
