<svg width="7" height="12" viewBox="0 0 7 12" fill="none" xmlns="http://www.w3.org/2000/svg">
<path d="M4.83333 7.75C4.90104 7.54167 5.02083 7.39063 5.1875 7.29167C5.35417 7.19792 5.52083 7.14583 5.6875 7.14583C5.89583 7.14583 6.07292 7.20313 6.22917 7.3125C6.39583 7.42708 6.47917 7.58333 6.47917 7.79167C6.47917 7.82292 6.46875 7.86458 6.45833 7.91667C6.45833 7.95833 6.44792 8.01042 6.4375 8.0625C6.04688 9.14583 5.51042 9.98958 4.83333 10.5833C4.16667 11.1823 3.40625 11.4792 2.5625 11.4792C2.11458 11.4792 1.69271 11.3958 1.29167 11.2292C0.901041 11.0625 0.588541 10.8229 0.354167 10.5C0.114583 10.1823 0 9.79167 0 9.33333C0 9.05729 0.0572917 8.76563 0.166667 8.45833L1.27083 5.27083H0.833333C0.651041 5.27083 0.505208 5.20833 0.395833 5.08333C0.296875 4.94792 0.25 4.78125 0.25 4.58333C0.25 4.375 0.322916 4.18229 0.479167 4C0.645833 3.80729 0.906249 3.70833 1.27083 3.70833H1.83333L2.875 0.770833C2.95833 0.536459 3.08333 0.348959 3.25 0.208333C3.42708 0.072916 3.63021 0 3.85417 0C4.14583 0 4.36458 0.0937507 4.52083 0.270833C4.6875 0.4375 4.77083 0.640625 4.77083 0.875C4.77083 0.947916 4.75521 1.03125 4.72917 1.125L3.85417 3.70833H4.4375C4.69792 3.70833 4.88542 3.78125 5 3.91667C5.10938 4.04167 5.16667 4.1875 5.16667 4.35417C5.16667 4.57813 5.07292 4.78646 4.89583 4.97917C4.72917 5.17708 4.47917 5.27083 4.14583 5.27083H3.27083L1.97917 8.95833C1.97917 9.01563 1.96875 9.07292 1.95833 9.125C1.94271 9.16667 1.9375 9.20833 1.9375 9.25C1.9375 9.43229 2 9.58333 2.125 9.70833C2.26042 9.83333 2.44792 9.89583 2.6875 9.89583C3.07292 9.89583 3.46354 9.72396 3.85417 9.375C4.23958 9.01563 4.56771 8.47396 4.83333 7.75Z" fill="#D72333"/>
</svg>
