<svg width="2" height="13" viewBox="0 0 2 13" fill="none" xmlns="http://www.w3.org/2000/svg">
<path d="M0.979167 1.9375C0.6875 1.9375 0.447917 1.84896 0.270833 1.66667C0.0885413 1.48958 0 1.26042 0 0.979167C0 0.6875 0.0885413 0.453125 0.270833 0.270833C0.447917 0.0937493 0.6875 0 0.979167 0C1.25521 0 1.48437 0.0937493 1.66667 0.270833C1.84375 0.453125 1.9375 0.6875 1.9375 0.979167C1.9375 1.26042 1.84375 1.48958 1.66667 1.66667C1.48437 1.84896 1.25521 1.9375 0.979167 1.9375ZM0.541667 12.3333C0.427083 12.3333 0.375 12.2812 0.375 12.1667V3.70833C0.375 3.59896 0.427083 3.54167 0.541667 3.54167H1.41667C1.54167 3.54167 1.60417 3.59896 1.60417 3.70833V12.1667C1.60417 12.2812 1.54167 12.3333 1.41667 12.3333H0.541667Z" fill="#D72333"/>
</svg>
