<svg width="19" height="21" viewBox="0 0 19 21" fill="none" xmlns="http://www.w3.org/2000/svg">
<path d="M6.84658 20.8067L6.72158 20.7234C6.38825 20.5671 6.03408 20.4838 5.65908 20.4734C5.28408 20.4734 4.92992 20.4004 4.59658 20.265C4.45596 20.2077 4.33096 20.14 4.22158 20.0567C4.107 19.9734 3.982 19.9213 3.84658 19.89C3.69033 19.8484 3.53408 19.8275 3.36742 19.8275C3.21117 19.8275 3.06013 19.8223 2.90908 19.8067C2.60179 19.3379 2.232 18.9213 1.80492 18.5567C1.38825 18.1973 1.0445 17.765 0.784084 17.265C0.659084 17.0307 0.513251 16.8015 0.346584 16.5775C0.190333 16.3588 0.0861679 16.1296 0.0340839 15.89C-0.0232081 15.5307 -0.00758273 15.1713 0.0757506 14.8067C0.159084 14.4317 0.226792 14.0775 0.284084 13.7442L0.0757506 13.5359C0.294501 13.2182 0.461168 12.8692 0.575751 12.4942C0.685125 12.1088 0.857 11.765 1.09658 11.4734C1.34658 11.1713 1.62783 10.9317 1.95075 10.765C2.28408 10.5984 2.61742 10.4473 2.95075 10.3067C3.00283 10.1557 3.0445 10.0098 3.07575 9.86919C3.11742 9.73378 3.14346 9.58794 3.15908 9.43169C2.75283 8.97336 2.31533 8.53586 1.84658 8.11919C1.88825 7.74419 1.7945 7.32752 1.57575 6.86919C1.36742 6.41086 1.18513 6.03065 1.03408 5.72336C1.1695 5.46294 1.26846 5.18169 1.32575 4.89002C1.37783 4.59836 1.44033 4.30669 1.51325 4.01502C1.607 3.73898 1.72679 3.48378 1.86742 3.24419C2.00283 2.99419 2.13825 2.74419 2.26325 2.49419C2.55492 2.02544 2.86742 1.67127 3.20075 1.43169C3.53408 1.19732 3.95596 0.994191 4.47158 0.827524C4.982 0.660858 5.53408 0.473358 6.11742 0.265024C6.71117 0.0462737 7.27367 -0.0370596 7.80492 0.0150243C8.06533 0.0306497 8.35179 0.0775244 8.65908 0.160858C8.97679 0.233775 9.2945 0.275442 9.61742 0.285858C9.93513 0.301483 10.2112 0.21294 10.4508 0.0150243C11.0341 0.15565 11.5966 0.327524 12.1383 0.535858C12.6903 0.744191 13.2424 0.973358 13.7841 1.22336C14.2112 1.39002 14.5653 1.57232 14.8466 1.76502C15.1226 1.94732 15.3726 2.19211 15.5966 2.49419C15.6903 2.61919 15.7216 2.74419 15.6799 2.86919C15.6383 2.98378 15.5601 3.07232 15.4508 3.14002C15.3101 3.23898 15.1799 3.37961 15.0549 3.55669C14.9299 3.73898 14.831 3.92127 14.7633 4.09836C14.607 4.39002 14.3674 4.50982 14.0341 4.45252L12.9924 4.18169L12.9716 3.91086C12.5237 3.67648 12.0237 3.47336 11.4716 3.30669C10.9299 3.12961 10.3726 3.02544 9.80492 2.99419C9.24763 2.96815 8.732 3.06711 8.26325 3.28586C7.80492 3.50982 7.43513 3.92127 7.15908 4.51502C6.95075 4.93169 6.84658 5.40565 6.84658 5.93169C6.84658 6.44732 6.97158 6.90565 7.22158 7.30669C7.39867 7.62961 7.63825 7.86919 7.92992 8.03586C8.232 8.20252 8.56013 8.34315 8.90908 8.45252C9.25283 8.55148 9.57575 8.67648 9.86742 8.82752C10.0028 8.67648 10.2008 8.60878 10.4508 8.61919C10.7112 8.61919 10.9299 8.61398 11.0966 8.59836C11.3726 8.92127 11.6903 9.08794 12.0549 9.09836C12.4299 9.09836 12.7945 9.04627 13.1591 8.93169C13.5341 8.80669 13.8883 8.72336 14.2216 8.68169L14.5341 8.95252C14.9768 8.94211 15.4091 8.90044 15.8258 8.82752C16.2528 8.74419 16.6643 8.71815 17.0549 8.74419C17.456 8.77544 17.8466 8.95252 18.2216 9.28586L18.0341 9.45252C18.2685 9.98378 18.331 10.4629 18.2216 10.89C18.0966 11.2807 17.8362 11.4473 17.4508 11.39H16.9091L16.4299 11.8275L16.5758 12.4317C16.4091 12.5984 16.3674 12.864 16.4508 13.2234C16.5341 13.5723 16.607 13.8432 16.6799 14.0359L16.3466 14.3275C16.5133 14.5098 16.6174 14.6557 16.6591 14.765C16.7112 14.864 16.6643 15.0307 16.5133 15.265L16.8049 16.2859C16.6903 16.4109 16.6643 16.5463 16.7216 16.6817C16.7737 16.8067 16.7841 16.9421 16.7424 17.0775C16.7268 17.2182 16.6799 17.3379 16.5966 17.4317C16.5237 17.515 16.4716 17.614 16.4299 17.7234C16.3153 18.0307 16.2945 18.3379 16.3674 18.64C16.4351 18.9473 16.4976 19.2598 16.5549 19.5775L15.9924 20.2234C15.5758 20.2754 15.1643 20.2754 14.7633 20.2234C14.3726 20.1817 13.9612 20.1817 13.5341 20.2234C13.4612 20.0879 13.3778 19.9682 13.2841 19.8692C13.2008 19.7754 13.1174 19.6609 13.0341 19.5359C12.8101 19.5359 12.5758 19.5515 12.3258 19.5775C12.0862 19.5932 11.857 19.64 11.6383 19.7234C11.4143 19.7963 11.2008 19.89 10.9924 20.015C10.7841 20.1296 10.5653 20.2234 10.3466 20.3067C9.76325 20.4317 9.1695 20.4942 8.57575 20.4942C7.99242 20.4942 7.41429 20.5984 6.84658 20.8067ZM9.01325 17.8067C9.607 17.8067 10.0758 17.7129 10.4091 17.515C10.7424 17.3067 11.0758 16.9682 11.4091 16.4942C11.3935 16.3275 11.3778 16.1348 11.3674 15.9109C11.3518 15.6765 11.2737 15.5046 11.1383 15.39C11.3153 14.765 11.4091 14.1192 11.4091 13.4525C11.3935 13.1765 11.3778 12.9004 11.3674 12.6192C11.3518 12.3432 11.3987 12.0723 11.5133 11.8067C11.081 11.6817 10.6643 11.5879 10.2633 11.515C9.87263 11.4473 9.45596 11.4317 9.01325 11.4734L8.70075 11.8275L7.53408 11.9109V12.1609C6.95075 12.7338 6.49763 13.2859 6.17992 13.8275C5.857 14.3588 5.82575 15.0463 6.07575 15.89C6.25283 16.515 6.62263 17.0046 7.17992 17.3484C7.74763 17.6973 8.357 17.8484 9.01325 17.8067Z" fill="#D72333"/>
</svg>
