<svg width="6" height="12" viewBox="0 0 6 12" fill="none" xmlns="http://www.w3.org/2000/svg">
<path d="M5.8125 1.70833C5.8125 1.76563 5.79167 1.8125 5.75 1.85417C5.71875 1.89583 5.67708 1.91667 5.625 1.91667H2.3125C2.25521 1.91667 2.22917 1.9375 2.22917 1.97917V4.47917C2.22917 4.53646 2.25521 4.5625 2.3125 4.5625H4.20833C4.26042 4.5625 4.30208 4.58333 4.33333 4.625C4.375 4.65625 4.39583 4.69792 4.39583 4.75V6.29167C4.39583 6.34896 4.375 6.39583 4.33333 6.4375C4.30208 6.46875 4.26042 6.47917 4.20833 6.47917H2.3125C2.25521 6.47917 2.22917 6.51042 2.22917 6.5625V9.0625C2.22917 9.11979 2.25521 9.14583 2.3125 9.14583H5.625C5.67708 9.14583 5.71875 9.16667 5.75 9.20833C5.79167 9.23958 5.8125 9.28125 5.8125 9.33333V10.875C5.8125 10.9323 5.79167 10.9792 5.75 11.0208C5.71875 11.0521 5.67708 11.0625 5.625 11.0625H0.208333C0.151041 11.0625 0.104167 11.0521 0.0625 11.0208C0.0208333 10.9792 0 10.9323 0 10.875V0.1875C0 0.135417 0.0208333 0.0937507 0.0625 0.0625C0.104167 0.0208333 0.151041 0 0.208333 0H5.625C5.67708 0 5.71875 0.0208333 5.75 0.0625C5.79167 0.0937507 5.8125 0.135417 5.8125 0.1875V1.70833Z" fill="#D72333"/>
</svg>
