<svg width="4" height="6" viewBox="0 0 4 6" fill="none" xmlns="http://www.w3.org/2000/svg">
<path d="M3.3125 2.95833C3.3125 3.04167 3.27604 3.08333 3.20833 3.08333H0.791667C0.760416 3.08333 0.75 3.09896 0.75 3.125V3.89583C0.75 4.1875 0.833333 4.43229 1 4.625C1.16667 4.80729 1.38021 4.89583 1.64583 4.89583C1.88021 4.89583 2.07292 4.82813 2.22917 4.6875C2.39583 4.55208 2.5 4.375 2.54167 4.16667C2.56771 4.09896 2.60937 4.0625 2.66667 4.0625L3.1875 4.08333C3.21354 4.08333 3.23437 4.09896 3.25 4.125C3.27604 4.14063 3.29167 4.16667 3.29167 4.20833C3.23437 4.625 3.0625 4.95833 2.77083 5.20833C2.47917 5.44792 2.10417 5.5625 1.64583 5.5625C1.14583 5.5625 0.739584 5.41667 0.4375 5.125C0.145833 4.82292 0 4.42708 0 3.9375V1.64583C0 1.16146 0.145833 0.765625 0.4375 0.458333C0.739584 0.156249 1.14583 0 1.64583 0C2.15625 0 2.5625 0.156249 2.85417 0.458333C3.15625 0.765625 3.3125 1.16146 3.3125 1.64583V2.95833ZM1.64583 0.666667C1.38021 0.666667 1.16667 0.765625 1 0.958333C0.833333 1.14063 0.75 1.38542 0.75 1.6875V2.39583C0.75 2.42708 0.760416 2.4375 0.791667 2.4375H2.54167C2.56771 2.4375 2.58333 2.42708 2.58333 2.39583V1.6875C2.58333 1.38542 2.48958 1.14063 2.3125 0.958333C2.14583 0.765625 1.92187 0.666667 1.64583 0.666667Z" fill="#D72333"/>
</svg>
