<svg width="6" height="14" viewBox="0 0 6 14" fill="none" xmlns="http://www.w3.org/2000/svg">
<path d="M2.5 13.3125C1.75 13.3125 1.14583 13.0781 0.6875 12.6042C0.229167 12.1354 0 11.5156 0 10.75V5.39583C0 4.61979 0.229167 4 0.6875 3.54167C1.14583 3.07292 1.75 2.83333 2.5 2.83333C3.26042 2.83333 3.88021 3.07292 4.35417 3.54167C4.82292 4 5.0625 4.61979 5.0625 5.39583V10.75C5.0625 11.5156 4.82292 12.1354 4.35417 12.6042C3.88021 13.0781 3.26042 13.3125 2.5 13.3125ZM2.5 12.3958C2.95833 12.3958 3.32292 12.25 3.60417 11.9583C3.88021 11.6562 4.02083 11.2708 4.02083 10.8125V5.35417C4.02083 4.86979 3.88021 4.47917 3.60417 4.1875C3.32292 3.89583 2.95833 3.75 2.5 3.75C2.06771 3.75 1.71354 3.89583 1.4375 4.1875C1.15625 4.47917 1.02083 4.86979 1.02083 5.35417V10.8125C1.02083 11.2708 1.15625 11.6562 1.4375 11.9583C1.71354 12.25 2.06771 12.3958 2.5 12.3958ZM3.60417 1.625C3.35417 1.625 3.15104 1.55208 3 1.39583C2.85937 1.24479 2.79167 1.05208 2.79167 0.8125C2.79167 0.5625 2.85937 0.369792 3 0.229167C3.15104 0.0781253 3.35417 0 3.60417 0C3.83854 0 4.03125 0.0781253 4.1875 0.229167C4.33854 0.369792 4.41667 0.5625 4.41667 0.8125C4.41667 1.05208 4.33854 1.24479 4.1875 1.39583C4.03125 1.55208 3.83854 1.625 3.60417 1.625ZM1.41667 1.625C1.16667 1.625 0.963541 1.55208 0.8125 1.39583C0.671875 1.24479 0.604167 1.05208 0.604167 0.8125C0.604167 0.5625 0.671875 0.369792 0.8125 0.229167C0.963541 0.0781253 1.16667 0 1.41667 0C1.65104 0 1.84375 0.0781253 2 0.229167C2.15104 0.369792 2.22917 0.5625 2.22917 0.8125C2.22917 1.05208 2.15104 1.24479 2 1.39583C1.84375 1.55208 1.65104 1.625 1.41667 1.625Z" fill="#D72333"/>
</svg>
