<svg width="8" height="11" viewBox="0 0 8 11" fill="none" xmlns="http://www.w3.org/2000/svg">
<path d="M5.0625 0.125C5.10417 0.0416667 5.17708 0 5.29167 0H7.125C7.17708 0 7.21875 0.0208333 7.25 0.0625C7.29167 0.0937507 7.3125 0.135417 7.3125 0.1875V10.7917C7.3125 10.849 7.29167 10.8958 7.25 10.9375C7.21875 10.9688 7.17708 10.9792 7.125 10.9792H5.29167C5.23438 10.9792 5.1875 10.9688 5.14583 10.9375C5.11458 10.8958 5.10417 10.849 5.10417 10.7917V3.75C5.10417 3.70833 5.08854 3.6875 5.0625 3.6875C5.04688 3.6875 5.02604 3.70313 5 3.72917L3.77083 5.89583C3.72917 5.97917 3.6875 6.02083 3.64583 6.02083C3.61458 6.02083 3.57292 5.97917 3.52083 5.89583L2.3125 3.72917C2.28125 3.70313 2.25521 3.6875 2.22917 3.6875C2.21354 3.6875 2.20833 3.70833 2.20833 3.75V10.7917C2.20833 10.849 2.1875 10.8958 2.14583 10.9375C2.11458 10.9688 2.07292 10.9792 2.02083 10.9792H0.1875C0.130208 10.9792 0.0833333 10.9688 0.0416667 10.9375C0.0104173 10.8958 0 10.849 0 10.7917V0.1875C0 0.135417 0.0104173 0.0937507 0.0416667 0.0625C0.0833333 0.0208333 0.130208 0 0.1875 0H2C2.09375 0 2.17187 0.0416667 2.22917 0.125L3.625 2.625C3.65104 2.66667 3.67708 2.66667 3.70833 2.625L5.0625 0.125Z" fill="#F8F7F6"/>
</svg>
