<svg width="6" height="9" viewBox="0 0 6 9" fill="none" xmlns="http://www.w3.org/2000/svg">
<path d="M4.3125 0.166667C4.3125 0.114583 4.32292 0.072916 4.35417 0.0416667C4.38021 0.0156253 4.42188 0 4.47917 0H5.25C5.34375 0 5.39583 0.057292 5.39583 0.166667L4.45833 7.77083C4.42708 7.88542 4.36458 7.9375 4.27083 7.9375H3.5C3.45833 7.9375 3.42187 7.92708 3.39583 7.89583C3.36458 7.85417 3.35937 7.8125 3.375 7.77083L3.4375 7.25C3.4375 7.22396 3.42708 7.20833 3.41667 7.20833C3.40104 7.20833 3.38542 7.21875 3.375 7.22917C2.98437 7.77083 2.4375 8.04167 1.72917 8.04167C1.1875 8.04167 0.760416 7.89583 0.458333 7.60417C0.151041 7.30208 0 6.83333 0 6.20833C0 6.125 0.005208 5.97396 0.0208333 5.75L0.708333 0.166667C0.734375 0.057292 0.796875 0 0.895833 0H1.64583C1.73958 0 1.79167 0.057292 1.79167 0.166667L1.14583 5.5C1.11458 5.68229 1.10417 5.80729 1.10417 5.875C1.10417 6.68229 1.45833 7.08333 2.16667 7.08333C2.56771 7.08333 2.90104 6.93229 3.16667 6.625C3.42708 6.32292 3.59375 5.90625 3.66667 5.375L4.3125 0.166667Z" fill="#D72333"/>
</svg>
