<svg width="3" height="6" viewBox="0 0 3 6" fill="none" xmlns="http://www.w3.org/2000/svg">
<path d="M1.83333 0C2 0 2.15104 0.0364587 2.29167 0.104167C2.33333 0.145833 2.34375 0.197916 2.33333 0.25L2.20833 0.8125C2.19271 0.869792 2.15104 0.890625 2.08333 0.875C2 0.833333 1.88542 0.8125 1.75 0.8125C1.69271 0.8125 1.65104 0.8125 1.625 0.8125C1.375 0.828125 1.16667 0.968751 1 1.22917C0.833333 1.47917 0.75 1.78646 0.75 2.14583V5.33333C0.75 5.40625 0.713541 5.4375 0.645833 5.4375H0.104167C0.0312493 5.4375 0 5.40625 0 5.33333V0.166667C0 0.0833333 0.0312493 0.0416667 0.104167 0.0416667H0.645833C0.713541 0.0416667 0.75 0.0833333 0.75 0.166667V0.791667C0.75 0.822916 0.755208 0.833333 0.770833 0.833333C0.781249 0.833333 0.796875 0.828125 0.8125 0.8125C1.02083 0.270833 1.35937 0 1.83333 0Z" fill="#D72333"/>
</svg>
