<svg width="7" height="11" viewBox="0 0 7 11" fill="none" xmlns="http://www.w3.org/2000/svg">
<path d="M3.9375 0.1875C3.9375 0.135417 3.94792 0.0937507 3.97917 0.0625C4.02083 0.0208333 4.06771 0 4.125 0H5.95833C6.01042 0 6.05208 0.0208333 6.08333 0.0625C6.125 0.0937507 6.14583 0.135417 6.14583 0.1875V10.7917C6.14583 10.849 6.125 10.8958 6.08333 10.9375C6.05208 10.9688 6.01042 10.9792 5.95833 10.9792H4.125C4.06771 10.9792 4.02083 10.9688 3.97917 10.9375C3.94792 10.8958 3.9375 10.849 3.9375 10.7917V6.5C3.9375 6.45833 3.90625 6.4375 3.85417 6.4375H2.29167C2.23437 6.4375 2.20833 6.45833 2.20833 6.5V10.7917C2.20833 10.849 2.1875 10.8958 2.14583 10.9375C2.11458 10.9688 2.07292 10.9792 2.02083 10.9792H0.1875C0.130208 10.9792 0.0833333 10.9688 0.0416667 10.9375C0.0104173 10.8958 0 10.849 0 10.7917V0.1875C0 0.135417 0.0104173 0.0937507 0.0416667 0.0625C0.0833333 0.0208333 0.130208 0 0.1875 0H2.02083C2.07292 0 2.11458 0.0208333 2.14583 0.0625C2.1875 0.0937507 2.20833 0.135417 2.20833 0.1875V4.45833C2.20833 4.51563 2.23437 4.54167 2.29167 4.54167H3.85417C3.90625 4.54167 3.9375 4.51563 3.9375 4.45833V0.1875Z" fill="#D72333"/>
</svg>
