<svg width="7" height="12" viewBox="0 0 7 12" fill="none" xmlns="http://www.w3.org/2000/svg">
<path d="M0.1875 11.1667C0.130208 11.1667 0.0833333 11.1562 0.0416667 11.125C0.010416 11.0833 0 11.0365 0 10.9792V0.1875C0 0.135416 0.010416 0.0937493 0.0416667 0.0625C0.0833333 0.0208333 0.130208 0 0.1875 0H3.08333C4.04167 0 4.8125 0.286459 5.39583 0.854167C5.98958 1.41146 6.29167 2.15625 6.29167 3.08333V8.0625C6.29167 9.01042 5.98958 9.76563 5.39583 10.3333C4.8125 10.8906 4.04167 11.1667 3.08333 11.1667H0.1875ZM2.25 9.14583C2.25 9.20313 2.27604 9.22917 2.33333 9.22917H3.04167C3.33333 9.21875 3.56771 9.09375 3.75 8.85417C3.92708 8.61979 4.02604 8.3125 4.04167 7.9375V3.22917C4.04167 2.82813 3.94271 2.51042 3.75 2.27083C3.56771 2.03646 3.32292 1.91667 3.02083 1.91667H2.33333C2.27604 1.91667 2.25 1.94792 2.25 2V9.14583Z" fill="#D72333"/>
</svg>
