<svg width="9" height="8" viewBox="0 0 9 8" fill="none" xmlns="http://www.w3.org/2000/svg">
<path d="M6.60417 4.04167C6.67188 3.83333 6.79167 3.68229 6.95833 3.58333C7.13542 3.48958 7.31771 3.4375 7.5 3.4375C7.69271 3.4375 7.86458 3.49479 8.02083 3.60417C8.1875 3.71875 8.27083 3.86979 8.27083 4.0625C8.27083 4.16146 8.25 4.26042 8.20833 4.35417C7.91667 5.1875 7.50521 5.85417 6.97917 6.35417C6.46354 6.85417 5.89583 7.21875 5.27083 7.4375C4.64583 7.66146 4.02604 7.77083 3.41667 7.77083C2.76042 7.77083 2.17708 7.66667 1.66667 7.45833C1.15104 7.25 0.739584 6.95833 0.4375 6.58333C0.145833 6.19792 0 5.73958 0 5.20833C0 5.07292 0.0104167 4.92708 0.0416667 4.77083C0.067708 4.60417 0.109375 4.4375 0.166667 4.27083L0.958333 2.02083C1.17708 1.35417 1.54687 0.854167 2.0625 0.520833C2.58854 0.177084 3.15104 0 3.75 0C4.25 0 4.67708 0.0989587 5.04167 0.291667C5.41667 0.489583 5.70833 0.75 5.91667 1.08333C6.125 1.41667 6.22917 1.80208 6.22917 2.22917C6.22917 2.45313 6.19271 2.69792 6.125 2.95833C5.94271 3.54167 5.60938 4.01563 5.125 4.375C4.63542 4.72396 4.09375 4.89583 3.5 4.89583C3.23438 4.89583 2.98438 4.86458 2.75 4.79167C2.51042 4.70833 2.29688 4.61458 2.10417 4.5L2 4.75C1.96875 4.82292 1.94792 4.89063 1.9375 4.95833C1.9375 5.01563 1.9375 5.07292 1.9375 5.125C1.9375 5.43229 2.07292 5.6875 2.35417 5.89583C2.64583 6.09375 3.03125 6.1875 3.52083 6.1875C3.89583 6.1875 4.28125 6.11979 4.6875 5.97917C5.08854 5.82813 5.45833 5.59896 5.79167 5.29167C6.13542 4.97396 6.40625 4.55729 6.60417 4.04167ZM3.70833 1.5625C3.55208 1.5625 3.40104 1.625 3.25 1.75C3.09375 1.86458 2.98438 2.01563 2.91667 2.20833L2.64583 3C2.82292 3.11458 3.05208 3.16667 3.33333 3.16667C3.52604 3.16667 3.71354 3.125 3.89583 3.04167C4.07292 2.94792 4.19271 2.78646 4.25 2.5625C4.29167 2.46875 4.3125 2.36458 4.3125 2.25C4.3125 2.05729 4.25521 1.89583 4.14583 1.77083C4.03125 1.63542 3.88542 1.5625 3.70833 1.5625Z" fill="#D72333"/>
</svg>
