<svg width="6" height="9" viewBox="0 0 6 9" fill="none" xmlns="http://www.w3.org/2000/svg">
<path d="M3.71687 0C4.25853 0 4.66478 0.166667 4.94603 0.5C5.2377 0.833333 5.38353 1.3125 5.38353 1.9375C5.38353 2.05208 5.37312 2.22917 5.3627 2.47917L4.69603 7.875C4.68041 7.98958 4.62312 8.04167 4.52937 8.04167H3.7377C3.69603 8.04167 3.65957 8.03125 3.63353 8C3.60228 7.95833 3.59707 7.91667 3.6127 7.875L4.25853 2.58333C4.26895 2.41667 4.27937 2.30208 4.27937 2.22917C4.27937 1.82813 4.18562 1.51563 4.00853 1.29167C3.82624 1.07292 3.56062 0.958333 3.21687 0.958333C2.82624 0.958333 2.49291 1.11458 2.21687 1.41667C1.95124 1.72396 1.78978 2.14063 1.7377 2.66667L1.09187 7.875C1.06062 7.98958 1.00853 8.04167 0.925199 8.04167H0.133532C0.0918657 8.04167 0.0554071 8.03125 0.0293657 8C-0.00188494 7.95833 -0.00709294 7.91667 0.0085324 7.875L0.946032 0.270833C0.946032 0.218749 0.956448 0.177083 0.987699 0.145833C1.02937 0.119792 1.07103 0.104167 1.1127 0.104167H1.88353C1.97728 0.104167 2.02937 0.161459 2.02937 0.270833L1.96687 0.770833C1.95124 0.786459 1.95124 0.802083 1.96687 0.8125C1.99291 0.828125 2.01895 0.8125 2.0502 0.770833C2.25853 0.520833 2.49812 0.333333 2.77937 0.208333C3.07103 0.0729173 3.38353 0 3.71687 0Z" fill="#D72333"/>
</svg>
