<svg width="5" height="9" viewBox="0 0 5 9" fill="none" xmlns="http://www.w3.org/2000/svg">
<path d="M3.57103 0C3.80541 0 4.01895 0.057292 4.21687 0.166667C4.26895 0.223959 4.28457 0.291667 4.25853 0.375L3.96687 1.1875C3.93562 1.28646 3.87312 1.32292 3.77937 1.29167C3.66478 1.22396 3.51895 1.1875 3.34187 1.1875C3.24291 1.1875 3.1752 1.19792 3.13353 1.20833C2.78457 1.23958 2.46687 1.4375 2.1752 1.8125C1.89395 2.17708 1.72728 2.625 1.6752 3.16667L1.09187 7.85417C1.06062 7.96875 1.00853 8.02083 0.925199 8.02083H0.133532C0.0918657 8.02083 0.0554071 8.01042 0.0293657 7.97917C-0.00188494 7.9375 -0.00709294 7.89583 0.0085324 7.85417L0.946032 0.25C0.946032 0.197916 0.956448 0.156249 0.987699 0.125C1.02937 0.0989587 1.07103 0.0833333 1.1127 0.0833333H1.88353C1.97728 0.0833333 2.02937 0.140625 2.02937 0.25L1.90437 1.1875C1.90437 1.21875 1.90957 1.22917 1.9252 1.22917C1.93562 1.22917 1.95124 1.21875 1.96687 1.1875C2.36791 0.395833 2.90437 0 3.57103 0Z" fill="#D72333"/>
</svg>
