<svg width="6" height="10" viewBox="0 0 6 10" fill="none" xmlns="http://www.w3.org/2000/svg">
<path d="M2.72917 9.08333C1.89583 9.08333 1.22917 8.84375 0.729167 8.35417C0.239584 7.86979 0 7.22396 0 6.41667V2.6875C0 1.89583 0.239584 1.25 0.729167 0.75C1.22917 0.25 1.89583 0 2.72917 0C3.5625 0 4.21875 0.25 4.70833 0.75C5.20833 1.25 5.45833 1.89583 5.45833 2.6875V6.41667C5.45833 7.22396 5.20833 7.86979 4.70833 8.35417C4.21875 8.84375 3.5625 9.08333 2.72917 9.08333ZM2.72917 7.97917C3.15625 7.97917 3.51042 7.83333 3.79167 7.54167C4.08333 7.23958 4.22917 6.83333 4.22917 6.33333V2.75C4.22917 2.25 4.08333 1.84896 3.79167 1.54167C3.51042 1.23958 3.15625 1.08333 2.72917 1.08333C2.28125 1.08333 1.92187 1.23958 1.64583 1.54167C1.36458 1.84896 1.22917 2.25 1.22917 2.75V6.33333C1.22917 6.83333 1.36458 7.23958 1.64583 7.54167C1.92187 7.83333 2.28125 7.97917 2.72917 7.97917Z" fill="#D72333"/>
</svg>
