<svg width="18" height="20" viewBox="0 0 18 20" fill="none" xmlns="http://www.w3.org/2000/svg">
<path d="M0.03125 19.0177C0.0416673 18.7 0.114583 18.4032 0.239583 18.1219C0.375001 17.8459 0.510417 17.5698 0.635417 17.2886C0.760417 16.9969 0.786458 16.7 0.71875 16.3927L1.32292 15.4552L1.23958 14.8511L1.59375 14.6427L1.57292 13.9969L2.01042 13.4552C2.01042 13.2209 2.05729 12.9969 2.15625 12.7886C2.26562 12.5802 2.34375 12.3667 2.38542 12.1427C2.4375 11.825 2.49479 11.5907 2.55208 11.4344C2.60417 11.2834 2.72396 11.0802 2.90625 10.8302L2.65625 10.4761C3.29167 9.67398 3.67708 8.79898 3.80208 7.85107C3.84375 7.65836 3.88542 7.51774 3.92708 7.4344C3.96875 7.34065 4.03646 7.21565 4.13542 7.0594C4.28646 6.84065 4.36458 6.61669 4.36458 6.39274C4.36458 6.17398 4.34375 5.9344 4.30208 5.6844C4.5625 5.26774 4.78125 4.83024 4.94792 4.3719C5.11458 3.91357 5.30729 3.47086 5.53125 3.03857C5.64062 2.83024 5.75 2.63232 5.86458 2.4344C5.97396 2.22607 6.07292 2.01253 6.15625 1.78857C6.18229 1.63753 6.20312 1.47607 6.21875 1.3094C6.22917 1.14274 6.24479 0.986486 6.26042 0.830235C6.30208 0.538568 6.41667 0.325027 6.61458 0.184402C6.86458 -0.00830629 7.15625 -0.049973 7.48958 0.0594017C7.72396 0.132318 7.93229 0.215651 8.11458 0.309402C8.40625 0.215651 8.69792 0.173984 8.98958 0.184402C9.28125 0.184402 9.57292 0.184402 9.86458 0.184402C10.0729 0.173984 10.25 0.226068 10.4062 0.351068C10.5729 0.465651 10.6667 0.621902 10.6979 0.830235C10.7917 1.27815 10.9479 1.72086 11.1562 2.16357C11.375 2.59586 11.5938 2.99169 11.8021 3.35107C11.6615 3.64274 11.6667 3.9344 11.8229 4.22607C11.9896 4.50732 12.1354 4.75732 12.2604 4.97607C12.4688 5.32503 12.5938 5.67919 12.6354 6.03857C12.6875 6.40315 12.7812 6.76774 12.9062 7.14274C13.0156 7.47607 13.1771 7.80419 13.3854 8.1219C13.6042 8.42919 13.7448 8.75732 13.8021 9.10107C13.8438 9.4344 13.9271 9.74169 14.0521 10.0177C14.1875 10.299 14.3021 10.5959 14.3854 10.9136C14.4948 11.2782 14.625 11.6167 14.7812 11.9344C14.9479 12.2417 15.0625 12.575 15.1354 12.9344C15.2292 13.2834 15.3021 13.6323 15.3438 13.9761C15.3958 14.325 15.5 14.674 15.6562 15.0177C15.8229 15.3823 15.974 15.7261 16.1146 16.0594C16.25 16.3927 16.3646 16.7469 16.4479 17.1219C16.5312 17.4136 16.6146 17.7209 16.6979 18.0386C16.7917 18.3615 16.9271 18.6584 17.0938 18.9344C17.2292 19.1323 17.2031 19.299 17.0104 19.4344L16.9062 19.5594C16.7812 19.6844 16.625 19.6948 16.4479 19.6011C16.375 19.575 16.2917 19.575 16.1979 19.6011C15.9062 19.6844 15.5938 19.7104 15.2604 19.6844C14.9375 19.6688 14.6198 19.6844 14.3021 19.7261C14.0625 19.7521 13.8073 19.7677 13.5312 19.7677C13.25 19.7677 13.0104 19.6688 12.8021 19.4761L12.2188 19.6844C11.9115 19.4344 11.6875 19.1323 11.5521 18.7677C11.4271 18.3927 11.2917 18.0177 11.1562 17.6427C11 17.2261 10.8438 16.8042 10.6771 16.3719C10.5104 15.9292 10.3854 15.4709 10.3021 14.9969L9.59375 14.5177C9.1875 14.6584 8.78125 14.6844 8.36458 14.6011C7.94792 14.5177 7.52083 14.4917 7.09375 14.5177C6.6875 14.575 6.28646 14.6011 5.88542 14.6011C5.47917 14.6011 5.07812 14.549 4.67708 14.4344C4.46875 14.7417 4.30729 15.0073 4.19792 15.2261C4.08333 15.4344 3.97917 15.7157 3.88542 16.0594C3.78646 16.4084 3.66146 16.7469 3.51042 17.0802C3.35417 17.4032 3.21875 17.7365 3.09375 18.0802L3.23958 18.2052L3.13542 19.0802C2.88542 19.2365 2.61458 19.3667 2.32292 19.4761C2.04167 19.5907 1.76562 19.6532 1.48958 19.6636C1.26562 19.6636 1.05208 19.6323 0.84375 19.5594C0.635417 19.4761 0.427083 19.4292 0.21875 19.4136C0.135417 19.4032 0.0729167 19.3511 0.03125 19.2677C-0.0104167 19.1844 -0.0104167 19.1011 0.03125 19.0177ZM8.61458 9.39274C8.40625 9.04898 8.24479 8.69482 8.13542 8.33024C8.03646 7.95524 7.90625 7.61149 7.73958 7.28857C7.58333 6.97086 7.30729 6.7469 6.90625 6.6219C6.89062 6.88753 6.83333 7.09065 6.73958 7.22607C6.64062 7.36669 6.5 7.53336 6.32292 7.72607L6.48958 8.4344C6.23958 8.84065 6.05729 9.26774 5.94792 9.72607C5.83333 10.174 5.76562 10.6375 5.73958 11.1219L5.26042 11.3302C5.45312 11.5542 5.64062 11.7417 5.82292 11.8927C6.01562 12.0334 6.28125 12.1011 6.61458 12.1011C6.98958 12.1011 7.34896 12.0959 7.69792 12.0802C8.05729 12.0698 8.41667 12.1011 8.78125 12.1844L9.23958 11.6636L8.88542 11.4136L9.03125 10.9136C8.86458 10.6219 8.75 10.3875 8.69792 10.2052C8.64062 10.0125 8.61458 9.74169 8.61458 9.39274Z" fill="#D72333"/>
</svg>
