<svg width="7" height="12" viewBox="0 0 7 12" fill="none" xmlns="http://www.w3.org/2000/svg">
<path d="M5.15437 11.1667C5.05541 11.1667 4.99812 11.1198 4.9877 11.0208L4.59187 9.04167C4.59187 9.03125 4.58145 9.01563 4.57103 9C4.55541 8.98958 4.53457 8.97917 4.50853 8.97917H1.6127C1.59707 8.97917 1.57624 8.98958 1.5502 9C1.53457 9.01563 1.52937 9.03125 1.52937 9.04167L1.13353 11.0208C1.13353 11.1198 1.07624 11.1667 0.966865 11.1667H0.154365C0.0970734 11.1667 0.0554067 11.1562 0.0293654 11.125C-0.00188394 11.0833 -0.00709327 11.0417 0.00853206 11L2.40437 0.145833C2.41478 0.0520827 2.47207 0 2.57103 0H3.52937C3.63874 0 3.70124 0.0520827 3.71687 0.145833L6.13353 11V11.0208C6.13353 11.1198 6.08145 11.1667 5.9877 11.1667H5.15437ZM1.7377 8C1.7377 8.04167 1.75853 8.0625 1.8002 8.0625H4.32103C4.34707 8.0625 4.3627 8.04167 4.3627 8L3.09187 1.72917C3.07624 1.6875 3.06062 1.66667 3.0502 1.66667C3.03457 1.66667 3.02937 1.6875 3.02937 1.72917L1.7377 8Z" fill="#D72333"/>
</svg>
