<svg width="6" height="11" viewBox="0 0 6 11" fill="none" xmlns="http://www.w3.org/2000/svg">
<path d="M5.875 7.41667C5.875 8.32292 5.59375 9.01563 5.04167 9.5C4.5 9.98958 3.79687 10.2292 2.9375 10.2292H0.166667C0.125 10.2292 0.0833333 10.2188 0.0416667 10.1875C0.0104173 10.1458 0 10.1042 0 10.0625V0.166667C0 0.125 0.0104173 0.0937507 0.0416667 0.0625C0.0833333 0.0208333 0.125 0 0.166667 0H2.625C3.59375 0 4.35417 0.239583 4.89583 0.708333C5.44792 1.16667 5.72917 1.86458 5.72917 2.79167C5.72917 3.75 5.39583 4.45313 4.72917 4.89583C4.69792 4.92708 4.69792 4.95313 4.72917 4.97917C5.48958 5.52083 5.875 6.33333 5.875 7.41667ZM2.125 1.77083C2.08333 1.77083 2.0625 1.79167 2.0625 1.83333V4.125C2.0625 4.18229 2.08333 4.20833 2.125 4.20833H2.66667C3 4.20833 3.25521 4.10417 3.4375 3.89583C3.61458 3.6875 3.70833 3.39063 3.70833 3C3.70833 2.59896 3.61458 2.29167 3.4375 2.08333C3.25521 1.875 3 1.77083 2.66667 1.77083H2.125ZM2.77083 8.4375C3.08854 8.4375 3.33854 8.32813 3.52083 8.10417C3.71354 7.86979 3.8125 7.53646 3.8125 7.10417C3.8125 6.67708 3.71354 6.33333 3.52083 6.08333C3.33854 5.82292 3.09375 5.6875 2.79167 5.6875H2.125C2.08333 5.6875 2.0625 5.71875 2.0625 5.77083V8.375C2.0625 8.41667 2.08333 8.4375 2.125 8.4375H2.77083Z" fill="#D72333"/>
</svg>
