<svg width="5" height="11" viewBox="0 0 5 11" fill="none" xmlns="http://www.w3.org/2000/svg">
<path d="M2.54167 0C3.15104 0 3.63542 0.208333 4 0.625C4.375 1.04167 4.5625 1.58333 4.5625 2.25V5.39583C4.5625 6.07813 4.375 6.625 4 7.04167C3.63542 7.44792 3.15104 7.64583 2.54167 7.64583C2.26042 7.64583 2 7.59375 1.75 7.5C1.51042 7.39063 1.30208 7.22396 1.125 7C1.09375 6.98958 1.07292 6.98958 1.0625 7C1.04687 7 1.04167 7.01563 1.04167 7.04167V10.2083C1.04167 10.3021 0.989584 10.3542 0.895833 10.3542H0.145833C0.0468747 10.3542 0 10.3021 0 10.2083V0.270833C0 0.177084 0.0468747 0.125 0.145833 0.125H0.895833C0.989584 0.125 1.04167 0.177084 1.04167 0.270833V0.604167C1.04167 0.619792 1.04687 0.635417 1.0625 0.645833C1.08854 0.645833 1.10937 0.640625 1.125 0.625C1.30208 0.416667 1.52083 0.265625 1.77083 0.166667C2.02083 0.057292 2.27604 0 2.54167 0ZM3.54167 2.3125C3.54167 1.89583 3.42187 1.5625 3.1875 1.3125C2.94792 1.05208 2.64583 0.916667 2.27083 0.916667C1.90625 0.916667 1.60937 1.05208 1.375 1.3125C1.15104 1.5625 1.04167 1.89583 1.04167 2.3125V5.33333C1.04167 5.75 1.15104 6.09375 1.375 6.35417C1.60937 6.60417 1.90625 6.72917 2.27083 6.72917C2.64583 6.72917 2.94792 6.60417 3.1875 6.35417C3.42187 6.09375 3.54167 5.75 3.54167 5.33333V2.3125Z" fill="#D72333"/>
</svg>
