<svg width="4" height="6" viewBox="0 0 4 6" fill="none" xmlns="http://www.w3.org/2000/svg">
<path d="M1.66667 5.5625C1.15104 5.5625 0.739584 5.41667 0.4375 5.125C0.145833 4.82292 0 4.42708 0 3.9375V1.64583C0 1.16146 0.145833 0.765625 0.4375 0.458333C0.739584 0.156249 1.15104 0 1.66667 0C2.17708 0 2.58854 0.156249 2.89583 0.458333C3.19792 0.765625 3.35417 1.16146 3.35417 1.64583V3.9375C3.35417 4.42708 3.19792 4.82292 2.89583 5.125C2.58854 5.41667 2.17708 5.5625 1.66667 5.5625ZM1.66667 4.89583C1.92708 4.89583 2.14583 4.80729 2.3125 4.625C2.48958 4.43229 2.58333 4.18229 2.58333 3.875V1.6875C2.58333 1.38542 2.48958 1.14063 2.3125 0.958333C2.14583 0.765625 1.92708 0.666667 1.66667 0.666667C1.38542 0.666667 1.16667 0.765625 1 0.958333C0.833333 1.14063 0.75 1.38542 0.75 1.6875V3.875C0.75 4.18229 0.833333 4.43229 1 4.625C1.16667 4.80729 1.38542 4.89583 1.66667 4.89583Z" fill="#D72333"/>
</svg>
