<svg width="12" height="17" viewBox="0 0 12 17" fill="none" xmlns="http://www.w3.org/2000/svg">
<path d="M11.2342 0.761002V0.948502L11.2967 1.261C11.38 1.511 11.3436 1.75059 11.1925 1.96934C11.0363 2.17767 10.8279 2.30267 10.5675 2.34434C10.4842 2.34434 10.3904 2.34434 10.2967 2.34434C10.2134 2.34434 10.13 2.33913 10.0467 2.3235C9.72377 2.28184 9.41127 2.25579 9.10919 2.24017C8.8019 2.22975 8.4894 2.23496 8.17169 2.261C7.83836 2.27663 7.50502 2.30267 7.17169 2.34434C6.83836 2.37559 6.49461 2.39642 6.15086 2.40684C5.90086 2.42246 5.64044 2.42767 5.38002 2.42767C5.1144 2.41725 4.8644 2.46934 4.63002 2.59434C4.6144 2.96934 4.61961 3.33392 4.65086 3.67767C4.69252 4.011 4.68211 4.36517 4.63002 4.74017C4.57273 5.11517 4.55711 5.49017 4.58836 5.86517C4.63002 6.24017 4.68211 6.62559 4.75502 7.011L5.23419 7.24017L5.29669 7.46934C5.71336 7.31829 6.14044 7.24017 6.58836 7.24017C6.68211 7.42246 6.81752 7.52142 6.98419 7.53184C7.15086 7.53184 7.31752 7.50059 7.48419 7.42767C7.60919 7.37559 7.7394 7.37559 7.88002 7.42767C8.01544 7.48496 8.11961 7.58392 8.19252 7.71934C8.21856 7.79225 8.24461 7.85996 8.27586 7.92767C8.3019 8.00059 8.32273 8.0735 8.33836 8.15684C8.34877 8.27142 8.34877 8.386 8.33836 8.511C8.33836 8.636 8.34356 8.77142 8.35919 8.90684C8.35919 9.14642 8.25502 9.31829 8.04669 9.42767C7.79669 9.54225 7.54669 9.58913 7.29669 9.5735C7.04669 9.56309 6.77586 9.53184 6.48419 9.49017C6.11961 9.4485 5.8019 9.46934 5.52586 9.55267C5.26023 9.62559 4.98419 9.79225 4.69252 10.0527C4.6769 10.2089 4.64044 10.386 4.58836 10.5943C4.54669 10.8027 4.58836 10.9798 4.71336 11.1152L4.50502 11.8443L4.85919 12.0943C4.84356 12.4173 4.83836 12.7089 4.83836 12.9693C4.84877 13.235 4.75502 13.5058 4.54669 13.7818C4.64044 13.9641 4.71336 14.1308 4.75502 14.2818C4.79669 14.4225 4.82273 14.5891 4.83836 14.7818C5.01544 14.7558 5.17169 14.7298 5.29669 14.6985C5.43211 14.6725 5.57794 14.6152 5.73419 14.5318C6.01023 14.5891 6.29669 14.6256 6.58836 14.636C6.88002 14.636 7.1769 14.6568 7.48419 14.6985C7.8019 14.7141 8.05711 14.7193 8.25502 14.7193C8.44773 14.7089 8.69773 14.6152 9.00502 14.4485C9.7394 14.8808 10.4738 14.9381 11.2134 14.6152C11.4061 14.5318 11.5936 14.5683 11.7759 14.7193L11.9217 15.0527C12.0727 15.7089 11.9477 16.261 11.5467 16.7193C11.4061 16.9277 11.2186 16.9902 10.9842 16.9068C10.8696 16.8756 10.7654 16.8495 10.6717 16.8235C10.5884 16.7975 10.4738 16.7558 10.3384 16.6985L10.255 16.8652C9.84877 16.8235 9.47377 16.8131 9.13002 16.8235C8.78106 16.8235 8.40086 16.7975 7.98419 16.7402L7.90086 16.9902C7.51023 16.9173 7.13523 16.8704 6.77586 16.8443C6.4269 16.8027 6.04669 16.8183 5.63002 16.886C5.44773 16.8964 5.27586 16.8912 5.10919 16.8652C4.95294 16.8391 4.79669 16.8235 4.63002 16.8235C4.42169 16.8391 4.26544 16.8443 4.17169 16.8443C4.07273 16.8339 3.9269 16.7923 3.73419 16.7193L3.33836 16.9902C3.01544 16.9173 2.69773 16.8652 2.38002 16.8235C2.07273 16.7714 1.76023 16.7558 1.44252 16.7818C1.32794 16.7818 1.22377 16.7766 1.13002 16.761C1.04669 16.7506 0.968564 16.735 0.900856 16.7193C0.692523 16.6777 0.531064 16.5631 0.421689 16.3652C0.32273 16.1568 0.32794 15.9485 0.442522 15.7402C0.369606 15.5318 0.307105 15.3391 0.255022 15.1568C0.213356 14.9641 0.176897 14.761 0.150856 14.5527C0.13523 14.3339 0.13523 14.1048 0.150856 13.8652C0.176897 13.6152 0.176897 13.3808 0.150856 13.1568L0.192522 13.1152C0.244606 12.5891 0.255022 12.0631 0.213356 11.5318C0.171689 10.9902 0.182105 10.4485 0.255022 9.90684C0.281064 9.63079 0.296689 9.35996 0.296689 9.09434C0.296689 8.81829 0.286273 8.54746 0.275856 8.28184C0.26023 8.03184 0.223772 7.79225 0.171689 7.55267C0.130022 7.31829 0.0987718 7.08913 0.0883558 6.86517C0.0883558 6.67246 0.119606 6.49017 0.192522 6.3235C0.26023 6.14642 0.301897 5.96413 0.317522 5.78184C0.343564 5.5735 0.338356 5.38079 0.296689 5.1985C0.265438 5.02142 0.234189 4.83392 0.192522 4.636C0.161273 4.45892 0.119606 4.25059 0.0675225 4.011C0.0102305 3.77663 -0.0106028 3.54746 0.00502249 3.3235C0.0310638 3.10475 0.130022 2.92767 0.296689 2.80267C0.239397 2.54225 0.20294 2.25579 0.192522 1.9485C0.192522 1.64642 0.223772 1.35475 0.296689 1.0735C0.338356 0.797461 0.463356 0.573502 0.671689 0.406836C0.880023 0.240169 1.1144 0.156836 1.38002 0.156836C1.59877 0.146418 1.81752 0.136002 2.02586 0.136002C2.23419 0.136002 2.43211 0.151628 2.63002 0.177669L2.73419 0.0943356C3.10919 0.20892 3.46336 0.229752 3.79669 0.156836C4.13002 0.0735022 4.48419 0.0474609 4.85919 0.0735022C5.03627 0.0891276 5.21856 0.125586 5.40086 0.177669C5.57794 0.219336 5.76544 0.240169 5.96336 0.240169C6.14044 0.240169 6.32273 0.214128 6.50502 0.156836C6.68211 0.104752 6.8644 0.0630849 7.04669 0.0318356C7.46336 -0.0202484 7.82794 -0.0098311 8.15086 0.0735022C8.46856 0.156836 8.81752 0.234961 9.19252 0.302669C9.40086 0.318294 9.60919 0.297461 9.81752 0.240169C10.0259 0.188085 10.2342 0.146418 10.4425 0.115169C10.6509 0.0891276 10.8279 0.136002 10.9842 0.261002C11.1509 0.386002 11.2342 0.552669 11.2342 0.761002Z" fill="#D72333"/>
</svg>
