<svg width="4" height="9" viewBox="0 0 4 9" fill="none" xmlns="http://www.w3.org/2000/svg">
<path d="M2.72917 0C2.98958 0 3.21875 0.057292 3.41667 0.166667C3.48437 0.208333 3.50521 0.281249 3.47917 0.375L3.29167 1.20833C3.27604 1.29167 3.21354 1.32292 3.10417 1.29167C2.97917 1.23958 2.81771 1.20833 2.625 1.20833C2.54167 1.20833 2.47917 1.20833 2.4375 1.20833C2.0625 1.23958 1.75 1.4375 1.5 1.8125C1.26042 2.1875 1.14583 2.64583 1.14583 3.1875V7.9375C1.14583 8.05208 1.08854 8.10417 0.979167 8.10417H0.166667C0.0520827 8.10417 0 8.05208 0 7.9375V0.229167C0 0.119792 0.0520827 0.0625 0.166667 0.0625H0.979167C1.08854 0.0625 1.14583 0.119792 1.14583 0.229167V1.1875C1.14583 1.21875 1.15104 1.22917 1.16667 1.22917C1.17708 1.22917 1.19271 1.22396 1.20833 1.20833C1.51042 0.406249 2.02083 0 2.72917 0Z" fill="#D72333"/>
</svg>
