<svg width="4" height="12" viewBox="0 0 4 12" fill="none" xmlns="http://www.w3.org/2000/svg">
<path d="M3.10417 0.979167C2.69792 0.979167 2.40625 1.11979 2.22917 1.39583C2.0625 1.66146 1.97917 2.08333 1.97917 2.66667V3.14583C1.97917 3.1875 2 3.20833 2.04167 3.20833H3.27083C3.38021 3.20833 3.4375 3.26563 3.4375 3.375V3.89583C3.4375 4.01042 3.38021 4.0625 3.27083 4.0625H2.04167C2 4.0625 1.97917 4.08333 1.97917 4.125V11.125C1.97917 11.2396 1.92708 11.2917 1.83333 11.2917H1.02083C0.921875 11.2917 0.875 11.2396 0.875 11.125V4.125C0.875 4.08333 0.854167 4.0625 0.8125 4.0625H0.166667C0.052084 4.0625 0 4.01042 0 3.89583V3.375C0 3.26563 0.052084 3.20833 0.166667 3.20833H0.8125C0.854167 3.20833 0.875 3.1875 0.875 3.14583V2.64583C0.875 1.71875 1.04167 1.04167 1.375 0.625C1.71875 0.208333 2.29167 0 3.08333 0H3.3125C3.42187 0 3.47917 0.057292 3.47917 0.166667L3.45833 0.8125C3.45833 0.927083 3.40104 0.979167 3.29167 0.979167H3.10417Z" fill="#D72333"/>
</svg>
