<svg width="7" height="11" viewBox="0 0 7 11" fill="none" xmlns="http://www.w3.org/2000/svg">
<path d="M0.128196 10.9792C0.0292375 10.9792 -0.0124292 10.9271 0.00319614 10.8125L1.3157 0.145833C1.32611 0.052084 1.3834 0 1.48236 0H3.8157C4.52403 0 5.07611 0.218751 5.48236 0.645833C5.8834 1.0625 6.08653 1.64063 6.08653 2.375C6.08653 2.48958 6.0709 2.66667 6.04486 2.91667L5.39903 8.0625C5.30007 8.95313 4.98236 9.66146 4.4407 10.1875C3.90945 10.7188 3.2584 10.9792 2.48236 10.9792H0.128196ZM1.1907 9.9375C1.1907 9.97917 1.21153 10 1.2532 10H2.58653C3.02924 10 3.40424 9.82813 3.71153 9.47917C4.02924 9.11979 4.23236 8.63542 4.3157 8.02083L4.9407 2.95833C4.95111 2.75 4.96153 2.60417 4.96153 2.52083C4.96153 2.03646 4.84695 1.66146 4.6282 1.39583C4.40424 1.11979 4.09174 0.979167 3.6907 0.979167H2.35736C2.34174 0.979167 2.3209 0.989583 2.29486 1C2.27924 1 2.27403 1.01563 2.27403 1.04167L1.1907 9.9375Z" fill="#D72333"/>
</svg>
