<svg width="10" height="19" viewBox="0 0 10 19" fill="none" xmlns="http://www.w3.org/2000/svg">
<path d="M7.45833 18.625C7.29167 18.625 7.17708 18.5573 7.125 18.4167L4.41667 10.1875C4.40104 10.1354 4.36458 10.1042 4.3125 10.1042H2C1.92708 10.1042 1.89583 10.1406 1.89583 10.2083V18.3542C1.89583 18.5365 1.80208 18.625 1.625 18.625H0.270833C0.0885413 18.625 0 18.5365 0 18.3542V0.270833C0 0.0937493 0.0885413 0 0.270833 0H4.64583C5.94792 0 7 0.479167 7.79167 1.4375C8.59375 2.38542 9 3.61979 9 5.14583C9 6.30208 8.75 7.29167 8.25 8.125C7.75 8.95833 7.07292 9.54167 6.22917 9.875C6.15625 9.89063 6.13021 9.93229 6.14583 10L9.04167 18.3333L9.0625 18.4375C9.0625 18.5625 8.98438 18.625 8.83333 18.625H7.45833ZM2 1.64583C1.92708 1.64583 1.89583 1.68229 1.89583 1.75V8.47917C1.89583 8.5625 1.92708 8.60417 2 8.60417H4.39583C5.19792 8.60417 5.85417 8.29167 6.35417 7.66667C6.85417 7.03125 7.10417 6.1875 7.10417 5.14583C7.10417 4.09375 6.85417 3.24479 6.35417 2.60417C5.85417 1.96875 5.19792 1.64583 4.39583 1.64583H2Z" fill="#D72333"/>
</svg>
