<svg width="7" height="12" viewBox="0 0 7 12" fill="none" xmlns="http://www.w3.org/2000/svg">
<path d="M3.39583 0C3.97917 0 4.48958 0.145833 4.9375 0.4375C5.39583 0.718749 5.75 1.11458 6 1.625C6.25 2.14063 6.375 2.72396 6.375 3.375C6.375 4.36458 6.10938 5.15625 5.58333 5.75C5.05208 6.33333 4.35938 6.625 3.5 6.625H2.3125C2.25521 6.625 2.22917 6.65625 2.22917 6.70833V10.9375C2.22917 10.9948 2.20833 11.0417 2.16667 11.0833C2.13542 11.1146 2.09375 11.125 2.04167 11.125H0.1875C0.130208 11.125 0.0833333 11.1146 0.0416667 11.0833C0.0104173 11.0417 0 10.9948 0 10.9375V0.1875C0 0.135416 0.0104173 0.0937493 0.0416667 0.0625C0.0833333 0.0208333 0.130208 0 0.1875 0H3.39583ZM3.02083 4.89583C3.35417 4.89583 3.625 4.76563 3.83333 4.5C4.04167 4.23958 4.14583 3.875 4.14583 3.41667C4.14583 2.95833 4.04167 2.59896 3.83333 2.33333C3.625 2.07292 3.35417 1.9375 3.02083 1.9375H2.3125C2.25521 1.9375 2.22917 1.96875 2.22917 2.02083V4.8125C2.22917 4.86979 2.25521 4.89583 2.3125 4.89583H3.02083Z" fill="#D72333"/>
</svg>
