<svg width="7" height="11" viewBox="0 0 7 11" fill="none" xmlns="http://www.w3.org/2000/svg">
<path d="M4.33333 10.9792C4.23438 10.9792 4.16667 10.9271 4.125 10.8125L2.79167 6.3125C2.77604 6.27083 2.75521 6.25 2.72917 6.25H1.89583C1.83854 6.25 1.8125 6.28125 1.8125 6.33333V10.7917C1.8125 10.849 1.79167 10.8958 1.75 10.9375C1.71875 10.9688 1.67708 10.9792 1.625 10.9792H0.1875C0.130208 10.9792 0.0833333 10.9688 0.0416667 10.9375C0.0104173 10.8958 0 10.849 0 10.7917V0.1875C0 0.135417 0.0104173 0.0937507 0.0416667 0.0625C0.0833333 0.0208333 0.130208 0 0.1875 0H3.125C3.67708 0 4.16667 0.135417 4.58333 0.395833C5.01042 0.661459 5.34375 1.03646 5.58333 1.52083C5.81771 2.01042 5.9375 2.57292 5.9375 3.20833C5.9375 3.84896 5.8125 4.40625 5.5625 4.875C5.3125 5.34896 4.96354 5.70313 4.52083 5.9375C4.47917 5.95313 4.45833 5.98958 4.45833 6.04167L6 10.75C6.01042 10.7812 6.02083 10.8073 6.02083 10.8333C6.02083 10.9323 5.96354 10.9792 5.85417 10.9792H4.33333ZM1.89583 1.5625C1.83854 1.5625 1.8125 1.59375 1.8125 1.64583V4.77083C1.8125 4.82813 1.83854 4.85417 1.89583 4.85417H2.85417C3.22917 4.85417 3.53125 4.70833 3.77083 4.41667C4.00521 4.11458 4.125 3.70833 4.125 3.20833C4.125 2.70833 4.00521 2.3125 3.77083 2.02083C3.53125 1.71875 3.22917 1.5625 2.85417 1.5625H1.89583Z" fill="white"/>
</svg>
