<svg width="10" height="12" viewBox="0 0 10 12" fill="none" xmlns="http://www.w3.org/2000/svg">
<path d="M8.58333 7.04167C8.77604 7.04167 8.95833 7.09896 9.125 7.20833C9.30208 7.32292 9.39583 7.47917 9.39583 7.6875C9.39583 7.71875 9.38542 7.76042 9.375 7.8125C9.35938 7.85417 9.34375 7.89583 9.33333 7.9375C9.04167 8.8125 8.6875 9.51042 8.27083 10.0208C7.85417 10.5365 7.41667 10.9115 6.95833 11.1458C6.51042 11.3698 6.06771 11.4792 5.625 11.4792C5.30208 11.4792 4.98958 11.4167 4.6875 11.2917C4.38021 11.1562 4.125 10.974 3.91667 10.75C3.65104 11 3.35417 11.1875 3.02083 11.3125C2.69792 11.4271 2.38542 11.4792 2.08333 11.4792C1.70833 11.4792 1.35937 11.4062 1.04167 11.25C0.734375 11.0833 0.484375 10.8542 0.291667 10.5625C0.0989584 10.2604 0 9.91146 0 9.52083C0 9.39583 0.0156253 9.27083 0.0416667 9.14583C0.0729167 9.02083 0.104167 8.89583 0.145833 8.77083L1.39583 5.1875C1.57292 4.6875 1.86458 4.32292 2.27083 4.08333C2.6875 3.83333 3.10937 3.70833 3.54167 3.70833C4.19271 3.70833 4.72917 3.9375 5.14583 4.39583L6.35417 0.979167C6.46354 0.645833 6.60938 0.406249 6.79167 0.25C6.96875 0.0833333 7.16667 0 7.375 0C7.60938 0 7.82292 0.0781253 8.02083 0.229167C8.21354 0.369792 8.3125 0.583333 8.3125 0.875C8.3125 0.947916 8.29688 1.03125 8.27083 1.125C8.23958 1.22396 8.21354 1.3125 8.1875 1.39583L5.47917 9.1875C5.4375 9.32813 5.41667 9.43229 5.41667 9.5C5.41667 9.61458 5.44792 9.70833 5.52083 9.79167C5.58854 9.86458 5.69271 9.89583 5.83333 9.89583C6.125 9.89583 6.4375 9.72396 6.77083 9.375C7.11458 9.01563 7.4375 8.4375 7.72917 7.64583C7.79688 7.4375 7.90625 7.28646 8.0625 7.1875C8.22917 7.09375 8.40104 7.04167 8.58333 7.04167ZM2.375 9.4375C2.45833 9.45313 2.5625 9.44792 2.6875 9.41667C2.82292 9.375 2.96875 9.28125 3.125 9.125C3.27604 8.97396 3.42187 8.72917 3.5625 8.39583L4.10417 6.875C4.15625 6.70833 4.19271 6.5625 4.20833 6.4375C4.23438 6.3125 4.25 6.20313 4.25 6.10417C4.25 5.86979 4.19271 5.69792 4.08333 5.58333C3.96875 5.45833 3.85417 5.39583 3.72917 5.39583C3.61458 5.39583 3.47917 5.45313 3.3125 5.5625C3.15625 5.67708 3.02083 5.92708 2.89583 6.3125L2.14583 8.52083C2.11458 8.57813 2.09375 8.64583 2.08333 8.72917C2.06771 8.80208 2.0625 8.875 2.0625 8.95833C2.0625 9.07292 2.08333 9.17708 2.125 9.27083C2.16667 9.35417 2.25 9.41146 2.375 9.4375Z" fill="#D72333"/>
</svg>
