<svg width="10" height="20" viewBox="0 0 10 20" fill="none" xmlns="http://www.w3.org/2000/svg">
<path d="M7.8125 19.5625C7.64583 19.5625 7.53125 19.4896 7.47917 19.3333L4.625 10.7083C4.60938 10.6562 4.57292 10.625 4.52083 10.625H2.08333C2.01042 10.625 1.97917 10.6615 1.97917 10.7292V19.2917C1.97917 19.474 1.88021 19.5625 1.6875 19.5625H0.270833C0.0885413 19.5625 0 19.474 0 19.2917V0.291667C0 0.0989587 0.0885413 0 0.270833 0H4.875C6.23438 0 7.33333 0.5 8.16667 1.5C9.01042 2.5 9.4375 3.80208 9.4375 5.39583C9.4375 6.60417 9.17188 7.64583 8.64583 8.52083C8.13021 9.39583 7.42188 10.0156 6.52083 10.375C6.44792 10.3906 6.42188 10.4375 6.4375 10.5208L9.47917 19.25L9.52083 19.375C9.52083 19.5 9.4375 19.5625 9.27083 19.5625H7.8125ZM2.08333 1.72917C2.01042 1.72917 1.97917 1.77083 1.97917 1.85417V8.91667C1.97917 8.98958 2.01042 9.02083 2.08333 9.02083H4.60417C5.46354 9.02083 6.15104 8.69792 6.66667 8.04167C7.19271 7.375 7.45833 6.49479 7.45833 5.39583C7.45833 4.30208 7.19271 3.41667 6.66667 2.75C6.15104 2.07292 5.46354 1.72917 4.60417 1.72917H2.08333Z" fill="#D72333"/>
</svg>
