<svg width="6" height="9" viewBox="0 0 6 9" fill="none" xmlns="http://www.w3.org/2000/svg">
<path d="M2.52083 8.33333C1.73958 8.33333 1.125 8.11458 0.666667 7.66667C0.218749 7.22396 0 6.63542 0 5.89583V2.45833C0 1.73958 0.229167 1.14583 0.6875 0.6875C1.14583 0.229167 1.75521 0 2.52083 0C3.28125 0 3.89583 0.229167 4.35417 0.6875C4.8125 1.14583 5.04167 1.73958 5.04167 2.45833V5.89583C5.04167 6.63542 4.8125 7.22396 4.35417 7.66667C3.89583 8.11458 3.28125 8.33333 2.52083 8.33333ZM2.52083 7.33333C2.92187 7.33333 3.25 7.19792 3.5 6.91667C3.76042 6.64063 3.89583 6.27083 3.89583 5.8125V2.52083C3.89583 2.0625 3.76042 1.69792 3.5 1.41667C3.25 1.14063 2.92187 1 2.52083 1C2.10417 1 1.77083 1.14063 1.52083 1.41667C1.27083 1.69792 1.14583 2.0625 1.14583 2.52083V5.8125C1.14583 6.27083 1.27083 6.64063 1.52083 6.91667C1.77083 7.19792 2.10417 7.33333 2.52083 7.33333Z" fill="#D72333"/>
</svg>
