<svg width="7" height="12" viewBox="0 0 7 12" fill="none" xmlns="http://www.w3.org/2000/svg">
<path d="M3.16667 11.3542C2.20833 11.3542 1.4375 11.0781 0.854167 10.5208C0.281251 9.95313 0 9.1875 0 8.22917V3.08333C0 2.14063 0.281251 1.39063 0.854167 0.833333C1.4375 0.281249 2.20833 0 3.16667 0C4.125 0 4.88542 0.281249 5.45833 0.833333C6.04167 1.39063 6.33333 2.14063 6.33333 3.08333V3.25C6.33333 3.30729 6.3125 3.35417 6.27083 3.39583C6.23958 3.4375 6.19792 3.45833 6.14583 3.45833L4.29167 3.52083C4.16667 3.52083 4.10417 3.46875 4.10417 3.35417V2.9375C4.10417 2.63542 4.01042 2.39063 3.83333 2.20833C3.66667 2.01563 3.44271 1.91667 3.16667 1.91667C2.88542 1.91667 2.65625 2.01563 2.47917 2.20833C2.3125 2.39063 2.22917 2.63542 2.22917 2.9375V8.41667C2.22917 8.72396 2.3125 8.97396 2.47917 9.16667C2.65625 9.34896 2.88542 9.4375 3.16667 9.4375C3.44271 9.4375 3.66667 9.34896 3.83333 9.16667C4.01042 8.97396 4.10417 8.72396 4.10417 8.41667V8C4.10417 7.94792 4.11458 7.89583 4.14583 7.85417C4.1875 7.8125 4.23438 7.79167 4.29167 7.79167L6.14583 7.875C6.19792 7.875 6.23958 7.89583 6.27083 7.9375C6.3125 7.97917 6.33333 8.02083 6.33333 8.0625V8.22917C6.33333 9.1875 6.04167 9.95313 5.45833 10.5208C4.875 11.0781 4.10938 11.3542 3.16667 11.3542Z" fill="#D72333"/>
</svg>
