<svg width="9" height="9" viewBox="0 0 9 9" fill="none" xmlns="http://www.w3.org/2000/svg">
<path d="M6.45833 0C7.09375 0 7.58854 0.239583 7.9375 0.708333C8.28125 1.16667 8.45833 1.8125 8.45833 2.64583V8.02083C8.45833 8.13542 8.40625 8.1875 8.3125 8.1875H7.52083C7.40625 8.1875 7.35417 8.13542 7.35417 8.02083V2.75C7.35417 2.20833 7.23438 1.78646 7 1.47917C6.77604 1.16146 6.47917 1 6.10417 1C5.69792 1 5.38021 1.15625 5.14583 1.45833C4.90625 1.76563 4.79167 2.18229 4.79167 2.70833V8.02083C4.79167 8.13542 4.73958 8.1875 4.64583 8.1875H3.83333C3.71875 8.1875 3.66667 8.13542 3.66667 8.02083V2.75C3.66667 2.20833 3.54688 1.78646 3.3125 1.47917C3.08854 1.16146 2.79688 1 2.4375 1C2.03125 1 1.70833 1.15625 1.45833 1.45833C1.21875 1.76563 1.10417 2.18229 1.10417 2.70833V8.02083C1.10417 8.13542 1.05208 8.1875 0.958333 8.1875H0.145833C0.0468747 8.1875 0 8.13542 0 8.02083V0.270833C0 0.161459 0.0468747 0.104167 0.145833 0.104167H0.958333C1.05208 0.104167 1.10417 0.161459 1.10417 0.270833V0.770833C1.10417 0.786459 1.10937 0.802084 1.125 0.8125C1.15104 0.8125 1.17187 0.807292 1.1875 0.791667C1.39583 0.515625 1.63542 0.3125 1.91667 0.1875C2.19271 0.0625 2.48438 0 2.79167 0C3.19271 0 3.54167 0.0989587 3.83333 0.291667C4.13542 0.489583 4.36458 0.765625 4.52083 1.125C4.53125 1.15625 4.54688 1.16667 4.5625 1.16667C4.58854 1.16667 4.60938 1.15625 4.625 1.125C4.81771 0.739583 5.07292 0.453125 5.39583 0.270833C5.72917 0.0937507 6.08333 0 6.45833 0Z" fill="#D72333"/>
</svg>
