<svg width="7" height="12" viewBox="0 0 7 12" fill="none" xmlns="http://www.w3.org/2000/svg">
<path d="M3.10417 11.4583C2.17187 11.4583 1.42187 11.1667 0.854167 10.5833C0.281249 10 0 9.22396 0 8.25V3.20833C0 2.25 0.281249 1.47917 0.854167 0.895833C1.42187 0.302083 2.17187 0 3.10417 0C3.71354 0 4.25521 0.135416 4.72917 0.395833C5.21354 0.661459 5.58333 1.03646 5.83333 1.52083C6.09375 2.01042 6.22917 2.57292 6.22917 3.20833V8.25C6.22917 8.89063 6.09375 9.45313 5.83333 9.9375C5.58333 10.4271 5.21354 10.8021 4.72917 11.0625C4.25521 11.3229 3.71354 11.4583 3.10417 11.4583ZM3.10417 9.54167C3.36458 9.54167 3.58333 9.4375 3.75 9.22917C3.91667 9.02083 4 8.74479 4 8.39583V3.08333C4 2.73958 3.91667 2.45833 3.75 2.25C3.58333 2.03125 3.36458 1.91667 3.10417 1.91667C2.83854 1.91667 2.625 2.03125 2.45833 2.25C2.30208 2.45833 2.22917 2.73958 2.22917 3.08333V8.39583C2.22917 8.74479 2.30208 9.02083 2.45833 9.22917C2.625 9.4375 2.83854 9.54167 3.10417 9.54167Z" fill="#D72333"/>
</svg>
