<svg width="6" height="12" viewBox="0 0 6 12" fill="none" xmlns="http://www.w3.org/2000/svg">
<path d="M0.208333 11.1667C0.151041 11.1667 0.104167 11.1562 0.0625 11.125C0.0208333 11.0833 0 11.0365 0 10.9792V9.35417C0 9.27083 0.0208333 9.19792 0.0625 9.125L3.47917 2.02083C3.47917 1.99479 3.46875 1.97396 3.45833 1.95833C3.45833 1.93229 3.4375 1.91667 3.39583 1.91667H0.208333C0.151041 1.91667 0.104167 1.90625 0.0625 1.875C0.0208333 1.83333 0 1.78646 0 1.72917V0.1875C0 0.135416 0.0208333 0.0937493 0.0625 0.0625C0.104167 0.0208333 0.151041 0 0.208333 0H5.6875C5.73958 0 5.78125 0.0208333 5.8125 0.0625C5.85417 0.0937493 5.875 0.135416 5.875 0.1875V1.79167C5.875 1.875 5.85938 1.95833 5.83333 2.04167L2.41667 9.14583C2.40104 9.17708 2.40104 9.19792 2.41667 9.20833C2.42708 9.22396 2.44792 9.22917 2.47917 9.22917H5.6875C5.73958 9.22917 5.78125 9.25 5.8125 9.29167C5.85417 9.33333 5.875 9.38542 5.875 9.4375V10.9792C5.875 11.0365 5.85417 11.0833 5.8125 11.125C5.78125 11.1562 5.73958 11.1667 5.6875 11.1667H0.208333Z" fill="#D72333"/>
</svg>
