<svg width="6" height="12" viewBox="0 0 6 12" fill="none" xmlns="http://www.w3.org/2000/svg">
<path d="M5.45833 8.125C5.46875 9.08333 5.21354 9.83333 4.6875 10.375C4.17188 10.9063 3.47917 11.1667 2.60417 11.1667H0.166667C0.052084 11.1667 0 11.1146 0 11V0.145833C0 0.0520827 0.052084 0 0.166667 0H2.45833C3.375 0 4.08854 0.260416 4.60417 0.770833C5.13021 1.27083 5.39583 1.98958 5.39583 2.91667C5.39583 4.11458 4.94792 4.92708 4.0625 5.35417C4.04688 5.36979 4.04167 5.38542 4.04167 5.39583C4.04167 5.39583 4.04688 5.40625 4.0625 5.41667C4.98958 5.95833 5.45833 6.86458 5.45833 8.125ZM1.20833 0.979167C1.16667 0.979167 1.14583 1 1.14583 1.04167V4.89583C1.14583 4.9375 1.16667 4.95833 1.20833 4.95833H2.45833C3.02604 4.95833 3.46875 4.79167 3.79167 4.45833C4.10938 4.11458 4.27083 3.63542 4.27083 3.02083C4.27083 2.38542 4.10938 1.88542 3.79167 1.52083C3.46875 1.16146 3.02604 0.979167 2.45833 0.979167H1.20833ZM2.52083 10.1667C3.08854 10.1667 3.53125 9.97917 3.85417 9.60417C4.17188 9.21875 4.33333 8.68229 4.33333 8C4.33333 7.32292 4.17188 6.78646 3.85417 6.39583C3.53125 6.01042 3.08854 5.8125 2.52083 5.8125H1.20833C1.16667 5.8125 1.14583 5.83333 1.14583 5.875V10.1042C1.14583 10.1458 1.16667 10.1667 1.20833 10.1667H2.52083Z" fill="#D72333"/>
</svg>
