<svg width="6" height="9" viewBox="0 0 6 9" fill="none" xmlns="http://www.w3.org/2000/svg">
<path d="M4.375 0.291667C4.38542 0.182292 4.44271 0.125 4.54167 0.125H5.3125C5.40625 0.125 5.45833 0.182292 5.45833 0.291667L4.52083 7.89583C4.48958 8.01042 4.42708 8.0625 4.33333 8.0625H3.58333C3.52604 8.0625 3.48437 8.05208 3.45833 8.02083C3.42708 7.97917 3.42187 7.9375 3.4375 7.89583L3.52083 7.33333C3.52083 7.29167 3.50521 7.27083 3.47917 7.27083C3.46354 7.27083 3.44792 7.28646 3.4375 7.3125C3.22917 7.60417 2.97917 7.82813 2.6875 7.97917C2.40625 8.11458 2.10937 8.1875 1.79167 8.1875C1.20833 8.1875 0.760416 8.01562 0.458333 7.66667C0.151041 7.32292 0 6.84896 0 6.25C0 6.15625 0.005208 6 0.0208333 5.79167L0.4375 2.39583C0.531251 1.66146 0.791667 1.07813 1.20833 0.645833C1.625 0.218751 2.15104 0 2.79167 0C3.10937 0 3.39583 0.0781253 3.64583 0.229167C3.89583 0.369792 4.08333 0.583333 4.20833 0.875C4.21875 0.906249 4.23438 0.916667 4.25 0.916667C4.27604 0.916667 4.29167 0.895833 4.29167 0.854167L4.375 0.291667ZM2.25 7.20833C2.625 7.20833 2.94271 7.07292 3.20833 6.79167C3.48437 6.51563 3.65104 6.15625 3.70833 5.70833L4.10417 2.47917C4.11458 2.41146 4.125 2.32813 4.125 2.22917C4.125 1.85417 4.02083 1.55729 3.8125 1.33333C3.61458 1.09896 3.34375 0.979167 3 0.979167C2.625 0.979167 2.29687 1.11979 2.02083 1.39583C1.73958 1.67708 1.57292 2.03646 1.52083 2.47917L1.10417 5.70833C1.10417 5.78125 1.10417 5.86458 1.10417 5.95833C1.10417 6.33333 1.20833 6.64063 1.41667 6.875C1.625 7.09896 1.90104 7.20833 2.25 7.20833Z" fill="#D72333"/>
</svg>
