<svg width="7" height="12" viewBox="0 0 7 12" fill="none" xmlns="http://www.w3.org/2000/svg">
<path d="M2.6875 11.2292C1.86458 11.2292 1.21354 11 0.729167 10.5417C0.239584 10.0729 0 9.4375 0 8.64583C0 8.53646 0.010416 8.36979 0.0416667 8.14583L0.666667 3.0625C0.776041 2.13542 1.13542 1.39063 1.75 0.833333C2.375 0.281249 3.14583 0 4.0625 0C4.90625 0 5.56771 0.239583 6.04167 0.708333C6.52604 1.16667 6.77083 1.79167 6.77083 2.58333C6.77083 2.69792 6.75521 2.85417 6.72917 3.0625L6.70833 3.22917C6.69271 3.28646 6.66667 3.33333 6.625 3.375C6.59375 3.40625 6.55208 3.41667 6.5 3.41667L4.70833 3.5C4.59375 3.5 4.54688 3.44792 4.5625 3.33333L4.60417 2.91667C4.61458 2.875 4.625 2.8125 4.625 2.72917C4.625 2.47917 4.54688 2.28125 4.39583 2.125C4.25521 1.97396 4.06771 1.89583 3.83333 1.89583C3.56771 1.89583 3.33854 1.99479 3.14583 2.1875C2.96354 2.36979 2.85417 2.61458 2.8125 2.91667L2.16667 8.33333C2.15104 8.375 2.14583 8.43229 2.14583 8.5C2.14583 8.75 2.21354 8.95313 2.35417 9.10417C2.48958 9.26042 2.67708 9.33333 2.91667 9.33333C3.17708 9.33333 3.40104 9.24479 3.58333 9.0625C3.77604 8.88542 3.89583 8.64063 3.9375 8.33333L4 7.89583C4 7.85417 4.02083 7.8125 4.0625 7.77083C4.10417 7.72917 4.14583 7.70833 4.1875 7.70833L5.95833 7.79167C6.01042 7.79167 6.05208 7.8125 6.08333 7.85417C6.125 7.88542 6.13542 7.92708 6.125 7.97917L6.10417 8.14583C5.98958 9.07813 5.625 9.82813 5 10.3958C4.375 10.9531 3.60417 11.2292 2.6875 11.2292Z" fill="white"/>
</svg>
