<svg width="6" height="11" viewBox="0 0 6 11" fill="none" xmlns="http://www.w3.org/2000/svg">
<path d="M5.75 1.70833C5.75 1.76563 5.72917 1.8125 5.6875 1.85417C5.65625 1.88542 5.61458 1.89583 5.5625 1.89583H2.29167C2.23437 1.89583 2.20833 1.92708 2.20833 1.97917V4.45833C2.20833 4.51563 2.23437 4.54167 2.29167 4.54167H4.16667C4.21875 4.54167 4.26042 4.5625 4.29167 4.60417C4.33333 4.63542 4.35417 4.67708 4.35417 4.72917V6.25C4.35417 6.29167 4.33333 6.33333 4.29167 6.375C4.26042 6.41667 4.21875 6.4375 4.16667 6.4375H2.29167C2.23437 6.4375 2.20833 6.45833 2.20833 6.5V9C2.20833 9.05729 2.23437 9.08333 2.29167 9.08333H5.5625C5.61458 9.08333 5.65625 9.10417 5.6875 9.14583C5.72917 9.17708 5.75 9.21875 5.75 9.27083V10.7917C5.75 10.849 5.72917 10.8958 5.6875 10.9375C5.65625 10.9688 5.61458 10.9792 5.5625 10.9792H0.1875C0.130208 10.9792 0.0833333 10.9688 0.0416667 10.9375C0.0104173 10.8958 0 10.849 0 10.7917V0.1875C0 0.135417 0.0104173 0.0937507 0.0416667 0.0625C0.0833333 0.0208333 0.130208 0 0.1875 0H5.5625C5.61458 0 5.65625 0.0208333 5.6875 0.0625C5.72917 0.0937507 5.75 0.135417 5.75 0.1875V1.70833Z" fill="#D72333"/>
</svg>
