<svg width="4" height="7" viewBox="0 0 4 7" fill="none" xmlns="http://www.w3.org/2000/svg">
<path d="M1.58333 6.58333C1.10937 6.58333 0.729167 6.4375 0.4375 6.14583C0.145833 5.84375 0 5.45313 0 4.97917V1.60417C0 1.13542 0.145833 0.75 0.4375 0.458333C0.729167 0.156251 1.10937 0 1.58333 0C2.05208 0 2.4375 0.156251 2.72917 0.458333C3.02083 0.75 3.16667 1.13542 3.16667 1.60417V4.97917C3.16667 5.45313 3.02083 5.84375 2.72917 6.14583C2.4375 6.4375 2.05208 6.58333 1.58333 6.58333ZM1.58333 6C1.85937 6 2.08333 5.91146 2.25 5.72917C2.42708 5.53646 2.52083 5.29167 2.52083 5V1.58333C2.52083 1.29167 2.42708 1.05729 2.25 0.875C2.08333 0.682292 1.85937 0.583333 1.58333 0.583333C1.30208 0.583333 1.07292 0.682292 0.895833 0.875C0.729167 1.05729 0.645833 1.29167 0.645833 1.58333V5C0.645833 5.29167 0.729167 5.53646 0.895833 5.72917C1.07292 5.91146 1.30208 6 1.58333 6Z" fill="#D72333"/>
</svg>
