<svg width="7" height="11" viewBox="0 0 7 11" fill="none" xmlns="http://www.w3.org/2000/svg">
<path d="M0.1875 10.9792C0.130208 10.9792 0.0833333 10.9688 0.0416667 10.9375C0.0104173 10.8958 0 10.849 0 10.7917V0.1875C0 0.135417 0.0104173 0.0937507 0.0416667 0.0625C0.0833333 0.0208333 0.130208 0 0.1875 0H1.625C1.67708 0 1.71875 0.0208333 1.75 0.0625C1.79167 0.0937507 1.8125 0.135417 1.8125 0.1875V4.52083C1.8125 4.5625 1.81771 4.59375 1.83333 4.60417C1.85937 4.60417 1.88542 4.58333 1.91667 4.54167L4.25 0.145833C4.30208 0.052084 4.38542 0 4.5 0H6.04167C6.125 0 6.17188 0.0208333 6.1875 0.0625C6.21354 0.104167 6.20833 0.156249 6.16667 0.208333L3.8125 4.625C3.8125 4.66667 3.8125 4.70313 3.8125 4.72917L6.35417 10.75C6.35417 10.7812 6.35417 10.8125 6.35417 10.8542C6.35417 10.9375 6.30208 10.9792 6.20833 10.9792H4.64583C4.53125 10.9792 4.46354 10.9323 4.4375 10.8333L2.58333 6.3125C2.56771 6.27083 2.54687 6.26042 2.52083 6.27083C2.50521 6.27083 2.48958 6.28646 2.47917 6.3125L1.85417 7.35417C1.82292 7.39583 1.8125 7.43229 1.8125 7.45833V10.7917C1.8125 10.849 1.79167 10.8958 1.75 10.9375C1.71875 10.9688 1.67708 10.9792 1.625 10.9792H0.1875Z" fill="white"/>
</svg>
