<svg width="28" height="24" viewBox="0 0 28 24" fill="none" xmlns="http://www.w3.org/2000/svg">
<path d="M17.0625 15C17.1458 15.0313 17.2344 15.0417 17.3333 15.0417C17.4427 15.0417 17.5312 15.0417 17.6042 15.0417C18.7708 15.0417 19.7969 14.6563 20.6875 13.875C21.5729 13.0833 22.2292 12.0833 22.6458 10.875C22.8646 10.125 23.2292 9.59375 23.7292 9.27083C24.2292 8.9375 24.7396 8.77083 25.2708 8.77083C25.8542 8.77083 26.3646 8.97396 26.8125 9.375C27.2708 9.76563 27.5 10.3281 27.5 11.0625C27.5 11.3854 27.4271 11.7813 27.2917 12.25C26.8438 13.625 26.1562 14.8854 25.2292 16.0208C24.3125 17.1615 23.1927 18.0729 21.875 18.75C20.5677 19.4167 19.1354 19.75 17.5833 19.75C16.7604 19.75 15.9635 19.6458 15.1875 19.4375C14.3646 20.8698 13.2917 21.8698 11.9583 22.4375C10.625 23.0104 9.17188 23.2917 7.60417 23.2917C6.25521 23.2917 5.00521 23.0313 3.85417 22.5C2.71354 21.974 1.78125 21.2083 1.0625 20.2083C0.354167 19.1979 0 18 0 16.625C0 16.1823 0.0416667 15.724 0.125 15.25C0.197917 14.7656 0.317708 14.2708 0.5 13.7708L3.39583 5.58333C3.82292 4.40625 4.47917 3.39583 5.35417 2.5625C6.22917 1.72917 7.23438 1.09896 8.375 0.666667C9.51042 0.223959 10.6979 0 11.9375 0C13.3646 0 14.6562 0.281251 15.8125 0.833333C16.9635 1.39063 17.875 2.17708 18.5417 3.1875C19.2188 4.20313 19.5625 5.39063 19.5625 6.75C19.5625 7.28125 19.4479 7.95313 19.2292 8.77083C19.0208 9.59375 18.7708 10.375 18.4792 11.125C18.1875 11.875 17.9219 12.4271 17.6875 12.7708C17.4219 13.1771 17.1562 13.4688 16.8958 13.6458C16.9792 14.0208 17.026 14.349 17.0417 14.625C17.0521 14.9063 17.0625 15.0313 17.0625 15ZM13.375 8.875C13.5 8.45833 13.6094 8.03646 13.7083 7.60417C13.8177 7.16146 13.875 6.76563 13.875 6.41667C13.875 5.97396 13.6875 5.57813 13.3125 5.22917C12.9479 4.86979 12.4635 4.6875 11.8542 4.6875C11.2396 4.6875 10.6302 4.86979 10.0208 5.22917C9.42188 5.57813 9.00521 6.08333 8.77083 6.75L5.9375 14.7917C5.86458 14.9896 5.79167 15.2604 5.70833 15.6042C5.625 15.9375 5.58333 16.2917 5.58333 16.6667C5.58333 17.1406 5.71354 17.5781 5.97917 17.9792C6.23958 18.3698 6.76042 18.5625 7.54167 18.5625C8.13542 18.5625 8.69792 18.3958 9.22917 18.0625C9.77083 17.7188 10.1719 17.1979 10.4375 16.5C10.0625 16.1823 9.72917 15.8229 9.4375 15.4167C9.14583 15 8.98438 14.4688 8.95833 13.8125C8.95833 13.0208 9.14583 12.3125 9.52083 11.6875C9.90625 11.0625 10.4219 10.5833 11.0625 10.25C11.6979 9.91667 12.375 9.79167 13.0833 9.875C13.1094 9.72396 13.151 9.57292 13.2083 9.41667C13.2604 9.25 13.3177 9.07292 13.375 8.875Z" fill="#D72333"/>
</svg>
