<svg width="14" height="26" viewBox="0 0 14 26" fill="none" xmlns="http://www.w3.org/2000/svg">
<mask id="mask0_24_7933" style="mask-type:luminance" maskUnits="userSpaceOnUse" x="0" y="0" width="14" height="26">
<path d="M13.3333 0H0V25.3333H13.3333V0Z" fill="white"/>
</mask>
<g mask="url(#mask0_24_7933)">
<path d="M4.64331 6.74984C4.73706 7.0988 4.78915 7.48942 4.78915 7.9165C4.77352 8.2915 4.73185 8.63525 4.66415 8.93734C4.45581 9.7863 3.93498 10.1978 3.10165 10.1873C2.66935 10.1717 2.31519 10.0415 2.03915 9.7915C1.7579 9.5415 1.58602 9.20296 1.51831 8.77067C1.47665 8.5363 1.46102 8.27067 1.47665 7.979C1.47665 7.9113 1.5079 7.87484 1.58081 7.87484L2.12248 7.89567C2.19019 7.89567 2.22665 7.93213 2.22665 7.99984C2.21102 8.24984 2.22665 8.4738 2.26831 8.6665C2.36206 9.23942 2.64331 9.53109 3.10165 9.5415C3.3204 9.5415 3.50269 9.479 3.64331 9.354C3.79435 9.21859 3.90373 9.02067 3.97665 8.77067C4.02873 8.479 4.06519 8.1665 4.08081 7.83317C4.08081 7.40609 4.04435 7.0415 3.97665 6.74984C3.90373 6.53109 3.79956 6.36442 3.66415 6.24984C3.52352 6.14046 3.35685 6.08317 3.16415 6.08317C3.10685 6.08317 3.02873 6.0988 2.93498 6.12484C2.86206 6.15609 2.81519 6.14567 2.78915 6.104L2.51831 5.83317C2.47665 5.78109 2.46623 5.729 2.49748 5.68734L3.91415 3.5415C3.92456 3.53109 3.92456 3.51546 3.91415 3.49984C3.91415 3.48942 3.90373 3.479 3.89331 3.479L1.70581 3.43734C1.6329 3.43734 1.60165 3.40609 1.60165 3.33317L1.62248 2.89567C1.62248 2.82796 1.65373 2.7915 1.72665 2.7915L4.74748 2.854C4.81519 2.854 4.85165 2.89046 4.85165 2.95817L4.83081 3.43734C4.83081 3.46859 4.81519 3.51025 4.78915 3.56234L3.49748 5.56234C3.48185 5.57796 3.47665 5.59359 3.47665 5.604C3.47665 5.604 3.48185 5.604 3.49748 5.604C3.7579 5.63525 3.99748 5.74984 4.20581 5.95817C4.41415 6.1665 4.55998 6.43213 4.64331 6.74984Z" fill="white"/>
<path d="M6.27132 10.131C6.10465 10.131 5.96403 10.0789 5.85465 9.96436C5.74007 9.83936 5.68799 9.69352 5.68799 9.52686C5.69841 9.36019 5.7609 9.22998 5.87549 9.13102C5.98486 9.02165 6.12549 8.96436 6.29215 8.96436C6.45882 8.96436 6.59424 9.02165 6.70882 9.13102C6.8182 9.24561 6.86507 9.38102 6.85466 9.54769C6.85466 9.71436 6.79736 9.85498 6.68799 9.96436C6.57341 10.0789 6.43799 10.131 6.27132 10.131Z" fill="white"/>
<path d="M11.055 7.01703C11.1227 7.28265 11.1592 7.61599 11.1592 8.01703C11.1436 8.32432 11.1175 8.61078 11.0758 8.87119C11.0029 9.34515 10.8311 9.69932 10.555 9.93369C10.2738 10.1681 9.91439 10.2879 9.47168 10.2879C9.01335 10.2722 8.64876 10.1524 8.38835 9.91286C8.12272 9.66286 7.95085 9.28786 7.86751 8.78786L7.84668 8.47536V8.45453C7.84668 8.40245 7.87272 8.38161 7.93001 8.39203H8.47168C8.53939 8.39203 8.57585 8.42849 8.57585 8.49619L8.61751 8.74619C8.71126 9.32953 8.99772 9.63161 9.47168 9.64203C9.69043 9.64203 9.87272 9.57432 10.0133 9.43369C10.1644 9.29828 10.2686 9.08994 10.3258 8.80869C10.3779 8.58994 10.4144 8.30869 10.43 7.97536C10.43 7.64203 10.3936 7.35036 10.3258 7.10036C10.2113 6.61599 9.95085 6.37119 9.53418 6.37119C9.0446 6.36078 8.74251 6.58994 8.61751 7.05869C8.58626 7.13161 8.5446 7.16286 8.49251 7.16286H7.95085C7.87793 7.15245 7.84668 7.11078 7.84668 7.03786L7.93001 2.99619C7.93001 2.92849 7.96126 2.90245 8.03418 2.91286L10.9717 2.95453C11.0394 2.95453 11.0758 2.99099 11.0758 3.05869L11.055 3.49619C11.055 3.56911 11.0186 3.60036 10.9508 3.60036L8.70085 3.55869C8.6696 3.55869 8.65918 3.57432 8.65918 3.60036L8.59668 6.18369C8.59668 6.19932 8.60189 6.21494 8.61751 6.22536C8.62793 6.22536 8.64355 6.22015 8.65918 6.20453C8.76855 6.03786 8.91439 5.91286 9.09668 5.82953C9.27376 5.74619 9.4821 5.70453 9.72168 5.70453C10.0811 5.70453 10.3779 5.82432 10.6175 6.05869C10.8519 6.28265 10.9977 6.60036 11.055 7.01703Z" fill="white"/>
<path d="M10.8967 19.2027C10.9488 19.4839 10.9801 19.786 10.9801 20.1193C10.9644 20.411 10.9436 20.6714 10.9176 20.8902C10.8603 21.3797 10.6884 21.7547 10.3967 22.0152C10.1051 22.2652 9.73006 22.3902 9.27173 22.3902C8.83944 22.3745 8.48527 22.2547 8.20923 22.0152C7.94361 21.7652 7.77694 21.4006 7.70923 20.911C7.66756 20.6922 7.65194 20.4214 7.66756 20.0985L7.6884 16.7027C7.69881 16.161 7.86027 15.7339 8.16756 15.411C8.48527 15.0933 8.89673 14.9422 9.39673 14.9527C9.83944 14.9527 10.2092 15.1193 10.5009 15.4527C10.7926 15.786 10.928 16.2235 10.9176 16.7652V16.9318C10.9176 17.0047 10.8811 17.036 10.8134 17.036L10.2717 17.0152C10.1988 17.0152 10.1676 16.9839 10.1676 16.911V16.7652C10.178 16.4318 10.1103 16.161 9.95923 15.9527C9.80298 15.7339 9.61027 15.6193 9.3759 15.6193C9.09465 15.6089 8.8759 15.7027 8.70923 15.911C8.54256 16.1193 8.44881 16.4006 8.4384 16.7443L8.41756 18.1193C8.41756 18.1349 8.42277 18.1506 8.4384 18.161C8.44881 18.161 8.46444 18.1558 8.48006 18.1402C8.57381 18.0047 8.69881 17.9006 8.85506 17.8277C9.02173 17.7599 9.19361 17.7235 9.3759 17.7235C9.79256 17.7235 10.1311 17.8589 10.3967 18.1193C10.6571 18.3849 10.8238 18.7443 10.8967 19.2027ZM10.1676 20.8068C10.1936 20.5308 10.2144 20.2756 10.2301 20.036C10.2301 19.7339 10.1988 19.4422 10.1467 19.161C10.1051 18.9006 10.0113 18.7027 9.8759 18.5777C9.73527 18.4422 9.55298 18.3693 9.33423 18.3693C8.88632 18.3589 8.59465 18.6297 8.45923 19.1818C8.41756 19.4058 8.39673 19.6818 8.39673 20.0152C8.38111 20.3485 8.39673 20.6193 8.4384 20.8277C8.53215 21.4266 8.8134 21.7339 9.27173 21.7443C9.50611 21.7443 9.69881 21.6714 9.85506 21.5152C10.0061 21.3485 10.1103 21.1141 10.1676 20.8068Z" fill="white"/>
</g>
</svg>
