<svg width="6" height="11" viewBox="0 0 6 11" fill="none" xmlns="http://www.w3.org/2000/svg">
<path d="M5.5625 6.125C5.60417 6.5 5.625 6.80729 5.625 7.04167C5.625 7.36458 5.60938 7.66667 5.58333 7.95833C5.54167 8.70833 5.27083 9.30208 4.77083 9.72917C4.28125 10.1458 3.63021 10.3542 2.8125 10.3542C2.02083 10.3542 1.38542 10.1615 0.916667 9.77083C0.442708 9.36979 0.156251 8.78646 0.0625 8.02083L0 7.60417C0 7.49479 0.0625 7.4375 0.1875 7.4375H1.89583C2.00521 7.4375 2.06771 7.49479 2.08333 7.60417C2.08333 7.67708 2.09375 7.76042 2.125 7.85417C2.20833 8.34375 2.4375 8.58333 2.8125 8.58333C3.00521 8.58333 3.15625 8.52083 3.27083 8.39583C3.39583 8.26042 3.47917 8.07292 3.52083 7.83333C3.54687 7.58333 3.5625 7.3125 3.5625 7.02083C3.5625 6.82813 3.54167 6.57813 3.5 6.27083C3.45833 6.05208 3.375 5.88542 3.25 5.77083C3.13542 5.64583 2.98958 5.58333 2.8125 5.58333C2.4375 5.58333 2.19271 5.76042 2.08333 6.10417C2.05208 6.21875 1.98958 6.27083 1.89583 6.27083H0.166667C0.125 6.27083 0.0833333 6.26042 0.0416667 6.22917C0.010416 6.1875 0 6.14063 0 6.08333V0.166667C0 0.125 0.010416 0.0937507 0.0416667 0.0625C0.0833333 0.0208333 0.125 0 0.166667 0H5.33333C5.38542 0 5.42708 0.0208333 5.45833 0.0625C5.48438 0.0937507 5.5 0.125 5.5 0.166667V1.58333C5.5 1.64063 5.48438 1.6875 5.45833 1.72917C5.42708 1.76042 5.38542 1.77083 5.33333 1.77083H2.125C2.08333 1.77083 2.0625 1.79167 2.0625 1.83333V4.29167C2.0625 4.32292 2.06771 4.34375 2.08333 4.35417C2.10937 4.35417 2.13021 4.34375 2.14583 4.3125C2.3125 4.14583 2.50521 4.02083 2.72917 3.9375C2.94792 3.85417 3.1875 3.8125 3.4375 3.8125C4.0625 3.8125 4.5625 4.02083 4.9375 4.4375C5.3125 4.84375 5.52083 5.40625 5.5625 6.125Z" fill="#D72333"/>
</svg>
