<svg width="7" height="12" viewBox="0 0 7 12" fill="none" xmlns="http://www.w3.org/2000/svg">
<path d="M2.72917 11.2292C1.88021 11.2292 1.21354 11 0.729167 10.5417C0.239584 10.0729 0 9.43229 0 8.625C0 8.51563 0.010416 8.34896 0.0416667 8.125L0.645833 3.10417C0.770833 2.16146 1.14583 1.41146 1.77083 0.854167C2.39583 0.286459 3.17187 0 4.10417 0C4.94792 0 5.61458 0.239583 6.10417 0.708333C6.60417 1.16667 6.85417 1.80208 6.85417 2.60417C6.85417 2.70313 6.83854 2.86979 6.8125 3.10417L6.20833 8.125C6.09375 9.07292 5.71875 9.82813 5.08333 10.3958C4.44271 10.9531 3.65625 11.2292 2.72917 11.2292ZM2.95833 9.33333C3.25 9.33333 3.48958 9.23958 3.6875 9.04167C3.88021 8.83333 4 8.55729 4.04167 8.20833L4.6875 3C4.69792 2.95833 4.70833 2.89583 4.70833 2.8125C4.70833 2.53646 4.63021 2.3125 4.47917 2.14583C4.32292 1.97917 4.125 1.89583 3.875 1.89583C3.59375 1.89583 3.35937 2 3.16667 2.20833C2.96875 2.40625 2.85417 2.66667 2.8125 3L2.16667 8.20833C2.16667 8.25 2.16667 8.3125 2.16667 8.39583C2.16667 8.6875 2.23437 8.91667 2.375 9.08333C2.52604 9.25 2.71875 9.33333 2.95833 9.33333Z" fill="white"/>
</svg>
