<svg width="7" height="11" viewBox="0 0 7 11" fill="none" xmlns="http://www.w3.org/2000/svg">
<path d="M4.47917 0.1875C4.47917 0.135417 4.5 0.0937507 4.54167 0.0625C4.58333 0.0208333 4.63021 0 4.6875 0H6.5C6.55208 0 6.59375 0.0208333 6.625 0.0625C6.66667 0.0937507 6.6875 0.135417 6.6875 0.1875V10.7917C6.6875 10.849 6.66667 10.8958 6.625 10.9375C6.59375 10.9688 6.55208 10.9792 6.5 10.9792H4.41667C4.31771 10.9792 4.25521 10.9271 4.22917 10.8125L2.27083 4.75C2.27083 4.72396 2.25521 4.71875 2.22917 4.72917C2.19792 4.72917 2.1875 4.74479 2.1875 4.77083L2.20833 10.7917C2.20833 10.849 2.1875 10.8958 2.14583 10.9375C2.10417 10.9688 2.0625 10.9792 2.02083 10.9792H0.1875C0.130208 10.9792 0.0833333 10.9688 0.0416667 10.9375C0.0104173 10.8958 0 10.849 0 10.7917V0.1875C0 0.135417 0.0104173 0.0937507 0.0416667 0.0625C0.0833333 0.0208333 0.130208 0 0.1875 0H2.25C2.34375 0 2.41667 0.052084 2.45833 0.145833L4.41667 6.22917C4.41667 6.26042 4.42708 6.27083 4.45833 6.27083C4.48438 6.26042 4.5 6.23958 4.5 6.20833L4.47917 0.1875Z" fill="#F8F7F6"/>
</svg>
