<svg width="18" height="21" viewBox="0 0 18 21" fill="none" xmlns="http://www.w3.org/2000/svg">
<path d="M0.023438 19.578C0.0494793 19.2603 0.127605 18.953 0.252605 18.6614C0.388022 18.3697 0.523438 18.078 0.648438 17.7864C0.773438 17.4947 0.804689 17.1978 0.752605 16.8905L1.35677 15.9114L1.27344 15.3072L1.64844 15.078L1.60677 14.4114L2.0651 13.8697C2.0651 13.6197 2.11719 13.3905 2.23177 13.1822C2.34115 12.9634 2.40885 12.7395 2.4401 12.5155C2.50781 12.1822 2.57031 11.9426 2.6276 11.7864C2.67969 11.6197 2.80469 11.4114 3.0026 11.1614L2.73177 10.7864C3.38281 9.96866 3.77865 9.06762 3.91927 8.07803C3.96094 7.88533 4.0026 7.7447 4.04427 7.66137C4.08594 7.56762 4.15365 7.44262 4.2526 7.28637C4.40365 7.05199 4.48177 6.82283 4.48177 6.59887C4.48177 6.36449 4.46615 6.1197 4.4401 5.8697C4.70052 5.42699 4.91927 4.97387 5.08594 4.51553C5.26302 4.04678 5.46615 3.58845 5.6901 3.14053C5.8151 2.9322 5.92969 2.72387 6.04427 2.51553C6.15365 2.29678 6.2526 2.07283 6.33594 1.84887C6.36198 1.69783 6.38281 1.53637 6.39844 1.3697C6.40885 1.19262 6.42448 1.02595 6.4401 0.8697C6.48177 0.567618 6.60677 0.343659 6.8151 0.203034C7.0651 -0.00529965 7.36198 -0.0521743 7.71094 0.0572003C7.96094 0.140534 8.16927 0.234284 8.33594 0.328034C8.63802 0.234284 8.94011 0.192618 9.23177 0.203034C9.53385 0.203034 9.84115 0.203034 10.1484 0.203034C10.3568 0.192618 10.5443 0.2447 10.7109 0.3697C10.8776 0.4947 10.9818 0.661367 11.0234 0.8697C11.1172 1.32803 11.2734 1.78637 11.4818 2.2447C11.7005 2.69262 11.9193 3.09366 12.1276 3.45303C12.0026 3.76033 12.013 4.0572 12.1693 4.34887C12.3359 4.64053 12.487 4.90095 12.6276 5.1197C12.8359 5.48428 12.9609 5.84887 13.0026 6.22387C13.0547 6.59887 13.1536 6.98428 13.2943 7.3697C13.4036 7.71866 13.5703 8.05199 13.7943 8.3697C14.013 8.67699 14.1536 9.01033 14.2109 9.3697C14.2526 9.71866 14.3359 10.0364 14.4609 10.328C14.5964 10.6197 14.7161 10.927 14.8151 11.2447C14.9245 11.6093 15.0651 11.953 15.2318 12.2864C15.3984 12.6093 15.513 12.9478 15.5859 13.3072C15.6797 13.6822 15.7526 14.052 15.7943 14.4114C15.8464 14.7603 15.9505 15.1145 16.1068 15.4739C16.2734 15.8384 16.4245 16.1926 16.5651 16.5364C16.7161 16.8853 16.8411 17.2447 16.9401 17.6197C17.0078 17.927 17.0911 18.2447 17.1901 18.578C17.2839 18.901 17.4245 19.203 17.6068 19.4947C17.7318 19.6926 17.6953 19.8645 17.5026 20.0155L17.3984 20.1197C17.2578 20.2551 17.1068 20.276 16.9401 20.1822C16.8568 20.1405 16.763 20.1405 16.6693 20.1822C16.362 20.2655 16.0443 20.2916 15.7109 20.2655C15.3776 20.2499 15.0495 20.2655 14.7318 20.3072C14.4818 20.3489 14.2109 20.3697 13.9193 20.3697C13.6276 20.3697 13.3776 20.2551 13.1693 20.0364L12.5651 20.2655C12.2578 20.0051 12.0339 19.6822 11.8984 19.3072C11.7734 18.9322 11.6328 18.5572 11.4818 18.1822C11.3255 17.7395 11.1589 17.2968 10.9818 16.8489C10.8151 16.3905 10.6901 15.927 10.6068 15.453L9.85677 14.953C9.45052 15.0937 9.03385 15.1197 8.60677 15.0364C8.17448 14.9426 7.74219 14.9114 7.3151 14.953C6.88281 15.0103 6.46094 15.0364 6.04427 15.0364C5.63802 15.0364 5.23177 14.9843 4.8151 14.8697C4.59115 15.177 4.42448 15.4426 4.3151 15.6614C4.20052 15.8853 4.09636 16.177 4.0026 16.5364C3.90365 16.901 3.77344 17.2447 3.60677 17.578C3.45052 17.9114 3.3151 18.2551 3.1901 18.5989L3.33594 18.7447L3.23177 19.6405C2.98177 19.7968 2.70052 19.9322 2.39844 20.0572C2.10677 20.1718 1.8151 20.2343 1.52344 20.2447C1.29948 20.2447 1.07552 20.2135 0.856771 20.1405C0.648438 20.0572 0.440105 20.0103 0.231771 19.9947C0.132813 19.9687 0.0651047 19.9114 0.023438 19.828C-0.00781267 19.7447 -0.00781267 19.6614 0.023438 19.578ZM8.85677 9.66137C8.64844 9.31762 8.48698 8.95303 8.37761 8.57803C8.27865 8.19262 8.14844 7.83845 7.98177 7.51553C7.8151 7.1822 7.52344 6.95303 7.10677 6.82803C7.09115 7.09366 7.03385 7.30199 6.9401 7.45303C6.84115 7.59366 6.69531 7.76553 6.5026 7.97387L6.66927 8.6822C6.41927 9.11449 6.23698 9.5572 6.1276 10.0155C6.01302 10.4739 5.9401 10.953 5.89844 11.453L5.41927 11.6822C5.6276 11.9062 5.82031 12.0937 6.0026 12.2447C6.19531 12.3853 6.46615 12.453 6.8151 12.453C7.20052 12.453 7.57552 12.453 7.9401 12.453C8.29948 12.4426 8.65885 12.4687 9.02344 12.5364L9.52344 12.0155L9.14844 11.7655L9.29427 11.2447C9.11198 10.9426 8.99219 10.6926 8.94011 10.4947C8.88281 10.302 8.85677 10.026 8.85677 9.66137Z" fill="#D72333"/>
</svg>
