<svg width="8" height="11" viewBox="0 0 8 11" fill="none" xmlns="http://www.w3.org/2000/svg">
<path d="M5.1127 0.1875C5.12312 0.135417 5.14395 0.0937507 5.1752 0.0625C5.21687 0.0208333 5.26374 0 5.32103 0H7.1127C7.16478 0 7.20645 0.0208333 7.2377 0.0625C7.26374 0.0937507 7.26895 0.135417 7.25853 0.1875L5.96687 10.7917C5.95124 10.849 5.9252 10.8958 5.88353 10.9375C5.85228 10.9688 5.81062 10.9792 5.75853 10.9792H3.96687C3.9252 10.9792 3.88353 10.9688 3.84187 10.9375C3.81062 10.8958 3.80541 10.849 3.82103 10.7917L4.34187 6.5C4.34187 6.45833 4.32103 6.4375 4.27937 6.4375H2.75853C2.70124 6.4375 2.6752 6.45833 2.6752 6.5L2.15437 10.7917C2.13874 10.849 2.1127 10.8958 2.07103 10.9375C2.02937 10.9688 1.97728 10.9792 1.9252 10.9792H0.154366C0.112699 10.9792 0.0710324 10.9688 0.0293657 10.9375C-0.00188494 10.8958 -0.00709294 10.849 0.0085324 10.7917L1.3002 0.1875C1.31062 0.135417 1.33145 0.0937507 1.3627 0.0625C1.40437 0.0208333 1.45124 0 1.50853 0H3.27937C3.38874 0 3.44603 0.0625 3.44603 0.1875L2.9252 4.45833C2.9252 4.51563 2.94603 4.54167 2.9877 4.54167H4.50853C4.5502 4.54167 4.57624 4.51563 4.59187 4.45833L5.1127 0.1875Z" fill="white"/>
</svg>
