<svg width="6" height="12" viewBox="0 0 6 12" fill="none" xmlns="http://www.w3.org/2000/svg">
<path d="M2.66667 11.1042C1.85937 11.1042 1.21354 10.8281 0.729167 10.2708C0.239584 9.71875 0 8.98958 0 8.08333V0.145833C0 0.052084 0.0468747 0 0.145833 0H0.958333C1.05208 0 1.10417 0.052084 1.10417 0.145833V8.20833C1.10417 8.78125 1.25 9.24479 1.54167 9.60417C1.83333 9.95313 2.20833 10.125 2.66667 10.125C3.15104 10.125 3.54167 9.95313 3.83333 9.60417C4.125 9.24479 4.27083 8.78125 4.27083 8.20833V0.145833C4.27083 0.052084 4.32292 0 4.4375 0H5.22917C5.33854 0 5.39583 0.052084 5.39583 0.145833V8.08333C5.39583 8.98958 5.14583 9.71875 4.64583 10.2708C4.14583 10.8281 3.48437 11.1042 2.66667 11.1042Z" fill="#D72333"/>
</svg>
