<svg width="7" height="12" viewBox="0 0 7 12" fill="none" xmlns="http://www.w3.org/2000/svg">
<mask id="mask0_24_8459" style="mask-type:luminance" maskUnits="userSpaceOnUse" x="0" y="0" width="7" height="12">
<path d="M6.66667 0H0V12H6.66667V0Z" fill="white"/>
</mask>
<g mask="url(#mask0_24_8459)">
<path d="M2.57747 9.42122C2.20247 9.42122 1.90039 9.31706 1.68164 9.10872C1.47331 8.90039 1.36914 8.61914 1.36914 8.25456C1.36914 8.17122 1.36914 8.10352 1.36914 8.04622L1.61914 6.08789C1.66081 5.68685 1.81706 5.35872 2.09831 5.10872C2.38997 4.84831 2.74414 4.71289 3.16081 4.71289C3.53581 4.71289 3.83268 4.81706 4.05664 5.02539C4.27539 5.23372 4.38997 5.49935 4.38997 5.81706C4.38997 5.88997 4.38997 5.93685 4.38997 5.96289L4.36914 6.06706C4.36914 6.08268 4.35352 6.10352 4.32747 6.12956C4.31185 6.14518 4.29622 6.15039 4.28581 6.15039L3.82747 6.17122C3.77018 6.17122 3.74414 6.13997 3.74414 6.06706L3.76497 6.00456C3.76497 5.99414 3.76497 5.96289 3.76497 5.92122C3.76497 5.74414 3.70247 5.58789 3.57747 5.46289C3.45247 5.33789 3.28581 5.27539 3.07747 5.27539C2.85352 5.27539 2.66602 5.35872 2.51497 5.52539C2.35872 5.68164 2.27018 5.87956 2.24414 6.12956L1.99414 8.00456C1.99414 8.04622 1.99414 8.09831 1.99414 8.15039C1.99414 8.35872 2.04622 8.53581 2.16081 8.67122C2.28581 8.81185 2.44206 8.87956 2.63997 8.87956C2.85872 8.87956 3.04622 8.80664 3.20247 8.65039C3.36914 8.49935 3.46289 8.32747 3.49414 8.12956V8.06706C3.50456 8.01497 3.54102 7.98372 3.59831 7.98372H4.05664C4.08268 7.98372 4.10352 7.99935 4.11914 8.02539C4.12956 8.04102 4.12956 8.05664 4.11914 8.06706V8.17122C4.06185 8.53581 3.89518 8.83268 3.61914 9.06706C3.33789 9.30664 2.99414 9.42122 2.57747 9.42122Z" fill="white"/>
</g>
</svg>
