<svg width="7" height="12" viewBox="0 0 7 12" fill="none" xmlns="http://www.w3.org/2000/svg">
<path d="M3.14583 11.3125C2.19792 11.3125 1.4375 11.0417 0.854167 10.5C0.281251 9.95833 0 9.23958 0 8.33333V2.97917C0 2.07813 0.281251 1.35417 0.854167 0.8125C1.4375 0.270833 2.19792 0 3.14583 0C4.08854 0 4.85417 0.281249 5.4375 0.833333C6.02083 1.375 6.3125 2.09896 6.3125 3V3.60417C6.3125 3.64583 6.29167 3.6875 6.25 3.72917C6.20833 3.77083 6.16667 3.79167 6.125 3.79167H4.27083C4.21354 3.79167 4.16667 3.77083 4.125 3.72917C4.09375 3.6875 4.08333 3.64583 4.08333 3.60417V2.95833C4.08333 2.65625 3.98958 2.40625 3.8125 2.20833C3.64583 2 3.42187 1.89583 3.14583 1.89583C2.86458 1.89583 2.64583 2 2.47917 2.20833C2.3125 2.40625 2.22917 2.65625 2.22917 2.95833V8.33333C2.22917 8.65625 2.3125 8.91146 2.47917 9.10417C2.64583 9.30208 2.86458 9.39583 3.14583 9.39583C3.42187 9.39583 3.64583 9.30208 3.8125 9.10417C3.98958 8.91146 4.08333 8.65625 4.08333 8.33333V7.08333C4.08333 7.03125 4.05208 7 4 7H3.29167C3.25 7 3.20833 6.98958 3.16667 6.95833C3.125 6.91667 3.10417 6.86979 3.10417 6.8125V5.39583C3.10417 5.34375 3.125 5.30208 3.16667 5.27083C3.20833 5.22917 3.25 5.20833 3.29167 5.20833H6.125C6.16667 5.20833 6.20833 5.22917 6.25 5.27083C6.29167 5.30208 6.3125 5.34375 6.3125 5.39583V8.33333C6.3125 9.23958 6.02083 9.95833 5.4375 10.5C4.85417 11.0417 4.08854 11.3125 3.14583 11.3125Z" fill="#D72333"/>
</svg>
