<svg width="27" height="38" viewBox="0 0 27 38" fill="none" xmlns="http://www.w3.org/2000/svg">
<mask id="mask0_25_20052" style="mask-type:luminance" maskUnits="userSpaceOnUse" x="0" y="0" width="27" height="38">
<path d="M26.6667 0H0V37.3333H26.6667V0Z" fill="white"/>
</mask>
<g mask="url(#mask0_25_20052)">
<path d="M5.52588 5.20231C5.60921 5.17627 5.68213 5.16064 5.75505 5.16064H7.67171C7.7238 5.16064 7.76546 5.18148 7.79671 5.22314C7.83838 5.25439 7.85921 5.29606 7.85921 5.34814V16.0565C7.85921 16.1138 7.83838 16.1606 7.79671 16.2023C7.76546 16.2336 7.7238 16.244 7.67171 16.244H5.81755C5.77588 16.244 5.73421 16.2336 5.69255 16.2023C5.65088 16.1606 5.63005 16.1138 5.63005 16.0565V7.41064C5.63005 7.36898 5.60921 7.34814 5.56755 7.34814L4.33838 7.49398H4.29671C4.18213 7.49398 4.13005 7.43148 4.13005 7.30648L4.08838 5.95231C4.08838 5.84294 4.13525 5.76481 4.23421 5.72314L5.52588 5.20231Z" fill="#D72333"/>
<path d="M10.2056 16.3062C9.84098 16.3062 9.54411 16.1916 9.30973 15.952C9.07015 15.7176 8.95557 15.4207 8.95557 15.0562C8.95557 14.6968 9.06494 14.3999 9.2889 14.1603C9.52327 13.9259 9.83057 13.8062 10.2056 13.8062C10.5649 13.8062 10.8618 13.9259 11.1014 14.1603C11.3358 14.3999 11.4556 14.6968 11.4556 15.0562C11.4556 15.4207 11.3358 15.7176 11.1014 15.952C10.8618 16.1916 10.5649 16.3062 10.2056 16.3062Z" fill="#D72333"/>
<path d="M18.5041 11.8481C18.5457 12.1138 18.5666 12.4263 18.5666 12.7856C18.5666 13.0252 18.5509 13.3429 18.5249 13.744C18.4937 14.5773 18.2124 15.2231 17.6707 15.6815C17.1395 16.1398 16.4259 16.369 15.5249 16.369C14.6759 16.369 13.9884 16.1606 13.4624 15.744C12.9468 15.3169 12.6395 14.6815 12.5457 13.8481C12.5041 13.6294 12.4832 13.3377 12.4832 12.9731L12.4624 7.86898C12.4624 7.0096 12.7332 6.3221 13.2749 5.80648C13.827 5.29606 14.5666 5.03564 15.4832 5.03564C16.3426 5.03564 17.0457 5.29606 17.5874 5.80648C18.1291 6.3221 18.3999 7.0096 18.3999 7.86898V8.34814C18.3999 8.40544 18.3791 8.45231 18.3374 8.49398C18.3062 8.52523 18.2645 8.53564 18.2124 8.53564H16.3582C16.3009 8.53564 16.2541 8.52523 16.2124 8.49398C16.1812 8.45231 16.1707 8.40544 16.1707 8.34814V7.99398C16.1707 7.71794 16.0978 7.48356 15.9624 7.28564C15.8218 7.09294 15.6603 6.99398 15.4832 6.99398C15.2593 6.99398 15.0718 7.09294 14.9207 7.28564C14.7645 7.46794 14.6916 7.70231 14.6916 7.99398V9.59814C14.6916 9.62939 14.702 9.65023 14.7332 9.66064C14.7593 9.66064 14.7801 9.65023 14.7957 9.61898C15.1395 9.32731 15.5353 9.18148 15.9832 9.18148C16.7176 9.18148 17.3062 9.42627 17.7541 9.91064C18.2124 10.4002 18.4624 11.0461 18.5041 11.8481ZM16.2749 13.5773C16.2853 13.0669 16.2957 12.7544 16.2957 12.6398C16.2957 12.3481 16.2749 12.0252 16.2332 11.6606C16.202 11.4106 16.1291 11.2179 16.0041 11.0773C15.8791 10.9419 15.7124 10.869 15.5041 10.869C15.2957 10.869 15.1187 10.9471 14.9832 11.0981C14.8582 11.2388 14.7801 11.4315 14.7541 11.6815C14.7124 12.0981 14.6916 12.4211 14.6916 12.6398C14.6916 12.8898 14.7124 13.2179 14.7541 13.619C14.7801 13.9002 14.8582 14.1138 14.9832 14.2648C15.1187 14.4054 15.2957 14.4731 15.5041 14.4731C15.7124 14.4731 15.8791 14.4002 16.0041 14.244C16.1395 14.0773 16.2332 13.8586 16.2749 13.5773Z" fill="#D72333"/>
<mask id="mask1_25_20052" style="mask-type:luminance" maskUnits="userSpaceOnUse" x="18" y="4" width="9" height="14">
<path d="M18.667 4H26.4743V17.3333H18.667V4Z" fill="white"/>
</mask>
<g mask="url(#mask1_25_20052)">
<path d="M22.506 16.4103C21.5737 16.4103 20.8237 16.1187 20.256 15.5353C19.6831 14.952 19.4019 14.1812 19.4019 13.2228V8.18115C19.4019 7.22282 19.6831 6.45199 20.256 5.86865C20.8237 5.28532 21.5737 4.99365 22.506 4.99365C23.1154 4.99365 23.6571 5.12907 24.131 5.38949C24.5998 5.65511 24.9644 6.03011 25.2144 6.51449C25.4748 7.00407 25.6102 7.55615 25.6102 8.18115V13.2228C25.6102 13.8478 25.4748 14.4051 25.2144 14.8895C24.9644 15.3791 24.5998 15.7541 24.131 16.0145C23.6571 16.2749 23.1154 16.4103 22.506 16.4103ZM22.506 14.4937C22.7664 14.4937 22.9748 14.3895 23.131 14.1812C23.2977 13.9728 23.381 13.6968 23.381 13.3478V8.05615C23.381 7.7124 23.2977 7.43115 23.131 7.22282C22.9748 7.01449 22.7664 6.91032 22.506 6.91032C22.2404 6.91032 22.0269 7.01449 21.8602 7.22282C21.7039 7.43115 21.631 7.7124 21.631 8.05615V13.3478C21.631 13.6968 21.7039 13.9728 21.8602 14.1812C22.0269 14.3895 22.2404 14.4937 22.506 14.4937Z" fill="#D72333"/>
</g>
<path d="M7.87874 28.9364C7.93083 29.3426 7.96208 29.728 7.96208 30.103C7.96208 30.577 7.94124 30.9728 7.89958 31.2905C7.81624 32.0562 7.52458 32.6603 7.02458 33.103C6.52458 33.5353 5.84749 33.7489 5.00374 33.7489C4.12874 33.7489 3.40999 33.5197 2.85791 33.0614C2.31624 32.5926 2.02458 31.9728 1.98291 31.2072C1.94124 30.9155 1.92041 30.6134 1.92041 30.2905C1.92041 30.1655 1.98812 30.103 2.12874 30.103H3.98291C4.10791 30.103 4.17041 30.1655 4.17041 30.2905C4.17041 30.5301 4.18083 30.7489 4.21208 30.9572C4.23812 31.2384 4.32145 31.452 4.46208 31.603C4.59749 31.7593 4.77978 31.8322 5.00374 31.8322C5.21208 31.8322 5.38395 31.7645 5.52458 31.6239C5.65999 31.4728 5.75374 31.2697 5.79541 31.0197C5.82145 30.6447 5.83708 30.2645 5.83708 29.8739C5.83708 29.3739 5.80583 28.9884 5.75374 28.7072C5.71208 28.4572 5.61833 28.2697 5.48291 28.1447C5.35791 28.0093 5.19645 27.9364 5.00374 27.9364C4.84749 27.9364 4.69124 28.0093 4.52458 28.1447C4.46728 28.1864 4.42562 28.2072 4.39958 28.2072C4.35791 28.2072 4.30583 28.1812 4.25374 28.1239L3.31624 27.1655C3.27458 27.1239 3.25374 27.077 3.25374 27.0197C3.25374 26.978 3.26416 26.9364 3.29541 26.8947L5.21208 24.5405C5.22249 24.5145 5.22249 24.4937 5.21208 24.478C5.21208 24.452 5.19645 24.4364 5.17041 24.4364H2.31624C2.25895 24.4364 2.21208 24.4259 2.17041 24.3947C2.13916 24.353 2.12874 24.3062 2.12874 24.2489V22.728C2.12874 22.6759 2.13916 22.6343 2.17041 22.603C2.21208 22.5614 2.25895 22.5405 2.31624 22.5405H7.75374C7.80583 22.5405 7.84749 22.5614 7.87874 22.603C7.92041 22.6343 7.94124 22.6759 7.94124 22.728V24.3114C7.94124 24.3947 7.90999 24.478 7.85791 24.5614L6.08708 26.7905C6.08708 26.8062 6.08708 26.827 6.08708 26.853C6.08708 26.8687 6.09229 26.8739 6.10791 26.8739C6.57666 26.9155 6.97249 27.1343 7.29541 27.5197C7.61312 27.8947 7.80583 28.3687 7.87874 28.9364Z" fill="#D72333"/>
<path d="M10.2339 33.686C9.8693 33.686 9.57243 33.5715 9.33805 33.3319C9.09847 33.0975 8.98389 32.8006 8.98389 32.436C8.98389 32.0767 9.09326 31.7798 9.31722 31.5402C9.55159 31.3058 9.85889 31.186 10.2339 31.186C10.5933 31.186 10.8901 31.3058 11.1297 31.5402C11.3641 31.7798 11.4839 32.0767 11.4839 32.436C11.4839 32.8006 11.3641 33.0975 11.1297 33.3319C10.8901 33.5715 10.5933 33.686 10.2339 33.686Z" fill="#D72333"/>
<path d="M15.1157 31.603C15.0845 31.6343 15.0793 31.6603 15.0949 31.6864C15.1053 31.702 15.1261 31.7072 15.1574 31.7072H18.4699C18.522 31.7072 18.5636 31.728 18.5949 31.7697C18.6366 31.8009 18.6574 31.8426 18.6574 31.8947V33.4364C18.6574 33.4937 18.6366 33.5405 18.5949 33.5822C18.5636 33.6134 18.522 33.6239 18.4699 33.6239H12.6157C12.5584 33.6239 12.5116 33.6134 12.4699 33.5822C12.4386 33.5405 12.4282 33.4937 12.4282 33.4364V31.8322C12.4282 31.7384 12.4491 31.6603 12.4907 31.603C12.9178 31.0353 13.2199 30.6551 13.3866 30.4572C14.3136 29.2645 14.9751 28.3634 15.3657 27.7489C15.9334 26.8478 16.2199 26.0822 16.2199 25.4572C16.2199 25.0978 16.1418 24.8218 15.9907 24.6239C15.8501 24.4312 15.6626 24.3322 15.4282 24.3322C15.1782 24.3322 14.9751 24.4312 14.8241 24.6239C14.6834 24.8218 14.6209 25.0718 14.6366 25.3739V26.0197C14.6366 26.077 14.6157 26.1239 14.5741 26.1655C14.5428 26.1968 14.5011 26.2072 14.4491 26.2072H12.5532C12.5116 26.2072 12.4699 26.1968 12.4282 26.1655C12.3866 26.1239 12.3657 26.077 12.3657 26.0197V25.2697C12.4074 24.4103 12.7199 23.7228 13.3032 23.2072C13.8866 22.6812 14.6209 22.4155 15.5116 22.4155C16.397 22.4155 17.1157 22.6968 17.6574 23.2489C18.2095 23.8062 18.4907 24.5509 18.4907 25.478C18.4907 26.0197 18.397 26.5405 18.2199 27.0405C18.0532 27.5405 17.7668 28.077 17.3657 28.6447C17.0741 29.077 16.5636 29.7489 15.8449 30.6655L15.1157 31.603Z" fill="#D72333"/>
<mask id="mask2_25_20052" style="mask-type:luminance" maskUnits="userSpaceOnUse" x="18" y="21" width="9" height="14">
<path d="M18.667 21.3335H26.4743V34.6668H18.667V21.3335Z" fill="white"/>
</mask>
<g mask="url(#mask2_25_20052)">
<path d="M22.5026 33.7907C21.5703 33.7907 20.8203 33.499 20.2526 32.9157C19.6797 32.3324 19.3984 31.5615 19.3984 30.6032V25.5615C19.3984 24.6032 19.6797 23.8324 20.2526 23.249C20.8203 22.6657 21.5703 22.374 22.5026 22.374C23.112 22.374 23.6536 22.5094 24.1276 22.7699C24.5964 23.0355 24.9609 23.4105 25.2109 23.8949C25.4714 24.3844 25.6068 24.9365 25.6068 25.5615V30.6032C25.6068 31.2282 25.4714 31.7855 25.2109 32.2699C24.9609 32.7594 24.5964 33.1344 24.1276 33.3949C23.6536 33.6553 23.112 33.7907 22.5026 33.7907ZM22.5026 31.874C22.763 31.874 22.9714 31.7699 23.1276 31.5615C23.2943 31.3532 23.3776 31.0771 23.3776 30.7282V25.4365C23.3776 25.0928 23.2943 24.8115 23.1276 24.6032C22.9714 24.3949 22.763 24.2907 22.5026 24.2907C22.237 24.2907 22.0234 24.3949 21.8568 24.6032C21.7005 24.8115 21.6276 25.0928 21.6276 25.4365V30.7282C21.6276 31.0771 21.7005 31.3532 21.8568 31.5615C22.0234 31.7699 22.237 31.874 22.5026 31.874Z" fill="#D72333"/>
</g>
</g>
</svg>
