<svg width="7" height="12" viewBox="0 0 7 12" fill="none" xmlns="http://www.w3.org/2000/svg">
<path d="M6.04167 6.66667C6.08333 7.07292 6.10417 7.39583 6.10417 7.64583C6.10417 7.99479 6.08854 8.32813 6.0625 8.64583C6.02083 9.46875 5.72917 10.1042 5.1875 10.5625C4.65625 11.0104 3.94271 11.2292 3.04167 11.2292C2.19271 11.2292 1.50521 11.0208 0.979167 10.6042C0.463541 10.1771 0.156251 9.54167 0.0625 8.70833L0 8.27083C0 8.13542 0.067708 8.0625 0.208333 8.0625H2.0625C2.1875 8.0625 2.25521 8.13542 2.27083 8.27083C2.27083 8.32813 2.27604 8.41146 2.29167 8.52083C2.38542 9.05208 2.63542 9.3125 3.04167 9.3125C3.25 9.3125 3.41667 9.24479 3.54167 9.10417C3.67708 8.95313 3.77083 8.75 3.8125 8.5C3.85417 8.22396 3.875 7.93229 3.875 7.625C3.875 7.40625 3.85417 7.13542 3.8125 6.8125C3.75521 6.57813 3.65625 6.39583 3.52083 6.27083C3.39583 6.13542 3.23437 6.0625 3.04167 6.0625C2.63542 6.0625 2.38021 6.25 2.27083 6.625C2.22917 6.73958 2.15625 6.79167 2.0625 6.79167H0.1875C0.130208 6.79167 0.0833333 6.78125 0.0416667 6.75C0.010416 6.70833 0 6.66146 0 6.60417V0.1875C0 0.135417 0.010416 0.0937507 0.0416667 0.0625C0.0833333 0.0208333 0.130208 0 0.1875 0H5.79167C5.84375 0 5.88542 0.0208333 5.91667 0.0625C5.95833 0.0937507 5.97917 0.135417 5.97917 0.1875V1.72917C5.97917 1.77083 5.95833 1.8125 5.91667 1.85417C5.88542 1.89583 5.84375 1.91667 5.79167 1.91667H2.3125C2.25521 1.91667 2.22917 1.94792 2.22917 2V4.66667C2.22917 4.69792 2.23437 4.71875 2.25 4.72917C2.27604 4.72917 2.30208 4.71875 2.33333 4.6875C2.51042 4.51042 2.71875 4.36979 2.95833 4.27083C3.20833 4.17708 3.46354 4.125 3.72917 4.125C4.40625 4.125 4.94792 4.34896 5.35417 4.79167C5.77083 5.23958 6 5.86458 6.04167 6.66667Z" fill="#D72333"/>
</svg>
