<svg width="7" height="12" viewBox="0 0 7 12" fill="none" xmlns="http://www.w3.org/2000/svg">
<path d="M3.10417 11.2292C2.17187 11.2292 1.42187 10.9583 0.854167 10.4167C0.281251 9.875 0 9.16146 0 8.27083V2.95833C0 2.05729 0.281251 1.34375 0.854167 0.8125C1.42187 0.270833 2.17187 0 3.10417 0C4.04688 0 4.80208 0.270833 5.375 0.8125C5.95833 1.35417 6.25 2.07813 6.25 2.97917V3.58333C6.25 3.625 6.22917 3.66667 6.1875 3.70833C6.15625 3.75 6.11458 3.77083 6.0625 3.77083H4.22917C4.17188 3.77083 4.125 3.75 4.08333 3.70833C4.05208 3.66667 4.04167 3.625 4.04167 3.58333V2.9375C4.04167 2.63542 3.95833 2.38542 3.79167 2.1875C3.625 1.99479 3.39583 1.89583 3.10417 1.89583C2.83854 1.89583 2.625 1.99479 2.45833 2.1875C2.29167 2.38542 2.20833 2.63542 2.20833 2.9375V8.27083C2.20833 8.59375 2.29167 8.84896 2.45833 9.04167C2.625 9.23958 2.83854 9.33333 3.10417 9.33333C3.39583 9.33333 3.625 9.23958 3.79167 9.04167C3.95833 8.84896 4.04167 8.59375 4.04167 8.27083V7.02083C4.04167 6.96875 4.01042 6.9375 3.95833 6.9375H3.27083C3.21354 6.9375 3.16667 6.92708 3.125 6.89583C3.09375 6.85417 3.08333 6.80729 3.08333 6.75V5.35417C3.08333 5.3125 3.09375 5.27083 3.125 5.22917C3.16667 5.1875 3.21354 5.16667 3.27083 5.16667H6.0625C6.11458 5.16667 6.15625 5.1875 6.1875 5.22917C6.22917 5.27083 6.25 5.3125 6.25 5.35417V8.27083C6.25 9.16146 5.95833 9.875 5.375 10.4167C4.80208 10.9583 4.04688 11.2292 3.10417 11.2292Z" fill="#D72333"/>
</svg>
