<svg width="8" height="12" viewBox="0 0 8 12" fill="none" xmlns="http://www.w3.org/2000/svg">
<path d="M7.0625 10.9167C7.08854 10.9323 7.10417 10.9583 7.10417 11C7.10417 11.0312 7.08854 11.0573 7.0625 11.0833C7.04688 11.099 7.02083 11.1042 6.97917 11.1042H6.125C6.04167 11.1042 5.97917 11.0729 5.9375 11L5.29167 10.0625C5.29167 10.0521 5.27604 10.0417 5.25 10.0417C5.23438 10.0417 5.21875 10.0521 5.20833 10.0625C4.81771 10.4792 4.41667 10.7865 4 10.9792C3.59375 11.1562 3.13542 11.25 2.625 11.25C1.81771 11.25 1.17708 11.0312 0.708333 10.5833C0.234375 10.125 0 9.48958 0 8.66667C0 7.95833 0.166667 7.34896 0.5 6.83333C0.833333 6.32292 1.29167 5.8125 1.875 5.3125C1.90104 5.30208 1.90625 5.27083 1.89583 5.22917C1.52083 4.67708 1.23958 4.24479 1.0625 3.9375C0.880208 3.61979 0.760417 3.35417 0.708333 3.14583C0.651041 2.92708 0.625 2.68229 0.625 2.41667C0.625 1.68229 0.833333 1.09896 1.25 0.666667C1.66667 0.223959 2.21354 0 2.89583 0C3.57292 0 4.13021 0.223959 4.5625 0.666667C5.00521 1.11458 5.22917 1.6875 5.22917 2.39583C5.22917 3.03646 5.0625 3.58333 4.72917 4.04167C4.40625 4.5 3.94271 4.97917 3.33333 5.47917C3.30208 5.49479 3.30208 5.52083 3.33333 5.5625C3.75 6.14583 4.05208 6.59375 4.25 6.89583L5.22917 8.27083C5.22917 8.28646 5.23438 8.29167 5.25 8.29167C5.27604 8.29167 5.29688 8.28646 5.3125 8.27083C5.46354 8.0625 5.71354 7.64063 6.0625 7C6.08854 6.95833 6.125 6.9375 6.16667 6.9375C6.20833 6.92708 6.25 6.92708 6.29167 6.9375L6.875 7.29167C6.95833 7.34896 6.97917 7.42708 6.9375 7.52083C6.60417 8.13542 6.26042 8.68229 5.91667 9.16667C5.90104 9.19792 5.90104 9.22396 5.91667 9.25L7.0625 10.9167ZM2.9375 1.02083C2.57292 1.02083 2.28125 1.15625 2.0625 1.41667C1.83854 1.66667 1.72917 2.01042 1.72917 2.4375C1.72917 2.72917 1.78125 3.01042 1.89583 3.27083C2.00521 3.53646 2.26042 3.97396 2.66667 4.58333C2.67708 4.625 2.70833 4.63542 2.75 4.60417C3.17708 4.21875 3.51042 3.85417 3.75 3.52083C3.98437 3.1875 4.10417 2.8125 4.10417 2.39583C4.10417 1.97917 3.98958 1.64583 3.77083 1.39583C3.5625 1.14583 3.28125 1.02083 2.9375 1.02083ZM2.72917 10.2708C3.07292 10.2708 3.39583 10.1875 3.6875 10.0208C3.98958 9.84375 4.30208 9.57813 4.625 9.22917C4.65104 9.1875 4.65104 9.15625 4.625 9.125L3.875 8.04167L2.5625 6.20833C2.54687 6.18229 2.52604 6.18229 2.5 6.20833C2.04167 6.59896 1.69271 6.97917 1.45833 7.35417C1.21875 7.72917 1.10417 8.15625 1.10417 8.625C1.10417 9.11458 1.23958 9.51042 1.52083 9.8125C1.8125 10.1198 2.21354 10.2708 2.72917 10.2708Z" fill="#D72333"/>
</svg>
