<svg width="5" height="8" viewBox="0 0 5 8" fill="none" xmlns="http://www.w3.org/2000/svg">
<path d="M2.75 0C3.375 0 3.85417 0.218751 4.1875 0.645833C4.53125 1.07813 4.70833 1.67708 4.70833 2.4375V7.70833C4.70833 7.80729 4.65625 7.85417 4.5625 7.85417H3.77083C3.67187 7.85417 3.625 7.80729 3.625 7.70833V2.54167C3.625 2.04167 3.51042 1.65625 3.29167 1.375C3.06771 1.09896 2.76042 0.958333 2.375 0.958333C1.96875 0.958333 1.65104 1.11458 1.41667 1.41667C1.19271 1.70833 1.08333 2.10417 1.08333 2.60417V7.70833C1.08333 7.80729 1.03125 7.85417 0.9375 7.85417H0.145833C0.0468747 7.85417 0 7.80729 0 7.70833V0.270833C0 0.177084 0.0468747 0.125 0.145833 0.125H0.9375C1.03125 0.125 1.08333 0.177084 1.08333 0.270833V0.75C1.08333 0.781249 1.08854 0.802084 1.10417 0.8125C1.13021 0.8125 1.15104 0.802084 1.16667 0.770833C1.34375 0.520833 1.57292 0.333333 1.85417 0.208333C2.13021 0.072916 2.42708 0 2.75 0Z" fill="#D72333"/>
</svg>
