<svg width="6" height="11" viewBox="0 0 6 11" fill="none" xmlns="http://www.w3.org/2000/svg">
<path d="M5.45833 1.375C5.45833 1.43229 5.4375 1.47917 5.39583 1.52083C5.36458 1.55208 5.32292 1.5625 5.27083 1.5625H1.89583C1.83854 1.5625 1.8125 1.59375 1.8125 1.64583V4.60417C1.8125 4.66146 1.83854 4.6875 1.89583 4.6875H3.89583C3.94792 4.6875 3.98958 4.70833 4.02083 4.75C4.0625 4.78125 4.08333 4.82292 4.08333 4.875V6.08333C4.08333 6.14063 4.0625 6.1875 4.02083 6.22917C3.98958 6.26042 3.94792 6.27083 3.89583 6.27083H1.89583C1.83854 6.27083 1.8125 6.30208 1.8125 6.35417V9.33333C1.8125 9.39063 1.83854 9.41667 1.89583 9.41667H5.27083C5.32292 9.41667 5.36458 9.4375 5.39583 9.47917C5.4375 9.51042 5.45833 9.55208 5.45833 9.60417V10.7917C5.45833 10.849 5.4375 10.8958 5.39583 10.9375C5.36458 10.9688 5.32292 10.9792 5.27083 10.9792H0.1875C0.130208 10.9792 0.0833333 10.9688 0.0416667 10.9375C0.0104173 10.8958 0 10.849 0 10.7917V0.1875C0 0.135417 0.0104173 0.0937507 0.0416667 0.0625C0.0833333 0.0208333 0.130208 0 0.1875 0H5.27083C5.32292 0 5.36458 0.0208333 5.39583 0.0625C5.4375 0.0937507 5.45833 0.135417 5.45833 0.1875V1.375Z" fill="white"/>
</svg>
