<svg width="11" height="12" viewBox="0 0 11 12" fill="none" xmlns="http://www.w3.org/2000/svg">
<path d="M2.35417 11.0625C2.23958 11.0625 2.17187 11.0104 2.14583 10.8958L0.0208333 0.208333L0 0.145833C0 0.052084 0.0625 0 0.1875 0H2.10417C2.22917 0 2.29687 0.057292 2.3125 0.166667L3.20833 5.85417C3.21875 5.89583 3.23437 5.91667 3.25 5.91667C3.27604 5.91667 3.29687 5.89583 3.3125 5.85417L4.16667 0.166667C4.17708 0.057292 4.25 0 4.375 0H5.95833C6.08333 0 6.15104 0.057292 6.16667 0.166667L7.10417 5.85417C7.11458 5.89583 7.13021 5.91667 7.14583 5.91667C7.17188 5.91667 7.19271 5.89583 7.20833 5.85417L8 0.166667C8.01042 0.057292 8.08333 0 8.20833 0H10.0833C10.2188 0 10.276 0.072916 10.25 0.208333L8.25 10.8958C8.23438 11.0104 8.16667 11.0625 8.04167 11.0625H6.33333C6.20833 11.0625 6.13542 11.0104 6.125 10.8958L5.1875 5.04167C5.17188 5 5.15104 4.97917 5.125 4.97917C5.10938 4.97917 5.10417 5 5.10417 5.04167L4.25 10.8958C4.25 11.0104 4.17708 11.0625 4.04167 11.0625H2.35417Z" fill="#D72333"/>
</svg>
