<svg width="8" height="8" viewBox="0 0 8 8" fill="none" xmlns="http://www.w3.org/2000/svg">
<path d="M0.770833 7.58333C0.6875 7.58333 0.645833 7.54167 0.645833 7.45833L0 0.166667C0 0.057292 0.0468747 0 0.145833 0H0.854167C0.947916 0 1 0.0416667 1 0.125L1.35417 5.85417C1.35417 5.88542 1.35937 5.89583 1.375 5.89583C1.38542 5.89583 1.39583 5.88542 1.39583 5.85417L3.16667 0.125C3.20833 0.0416667 3.27083 0 3.35417 0H4.02083C4.10417 0 4.14583 0.0416667 4.14583 0.125L4.52083 5.85417C4.53125 5.88542 4.54167 5.89583 4.54167 5.89583C4.55208 5.89583 4.56771 5.88542 4.58333 5.85417L6.375 0.125C6.38542 0.0416667 6.44271 0 6.54167 0H7.25C7.34375 0 7.38021 0.057292 7.35417 0.166667L4.91667 7.45833C4.88542 7.54167 4.82292 7.58333 4.72917 7.58333H4C3.90104 7.58333 3.85417 7.54167 3.85417 7.45833L3.4375 1.95833C3.4375 1.93229 3.42708 1.91667 3.41667 1.91667C3.41667 1.91667 3.40625 1.93229 3.39583 1.95833L1.6875 7.45833C1.65625 7.54167 1.60417 7.58333 1.52083 7.58333H0.770833Z" fill="#D51224"/>
</svg>
