<svg width="10" height="12" viewBox="0 0 10 12" fill="none" xmlns="http://www.w3.org/2000/svg">
<path d="M7.9375 7.79167C7.98958 7.58333 8.10417 7.4375 8.27083 7.35417C8.4375 7.26042 8.60417 7.20833 8.77083 7.20833C8.97917 7.20833 9.16667 7.26563 9.33333 7.375C9.51042 7.48958 9.60417 7.64063 9.60417 7.83333C9.60417 7.90625 9.58854 7.97917 9.5625 8.0625C9.22917 9.07813 8.75 9.90625 8.125 10.5417C7.5 11.1667 6.73958 11.4792 5.85417 11.4792C5.21354 11.4792 4.72917 11.3229 4.39583 11C4.07292 10.6823 3.91667 10.2656 3.91667 9.75C3.91667 9.41667 3.98437 9.07292 4.125 8.70833C4.15104 8.64063 4.1875 8.55729 4.22917 8.45833C4.27083 8.36458 4.26042 8.32813 4.20833 8.35417C4.15104 8.36979 4.06771 8.39583 3.95833 8.4375C3.85937 8.46875 3.75 8.47917 3.625 8.47917C3.51042 8.47917 3.38542 8.45833 3.25 8.41667C3.10937 8.375 2.96875 8.28646 2.83333 8.14583L2.02083 10.6667C1.9375 10.9323 1.78125 11.1354 1.5625 11.2708C1.33854 11.4115 1.10937 11.4792 0.875 11.4792C0.651042 11.4792 0.453125 11.4167 0.270833 11.2917C0.0937507 11.1667 0 10.9896 0 10.75C0 10.6667 0.0156253 10.5781 0.0416667 10.4792L3.35417 0.916667C3.46354 0.598959 3.60937 0.369792 3.79167 0.229167C3.96875 0.0781253 4.17188 0 4.39583 0C4.61458 0 4.81771 0.0833333 5 0.25C5.19271 0.406249 5.29167 0.625 5.29167 0.916667C5.29167 1 5.27604 1.08333 5.25 1.16667C5.23438 1.25 5.20833 1.34375 5.16667 1.4375L4.35417 3.8125C4.47917 3.77083 4.58854 3.74479 4.6875 3.72917C4.79688 3.71875 4.91667 3.70833 5.04167 3.70833C5.42708 3.70833 5.77083 3.80208 6.0625 3.97917C6.35417 4.16146 6.58333 4.39583 6.75 4.6875C6.91667 4.97917 7 5.29167 7 5.625C7 5.75 6.98438 5.875 6.95833 6C6.94271 6.11458 6.90625 6.22917 6.85417 6.35417C6.75521 6.61979 6.625 6.83333 6.45833 7C6.30208 7.16667 6.13542 7.30729 5.95833 7.41667C6.125 7.59896 6.20833 7.86458 6.20833 8.20833C6.20833 8.375 6.1875 8.53125 6.14583 8.66667C6.11458 8.79167 6.05208 9.01042 5.95833 9.3125C5.90104 9.45313 5.875 9.57813 5.875 9.6875C5.875 9.74479 5.89583 9.79167 5.9375 9.83333C5.97917 9.875 6.04167 9.89583 6.125 9.89583C6.46875 9.89583 6.79688 9.71875 7.10417 9.35417C7.42188 8.97917 7.69792 8.45833 7.9375 7.79167ZM3.33333 6.66667C3.5 6.58333 3.71354 6.54167 3.97917 6.54167C4.04688 6.54167 4.11458 6.55208 4.1875 6.5625C4.27083 6.5625 4.35417 6.57813 4.4375 6.60417C4.58854 6.5625 4.72917 6.48958 4.85417 6.375C4.97917 6.26563 5.07292 6.13542 5.14583 5.97917C5.17188 5.91146 5.1875 5.82813 5.1875 5.72917C5.1875 5.59375 5.13021 5.47917 5.02083 5.39583C4.90625 5.3125 4.77083 5.27083 4.60417 5.27083C4.40625 5.27083 4.21875 5.33333 4.04167 5.45833C3.85937 5.58333 3.70833 5.76563 3.58333 6L3.33333 6.66667Z" fill="#D72333"/>
</svg>
