<svg width="13" height="20" viewBox="0 0 13 20" fill="none" xmlns="http://www.w3.org/2000/svg">
<path d="M0.333333 19.5625C0.234375 19.5625 0.151041 19.5365 0.0833333 19.4792C0.0260413 19.4115 0 19.3281 0 19.2292V0.333333C0 0.25 0.0260413 0.177084 0.0833333 0.104167C0.151041 0.0364587 0.234375 0 0.333333 0H3.60417C3.69792 0 3.77604 0.0364587 3.83333 0.104167C3.90104 0.177084 3.9375 0.25 3.9375 0.333333V7.375C3.9375 7.45833 3.95833 7.51042 4 7.52083C4.05208 7.52083 4.08854 7.48958 4.10417 7.41667L7.70833 0.25C7.80208 0.0833333 7.9375 0 8.10417 0H11.5625C11.6979 0 11.7917 0.0364587 11.8333 0.104167C11.875 0.177084 11.8646 0.270833 11.8125 0.395833L7.6875 8.4375C7.65625 8.52083 7.64583 8.57813 7.64583 8.60417L12.0417 19.1667C12.0521 19.2083 12.0625 19.2656 12.0625 19.3333C12.0625 19.4896 11.9688 19.5625 11.7917 19.5625H8.29167C8.09375 19.5625 7.96875 19.4792 7.91667 19.3125L5 12C4.98438 11.9479 4.95833 11.9271 4.91667 11.9375C4.875 11.9375 4.83854 11.9583 4.8125 12L4 13.4375C3.95833 13.5208 3.9375 13.5781 3.9375 13.6042V19.2292C3.9375 19.3281 3.90104 19.4115 3.83333 19.4792C3.77604 19.5365 3.69792 19.5625 3.60417 19.5625H0.333333Z" fill="#D72333"/>
</svg>
