<svg width="17" height="19" viewBox="0 0 17 19" fill="none" xmlns="http://www.w3.org/2000/svg">
<path d="M0 18.5833V16.3125L0.916667 16.2292C1.45833 16.1771 1.72917 15.9167 1.72917 15.4583V2.45833L0.145833 2.375V0H7.77083C9.92188 0 11.5729 0.406251 12.7292 1.20833C13.8958 2.01563 14.4792 3.32813 14.4792 5.14583C14.4792 6.41146 14.1458 7.45313 13.4792 8.27083C12.8125 9.09375 12.026 9.6875 11.125 10.0625C11.7917 10.3021 12.3177 10.8698 12.7083 11.7708L14.7292 16.1458L16.3125 16.2083V18.5833H9.41667V16.3125L10.2292 16.2292C10.6562 16.1771 10.875 16.0104 10.875 15.7292C10.875 15.6198 10.8333 15.4896 10.75 15.3333L9.4375 12.5417C9.22917 12.0833 9 11.7604 8.75 11.5625C8.5 11.3698 8.14583 11.2708 7.6875 11.2708H5.14583V16.125L6.95833 16.2083V18.5833H0ZM5.14583 8.60417H7.5625C9.85417 8.60417 11 7.58333 11 5.54167C11 4.36458 10.6927 3.59896 10.0833 3.25C9.48438 2.89063 8.52083 2.70833 7.1875 2.70833H5.14583V8.60417Z" fill="#D72333"/>
</svg>
