<svg width="6" height="12" viewBox="0 0 6 12" fill="none" xmlns="http://www.w3.org/2000/svg">
<path d="M0.145833 11.1667C0.0468747 11.1667 0 11.1146 0 11V0.145833C0 0.0520827 0.0468747 0 0.145833 0H0.958333C1.06771 0 1.125 0.0520827 1.125 0.145833V6.5625C1.125 6.59375 1.13021 6.61458 1.14583 6.625C1.17187 6.625 1.19271 6.61979 1.20833 6.60417L3.60417 3.1875C3.64583 3.11979 3.70833 3.08333 3.79167 3.08333H4.625C4.67708 3.08333 4.71875 3.10417 4.75 3.14583C4.77604 3.1875 4.76042 3.23958 4.70833 3.29167L3.14583 5.54167C3.10417 5.58333 3.09375 5.61979 3.125 5.64583L5 11L5.02083 11.0625C5.02083 11.1354 4.96875 11.1667 4.875 11.1667H4.04167C3.94271 11.1667 3.875 11.125 3.83333 11.0417L2.41667 6.60417C2.40104 6.53646 2.375 6.53125 2.33333 6.58333L1.16667 8.25C1.13542 8.26563 1.125 8.29167 1.125 8.33333V11C1.125 11.1146 1.06771 11.1667 0.958333 11.1667H0.145833Z" fill="#D72333"/>
</svg>
