<svg width="4" height="12" viewBox="0 0 4 12" fill="none" xmlns="http://www.w3.org/2000/svg">
<path d="M3.04167 0.958333C2.65104 0.958333 2.36458 1.09375 2.1875 1.35417C2.02083 1.61979 1.9375 2.03646 1.9375 2.60417V3.08333C1.9375 3.125 1.95833 3.14583 2 3.14583H3.20833C3.31771 3.14583 3.375 3.20313 3.375 3.3125V3.8125C3.375 3.92708 3.31771 3.97917 3.20833 3.97917H2C1.95833 3.97917 1.9375 4 1.9375 4.04167V10.9167C1.9375 11.0312 1.88542 11.0833 1.79167 11.0833H1C0.901041 11.0833 0.854167 11.0312 0.854167 10.9167V4.04167C0.854167 4 0.833333 3.97917 0.791667 3.97917H0.166667C0.052084 3.97917 0 3.92708 0 3.8125V3.3125C0 3.20313 0.052084 3.14583 0.166667 3.14583H0.791667C0.833333 3.14583 0.854167 3.125 0.854167 3.08333V2.58333C0.854167 1.66667 1.02083 1.01042 1.35417 0.604167C1.6875 0.203125 2.23958 0 3.02083 0H3.25C3.34375 0 3.39583 0.0520827 3.39583 0.145833V0.791667C3.39583 0.906251 3.33854 0.958333 3.22917 0.958333H3.04167Z" fill="#D72333"/>
</svg>
