<svg width="5" height="11" viewBox="0 0 5 11" fill="none" xmlns="http://www.w3.org/2000/svg">
<path d="M4.625 0.75C4.625 0.848959 4.57292 0.895833 4.47917 0.895833H1.08333C1.04167 0.895833 1.02083 0.916667 1.02083 0.958333V4.58333C1.02083 4.625 1.04167 4.64583 1.08333 4.64583H3.22917C3.32292 4.64583 3.375 4.69792 3.375 4.79167V5.41667C3.375 5.51563 3.32292 5.5625 3.22917 5.5625H1.08333C1.04167 5.5625 1.02083 5.58333 1.02083 5.625V9.27083C1.02083 9.30208 1.04167 9.3125 1.08333 9.3125H4.47917C4.57292 9.3125 4.625 9.36458 4.625 9.45833V10.0833C4.625 10.1823 4.57292 10.2292 4.47917 10.2292H0.145833C0.0468747 10.2292 0 10.1823 0 10.0833V0.145833C0 0.052084 0.0468747 0 0.145833 0H4.47917C4.57292 0 4.625 0.052084 4.625 0.145833V0.75Z" fill="#D72333"/>
</svg>
