<svg width="5" height="11" viewBox="0 0 5 11" fill="none" xmlns="http://www.w3.org/2000/svg">
<path d="M4.08333 10.2292C4 10.2292 3.94271 10.1875 3.91667 10.1042L2.41667 5.58333C2.40104 5.55729 2.38021 5.54167 2.35417 5.54167H1.08333C1.04167 5.54167 1.02083 5.5625 1.02083 5.60417V10.0833C1.02083 10.1823 0.968751 10.2292 0.875 10.2292H0.145833C0.0468747 10.2292 0 10.1823 0 10.0833V0.145833C0 0.052084 0.0468747 0 0.145833 0H2.54167C3.26042 0 3.83854 0.265625 4.27083 0.791667C4.71354 1.30729 4.9375 1.97917 4.9375 2.8125C4.9375 3.45313 4.79688 4 4.52083 4.45833C4.25521 4.91667 3.88542 5.23958 3.41667 5.41667C3.375 5.43229 3.35937 5.45833 3.375 5.5L4.95833 10.0625L4.97917 10.125C4.97917 10.1979 4.9375 10.2292 4.85417 10.2292H4.08333ZM1.08333 0.895833C1.04167 0.895833 1.02083 0.916667 1.02083 0.958333V4.66667C1.02083 4.69792 1.04167 4.70833 1.08333 4.70833H2.39583C2.85417 4.70833 3.21354 4.54167 3.47917 4.20833C3.75521 3.86458 3.89583 3.39583 3.89583 2.8125C3.89583 2.24479 3.75521 1.78646 3.47917 1.4375C3.21354 1.07813 2.85417 0.895833 2.39583 0.895833H1.08333Z" fill="#D72333"/>
</svg>
