<svg width="6" height="13" viewBox="0 0 6 13" fill="none" xmlns="http://www.w3.org/2000/svg">
<path d="M4.1875 0.1875C4.1875 0.0625 4.23958 0 4.35417 0H5.25C5.35938 0 5.41667 0.0625 5.41667 0.1875V12C5.41667 12.1146 5.35938 12.1667 5.25 12.1667H4.35417C4.23958 12.1667 4.1875 12.1146 4.1875 12V11.6042C4.1875 11.5938 4.17188 11.5781 4.14583 11.5625C4.13021 11.5521 4.11458 11.5573 4.10417 11.5833C3.65625 12.0729 3.09375 12.3125 2.41667 12.3125C1.67708 12.3125 1.08854 12.0729 0.645833 11.5833C0.213541 11.0833 0 10.4375 0 9.64583V5.89583C0 5.09375 0.213541 4.44792 0.645833 3.95833C1.08854 3.47396 1.67708 3.22917 2.41667 3.22917C3.10937 3.22917 3.67187 3.47917 4.10417 3.97917C4.11458 4.01042 4.13021 4.01563 4.14583 4C4.17188 3.98958 4.1875 3.97396 4.1875 3.95833V0.1875ZM2.72917 11.2292C3.14583 11.2292 3.48958 11.0781 3.77083 10.7708C4.04688 10.4688 4.1875 10.0729 4.1875 9.58333V5.97917C4.1875 5.47917 4.04688 5.07813 3.77083 4.77083C3.48958 4.46875 3.14583 4.3125 2.72917 4.3125C2.28125 4.3125 1.91667 4.46875 1.625 4.77083C1.34375 5.07813 1.20833 5.47917 1.20833 5.97917V9.58333C1.20833 10.0729 1.34375 10.4688 1.625 10.7708C1.91667 11.0781 2.28125 11.2292 2.72917 11.2292Z" fill="#D72333"/>
</svg>
