<svg width="7" height="12" viewBox="0 0 7 12" fill="none" xmlns="http://www.w3.org/2000/svg">
<path d="M3.22917 11.4167C2.23958 11.4167 1.45833 11.1354 0.875 10.5625C0.291667 9.97917 0 9.20833 0 8.25V3.14583C0 2.1875 0.291667 1.42708 0.875 0.854167C1.45833 0.286459 2.23958 0 3.22917 0C4.19792 0 4.97917 0.286459 5.5625 0.854167C6.15625 1.42708 6.45833 2.1875 6.45833 3.14583V8.25C6.45833 9.20833 6.15625 9.97917 5.5625 10.5625C4.97917 11.1354 4.19792 11.4167 3.22917 11.4167ZM3.22917 9.47917C3.52083 9.47917 3.75521 9.38542 3.9375 9.1875C4.11458 8.97917 4.20833 8.70313 4.20833 8.35417V3.0625C4.20833 2.71875 4.11458 2.4375 3.9375 2.22917C3.75521 2.02083 3.52083 1.91667 3.22917 1.91667C2.92187 1.91667 2.67708 2.02083 2.5 2.22917C2.33333 2.4375 2.25 2.71875 2.25 3.0625V8.35417C2.25 8.70313 2.33333 8.97917 2.5 9.1875C2.67708 9.38542 2.92187 9.47917 3.22917 9.47917Z" fill="#D72333"/>
</svg>
