<svg width="10" height="20" viewBox="0 0 10 20" fill="none" xmlns="http://www.w3.org/2000/svg">
<path d="M7.16667 0.291667C7.16667 0.0989587 7.26042 0 7.45833 0H8.875C9.05208 0 9.14583 0.0989587 9.14583 0.291667V19.2917C9.14583 19.474 9.05208 19.5625 8.875 19.5625H7.45833C7.26042 19.5625 7.16667 19.474 7.16667 19.2917V10.7708C7.16667 10.6875 7.13021 10.6458 7.0625 10.6458H2.08333C2.01042 10.6458 1.97917 10.6875 1.97917 10.7708V19.2917C1.97917 19.474 1.88021 19.5625 1.6875 19.5625H0.270833C0.0885413 19.5625 0 19.474 0 19.2917V0.291667C0 0.0989587 0.0885413 0 0.270833 0H1.6875C1.88021 0 1.97917 0.0989587 1.97917 0.291667V8.77083C1.97917 8.85417 2.01042 8.89583 2.08333 8.89583H7.0625C7.13021 8.89583 7.16667 8.85417 7.16667 8.77083V0.291667Z" fill="#D72333"/>
</svg>
