<svg width="7" height="13" viewBox="0 0 7 13" fill="none" xmlns="http://www.w3.org/2000/svg">
<path d="M6 0C6.10938 0 6.16667 0.0625 6.16667 0.1875V0.916667C6.16667 1.03125 6.10938 1.08333 6 1.08333H3.70833C3.66667 1.08333 3.64583 1.10417 3.64583 1.14583V12C3.64583 12.1146 3.58333 12.1667 3.45833 12.1667H2.58333C2.45833 12.1667 2.39583 12.1146 2.39583 12V1.14583C2.39583 1.10417 2.375 1.08333 2.33333 1.08333H0.1875C0.0625 1.08333 0 1.03125 0 0.916667V0.1875C0 0.0625 0.0625 0 0.1875 0H6Z" fill="#D72333"/>
</svg>
