<svg width="6" height="12" viewBox="0 0 6 12" fill="none" xmlns="http://www.w3.org/2000/svg">
<path d="M1.97917 9.3125C1.96354 9.35417 1.94792 9.39583 1.9375 9.4375C1.92187 9.47917 1.91667 9.51563 1.91667 9.54167C1.91667 9.64063 1.94792 9.72396 2.02083 9.79167C2.10417 9.86458 2.20833 9.89583 2.33333 9.89583C2.63542 9.89583 2.96875 9.72396 3.33333 9.375C3.69271 9.01563 4.02083 8.4375 4.3125 7.64583C4.40625 7.39583 4.53125 7.22396 4.6875 7.125C4.85417 7.01563 5.02083 6.95833 5.1875 6.95833C5.39583 6.95833 5.57292 7.03125 5.72917 7.16667C5.89583 7.30729 5.97917 7.47917 5.97917 7.6875C5.97917 7.76042 5.96354 7.84375 5.9375 7.9375C5.63021 8.85417 5.26042 9.57292 4.83333 10.0833C4.40104 10.599 3.95833 10.9583 3.5 11.1667C3.04167 11.375 2.60417 11.4792 2.1875 11.4792C1.79687 11.4792 1.4375 11.4115 1.10417 11.2708C0.770833 11.1198 0.5 10.9062 0.291667 10.625C0.0989584 10.3333 0 9.98958 0 9.58333C0 9.32292 0.0572917 9.03646 0.166667 8.72917L2.91667 0.875C3.125 0.291667 3.46875 0 3.95833 0C4.16667 0 4.35938 0.0781253 4.54167 0.229167C4.73438 0.369792 4.83333 0.572916 4.83333 0.833333C4.83333 0.973959 4.80208 1.11979 4.75 1.27083L1.97917 9.3125Z" fill="#D72333"/>
</svg>
