<svg width="6" height="11" viewBox="0 0 6 11" fill="none" xmlns="http://www.w3.org/2000/svg">
<path d="M4.70833 0.104167C4.73438 0.0364587 4.79688 0 4.89583 0H5.6875C5.78125 0 5.83333 0.057292 5.83333 0.166667V10.5625C5.83333 10.6615 5.78125 10.7083 5.6875 10.7083H4.89583C4.79688 10.7083 4.75 10.6615 4.75 10.5625V2.35417C4.75 2.32813 4.73958 2.3125 4.72917 2.3125C4.71354 2.3125 4.69271 2.32813 4.66667 2.35417L3.08333 5.64583C3.05208 5.71875 3.00521 5.75 2.9375 5.75C2.85417 5.75 2.79167 5.71875 2.75 5.64583L1.16667 2.35417C1.15104 2.34375 1.13021 2.33333 1.10417 2.33333C1.08854 2.33333 1.08333 2.34896 1.08333 2.375V10.5625C1.08333 10.6615 1.03125 10.7083 0.9375 10.7083H0.166667C0.052084 10.7083 0 10.6615 0 10.5625V0.166667C0 0.057292 0.052084 0 0.166667 0H0.958333C1.04167 0 1.10417 0.0364587 1.14583 0.104167L2.875 3.64583C2.88542 3.66146 2.90104 3.66667 2.91667 3.66667C2.94271 3.66667 2.96354 3.66146 2.97917 3.64583L4.70833 0.104167Z" fill="#D72333"/>
</svg>
