<svg width="11" height="11" viewBox="0 0 11 11" fill="none" xmlns="http://www.w3.org/2000/svg">
<path d="M2.33333 10.9792C2.21875 10.9792 2.15104 10.9271 2.125 10.8125L0.0208333 0.208333L0 0.145833C0 0.052084 0.052084 0 0.166667 0H2.08333C2.20833 0 2.27604 0.057292 2.29167 0.166667L3.1875 5.8125C3.19792 5.85417 3.21354 5.875 3.22917 5.875C3.25521 5.875 3.27083 5.85417 3.27083 5.8125L4.125 0.166667C4.13542 0.057292 4.20833 0 4.33333 0H5.91667C6.04167 0 6.10938 0.057292 6.125 0.166667L7.04167 5.8125C7.05208 5.85417 7.06771 5.875 7.08333 5.875C7.10938 5.875 7.13021 5.85417 7.14583 5.8125L7.9375 0.166667C7.94792 0.057292 8.02083 0 8.14583 0H10C10.1354 0 10.1927 0.072916 10.1667 0.208333L8.16667 10.8125C8.16667 10.9271 8.10417 10.9792 7.97917 10.9792H6.27083C6.14583 10.9792 6.07292 10.9271 6.0625 10.8125L5.14583 5C5.13021 4.95833 5.10938 4.9375 5.08333 4.9375C5.06771 4.9375 5.0625 4.95833 5.0625 5L4.22917 10.8125C4.21354 10.9271 4.14583 10.9792 4.02083 10.9792H2.33333Z" fill="#D72333"/>
</svg>
