<svg width="3" height="12" viewBox="0 0 3 12" fill="none" xmlns="http://www.w3.org/2000/svg">
<path d="M1.25 2.5C0.885417 2.5 0.588541 2.38542 0.354167 2.14583C0.114583 1.91146 0 1.61458 0 1.25C0 0.875 0.109375 0.578125 0.333333 0.354167C0.567708 0.119792 0.875 0 1.25 0C1.60937 0 1.90104 0.119792 2.125 0.354167C2.35937 0.578125 2.47917 0.875 2.47917 1.25C2.47917 1.61458 2.35937 1.91146 2.125 2.14583C1.90104 2.38542 1.60937 2.5 1.25 2.5ZM0.333333 11.5417C0.291667 11.5417 0.25 11.5312 0.208333 11.5C0.166667 11.4583 0.145833 11.4115 0.145833 11.3542V3.60417C0.145833 3.55208 0.166667 3.51042 0.208333 3.47917C0.25 3.4375 0.291667 3.41667 0.333333 3.41667H2.1875C2.23958 3.41667 2.28125 3.4375 2.3125 3.47917C2.35417 3.51042 2.375 3.55208 2.375 3.60417V11.3542C2.375 11.4115 2.35417 11.4583 2.3125 11.5C2.28125 11.5312 2.23958 11.5417 2.1875 11.5417H0.333333Z" fill="#D72333"/>
</svg>
