<svg width="7" height="12" viewBox="0 0 7 12" fill="none" xmlns="http://www.w3.org/2000/svg">
<path d="M3.14583 11.4167C2.52083 11.4167 1.96875 11.2969 1.5 11.0625C1.04167 10.8125 0.677084 10.4688 0.416667 10.0208C0.166667 9.57813 0.0416667 9.07292 0.0416667 8.5V8.04167C0.0416667 7.98958 0.052084 7.94792 0.0833333 7.91667C0.125 7.875 0.171875 7.85417 0.229167 7.85417H2.0625C2.11458 7.85417 2.15625 7.875 2.1875 7.91667C2.22917 7.94792 2.25 7.98958 2.25 8.04167V8.39583C2.25 8.71875 2.33333 8.97917 2.5 9.1875C2.67708 9.38542 2.89583 9.47917 3.14583 9.47917C3.40625 9.47917 3.625 9.39063 3.79167 9.20833C3.95833 9.01563 4.04167 8.76563 4.04167 8.45833C4.04167 8.14063 3.9375 7.86979 3.72917 7.64583C3.52083 7.41146 3.10417 7.07292 2.47917 6.625C1.94792 6.23958 1.52083 5.89583 1.1875 5.60417C0.854167 5.30208 0.567708 4.93229 0.333333 4.5C0.109375 4.05729 0 3.55208 0 2.97917C0 2.07813 0.276041 1.35417 0.833333 0.8125C1.40104 0.270833 2.15104 0 3.08333 0C4.01042 0 4.76042 0.286459 5.33333 0.854167C5.90104 1.41146 6.1875 2.14583 6.1875 3.0625V3.4375C6.1875 3.49479 6.16667 3.54167 6.125 3.58333C6.09375 3.61458 6.05208 3.625 6 3.625H4.16667C4.10938 3.625 4.0625 3.61458 4.02083 3.58333C3.97917 3.54167 3.95833 3.49479 3.95833 3.4375V3C3.95833 2.68229 3.875 2.42708 3.70833 2.22917C3.55208 2.02083 3.34375 1.91667 3.08333 1.91667C2.81771 1.91667 2.60417 2.01563 2.4375 2.20833C2.28125 2.39063 2.20833 2.64583 2.20833 2.97917C2.20833 3.30208 2.30208 3.58333 2.5 3.83333C2.70833 4.07292 3.10937 4.41146 3.70833 4.85417C4.375 5.34375 4.875 5.73958 5.20833 6.04167C5.54167 6.33333 5.79688 6.66667 5.97917 7.04167C6.17188 7.40625 6.27083 7.84375 6.27083 8.35417C6.27083 9.28646 5.97917 10.0313 5.39583 10.5833C4.82292 11.1406 4.07292 11.4167 3.14583 11.4167Z" fill="#D72333"/>
</svg>
