<svg width="4" height="9" viewBox="0 0 4 9" fill="none" xmlns="http://www.w3.org/2000/svg">
<path d="M2.95833 0C3.25 0 3.5 0.0625 3.70833 0.1875C3.79167 0.229167 3.82292 0.307292 3.8125 0.416667L3.60417 1.3125C3.58854 1.42708 3.52083 1.45833 3.39583 1.41667C3.23958 1.34896 3.0625 1.3125 2.85417 1.3125C2.77083 1.3125 2.69792 1.32292 2.64583 1.33333C2.22917 1.36458 1.88542 1.58333 1.625 2C1.35937 2.40625 1.22917 2.89583 1.22917 3.47917V8.70833C1.22917 8.82292 1.17187 8.875 1.0625 8.875H0.166667C0.052084 8.875 0 8.82292 0 8.70833V0.25C0 0.140625 0.052084 0.0833333 0.166667 0.0833333H1.0625C1.17187 0.0833333 1.22917 0.140625 1.22917 0.25V1.29167C1.22917 1.33333 1.23437 1.35417 1.25 1.35417C1.27604 1.35417 1.29687 1.34375 1.3125 1.3125C1.64583 0.4375 2.19271 0 2.95833 0Z" fill="#D72333"/>
</svg>
