<svg width="15" height="21" viewBox="0 0 15 21" fill="none" xmlns="http://www.w3.org/2000/svg">
<path d="M13.4742 0.913833V1.143L13.5783 1.518C13.6617 1.82529 13.6096 2.11175 13.4325 2.37217C13.2502 2.62217 13.0002 2.768 12.6825 2.80967C12.5835 2.80967 12.4794 2.80967 12.37 2.80967C12.271 2.80967 12.1617 2.79925 12.0367 2.768C11.6617 2.74196 11.2867 2.72112 10.9117 2.7055C10.5471 2.67946 10.1825 2.68467 9.80749 2.72633C9.40124 2.74196 9.0002 2.768 8.59916 2.80967C8.19291 2.84092 7.79186 2.86696 7.39082 2.893C7.08353 2.90862 6.77103 2.91383 6.45332 2.91383C6.13041 2.90342 5.83353 2.97112 5.55749 3.12217C5.52624 3.57008 5.53666 3.99717 5.57832 4.41383C5.63041 4.82008 5.6252 5.24196 5.55749 5.68467C5.48457 6.143 5.47416 6.60133 5.51582 7.05967C5.55749 7.50758 5.60957 7.9555 5.68249 8.41383L6.26582 8.7055L6.34916 8.9555C6.84916 8.78883 7.36999 8.7055 7.91166 8.7055C8.02103 8.91383 8.17207 9.02842 8.36999 9.03883C8.57832 9.03883 8.77624 9.00758 8.97416 8.93467C9.1252 8.85133 9.28666 8.84612 9.45332 8.91383C9.63041 8.98675 9.75541 9.10133 9.82832 9.268C9.86999 9.35133 9.90124 9.43467 9.93249 9.518C9.95853 9.60133 9.97937 9.69508 9.99499 9.78883C10.021 9.92946 10.0262 10.0753 10.0158 10.2263C10.0002 10.3826 10.0054 10.5336 10.0367 10.6847C10.0367 10.9763 9.91166 11.1847 9.66166 11.3097C9.35437 11.4503 9.04707 11.5128 8.74499 11.4972C8.45332 11.4711 8.13041 11.4347 7.78666 11.393C7.33874 11.3409 6.95853 11.3617 6.64082 11.4555C6.31791 11.5545 5.98457 11.7576 5.64082 12.0597C5.60957 12.2576 5.56791 12.4763 5.51582 12.7263C5.45853 12.9763 5.50541 13.1847 5.66166 13.3513L5.41166 14.2263L5.82832 14.5388C5.8127 14.9138 5.80749 15.2628 5.80749 15.5805C5.81791 15.9034 5.70332 16.2211 5.45332 16.5388C5.57832 16.7628 5.66166 16.9659 5.70332 17.143C5.75541 17.3253 5.79186 17.5284 5.80749 17.7472C6.01582 17.7211 6.20332 17.6951 6.36999 17.6638C6.53666 17.6222 6.70332 17.5492 6.86999 17.4347C7.21374 17.518 7.5627 17.5701 7.91166 17.5805C8.25541 17.5805 8.60957 17.6013 8.97416 17.643C9.34916 17.6586 9.65124 17.6638 9.89082 17.6638C10.1408 17.6534 10.4429 17.5492 10.8075 17.3513C11.6929 17.867 12.5783 17.9347 13.4533 17.5597C13.6877 17.4659 13.9169 17.4972 14.1408 17.6638L14.3075 18.0597C14.4846 18.8513 14.3335 19.5284 13.8492 20.0805C13.6825 20.3305 13.4637 20.4034 13.2033 20.3097C13.0627 20.268 12.9325 20.2315 12.8075 20.2055C12.6929 20.1638 12.5627 20.117 12.4117 20.0597L12.3075 20.2472C11.8179 20.1951 11.37 20.1742 10.9533 20.1847C10.5367 20.2003 10.0783 20.1742 9.57832 20.1013L9.49499 20.393C9.00541 20.3201 8.54707 20.268 8.11999 20.2263C7.70332 20.1742 7.24499 20.1951 6.74499 20.2888C6.53666 20.2992 6.33353 20.2888 6.14082 20.2472C5.95853 20.2211 5.76582 20.2055 5.55749 20.2055C5.30749 20.2211 5.11999 20.2263 4.99499 20.2263C4.88041 20.2159 4.70853 20.1638 4.47416 20.0805L3.99499 20.393C3.60436 20.3201 3.22416 20.2576 2.84916 20.2055C2.48457 20.1378 2.10957 20.117 1.72416 20.143C1.58353 20.143 1.45853 20.1378 1.34916 20.1222C1.2502 20.1117 1.15124 20.0961 1.05749 20.0805C0.80749 20.0284 0.61999 19.8826 0.49499 19.643C0.36999 19.393 0.375198 19.1534 0.515823 18.9138C0.442907 18.6638 0.375198 18.4242 0.30749 18.1847C0.250198 17.9503 0.203323 17.7159 0.161657 17.4763C0.146031 17.2003 0.151241 16.9242 0.18249 16.643C0.208531 16.3513 0.203323 16.0701 0.161657 15.7888L0.224157 15.7472C0.276241 15.1117 0.276241 14.4711 0.224157 13.8305C0.18249 13.1951 0.203323 12.5492 0.286657 11.893C0.328323 11.5597 0.349157 11.2367 0.349157 10.9138C0.349157 10.5805 0.333531 10.2576 0.30749 9.93467C0.291865 9.643 0.255406 9.36175 0.203323 9.0805C0.146031 8.78883 0.104365 8.51279 0.0783232 8.24717C0.0783232 8.01279 0.11999 7.78883 0.203323 7.5805C0.297073 7.37217 0.354365 7.15862 0.36999 6.93467C0.411657 6.68467 0.401241 6.4555 0.349157 6.24717C0.30749 6.02842 0.265823 5.79925 0.224157 5.55967C0.18249 5.35133 0.125198 5.11175 0.0574899 4.8305C0.000197912 4.53883 -0.0154261 4.26279 0.0158232 3.99717C0.0418646 3.72112 0.151241 3.50758 0.349157 3.35133C0.291865 3.04925 0.255406 2.71592 0.24499 2.35133C0.229365 1.97633 0.265823 1.62217 0.349157 1.28883C0.401241 0.955499 0.55749 0.695082 0.80749 0.497166C1.05749 0.288832 1.33353 0.184666 1.64082 0.184666C1.90124 0.17425 2.16166 0.163832 2.41166 0.163832C2.66166 0.163832 2.91166 0.184666 3.16166 0.226332L3.28666 0.101332C3.71374 0.241958 4.13041 0.267999 4.53666 0.184666C4.9377 0.0909165 5.36999 0.0544578 5.82832 0.0804992C6.04707 0.0961245 6.26582 0.132583 6.47416 0.184666C6.69291 0.241958 6.92207 0.267999 7.16166 0.267999C7.36999 0.267999 7.58353 0.241958 7.80749 0.184666C8.02624 0.116958 8.24499 0.0700818 8.45332 0.0388325C8.95332 -0.0288755 9.39082 -0.00804218 9.76582 0.101332C10.1512 0.200291 10.5783 0.283624 11.0367 0.351332C11.2867 0.382583 11.5367 0.361748 11.7867 0.288832C12.0367 0.221124 12.2867 0.163832 12.5367 0.122166C12.7867 0.0961245 13.0002 0.158625 13.1825 0.309666C13.3752 0.465916 13.4742 0.663833 13.4742 0.913833Z" fill="#D72333"/>
</svg>
