<svg width="6" height="11" viewBox="0 0 6 11" fill="none" xmlns="http://www.w3.org/2000/svg">
<path d="M2.91667 10.4792C2.02604 10.4792 1.31771 10.224 0.791667 9.70833C0.260416 9.18229 0 8.47396 0 7.58333V2.85417C0 1.97917 0.260416 1.28646 0.791667 0.770833C1.31771 0.260417 2.02604 0 2.91667 0C3.79167 0 4.48958 0.260417 5.02083 0.770833C5.5625 1.28646 5.83333 1.97917 5.83333 2.85417V3.02083C5.83333 3.0625 5.8125 3.10417 5.77083 3.14583C5.73958 3.17708 5.70833 3.1875 5.66667 3.1875L3.9375 3.27083C3.82292 3.27083 3.77083 3.21875 3.77083 3.10417V2.72917C3.77083 2.4375 3.69271 2.20833 3.54167 2.04167C3.38542 1.86458 3.17708 1.77083 2.91667 1.77083C2.65104 1.77083 2.44271 1.86458 2.29167 2.04167C2.13542 2.20833 2.0625 2.4375 2.0625 2.72917V7.77083C2.0625 8.05208 2.13542 8.28125 2.29167 8.45833C2.44271 8.625 2.65104 8.70833 2.91667 8.70833C3.17708 8.70833 3.38542 8.625 3.54167 8.45833C3.69271 8.28125 3.77083 8.05208 3.77083 7.77083V7.375C3.77083 7.32292 3.78125 7.28125 3.8125 7.25C3.85417 7.20833 3.89583 7.1875 3.9375 7.1875L5.66667 7.27083C5.70833 7.27083 5.73958 7.29167 5.77083 7.33333C5.8125 7.36458 5.83333 7.39583 5.83333 7.4375V7.58333C5.83333 8.47396 5.5625 9.18229 5.02083 9.70833C4.48958 10.224 3.79167 10.4792 2.91667 10.4792Z" fill="#D72333"/>
</svg>
