<svg width="7" height="12" viewBox="0 0 7 12" fill="none" xmlns="http://www.w3.org/2000/svg">
<path d="M3.125 11.3125C2.51042 11.3125 1.96875 11.1927 1.5 10.9583C1.04167 10.7083 0.6875 10.3698 0.4375 9.9375C0.1875 9.49479 0.0625 8.98958 0.0625 8.41667V7.95833C0.0625 7.90625 0.0729173 7.86458 0.104167 7.83333C0.145833 7.79167 0.192708 7.77083 0.25 7.77083H2.0625C2.11458 7.77083 2.15625 7.79167 2.1875 7.83333C2.22917 7.86458 2.25 7.90625 2.25 7.95833V8.3125C2.25 8.63542 2.33333 8.89583 2.5 9.10417C2.67708 9.30208 2.89583 9.39583 3.14583 9.39583C3.39583 9.39583 3.60417 9.30729 3.77083 9.125C3.9375 8.93229 4.02083 8.68229 4.02083 8.375C4.02083 8.05729 3.91667 7.78646 3.70833 7.5625C3.5 7.32813 3.08854 6.99479 2.47917 6.5625C1.94792 6.17708 1.52083 5.83333 1.1875 5.54167C0.864584 5.25 0.588541 4.89063 0.354167 4.45833C0.114584 4.03125 0 3.53125 0 2.95833C0 2.05729 0.276041 1.34375 0.833333 0.8125C1.40104 0.270833 2.14583 0 3.0625 0C3.98958 0 4.73438 0.281249 5.29167 0.833333C5.85938 1.39063 6.14583 2.11979 6.14583 3.02083V3.41667C6.14583 3.45833 6.125 3.5 6.08333 3.54167C6.05208 3.58333 6.01042 3.60417 5.95833 3.60417H4.14583C4.08854 3.60417 4.04167 3.58333 4 3.54167C3.95833 3.5 3.9375 3.45833 3.9375 3.41667V2.97917C3.9375 2.66146 3.85417 2.40625 3.6875 2.20833C3.53125 2 3.32292 1.89583 3.0625 1.89583C2.8125 1.89583 2.60417 1.99479 2.4375 2.1875C2.28125 2.36979 2.20833 2.625 2.20833 2.95833C2.20833 3.26563 2.30208 3.54167 2.5 3.79167C2.70833 4.03125 3.10417 4.36458 3.6875 4.79167C4.33854 5.28125 4.83333 5.67708 5.16667 5.97917C5.5 6.28646 5.75521 6.61979 5.9375 6.97917C6.13021 7.34375 6.22917 7.77083 6.22917 8.27083C6.22917 9.20313 5.94271 9.94792 5.375 10.5C4.80208 11.0417 4.05208 11.3125 3.125 11.3125Z" fill="#D72333"/>
</svg>
