<svg width="6" height="12" viewBox="0 0 6 12" fill="none" xmlns="http://www.w3.org/2000/svg">
<path d="M3.875 5.375C3.81771 5.40625 3.81771 5.43229 3.875 5.45833C4.26042 5.66667 4.54688 5.97396 4.72917 6.375C4.94792 6.89063 5.0625 7.51042 5.0625 8.22917C5.0625 8.8125 4.98958 9.3125 4.85417 9.72917C4.67188 10.2708 4.375 10.6979 3.95833 11C3.55208 11.3073 3.07292 11.4583 2.52083 11.4583C1.97917 11.4583 1.50521 11.3125 1.10417 11.0208C0.697917 10.7188 0.406251 10.2917 0.229167 9.75C0.0729173 9.28125 0 8.76563 0 8.20833C0 7.53125 0.0937493 6.95313 0.291667 6.47917C0.468749 6.03646 0.770833 5.69792 1.1875 5.45833C1.22917 5.43229 1.22917 5.40625 1.1875 5.375C0.838541 5.18229 0.5625 4.89063 0.354167 4.5C0.114584 4.05729 0 3.51563 0 2.875C0 2.22396 0.114584 1.68229 0.354167 1.25C0.546875 0.864584 0.833333 0.557292 1.20833 0.333333C1.58333 0.114584 2.02083 0 2.52083 0C3.02083 0 3.44792 0.104167 3.8125 0.3125C4.1875 0.520833 4.47917 0.822917 4.6875 1.20833C4.9375 1.66667 5.0625 2.22917 5.0625 2.89583C5.0625 3.53646 4.94792 4.0625 4.72917 4.47917C4.52083 4.86979 4.23438 5.16667 3.875 5.375ZM1.35417 1.79167C1.1875 2.11458 1.10417 2.51042 1.10417 2.97917C1.10417 3.45313 1.19271 3.84896 1.375 4.16667C1.60937 4.69792 1.98958 4.95833 2.52083 4.95833C2.8125 4.95833 3.05208 4.88542 3.25 4.72917C3.45833 4.57813 3.61458 4.36979 3.72917 4.10417C3.88021 3.78646 3.95833 3.40625 3.95833 2.95833C3.95833 2.44792 3.86458 2.04167 3.6875 1.75C3.4375 1.25 3.04687 1 2.52083 1C1.97917 1 1.58854 1.26563 1.35417 1.79167ZM3.83333 9.27083C3.91667 8.9375 3.95833 8.57292 3.95833 8.16667C3.95833 7.61458 3.88021 7.15625 3.72917 6.79167C3.50521 6.16667 3.10417 5.85417 2.52083 5.85417C2.22917 5.85417 1.97917 5.94792 1.77083 6.125C1.5625 6.29167 1.40625 6.53646 1.3125 6.85417C1.17187 7.20313 1.10417 7.64063 1.10417 8.16667C1.10417 8.59896 1.15104 8.97917 1.25 9.3125C1.34375 9.6875 1.50521 9.97917 1.72917 10.1875C1.94792 10.3854 2.21354 10.4792 2.52083 10.4792C2.83854 10.4792 3.10937 10.375 3.33333 10.1667C3.56771 9.95833 3.73437 9.66146 3.83333 9.27083Z" fill="#D72333"/>
</svg>
