<svg width="5" height="11" viewBox="0 0 5 11" fill="none" xmlns="http://www.w3.org/2000/svg">
<path d="M3.75 0.145833C3.75 0.052084 3.79687 0 3.89583 0H4.64583C4.73958 0 4.79167 0.052084 4.79167 0.145833V10.0833C4.79167 10.1823 4.73958 10.2292 4.64583 10.2292H3.89583C3.79687 10.2292 3.75 10.1823 3.75 10.0833V5.625C3.75 5.58333 3.72917 5.5625 3.6875 5.5625H1.08333C1.04167 5.5625 1.02083 5.58333 1.02083 5.625V10.0833C1.02083 10.1823 0.968751 10.2292 0.875 10.2292H0.145833C0.0468747 10.2292 0 10.1823 0 10.0833V0.145833C0 0.052084 0.0468747 0 0.145833 0H0.875C0.968751 0 1.02083 0.052084 1.02083 0.145833V4.58333C1.02083 4.625 1.04167 4.64583 1.08333 4.64583H3.6875C3.72917 4.64583 3.75 4.625 3.75 4.58333V0.145833Z" fill="#D72333"/>
</svg>
