<svg width="6" height="14" viewBox="0 0 6 14" fill="none" xmlns="http://www.w3.org/2000/svg">
<path d="M2.89583 13.5208C2.02083 13.5208 1.31771 13.2448 0.791667 12.6875C0.260417 12.1354 0 11.3958 0 10.4792V3.33333C0 3.29167 0.0104173 3.26042 0.0416667 3.22917C0.0833333 3.1875 0.125 3.16667 0.166667 3.16667H1.875C1.92708 3.16667 1.96875 3.1875 2 3.22917C2.04167 3.26042 2.0625 3.29167 2.0625 3.33333V10.6875C2.0625 11.0104 2.13542 11.2656 2.29167 11.4583C2.44271 11.6562 2.64583 11.75 2.89583 11.75C3.15625 11.75 3.35937 11.6562 3.5 11.4583C3.65104 11.2656 3.72917 11.0104 3.72917 10.6875V3.33333C3.72917 3.29167 3.73958 3.26042 3.77083 3.22917C3.8125 3.1875 3.85937 3.16667 3.91667 3.16667H5.625C5.67708 3.16667 5.71875 3.1875 5.75 3.22917C5.77604 3.26042 5.79167 3.29167 5.79167 3.33333V10.4792C5.79167 11.3958 5.52604 12.1354 5 12.6875C4.46875 13.2448 3.77083 13.5208 2.89583 13.5208ZM4.25 2.29167C3.91667 2.29167 3.63542 2.1875 3.41667 1.97917C3.19271 1.76042 3.08333 1.47917 3.08333 1.14583C3.08333 0.802084 3.1875 0.520833 3.39583 0.3125C3.61458 0.104167 3.90104 0 4.25 0C4.58333 0 4.85417 0.104167 5.0625 0.3125C5.28125 0.520833 5.39583 0.802084 5.39583 1.14583C5.39583 1.47917 5.28125 1.76042 5.0625 1.97917C4.85417 2.1875 4.58333 2.29167 4.25 2.29167ZM1.54167 2.29167C1.20833 2.29167 0.927084 2.1875 0.708333 1.97917C0.484375 1.76042 0.375 1.47917 0.375 1.14583C0.375 0.802084 0.479167 0.520833 0.6875 0.3125C0.906249 0.104167 1.19271 0 1.54167 0C1.875 0 2.14583 0.104167 2.35417 0.3125C2.57292 0.520833 2.6875 0.802084 2.6875 1.14583C2.6875 1.47917 2.57292 1.76042 2.35417 1.97917C2.14583 2.1875 1.875 2.29167 1.54167 2.29167Z" fill="#D72333"/>
</svg>
