<svg width="7" height="12" viewBox="0 0 7 12" fill="none" xmlns="http://www.w3.org/2000/svg">
<path d="M4.875 0.104167C4.91667 0.0364587 4.97917 0 5.0625 0H5.89583C6.00521 0 6.0625 0.052084 6.0625 0.145833V10.9375C6.0625 11.0521 6.00521 11.1042 5.89583 11.1042H5.08333C4.98438 11.1042 4.9375 11.0521 4.9375 10.9375V2.4375C4.9375 2.41146 4.92188 2.39583 4.89583 2.39583C4.88021 2.39583 4.86458 2.40625 4.85417 2.41667L3.20833 5.85417C3.16667 5.92708 3.10937 5.95833 3.04167 5.95833C2.95833 5.95833 2.89583 5.92708 2.85417 5.85417L1.20833 2.4375C1.19271 2.41146 1.17187 2.39583 1.14583 2.39583C1.13021 2.39583 1.125 2.41667 1.125 2.45833V10.9375C1.125 11.0521 1.07292 11.1042 0.979167 11.1042H0.166667C0.052084 11.1042 0 11.0521 0 10.9375V0.145833C0 0.052084 0.052084 0 0.166667 0H1C1.08333 0 1.14583 0.0364587 1.1875 0.104167L3 3.77083C3 3.78646 3.00521 3.79167 3.02083 3.79167C3.04687 3.79167 3.06771 3.78646 3.08333 3.77083L4.875 0.104167Z" fill="#D72333"/>
</svg>
