<svg width="2" height="12" viewBox="0 0 2 12" fill="none" xmlns="http://www.w3.org/2000/svg">
<path d="M0.875 1.77083C0.609375 1.77083 0.395833 1.6875 0.229167 1.52083C0.072916 1.35417 0 1.14583 0 0.895833C0 0.635417 0.072916 0.416667 0.229167 0.25C0.395833 0.0833333 0.609375 0 0.875 0C1.13542 0 1.34375 0.0833333 1.5 0.25C1.66667 0.416667 1.75 0.635417 1.75 0.895833C1.75 1.14583 1.66667 1.35417 1.5 1.52083C1.34375 1.6875 1.13542 1.77083 0.875 1.77083ZM0.479167 11.2708C0.380208 11.2708 0.333333 11.2188 0.333333 11.1042V3.39583C0.333333 3.28646 0.380208 3.22917 0.479167 3.22917H1.29167C1.40104 3.22917 1.45833 3.28646 1.45833 3.39583V11.1042C1.45833 11.2188 1.40104 11.2708 1.29167 11.2708H0.479167Z" fill="#D72333"/>
</svg>
