<svg width="5" height="11" viewBox="0 0 5 11" fill="none" xmlns="http://www.w3.org/2000/svg">
<path d="M2.5625 0C3.27083 0 3.83854 0.265625 4.27083 0.791667C4.71354 1.30729 4.9375 1.98958 4.9375 2.83333C4.9375 3.66667 4.71875 4.34375 4.29167 4.85417C3.85937 5.36979 3.29687 5.625 2.60417 5.625H1.08333C1.05208 5.625 1.04167 5.64583 1.04167 5.6875V10.1042C1.04167 10.2031 0.989584 10.25 0.895833 10.25H0.145833C0.0468747 10.25 0 10.2031 0 10.1042V0.145833C0 0.0520827 0.0468747 0 0.145833 0H2.5625ZM2.41667 4.77083C2.85937 4.77083 3.21354 4.59896 3.47917 4.25C3.75521 3.90625 3.89583 3.4375 3.89583 2.85417C3.89583 2.27083 3.75521 1.80208 3.47917 1.4375C3.21354 1.07813 2.85937 0.895833 2.41667 0.895833H1.08333C1.05208 0.895833 1.04167 0.916667 1.04167 0.958333V4.72917C1.04167 4.76042 1.05208 4.77083 1.08333 4.77083H2.41667Z" fill="#D72333"/>
</svg>
