<svg width="6" height="9" viewBox="0 0 6 9" fill="none" xmlns="http://www.w3.org/2000/svg">
<path d="M0.1875 8.125C0.130208 8.125 0.0833333 8.11458 0.0416667 8.08333C0.010416 8.04167 0 7.99479 0 7.9375V6.22917C0 6.14583 0.0208333 6.07292 0.0625 6L2.52083 2.10417C2.54687 2.03646 2.53125 2 2.47917 2H0.270833C0.229167 2 0.1875 1.98958 0.145833 1.95833C0.104167 1.91667 0.0833333 1.86979 0.0833333 1.8125V0.1875C0.0833333 0.135416 0.104167 0.0937493 0.145833 0.0625C0.1875 0.0208333 0.229167 0 0.270833 0H5.04167C5.09375 0 5.13542 0.0208333 5.16667 0.0625C5.20833 0.0937493 5.22917 0.135416 5.22917 0.1875V1.875C5.22917 1.95833 5.20833 2.04167 5.16667 2.125L2.60417 6C2.57292 6.07292 2.58854 6.10417 2.64583 6.10417H5.125C5.17708 6.10417 5.21875 6.125 5.25 6.16667C5.29167 6.19792 5.3125 6.23958 5.3125 6.29167V7.9375C5.3125 7.99479 5.29167 8.04167 5.25 8.08333C5.21875 8.11458 5.17708 8.125 5.125 8.125H0.1875Z" fill="#D72333"/>
</svg>
