<svg width="10" height="12" viewBox="0 0 10 12" fill="none" xmlns="http://www.w3.org/2000/svg">
<path d="M2.29167 11.1667C2.19271 11.1667 2.13021 11.1198 2.10417 11.0208L0 0.166667V0.145833C0 0.0520827 0.0468747 0 0.145833 0H1C1.09375 0 1.15104 0.0520827 1.16667 0.145833L2.66667 8.54167C2.67708 8.55729 2.6875 8.5625 2.6875 8.5625C2.69792 8.5625 2.71354 8.55729 2.72917 8.54167L4.02083 0.145833C4.04688 0.0520827 4.10417 0 4.1875 0H4.91667C5.01042 0 5.06771 0.0520827 5.08333 0.145833L6.4375 8.54167C6.44792 8.55729 6.45833 8.5625 6.45833 8.5625C6.46875 8.5625 6.48438 8.55729 6.5 8.54167L7.875 0.145833C7.88542 0.0520827 7.94271 0 8.04167 0H8.875C8.92708 0 8.96875 0.0156253 9 0.0416667C9.02604 0.0729173 9.03125 0.114584 9.02083 0.166667L7.04167 11.0208C7.02604 11.1198 6.96875 11.1667 6.875 11.1667H6.08333C6 11.1667 5.94271 11.1198 5.91667 11.0208L4.58333 2.60417C4.56771 2.57813 4.55208 2.5625 4.54167 2.5625C4.52604 2.5625 4.52083 2.57813 4.52083 2.60417L3.20833 11.0208C3.19271 11.1198 3.14583 11.1667 3.0625 11.1667H2.29167Z" fill="#D72333"/>
</svg>
