<svg width="7" height="12" viewBox="0 0 7 12" fill="none" xmlns="http://www.w3.org/2000/svg">
<path d="M4.91667 5.45833C4.875 5.5 4.88021 5.53646 4.9375 5.5625C5.28125 5.78646 5.54167 6.09896 5.70833 6.5C5.91667 6.95833 6.02083 7.49479 6.02083 8.10417C6.02083 8.59375 5.9375 9.07813 5.77083 9.5625C5.54688 10.1458 5.19271 10.6042 4.70833 10.9375C4.21875 11.2708 3.65625 11.4375 3.02083 11.4375C2.36458 11.4375 1.79687 11.2812 1.3125 10.9583C0.822916 10.625 0.468751 10.1615 0.25 9.5625C0.0833333 9.13542 0 8.64583 0 8.10417C0 7.51042 0.0937507 6.98958 0.291667 6.54167C0.427084 6.14063 0.692708 5.82292 1.08333 5.58333C1.15104 5.55729 1.15104 5.52083 1.08333 5.47917C0.718751 5.22917 0.458333 4.91667 0.291667 4.54167C0.0937507 4.07292 0 3.57813 0 3.0625C0 2.49479 0.0937507 2 0.291667 1.58333C0.510417 1.08333 0.864583 0.697916 1.35417 0.416667C1.83854 0.140625 2.39583 0 3.02083 0C3.63021 0 4.17188 0.140625 4.64583 0.416667C5.11458 0.682292 5.46875 1.0625 5.70833 1.5625C5.91667 2.01042 6.02083 2.51042 6.02083 3.0625C6.02083 3.57813 5.92188 4.0625 5.72917 4.52083C5.57292 4.89583 5.30208 5.20833 4.91667 5.45833ZM2.29167 2.60417C2.23437 2.80208 2.20833 3.02083 2.20833 3.27083C2.20833 3.51042 2.23958 3.75 2.3125 4C2.35417 4.20833 2.4375 4.375 2.5625 4.5C2.6875 4.625 2.83854 4.6875 3.02083 4.6875C3.19792 4.6875 3.35417 4.625 3.47917 4.5C3.60417 4.36458 3.6875 4.1875 3.72917 3.97917C3.79687 3.77083 3.83333 3.53646 3.83333 3.27083C3.83333 3.01042 3.79167 2.78125 3.70833 2.58333C3.65104 2.375 3.5625 2.21875 3.4375 2.10417C3.32292 1.97917 3.1875 1.91667 3.02083 1.91667C2.83854 1.91667 2.6875 1.97917 2.5625 2.10417C2.4375 2.21875 2.34375 2.38542 2.29167 2.60417ZM3.75 8.66667C3.80208 8.39063 3.83333 8.15625 3.83333 7.95833C3.83333 7.64063 3.79687 7.36979 3.72917 7.14583C3.67187 6.91146 3.58333 6.72917 3.45833 6.60417C3.34375 6.46875 3.19792 6.39583 3.02083 6.39583C2.82292 6.39583 2.66667 6.46875 2.54167 6.60417C2.41667 6.74479 2.33333 6.93229 2.29167 7.16667C2.23437 7.41667 2.20833 7.67708 2.20833 7.9375C2.20833 8.22917 2.22917 8.47917 2.27083 8.6875C2.3125 8.95313 2.39583 9.16146 2.52083 9.3125C2.64583 9.45313 2.8125 9.52083 3.02083 9.52083C3.21354 9.52083 3.375 9.44792 3.5 9.29167C3.63542 9.14063 3.71875 8.93229 3.75 8.66667Z" fill="#D72333"/>
</svg>
