<svg width="13" height="8" viewBox="0 0 13 8" fill="none" xmlns="http://www.w3.org/2000/svg">
<path d="M3.5 5.0625L5 0.75C5.09375 0.489583 5.23438 0.302084 5.41667 0.1875C5.59375 0.0625 5.77604 0 5.95833 0C6.20833 0 6.42708 0.0833333 6.625 0.25C6.81771 0.416667 6.91667 0.640625 6.91667 0.916667C6.91667 1.04167 6.88542 1.18229 6.83333 1.33333L5.33333 5.5C5.30208 5.58333 5.29167 5.68229 5.29167 5.79167C5.29167 5.90625 5.32292 6 5.39583 6.08333C5.47917 6.15625 5.58854 6.1875 5.72917 6.1875C5.94792 6.1875 6.15104 6.09896 6.33333 5.91667C6.52604 5.73958 6.67708 5.51042 6.79167 5.22917L7.1875 4.16667C7.00521 3.86458 6.91667 3.45833 6.91667 2.95833C6.91667 2.625 6.95833 2.29167 7.04167 1.95833C7.125 1.61458 7.23958 1.29167 7.39583 1C7.5625 0.697916 7.76042 0.453125 8 0.270833C8.25 0.0937507 8.52604 0 8.83333 0C9.20833 0 9.48958 0.119792 9.6875 0.354167C9.89583 0.578125 10 0.875 10 1.25C10 1.375 9.98438 1.51563 9.95833 1.66667C9.94271 1.82292 9.90104 1.97917 9.83333 2.14583L9.14583 3.95833C9.13021 4.09896 9.17708 4.21875 9.29167 4.3125C9.41667 4.41146 9.57292 4.45833 9.77083 4.45833C9.96354 4.45833 10.1302 4.39583 10.2708 4.27083C10.4219 4.14583 10.5417 3.98958 10.625 3.79167C10.7083 3.58333 10.8229 3.43229 10.9792 3.33333C11.1458 3.23958 11.3125 3.1875 11.4792 3.1875C11.6719 3.1875 11.8438 3.25 12 3.375C12.151 3.5 12.2292 3.68229 12.2292 3.91667C12.2292 3.94792 12.2188 3.97917 12.2083 4.02083C12.2083 4.05208 12.2083 4.08333 12.2083 4.125C12.125 4.47396 11.9583 4.79167 11.7083 5.08333C11.4583 5.36458 11.1667 5.59375 10.8333 5.77083C10.5 5.9375 10.151 6.02083 9.79167 6.02083C9.30208 6.02083 8.88542 5.89583 8.54167 5.64583C8.375 6.09375 8.125 6.47396 7.79167 6.79167C7.46875 7.11458 7.10417 7.35417 6.6875 7.52083C6.28125 7.6875 5.875 7.77083 5.45833 7.77083C5.125 7.77083 4.79688 7.70313 4.47917 7.5625C4.15625 7.42708 3.89583 7.24479 3.6875 7.02083C3.44792 7.24479 3.17708 7.42708 2.875 7.5625C2.58333 7.70313 2.26042 7.77083 1.91667 7.77083C1.56771 7.77083 1.25 7.70313 0.958333 7.5625C0.666667 7.41146 0.427084 7.20313 0.25 6.9375C0.0833333 6.67708 0 6.36979 0 6.02083C0 5.89583 0.0156253 5.77083 0.0416667 5.64583C0.057292 5.52083 0.0833333 5.39583 0.125 5.27083L1.6875 0.75C1.78125 0.489583 1.91667 0.302084 2.08333 0.1875C2.26042 0.0625 2.44792 0 2.64583 0C2.88021 0 3.09375 0.0833333 3.29167 0.25C3.5 0.416667 3.60417 0.640625 3.60417 0.916667C3.60417 1.04167 3.57292 1.18229 3.52083 1.33333L2.0625 5.60417C2.03125 5.6875 2.02083 5.76563 2.02083 5.83333C2.02083 5.93229 2.04687 6.01563 2.10417 6.08333C2.17187 6.15625 2.26042 6.1875 2.375 6.1875C2.59375 6.1875 2.8125 6.08333 3.02083 5.875C3.22917 5.66667 3.38542 5.39583 3.5 5.0625Z" fill="#D72333"/>
</svg>
