<svg width="6" height="11" viewBox="0 0 6 11" fill="none" xmlns="http://www.w3.org/2000/svg">
<path d="M5.5 5.89583C5.55208 6.27083 5.58333 6.63542 5.58333 6.97917C5.58333 7.41146 5.5625 7.78125 5.52083 8.08333C5.4375 8.78125 5.15625 9.33333 4.6875 9.75C4.22917 10.1562 3.60937 10.3542 2.83333 10.3542C2.02604 10.3542 1.36458 10.1406 0.854167 9.70833C0.354167 9.28125 0.0833333 8.70833 0.0416667 8C0.010416 7.73958 0 7.45313 0 7.14583C0 7.02083 0.0625 6.95833 0.1875 6.95833H1.89583C2.00521 6.95833 2.0625 7.02083 2.0625 7.14583C2.0625 7.36979 2.07292 7.57813 2.10417 7.77083C2.13021 8.02083 2.20833 8.22396 2.33333 8.375C2.46875 8.51563 2.63542 8.58333 2.83333 8.58333C3.02604 8.58333 3.1875 8.51563 3.3125 8.375C3.44792 8.23958 3.53125 8.05208 3.5625 7.8125C3.60417 7.47917 3.625 7.13542 3.625 6.77083C3.625 6.3125 3.59375 5.95313 3.54167 5.6875C3.5 5.46875 3.41667 5.29167 3.29167 5.16667C3.17708 5.04167 3.02604 4.97917 2.83333 4.97917C2.69271 4.97917 2.54687 5.04167 2.39583 5.16667C2.33854 5.20833 2.30208 5.22917 2.29167 5.22917C2.25 5.22917 2.19792 5.20313 2.14583 5.14583L1.27083 4.27083C1.22917 4.22917 1.20833 4.18229 1.20833 4.125C1.20833 4.08333 1.22917 4.05208 1.27083 4.02083L3.02083 1.83333C3.04687 1.82292 3.05208 1.80729 3.04167 1.79167C3.02604 1.76563 3.00521 1.75 2.97917 1.75H0.354167C0.296875 1.75 0.255208 1.73958 0.229167 1.70833C0.197917 1.66667 0.1875 1.61979 0.1875 1.5625V0.166667C0.1875 0.125 0.197917 0.0937507 0.229167 0.0625C0.255208 0.0208333 0.296875 0 0.354167 0H5.375C5.42708 0 5.46875 0.0208333 5.5 0.0625C5.54167 0.0937507 5.5625 0.125 5.5625 0.166667V1.625C5.5625 1.70833 5.53125 1.78646 5.47917 1.85417L3.85417 3.91667C3.83854 3.93229 3.83333 3.95313 3.83333 3.97917C3.83333 3.99479 3.83854 4 3.85417 4C4.28125 4.04167 4.64583 4.23958 4.9375 4.58333C5.23958 4.93229 5.42708 5.36979 5.5 5.89583Z" fill="#D72333"/>
</svg>
