<svg width="2" height="11" viewBox="0 0 2 11" fill="none" xmlns="http://www.w3.org/2000/svg">
<path d="M0.854167 1.70833C0.604167 1.70833 0.395833 1.63542 0.229167 1.47917C0.072916 1.3125 0 1.10417 0 0.854167C0 0.604167 0.072916 0.406249 0.229167 0.25C0.395833 0.0833333 0.604167 0 0.854167 0C1.10417 0 1.30208 0.0833333 1.45833 0.25C1.625 0.406249 1.70833 0.604167 1.70833 0.854167C1.70833 1.10417 1.625 1.3125 1.45833 1.47917C1.30208 1.63542 1.10417 1.70833 0.854167 1.70833ZM0.479167 10.8542C0.380208 10.8542 0.333333 10.8073 0.333333 10.7083V3.27083C0.333333 3.17708 0.380208 3.125 0.479167 3.125H1.25C1.35937 3.125 1.41667 3.17708 1.41667 3.27083V10.7083C1.41667 10.8073 1.35937 10.8542 1.25 10.8542H0.479167Z" fill="#D72333"/>
</svg>
