<svg width="7" height="12" viewBox="0 0 7 12" fill="none" xmlns="http://www.w3.org/2000/svg">
<path d="M6.45833 0C6.51042 0 6.55208 0.0208333 6.58333 0.0625C6.625 0.0937507 6.64583 0.135417 6.64583 0.1875V1.70833C6.64583 1.76563 6.625 1.8125 6.58333 1.85417C6.55208 1.89583 6.51042 1.91667 6.45833 1.91667H4.47917C4.42188 1.91667 4.39583 1.9375 4.39583 1.97917V10.875C4.39583 10.9323 4.375 10.9792 4.33333 11.0208C4.30208 11.0521 4.26042 11.0625 4.20833 11.0625H2.35417C2.3125 11.0625 2.27083 11.0521 2.22917 11.0208C2.1875 10.9792 2.16667 10.9323 2.16667 10.875V1.97917C2.16667 1.9375 2.13542 1.91667 2.08333 1.91667H0.1875C0.145833 1.91667 0.104167 1.89583 0.0625 1.85417C0.0208333 1.8125 0 1.76563 0 1.70833V0.1875C0 0.135417 0.0208333 0.0937507 0.0625 0.0625C0.104167 0.0208333 0.145833 0 0.1875 0H6.45833Z" fill="#D72333"/>
</svg>
