<svg width="3" height="11" viewBox="0 0 3 11" fill="none" xmlns="http://www.w3.org/2000/svg">
<path d="M1.60417 0.0416667C1.65625 0.0156253 1.71875 0 1.79167 0H2.58333C2.67708 0 2.72917 0.052084 2.72917 0.145833V10.0833C2.72917 10.1823 2.67708 10.2292 2.58333 10.2292H1.83333C1.73437 10.2292 1.6875 10.1823 1.6875 10.0833V1.22917C1.6875 1.20313 1.67708 1.1875 1.66667 1.1875C1.65104 1.17708 1.63542 1.16667 1.625 1.16667L0.25 1.625L0.208333 1.64583C0.135417 1.64583 0.0937507 1.60417 0.0833333 1.52083L0 0.979167V0.9375C0 0.895833 0.0312493 0.848959 0.104167 0.791667L1.60417 0.0416667Z" fill="#D72333"/>
</svg>
