<svg width="7" height="14" viewBox="0 0 7 14" fill="none" xmlns="http://www.w3.org/2000/svg">
<path d="M4.73803 13.3958C4.62344 13.3958 4.56094 13.3438 4.55053 13.2292L4.32136 11.8333C4.32136 11.7812 4.29011 11.75 4.23803 11.75H2.38386C2.31094 11.75 2.27969 11.7812 2.27969 11.8333L2.05053 13.2292C2.0349 13.3438 1.9724 13.3958 1.86303 13.3958H0.154693C0.0296925 13.3958 -0.0223915 13.3333 0.00885921 13.2083L2.15469 3.3125C2.16511 3.21875 2.22761 3.16667 2.34219 3.16667H4.32136C4.43073 3.16667 4.49323 3.21875 4.50886 3.3125L6.65469 13.2083V13.2708C6.65469 13.3542 6.60261 13.3958 6.50886 13.3958H4.73803ZM2.57136 10.0833C2.57136 10.1406 2.59219 10.1667 2.63386 10.1667H3.94636C3.99844 10.1667 4.01928 10.1406 4.00886 10.0833L3.32136 6.10417C3.30573 6.07813 3.29011 6.0625 3.27969 6.0625C3.26407 6.0625 3.24844 6.07813 3.23803 6.10417L2.57136 10.0833ZM4.67553 2.29167C4.34219 2.29167 4.06094 2.1875 3.84219 1.97917C3.61823 1.76042 3.50886 1.47917 3.50886 1.14583C3.50886 0.802084 3.61303 0.520833 3.82136 0.3125C4.04011 0.104167 4.32657 0 4.67553 0C5.00886 0 5.27969 0.104167 5.48803 0.3125C5.70678 0.520833 5.82136 0.802084 5.82136 1.14583C5.82136 1.47917 5.70678 1.76042 5.48803 1.97917C5.27969 2.1875 5.00886 2.29167 4.67553 2.29167ZM1.96719 2.29167C1.63386 2.29167 1.35261 2.1875 1.13386 1.97917C0.909901 1.76042 0.800526 1.47917 0.800526 1.14583C0.800526 0.802084 0.904693 0.520833 1.11303 0.3125C1.33178 0.104167 1.61823 0 1.96719 0C2.30053 0 2.57136 0.104167 2.77969 0.3125C2.99844 0.520833 3.11303 0.802084 3.11303 1.14583C3.11303 1.47917 2.99844 1.76042 2.77969 1.97917C2.57136 2.1875 2.30053 2.29167 1.96719 2.29167Z" fill="#D72333"/>
</svg>
