<svg width="5" height="9" viewBox="0 0 5 9" fill="none" xmlns="http://www.w3.org/2000/svg">
<path d="M3.625 0C3.91667 0 4.13542 0.057292 4.29167 0.166667C4.375 0.223959 4.40625 0.302084 4.39583 0.395833L4.08333 2.25C4.08333 2.36458 4.01042 2.40625 3.875 2.375C3.75 2.33333 3.60417 2.3125 3.4375 2.3125C3.28125 2.3125 3.15104 2.33333 3.04167 2.375C2.79167 2.41667 2.58854 2.5625 2.4375 2.8125C2.29687 3.0625 2.22917 3.34896 2.22917 3.66667V8.02083C2.22917 8.07813 2.20833 8.125 2.16667 8.16667C2.13542 8.19792 2.09375 8.20833 2.04167 8.20833H0.1875C0.130208 8.20833 0.0833333 8.19792 0.0416667 8.16667C0.0104173 8.125 0 8.07813 0 8.02083V0.291667C0 0.239583 0.0104173 0.197916 0.0416667 0.166667C0.0833333 0.125 0.130208 0.104167 0.1875 0.104167H2.04167C2.09375 0.104167 2.13542 0.125 2.16667 0.166667C2.20833 0.197916 2.22917 0.239583 2.22917 0.291667V0.916667C2.22917 0.958333 2.23437 0.979167 2.25 0.979167C2.26042 0.979167 2.28125 0.968751 2.3125 0.9375C2.58854 0.3125 3.02604 0 3.625 0Z" fill="#D72333"/>
</svg>
