<svg width="4" height="7" viewBox="0 0 4 7" fill="none" xmlns="http://www.w3.org/2000/svg">
<path d="M1.54167 6.5625C1.06771 6.5625 0.692708 6.42708 0.416667 6.14583C0.135417 5.86979 0 5.49479 0 5.02083V1.54167C0 1.07292 0.135417 0.697916 0.416667 0.416667C0.692708 0.140625 1.06771 0 1.54167 0C2.01042 0 2.38542 0.145833 2.66667 0.4375C2.94271 0.718751 3.08333 1.08333 3.08333 1.54167V1.9375C3.08333 1.99479 3.05208 2.02083 3 2.02083H2.54167C2.46875 2.02083 2.4375 1.99479 2.4375 1.9375V1.52083C2.4375 1.22917 2.35417 1 2.1875 0.833333C2.03125 0.656249 1.81771 0.5625 1.54167 0.5625C1.26042 0.5625 1.04167 0.656249 0.875 0.833333C0.708333 1.01563 0.625 1.24479 0.625 1.52083V5.04167C0.625 5.32292 0.708333 5.55208 0.875 5.72917C1.04167 5.89583 1.26042 5.97917 1.54167 5.97917C1.81771 5.97917 2.03125 5.89583 2.1875 5.72917C2.35417 5.55208 2.4375 5.32292 2.4375 5.04167V3.85417C2.4375 3.84375 2.42187 3.83333 2.39583 3.83333H1.625C1.55208 3.83333 1.52083 3.80208 1.52083 3.72917V3.35417C1.52083 3.28646 1.55208 3.25 1.625 3.25H3C3.05208 3.25 3.08333 3.28646 3.08333 3.35417V5.02083C3.08333 5.49479 2.94271 5.86979 2.66667 6.14583C2.38542 6.42708 2.01042 6.5625 1.54167 6.5625Z" fill="#D72333"/>
</svg>
