<svg width="6" height="6" viewBox="0 0 6 6" fill="none" xmlns="http://www.w3.org/2000/svg">
<path d="M4.3125 0C4.73958 0 5.07292 0.161459 5.3125 0.479167C5.54688 0.786459 5.66667 1.21875 5.66667 1.77083V5.35417C5.66667 5.42708 5.625 5.45833 5.54167 5.45833H5.02083C4.94792 5.45833 4.91667 5.42708 4.91667 5.35417V1.83333C4.91667 1.47396 4.83854 1.1875 4.6875 0.979167C4.53125 0.770833 4.33333 0.666667 4.08333 0.666667C3.80208 0.666667 3.58854 0.770833 3.4375 0.979167C3.28125 1.17708 3.20833 1.45313 3.20833 1.8125V5.35417C3.20833 5.42708 3.17187 5.45833 3.10417 5.45833H2.5625C2.48958 5.45833 2.45833 5.42708 2.45833 5.35417V1.83333C2.45833 1.47396 2.38021 1.1875 2.22917 0.979167C2.07292 0.770833 1.875 0.666667 1.625 0.666667C1.35937 0.666667 1.14583 0.770833 0.979167 0.979167C0.822916 1.17708 0.75 1.45313 0.75 1.8125V5.35417C0.75 5.42708 0.713541 5.45833 0.645833 5.45833H0.104167C0.0312493 5.45833 0 5.42708 0 5.35417V0.1875C0 0.104167 0.0312493 0.0625 0.104167 0.0625H0.645833C0.713541 0.0625 0.75 0.104167 0.75 0.1875V0.5C0.75 0.515625 0.75 0.531251 0.75 0.541667C0.760417 0.541667 0.776041 0.536459 0.791667 0.520833C0.927084 0.343749 1.08854 0.208333 1.27083 0.125C1.46354 0.0416667 1.66667 0 1.875 0C2.13542 0 2.36458 0.0729173 2.5625 0.208333C2.77083 0.333333 2.92187 0.515625 3.02083 0.75C3.03125 0.765625 3.04687 0.770833 3.0625 0.770833C3.07292 0.770833 3.08333 0.765625 3.08333 0.75C3.21875 0.489584 3.39583 0.302083 3.60417 0.1875C3.82292 0.0625 4.0625 0 4.3125 0Z" fill="#D72333"/>
</svg>
