<svg width="62" height="14" viewBox="0 0 62 14" fill="none" xmlns="http://www.w3.org/2000/svg">
<mask id="mask0_25_20494" style="mask-type:luminance" maskUnits="userSpaceOnUse" x="0" y="0" width="62" height="14">
<path d="M61.3333 0H0V13.3333H61.3333V0Z" fill="white"/>
</mask>
<g mask="url(#mask0_25_20494)">
<path d="M3.00781 5.91862C2.9349 5.91862 2.90365 5.88737 2.90365 5.81445V4.54362C2.90365 4.50195 2.88802 4.49154 2.86198 4.50195L1.79948 5.14779L1.73698 5.16862C1.70573 5.16862 1.67969 5.14779 1.65365 5.10612L1.52865 4.87695C1.51302 4.85091 1.50781 4.83008 1.50781 4.81445C1.50781 4.77279 1.51823 4.74675 1.54948 4.73112L2.63281 4.08529C2.64323 4.07487 2.65365 4.05925 2.65365 4.04362C2.65365 4.0332 2.64323 4.02279 2.63281 4.02279L1.54948 3.37695C1.51823 3.36654 1.50781 3.3457 1.50781 3.31445C1.50781 3.28841 1.51302 3.26237 1.52865 3.23112L1.65365 2.98112C1.67969 2.91341 1.72656 2.89779 1.79948 2.93945L2.86198 3.58529C2.88802 3.60091 2.90365 3.5957 2.90365 3.56445V2.29362C2.90365 2.22591 2.9349 2.18945 3.00781 2.18945H3.27865C3.34635 2.18945 3.38281 2.22591 3.38281 2.29362V3.56445C3.38281 3.58008 3.38802 3.5957 3.40365 3.60612C3.41406 3.60612 3.42969 3.60091 3.44531 3.58529L4.48698 2.93945C4.51302 2.92904 4.53385 2.91862 4.54948 2.91862C4.59115 2.91862 4.61719 2.93945 4.63281 2.98112L4.77865 3.23112C4.77865 3.24675 4.77865 3.26237 4.77865 3.27279C4.77865 3.31445 4.76302 3.35091 4.73698 3.37695L3.65365 4.02279C3.65365 4.02279 3.65365 4.0332 3.65365 4.04362C3.65365 4.05925 3.65365 4.07487 3.65365 4.08529L4.73698 4.73112C4.78906 4.77279 4.80469 4.82487 4.77865 4.87695L4.63281 5.12695C4.61719 5.1582 4.59635 5.17904 4.57031 5.18945C4.53906 5.18945 4.51302 5.18425 4.48698 5.16862L3.44531 4.50195C3.42969 4.50195 3.41406 4.51237 3.40365 4.52279C3.38802 4.52279 3.38281 4.5332 3.38281 4.54362V5.81445C3.38281 5.88737 3.34635 5.91862 3.27865 5.91862H3.00781Z" fill="#D72333"/>
<path d="M7.05745 10.1685C6.5262 10.1685 6.09912 10.0122 5.76579 9.68929C5.44287 9.35596 5.28662 8.91846 5.28662 8.37679V7.50179C5.28662 7.41846 5.31787 7.37679 5.39079 7.37679H5.93245C6.00016 7.37679 6.03662 7.41846 6.03662 7.50179V8.39762C6.03662 8.73096 6.12516 9.00179 6.30745 9.21012C6.50016 9.41846 6.75016 9.52262 7.05745 9.52262C7.34912 9.52262 7.5835 9.41846 7.76579 9.21012C7.9585 9.00179 8.05745 8.73096 8.05745 8.39762V2.77262C8.05745 2.70492 8.08871 2.66846 8.16162 2.66846H8.70329C8.771 2.66846 8.80745 2.70492 8.80745 2.77262V8.37679C8.80745 8.91846 8.64079 9.35596 8.30745 9.68929C7.98454 10.0122 7.56787 10.1685 7.05745 10.1685Z" fill="#D72333"/>
<path d="M12.6499 4.83512C12.6499 4.76742 12.6812 4.73096 12.7541 4.73096H13.2957C13.3634 4.73096 13.3999 4.76742 13.3999 4.83512V9.98096C13.3999 10.0539 13.3634 10.0851 13.2957 10.0851H12.7541C12.6812 10.0851 12.6499 10.0539 12.6499 9.98096V9.62679C12.6499 9.60075 12.6395 9.58512 12.6291 9.58512C12.6291 9.58512 12.6187 9.59554 12.6082 9.60596C12.3843 9.98096 12.0301 10.1685 11.5457 10.1685C11.1291 10.1685 10.7853 10.0382 10.5249 9.77262C10.2749 9.51221 10.1499 9.12158 10.1499 8.60596V4.83512C10.1499 4.76742 10.1916 4.73096 10.2749 4.73096H10.7957C10.8791 4.73096 10.9207 4.76742 10.9207 4.83512V8.43929C10.9207 8.78825 10.9884 9.05387 11.1291 9.23096C11.2645 9.41325 11.4728 9.50179 11.7541 9.50179C12.0301 9.50179 12.2437 9.40804 12.3999 9.21012C12.5666 9.00179 12.6499 8.72054 12.6499 8.35596V4.83512Z" fill="#D72333"/>
<mask id="mask1_25_20494" style="mask-type:luminance" maskUnits="userSpaceOnUse" x="13" y="4" width="6" height="9">
<path d="M13.333 4H18.6663V12.9479H13.333V4Z" fill="white"/>
</mask>
<g mask="url(#mask1_25_20494)">
<path d="M17.1372 4.83545C17.1372 4.76774 17.1685 4.73128 17.2414 4.73128H17.783C17.8507 4.73128 17.8872 4.76774 17.8872 4.83545V9.98128C17.8872 10.7313 17.7101 11.299 17.3664 11.6896C17.0174 12.0907 16.4341 12.2729 15.6164 12.2313C15.5435 12.2313 15.5122 12.1948 15.5122 12.1271V11.6688C15.5122 11.5959 15.5435 11.5646 15.6164 11.5646C16.1685 11.575 16.5591 11.4448 16.783 11.1688C17.0174 10.9032 17.1372 10.4865 17.1372 9.91878V9.60628C17.1372 9.59587 17.1268 9.58545 17.1164 9.58545C17.1007 9.57503 17.0851 9.57503 17.0747 9.58545C16.9601 9.75212 16.8091 9.88753 16.6164 9.98128C16.4341 10.0802 16.231 10.1271 16.0122 10.1271C15.5643 10.1271 15.2101 9.98128 14.9497 9.68962C14.6997 9.38753 14.5747 8.9917 14.5747 8.50212V6.27295C14.5747 5.77295 14.6997 5.37712 14.9497 5.08545C15.2101 4.79378 15.5643 4.64795 16.0122 4.64795C16.231 4.64795 16.4341 4.70003 16.6164 4.79378C16.8091 4.87712 16.9601 5.00212 17.0747 5.16878C17.0851 5.20003 17.1007 5.21045 17.1164 5.21045C17.1268 5.20003 17.1372 5.18441 17.1372 5.16878V4.83545ZM16.2414 9.46045C16.5018 9.46045 16.7205 9.37191 16.8872 9.18962C17.0539 8.99691 17.1372 8.75212 17.1372 8.46045V6.31462C17.1372 6.01253 17.0539 5.76774 16.8872 5.58545C16.7205 5.39274 16.5018 5.29378 16.2414 5.29378C15.9757 5.29378 15.7518 5.39274 15.5747 5.58545C15.408 5.76774 15.3247 6.01253 15.3247 6.31462V8.46045C15.3247 8.75212 15.408 8.99691 15.5747 9.18962C15.7518 9.37191 15.9757 9.46045 16.2414 9.46045Z" fill="#D72333"/>
</g>
<path d="M22.2583 7.58545C22.2583 7.65837 22.2218 7.68962 22.1541 7.68962H19.7375C19.7062 7.68962 19.6958 7.70524 19.6958 7.73128V8.50212C19.6958 8.80941 19.7791 9.05941 19.9458 9.25212C20.1125 9.43441 20.3312 9.52295 20.6125 9.52295C20.8312 9.52295 21.0187 9.45524 21.175 9.31462C21.3416 9.1792 21.4458 8.99691 21.4875 8.77295C21.5135 8.70524 21.5552 8.66878 21.6125 8.66878L22.1333 8.68962C22.1593 8.68962 22.1802 8.70524 22.1958 8.73128C22.2218 8.76253 22.2375 8.78857 22.2375 8.81462C22.1802 9.23128 22.0083 9.56462 21.7166 9.81462C21.4354 10.0542 21.0708 10.1688 20.6125 10.1688C20.1125 10.1688 19.7062 10.0229 19.4041 9.73128C19.0968 9.4292 18.9458 9.03337 18.9458 8.54378V6.27295C18.9458 5.78857 19.0968 5.39795 19.4041 5.10628C19.7062 4.8042 20.1125 4.64795 20.6125 4.64795C21.1125 4.64795 21.5083 4.8042 21.8 5.10628C22.1021 5.39795 22.2583 5.78857 22.2583 6.27295V7.58545ZM20.6125 5.29378C20.3312 5.29378 20.1125 5.39274 19.9458 5.58545C19.7791 5.76774 19.6958 6.01253 19.6958 6.31462V7.02295C19.6958 7.0542 19.7062 7.06462 19.7375 7.06462H21.4875C21.5135 7.06462 21.5291 7.0542 21.5291 7.02295V6.31462C21.5291 6.01253 21.4354 5.76774 21.2583 5.58545C21.0916 5.39274 20.8729 5.29378 20.6125 5.29378Z" fill="#D72333"/>
<path d="M25.2743 4.64795C25.7013 4.64795 26.0347 4.8042 26.2743 5.10628C26.5086 5.39795 26.6284 5.80941 26.6284 6.33545V9.98128C26.6284 10.0542 26.592 10.0854 26.5243 10.0854H25.9826C25.9097 10.0854 25.8784 10.0542 25.8784 9.98128V6.39795C25.8784 6.0542 25.8003 5.78857 25.6493 5.60628C25.5086 5.41357 25.3003 5.31462 25.0243 5.31462C24.743 5.31462 24.5243 5.41878 24.3576 5.62712C24.2013 5.82503 24.1284 6.10107 24.1284 6.46045V9.98128C24.1284 10.0542 24.092 10.0854 24.0243 10.0854H23.4826C23.4097 10.0854 23.3784 10.0542 23.3784 9.98128V4.83545C23.3784 4.76774 23.4097 4.73128 23.4826 4.73128H24.0243C24.092 4.73128 24.1284 4.76774 24.1284 4.83545V5.16878C24.1284 5.18441 24.1336 5.20003 24.1493 5.21045C24.1597 5.21045 24.1753 5.20524 24.1909 5.18962C24.3159 5.01253 24.4722 4.87712 24.6701 4.79378C24.8628 4.70003 25.0659 4.64795 25.2743 4.64795Z" fill="#D72333"/>
<path d="M30.3032 2.77262C30.3032 2.70492 30.3345 2.66846 30.4074 2.66846H30.9491C31.0168 2.66846 31.0532 2.70492 31.0532 2.77262V9.98096C31.0532 10.0539 31.0168 10.0851 30.9491 10.0851H30.4074C30.3345 10.0851 30.3032 10.0539 30.3032 9.98096V9.75179C30.3032 9.74137 30.2928 9.73096 30.2824 9.73096C30.2668 9.72054 30.2511 9.72054 30.2407 9.73096C29.9751 10.0226 29.6418 10.1685 29.2407 10.1685C28.7824 10.1685 28.4126 10.0226 28.1366 9.73096C27.8709 9.42887 27.7407 9.03304 27.7407 8.54346V6.27262C27.7407 5.77262 27.8709 5.37679 28.1366 5.08512C28.4126 4.79346 28.7824 4.64762 29.2407 4.64762C29.6418 4.64762 29.9751 4.80387 30.2407 5.10596C30.2511 5.12158 30.2668 5.12679 30.2824 5.12679C30.2928 5.11637 30.3032 5.10075 30.3032 5.08512V2.77262ZM29.4074 9.52262C29.6678 9.52262 29.8866 9.43408 30.0532 9.25179C30.2199 9.05908 30.3032 8.80908 30.3032 8.50179V6.31429C30.3032 6.01221 30.2199 5.76742 30.0532 5.58512C29.8866 5.39242 29.6678 5.29346 29.4074 5.29346C29.1418 5.29346 28.9178 5.39242 28.7407 5.58512C28.5741 5.76742 28.4907 6.01221 28.4907 6.31429V8.50179C28.4907 8.80908 28.5741 9.05908 28.7407 9.25179C28.9178 9.43408 29.1418 9.52262 29.4074 9.52262Z" fill="#D72333"/>
<mask id="mask2_25_20494" style="mask-type:luminance" maskUnits="userSpaceOnUse" x="32" y="4" width="4" height="9">
<path d="M32 4H36V12.9479H32V4Z" fill="white"/>
</mask>
<g mask="url(#mask2_25_20494)">
<path d="M34.7803 4.83545C34.7803 4.76774 34.8115 4.73128 34.8844 4.73128H35.4261C35.4938 4.73128 35.5303 4.76774 35.5303 4.83545V9.98128C35.5303 10.7313 35.3532 11.299 35.0094 11.6896C34.6605 12.0907 34.0771 12.2729 33.2594 12.2313C33.1865 12.2313 33.1553 12.1948 33.1553 12.1271V11.6688C33.1553 11.5959 33.1865 11.5646 33.2594 11.5646C33.8115 11.575 34.2021 11.4448 34.4261 11.1688C34.6605 10.9032 34.7803 10.4865 34.7803 9.91878V9.60628C34.7803 9.59587 34.7699 9.58545 34.7594 9.58545C34.7438 9.57503 34.7282 9.57503 34.7178 9.58545C34.6032 9.75212 34.4521 9.88753 34.2594 9.98128C34.0771 10.0802 33.874 10.1271 33.6553 10.1271C33.2074 10.1271 32.8532 9.98128 32.5928 9.68962C32.3428 9.38753 32.2178 8.9917 32.2178 8.50212V6.27295C32.2178 5.77295 32.3428 5.37712 32.5928 5.08545C32.8532 4.79378 33.2074 4.64795 33.6553 4.64795C33.874 4.64795 34.0771 4.70003 34.2594 4.79378C34.4521 4.87712 34.6032 5.00212 34.7178 5.16878C34.7282 5.20003 34.7438 5.21045 34.7594 5.21045C34.7699 5.20003 34.7803 5.18441 34.7803 5.16878V4.83545ZM33.8844 9.46045C34.1449 9.46045 34.3636 9.37191 34.5303 9.18962C34.6969 8.99691 34.7803 8.75212 34.7803 8.46045V6.31462C34.7803 6.01253 34.6969 5.76774 34.5303 5.58545C34.3636 5.39274 34.1449 5.29378 33.8844 5.29378C33.6188 5.29378 33.3949 5.39274 33.2178 5.58545C33.0511 5.76774 32.9678 6.01253 32.9678 6.31462V8.46045C32.9678 8.75212 33.0511 8.99691 33.2178 9.18962C33.3949 9.37191 33.6188 9.46045 33.8844 9.46045Z" fill="#D72333"/>
</g>
<path d="M39.9014 7.58545C39.9014 7.65837 39.8649 7.68962 39.7972 7.68962H37.3805C37.3493 7.68962 37.3389 7.70524 37.3389 7.73128V8.50212C37.3389 8.80941 37.4222 9.05941 37.5889 9.25212C37.7555 9.43441 37.9743 9.52295 38.2555 9.52295C38.4743 9.52295 38.6618 9.45524 38.818 9.31462C38.9847 9.1792 39.0889 8.99691 39.1305 8.77295C39.1566 8.70524 39.1982 8.66878 39.2555 8.66878L39.7764 8.68962C39.8024 8.68962 39.8232 8.70524 39.8389 8.73128C39.8649 8.76253 39.8805 8.78857 39.8805 8.81462C39.8232 9.23128 39.6514 9.56462 39.3597 9.81462C39.0784 10.0542 38.7139 10.1688 38.2555 10.1688C37.7555 10.1688 37.3493 10.0229 37.0472 9.73128C36.7399 9.4292 36.5889 9.03337 36.5889 8.54378V6.27295C36.5889 5.78857 36.7399 5.39795 37.0472 5.10628C37.3493 4.8042 37.7555 4.64795 38.2555 4.64795C38.7555 4.64795 39.1514 4.8042 39.443 5.10628C39.7451 5.39795 39.9014 5.78857 39.9014 6.27295V7.58545ZM38.2555 5.29378C37.9743 5.29378 37.7555 5.39274 37.5889 5.58545C37.4222 5.76774 37.3389 6.01253 37.3389 6.31462V7.02295C37.3389 7.0542 37.3493 7.06462 37.3805 7.06462H39.1305C39.1566 7.06462 39.1722 7.0542 39.1722 7.02295V6.31462C39.1722 6.01253 39.0784 5.76774 38.9014 5.58545C38.7347 5.39274 38.516 5.29378 38.2555 5.29378Z" fill="#D72333"/>
<path d="M42.8965 5.18962C42.8965 5.26253 42.86 5.29378 42.7923 5.29378H42.0007C41.9694 5.29378 41.959 5.30941 41.959 5.33545V8.56462C41.959 8.89795 42.0111 9.12712 42.1257 9.25212C42.235 9.37712 42.4069 9.43441 42.6465 9.41878H42.7507C42.8184 9.41878 42.8548 9.45524 42.8548 9.52295V9.98128C42.8548 10.0542 42.8184 10.0854 42.7507 10.0854H42.4798C42.0632 10.0854 41.7402 9.99691 41.5215 9.81462C41.3132 9.63753 41.209 9.29378 41.209 8.79378V5.33545C41.209 5.30941 41.1934 5.29378 41.1673 5.29378H40.7507C40.6777 5.29378 40.6465 5.26253 40.6465 5.18962V4.83545C40.6465 4.76774 40.6777 4.73128 40.7507 4.73128H41.1673C41.1934 4.73128 41.209 4.72087 41.209 4.68962V3.50212C41.209 3.43441 41.2402 3.39795 41.3132 3.39795H41.8548C41.9225 3.39795 41.959 3.43441 41.959 3.50212V4.68962C41.959 4.72087 41.9694 4.73128 42.0007 4.73128H42.7923C42.86 4.73128 42.8965 4.76774 42.8965 4.83545V5.18962Z" fill="#D72333"/>
<path d="M45.6597 4.66846C45.8368 4.66846 45.993 4.71012 46.118 4.79346C46.1597 4.82471 46.1701 4.87158 46.1597 4.93929L46.0347 5.48096C46.0347 5.55387 45.993 5.57471 45.9097 5.54346C45.8263 5.50179 45.7222 5.48096 45.5972 5.48096C45.5399 5.48096 45.4982 5.49137 45.4722 5.50179C45.2065 5.51742 44.993 5.64762 44.8263 5.89762C44.6701 6.14762 44.5972 6.45492 44.5972 6.81429V9.98096C44.5972 10.0539 44.5607 10.0851 44.493 10.0851H43.9513C43.8784 10.0851 43.8472 10.0539 43.8472 9.98096V4.83512C43.8472 4.76742 43.8784 4.73096 43.9513 4.73096H44.493C44.5607 4.73096 44.5972 4.76742 44.5972 4.83512V5.48096C44.5972 5.49658 44.6024 5.50179 44.618 5.50179C44.6284 5.50179 44.644 5.49658 44.6597 5.48096C44.8524 4.93929 45.1857 4.66846 45.6597 4.66846Z" fill="#D72333"/>
<path d="M48.5002 4.64779C49.0002 4.64779 49.396 4.80925 49.6877 5.12695C49.9793 5.44987 50.1252 5.87695 50.1252 6.41862V9.98112C50.1252 10.054 50.0887 10.0853 50.021 10.0853H49.4793C49.4064 10.0853 49.3752 10.054 49.3752 9.98112V9.66862C49.3752 9.6582 49.3647 9.64779 49.3543 9.64779C49.3543 9.63737 49.3439 9.63737 49.3335 9.64779C49.0679 9.99675 48.672 10.1686 48.146 10.1686C47.7554 10.1686 47.4168 10.0592 47.1252 9.83529C46.8439 9.61654 46.7085 9.2207 46.7085 8.64779C46.7085 8.05404 46.8804 7.61654 47.2293 7.33529C47.5731 7.05925 48.0314 6.91862 48.6043 6.91862H49.3335C49.3595 6.91862 49.3752 6.9082 49.3752 6.87695V6.46029C49.3752 6.11654 49.2918 5.83529 49.1252 5.62695C48.9689 5.4082 48.7554 5.29362 48.4793 5.29362C48.271 5.29362 48.0887 5.37175 47.9377 5.52279C47.7814 5.66341 47.6929 5.83529 47.6668 6.04362C47.6668 6.12695 47.6304 6.16862 47.5627 6.16862L46.9793 6.14779C46.9377 6.14779 46.9012 6.14258 46.8752 6.12695C46.8595 6.10091 46.8595 6.07487 46.8752 6.04362C46.9012 5.62695 47.0679 5.29362 47.3752 5.04362C47.6772 4.7832 48.0522 4.64779 48.5002 4.64779ZM48.3127 9.52279C48.6043 9.52279 48.8543 9.43425 49.0627 9.25195C49.271 9.05925 49.3752 8.79362 49.3752 8.46029V7.56445C49.3752 7.53841 49.3595 7.52279 49.3335 7.52279H48.5835C48.2502 7.52279 47.9793 7.61654 47.771 7.79362C47.5731 7.97591 47.4793 8.24154 47.4793 8.58529C47.4793 8.9082 47.5522 9.14258 47.7085 9.29362C47.8595 9.44987 48.0627 9.52279 48.3127 9.52279ZM49.271 3.75195C49.0887 3.75195 48.9429 3.69987 48.8335 3.58529C48.7189 3.47591 48.6668 3.33529 48.6668 3.16862C48.6668 2.99154 48.7189 2.8457 48.8335 2.73112C48.9429 2.62175 49.0887 2.56445 49.271 2.56445C49.4377 2.56445 49.5731 2.62175 49.6877 2.73112C49.797 2.8457 49.8543 2.99154 49.8543 3.16862C49.8543 3.33529 49.797 3.47591 49.6877 3.58529C49.5731 3.69987 49.4377 3.75195 49.271 3.75195ZM47.6877 3.75195C47.5054 3.75195 47.3595 3.69987 47.2502 3.58529C47.1356 3.47591 47.0835 3.33529 47.0835 3.16862C47.0835 2.99154 47.1356 2.8457 47.2502 2.73112C47.3595 2.62175 47.5054 2.56445 47.6877 2.56445C47.8543 2.56445 47.9897 2.62175 48.1043 2.73112C48.2137 2.8457 48.271 2.99154 48.271 3.16862C48.271 3.33529 48.2137 3.47591 48.1043 3.58529C47.9897 3.69987 47.8543 3.75195 47.6877 3.75195Z" fill="#D72333"/>
<path d="M53.1834 4.64795C53.6105 4.64795 53.9438 4.8042 54.1834 5.10628C54.4178 5.39795 54.5376 5.80941 54.5376 6.33545V9.98128C54.5376 10.0542 54.5011 10.0854 54.4334 10.0854H53.8918C53.8188 10.0854 53.7876 10.0542 53.7876 9.98128V6.39795C53.7876 6.0542 53.7095 5.78857 53.5584 5.60628C53.4178 5.41357 53.2095 5.31462 52.9334 5.31462C52.6522 5.31462 52.4334 5.41878 52.2668 5.62712C52.1105 5.82503 52.0376 6.10107 52.0376 6.46045V9.98128C52.0376 10.0542 52.0011 10.0854 51.9334 10.0854H51.3918C51.3188 10.0854 51.2876 10.0542 51.2876 9.98128V4.83545C51.2876 4.76774 51.3188 4.73128 51.3918 4.73128H51.9334C52.0011 4.73128 52.0376 4.76774 52.0376 4.83545V5.16878C52.0376 5.18441 52.0428 5.20003 52.0584 5.21045C52.0688 5.21045 52.0845 5.20524 52.1001 5.18962C52.2251 5.01253 52.3813 4.87712 52.5793 4.79378C52.772 4.70003 52.9751 4.64795 53.1834 4.64795Z" fill="#D72333"/>
<path d="M55.8791 10.0851C55.8062 10.0851 55.7749 10.0539 55.7749 9.98096V2.77262C55.7749 2.70492 55.8062 2.66846 55.8791 2.66846H56.4207C56.4884 2.66846 56.5249 2.70492 56.5249 2.77262V7.04346C56.5249 7.05908 56.5301 7.07471 56.5457 7.08512C56.5562 7.08512 56.5718 7.07992 56.5874 7.06429L58.1707 4.79346C58.1968 4.75179 58.2384 4.73096 58.2957 4.73096H58.8374C58.8791 4.73096 58.9051 4.74658 58.9207 4.77262C58.9312 4.80387 58.9259 4.82992 58.8999 4.85596L57.8582 6.35596C57.8426 6.38721 57.8426 6.40804 57.8582 6.41846L59.0874 9.96012L59.1082 10.0018C59.1082 10.0591 59.0718 10.0851 59.0041 10.0851H58.4624C58.3895 10.0851 58.3426 10.0591 58.3166 10.0018L57.3791 7.06429C57.3791 7.02262 57.3582 7.01742 57.3166 7.04346L56.5457 8.14762C56.5301 8.16325 56.5249 8.18408 56.5249 8.21012V9.98096C56.5249 10.0539 56.4884 10.0851 56.4207 10.0851H55.8791Z" fill="#D72333"/>
</g>
</svg>
