<svg width="214" height="82" viewBox="0 0 214 82" fill="none" xmlns="http://www.w3.org/2000/svg">
<mask id="mask0_24_7307" style="mask-type:luminance" maskUnits="userSpaceOnUse" x="0" y="0" width="214" height="82">
<path d="M213.333 0H0V81.3333H213.333V0Z" fill="white"/>
</mask>
<g mask="url(#mask0_24_7307)">
<path d="M7.47949 12.5464C7.47949 13.4943 7.21908 14.2287 6.70866 14.7547C6.20866 15.2703 5.52637 15.5256 4.66699 15.5256H2.27116C2.15657 15.5256 2.10449 15.4735 2.10449 15.3589V4.69222C2.10449 4.59847 2.15657 4.54639 2.27116 4.54639H4.52116C5.4222 4.54639 6.13053 4.79639 6.64616 5.29639C7.15658 5.78597 7.41699 6.4943 7.41699 7.42139C7.41699 8.58805 6.97949 9.39014 6.10449 9.81722C6.08887 9.83285 6.08366 9.84847 6.08366 9.85889C6.08366 9.85889 6.08366 9.8693 6.08366 9.87972C7.01074 10.411 7.47949 11.2964 7.47949 12.5464ZM3.29199 5.52555C3.25033 5.52555 3.22949 5.54639 3.22949 5.58805V9.35889C3.22949 9.40055 3.25033 9.42139 3.29199 9.42139H4.52116C5.08887 9.42139 5.52637 9.25472 5.83366 8.92139C6.15137 8.58805 6.31283 8.1193 6.31283 7.50472C6.31283 6.87972 6.15137 6.39535 5.83366 6.04639C5.52637 5.70264 5.08887 5.52555 4.52116 5.52555H3.29199ZM4.58366 14.5464C5.13574 14.5464 5.56803 14.3589 5.87533 13.9839C6.19303 13.6089 6.35449 13.0881 6.35449 12.4214C6.35449 11.7443 6.19303 11.2131 5.87533 10.8381C5.56803 10.4631 5.13574 10.2756 4.58366 10.2756H3.29199C3.25033 10.2756 3.22949 10.2964 3.22949 10.3381V14.4839C3.22949 14.5256 3.25033 14.5464 3.29199 14.5464H4.58366Z" fill="#D72333"/>
<path d="M12.6058 7.75505C12.6058 7.64567 12.6527 7.58838 12.7516 7.58838H13.5641C13.6579 7.58838 13.71 7.64567 13.71 7.75505V15.3592C13.71 15.4738 13.6579 15.5259 13.5641 15.5259H12.7516C12.6527 15.5259 12.6058 15.4738 12.6058 15.3592V14.8384C12.6058 14.8123 12.5954 14.7967 12.585 14.7967C12.5693 14.7967 12.5485 14.8071 12.5225 14.8175C12.1995 15.3592 11.6787 15.63 10.96 15.63C10.335 15.63 9.83496 15.4425 9.45996 15.0675C9.08496 14.6821 8.89746 14.104 8.89746 13.3384V7.75505C8.89746 7.64567 8.94954 7.58838 9.06413 7.58838H9.85579C9.96517 7.58838 10.0225 7.64567 10.0225 7.75505V13.0884C10.0225 13.604 10.1266 13.9998 10.335 14.2759C10.5537 14.5415 10.8662 14.6717 11.2725 14.6717C11.6891 14.6717 12.012 14.5207 12.2516 14.2134C12.486 13.9113 12.6058 13.4946 12.6058 12.9634V7.75505Z" fill="#D72333"/>
<path d="M18.4237 8.25472C18.4237 8.3693 18.3664 8.42139 18.257 8.42139H17.0695C17.0278 8.42139 17.007 8.44222 17.007 8.48389V13.2756C17.007 13.7651 17.0903 14.0985 17.257 14.2756C17.4237 14.4578 17.6789 14.5464 18.0278 14.5464H18.1945C18.2882 14.5464 18.3403 14.5985 18.3403 14.6922V15.3589C18.3403 15.4735 18.2882 15.5256 18.1945 15.5256H17.7987C17.1737 15.5256 16.6997 15.3953 16.382 15.1297C16.0591 14.8693 15.9028 14.3589 15.9028 13.6089V8.48389C15.9028 8.44222 15.882 8.42139 15.8403 8.42139H15.2362C15.1372 8.42139 15.0903 8.3693 15.0903 8.25472V7.75472C15.0903 7.64535 15.1372 7.58805 15.2362 7.58805H15.8403C15.882 7.58805 15.9028 7.56722 15.9028 7.52555V5.77555C15.9028 5.66618 15.9549 5.60889 16.0695 5.60889H16.8612C16.9549 5.60889 17.007 5.66618 17.007 5.77555V7.52555C17.007 7.56722 17.0278 7.58805 17.0695 7.58805H18.257C18.3664 7.58805 18.4237 7.64535 18.4237 7.75472V8.25472Z" fill="#D72333"/>
<path d="M22.6117 8.25472C22.6117 8.3693 22.5544 8.42139 22.445 8.42139H21.2575C21.2158 8.42139 21.195 8.44222 21.195 8.48389V13.2756C21.195 13.7651 21.2783 14.0985 21.445 14.2756C21.6117 14.4578 21.8669 14.5464 22.2158 14.5464H22.3825C22.4762 14.5464 22.5283 14.5985 22.5283 14.6922V15.3589C22.5283 15.4735 22.4762 15.5256 22.3825 15.5256H21.9867C21.3617 15.5256 20.8877 15.3953 20.57 15.1297C20.2471 14.8693 20.0908 14.3589 20.0908 13.6089V8.48389C20.0908 8.44222 20.07 8.42139 20.0283 8.42139H19.4242C19.3252 8.42139 19.2783 8.3693 19.2783 8.25472V7.75472C19.2783 7.64535 19.3252 7.58805 19.4242 7.58805H20.0283C20.07 7.58805 20.0908 7.56722 20.0908 7.52555V5.77555C20.0908 5.66618 20.1429 5.60889 20.2575 5.60889H21.0492C21.1429 5.60889 21.195 5.66618 21.195 5.77555V7.52555C21.195 7.56722 21.2158 7.58805 21.2575 7.58805H22.445C22.5544 7.58805 22.6117 7.64535 22.6117 7.75472V8.25472Z" fill="#D72333"/>
<path d="M28.7376 11.8175C28.7376 11.9321 28.6855 11.9842 28.5918 11.9842H25.0085C24.9668 11.9842 24.946 12.005 24.946 12.0467V13.1925C24.946 13.6248 25.071 13.979 25.321 14.255C25.571 14.5363 25.8887 14.6717 26.2793 14.6717C26.6126 14.6717 26.8939 14.578 27.1335 14.38C27.3678 14.1717 27.5189 13.9113 27.5918 13.5884C27.6335 13.4946 27.696 13.4425 27.7793 13.4425L28.5501 13.4634C28.5918 13.4634 28.623 13.4842 28.6543 13.5259C28.696 13.5571 28.7064 13.5988 28.696 13.6509C28.6126 14.2655 28.3522 14.7498 27.9251 15.1092C27.5085 15.4738 26.9564 15.6509 26.2793 15.6509C25.5397 15.6509 24.9512 15.4373 24.5085 15.005C24.0605 14.5623 23.8418 13.979 23.8418 13.255V9.85921C23.8418 9.15088 24.0605 8.57796 24.5085 8.13005C24.9512 7.68734 25.5397 7.46338 26.2793 7.46338C27.0293 7.46338 27.623 7.68734 28.071 8.13005C28.5137 8.57796 28.7376 9.15088 28.7376 9.85921V11.8175ZM26.2793 8.44255C25.8887 8.44255 25.571 8.58317 25.321 8.85921C25.071 9.14046 24.946 9.49984 24.946 9.94255V10.9842C24.946 11.0259 24.9668 11.0467 25.0085 11.0467H27.5918C27.6335 11.0467 27.6543 11.0259 27.6543 10.9842V9.94255C27.6543 9.49984 27.5189 9.14046 27.2585 8.85921C27.0085 8.58317 26.6803 8.44255 26.2793 8.44255Z" fill="#D72333"/>
<path d="M33.0801 7.50488C33.3405 7.50488 33.5645 7.56217 33.7467 7.67155C33.8145 7.72884 33.8405 7.79655 33.8301 7.87988L33.6426 8.69238C33.627 8.79134 33.5645 8.8278 33.4551 8.79655C33.3301 8.72884 33.1686 8.69238 32.9759 8.69238C32.8926 8.69238 32.8301 8.7028 32.7884 8.71322C32.4134 8.74447 32.1009 8.94238 31.8509 9.31738C31.6113 9.68197 31.4967 10.1299 31.4967 10.6715V15.3591C31.4967 15.4736 31.4447 15.5257 31.3509 15.5257H30.5384C30.4395 15.5257 30.3926 15.4736 30.3926 15.3591V7.75488C30.3926 7.64551 30.4395 7.58822 30.5384 7.58822H31.3509C31.4447 7.58822 31.4967 7.64551 31.4967 7.75488V8.69238C31.4967 8.72363 31.502 8.73405 31.5176 8.73405C31.5436 8.73405 31.5645 8.72363 31.5801 8.69238C31.8822 7.90072 32.3822 7.50488 33.0801 7.50488Z" fill="#D72333"/>
<path d="M34.765 16.755C34.7233 16.755 34.6868 16.7394 34.6608 16.7134C34.6296 16.6821 34.6191 16.6405 34.6191 16.5884L35.1191 13.2342C35.1191 13.1405 35.166 13.0884 35.265 13.0884H35.9733C36.0827 13.0884 36.1296 13.1509 36.1191 13.2759L35.4108 16.63C35.3952 16.7134 35.3379 16.755 35.2441 16.755H34.765Z" fill="#D72333"/>
<path d="M45.8452 4.65055C45.8713 4.58285 45.9338 4.54639 46.0327 4.54639H46.8452C46.9546 4.54639 47.0119 4.59847 47.0119 4.69222V15.3589C47.0119 15.4735 46.9546 15.5256 46.8452 15.5256H46.0535C45.939 15.5256 45.8869 15.4735 45.8869 15.3589V6.96305C45.8869 6.93701 45.8765 6.92139 45.866 6.92139C45.8504 6.92139 45.8296 6.9318 45.8035 6.94222L44.1785 10.3381C44.1473 10.411 44.1004 10.4422 44.0327 10.4422C43.9494 10.4422 43.8869 10.411 43.8452 10.3381L42.2202 6.96305C42.189 6.93701 42.1681 6.92139 42.1577 6.92139C42.1421 6.92139 42.1369 6.94222 42.1369 6.98389V15.3589C42.1369 15.4735 42.0848 15.5256 41.991 15.5256H41.1785C41.0796 15.5256 41.0327 15.4735 41.0327 15.3589V4.69222C41.0327 4.59847 41.0796 4.54639 41.1785 4.54639H41.991C42.0848 4.54639 42.1473 4.58285 42.1785 4.65055L43.9702 8.27555C43.9806 8.3068 43.9963 8.31722 44.0119 8.31722C44.0379 8.31722 44.0588 8.3068 44.0744 8.27555L45.8452 4.65055Z" fill="#D72333"/>
<path d="M51.3719 7.46338C52.1063 7.46338 52.6896 7.70296 53.1219 8.17171C53.5646 8.64567 53.7886 9.28629 53.7886 10.0884V15.3592C53.7886 15.4738 53.7365 15.5259 53.6427 15.5259H52.8302C52.7313 15.5259 52.6844 15.4738 52.6844 15.3592V14.9009C52.6844 14.8748 52.674 14.8592 52.6636 14.8592C52.6479 14.8592 52.6271 14.8696 52.6011 14.88C52.2104 15.3957 51.6323 15.6509 50.8719 15.6509C50.2886 15.6509 49.7782 15.4946 49.3511 15.1717C48.9344 14.8384 48.7261 14.2498 48.7261 13.4009C48.7261 12.5155 48.9813 11.8696 49.4969 11.4634C50.0073 11.0467 50.6844 10.8384 51.5177 10.8384H52.6219C52.6636 10.8384 52.6844 10.8175 52.6844 10.7759V10.1509C52.6844 9.64046 52.5594 9.229 52.3094 8.92171C52.0698 8.604 51.7521 8.44255 51.3511 8.44255C51.0282 8.44255 50.7573 8.54671 50.5386 8.75505C50.3146 8.96338 50.1844 9.229 50.1427 9.54671C50.1427 9.66129 50.0854 9.71338 49.9761 9.71338L49.1011 9.69255C49.0438 9.69255 49.0021 9.68213 48.9761 9.65088C48.9604 9.60921 48.9552 9.56755 48.9552 9.52588C49.0073 8.9165 49.2573 8.42171 49.7052 8.04671C50.1636 7.66129 50.7157 7.46338 51.3719 7.46338ZM51.1011 14.6717C51.5282 14.6717 51.8979 14.5363 52.2052 14.255C52.5229 13.979 52.6844 13.5988 52.6844 13.1092V11.7967C52.6844 11.755 52.6636 11.7342 52.6219 11.7342H51.4969C50.9969 11.7342 50.6011 11.8696 50.3094 12.13C50.0177 12.3957 49.8719 12.7915 49.8719 13.3175C49.8719 13.7759 49.9813 14.1196 50.2052 14.3384C50.424 14.5623 50.7261 14.6717 51.1011 14.6717Z" fill="#D72333"/>
<path d="M58.2256 7.50488C58.486 7.50488 58.71 7.56217 58.8923 7.67155C58.96 7.72884 58.986 7.79655 58.9756 7.87988L58.7881 8.69238C58.7725 8.79134 58.71 8.8278 58.6006 8.79655C58.4756 8.72884 58.3141 8.69238 58.1214 8.69238C58.0381 8.69238 57.9756 8.7028 57.9339 8.71322C57.5589 8.74447 57.2464 8.94238 56.9964 9.31738C56.7568 9.68197 56.6423 10.1299 56.6423 10.6715V15.3591C56.6423 15.4736 56.5902 15.5257 56.4964 15.5257H55.6839C55.585 15.5257 55.5381 15.4736 55.5381 15.3591V7.75488C55.5381 7.64551 55.585 7.58822 55.6839 7.58822H56.4964C56.5902 7.58822 56.6423 7.64551 56.6423 7.75488V8.69238C56.6423 8.72363 56.6475 8.73405 56.6631 8.73405C56.6891 8.73405 56.71 8.72363 56.7256 8.69238C57.0277 7.90072 57.5277 7.50488 58.2256 7.50488Z" fill="#D72333"/>
<path d="M66.4728 7.48389C67.0978 7.48389 67.5822 7.71305 67.9312 8.17139C68.2749 8.62972 68.452 9.27035 68.452 10.0881V15.3589C68.452 15.4735 68.3947 15.5256 68.2853 15.5256H67.5145C67.3999 15.5256 67.3478 15.4735 67.3478 15.3589V10.1714C67.3478 9.64535 67.2332 9.22868 67.0145 8.92139C66.7905 8.60368 66.4937 8.44222 66.1187 8.44222C65.728 8.44222 65.4155 8.59847 65.1812 8.90055C64.9572 9.20785 64.8478 9.62451 64.8478 10.1506V15.3589C64.8478 15.4735 64.7905 15.5256 64.6812 15.5256H63.8895C63.7749 15.5256 63.7228 15.4735 63.7228 15.3589V10.1714C63.7228 9.64535 63.6082 9.22868 63.3895 8.92139C63.1655 8.60368 62.8739 8.44222 62.5145 8.44222C62.1239 8.44222 61.8114 8.59847 61.577 8.90055C61.3374 9.20785 61.2228 9.62451 61.2228 10.1506V15.3589C61.2228 15.4735 61.1655 15.5256 61.0562 15.5256H60.2645C60.1655 15.5256 60.1187 15.4735 60.1187 15.3589V7.75472C60.1187 7.64535 60.1655 7.58805 60.2645 7.58805H61.0562C61.1655 7.58805 61.2228 7.64535 61.2228 7.75472V8.23389C61.2228 8.24951 61.228 8.26514 61.2437 8.27555C61.2541 8.27555 61.2697 8.27035 61.2853 8.25472C61.4937 7.9943 61.728 7.79639 61.9937 7.67139C62.2697 7.54639 62.5614 7.48389 62.8687 7.48389C63.2541 7.48389 63.5978 7.58285 63.8895 7.77555C64.1812 7.97347 64.4103 8.2443 64.577 8.58805C64.5874 8.6193 64.603 8.62972 64.6187 8.62972C64.6447 8.62972 64.6603 8.60889 64.6603 8.56722C64.853 8.19222 65.1082 7.92139 65.4312 7.75472C65.7645 7.57764 66.1082 7.48389 66.4728 7.48389Z" fill="#D72333"/>
<path d="M75.0125 11.8175C75.0125 11.9321 74.9604 11.9842 74.8667 11.9842H71.2834C71.2417 11.9842 71.2209 12.005 71.2209 12.0467V13.1925C71.2209 13.6248 71.3459 13.979 71.5959 14.255C71.8459 14.5363 72.1636 14.6717 72.5542 14.6717C72.8875 14.6717 73.1688 14.578 73.4084 14.38C73.6427 14.1717 73.7938 13.9113 73.8667 13.5884C73.9084 13.4946 73.9709 13.4425 74.0542 13.4425L74.825 13.4634C74.8667 13.4634 74.898 13.4842 74.9292 13.5259C74.9709 13.5571 74.9813 13.5988 74.9709 13.6509C74.8875 14.2655 74.6271 14.7498 74.2 15.1092C73.7834 15.4738 73.2313 15.6509 72.5542 15.6509C71.8146 15.6509 71.2261 15.4373 70.7834 15.005C70.3354 14.5623 70.1167 13.979 70.1167 13.255V9.85921C70.1167 9.15088 70.3354 8.57796 70.7834 8.13005C71.2261 7.68734 71.8146 7.46338 72.5542 7.46338C73.3042 7.46338 73.8979 7.68734 74.3459 8.13005C74.7886 8.57796 75.0125 9.15088 75.0125 9.85921V11.8175ZM72.5542 8.44255C72.1636 8.44255 71.8459 8.58317 71.5959 8.85921C71.3459 9.14046 71.2209 9.49984 71.2209 9.94255V10.9842C71.2209 11.0259 71.2417 11.0467 71.2834 11.0467H73.8667C73.9084 11.0467 73.9292 11.0259 73.9292 10.9842V9.94255C73.9292 9.49984 73.7938 9.14046 73.5334 8.85921C73.2834 8.58317 72.9552 8.44255 72.5542 8.44255Z" fill="#D72333"/>
<path d="M76.7301 15.5256C76.6156 15.5256 76.5635 15.4735 76.5635 15.3589V4.69222C76.5635 4.59847 76.6156 4.54639 76.7301 4.54639H77.5218C77.6312 4.54639 77.6885 4.59847 77.6885 4.69222V15.3589C77.6885 15.4735 77.6312 15.5256 77.5218 15.5256H76.7301Z" fill="#D72333"/>
<path d="M81.8192 7.46338C82.5535 7.46338 83.1369 7.70296 83.5692 8.17171C84.0119 8.64567 84.2358 9.28629 84.2358 10.0884V15.3592C84.2358 15.4738 84.1838 15.5259 84.09 15.5259H83.2775C83.1785 15.5259 83.1317 15.4738 83.1317 15.3592V14.9009C83.1317 14.8748 83.1213 14.8592 83.1108 14.8592C83.0952 14.8592 83.0744 14.8696 83.0483 14.88C82.6577 15.3957 82.0796 15.6509 81.3192 15.6509C80.7358 15.6509 80.2254 15.4946 79.7983 15.1717C79.3817 14.8384 79.1733 14.2498 79.1733 13.4009C79.1733 12.5155 79.4285 11.8696 79.9442 11.4634C80.4546 11.0467 81.1317 10.8384 81.965 10.8384H83.0692C83.1108 10.8384 83.1317 10.8175 83.1317 10.7759V10.1509C83.1317 9.64046 83.0067 9.229 82.7567 8.92171C82.5171 8.604 82.1994 8.44255 81.7983 8.44255C81.4754 8.44255 81.2046 8.54671 80.9858 8.75505C80.7619 8.96338 80.6317 9.229 80.59 9.54671C80.59 9.66129 80.5327 9.71338 80.4233 9.71338L79.5483 9.69255C79.491 9.69255 79.4494 9.68213 79.4233 9.65088C79.4077 9.60921 79.4025 9.56755 79.4025 9.52588C79.4546 8.9165 79.7046 8.42171 80.1525 8.04671C80.6108 7.66129 81.1629 7.46338 81.8192 7.46338ZM81.5483 14.6717C81.9754 14.6717 82.3452 14.5363 82.6525 14.255C82.9702 13.979 83.1317 13.5988 83.1317 13.1092V11.7967C83.1317 11.755 83.1108 11.7342 83.0692 11.7342H81.9442C81.4442 11.7342 81.0483 11.8696 80.7567 12.13C80.465 12.3957 80.3192 12.7915 80.3192 13.3175C80.3192 13.7759 80.4285 14.1196 80.6525 14.3384C80.8713 14.5623 81.1733 14.6717 81.5483 14.6717Z" fill="#D72333"/>
<path d="M89.5897 4.69222C89.5897 4.59847 89.6418 4.54639 89.7563 4.54639H90.548C90.6574 4.54639 90.7147 4.59847 90.7147 4.69222V15.3589C90.7147 15.4735 90.6574 15.5256 90.548 15.5256H89.7563C89.6418 15.5256 89.5897 15.4735 89.5897 15.3589V15.0256C89.5897 14.9995 89.5793 14.9839 89.5688 14.9839C89.5532 14.9735 89.5324 14.9735 89.5063 14.9839C89.1157 15.4318 88.6157 15.6506 88.0063 15.6506C87.3397 15.6506 86.8032 15.4318 86.4022 14.9839C86.0116 14.5412 85.8188 13.9631 85.8188 13.2547V9.85889C85.8188 9.12451 86.0116 8.54118 86.4022 8.10889C86.8032 7.6818 87.3397 7.46305 88.0063 7.46305C88.6157 7.46305 89.1157 7.68701 89.5063 8.12972C89.5324 8.16097 89.5532 8.16618 89.5688 8.15055C89.5793 8.14014 89.5897 8.12451 89.5897 8.10889V4.69222ZM88.2772 14.6714C88.6626 14.6714 88.9751 14.536 89.2147 14.2547C89.4647 13.9787 89.5897 13.6245 89.5897 13.1922V9.94222C89.5897 9.49951 89.4647 9.14014 89.2147 8.85889C88.9751 8.58285 88.6626 8.44222 88.2772 8.44222C87.8709 8.44222 87.5376 8.58285 87.2772 8.85889C87.0272 9.14014 86.9022 9.49951 86.9022 9.94222V13.1922C86.9022 13.6245 87.0272 13.9787 87.2772 14.2547C87.5376 14.536 87.8709 14.6714 88.2772 14.6714Z" fill="#D72333"/>
<path d="M97.3499 11.8175C97.3499 11.9321 97.2979 11.9842 97.2041 11.9842H93.6208C93.5791 11.9842 93.5583 12.005 93.5583 12.0467V13.1925C93.5583 13.6248 93.6833 13.979 93.9333 14.255C94.1833 14.5363 94.501 14.6717 94.8916 14.6717C95.2249 14.6717 95.5062 14.578 95.7458 14.38C95.9801 14.1717 96.1312 13.9113 96.2041 13.5884C96.2458 13.4946 96.3083 13.4425 96.3916 13.4425L97.1624 13.4634C97.2041 13.4634 97.2354 13.4842 97.2666 13.5259C97.3083 13.5571 97.3187 13.5988 97.3083 13.6509C97.2249 14.2655 96.9645 14.7498 96.5374 15.1092C96.1208 15.4738 95.5687 15.6509 94.8916 15.6509C94.152 15.6509 93.5635 15.4373 93.1208 15.005C92.6729 14.5623 92.4541 13.979 92.4541 13.255V9.85921C92.4541 9.15088 92.6729 8.57796 93.1208 8.13005C93.5635 7.68734 94.152 7.46338 94.8916 7.46338C95.6416 7.46338 96.2354 7.68734 96.6833 8.13005C97.126 8.57796 97.3499 9.15088 97.3499 9.85921V11.8175ZM94.8916 8.44255C94.501 8.44255 94.1833 8.58317 93.9333 8.85921C93.6833 9.14046 93.5583 9.49984 93.5583 9.94255V10.9842C93.5583 11.0259 93.5791 11.0467 93.6208 11.0467H96.2041C96.2458 11.0467 96.2666 11.0259 96.2666 10.9842V9.94255C96.2666 9.49984 96.1312 9.14046 95.8708 8.85921C95.6208 8.58317 95.2926 8.44255 94.8916 8.44255Z" fill="#D72333"/>
<path d="M98.6868 16.755C98.6452 16.755 98.6087 16.7394 98.5827 16.7134C98.5514 16.6821 98.541 16.6405 98.541 16.5884L99.041 13.2342C99.041 13.1405 99.0879 13.0884 99.1868 13.0884H99.8952C100.005 13.0884 100.051 13.1509 100.041 13.2759L99.3327 16.63C99.3171 16.7134 99.2598 16.755 99.166 16.755H98.6868Z" fill="#D72333"/>
<path d="M109.017 4.69222C109.017 4.59847 109.064 4.54639 109.163 4.54639H109.976C110.069 4.54639 110.121 4.59847 110.121 4.69222V15.3589C110.121 15.4735 110.069 15.5256 109.976 15.5256H109.163C109.064 15.5256 109.017 15.4735 109.017 15.3589V10.5881C109.017 10.5464 108.996 10.5256 108.955 10.5256H106.163C106.121 10.5256 106.101 10.5464 106.101 10.5881V15.3589C106.101 15.4735 106.043 15.5256 105.934 15.5256H105.142C105.028 15.5256 104.976 15.4735 104.976 15.3589V4.69222C104.976 4.59847 105.028 4.54639 105.142 4.54639H105.934C106.043 4.54639 106.101 4.59847 106.101 4.69222V9.46305C106.101 9.50472 106.121 9.52555 106.163 9.52555H108.955C108.996 9.52555 109.017 9.50472 109.017 9.46305V4.69222Z" fill="#D72333"/>
<path d="M114.505 15.6509C113.755 15.6509 113.156 15.4373 112.713 15.005C112.265 14.5623 112.046 13.979 112.046 13.255V9.88005C112.046 9.17171 112.265 8.5988 112.713 8.15088C113.156 7.69255 113.755 7.46338 114.505 7.46338C115.255 7.46338 115.848 7.69255 116.296 8.15088C116.755 8.5988 116.984 9.17171 116.984 9.88005V13.255C116.984 13.979 116.755 14.5623 116.296 15.005C115.848 15.4373 115.255 15.6509 114.505 15.6509ZM114.505 14.6717C114.89 14.6717 115.213 14.5363 115.463 14.255C115.723 13.979 115.859 13.6196 115.859 13.1717V9.94255C115.859 9.49984 115.723 9.14046 115.463 8.85921C115.213 8.58317 114.89 8.44255 114.505 8.44255C114.098 8.44255 113.776 8.58317 113.526 8.85921C113.276 9.14046 113.151 9.49984 113.151 9.94255V13.1717C113.151 13.6196 113.276 13.979 113.526 14.255C113.776 14.5363 114.098 14.6717 114.505 14.6717Z" fill="#D72333"/>
<path d="M121.535 7.48389C122.171 7.48389 122.665 7.70785 123.014 8.15055C123.374 8.58285 123.556 9.18701 123.556 9.96305V15.3589C123.556 15.4735 123.499 15.5256 123.389 15.5256H122.598C122.483 15.5256 122.431 15.4735 122.431 15.3589V10.0672C122.431 9.5568 122.316 9.16097 122.098 8.87972C121.874 8.58805 121.561 8.44222 121.16 8.44222C120.743 8.44222 120.415 8.59847 120.181 8.90055C119.941 9.20785 119.827 9.62451 119.827 10.1506V15.3589C119.827 15.4735 119.775 15.5256 119.681 15.5256H118.868C118.77 15.5256 118.723 15.4735 118.723 15.3589V7.75472C118.723 7.64535 118.77 7.58805 118.868 7.58805H119.681C119.775 7.58805 119.827 7.64535 119.827 7.75472V8.25472C119.827 8.27035 119.832 8.28597 119.848 8.29639C119.874 8.31201 119.895 8.29639 119.91 8.25472C120.103 8.00472 120.337 7.81722 120.618 7.69222C120.91 7.5568 121.212 7.48389 121.535 7.48389Z" fill="#D72333"/>
<path d="M126.041 6.15072C125.775 6.15072 125.561 6.06738 125.395 5.90072C125.238 5.73405 125.166 5.52572 125.166 5.27572C125.166 5.0153 125.238 4.79655 125.395 4.62988C125.561 4.46322 125.775 4.37988 126.041 4.37988C126.291 4.37988 126.499 4.46322 126.666 4.62988C126.832 4.79655 126.916 5.0153 126.916 5.27572C126.916 5.52572 126.832 5.73405 126.666 5.90072C126.499 6.06738 126.291 6.15072 126.041 6.15072ZM125.645 15.5257C125.546 15.5257 125.499 15.4736 125.499 15.359V7.75488C125.499 7.64551 125.546 7.58822 125.645 7.58822H126.457C126.551 7.58822 126.603 7.64551 126.603 7.75488V15.359C126.603 15.4736 126.551 15.5257 126.457 15.5257H125.645Z" fill="#D72333"/>
<path d="M132.241 7.75505C132.241 7.64567 132.293 7.58838 132.407 7.58838H133.199C133.308 7.58838 133.366 7.64567 133.366 7.75505V15.3592C133.366 16.4842 133.1 17.3384 132.574 17.9217C132.058 18.505 131.199 18.7655 129.991 18.7134C129.876 18.6978 129.824 18.6405 129.824 18.5467V17.8592C129.824 17.7603 129.876 17.7134 129.991 17.7134C130.824 17.7238 131.407 17.5311 131.741 17.13C132.074 16.7238 132.241 16.1092 132.241 15.2759V14.7967C132.241 14.7863 132.23 14.7707 132.22 14.755C132.204 14.7446 132.183 14.7498 132.157 14.7759C131.991 15.0415 131.767 15.2446 131.491 15.38C131.209 15.505 130.912 15.5675 130.595 15.5675C129.938 15.5675 129.418 15.354 129.032 14.9217C128.657 14.479 128.47 13.8957 128.47 13.1717V9.85921C128.47 9.12484 128.657 8.5415 129.032 8.10921C129.418 7.68213 129.938 7.46338 130.595 7.46338C130.912 7.46338 131.209 7.53629 131.491 7.67171C131.767 7.79671 131.991 7.99463 132.157 8.25505C132.183 8.28629 132.204 8.29671 132.22 8.29671C132.23 8.28629 132.241 8.26546 132.241 8.23421V7.75505ZM130.928 14.6092C131.313 14.6092 131.626 14.4738 131.866 14.1925C132.116 13.9165 132.241 13.5571 132.241 13.1092V9.94255C132.241 9.49984 132.116 9.14046 131.866 8.85921C131.626 8.58317 131.313 8.44255 130.928 8.44255C130.522 8.44255 130.199 8.58317 129.949 8.85921C129.699 9.14046 129.574 9.49984 129.574 9.94255V13.1092C129.574 13.5571 129.699 13.9165 129.949 14.1925C130.199 14.4738 130.522 14.6092 130.928 14.6092Z" fill="#D72333"/>
<path d="M134.907 16.755C134.865 16.755 134.828 16.7394 134.802 16.7134C134.771 16.6821 134.761 16.6405 134.761 16.5884L135.261 13.2342C135.261 13.1405 135.308 13.0884 135.407 13.0884H136.115C136.224 13.0884 136.271 13.1509 136.261 13.2759L135.552 16.63C135.537 16.7134 135.479 16.755 135.386 16.755H134.907Z" fill="#D72333"/>
<path d="M145.591 4.69222C145.591 4.59847 145.643 4.54639 145.758 4.54639H146.529C146.638 4.54639 146.695 4.59847 146.695 4.69222V15.3589C146.695 15.4735 146.638 15.5256 146.529 15.5256H145.612C145.529 15.5256 145.471 15.4839 145.445 15.4006L142.383 7.29639C142.367 7.25472 142.346 7.2443 142.32 7.25472C142.305 7.25472 142.299 7.27035 142.299 7.29639L142.32 15.3589C142.32 15.4735 142.263 15.5256 142.154 15.5256H141.362C141.247 15.5256 141.195 15.4735 141.195 15.3589V4.69222C141.195 4.59847 141.247 4.54639 141.362 4.54639H142.258C142.341 4.54639 142.404 4.58805 142.445 4.67139L145.508 12.7964C145.518 12.8276 145.534 12.8381 145.549 12.8381C145.576 12.8276 145.591 12.8068 145.591 12.7756V4.69222Z" fill="#D72333"/>
<path d="M151.054 15.6509C150.304 15.6509 149.705 15.4373 149.262 15.005C148.814 14.5623 148.596 13.979 148.596 13.255V9.88005C148.596 9.17171 148.814 8.5988 149.262 8.15088C149.705 7.69255 150.304 7.46338 151.054 7.46338C151.804 7.46338 152.398 7.69255 152.846 8.15088C153.304 8.5988 153.533 9.17171 153.533 9.88005V13.255C153.533 13.979 153.304 14.5623 152.846 15.005C152.398 15.4373 151.804 15.6509 151.054 15.6509ZM151.054 14.6717C151.439 14.6717 151.762 14.5363 152.012 14.255C152.273 13.979 152.408 13.6196 152.408 13.1717V9.94255C152.408 9.49984 152.273 9.14046 152.012 8.85921C151.762 8.58317 151.439 8.44255 151.054 8.44255C150.648 8.44255 150.325 8.58317 150.075 8.85921C149.825 9.14046 149.7 9.49984 149.7 9.94255V13.1717C149.7 13.6196 149.825 13.979 150.075 14.255C150.325 14.5363 150.648 14.6717 151.054 14.6717Z" fill="#D72333"/>
<path d="M158.897 7.75505C158.897 7.64567 158.944 7.58838 159.043 7.58838H159.856C159.949 7.58838 160.001 7.64567 160.001 7.75505V15.3592C160.001 15.4738 159.949 15.5259 159.856 15.5259H159.043C158.944 15.5259 158.897 15.4738 158.897 15.3592V14.8384C158.897 14.8123 158.887 14.7967 158.876 14.7967C158.861 14.7967 158.84 14.8071 158.814 14.8175C158.491 15.3592 157.97 15.63 157.251 15.63C156.626 15.63 156.126 15.4425 155.751 15.0675C155.376 14.6821 155.189 14.104 155.189 13.3384V7.75505C155.189 7.64567 155.241 7.58838 155.356 7.58838H156.147C156.257 7.58838 156.314 7.64567 156.314 7.75505V13.0884C156.314 13.604 156.418 13.9998 156.626 14.2759C156.845 14.5415 157.158 14.6717 157.564 14.6717C157.981 14.6717 158.304 14.5207 158.543 14.2134C158.778 13.9113 158.897 13.4946 158.897 12.9634V7.75505Z" fill="#D72333"/>
<path d="M165.527 7.75505C165.527 7.64567 165.579 7.58838 165.694 7.58838H166.486C166.595 7.58838 166.652 7.64567 166.652 7.75505V15.3592C166.652 16.4842 166.387 17.3384 165.861 17.9217C165.345 18.505 164.486 18.7655 163.277 18.7134C163.163 18.6978 163.111 18.6405 163.111 18.5467V17.8592C163.111 17.7603 163.163 17.7134 163.277 17.7134C164.111 17.7238 164.694 17.5311 165.027 17.13C165.361 16.7238 165.527 16.1092 165.527 15.2759V14.7967C165.527 14.7863 165.517 14.7707 165.506 14.755C165.491 14.7446 165.47 14.7498 165.444 14.7759C165.277 15.0415 165.053 15.2446 164.777 15.38C164.496 15.505 164.199 15.5675 163.881 15.5675C163.225 15.5675 162.704 15.354 162.319 14.9217C161.944 14.479 161.756 13.8957 161.756 13.1717V9.85921C161.756 9.12484 161.944 8.5415 162.319 8.10921C162.704 7.68213 163.225 7.46338 163.881 7.46338C164.199 7.46338 164.496 7.53629 164.777 7.67171C165.053 7.79671 165.277 7.99463 165.444 8.25505C165.47 8.28629 165.491 8.29671 165.506 8.29671C165.517 8.28629 165.527 8.26546 165.527 8.23421V7.75505ZM164.215 14.6092C164.6 14.6092 164.913 14.4738 165.152 14.1925C165.402 13.9165 165.527 13.5571 165.527 13.1092V9.94255C165.527 9.49984 165.402 9.14046 165.152 8.85921C164.913 8.58317 164.6 8.44255 164.215 8.44255C163.808 8.44255 163.486 8.58317 163.236 8.85921C162.986 9.14046 162.861 9.49984 162.861 9.94255V13.1092C162.861 13.5571 162.986 13.9165 163.236 14.1925C163.486 14.4738 163.808 14.6092 164.215 14.6092Z" fill="#D72333"/>
<path d="M170.714 7.46338C171.449 7.46338 172.032 7.70296 172.464 8.17171C172.907 8.64567 173.131 9.28629 173.131 10.0884V15.3592C173.131 15.4738 173.079 15.5259 172.985 15.5259H172.173C172.074 15.5259 172.027 15.4738 172.027 15.3592V14.9009C172.027 14.8748 172.016 14.8592 172.006 14.8592C171.99 14.8592 171.969 14.8696 171.943 14.88C171.553 15.3957 170.975 15.6509 170.214 15.6509C169.631 15.6509 169.12 15.4946 168.693 15.1717C168.277 14.8384 168.068 14.2498 168.068 13.4009C168.068 12.5155 168.324 11.8696 168.839 11.4634C169.35 11.0467 170.027 10.8384 170.86 10.8384H171.964C172.006 10.8384 172.027 10.8175 172.027 10.7759V10.1509C172.027 9.64046 171.902 9.229 171.652 8.92171C171.412 8.604 171.094 8.44255 170.693 8.44255C170.37 8.44255 170.1 8.54671 169.881 8.75505C169.657 8.96338 169.527 9.229 169.485 9.54671C169.485 9.66129 169.428 9.71338 169.318 9.71338L168.443 9.69255C168.386 9.69255 168.344 9.68213 168.318 9.65088C168.303 9.60921 168.298 9.56755 168.298 9.52588C168.35 8.9165 168.6 8.42171 169.048 8.04671C169.506 7.66129 170.058 7.46338 170.714 7.46338ZM170.443 14.6717C170.87 14.6717 171.24 14.5363 171.548 14.255C171.865 13.979 172.027 13.5988 172.027 13.1092V11.7967C172.027 11.755 172.006 11.7342 171.964 11.7342H170.839C170.339 11.7342 169.943 11.8696 169.652 12.13C169.36 12.3957 169.214 12.7915 169.214 13.3175C169.214 13.7759 169.324 14.1196 169.548 14.3384C169.766 14.5623 170.068 14.6717 170.443 14.6717Z" fill="#D72333"/>
<path d="M177.672 8.25472C177.672 8.3693 177.614 8.42139 177.505 8.42139H176.318C176.276 8.42139 176.255 8.44222 176.255 8.48389V13.2756C176.255 13.7651 176.338 14.0985 176.505 14.2756C176.672 14.4578 176.927 14.5464 177.276 14.5464H177.443C177.536 14.5464 177.588 14.5985 177.588 14.6922V15.3589C177.588 15.4735 177.536 15.5256 177.443 15.5256H177.047C176.422 15.5256 175.948 15.3953 175.63 15.1297C175.307 14.8693 175.151 14.3589 175.151 13.6089V8.48389C175.151 8.44222 175.13 8.42139 175.088 8.42139H174.484C174.385 8.42139 174.338 8.3693 174.338 8.25472V7.75472C174.338 7.64535 174.385 7.58805 174.484 7.58805H175.088C175.13 7.58805 175.151 7.56722 175.151 7.52555V5.77555C175.151 5.66618 175.203 5.60889 175.318 5.60889H176.109C176.203 5.60889 176.255 5.66618 176.255 5.77555V7.52555C176.255 7.56722 176.276 7.58805 176.318 7.58805H177.505C177.614 7.58805 177.672 7.64535 177.672 7.75472V8.25472Z" fill="#D72333"/>
<path d="M181.339 15.6509C180.6 15.6509 180.011 15.4373 179.569 15.005C179.121 14.5623 178.902 13.979 178.902 13.255V9.85921C178.902 9.15088 179.121 8.57796 179.569 8.13005C180.011 7.68734 180.6 7.46338 181.339 7.46338C181.839 7.46338 182.277 7.56755 182.652 7.77588C183.027 7.9738 183.308 8.23421 183.506 8.56755C183.714 8.89046 183.819 9.24984 183.819 9.65088V9.79671C183.819 9.91129 183.766 9.96338 183.673 9.96338L182.86 9.98421C182.761 9.98421 182.714 9.93734 182.714 9.83838V9.71338C182.714 9.38005 182.579 9.08838 182.319 8.83838C182.069 8.57796 181.74 8.44255 181.339 8.44255C180.949 8.44255 180.631 8.58317 180.381 8.85921C180.131 9.14046 180.006 9.49984 180.006 9.94255V13.1717C180.006 13.6196 180.131 13.979 180.381 14.255C180.631 14.5363 180.949 14.6717 181.339 14.6717C181.74 14.6717 182.069 14.5467 182.319 14.2967C182.579 14.0363 182.714 13.7342 182.714 13.4009V13.2759C182.714 13.1821 182.761 13.13 182.86 13.13L183.673 13.1509C183.766 13.1509 183.819 13.203 183.819 13.2967V13.4634C183.819 14.104 183.589 14.63 183.131 15.0467C182.683 15.453 182.089 15.6509 181.339 15.6509Z" fill="#D72333"/>
<path d="M188.062 7.50488C188.322 7.50488 188.546 7.56217 188.728 7.67155C188.796 7.72884 188.822 7.79655 188.812 7.87988L188.624 8.69238C188.608 8.79134 188.546 8.8278 188.437 8.79655C188.312 8.72884 188.15 8.69238 187.957 8.69238C187.874 8.69238 187.812 8.7028 187.77 8.71322C187.395 8.74447 187.082 8.94238 186.832 9.31738C186.593 9.68197 186.478 10.1299 186.478 10.6715V15.3591C186.478 15.4736 186.426 15.5257 186.332 15.5257H185.52C185.421 15.5257 185.374 15.4736 185.374 15.3591V7.75488C185.374 7.64551 185.421 7.58822 185.52 7.58822H186.332C186.426 7.58822 186.478 7.64551 186.478 7.75488V8.69238C186.478 8.72363 186.483 8.73405 186.499 8.73405C186.525 8.73405 186.546 8.72363 186.562 8.69238C186.864 7.90072 187.364 7.50488 188.062 7.50488Z" fill="#D72333"/>
<path d="M194.621 11.8175C194.621 11.9321 194.569 11.9842 194.475 11.9842H190.892C190.85 11.9842 190.829 12.005 190.829 12.0467V13.1925C190.829 13.6248 190.954 13.979 191.204 14.255C191.454 14.5363 191.772 14.6717 192.163 14.6717C192.496 14.6717 192.777 14.578 193.017 14.38C193.251 14.1717 193.402 13.9113 193.475 13.5884C193.517 13.4946 193.579 13.4425 193.663 13.4425L194.433 13.4634C194.475 13.4634 194.506 13.4842 194.538 13.5259C194.579 13.5571 194.59 13.5988 194.579 13.6509C194.496 14.2655 194.236 14.7498 193.808 15.1092C193.392 15.4738 192.84 15.6509 192.163 15.6509C191.423 15.6509 190.834 15.4373 190.392 15.005C189.944 14.5623 189.725 13.979 189.725 13.255V9.85921C189.725 9.15088 189.944 8.57796 190.392 8.13005C190.834 7.68734 191.423 7.46338 192.163 7.46338C192.913 7.46338 193.506 7.68734 193.954 8.13005C194.397 8.57796 194.621 9.15088 194.621 9.85921V11.8175ZM192.163 8.44255C191.772 8.44255 191.454 8.58317 191.204 8.85921C190.954 9.14046 190.829 9.49984 190.829 9.94255V10.9842C190.829 11.0259 190.85 11.0467 190.892 11.0467H193.475C193.517 11.0467 193.538 11.0259 193.538 10.9842V9.94255C193.538 9.49984 193.402 9.14046 193.142 8.85921C192.892 8.58317 192.564 8.44255 192.163 8.44255Z" fill="#D72333"/>
<path d="M202.631 7.48389C203.256 7.48389 203.74 7.71305 204.089 8.17139C204.433 8.62972 204.61 9.27035 204.61 10.0881V15.3589C204.61 15.4735 204.552 15.5256 204.443 15.5256H203.672C203.558 15.5256 203.506 15.4735 203.506 15.3589V10.1714C203.506 9.64535 203.391 9.22868 203.172 8.92139C202.948 8.60368 202.651 8.44222 202.276 8.44222C201.886 8.44222 201.573 8.59847 201.339 8.90055C201.115 9.20785 201.006 9.62451 201.006 10.1506V15.3589C201.006 15.4735 200.948 15.5256 200.839 15.5256H200.047C199.933 15.5256 199.881 15.4735 199.881 15.3589V10.1714C199.881 9.64535 199.766 9.22868 199.547 8.92139C199.323 8.60368 199.032 8.44222 198.672 8.44222C198.282 8.44222 197.969 8.59847 197.735 8.90055C197.495 9.20785 197.381 9.62451 197.381 10.1506V15.3589C197.381 15.4735 197.323 15.5256 197.214 15.5256H196.422C196.323 15.5256 196.276 15.4735 196.276 15.3589V7.75472C196.276 7.64535 196.323 7.58805 196.422 7.58805H197.214C197.323 7.58805 197.381 7.64535 197.381 7.75472V8.23389C197.381 8.24951 197.386 8.26514 197.401 8.27555C197.412 8.27555 197.427 8.27035 197.443 8.25472C197.651 7.9943 197.886 7.79639 198.151 7.67139C198.427 7.54639 198.719 7.48389 199.026 7.48389C199.412 7.48389 199.756 7.58285 200.047 7.77555C200.339 7.97347 200.568 8.2443 200.735 8.58805C200.745 8.6193 200.761 8.62972 200.776 8.62972C200.802 8.62972 200.818 8.60889 200.818 8.56722C201.011 8.19222 201.266 7.92139 201.589 7.75472C201.922 7.57764 202.266 7.48389 202.631 7.48389Z" fill="#D72333"/>
<path d="M211.17 11.8175C211.17 11.9321 211.118 11.9842 211.024 11.9842H207.441C207.399 11.9842 207.379 12.005 207.379 12.0467V13.1925C207.379 13.6248 207.504 13.979 207.754 14.255C208.004 14.5363 208.321 14.6717 208.712 14.6717C209.045 14.6717 209.326 14.578 209.566 14.38C209.8 14.1717 209.951 13.9113 210.024 13.5884C210.066 13.4946 210.129 13.4425 210.212 13.4425L210.983 13.4634C211.024 13.4634 211.056 13.4842 211.087 13.5259C211.129 13.5571 211.139 13.5988 211.129 13.6509C211.045 14.2655 210.785 14.7498 210.358 15.1092C209.941 15.4738 209.389 15.6509 208.712 15.6509C207.972 15.6509 207.384 15.4373 206.941 15.005C206.493 14.5623 206.274 13.979 206.274 13.255V9.85921C206.274 9.15088 206.493 8.57796 206.941 8.13005C207.384 7.68734 207.972 7.46338 208.712 7.46338C209.462 7.46338 210.056 7.68734 210.504 8.13005C210.946 8.57796 211.17 9.15088 211.17 9.85921V11.8175ZM208.712 8.44255C208.321 8.44255 208.004 8.58317 207.754 8.85921C207.504 9.14046 207.379 9.49984 207.379 9.94255V10.9842C207.379 11.0259 207.399 11.0467 207.441 11.0467H210.024C210.066 11.0467 210.087 11.0259 210.087 10.9842V9.94255C210.087 9.49984 209.951 9.14046 209.691 8.85921C209.441 8.58317 209.113 8.44255 208.712 8.44255Z" fill="#D72333"/>
<path d="M3.02116 26.14C2.5472 26.14 2.1722 26.0098 1.89616 25.7441C1.61491 25.4681 1.47949 25.0983 1.47949 24.64V21.1816C1.47949 20.7233 1.61491 20.3639 1.89616 20.0983C2.1722 19.8223 2.5472 19.6816 3.02116 19.6816C3.47949 19.6816 3.84408 19.8223 4.12533 20.0983C4.40137 20.3796 4.54199 20.7441 4.54199 21.2025V21.5775C4.54199 21.6504 4.51074 21.6816 4.45866 21.6816H4.00033C3.94303 21.6816 3.91699 21.6504 3.91699 21.5775V21.1816C3.91699 20.89 3.83366 20.6608 3.66699 20.4941C3.50033 20.3275 3.28157 20.2441 3.02116 20.2441C2.75553 20.2441 2.54199 20.3379 2.37533 20.515C2.20866 20.6816 2.12533 20.9056 2.12533 21.1816V24.64C2.12533 24.9212 2.20866 25.1504 2.37533 25.3275C2.54199 25.5098 2.75553 25.5983 3.02116 25.5983C3.28157 25.5983 3.50033 25.515 3.66699 25.3483C3.83366 25.1712 3.91699 24.9316 3.91699 24.64V23.4941C3.91699 23.4681 3.90137 23.4525 3.87533 23.4525H3.10449C3.03157 23.4525 3.00033 23.4264 3.00033 23.3691V22.9941C3.00033 22.9264 3.03157 22.89 3.10449 22.89H4.45866C4.51074 22.89 4.54199 22.9264 4.54199 22.9941V24.64C4.54199 25.0983 4.40137 25.4681 4.12533 25.7441C3.84408 26.0098 3.47949 26.14 3.02116 26.14Z" fill="#D72333"/>
<path d="M11.6722 19.8483C11.6722 19.7806 11.6982 19.7441 11.7555 19.7441H12.2139C12.2816 19.7441 12.318 19.7806 12.318 19.8483V25.9941C12.318 26.0514 12.2816 26.0775 12.2139 26.0775H11.7555C11.6982 26.0775 11.6722 26.0514 11.6722 25.9941V23.2233C11.6722 23.2129 11.6566 23.2025 11.6305 23.2025H10.0264C9.99512 23.2025 9.9847 23.2129 9.9847 23.2233V25.9941C9.9847 26.0514 9.95345 26.0775 9.90137 26.0775H9.44303C9.37012 26.0775 9.33887 26.0514 9.33887 25.9941V19.8483C9.33887 19.7806 9.37012 19.7441 9.44303 19.7441H9.90137C9.95345 19.7441 9.9847 19.7806 9.9847 19.8483V22.5775C9.9847 22.6087 9.99512 22.6191 10.0264 22.6191H11.6305C11.6566 22.6191 11.6722 22.6087 11.6722 22.5775V19.8483Z" fill="#D72333"/>
<mask id="mask1_24_7307" style="mask-type:luminance" maskUnits="userSpaceOnUse" x="0" y="29" width="4" height="15">
<path d="M0.166504 29.3335H3.99984V44.0002H0.166504V29.3335Z" fill="white"/>
</mask>
<g mask="url(#mask1_24_7307)">
<path d="M2.5 43.5299C2.41667 43.5299 2.35417 43.4935 2.3125 43.4258C1.90625 42.6341 1.57292 41.6549 1.3125 40.4883C1.0625 39.3216 0.9375 38.0924 0.9375 36.8008C0.9375 35.4831 1.0625 34.2331 1.3125 33.0508C1.57292 31.8581 1.92187 30.8581 2.35417 30.0508C2.39583 29.9674 2.45833 29.9258 2.54167 29.9258H3.29167C3.34375 29.9258 3.38542 29.9466 3.41667 29.9883C3.44271 30.0299 3.44271 30.0716 3.41667 30.1133C3.06771 30.9362 2.77604 31.9362 2.54167 33.1133C2.31771 34.2956 2.20833 35.5247 2.20833 36.8008C2.20833 38.0404 2.31771 39.2383 2.54167 40.4049C2.77604 41.5612 3.06771 42.5352 3.41667 43.3424L3.4375 43.4049C3.4375 43.4883 3.38542 43.5299 3.29167 43.5299H2.5Z" fill="#D72333"/>
</g>
<path d="M7.98275 42.0299C7.17546 42.0299 6.52962 41.7956 6.04525 41.3216C5.57129 40.8529 5.33691 40.2122 5.33691 39.4049V33.4258C5.33691 32.6237 5.57129 31.9831 6.04525 31.5091C6.52962 31.0404 7.17546 30.8008 7.98275 30.8008C8.78483 30.8008 9.43066 31.0456 9.92025 31.5299C10.4046 32.0039 10.6494 32.6341 10.6494 33.4258V34.1133C10.6494 34.2122 10.5973 34.2591 10.5036 34.2591H9.71191C9.59733 34.2591 9.54525 34.2122 9.54525 34.1133V33.4049C9.54525 32.9049 9.39941 32.5091 9.10775 32.2174C8.8265 31.9258 8.4515 31.7799 7.98275 31.7799C7.52441 31.7799 7.14941 31.9362 6.85775 32.2383C6.5765 32.5299 6.44108 32.9206 6.44108 33.4049V39.4258C6.44108 39.9154 6.5765 40.3112 6.85775 40.6133C7.14941 40.9049 7.52441 41.0508 7.98275 41.0508C8.4515 41.0508 8.8265 40.9049 9.10775 40.6133C9.39941 40.3112 9.54525 39.9154 9.54525 39.4258V37.4258C9.54525 37.3841 9.52441 37.3633 9.48275 37.3633H8.12858C8.02962 37.3633 7.98275 37.3112 7.98275 37.1966V36.5299C7.98275 36.4362 8.02962 36.3841 8.12858 36.3841H10.5036C10.5973 36.3841 10.6494 36.4362 10.6494 36.5299V39.4049C10.6494 40.2122 10.4046 40.8529 9.92025 41.3216C9.43066 41.7956 8.78483 42.0299 7.98275 42.0299Z" fill="#D72333"/>
<path d="M12.5573 41.9049C12.4427 41.9049 12.3906 41.8529 12.3906 41.7383V31.0716C12.3906 30.9779 12.4427 30.9258 12.5573 30.9258H13.349C13.4583 30.9258 13.5156 30.9779 13.5156 31.0716V41.7383C13.5156 41.8529 13.4583 41.9049 13.349 41.9049H12.5573Z" fill="#D72333"/>
<path d="M18.9588 34.1344C18.9588 34.0251 19.0057 33.9678 19.1047 33.9678H19.9172C20.0109 33.9678 20.063 34.0251 20.063 34.1344V41.7386C20.063 41.8532 20.0109 41.9053 19.9172 41.9053H19.1047C19.0057 41.9053 18.9588 41.8532 18.9588 41.7386V41.2178C18.9588 41.1917 18.9484 41.1761 18.938 41.1761C18.9224 41.1761 18.9015 41.1865 18.8755 41.1969C18.5526 41.7386 18.0317 42.0094 17.313 42.0094C16.688 42.0094 16.188 41.8219 15.813 41.4469C15.438 41.0615 15.2505 40.4834 15.2505 39.7178V34.1344C15.2505 34.0251 15.3026 33.9678 15.4172 33.9678H16.2088C16.3182 33.9678 16.3755 34.0251 16.3755 34.1344V39.4678C16.3755 39.9834 16.4797 40.3792 16.688 40.6553C16.9067 40.9209 17.2192 41.0511 17.6255 41.0511C18.0422 41.0511 18.3651 40.9001 18.6047 40.5928C18.839 40.2907 18.9588 39.874 18.9588 39.3428V34.1344Z" fill="#D72333"/>
<path d="M24.7767 34.6341C24.7767 34.7487 24.7194 34.8008 24.61 34.8008H23.4225C23.3809 34.8008 23.36 34.8216 23.36 34.8633V39.6549C23.36 40.1445 23.4434 40.4779 23.61 40.6549C23.7767 40.8372 24.0319 40.9258 24.3809 40.9258H24.5475C24.6413 40.9258 24.6934 40.9779 24.6934 41.0716V41.7383C24.6934 41.8529 24.6413 41.9049 24.5475 41.9049H24.1517C23.5267 41.9049 23.0527 41.7747 22.735 41.5091C22.4121 41.2487 22.2559 40.7383 22.2559 39.9883V34.8633C22.2559 34.8216 22.235 34.8008 22.1934 34.8008H21.5892C21.4902 34.8008 21.4434 34.7487 21.4434 34.6341V34.1341C21.4434 34.0247 21.4902 33.9674 21.5892 33.9674H22.1934C22.235 33.9674 22.2559 33.9466 22.2559 33.9049V32.1549C22.2559 32.0456 22.3079 31.9883 22.4225 31.9883H23.2142C23.3079 31.9883 23.36 32.0456 23.36 32.1549V33.9049C23.36 33.9466 23.3809 33.9674 23.4225 33.9674H24.61C24.7194 33.9674 24.7767 34.0247 24.7767 34.1341V34.6341Z" fill="#D72333"/>
<path d="M30.9022 38.1969C30.9022 38.3115 30.8501 38.3636 30.7563 38.3636H27.173C27.1313 38.3636 27.1105 38.3844 27.1105 38.4261V39.5719C27.1105 40.0042 27.2355 40.3584 27.4855 40.6344C27.7355 40.9157 28.0532 41.0511 28.4438 41.0511C28.7772 41.0511 29.0584 40.9574 29.298 40.7594C29.5324 40.5511 29.6834 40.2907 29.7563 39.9678C29.798 39.874 29.8605 39.8219 29.9438 39.8219L30.7147 39.8428C30.7563 39.8428 30.7876 39.8636 30.8188 39.9053C30.8605 39.9365 30.8709 39.9782 30.8605 40.0303C30.7772 40.6449 30.5168 41.1292 30.0897 41.4886C29.673 41.8532 29.1209 42.0303 28.4438 42.0303C27.7043 42.0303 27.1157 41.8167 26.673 41.3844C26.2251 40.9417 26.0063 40.3584 26.0063 39.6344V36.2386C26.0063 35.5303 26.2251 34.9574 26.673 34.5094C27.1157 34.0667 27.7043 33.8428 28.4438 33.8428C29.1938 33.8428 29.7876 34.0667 30.2355 34.5094C30.6782 34.9574 30.9022 35.5303 30.9022 36.2386V38.1969ZM28.4438 34.8219C28.0532 34.8219 27.7355 34.9626 27.4855 35.2386C27.2355 35.5199 27.1105 35.8792 27.1105 36.3219V37.3636C27.1105 37.4053 27.1313 37.4261 27.173 37.4261H29.7563C29.798 37.4261 29.8188 37.4053 29.8188 37.3636V36.3219C29.8188 35.8792 29.6834 35.5199 29.423 35.2386C29.173 34.9626 28.8449 34.8219 28.4438 34.8219Z" fill="#D72333"/>
<path d="M35.3701 33.8633C36.0055 33.8633 36.5003 34.0872 36.8493 34.5299C37.2087 34.9622 37.391 35.5664 37.391 36.3424V41.7383C37.391 41.8529 37.3337 41.9049 37.2243 41.9049H36.4326C36.318 41.9049 36.266 41.8529 36.266 41.7383V36.4466C36.266 35.9362 36.1514 35.5404 35.9326 35.2591C35.7087 34.9674 35.3962 34.8216 34.9951 34.8216C34.5785 34.8216 34.2503 34.9779 34.016 35.2799C33.7764 35.5872 33.6618 36.0039 33.6618 36.5299V41.7383C33.6618 41.8529 33.6097 41.9049 33.516 41.9049H32.7035C32.6045 41.9049 32.5576 41.8529 32.5576 41.7383V34.1341C32.5576 34.0247 32.6045 33.9674 32.7035 33.9674H33.516C33.6097 33.9674 33.6618 34.0247 33.6618 34.1341V34.6341C33.6618 34.6497 33.667 34.6654 33.6826 34.6758C33.7087 34.6914 33.7295 34.6758 33.7451 34.6341C33.9378 34.3841 34.1722 34.1966 34.4535 34.0716C34.7451 33.9362 35.0472 33.8633 35.3701 33.8633Z" fill="#D72333"/>
<path d="M41.7292 31.7801C41.3385 31.7801 41.0521 31.9155 40.875 32.1759C40.7083 32.4416 40.625 32.8582 40.625 33.4259V33.9051C40.625 33.9468 40.6458 33.9676 40.6875 33.9676H41.8958C42.0052 33.9676 42.0625 34.0249 42.0625 34.1343V34.6343C42.0625 34.7489 42.0052 34.8009 41.8958 34.8009H40.6875C40.6458 34.8009 40.625 34.8218 40.625 34.8634V41.7384C40.625 41.853 40.5729 41.9051 40.4792 41.9051H39.6875C39.5885 41.9051 39.5417 41.853 39.5417 41.7384V34.8634C39.5417 34.8218 39.5208 34.8009 39.4792 34.8009H38.8542C38.7396 34.8009 38.6875 34.7489 38.6875 34.6343V34.1343C38.6875 34.0249 38.7396 33.9676 38.8542 33.9676H39.4792C39.5208 33.9676 39.5417 33.9468 39.5417 33.9051V33.4051C39.5417 32.4884 39.7083 31.8322 40.0417 31.4259C40.375 31.0249 40.9271 30.8218 41.7083 30.8218H41.9375C42.0313 30.8218 42.0833 30.8739 42.0833 30.9676V31.6134C42.0833 31.728 42.026 31.7801 41.9167 31.7801H41.7292Z" fill="#D72333"/>
<path d="M46.2412 33.8843C46.5016 33.8843 46.7256 33.9416 46.9079 34.0509C46.9756 34.1082 47.0016 34.1759 46.9912 34.2593L46.8037 35.0718C46.7881 35.1707 46.7256 35.2072 46.6162 35.1759C46.4912 35.1082 46.3298 35.0718 46.137 35.0718C46.0537 35.0718 45.9912 35.0822 45.9495 35.0926C45.5745 35.1239 45.262 35.3218 45.012 35.6968C44.7725 36.0614 44.6579 36.5093 44.6579 37.0509V41.7384C44.6579 41.853 44.6058 41.9051 44.512 41.9051H43.6995C43.6006 41.9051 43.5537 41.853 43.5537 41.7384V34.1343C43.5537 34.0249 43.6006 33.9676 43.6995 33.9676H44.512C44.6058 33.9676 44.6579 34.0249 44.6579 34.1343V35.0718C44.6579 35.103 44.6631 35.1134 44.6787 35.1134C44.7048 35.1134 44.7256 35.103 44.7412 35.0718C45.0433 34.2801 45.5433 33.8843 46.2412 33.8843Z" fill="#D72333"/>
<path d="M52.8006 38.1969C52.8006 38.3115 52.7485 38.3636 52.6548 38.3636H49.0715C49.0298 38.3636 49.009 38.3844 49.009 38.4261V39.5719C49.009 40.0042 49.134 40.3584 49.384 40.6344C49.634 40.9157 49.9517 41.0511 50.3423 41.0511C50.6756 41.0511 50.9569 40.9574 51.1965 40.7594C51.4308 40.5511 51.5819 40.2907 51.6548 39.9678C51.6965 39.874 51.759 39.8219 51.8423 39.8219L52.6131 39.8428C52.6548 39.8428 52.686 39.8636 52.7173 39.9053C52.759 39.9365 52.7694 39.9782 52.759 40.0303C52.6756 40.6449 52.4152 41.1292 51.9881 41.4886C51.5715 41.8532 51.0194 42.0303 50.3423 42.0303C49.6027 42.0303 49.0142 41.8167 48.5715 41.3844C48.1235 40.9417 47.9048 40.3584 47.9048 39.6344V36.2386C47.9048 35.5303 48.1235 34.9574 48.5715 34.5094C49.0142 34.0667 49.6027 33.8428 50.3423 33.8428C51.0923 33.8428 51.686 34.0667 52.134 34.5094C52.5767 34.9574 52.8006 35.5303 52.8006 36.2386V38.1969ZM50.3423 34.8219C49.9517 34.8219 49.634 34.9626 49.384 35.2386C49.134 35.5199 49.009 35.8792 49.009 36.3219V37.3636C49.009 37.4053 49.0298 37.4261 49.0715 37.4261H51.6548C51.6965 37.4261 51.7173 37.4053 51.7173 37.3636V36.3219C51.7173 35.8792 51.5819 35.5199 51.3215 35.2386C51.0715 34.9626 50.7433 34.8219 50.3423 34.8219Z" fill="#D72333"/>
<path d="M55.1226 32.5301C54.8569 32.5301 54.6434 32.4468 54.4767 32.2801C54.3205 32.1134 54.2476 31.9051 54.2476 31.6551C54.2476 31.3947 54.3205 31.1759 54.4767 31.0093C54.6434 30.8426 54.8569 30.7593 55.1226 30.7593C55.3726 30.7593 55.5809 30.8426 55.7476 31.0093C55.9142 31.1759 55.9976 31.3947 55.9976 31.6551C55.9976 31.9051 55.9142 32.1134 55.7476 32.2801C55.5809 32.4468 55.3726 32.5301 55.1226 32.5301ZM54.7267 41.9051C54.6278 41.9051 54.5809 41.853 54.5809 41.7384V34.1343C54.5809 34.0249 54.6278 33.9676 54.7267 33.9676H55.5392C55.633 33.9676 55.6851 34.0249 55.6851 34.1343V41.7384C55.6851 41.853 55.633 41.9051 55.5392 41.9051H54.7267Z" fill="#D72333"/>
<path d="M62.4476 38.1969C62.4476 38.3115 62.3955 38.3636 62.3018 38.3636H58.7184C58.6768 38.3636 58.6559 38.3844 58.6559 38.4261V39.5719C58.6559 40.0042 58.7809 40.3584 59.0309 40.6344C59.2809 40.9157 59.5986 41.0511 59.9893 41.0511C60.3226 41.0511 60.6038 40.9574 60.8434 40.7594C61.0778 40.5511 61.2288 40.2907 61.3018 39.9678C61.3434 39.874 61.4059 39.8219 61.4893 39.8219L62.2601 39.8428C62.3018 39.8428 62.333 39.8636 62.3643 39.9053C62.4059 39.9365 62.4163 39.9782 62.4059 40.0303C62.3226 40.6449 62.0622 41.1292 61.6351 41.4886C61.2184 41.8532 60.6663 42.0303 59.9893 42.0303C59.2497 42.0303 58.6611 41.8167 58.2184 41.3844C57.7705 40.9417 57.5518 40.3584 57.5518 39.6344V36.2386C57.5518 35.5303 57.7705 34.9574 58.2184 34.5094C58.6611 34.0667 59.2497 33.8428 59.9893 33.8428C60.7393 33.8428 61.333 34.0667 61.7809 34.5094C62.2236 34.9574 62.4476 35.5303 62.4476 36.2386V38.1969ZM59.9893 34.8219C59.5986 34.8219 59.2809 34.9626 59.0309 35.2386C58.7809 35.5199 58.6559 35.8792 58.6559 36.3219V37.3636C58.6559 37.4053 58.6768 37.4261 58.7184 37.4261H61.3018C61.3434 37.4261 61.3643 37.4053 61.3643 37.3636V36.3219C61.3643 35.8792 61.2288 35.5199 60.9684 35.2386C60.7184 34.9626 60.3903 34.8219 59.9893 34.8219Z" fill="#D72333"/>
<path d="M66.1338 41.9884C65.4098 41.9884 64.8317 41.8009 64.4046 41.4259C63.9723 41.0509 63.7588 40.5614 63.7588 39.9468V39.8426C63.7588 39.7332 63.8057 39.6759 63.9046 39.6759H64.6755C64.7692 39.6759 64.8213 39.7332 64.8213 39.8426V39.9259C64.8213 40.2593 64.9359 40.5457 65.1755 40.7801C65.4255 41.0041 65.7484 41.1134 66.1546 41.1134C66.5296 41.1134 66.8265 41.0041 67.0505 40.7801C67.2848 40.5457 67.4046 40.2541 67.4046 39.9051C67.4046 39.6291 67.3265 39.3999 67.1755 39.2176C67.0348 39.0405 66.8682 38.8999 66.6755 38.8009C66.4775 38.6916 66.1963 38.5509 65.8213 38.3843C65.4046 38.2176 65.0609 38.0509 64.8005 37.8843C64.5348 37.7176 64.3057 37.4884 64.113 37.1968C63.915 36.8947 63.8213 36.5093 63.8213 36.0509C63.8213 35.3843 64.0192 34.8582 64.4255 34.4676C64.8421 34.0822 65.4046 33.8843 66.113 33.8843C66.8213 33.8843 67.3838 34.0874 67.8005 34.4884C68.2171 34.8791 68.4255 35.4051 68.4255 36.0718V36.1134C68.4255 36.228 68.3734 36.2801 68.2796 36.2801H67.5505C67.4515 36.2801 67.4046 36.228 67.4046 36.1134V36.0301C67.4046 35.6707 67.2848 35.3791 67.0505 35.1551C66.8109 34.9207 66.5088 34.8009 66.1338 34.8009C65.7432 34.8009 65.4359 34.9207 65.2171 35.1551C64.9932 35.3947 64.8838 35.6864 64.8838 36.0301C64.8838 36.2801 64.9515 36.4989 65.0921 36.6759C65.2275 36.8426 65.3942 36.9832 65.5921 37.0926C65.7848 37.1916 66.0609 37.3218 66.4255 37.4884C66.8525 37.6707 67.2067 37.8426 67.488 38.0093C67.764 38.1759 68.0088 38.4155 68.2171 38.7176C68.4255 39.0249 68.5296 39.3999 68.5296 39.8426C68.5296 40.4989 68.3109 41.0197 67.8838 41.4051C67.4515 41.7957 66.8682 41.9884 66.1338 41.9884Z" fill="#D72333"/>
<path d="M70.9173 29.9258C71.0007 29.9258 71.0632 29.9674 71.1048 30.0508C71.5215 30.832 71.8548 31.8112 72.1048 32.9883C72.3652 34.1549 72.5007 35.3789 72.5007 36.6549C72.5007 37.9883 72.3652 39.2591 72.1048 40.4674C71.8392 41.6654 71.5007 42.6445 71.084 43.4258C71.0423 43.4935 70.9798 43.5299 70.8965 43.5299H70.1465C70.0892 43.5299 70.0475 43.5091 70.0215 43.4674C69.9902 43.4362 69.9902 43.4049 70.0215 43.3633C70.3652 42.5299 70.6517 41.5247 70.8757 40.3424C71.11 39.1654 71.2298 37.9466 71.2298 36.6966C71.2298 35.4466 71.11 34.2487 70.8757 33.0924C70.6517 31.9414 70.3652 30.9466 70.0215 30.1133C70.0059 30.1029 70.0007 30.082 70.0007 30.0508C70.0007 30.0091 70.0111 29.9831 70.0423 29.9674C70.0684 29.9414 70.1048 29.9258 70.1465 29.9258H70.9173Z" fill="#D72333"/>
<path d="M79.1204 42.0299C78.3132 42.0299 77.6673 41.7956 77.1829 41.3216C76.709 40.8529 76.4746 40.2122 76.4746 39.4049V33.4258C76.4746 32.6237 76.709 31.9831 77.1829 31.5091C77.6673 31.0404 78.3132 30.8008 79.1204 30.8008C79.9225 30.8008 80.5684 31.0456 81.0579 31.5299C81.5423 32.0039 81.7871 32.6341 81.7871 33.4258V34.1133C81.7871 34.2122 81.735 34.2591 81.6413 34.2591H80.8496C80.735 34.2591 80.6829 34.2122 80.6829 34.1133V33.4049C80.6829 32.9049 80.5371 32.5091 80.2454 32.2174C79.9642 31.9258 79.5892 31.7799 79.1204 31.7799C78.6621 31.7799 78.2871 31.9362 77.9954 32.2383C77.7142 32.5299 77.5788 32.9206 77.5788 33.4049V39.4258C77.5788 39.9154 77.7142 40.3112 77.9954 40.6133C78.2871 40.9049 78.6621 41.0508 79.1204 41.0508C79.5892 41.0508 79.9642 40.9049 80.2454 40.6133C80.5371 40.3112 80.6829 39.9154 80.6829 39.4258V37.4258C80.6829 37.3841 80.6621 37.3633 80.6204 37.3633H79.2663C79.1673 37.3633 79.1204 37.3112 79.1204 37.1966V36.5299C79.1204 36.4362 79.1673 36.3841 79.2663 36.3841H81.6413C81.735 36.3841 81.7871 36.4362 81.7871 36.5299V39.4049C81.7871 40.2122 81.5423 40.8529 81.0579 41.3216C80.5684 41.7956 79.9225 42.0299 79.1204 42.0299Z" fill="#D72333"/>
<path d="M88.1732 38.1969C88.1732 38.3115 88.1211 38.3636 88.0273 38.3636H84.444C84.4023 38.3636 84.3815 38.3844 84.3815 38.4261V39.5719C84.3815 40.0042 84.5065 40.3584 84.7565 40.6344C85.0065 40.9157 85.3242 41.0511 85.7148 41.0511C86.0482 41.0511 86.3294 40.9574 86.569 40.7594C86.8034 40.5511 86.9544 40.2907 87.0273 39.9678C87.069 39.874 87.1315 39.8219 87.2148 39.8219L87.9857 39.8428C88.0273 39.8428 88.0586 39.8636 88.0898 39.9053C88.1315 39.9365 88.1419 39.9782 88.1315 40.0303C88.0482 40.6449 87.7878 41.1292 87.3607 41.4886C86.944 41.8532 86.3919 42.0303 85.7148 42.0303C84.9753 42.0303 84.3867 41.8167 83.944 41.3844C83.4961 40.9417 83.2773 40.3584 83.2773 39.6344V36.2386C83.2773 35.5303 83.4961 34.9574 83.944 34.5094C84.3867 34.0667 84.9753 33.8428 85.7148 33.8428C86.4648 33.8428 87.0586 34.0667 87.5065 34.5094C87.9492 34.9574 88.1732 35.5303 88.1732 36.2386V38.1969ZM85.7148 34.8219C85.3242 34.8219 85.0065 34.9626 84.7565 35.2386C84.5065 35.5199 84.3815 35.8792 84.3815 36.3219V37.3636C84.3815 37.4053 84.4023 37.4261 84.444 37.4261H87.0273C87.069 37.4261 87.0898 37.4053 87.0898 37.3636V36.3219C87.0898 35.8792 86.9544 35.5199 86.694 35.2386C86.444 34.9626 86.1159 34.8219 85.7148 34.8219Z" fill="#D72333"/>
<path d="M92.5161 33.8424C93.1828 33.8424 93.714 34.0612 94.1203 34.4883C94.5213 34.9206 94.7244 35.5039 94.7244 36.2383V39.6341C94.7244 40.3424 94.5213 40.9206 94.1203 41.3633C93.7297 41.8112 93.1932 42.0299 92.5161 42.0299C92.2349 42.0299 91.964 41.9727 91.7036 41.8633C91.438 41.7539 91.2088 41.5872 91.0161 41.3633C91.0005 41.3529 90.9797 41.3529 90.9536 41.3633C90.938 41.3633 90.9328 41.3789 90.9328 41.4049V41.7383C90.9328 41.8529 90.8807 41.9049 90.7869 41.9049H89.9744C89.8755 41.9049 89.8286 41.8529 89.8286 41.7383V31.0716C89.8286 30.9779 89.8755 30.9258 89.9744 30.9258H90.7869C90.8807 30.9258 90.9328 30.9779 90.9328 31.0716V34.4674C90.9328 34.4987 90.938 34.5195 90.9536 34.5299C90.9797 34.5299 91.0057 34.5195 91.0369 34.4883C91.214 34.2799 91.438 34.1237 91.7036 34.0091C91.964 33.8997 92.2349 33.8424 92.5161 33.8424ZM93.5994 36.3216C93.5994 35.8789 93.4744 35.5195 93.2244 35.2383C92.9744 34.9622 92.6463 34.8216 92.2453 34.8216C91.8547 34.8216 91.5369 34.9622 91.2869 35.2383C91.0474 35.5195 90.9328 35.8789 90.9328 36.3216V39.5716C90.9328 40.0039 91.0474 40.3581 91.2869 40.6341C91.5369 40.9154 91.8547 41.0508 92.2453 41.0508C92.6463 41.0508 92.9744 40.9154 93.2244 40.6341C93.4744 40.3581 93.5994 40.0039 93.5994 39.5716V36.3216Z" fill="#D72333"/>
<path d="M98.7762 33.8426C99.5106 33.8426 100.094 34.0822 100.526 34.5509C100.969 35.0249 101.193 35.6655 101.193 36.4676V41.7384C101.193 41.853 101.141 41.9051 101.047 41.9051H100.235C100.136 41.9051 100.089 41.853 100.089 41.7384V41.2801C100.089 41.2541 100.078 41.2384 100.068 41.2384C100.052 41.2384 100.031 41.2489 100.005 41.2593C99.6147 41.7749 99.0366 42.0301 98.2762 42.0301C97.6929 42.0301 97.1825 41.8739 96.7554 41.5509C96.3387 41.2176 96.1304 40.6291 96.1304 39.7801C96.1304 38.8947 96.3856 38.2489 96.9012 37.8426C97.4116 37.4259 98.0887 37.2176 98.922 37.2176H100.026C100.068 37.2176 100.089 37.1968 100.089 37.1551V36.5301C100.089 36.0197 99.9637 35.6082 99.7137 35.3009C99.4741 34.9832 99.1564 34.8218 98.7554 34.8218C98.4325 34.8218 98.1616 34.9259 97.9429 35.1343C97.7189 35.3426 97.5887 35.6082 97.547 35.9259C97.547 36.0405 97.4897 36.0926 97.3804 36.0926L96.5054 36.0718C96.4481 36.0718 96.4064 36.0614 96.3804 36.0301C96.3647 35.9884 96.3595 35.9468 96.3595 35.9051C96.4116 35.2957 96.6616 34.8009 97.1095 34.4259C97.5679 34.0405 98.12 33.8426 98.7762 33.8426ZM98.5054 41.0509C98.9325 41.0509 99.3022 40.9155 99.6095 40.6343C99.9272 40.3582 100.089 39.978 100.089 39.4884V38.1759C100.089 38.1343 100.068 38.1134 100.026 38.1134H98.9012C98.4012 38.1134 98.0054 38.2489 97.7137 38.5093C97.422 38.7749 97.2762 39.1707 97.2762 39.6968C97.2762 40.1551 97.3856 40.4989 97.6095 40.7176C97.8283 40.9416 98.1304 41.0509 98.5054 41.0509ZM99.922 32.5301C99.6564 32.5301 99.4429 32.4468 99.2762 32.2801C99.12 32.1134 99.047 31.9051 99.047 31.6551C99.047 31.3947 99.12 31.1759 99.2762 31.0093C99.4429 30.8426 99.6564 30.7593 99.922 30.7593C100.172 30.7593 100.38 30.8426 100.547 31.0093C100.714 31.1759 100.797 31.3947 100.797 31.6551C100.797 31.9051 100.714 32.1134 100.547 32.2801C100.38 32.4468 100.172 32.5301 99.922 32.5301ZM97.5887 32.5301C97.3231 32.5301 97.1095 32.4468 96.9429 32.2801C96.7866 32.1134 96.7137 31.9051 96.7137 31.6551C96.7137 31.3947 96.7866 31.1759 96.9429 31.0093C97.1095 30.8426 97.3231 30.7593 97.5887 30.7593C97.8387 30.7593 98.047 30.8426 98.2137 31.0093C98.3804 31.1759 98.4637 31.3947 98.4637 31.6551C98.4637 31.9051 98.3804 32.1134 98.2137 32.2801C98.047 32.4468 97.8387 32.5301 97.5887 32.5301Z" fill="#D72333"/>
<path d="M105.182 42.0303C104.442 42.0303 103.854 41.8167 103.411 41.3844C102.963 40.9417 102.744 40.3584 102.744 39.6344V36.2386C102.744 35.5303 102.963 34.9574 103.411 34.5094C103.854 34.0667 104.442 33.8428 105.182 33.8428C105.682 33.8428 106.119 33.9469 106.494 34.1553C106.869 34.3532 107.15 34.6136 107.348 34.9469C107.557 35.2699 107.661 35.6292 107.661 36.0303V36.1761C107.661 36.2907 107.609 36.3428 107.515 36.3428L106.702 36.3636C106.604 36.3636 106.557 36.3167 106.557 36.2178V36.0928C106.557 35.7594 106.421 35.4678 106.161 35.2178C105.911 34.9574 105.583 34.8219 105.182 34.8219C104.791 34.8219 104.473 34.9626 104.223 35.2386C103.973 35.5199 103.848 35.8792 103.848 36.3219V39.5511C103.848 39.999 103.973 40.3584 104.223 40.6344C104.473 40.9157 104.791 41.0511 105.182 41.0511C105.583 41.0511 105.911 40.9261 106.161 40.6761C106.421 40.4157 106.557 40.1136 106.557 39.7803V39.6553C106.557 39.5615 106.604 39.5094 106.702 39.5094L107.515 39.5303C107.609 39.5303 107.661 39.5824 107.661 39.6761V39.8428C107.661 40.4834 107.432 41.0094 106.973 41.4261C106.525 41.8324 105.932 42.0303 105.182 42.0303Z" fill="#D72333"/>
<path d="M109.363 41.9049C109.264 41.9049 109.217 41.8529 109.217 41.7383V31.0716C109.217 30.9779 109.264 30.9258 109.363 30.9258H110.175C110.269 30.9258 110.321 30.9779 110.321 31.0716V37.3841C110.321 37.4154 110.326 37.4362 110.342 37.4466C110.368 37.4466 110.389 37.4414 110.404 37.4258L112.758 34.0508C112.8 33.9987 112.863 33.9674 112.946 33.9674H113.758C113.826 33.9674 113.868 33.9883 113.883 34.0299C113.91 34.0612 113.904 34.1029 113.863 34.1549L112.3 36.3841C112.269 36.4154 112.269 36.4414 112.3 36.4674L114.133 41.7383L114.154 41.8008C114.154 41.8737 114.102 41.9049 114.008 41.9049H113.175C113.092 41.9049 113.029 41.8633 112.988 41.7799L111.592 37.4258C111.592 37.3581 111.561 37.3529 111.508 37.4049L110.363 39.0299C110.331 39.0612 110.321 39.0872 110.321 39.1133V41.7383C110.321 41.8529 110.269 41.9049 110.175 41.9049H109.363Z" fill="#D72333"/>
<mask id="mask2_24_7307" style="mask-type:luminance" maskUnits="userSpaceOnUse" x="0" y="45" width="6" height="9">
<path d="M0.166504 45.3335H5.33317V53.3335H0.166504V45.3335Z" fill="white"/>
</mask>
<g mask="url(#mask2_24_7307)">
<path d="M4.02116 52.4569C3.96387 52.4569 3.92741 52.4308 3.91699 52.3735L3.68783 51.2485C3.68783 51.2381 3.67741 51.2277 3.66699 51.2277C3.66699 51.2277 3.65657 51.2277 3.64616 51.2277H2.00033C2.00033 51.2277 1.98991 51.2277 1.97949 51.2277C1.96387 51.2277 1.95866 51.2381 1.95866 51.2485L1.72949 52.3735C1.72949 52.4308 1.69824 52.4569 1.64616 52.4569H1.18783C1.14616 52.4569 1.11491 52.4517 1.10449 52.436C1.08887 52.41 1.08887 52.384 1.10449 52.3527L2.45866 46.2069C2.46908 46.1548 2.50553 46.1235 2.56283 46.1235H3.10449C3.15657 46.1235 3.18783 46.1548 3.18783 46.2069L4.56283 52.3527V52.3735C4.56283 52.4308 4.53157 52.4569 4.47949 52.4569H4.02116ZM2.08366 50.6652C2.08366 50.6808 2.08887 50.686 2.10449 50.686H3.54199C3.55241 50.686 3.56283 50.6808 3.56283 50.6652L2.83366 47.1027C2.83366 47.0923 2.82324 47.0819 2.81283 47.0819C2.81283 47.0819 2.81283 47.0923 2.81283 47.1027L2.08366 50.6652Z" fill="#D72333"/>
</g>
<path d="M7.47949 65.3057C7.47949 66.2536 7.21908 66.988 6.70866 67.514C6.20866 68.0296 5.52637 68.2848 4.66699 68.2848H2.27116C2.15657 68.2848 2.10449 68.2327 2.10449 68.1182V57.4515C2.10449 57.3577 2.15657 57.3057 2.27116 57.3057H4.52116C5.4222 57.3057 6.13053 57.5557 6.64616 58.0557C7.15658 58.5452 7.41699 59.2536 7.41699 60.1807C7.41699 61.3473 6.97949 62.1494 6.10449 62.5765C6.08887 62.5921 6.08366 62.6077 6.08366 62.6182C6.08366 62.6182 6.08366 62.6286 6.08366 62.639C7.01074 63.1702 7.47949 64.0557 7.47949 65.3057ZM3.29199 58.2848C3.25033 58.2848 3.22949 58.3057 3.22949 58.3473V62.1182C3.22949 62.1598 3.25033 62.1807 3.29199 62.1807H4.52116C5.08887 62.1807 5.52637 62.014 5.83366 61.6807C6.15137 61.3473 6.31283 60.8786 6.31283 60.264C6.31283 59.639 6.15137 59.1546 5.83366 58.8057C5.52637 58.4619 5.08887 58.2848 4.52116 58.2848H3.29199ZM4.58366 67.3057C5.13574 67.3057 5.56803 67.1182 5.87533 66.7432C6.19303 66.3682 6.35449 65.8473 6.35449 65.1807C6.35449 64.5036 6.19303 63.9723 5.87533 63.5973C5.56803 63.2223 5.13574 63.0348 4.58366 63.0348H3.29199C3.25033 63.0348 3.22949 63.0557 3.22949 63.0973V67.2432C3.22949 67.2848 3.25033 67.3057 3.29199 67.3057H4.58366Z" fill="#D72333"/>
<path d="M9.64746 58.9095C9.38184 58.9095 9.16829 58.8262 9.00163 58.6595C8.84538 58.4928 8.77246 58.2845 8.77246 58.0345C8.77246 57.7741 8.84538 57.5553 9.00163 57.3887C9.16829 57.222 9.38184 57.1387 9.64746 57.1387C9.89746 57.1387 10.1058 57.222 10.2725 57.3887C10.4391 57.5553 10.5225 57.7741 10.5225 58.0345C10.5225 58.2845 10.4391 58.4928 10.2725 58.6595C10.1058 58.8262 9.89746 58.9095 9.64746 58.9095ZM9.25163 68.2845C9.15267 68.2845 9.10579 68.2324 9.10579 68.1178V60.5137C9.10579 60.4043 9.15267 60.347 9.25163 60.347H10.0641C10.1579 60.347 10.21 60.4043 10.21 60.5137V68.1178C10.21 68.2324 10.1579 68.2845 10.0641 68.2845H9.25163Z" fill="#D72333"/>
<path d="M14.5355 68.4097C13.7855 68.4097 13.1865 68.1961 12.7438 67.7638C12.2959 67.3211 12.0771 66.7378 12.0771 66.0138V62.6388C12.0771 61.9305 12.2959 61.3576 12.7438 60.9097C13.1865 60.4513 13.7855 60.2222 14.5355 60.2222C15.2855 60.2222 15.8792 60.4513 16.3271 60.9097C16.7855 61.3576 17.0146 61.9305 17.0146 62.6388V66.0138C17.0146 66.7378 16.7855 67.3211 16.3271 67.7638C15.8792 68.1961 15.2855 68.4097 14.5355 68.4097ZM14.5355 67.4305C14.9209 67.4305 15.2438 67.2951 15.4938 67.0138C15.7542 66.7378 15.8896 66.3784 15.8896 65.9305V62.7013C15.8896 62.2586 15.7542 61.8993 15.4938 61.618C15.2438 61.342 14.9209 61.2013 14.5355 61.2013C14.1292 61.2013 13.8063 61.342 13.5563 61.618C13.3063 61.8993 13.1813 62.2586 13.1813 62.7013V65.9305C13.1813 66.3784 13.3063 66.7378 13.5563 67.0138C13.8063 67.2951 14.1292 67.4305 14.5355 67.4305Z" fill="#D72333"/>
<path d="M18.4621 63.8888C18.3475 63.8888 18.2954 63.842 18.2954 63.743V63.0763C18.2954 62.967 18.3475 62.9097 18.4621 62.9097H22.0454C22.1548 62.9097 22.2121 62.967 22.2121 63.0763V63.743C22.2121 63.842 22.1548 63.8888 22.0454 63.8888H18.4621Z" fill="#D72333"/>
<path d="M28.8092 58.1182C28.8092 58.2327 28.752 58.2848 28.6426 58.2848H25.0176C24.9759 58.2848 24.9551 58.3057 24.9551 58.3473V62.2223C24.9551 62.264 24.9759 62.2848 25.0176 62.2848H27.3092C27.403 62.2848 27.4551 62.3421 27.4551 62.4515V63.1182C27.4551 63.2327 27.403 63.2848 27.3092 63.2848H25.0176C24.9759 63.2848 24.9551 63.3057 24.9551 63.3473V67.2432C24.9551 67.2848 24.9759 67.3057 25.0176 67.3057H28.6426C28.752 67.3057 28.8092 67.363 28.8092 67.4723V68.1182C28.8092 68.2327 28.752 68.2848 28.6426 68.2848H23.9967C23.8822 68.2848 23.8301 68.2327 23.8301 68.1182V57.4515C23.8301 57.3577 23.8822 57.3057 23.9967 57.3057H28.6426C28.752 57.3057 28.8092 57.3577 28.8092 57.4515V58.1182Z" fill="#D72333"/>
<path d="M31.0596 58.9095C30.7939 58.9095 30.5804 58.8262 30.4137 58.6595C30.2575 58.4928 30.1846 58.2845 30.1846 58.0345C30.1846 57.7741 30.2575 57.5553 30.4137 57.3887C30.5804 57.222 30.7939 57.1387 31.0596 57.1387C31.3096 57.1387 31.5179 57.222 31.6846 57.3887C31.8512 57.5553 31.9346 57.7741 31.9346 58.0345C31.9346 58.2845 31.8512 58.4928 31.6846 58.6595C31.5179 58.8262 31.3096 58.9095 31.0596 58.9095ZM30.6637 68.2845C30.5648 68.2845 30.5179 68.2324 30.5179 68.1178V60.5137C30.5179 60.4043 30.5648 60.347 30.6637 60.347H31.4762C31.57 60.347 31.6221 60.4043 31.6221 60.5137V68.1178C31.6221 68.2324 31.57 68.2845 31.4762 68.2845H30.6637Z" fill="#D72333"/>
<path d="M2.83333 78.8988C2.41667 78.8988 2.07292 78.7738 1.8125 78.5238C1.5625 78.2738 1.4375 77.9404 1.4375 77.5238V75.5654C1.4375 75.1644 1.5625 74.8363 1.8125 74.5863C2.07292 74.3258 2.41667 74.1904 2.83333 74.1904C3.125 74.1904 3.375 74.2477 3.58333 74.3571C3.80208 74.4717 3.96875 74.6227 4.08333 74.8154C4.20833 75.0133 4.27083 75.2217 4.27083 75.4404V75.5446C4.27083 75.6019 4.23958 75.6279 4.1875 75.6279L3.72917 75.6488C3.65625 75.6488 3.625 75.6175 3.625 75.5446V75.4821C3.625 75.2894 3.54687 75.1227 3.39583 74.9821C3.25521 74.8311 3.06771 74.7529 2.83333 74.7529C2.60937 74.7529 2.42708 74.8363 2.29167 75.0029C2.15104 75.1592 2.08333 75.3571 2.08333 75.6071V77.4821C2.08333 77.7477 2.15104 77.9613 2.29167 78.1279C2.42708 78.2842 2.60937 78.3571 2.83333 78.3571C3.06771 78.3571 3.25521 78.2842 3.39583 78.1279C3.54687 77.9769 3.625 77.805 3.625 77.6071V77.5446C3.625 77.4925 3.65625 77.4613 3.72917 77.4613H4.1875C4.23958 77.4613 4.27083 77.4925 4.27083 77.5446V77.6488C4.27083 78.0133 4.13542 78.3102 3.875 78.5446C3.60937 78.7842 3.26042 78.8988 2.83333 78.8988Z" fill="#D72333"/>
</g>
</svg>
