<svg width="2" height="8" viewBox="0 0 2 8" fill="none" xmlns="http://www.w3.org/2000/svg">
<path d="M0.583333 1.1875C0.401041 1.1875 0.255208 1.13542 0.145833 1.02083C0.0468747 0.911459 0 0.770833 0 0.604167C0 0.427084 0.0468747 0.281249 0.145833 0.166667C0.255208 0.057292 0.401041 0 0.583333 0C0.75 0 0.885417 0.057292 1 0.166667C1.10937 0.281249 1.16667 0.427084 1.16667 0.604167C1.16667 0.770833 1.10937 0.911459 1 1.02083C0.885417 1.13542 0.75 1.1875 0.583333 1.1875ZM0.3125 7.5625C0.239583 7.5625 0.208333 7.53125 0.208333 7.45833V2.29167C0.208333 2.20833 0.239583 2.16667 0.3125 2.16667H0.854167C0.9375 2.16667 0.979167 2.20833 0.979167 2.29167V7.45833C0.979167 7.53125 0.9375 7.5625 0.854167 7.5625H0.3125Z" fill="#D72333"/>
</svg>
