<svg width="7" height="12" viewBox="0 0 7 12" fill="none" xmlns="http://www.w3.org/2000/svg">
<path d="M4.39583 11.1667C4.28125 11.1667 4.20833 11.1146 4.16667 11L2.9375 6.60417C2.92187 6.5625 2.90104 6.54167 2.875 6.54167H2.33333C2.27604 6.54167 2.25 6.57292 2.25 6.625V10.9792C2.25 11.0365 2.22917 11.0833 2.1875 11.125C2.14583 11.1562 2.10417 11.1667 2.0625 11.1667H0.1875C0.130208 11.1667 0.0833333 11.1562 0.0416667 11.125C0.010416 11.0833 0 11.0365 0 10.9792V0.1875C0 0.135416 0.010416 0.0937493 0.0416667 0.0625C0.0833333 0.0208333 0.130208 0 0.1875 0H3.41667C4 0 4.52083 0.140625 4.97917 0.416667C5.4375 0.697917 5.79167 1.09375 6.04167 1.60417C6.29167 2.11979 6.41667 2.70313 6.41667 3.35417C6.41667 3.99479 6.29167 4.55729 6.04167 5.04167C5.80208 5.51563 5.47917 5.88542 5.0625 6.14583C5.03125 6.14583 5.01042 6.16146 5 6.1875C4.98438 6.20313 4.98438 6.21875 5 6.22917L6.47917 10.9375V11C6.47917 11.1146 6.42188 11.1667 6.3125 11.1667H4.39583ZM2.33333 1.91667C2.27604 1.91667 2.25 1.94792 2.25 2V4.72917C2.25 4.78646 2.27604 4.8125 2.33333 4.8125H3.04167C3.375 4.8125 3.64583 4.6875 3.85417 4.4375C4.0625 4.17708 4.16667 3.82292 4.16667 3.375C4.16667 2.93229 4.0625 2.57813 3.85417 2.3125C3.64583 2.05208 3.375 1.91667 3.04167 1.91667H2.33333Z" fill="#D72333"/>
</svg>
