<svg width="3" height="15" viewBox="0 0 3 15" fill="none" xmlns="http://www.w3.org/2000/svg">
<path d="M2.02083 1.79167C1.75521 1.79167 1.54167 1.70833 1.375 1.54167C1.20833 1.36458 1.125 1.14583 1.125 0.895833C1.125 0.635416 1.20833 0.416667 1.375 0.25C1.54167 0.0833333 1.75521 0 2.02083 0C2.28125 0 2.48958 0.0833333 2.64583 0.25C2.8125 0.416667 2.89583 0.635416 2.89583 0.895833C2.89583 1.14583 2.8125 1.36458 2.64583 1.54167C2.47917 1.70833 2.27083 1.79167 2.02083 1.79167ZM0.166667 14.6458C0.057292 14.6458 0 14.5938 0 14.5V13.8125C0 13.7135 0.057292 13.6667 0.166667 13.6667C1.02604 13.6354 1.45833 13.0938 1.45833 12.0417V3.41667C1.45833 3.30729 1.50521 3.25 1.60417 3.25H2.41667C2.52604 3.25 2.58333 3.30729 2.58333 3.41667V12.0417C2.58333 12.9167 2.40625 13.5677 2.0625 14C1.72917 14.4271 1.09375 14.6458 0.166667 14.6458Z" fill="#D72333"/>
</svg>
