<svg width="4" height="8" viewBox="0 0 4 8" fill="none" xmlns="http://www.w3.org/2000/svg">
<path d="M1.91667 2C2.34375 2 2.67708 2.15625 2.91667 2.45833C3.16667 2.75 3.29167 3.16146 3.29167 3.6875V7.35417C3.29167 7.42708 3.25 7.45833 3.16667 7.45833H2.625C2.55208 7.45833 2.52083 7.42708 2.52083 7.35417V3.75C2.52083 3.40625 2.44271 3.14063 2.29167 2.95833C2.13542 2.76563 1.92708 2.66667 1.66667 2.66667C1.375 2.66667 1.14583 2.77083 0.979167 2.97917C0.822916 3.17708 0.75 3.45313 0.75 3.8125V7.35417C0.75 7.42708 0.713541 7.45833 0.645833 7.45833H0.104167C0.0312493 7.45833 0 7.42708 0 7.35417V0.104167C0 0.0364587 0.0312493 0 0.104167 0H0.645833C0.713541 0 0.75 0.0364587 0.75 0.104167V2.52083C0.75 2.53646 0.755208 2.55208 0.770833 2.5625C0.781249 2.5625 0.796875 2.55208 0.8125 2.52083C0.9375 2.35417 1.09375 2.22917 1.29167 2.14583C1.48437 2.05208 1.69271 2 1.91667 2Z" fill="#D72333"/>
</svg>
