<svg width="7" height="12" viewBox="0 0 7 12" fill="none" xmlns="http://www.w3.org/2000/svg">
<path d="M2.6875 11.2292C1.85417 11.2292 1.19271 11.0104 0.708333 10.5625C0.234375 10.1042 0 9.49479 0 8.72917C0 8.63542 0.005208 8.47917 0.0208333 8.27083L0.666667 2.95833C0.776041 2.05729 1.13542 1.34375 1.75 0.8125C2.375 0.270833 3.14583 0 4.0625 0C4.89583 0 5.55208 0.229167 6.04167 0.6875C6.52604 1.13542 6.77083 1.74479 6.77083 2.52083C6.77083 2.61979 6.75521 2.77083 6.72917 2.97917L6.66667 3.58333C6.66667 3.625 6.64583 3.66667 6.60417 3.70833C6.5625 3.75 6.51042 3.77083 6.45833 3.77083H4.6875C4.63021 3.77083 4.58333 3.75 4.54167 3.70833C4.51042 3.66667 4.50521 3.625 4.52083 3.58333L4.60417 2.9375C4.61458 2.89583 4.625 2.83333 4.625 2.75C4.625 2.5 4.54688 2.30208 4.39583 2.14583C4.25521 1.97917 4.06771 1.89583 3.83333 1.89583C3.56771 1.89583 3.33854 1.99479 3.14583 2.1875C2.96354 2.38542 2.85417 2.63542 2.8125 2.9375L2.16667 8.27083C2.125 8.59375 2.17187 8.84896 2.3125 9.04167C2.44792 9.23958 2.65104 9.33333 2.91667 9.33333C3.17708 9.33333 3.40104 9.23958 3.58333 9.04167C3.77604 8.84896 3.89583 8.59375 3.9375 8.27083L4.10417 7.02083C4.10417 6.96875 4.08333 6.9375 4.04167 6.9375H3.35417C3.3125 6.9375 3.27083 6.92708 3.22917 6.89583C3.19792 6.85417 3.19271 6.80729 3.20833 6.75L3.375 5.35417C3.375 5.3125 3.39583 5.27083 3.4375 5.22917C3.47917 5.1875 3.52604 5.16667 3.58333 5.16667H6.29167C6.40104 5.16667 6.45833 5.22917 6.45833 5.35417L6.10417 8.27083C5.98958 9.16146 5.625 9.875 5 10.4167C4.375 10.9583 3.60417 11.2292 2.6875 11.2292Z" fill="white"/>
</svg>
