<svg width="14" height="18" viewBox="0 0 14 18" fill="none" xmlns="http://www.w3.org/2000/svg">
<path d="M12.6912 16.9375C12.4412 17.0208 12.2589 17.0625 12.1496 17.0625C12.035 17.0625 11.8475 17.0208 11.5871 16.9375L11.2746 17.0833C11.035 16.9896 10.8423 16.9323 10.6912 16.9167C10.5506 16.8906 10.3683 16.8906 10.1496 16.9167C10.0662 16.9167 10.0089 16.9531 9.98291 17.0208C9.86832 17.1302 9.75374 17.1354 9.62874 17.0417C9.55582 17 9.47249 16.9583 9.37874 16.9167C9.29541 16.8646 9.23291 16.7917 9.19124 16.7083C9.10791 16.5833 9.05582 16.4531 9.04541 16.3125C9.04541 16.1615 9.04541 16.0156 9.04541 15.875L8.73291 15.6875L8.79541 15.2708L8.56624 15.25C8.48291 14.8229 8.35791 14.474 8.19124 14.2083C8.03499 13.9323 7.80062 13.6406 7.48291 13.3333C7.46728 12.9896 7.43082 12.724 7.37874 12.5417C7.32145 12.3646 7.19645 12.1458 7.00374 11.8958C6.82145 11.6198 6.65478 11.3438 6.50374 11.0625C6.34749 10.7865 6.15999 10.5365 5.94124 10.3125C5.73291 10.3438 5.52978 10.3854 5.33707 10.4375C5.15478 10.4948 5.00374 10.6198 4.87874 10.8125C4.72249 11.0781 4.64957 11.3854 4.64957 11.7292C4.64957 12.0781 4.63395 12.4063 4.60791 12.7083C4.60791 13.0313 4.61832 13.3438 4.64957 13.6458C4.69124 13.9531 4.69645 14.2656 4.67041 14.5833C4.65478 14.75 4.65999 14.9115 4.69124 15.0625C4.73291 15.2188 4.75895 15.3854 4.77457 15.5625C4.81624 15.7188 4.81624 15.8698 4.77457 16.0208C4.73291 16.1771 4.69124 16.3333 4.64957 16.5C4.61832 16.5156 4.62874 16.5521 4.67041 16.6042C4.69645 16.6198 4.70166 16.6563 4.69124 16.7083C4.69124 16.75 4.67562 16.7708 4.64957 16.7708C4.44124 16.8438 4.23812 16.9063 4.04541 16.9583C3.84749 17.0156 3.64957 17.0521 3.44124 17.0833C3.19124 17.125 2.92562 17.1302 2.64957 17.1042C2.38395 17.0729 2.11832 17.0365 1.85791 16.9792C1.84228 16.9792 1.82666 16.9896 1.81624 17C1.80062 17 1.78499 17 1.77457 17C1.55062 17.151 1.28499 17.1875 0.982907 17.1042C0.69124 17.0208 0.430824 16.9271 0.212074 16.8125C0.180824 16.7708 0.170407 16.724 0.170407 16.6667C0.279782 16.3073 0.305824 15.9375 0.25374 15.5625C0.212074 15.1771 0.19124 14.8073 0.19124 14.4583C0.19124 14.2917 0.175615 14.1354 0.149574 13.9792C0.118323 13.8125 0.118323 13.6563 0.149574 13.5C0.149574 13.3229 0.170407 13.1563 0.212074 13C0.25374 12.8333 0.264158 12.6667 0.25374 12.5C0.238115 12.125 0.180824 11.7708 0.0870736 11.4375C-0.011885 11.0938 -0.027509 10.7448 0.045407 10.3958C0.0714483 10.2188 0.113115 10.0417 0.170407 9.875C0.238115 9.69792 0.264158 9.51563 0.25374 9.33333C0.25374 9.15625 0.222491 8.97396 0.170407 8.79167C0.12874 8.59896 0.0766563 8.41667 0.0245736 8.25L0.212074 7.91667C0.139158 7.70833 0.113115 7.51042 0.12874 7.3125C0.139158 7.11979 0.154782 6.91667 0.170407 6.70833C0.196448 6.48958 0.19124 6.26042 0.149574 6.02083C0.118323 5.78646 0.097491 5.55208 0.0870736 5.3125C0.0714483 5.10417 0.0870736 4.90625 0.12874 4.70833C0.170407 4.5 0.19124 4.29167 0.19124 4.08333C0.201656 3.94792 0.196448 3.78646 0.170407 3.60417C0.154782 3.42708 0.212074 3.28125 0.337074 3.16667L0.149574 2.54167L0.170407 2.52083C0.097491 2.05208 0.097491 1.59896 0.170407 1.16667C0.196448 0.916667 0.300615 0.703125 0.482907 0.520833C0.65999 0.328125 0.883948 0.218749 1.14957 0.1875C1.23291 0.177083 1.31624 0.166667 1.39957 0.166667C1.48291 0.166667 1.57145 0.166667 1.67041 0.166667C1.86312 0.182292 2.05062 0.218749 2.23291 0.270833C2.40999 0.3125 2.59749 0.322917 2.79541 0.291667C2.97249 0.25 3.14957 0.203125 3.31624 0.145833C3.48291 0.0781253 3.65999 0.0416667 3.85791 0.0416667C4.06624 0.0416667 4.26416 0.0833333 4.46207 0.166667C4.65478 0.239584 4.85791 0.286459 5.06624 0.3125C5.24332 0.145833 5.43082 0.0729173 5.62874 0.0833333C5.83707 0.0989587 6.02457 0.140625 6.19124 0.208333L6.50374 0C6.67041 0.0729173 6.82145 0.135416 6.96207 0.1875C7.11312 0.244792 7.27457 0.281251 7.44124 0.291667C7.61832 0.291667 7.77978 0.281251 7.92041 0.25C8.07145 0.223959 8.23291 0.208333 8.39957 0.208333C8.74332 0.208333 9.08707 0.265625 9.42041 0.375C9.75374 0.473959 10.0923 0.572917 10.4412 0.666667C11.0246 0.848959 11.4725 1.15625 11.7954 1.58333C12.1131 2 12.4412 2.44792 12.7746 2.91667C12.9517 3.16667 13.1131 3.43229 13.2537 3.70833C13.4048 3.98958 13.4673 4.28646 13.4412 4.60417C13.4412 4.89583 13.4256 5.22396 13.3996 5.58333C13.3839 5.93229 13.3162 6.23958 13.1912 6.5C13.0767 6.78125 12.9829 7.07813 12.8996 7.39583C12.8267 7.71875 12.7121 8 12.5454 8.25C12.3631 8.53125 12.1339 8.76563 11.8579 8.95833C11.5767 9.14063 11.2954 9.3125 11.0037 9.47917C11.0298 10.5521 11.4048 11.5 12.1287 12.3333C12.0975 12.6823 12.1496 13.0313 12.2746 13.375C12.41 13.7083 12.5662 14.0313 12.7329 14.3333C12.8162 14.5 12.91 14.6563 13.0246 14.7917C13.1496 14.9167 13.2589 15.0729 13.3579 15.25C13.4412 15.375 13.4933 15.5156 13.5246 15.6667C13.5662 15.8073 13.6131 15.9479 13.6704 16.0833C13.6808 16.1979 13.7642 16.2865 13.9204 16.3542L13.5037 16.8125C13.4204 16.8854 13.3214 16.9167 13.2121 16.9167H12.7954C12.7798 16.9167 12.7642 16.9271 12.7537 16.9375C12.7381 16.9375 12.7173 16.9375 12.6912 16.9375ZM6.04541 2.25L5.71207 2.35417V2.54167L5.14957 2.3125C5.05062 2.45313 4.96207 2.57292 4.87874 2.66667C4.79541 2.75 4.68082 2.83333 4.54541 2.91667C4.54541 3.08333 4.58707 3.22917 4.67041 3.35417C4.76416 3.47917 4.82666 3.61458 4.85791 3.75C4.88395 3.91667 4.87874 4.08333 4.83707 4.25C4.79541 4.40625 4.77457 4.55729 4.77457 4.70833C4.75895 5.11458 4.74332 5.51042 4.73291 5.89583C4.73291 6.27083 4.67041 6.65625 4.54541 7.04167L4.98291 8.20833C5.20166 8.125 5.42562 8.11458 5.64957 8.16667C5.86832 8.20833 6.09228 8.22917 6.31624 8.22917C6.53499 8.24479 6.74332 8.21875 6.94124 8.14583C7.14957 8.07813 7.34749 8.01042 7.54541 7.9375C7.71207 7.53646 7.89957 7.14583 8.10791 6.77083C8.31624 6.39583 8.48812 6 8.62874 5.58333C8.54541 5.36458 8.43082 5.05208 8.29541 4.64583C8.17041 4.24479 8.13916 3.91667 8.21207 3.66667C8.00374 3.625 7.82145 3.45313 7.67041 3.14583C7.51416 2.84375 7.38916 2.60417 7.29541 2.4375C7.13916 2.60417 6.93082 2.63542 6.67041 2.52083C6.42041 2.41146 6.21207 2.32292 6.04541 2.25Z" fill="#D72333"/>
</svg>
