<svg width="5" height="9" viewBox="0 0 5 9" fill="none" xmlns="http://www.w3.org/2000/svg">
<path d="M2.5 8.29167C1.73437 8.29167 1.125 8.07292 0.666667 7.625C0.218749 7.18229 0 6.59896 0 5.875V2.45833C0 1.73958 0.229167 1.14583 0.6875 0.6875C1.14583 0.229167 1.75 0 2.5 0C3.26042 0 3.86458 0.229167 4.3125 0.6875C4.77083 1.14583 5 1.73958 5 2.45833V5.875C5 6.59896 4.77083 7.18229 4.3125 7.625C3.86458 8.07292 3.26042 8.29167 2.5 8.29167ZM2.5 7.29167C2.90104 7.29167 3.22917 7.15625 3.47917 6.875C3.73958 6.59896 3.875 6.23958 3.875 5.79167V2.52083C3.875 2.0625 3.73958 1.69792 3.47917 1.41667C3.22917 1.14063 2.90104 1 2.5 1C2.09375 1 1.76042 1.14063 1.5 1.41667C1.25 1.69792 1.125 2.0625 1.125 2.52083V5.79167C1.125 6.23958 1.25 6.59896 1.5 6.875C1.76042 7.15625 2.09375 7.29167 2.5 7.29167Z" fill="#D72333"/>
</svg>
