<svg width="4" height="9" viewBox="0 0 4 9" fill="none" xmlns="http://www.w3.org/2000/svg">
<path d="M2.6875 0C2.94792 0 3.17187 0.057292 3.35417 0.166667C3.42187 0.223959 3.44792 0.291667 3.4375 0.375L3.25 1.1875C3.23437 1.28646 3.17187 1.32292 3.0625 1.29167C2.9375 1.22396 2.77604 1.1875 2.58333 1.1875C2.5 1.1875 2.4375 1.19792 2.39583 1.20833C2.02083 1.23958 1.70833 1.4375 1.45833 1.8125C1.21875 2.17708 1.10417 2.625 1.10417 3.16667V7.85417C1.10417 7.96875 1.05208 8.02083 0.958333 8.02083H0.145833C0.0468747 8.02083 0 7.96875 0 7.85417V0.25C0 0.140625 0.0468747 0.0833333 0.145833 0.0833333H0.958333C1.05208 0.0833333 1.10417 0.140625 1.10417 0.25V1.1875C1.10417 1.21875 1.10937 1.22917 1.125 1.22917C1.15104 1.22917 1.17187 1.21875 1.1875 1.1875C1.48958 0.395833 1.98958 0 2.6875 0Z" fill="#D51224"/>
</svg>
