<svg width="6" height="9" viewBox="0 0 6 9" fill="none" xmlns="http://www.w3.org/2000/svg">
<path d="M2.08333 8.1875C1.42708 8.1875 0.916667 8.01042 0.541667 7.64583C0.177084 7.27083 0 6.78125 0 6.16667C0 6 0 5.875 0 5.79167L0.416667 2.39583C0.5 1.6875 0.781249 1.11458 1.27083 0.666667C1.77083 0.223959 2.38021 0 3.10417 0C3.75521 0 4.27604 0.1875 4.66667 0.5625C5.05208 0.927084 5.25 1.375 5.25 1.91667C5.25 2.03125 5.23958 2.11979 5.22917 2.1875L5.20833 2.33333C5.20833 2.375 5.1875 2.41667 5.14583 2.45833C5.11458 2.48958 5.08333 2.5 5.04167 2.5L4.25 2.52083C4.16667 2.52083 4.125 2.47396 4.125 2.375V2.25C4.13542 2.20833 4.14583 2.15625 4.14583 2.08333C4.14583 1.78125 4.03125 1.52083 3.8125 1.3125C3.60417 1.09375 3.32292 0.979167 2.97917 0.979167C2.58854 0.979167 2.25521 1.11979 1.97917 1.39583C1.71354 1.67708 1.55208 2.03646 1.5 2.47917L1.08333 5.70833C1.08333 5.78125 1.08333 5.86458 1.08333 5.95833C1.08333 6.33333 1.1875 6.64063 1.39583 6.875C1.60417 7.09896 1.875 7.20833 2.20833 7.20833C2.58333 7.20833 2.90625 7.08333 3.1875 6.83333C3.47917 6.57292 3.64583 6.27083 3.6875 5.9375V5.8125C3.71354 5.71875 3.77604 5.66667 3.875 5.66667L4.64583 5.6875C4.6875 5.6875 4.71875 5.70313 4.75 5.72917C4.77604 5.76042 4.78125 5.79167 4.77083 5.83333V6C4.6875 6.64063 4.39583 7.16667 3.89583 7.58333C3.40625 7.98958 2.80208 8.1875 2.08333 8.1875Z" fill="#D72333"/>
</svg>
