<svg width="6" height="12" viewBox="0 0 6 12" fill="none" xmlns="http://www.w3.org/2000/svg">
<path d="M2.6875 11.4167C1.86458 11.4167 1.21354 11.1771 0.729167 10.6875C0.239583 10.2031 0 9.55729 0 8.75V2.66667C0 1.84896 0.239583 1.20313 0.729167 0.729167C1.21354 0.244792 1.86458 0 2.6875 0C3.50521 0 4.16667 0.244792 4.66667 0.729167C5.16667 1.21875 5.41667 1.86458 5.41667 2.66667V3.35417C5.41667 3.46875 5.35938 3.52083 5.25 3.52083H4.4375C4.32292 3.52083 4.27083 3.46875 4.27083 3.35417V2.64583C4.27083 2.14583 4.125 1.74479 3.83333 1.4375C3.55208 1.13542 3.17187 0.979167 2.6875 0.979167C2.22917 0.979167 1.85417 1.14063 1.5625 1.45833C1.27083 1.76563 1.125 2.16146 1.125 2.64583V8.77083C1.125 9.26042 1.27083 9.66146 1.5625 9.97917C1.85417 10.2865 2.22917 10.4375 2.6875 10.4375C3.17187 10.4375 3.55208 10.2865 3.83333 9.97917C4.125 9.67708 4.27083 9.27083 4.27083 8.77083V6.72917C4.27083 6.6875 4.25 6.66667 4.20833 6.66667H2.83333C2.73437 6.66667 2.6875 6.61458 2.6875 6.5V5.83333C2.6875 5.72396 2.73437 5.66667 2.83333 5.66667H5.25C5.35938 5.66667 5.41667 5.72396 5.41667 5.83333V8.75C5.41667 9.55729 5.16667 10.2031 4.66667 10.6875C4.16667 11.1771 3.50521 11.4167 2.6875 11.4167Z" fill="#D72333"/>
</svg>
