<svg width="6" height="12" viewBox="0 0 6 12" fill="none" xmlns="http://www.w3.org/2000/svg">
<path d="M2.70833 11.4167C1.88542 11.4167 1.22917 11.1667 0.729167 10.6667C0.239584 10.1667 0 9.5 0 8.66667V2.72917C0 1.91146 0.239584 1.25 0.729167 0.75C1.22917 0.25 1.88542 0 2.70833 0C3.54167 0 4.19792 0.25 4.6875 0.75C5.1875 1.23958 5.4375 1.89583 5.4375 2.72917V3C5.4375 3.11458 5.38542 3.16667 5.29167 3.16667L4.45833 3.20833C4.34375 3.20833 4.29167 3.16146 4.29167 3.0625V2.66667C4.29167 2.16667 4.14583 1.76563 3.85417 1.45833C3.57292 1.14063 3.19271 0.979167 2.70833 0.979167C2.25 0.979167 1.875 1.14063 1.58333 1.45833C1.29167 1.76563 1.14583 2.16667 1.14583 2.66667V8.75C1.14583 9.25 1.29167 9.66146 1.58333 9.97917C1.875 10.2865 2.25 10.4375 2.70833 10.4375C3.19271 10.4375 3.57292 10.2865 3.85417 9.97917C4.14583 9.66146 4.29167 9.25 4.29167 8.75V8.35417C4.29167 8.24479 4.34375 8.1875 4.45833 8.1875L5.29167 8.25C5.38542 8.25 5.4375 8.30208 5.4375 8.39583V8.66667C5.4375 9.5 5.1875 10.1667 4.6875 10.6667C4.1875 11.1667 3.52604 11.4167 2.70833 11.4167Z" fill="#D72333"/>
</svg>
