<svg width="5" height="9" viewBox="0 0 5 9" fill="none" xmlns="http://www.w3.org/2000/svg">
<path d="M2.875 0C3.51042 0 4.01042 0.223959 4.375 0.666667C4.73438 1.11458 4.91667 1.73958 4.91667 2.54167V8.02083C4.91667 8.13542 4.85938 8.1875 4.75 8.1875H3.9375C3.82292 8.1875 3.77083 8.13542 3.77083 8.02083V2.625C3.77083 2.11458 3.65104 1.71875 3.41667 1.4375C3.19271 1.14583 2.88021 1 2.47917 1C2.0625 1 1.72917 1.15625 1.47917 1.45833C1.23958 1.76563 1.125 2.18229 1.125 2.70833V8.02083C1.125 8.13542 1.06771 8.1875 0.958333 8.1875H0.145833C0.0468747 8.1875 0 8.13542 0 8.02083V0.270833C0 0.161459 0.0468747 0.104167 0.145833 0.104167H0.958333C1.06771 0.104167 1.125 0.161459 1.125 0.270833V0.791667C1.125 0.807292 1.13021 0.822916 1.14583 0.833333C1.17187 0.848959 1.19271 0.833333 1.20833 0.791667C1.40104 0.531249 1.64583 0.333333 1.9375 0.208333C2.22917 0.072916 2.54167 0 2.875 0Z" fill="#D72333"/>
</svg>
