<svg width="6" height="12" viewBox="0 0 6 12" fill="none" xmlns="http://www.w3.org/2000/svg">
<path d="M4.47917 0.145833C4.47917 0.0520827 4.52604 0 4.625 0H5.4375C5.53125 0 5.58333 0.0520827 5.58333 0.145833V11C5.58333 11.1146 5.53125 11.1667 5.4375 11.1667H4.47917C4.39583 11.1667 4.33854 11.125 4.3125 11.0417L1.20833 2.79167C1.19271 2.76563 1.17187 2.75 1.14583 2.75C1.13021 2.75 1.125 2.77083 1.125 2.8125L1.14583 11C1.14583 11.1146 1.08854 11.1667 0.979167 11.1667H0.166667C0.052084 11.1667 0 11.1146 0 11V0.145833C0 0.0520827 0.052084 0 0.166667 0H1.08333C1.16667 0 1.22917 0.0416667 1.27083 0.125L4.39583 8.39583C4.40625 8.42708 4.42188 8.4375 4.4375 8.4375C4.46354 8.42708 4.47917 8.40625 4.47917 8.375V0.145833Z" fill="#D72333"/>
</svg>
