<svg width="143" height="31" viewBox="0 0 143 31" fill="none" xmlns="http://www.w3.org/2000/svg">
<mask id="mask0_25_13898" style="mask-type:luminance" maskUnits="userSpaceOnUse" x="0" y="0" width="143" height="31">
<path d="M142.667 0H0V30.6667H142.667V0Z" fill="white"/>
</mask>
<g mask="url(#mask0_25_13898)">
<path d="M17.2694 9.89062V10.849C17.2694 11.4219 17.1444 11.9531 16.8944 12.4531C16.6444 12.9531 16.3006 13.3698 15.8735 13.7031C16.4569 13.901 16.9881 14.2396 17.4777 14.724C18.3215 15.5313 18.7485 16.5313 18.7485 17.724V18.8698C18.7485 19.651 18.5506 20.3594 18.1652 20.9948C17.7902 21.6354 17.2746 22.151 16.6235 22.5365C15.9829 22.9115 15.2694 23.099 14.4777 23.099H1.93604C1.79541 23.099 1.67562 23.0521 1.58187 22.9531C1.48291 22.8438 1.43604 22.7188 1.43604 22.5781C1.43604 22.4427 1.48291 22.3229 1.58187 22.224C1.67562 22.1302 1.79541 22.0781 1.93604 22.0781H3.68604V7.22396H1.93604C1.79541 7.22396 1.67562 7.17708 1.58187 7.07812C1.48291 6.98437 1.43604 6.86458 1.43604 6.72396C1.43604 6.58854 1.48291 6.46875 1.58187 6.36979C1.67562 6.26042 1.79541 6.20312 1.93604 6.20312H13.6027C14.6027 6.20312 15.4673 6.57292 16.2069 7.30729C16.9152 8.01562 17.2694 8.88021 17.2694 9.89062ZM4.7277 7.22396V13.4531H7.12354V7.22396H4.7277ZM8.14437 7.22396V13.4531H10.1027C10.6027 13.4531 11.0506 13.3385 11.4569 13.099C11.8735 12.8646 12.2069 12.5521 12.4569 12.1615C12.7069 11.7604 12.8319 11.3229 12.8319 10.849V9.89062C12.8319 9.15625 12.561 8.53125 12.0194 8.01562C11.4881 7.48958 10.8527 7.22396 10.1027 7.22396H8.14437ZM16.2485 10.849V9.89062C16.2485 9.15625 15.9881 8.53125 15.4777 8.01562C14.9465 7.48958 14.3215 7.22396 13.6027 7.22396H12.6652C13.0246 7.57292 13.3162 7.97396 13.5402 8.43229C13.759 8.89062 13.8735 9.38021 13.8735 9.89062V10.849C13.8735 11.8646 13.4985 12.724 12.7485 13.4323C12.7329 13.4323 12.7277 13.4427 12.7277 13.4531C12.7277 13.4531 12.7173 13.4531 12.7069 13.4531H13.6027C14.0871 13.4531 14.5246 13.3438 14.9152 13.1198C15.3162 12.8854 15.634 12.5729 15.8735 12.1823C16.1235 11.7813 16.2485 11.3385 16.2485 10.849ZM7.12354 22.0781V14.4948H4.7277V22.0781H7.12354ZM8.14437 22.0781H11.0402C11.6496 22.0781 12.1965 21.9323 12.686 21.6406C13.1704 21.349 13.561 20.9635 13.8527 20.474C14.1444 19.9896 14.2902 19.4531 14.2902 18.8698V17.724C14.2902 16.849 13.9673 16.0938 13.3319 15.4531C12.7173 14.8177 11.9569 14.4948 11.0402 14.4948H8.14437V22.0781ZM17.7069 18.8698V17.724C17.7069 16.849 17.384 16.0938 16.7485 15.4531C16.1496 14.8177 15.3944 14.4948 14.4777 14.4948H13.811C13.8527 14.526 13.8944 14.5573 13.936 14.599C13.9777 14.6406 14.0194 14.6823 14.061 14.724C14.8944 15.5313 15.311 16.5313 15.311 17.724V18.8698C15.311 19.4948 15.1704 20.0938 14.8944 20.6615C14.6287 21.2188 14.2694 21.6927 13.811 22.0781H14.4777C15.061 22.0781 15.5923 21.9323 16.0819 21.6406C16.5819 21.349 16.9777 20.9635 17.2694 20.474C17.561 19.9896 17.7069 19.4531 17.7069 18.8698Z" fill="#D72333"/>
<path d="M36.3527 6.22363H40.686C40.8215 6.22363 40.9412 6.28092 41.0402 6.3903C41.1496 6.48926 41.2069 6.60905 41.2069 6.74447C41.2069 6.90072 41.1496 7.03092 41.0402 7.1403C40.9412 7.23926 40.8215 7.28613 40.686 7.28613H39.0402V17.6195C39.0402 18.3434 38.8944 19.0466 38.6027 19.7236C38.3215 20.3903 37.9256 20.984 37.4152 21.4945C36.8996 22.0257 36.311 22.4268 35.6444 22.7028C34.9777 22.9684 34.2746 23.0986 33.5402 23.0986H30.5194C28.9881 23.0986 27.6912 22.5674 26.6235 21.4945C25.5662 20.4424 25.0402 19.1507 25.0402 17.6195V7.28613H23.3944C23.2381 7.28613 23.1131 7.23926 23.0194 7.1403C22.9204 7.03092 22.8735 6.90072 22.8735 6.74447C22.8735 6.60905 22.9204 6.48926 23.0194 6.3903C23.1131 6.28092 23.2381 6.22363 23.3944 6.22363H31.2694C31.4048 6.22363 31.5246 6.28092 31.6235 6.3903C31.7173 6.48926 31.7694 6.60905 31.7694 6.74447C31.7694 6.90072 31.7173 7.03092 31.6235 7.1403C31.5246 7.23926 31.4048 7.28613 31.2694 7.28613H29.4569V17.6195C29.4569 18.1924 29.5662 18.7549 29.7902 19.307C30.009 19.8486 30.3371 20.3278 30.7694 20.7445C31.6548 21.5934 32.7173 22.0153 33.9569 22.0153C35.0402 21.932 35.9465 21.5101 36.686 20.7445C37.5454 19.8695 37.9777 18.8278 37.9777 17.6195V7.28613H36.3527C36.1965 7.28613 36.0662 7.23926 35.9569 7.1403C35.8579 7.03092 35.811 6.90072 35.811 6.74447C35.811 6.60905 35.8579 6.48926 35.9569 6.3903C36.0662 6.28092 36.1965 6.22363 36.3527 6.22363ZM26.0819 7.28613V17.6195C26.0819 18.8434 26.509 19.8851 27.3735 20.7445C28.2329 21.6195 29.2798 22.057 30.5194 22.057H30.7069C30.4412 21.8643 30.2121 21.6768 30.0194 21.4945C29.4881 20.984 29.0871 20.3851 28.811 19.7028C28.5454 19.0257 28.4152 18.3278 28.4152 17.6195V7.28613H26.0819Z" fill="#D72333"/>
<path d="M60.328 9.89062V10.849C60.328 11.4219 60.203 11.9531 59.953 12.4531C59.703 12.9531 59.3592 13.3698 58.9321 13.7031C59.5155 13.901 60.0467 14.2396 60.5363 14.724C61.38 15.5313 61.8071 16.5313 61.8071 17.724V18.8698C61.8071 19.651 61.6092 20.3594 61.2238 20.9948C60.8488 21.6354 60.3332 22.151 59.6821 22.5365C59.0415 22.9115 58.328 23.099 57.5363 23.099H44.9946C44.854 23.099 44.7342 23.0521 44.6405 22.9531C44.5415 22.8438 44.4946 22.7188 44.4946 22.5781C44.4946 22.4427 44.5415 22.3229 44.6405 22.224C44.7342 22.1302 44.854 22.0781 44.9946 22.0781H46.7446V7.22396H44.9946C44.854 7.22396 44.7342 7.17708 44.6405 7.07812C44.5415 6.98437 44.4946 6.86458 44.4946 6.72396C44.4946 6.58854 44.5415 6.46875 44.6405 6.36979C44.7342 6.26042 44.854 6.20312 44.9946 6.20312H56.6613C57.6613 6.20312 58.5259 6.57292 59.2655 7.30729C59.9738 8.01562 60.328 8.88021 60.328 9.89062ZM47.7863 7.22396V13.4531H50.1821V7.22396H47.7863ZM51.203 7.22396V13.4531H53.1613C53.6613 13.4531 54.1092 13.3385 54.5155 13.099C54.9321 12.8646 55.2655 12.5521 55.5155 12.1615C55.7655 11.7604 55.8905 11.3229 55.8905 10.849V9.89062C55.8905 9.15625 55.6196 8.53125 55.078 8.01562C54.5467 7.48958 53.9113 7.22396 53.1613 7.22396H51.203ZM59.3071 10.849V9.89062C59.3071 9.15625 59.0467 8.53125 58.5363 8.01562C58.005 7.48958 57.38 7.22396 56.6613 7.22396H55.7238C56.0832 7.57292 56.3748 7.97396 56.5988 8.43229C56.8175 8.89062 56.9321 9.38021 56.9321 9.89062V10.849C56.9321 11.8646 56.5571 12.724 55.8071 13.4323C55.7915 13.4323 55.7863 13.4427 55.7863 13.4531C55.7863 13.4531 55.7759 13.4531 55.7655 13.4531H56.6613C57.1457 13.4531 57.5832 13.3438 57.9738 13.1198C58.3748 12.8854 58.6925 12.5729 58.9321 12.1823C59.1821 11.7813 59.3071 11.3385 59.3071 10.849ZM50.1821 22.0781V14.4948H47.7863V22.0781H50.1821ZM51.203 22.0781H54.0988C54.7082 22.0781 55.255 21.9323 55.7446 21.6406C56.229 21.349 56.6196 20.9635 56.9113 20.474C57.203 19.9896 57.3488 19.4531 57.3488 18.8698V17.724C57.3488 16.849 57.0259 16.0938 56.3905 15.4531C55.7759 14.8177 55.0155 14.4948 54.0988 14.4948H51.203V22.0781ZM60.7655 18.8698V17.724C60.7655 16.849 60.4425 16.0938 59.8071 15.4531C59.2082 14.8177 58.453 14.4948 57.5363 14.4948H56.8696C56.9113 14.526 56.953 14.5573 56.9946 14.599C57.0363 14.6406 57.078 14.6823 57.1196 14.724C57.953 15.5313 58.3696 16.5313 58.3696 17.724V18.8698C58.3696 19.4948 58.229 20.0938 57.953 20.6615C57.6873 21.2188 57.328 21.6927 56.8696 22.0781H57.5363C58.1196 22.0781 58.6509 21.9323 59.1405 21.6406C59.6405 21.349 60.0363 20.9635 60.328 20.474C60.6196 19.9896 60.7655 19.4531 60.7655 18.8698Z" fill="#D72333"/>
<path d="M81.9744 9.89062V10.849C81.9744 11.4219 81.8494 11.9531 81.5994 12.4531C81.3494 12.9531 81.0057 13.3698 80.5786 13.7031C81.1619 13.901 81.6932 14.2396 82.1828 14.724C83.0265 15.5313 83.4536 16.5313 83.4536 17.724V18.8698C83.4536 19.651 83.2557 20.3594 82.8703 20.9948C82.4953 21.6354 81.9797 22.151 81.3286 22.5365C80.688 22.9115 79.9744 23.099 79.1828 23.099H66.6411C66.5005 23.099 66.3807 23.0521 66.2869 22.9531C66.188 22.8438 66.1411 22.7188 66.1411 22.5781C66.1411 22.4427 66.188 22.3229 66.2869 22.224C66.3807 22.1302 66.5005 22.0781 66.6411 22.0781H68.3911V7.22396H66.6411C66.5005 7.22396 66.3807 7.17708 66.2869 7.07812C66.188 6.98437 66.1411 6.86458 66.1411 6.72396C66.1411 6.58854 66.188 6.46875 66.2869 6.36979C66.3807 6.26042 66.5005 6.20312 66.6411 6.20312H78.3078C79.3078 6.20312 80.1724 6.57292 80.9119 7.30729C81.6203 8.01562 81.9744 8.88021 81.9744 9.89062ZM69.4328 7.22396V13.4531H71.8286V7.22396H69.4328ZM72.8494 7.22396V13.4531H74.8078C75.3078 13.4531 75.7557 13.3385 76.1619 13.099C76.5786 12.8646 76.9119 12.5521 77.1619 12.1615C77.4119 11.7604 77.5369 11.3229 77.5369 10.849V9.89062C77.5369 9.15625 77.2661 8.53125 76.7244 8.01562C76.1932 7.48958 75.5578 7.22396 74.8078 7.22396H72.8494ZM80.9536 10.849V9.89062C80.9536 9.15625 80.6932 8.53125 80.1828 8.01562C79.6515 7.48958 79.0265 7.22396 78.3078 7.22396H77.3703C77.7297 7.57292 78.0213 7.97396 78.2453 8.43229C78.464 8.89062 78.5786 9.38021 78.5786 9.89062V10.849C78.5786 11.8646 78.2036 12.724 77.4536 13.4323C77.438 13.4323 77.4328 13.4427 77.4328 13.4531C77.4328 13.4531 77.4224 13.4531 77.4119 13.4531H78.3078C78.7922 13.4531 79.2297 13.3438 79.6203 13.1198C80.0213 12.8854 80.339 12.5729 80.5786 12.1823C80.8286 11.7813 80.9536 11.3385 80.9536 10.849ZM71.8286 22.0781V14.4948H69.4328V22.0781H71.8286ZM72.8494 22.0781H75.7453C76.3547 22.0781 76.9015 21.9323 77.3911 21.6406C77.8755 21.349 78.2661 20.9635 78.5578 20.474C78.8494 19.9896 78.9953 19.4531 78.9953 18.8698V17.724C78.9953 16.849 78.6724 16.0938 78.0369 15.4531C77.4224 14.8177 76.6619 14.4948 75.7453 14.4948H72.8494V22.0781ZM82.4119 18.8698V17.724C82.4119 16.849 82.089 16.0938 81.4536 15.4531C80.8547 14.8177 80.0994 14.4948 79.1828 14.4948H78.5161C78.5578 14.526 78.5994 14.5573 78.6411 14.599C78.6828 14.6406 78.7244 14.6823 78.7661 14.724C79.5994 15.5313 80.0161 16.5313 80.0161 17.724V18.8698C80.0161 19.4948 79.8755 20.0938 79.5994 20.6615C79.3338 21.2188 78.9744 21.6927 78.5161 22.0781H79.1828C79.7661 22.0781 80.2974 21.9323 80.7869 21.6406C81.2869 21.349 81.6828 20.9635 81.9744 20.474C82.2661 19.9896 82.4119 19.4531 82.4119 18.8698Z" fill="#D72333"/>
<path d="M100.37 22.078V20.3905C100.37 20.255 100.417 20.1353 100.516 20.0363C100.626 19.9269 100.751 19.8696 100.891 19.8696C101.027 19.8696 101.146 19.9269 101.245 20.0363C101.355 20.1353 101.412 20.255 101.412 20.3905V22.578C101.412 22.7186 101.355 22.8436 101.245 22.953C101.146 23.0519 101.027 23.0988 100.891 23.0988H88.2871C88.1465 23.0988 88.0267 23.0519 87.9329 22.953C87.834 22.8436 87.7871 22.7186 87.7871 22.578C87.7871 22.4425 87.834 22.3228 87.9329 22.2238C88.0267 22.13 88.1465 22.078 88.2871 22.078H90.0579V7.32796H88.2871C88.1465 7.32796 88.0267 7.28109 87.9329 7.18213C87.834 7.07275 87.7871 6.94775 87.7871 6.80713C87.7871 6.67171 87.834 6.55192 87.9329 6.45296C88.0267 6.35921 88.1465 6.30713 88.2871 6.30713H96.1621C96.2975 6.30713 96.4173 6.35921 96.5163 6.45296C96.61 6.55192 96.6621 6.67171 96.6621 6.80713C96.6621 6.94775 96.61 7.07275 96.5163 7.18213C96.4173 7.28109 96.2975 7.32796 96.1621 7.32796H94.4746V22.078H100.37ZM93.4538 22.078V7.32796H91.0996V22.078H93.4538Z" fill="#D72333"/>
<path d="M120.151 6.76546V8.89046C120.151 9.03109 120.099 9.15609 120.005 9.26546C119.906 9.36442 119.786 9.4113 119.651 9.4113C119.51 9.4113 119.385 9.36442 119.276 9.26546C119.177 9.15609 119.13 9.03109 119.13 8.89046V7.2863H111.922V15.9738H115.276V14.328C115.276 14.1925 115.323 14.0728 115.422 13.9738C115.531 13.8644 115.656 13.8071 115.797 13.8071C115.932 13.8071 116.052 13.8644 116.151 13.9738C116.26 14.0728 116.318 14.1925 116.318 14.328V18.6196C116.318 18.7603 116.26 18.8853 116.151 18.9946C116.052 19.0936 115.932 19.1405 115.797 19.1405C115.656 19.1405 115.531 19.0936 115.422 18.9946C115.323 18.8853 115.276 18.7603 115.276 18.6196V17.0155H111.922V22.078H119.13V20.453C119.13 20.3175 119.177 20.1978 119.276 20.0988C119.385 20.005 119.51 19.953 119.651 19.953C119.786 19.953 119.906 20.005 120.005 20.0988C120.099 20.1978 120.151 20.3175 120.151 20.453V22.578C120.151 22.7186 120.099 22.8436 120.005 22.953C119.906 23.0519 119.786 23.0988 119.651 23.0988H105.734C105.594 23.0988 105.474 23.0519 105.38 22.953C105.281 22.8436 105.234 22.7186 105.234 22.578C105.234 22.4425 105.281 22.3228 105.38 22.2238C105.474 22.13 105.594 22.078 105.734 22.078H107.443V7.2863H105.734C105.594 7.2863 105.474 7.23942 105.38 7.14046C105.281 7.03109 105.234 6.90609 105.234 6.76546C105.234 6.63005 105.281 6.51025 105.38 6.4113C105.474 6.30192 105.594 6.24463 105.734 6.24463H119.651C119.786 6.24463 119.906 6.30192 120.005 6.4113C120.099 6.51025 120.151 6.63005 120.151 6.76546ZM110.901 7.2863H108.464V15.9738H110.901V7.2863ZM110.901 17.0155H108.464V22.078H110.901V17.0155Z" fill="#D72333"/>
<path d="M138.58 16.828V18.6613C138.58 19.0103 138.538 19.3436 138.455 19.6613C138.273 20.1613 137.981 20.6196 137.58 21.0363C137.174 21.453 136.674 21.8176 136.08 22.1196C135.648 22.4113 135.122 22.6301 134.497 22.7655V22.7446C133.788 22.9426 133.028 23.0571 132.226 23.0988H131.788C130.174 23.0988 128.788 22.7655 127.622 22.0988C127.413 21.9894 127.226 21.8696 127.059 21.7446C126.892 21.6196 126.736 21.4946 126.601 21.3696V22.4946C126.601 22.6509 126.543 22.7811 126.434 22.8905C126.319 23.0051 126.194 23.0571 126.059 23.0571C125.903 23.0571 125.773 23.0051 125.663 22.8905C125.549 22.7811 125.497 22.6509 125.497 22.4946V18.0988C125.497 17.9478 125.549 17.8228 125.663 17.7238C125.773 17.6301 125.903 17.578 126.059 17.578C126.194 17.578 126.319 17.6301 126.434 17.7238C126.543 17.8228 126.601 17.9478 126.601 18.0988V19.2655C126.726 20.0467 127.267 20.6978 128.226 21.2238C128.752 21.5311 129.356 21.7551 130.038 21.8905C130.715 22.0311 131.424 22.0936 132.163 22.078C132.913 22.0259 133.611 21.9061 134.267 21.7238V21.703L134.788 21.5571L135.08 21.4113C135.799 21.1092 136.174 20.6405 136.205 20.0155C136.231 19.5571 136.043 19.0936 135.642 18.6196C135.184 18.1092 134.585 17.7394 133.851 17.5155C132.861 17.2238 132.09 16.9946 131.538 16.828C130.981 16.6509 130.564 16.5259 130.288 16.453C130.023 16.3696 129.851 16.3228 129.767 16.3071C129.694 16.2811 129.663 16.2655 129.663 16.2655C128.84 16.0311 128.111 15.5571 127.476 14.8488C127.168 14.4894 126.924 14.0988 126.747 13.6821C126.564 13.2655 126.476 12.8592 126.476 12.453V10.703C126.444 10.1092 126.585 9.51026 126.892 8.9113C127.168 8.38526 127.585 7.89047 128.142 7.43214C129.252 6.54672 130.59 6.07276 132.163 6.01547C133.038 5.98943 133.872 6.0988 134.663 6.3488C135.455 6.58839 136.142 6.92693 136.726 7.36964V6.68214C136.726 6.51547 136.773 6.38526 136.872 6.2863C136.981 6.19255 137.122 6.14047 137.288 6.14047C137.424 6.14047 137.543 6.19255 137.642 6.2863C137.752 6.38526 137.809 6.51547 137.809 6.68214V10.3905C137.809 10.5467 137.752 10.6769 137.642 10.7863C137.543 10.8853 137.424 10.9321 137.288 10.9321C137.122 10.9321 136.981 10.8853 136.872 10.7863C136.773 10.6769 136.726 10.5467 136.726 10.3905V8.93214C136.335 8.38005 135.757 7.93214 134.997 7.5988C134.58 7.42172 134.132 7.2863 133.663 7.20297C133.189 7.11964 132.71 7.08839 132.226 7.0988C131.351 7.14047 130.549 7.32797 129.83 7.6613C129.398 7.90089 128.986 8.19776 128.601 8.55714C128.226 8.9061 128.059 9.30193 128.101 9.74464C128.142 10.0519 128.273 10.3488 128.497 10.6405C128.731 10.9217 129.023 11.1613 129.372 11.3696C129.731 11.578 130.085 11.7394 130.434 11.8488L135.101 13.2655C136.111 13.6405 136.924 14.1144 137.538 14.6821C138.205 15.2967 138.549 16.0103 138.58 16.828ZM137.413 18.6613V16.828C137.413 16.3176 137.174 15.828 136.705 15.3696C136.231 14.9269 135.559 14.5467 134.684 14.2238L130.08 12.8071C129.34 12.6301 128.674 12.2759 128.08 11.7446C127.965 11.6613 127.872 11.578 127.788 11.4946C127.705 11.4009 127.627 11.3019 127.559 11.203V12.4321C127.585 13.0467 127.83 13.6092 128.288 14.1196C128.523 14.3696 128.793 14.5988 129.101 14.8071C129.403 15.0155 129.694 15.1613 129.976 15.2446C130.069 15.2759 130.163 15.3019 130.247 15.328C130.34 15.3436 130.507 15.3853 130.747 15.453C130.997 15.5259 131.382 15.6405 131.913 15.8071C132.439 15.9634 133.189 16.1821 134.163 16.4738C135.09 16.7551 135.856 17.2342 136.455 17.9113C136.898 18.4113 137.163 18.9686 137.247 19.578L137.33 19.3905C137.356 19.2655 137.377 19.1509 137.392 19.0363C137.418 18.9113 137.424 18.7863 137.413 18.6613Z" fill="#D72333"/>
</g>
</svg>
