<svg width="10" height="8" viewBox="0 0 10 8" fill="none" xmlns="http://www.w3.org/2000/svg">
<path d="M5.6875 5C5.71354 5.01563 5.73958 5.02083 5.77083 5.02083C5.8125 5.02083 5.83854 5.02083 5.85417 5.02083C6.23958 5.02083 6.58333 4.89063 6.875 4.625C7.17708 4.36458 7.40104 4.03125 7.54167 3.625C7.60938 3.375 7.72917 3.20313 7.89583 3.10417C8.0625 2.99479 8.23438 2.9375 8.41667 2.9375C8.60938 2.9375 8.78125 3.01042 8.9375 3.14583C9.08854 3.27083 9.16667 3.45313 9.16667 3.6875C9.16667 3.80208 9.13542 3.93229 9.08333 4.08333C8.94271 4.54167 8.71354 4.96875 8.39583 5.35417C8.08854 5.72917 7.71354 6.03125 7.27083 6.25C6.83854 6.47396 6.36458 6.58333 5.85417 6.58333C5.57292 6.58333 5.3125 6.55208 5.0625 6.47917C4.78125 6.96875 4.42188 7.30729 3.97917 7.5C3.53125 7.68229 3.04687 7.77083 2.52083 7.77083C2.07292 7.77083 1.65625 7.6875 1.27083 7.52083C0.895833 7.34375 0.588541 7.08333 0.354167 6.75C0.114583 6.40625 0 6 0 5.54167C0 5.40625 0.0156251 5.26042 0.0416667 5.10417C0.0572917 4.9375 0.09375 4.77083 0.166667 4.60417L1.125 1.875C1.26042 1.47396 1.47917 1.13542 1.77083 0.854167C2.0625 0.578125 2.39583 0.369792 2.77083 0.229167C3.15625 0.0781253 3.5625 0 3.97917 0C4.44792 0 4.875 0.0989587 5.25 0.291667C5.63542 0.473959 5.94271 0.739583 6.16667 1.08333C6.40104 1.41667 6.52083 1.80729 6.52083 2.25C6.52083 2.43229 6.47917 2.66146 6.39583 2.9375C6.32292 3.20313 6.23958 3.45833 6.14583 3.70833C6.04688 3.95833 5.96354 4.14583 5.89583 4.27083C5.79688 4.39583 5.70833 4.49479 5.625 4.5625C5.65104 4.6875 5.66667 4.80208 5.66667 4.89583C5.67708 4.97917 5.6875 5.01563 5.6875 5ZM4.45833 2.95833C4.5 2.82292 4.53125 2.68229 4.5625 2.54167C4.60417 2.39063 4.625 2.26042 4.625 2.14583C4.625 1.99479 4.5625 1.86458 4.4375 1.75C4.3125 1.625 4.14583 1.5625 3.9375 1.5625C3.73958 1.5625 3.54167 1.625 3.33333 1.75C3.13542 1.86458 3 2.03125 2.91667 2.25L1.97917 4.9375C1.94792 5.01042 1.92187 5.09896 1.89583 5.20833C1.86458 5.32292 1.85417 5.4375 1.85417 5.5625C1.85417 5.71875 1.89583 5.86458 1.97917 6C2.07292 6.125 2.25 6.1875 2.5 6.1875C2.70833 6.1875 2.89583 6.13542 3.0625 6.02083C3.23958 5.91146 3.38021 5.73958 3.47917 5.5C3.35417 5.40625 3.23958 5.28646 3.14583 5.14583C3.04687 5.01042 2.98958 4.82813 2.97917 4.60417C2.97917 4.34375 3.04167 4.10417 3.16667 3.89583C3.29167 3.6875 3.45833 3.53125 3.66667 3.41667C3.88542 3.30729 4.11458 3.26563 4.35417 3.29167C4.36458 3.25 4.38021 3.20313 4.39583 3.14583C4.40625 3.09375 4.42708 3.03125 4.45833 2.95833Z" fill="#D72333"/>
</svg>
