<svg width="6" height="12" viewBox="0 0 6 12" fill="none" xmlns="http://www.w3.org/2000/svg">
<path d="M3.85417 5.33333C3.79687 5.36458 3.79687 5.39583 3.85417 5.4375C4.23958 5.63542 4.52083 5.93229 4.6875 6.33333C4.92188 6.84896 5.04167 7.45833 5.04167 8.16667C5.04167 8.75 4.96354 9.26042 4.8125 9.6875C4.63021 10.2292 4.33854 10.6562 3.9375 10.9583C3.53125 11.25 3.05208 11.3958 2.5 11.3958C1.95833 11.3958 1.48437 11.25 1.08333 10.9583C0.692708 10.6562 0.401041 10.2396 0.208333 9.70833C0.067708 9.23958 0 8.72396 0 8.16667C0 7.48958 0.0937493 6.91146 0.291667 6.4375C0.468749 5.99479 0.770833 5.66146 1.1875 5.4375C1.22917 5.39583 1.22917 5.36458 1.1875 5.33333C0.838541 5.15625 0.552083 4.86979 0.333333 4.47917C0.109375 4.03646 0 3.49479 0 2.85417C0 2.21875 0.109375 1.67708 0.333333 1.22917C0.541667 0.843751 0.822917 0.541667 1.1875 0.333333C1.5625 0.114583 2 0 2.5 0C3 0 3.42708 0.104167 3.79167 0.3125C4.16667 0.520833 4.45833 0.822916 4.66667 1.20833C4.91667 1.65625 5.04167 2.20833 5.04167 2.875C5.04167 3.51563 4.92708 4.03646 4.70833 4.4375C4.5 4.84375 4.21354 5.14063 3.85417 5.33333ZM1.33333 1.77083C1.17708 2.09375 1.10417 2.48958 1.10417 2.95833C1.10417 3.43229 1.1875 3.82813 1.35417 4.14583C1.58854 4.66146 1.96875 4.91667 2.5 4.91667C2.79167 4.91667 3.03125 4.84896 3.22917 4.70833C3.4375 4.55729 3.59375 4.34896 3.70833 4.08333C3.85937 3.76563 3.9375 3.38542 3.9375 2.9375C3.9375 2.42708 3.84375 2.02083 3.66667 1.72917C3.41667 1.22917 3.02604 0.979167 2.5 0.979167C1.95833 0.979167 1.56771 1.24479 1.33333 1.77083ZM3.8125 9.22917C3.89583 8.88542 3.9375 8.51042 3.9375 8.10417C3.9375 7.5625 3.85937 7.11458 3.70833 6.75C3.48437 6.14063 3.08333 5.83333 2.5 5.83333C2.20833 5.83333 1.95833 5.91667 1.75 6.08333C1.55208 6.25 1.40104 6.49479 1.29167 6.8125C1.16667 7.16146 1.10417 7.59375 1.10417 8.10417C1.10417 8.55208 1.15104 8.9375 1.25 9.27083C1.34375 9.63542 1.5 9.91667 1.70833 10.125C1.92708 10.3229 2.19271 10.4167 2.5 10.4167C2.81771 10.4167 3.08854 10.3125 3.3125 10.1042C3.54687 9.89583 3.71354 9.60417 3.8125 9.22917Z" fill="#D72333"/>
</svg>
