<svg width="3" height="7" viewBox="0 0 3 7" fill="none" xmlns="http://www.w3.org/2000/svg">
<path d="M2.35417 0.0833333C2.35417 0.0312507 2.38021 0 2.4375 0H2.91667C2.96875 0 3 0.0312507 3 0.0833333V6.33333C3 6.39063 2.96875 6.41667 2.91667 6.41667H2.4375C2.38021 6.41667 2.35417 6.39063 2.35417 6.33333V3.52083C2.35417 3.51042 2.33854 3.5 2.3125 3.5H0.6875C0.656251 3.5 0.645833 3.51042 0.645833 3.52083V6.33333C0.645833 6.39063 0.614584 6.41667 0.5625 6.41667H0.0833333C0.0260413 6.41667 0 6.39063 0 6.33333V0.0833333C0 0.0312507 0.0260413 0 0.0833333 0H0.5625C0.614584 0 0.645833 0.0312507 0.645833 0.0833333V2.875C0.645833 2.90625 0.656251 2.91667 0.6875 2.91667H2.3125C2.33854 2.91667 2.35417 2.90625 2.35417 2.875V0.0833333Z" fill="#D72333"/>
</svg>
