<svg width="6" height="11" viewBox="0 0 6 11" fill="none" xmlns="http://www.w3.org/2000/svg">
<path d="M4.7377 10.2292C4.65437 10.2292 4.59707 10.1875 4.57103 10.1042L4.21687 8.29167C4.21687 8.26563 4.20124 8.25 4.1752 8.25C4.15957 8.23958 4.14395 8.22917 4.13353 8.22917H1.4877C1.47207 8.22917 1.45645 8.23958 1.44603 8.25C1.43041 8.25 1.4252 8.26563 1.4252 8.29167L1.0502 10.1042C1.03457 10.1875 0.977283 10.2292 0.883532 10.2292H0.133532C0.0918657 10.2292 0.0554071 10.2188 0.0293657 10.1875C-0.00188494 10.1615 -0.00709294 10.1198 0.0085324 10.0625L2.19603 0.125C2.22207 0.0416667 2.27937 0 2.3627 0H3.2377C3.33145 0 3.38874 0.0416667 3.40437 0.125L5.63353 10.0625V10.1042C5.63353 10.1875 5.58145 10.2292 5.4877 10.2292H4.7377ZM1.6127 7.3125C1.6127 7.35417 1.62312 7.375 1.65437 7.375H3.96687C3.99291 7.375 4.00853 7.35417 4.00853 7.3125L2.84187 1.5625C2.82624 1.53646 2.81062 1.52083 2.8002 1.52083C2.8002 1.52083 2.78978 1.53646 2.77937 1.5625L1.6127 7.3125Z" fill="#D72333"/>
</svg>
