<svg width="7" height="12" viewBox="0 0 7 12" fill="none" xmlns="http://www.w3.org/2000/svg">
<path d="M3.125 11.1042C2.17708 11.1042 1.42187 10.8125 0.854167 10.2292C0.281249 9.63542 0 8.84375 0 7.85417V0.1875C0 0.135417 0.0104173 0.0937507 0.0416667 0.0625C0.0833333 0.0208333 0.130208 0 0.1875 0H2.02083C2.07292 0 2.11458 0.0208333 2.14583 0.0625C2.1875 0.0937507 2.20833 0.135417 2.20833 0.1875V8.08333C2.20833 8.41667 2.29167 8.6875 2.45833 8.89583C2.625 9.10417 2.84375 9.20833 3.125 9.20833C3.38542 9.20833 3.60417 9.10417 3.77083 8.89583C3.9375 8.6875 4.02083 8.41667 4.02083 8.08333V0.1875C4.02083 0.135417 4.03125 0.0937507 4.0625 0.0625C4.10417 0.0208333 4.15104 0 4.20833 0H6.04167C6.09375 0 6.13542 0.0208333 6.16667 0.0625C6.20833 0.0937507 6.22917 0.135417 6.22917 0.1875V7.85417C6.22917 8.84375 5.94271 9.63542 5.375 10.2292C4.80208 10.8125 4.05208 11.1042 3.125 11.1042Z" fill="#D72333"/>
</svg>
