<svg width="4" height="11" viewBox="0 0 4 11" fill="none" xmlns="http://www.w3.org/2000/svg">
<path d="M3.375 2.6875C3.375 2.80208 3.31771 2.85417 3.20833 2.85417H2.02083C1.97917 2.85417 1.95833 2.875 1.95833 2.91667V7.77083C1.95833 8.26042 2.04167 8.59896 2.20833 8.79167C2.375 8.97396 2.63021 9.05729 2.97917 9.04167H3.14583C3.23958 9.04167 3.29167 9.09896 3.29167 9.20833V9.875C3.29167 9.98958 3.23958 10.0417 3.14583 10.0417H2.75C2.125 10.0417 1.64583 9.91146 1.3125 9.64583C0.989584 9.36979 0.833333 8.85417 0.833333 8.10417V2.91667C0.833333 2.875 0.8125 2.85417 0.770833 2.85417H0.145833C0.0468747 2.85417 0 2.80208 0 2.6875V2.16667C0 2.05729 0.0468747 2 0.145833 2H0.770833C0.8125 2 0.833333 1.97917 0.833333 1.9375V0.166667C0.833333 0.057292 0.885416 0 1 0H1.79167C1.90104 0 1.95833 0.057292 1.95833 0.166667V1.9375C1.95833 1.97917 1.97917 2 2.02083 2H3.20833C3.31771 2 3.375 2.05729 3.375 2.16667V2.6875Z" fill="#D72333"/>
</svg>
