<svg width="5" height="11" viewBox="0 0 5 11" fill="none" xmlns="http://www.w3.org/2000/svg">
<path d="M4.52083 5.70833C4.61458 6.07292 4.66667 6.53646 4.66667 7.10417C4.66667 7.55208 4.63542 7.95833 4.58333 8.33333C4.48438 8.98958 4.23958 9.48958 3.85417 9.83333C3.46354 10.1823 2.95833 10.3542 2.33333 10.3542C1.69271 10.3542 1.17708 10.1823 0.791667 9.83333C0.416667 9.48958 0.171875 8.97396 0.0625 8.29167L0.0208333 7.85417V7.83333C0.0208333 7.75 0.0625 7.70833 0.145833 7.70833H0.895833C0.989583 7.70833 1.04687 7.76042 1.0625 7.85417L1.10417 8.20833C1.25521 9.03125 1.66667 9.4375 2.33333 9.4375C2.63542 9.4375 2.89583 9.34375 3.10417 9.14583C3.3125 8.9375 3.44792 8.64583 3.52083 8.27083C3.58854 7.95313 3.625 7.5625 3.625 7.10417C3.625 6.61979 3.58333 6.19792 3.5 5.83333C3.31771 5.15625 2.92708 4.8125 2.33333 4.8125C1.65104 4.8125 1.22917 5.15625 1.0625 5.83333C1.03125 5.91667 0.984375 5.95833 0.916667 5.95833H0.145833C0.0468747 5.95833 0 5.91146 0 5.8125V0.145833C0 0.052084 0.0468747 0 0.145833 0H4.29167C4.38542 0 4.4375 0.052084 4.4375 0.145833V0.75C4.4375 0.848959 4.38542 0.895833 4.29167 0.895833H1.10417C1.0625 0.895833 1.04167 0.916667 1.04167 0.958333L1.02083 4.58333C1.02083 4.59896 1.02604 4.61458 1.04167 4.625C1.05208 4.64063 1.07292 4.63542 1.10417 4.60417C1.25521 4.38542 1.45833 4.20833 1.70833 4.08333C1.96875 3.95833 2.26042 3.89583 2.58333 3.89583C3.10937 3.89583 3.53125 4.05729 3.85417 4.375C4.1875 4.68229 4.40625 5.125 4.52083 5.70833Z" fill="#D72333"/>
</svg>
