<svg width="7" height="12" viewBox="0 0 7 12" fill="none" xmlns="http://www.w3.org/2000/svg">
<path d="M3.16667 11.2292C2.20833 11.2292 1.4375 10.9323 0.854167 10.3333C0.281249 9.73958 0 8.9375 0 7.9375V0.1875C0 0.135417 0.0208333 0.0937507 0.0625 0.0625C0.104167 0.0208333 0.145833 0 0.1875 0H2.0625C2.10417 0 2.14583 0.0208333 2.1875 0.0625C2.22917 0.0937507 2.25 0.135417 2.25 0.1875V8.16667C2.25 8.5 2.33333 8.78125 2.5 9C2.66667 9.20833 2.88542 9.3125 3.16667 9.3125C3.44271 9.3125 3.65625 9.20833 3.8125 9C3.97917 8.78125 4.0625 8.5 4.0625 8.16667V0.1875C4.0625 0.135417 4.08333 0.0937507 4.125 0.0625C4.16667 0.0208333 4.20833 0 4.25 0H6.125C6.16667 0 6.20833 0.0208333 6.25 0.0625C6.29167 0.0937507 6.3125 0.135417 6.3125 0.1875V7.9375C6.3125 8.9375 6.02083 9.73958 5.4375 10.3333C4.86458 10.9323 4.10938 11.2292 3.16667 11.2292Z" fill="#D72333"/>
</svg>
