<svg width="18" height="20" viewBox="0 0 18 20" fill="none" xmlns="http://www.w3.org/2000/svg">
<path d="M6.4827 19.6979L6.3577 19.6146C6.03479 19.474 5.69625 19.3958 5.33687 19.3854C4.98791 19.3854 4.65458 19.3229 4.33687 19.1979C4.21187 19.1406 4.09208 19.0833 3.9827 19.0104C3.88375 18.9271 3.76395 18.8646 3.62854 18.8229C3.48791 18.7969 3.34208 18.7812 3.19104 18.7812C3.03479 18.7812 2.88895 18.7708 2.75354 18.7396C2.46187 18.3125 2.11291 17.9219 1.71187 17.5729C1.30562 17.2292 0.987912 16.8177 0.753537 16.3438C0.628537 16.1354 0.487912 15.9271 0.336871 15.7188C0.180621 15.5 0.0764533 15.276 0.0243706 15.0521C-0.0172961 14.7188 -0.00688008 14.3802 0.0660373 14.0312C0.149371 13.6719 0.217079 13.3333 0.274371 13.0104L0.0660373 12.8229C0.274371 12.5208 0.425412 12.1875 0.524371 11.8229C0.633745 11.4635 0.805621 11.1458 1.0452 10.8646C1.26395 10.5885 1.52958 10.375 1.83687 10.2188C2.15458 10.0521 2.46708 9.90104 2.77437 9.76042C2.82645 9.625 2.86812 9.48438 2.89937 9.34375C2.94104 9.20833 2.97229 9.06771 3.00354 8.92708C2.61291 8.5 2.19625 8.08854 1.75354 7.69792C1.77958 7.33854 1.69104 6.94271 1.4827 6.51042C1.28479 6.08333 1.11812 5.71354 0.982704 5.40625C1.1077 5.17188 1.19625 4.91667 1.25354 4.63542C1.30562 4.35938 1.36812 4.08333 1.44104 3.80208C1.52437 3.54167 1.62854 3.29688 1.75354 3.07292C1.88895 2.83854 2.02437 2.60417 2.14937 2.36458C2.40979 1.90625 2.70145 1.57292 3.02437 1.36458C3.34208 1.14583 3.74312 0.947917 4.2327 0.78125C4.71708 0.630209 5.23791 0.458334 5.7952 0.260417C6.36291 0.0520833 6.88896 -0.03125 7.37854 0.0104167C7.62854 0.0416673 7.89937 0.088542 8.19104 0.15625C8.49312 0.229166 8.80041 0.270833 9.1077 0.28125C9.40979 0.28125 9.67541 0.192709 9.89937 0.0104167C10.441 0.135417 10.9671 0.302083 11.4827 0.510417C12.0087 0.708334 12.5296 0.921875 13.0452 1.15625C13.4462 1.3125 13.7796 1.47917 14.0452 1.65625C14.3212 1.83854 14.566 2.07292 14.7744 2.36458C14.8577 2.47917 14.8785 2.58854 14.8369 2.69792C14.8056 2.8125 14.7379 2.90625 14.6285 2.98958C14.4879 3.07292 14.3629 3.19792 14.2535 3.36458C14.139 3.53125 14.0504 3.70833 13.9827 3.88542C13.8265 4.16667 13.5973 4.27604 13.2952 4.21875L12.316 3.96875L12.2744 3.69792C11.8577 3.48958 11.3837 3.30208 10.8577 3.13542C10.3421 2.95833 9.82125 2.85938 9.2952 2.84375C8.76396 2.81771 8.27958 2.90625 7.83687 3.11458C7.38896 3.32292 7.03479 3.71354 6.77437 4.28125C6.57645 4.67188 6.4827 5.11458 6.4827 5.61458C6.4827 6.10417 6.59729 6.54167 6.83687 6.92708C7.00354 7.21875 7.22229 7.44792 7.50354 7.61458C7.7952 7.77083 8.09729 7.89583 8.4202 7.98958C8.75354 8.08854 9.05562 8.20833 9.33687 8.34375C9.46187 8.20833 9.64937 8.14583 9.89937 8.15625C10.1494 8.15625 10.3473 8.15104 10.5035 8.13542C10.764 8.44271 11.0712 8.60417 11.4202 8.61458C11.764 8.61458 12.1129 8.5625 12.4619 8.44792C12.8212 8.33854 13.1598 8.26042 13.4827 8.21875L13.7535 8.48958C14.1806 8.46354 14.5921 8.41667 14.9827 8.34375C15.3837 8.27604 15.7744 8.25521 16.1494 8.28125C16.5348 8.3125 16.9046 8.48438 17.2535 8.80208L17.066 8.96875C17.3004 9.45833 17.3629 9.90104 17.2535 10.3021C17.1285 10.6771 16.8837 10.8385 16.5244 10.7812H16.0035L15.566 11.2188L15.691 11.7604C15.5348 11.9271 15.4931 12.1771 15.566 12.5104C15.6494 12.8438 15.7223 13.1094 15.7952 13.3021L15.4827 13.5729C15.6337 13.7396 15.7327 13.875 15.7744 13.9688C15.8265 14.0677 15.7848 14.2344 15.6494 14.4688L15.8994 15.4062C15.8004 15.5312 15.7744 15.6562 15.816 15.7812C15.8681 15.9062 15.8837 16.0417 15.8577 16.1771C15.8421 16.3021 15.7952 16.4167 15.7119 16.5104C15.639 16.5938 15.5921 16.6927 15.566 16.8021C15.4515 17.0833 15.4254 17.3646 15.4827 17.6562C15.5504 17.9479 15.6129 18.2396 15.6702 18.5312L15.1494 19.1562C14.7587 19.1979 14.3681 19.1979 13.9827 19.1562C13.6077 19.1146 13.2171 19.1146 12.816 19.1562C12.7431 19.0312 12.6702 18.9219 12.5869 18.8229C12.5035 18.7292 12.4202 18.625 12.3369 18.5104C12.1285 18.5104 11.9046 18.526 11.6702 18.5521C11.4462 18.5677 11.2223 18.6094 11.0035 18.6771C10.7952 18.75 10.5921 18.8385 10.3994 18.9479C10.2015 19.0625 10.0035 19.1458 9.7952 19.2188C9.25354 19.3438 8.69625 19.4062 8.12854 19.4062C7.55562 19.4062 7.00875 19.5 6.4827 19.6979ZM8.52437 16.8646C9.09208 16.8646 9.52958 16.7708 9.83687 16.5729C10.1546 16.3802 10.4723 16.0677 10.7952 15.6354C10.7796 15.4688 10.764 15.276 10.7535 15.0521C10.7535 14.8333 10.6806 14.6719 10.5452 14.5729C10.7119 13.9896 10.7952 13.3802 10.7952 12.7396C10.7796 12.4792 10.764 12.2135 10.7535 11.9479C10.7535 11.6875 10.8004 11.4271 10.8994 11.1771C10.4931 11.0521 10.1077 10.9635 9.7327 10.9062C9.3577 10.8385 8.95145 10.8229 8.52437 10.8646L8.2327 11.2188L7.12854 11.2812V11.5312C6.57125 12.0625 6.13896 12.5833 5.83687 13.0938C5.5452 13.6094 5.51396 14.2604 5.75354 15.0521C5.9202 15.651 6.26396 16.1146 6.7952 16.4479C7.33687 16.7708 7.90979 16.9062 8.52437 16.8646Z" fill="#D72333"/>
</svg>
