<svg width="6" height="9" viewBox="0 0 6 9" fill="none" xmlns="http://www.w3.org/2000/svg">
<path d="M2.6875 0C3.4375 0 4.03125 0.244792 4.47917 0.729167C4.92188 1.21875 5.14583 1.86458 5.14583 2.66667V8C5.14583 8.11458 5.08854 8.16667 4.97917 8.16667H4.16667C4.06771 8.16667 4.02083 8.11458 4.02083 8V7.54167C4.02083 7.51563 4.00521 7.5 3.97917 7.5C3.96354 7.48958 3.94792 7.49479 3.9375 7.52083C3.53125 8.03646 2.94271 8.29167 2.16667 8.29167C1.58333 8.29167 1.07292 8.125 0.645833 7.79167C0.213541 7.45833 0 6.86979 0 6.02083C0 5.11979 0.255208 4.45833 0.770833 4.04167C1.29687 3.625 1.98437 3.41667 2.83333 3.41667H3.9375C3.98958 3.41667 4.02083 3.39583 4.02083 3.35417V2.72917C4.02083 2.20313 3.89583 1.78646 3.64583 1.47917C3.39583 1.16146 3.06771 1 2.66667 1C2.34375 1 2.06771 1.10417 1.83333 1.3125C1.60937 1.52083 1.47917 1.79167 1.4375 2.125C1.4375 2.22396 1.38021 2.27083 1.27083 2.27083H0.395833C0.338541 2.27083 0.296875 2.26042 0.270833 2.22917C0.239584 2.1875 0.234375 2.14583 0.25 2.10417C0.302083 1.47917 0.552083 0.973959 1 0.583333C1.45833 0.197917 2.02083 0 2.6875 0ZM2.41667 7.3125C2.84375 7.3125 3.21875 7.17708 3.54167 6.89583C3.85937 6.60417 4.02083 6.21875 4.02083 5.72917V4.39583C4.02083 4.35417 3.98958 4.33333 3.9375 4.33333H2.8125C2.3125 4.33333 1.90625 4.46875 1.60417 4.72917C1.3125 4.99479 1.16667 5.39583 1.16667 5.9375C1.16667 6.39583 1.27604 6.74479 1.5 6.97917C1.73437 7.20313 2.04167 7.3125 2.41667 7.3125Z" fill="#D72333"/>
</svg>
