<svg width="6" height="12" viewBox="0 0 6 12" fill="none" xmlns="http://www.w3.org/2000/svg">
<path d="M2.47917 11.1667C2.38021 11.1667 2.32292 11.1198 2.3125 11.0208L0 0.166667V0.145833C0 0.0520827 0.0468747 0 0.145833 0H1.04167C1.13542 0 1.19271 0.0520827 1.20833 0.145833L2.9375 9.0625C2.94792 9.07813 2.95833 9.08333 2.95833 9.08333C2.96875 9.08333 2.98437 9.07813 3 9.0625L4.70833 0.145833C4.71875 0.0520827 4.77604 0 4.875 0H5.75C5.85938 0 5.90104 0.057292 5.875 0.166667L3.5625 11.0208C3.5625 11.1198 3.50521 11.1667 3.39583 11.1667H2.47917Z" fill="#D72333"/>
</svg>
