<svg width="6" height="11" viewBox="0 0 6 11" fill="none" xmlns="http://www.w3.org/2000/svg">
<path d="M4.39583 0.145833C4.39583 0.052084 4.44792 0 4.5625 0H5.33333C5.44271 0 5.5 0.052084 5.5 0.145833V10.8125C5.5 10.9271 5.44271 10.9792 5.33333 10.9792H4.41667C4.33333 10.9792 4.27604 10.9375 4.25 10.8542L1.1875 2.75C1.17187 2.70833 1.15104 2.69792 1.125 2.70833C1.10937 2.70833 1.10417 2.72396 1.10417 2.75L1.125 10.8125C1.125 10.9271 1.06771 10.9792 0.958333 10.9792H0.166667C0.0520827 10.9792 0 10.9271 0 10.8125V0.145833C0 0.052084 0.0520827 0 0.166667 0H1.0625C1.14583 0 1.20833 0.0416667 1.25 0.125L4.3125 8.25C4.32292 8.28125 4.33854 8.29167 4.35417 8.29167C4.38021 8.28125 4.39583 8.26042 4.39583 8.22917V0.145833Z" fill="#D72333"/>
</svg>
