<svg width="6" height="11" viewBox="0 0 6 11" fill="none" xmlns="http://www.w3.org/2000/svg">
<path d="M2.27083 10.2292C2.1875 10.2292 2.13021 10.1875 2.10417 10.1042L0 0.145833V0.125C0 0.0416667 0.0416667 0 0.125 0H0.9375C1.03125 0 1.08854 0.0416667 1.10417 0.125L2.6875 8.29167C2.6875 8.32292 2.69271 8.33333 2.70833 8.33333C2.71875 8.33333 2.73437 8.32292 2.75 8.29167L4.3125 0.125C4.32292 0.0416667 4.375 0 4.45833 0H5.25C5.35938 0 5.40625 0.052084 5.39583 0.145833L3.27083 10.1042C3.25521 10.1875 3.19792 10.2292 3.10417 10.2292H2.27083Z" fill="#D72333"/>
</svg>
