<svg width="6" height="11" viewBox="0 0 6 11" fill="none" xmlns="http://www.w3.org/2000/svg">
<path d="M2.52083 8.5C2.50521 8.51563 2.5 8.53646 2.5 8.5625C2.51042 8.57813 2.53125 8.58333 2.5625 8.58333H5.625C5.67708 8.58333 5.71875 8.60417 5.75 8.64583C5.79167 8.67708 5.8125 8.70833 5.8125 8.75V10.1875C5.8125 10.2292 5.79167 10.2708 5.75 10.3125C5.71875 10.3438 5.67708 10.3542 5.625 10.3542H0.208333C0.166667 10.3542 0.125 10.3438 0.0833333 10.3125C0.052084 10.2708 0.0416667 10.2292 0.0416667 10.1875V8.70833C0.0416667 8.61458 0.0625 8.53646 0.104167 8.47917C0.505208 7.96875 0.781249 7.61979 0.9375 7.4375C1.79687 6.32813 2.40625 5.49479 2.77083 4.9375C3.28125 4.09375 3.54167 3.38542 3.54167 2.8125C3.54167 2.47917 3.46875 2.22396 3.33333 2.04167C3.20833 1.86458 3.03125 1.77083 2.8125 1.77083C2.58854 1.77083 2.40625 1.86458 2.27083 2.04167C2.14583 2.22396 2.08333 2.45313 2.08333 2.72917V3.33333C2.08333 3.39063 2.0625 3.43229 2.02083 3.45833C1.98958 3.48958 1.95833 3.5 1.91667 3.5H0.166667C0.125 3.5 0.0833333 3.48958 0.0416667 3.45833C0.0104173 3.43229 0 3.39063 0 3.33333V2.64583C0.0416667 1.84375 0.322916 1.20313 0.854167 0.729167C1.39583 0.244792 2.08333 0 2.91667 0C3.73437 0 4.39583 0.260417 4.89583 0.770833C5.39583 1.28646 5.64583 1.96875 5.64583 2.8125C5.64583 3.32813 5.5625 3.8125 5.39583 4.27083C5.23958 4.72917 4.98438 5.22396 4.625 5.75C4.34375 6.15625 3.875 6.78125 3.20833 7.625L2.52083 8.5Z" fill="#D72333"/>
</svg>
