<svg width="20" height="20" viewBox="0 0 20 20" fill="none" xmlns="http://www.w3.org/2000/svg">
<path d="M19.2192 9.76788L19.0734 10.0387L19.3234 10.4345C19.0838 11.0908 18.8963 11.7627 18.7609 12.4554C18.6203 13.1377 18.3703 13.7835 18.0109 14.3929C17.7296 14.9085 17.438 15.4241 17.1359 15.9345C16.8286 16.4502 16.4484 16.9085 15.99 17.3095C15.49 17.7262 14.9484 18.1012 14.365 18.4345C13.7817 18.7575 13.188 19.0387 12.5942 19.2887C12.2609 19.4554 11.9328 19.5283 11.615 19.5179C11.3078 19.5023 10.9796 19.5179 10.6359 19.5595C10.3025 19.57 9.96922 19.6012 9.63588 19.6429C9.30255 19.695 8.96922 19.6637 8.63588 19.5387L8.40672 19.7887C8.12547 19.6741 7.8338 19.5856 7.53172 19.5179C7.24005 19.4606 6.93797 19.3773 6.63588 19.2679C6.35463 19.1845 6.09942 19.0752 5.86505 18.9345C5.62547 18.7835 5.39109 18.622 5.15672 18.4554L4.71922 18.5804L4.32338 18.0179L4.17755 18.1012C3.91192 17.8512 3.64109 17.6325 3.36505 17.4345C3.09942 17.2418 2.8338 17.0335 2.57338 16.8095L2.49005 16.3512C2.15672 16.0752 1.85463 15.7418 1.59422 15.3512C1.34422 14.9502 1.12026 14.5543 0.927549 14.1637C0.812965 13.9554 0.740049 13.7418 0.698383 13.5179C0.667133 13.2991 0.594216 13.0804 0.469216 12.872C0.328591 12.622 0.219216 12.4033 0.135882 12.2054C0.0525492 11.997 0.0108825 11.747 0.0108825 11.4554C-0.0203682 10.846 0.0160905 10.2366 0.115049 9.62204C0.224424 8.99704 0.302549 8.38767 0.344216 7.78871C0.385882 7.27829 0.510883 6.78871 0.719216 6.33038C0.937965 5.87204 1.07859 5.38767 1.13588 4.87204C1.5213 4.73663 1.82338 4.51267 2.03172 4.20538C2.25047 3.90329 2.47442 3.60121 2.69838 3.30954C2.9588 2.99183 3.26088 2.721 3.59422 2.49704C3.92755 2.26267 4.2088 1.97621 4.44838 1.64288C4.74005 1.55954 4.95359 1.48663 5.09422 1.41371C5.22963 1.346 5.40672 1.19496 5.61505 0.955376C6.01609 0.903292 6.43276 0.767876 6.86505 0.559543C7.29213 0.351209 7.72963 0.184543 8.17755 0.0595426C8.62026 -0.0654574 9.05255 0.00745992 9.46922 0.267876L10.0109 0.0803759L10.1775 0.330376C10.3442 0.304335 10.4953 0.278292 10.6359 0.247043C10.7869 0.205376 10.9484 0.174127 11.115 0.142876C11.5578 0.392876 12.0213 0.575168 12.5109 0.684543C13.0109 0.783501 13.4796 0.955376 13.9275 1.20538C14.2609 1.37204 14.563 1.58038 14.8442 1.83038C15.1203 2.06996 15.4275 2.25746 15.7609 2.39288C16.0213 2.51788 16.1775 2.70017 16.2192 2.93454C16.4953 3.11683 16.74 3.346 16.9484 3.62204C17.1671 3.88767 17.3755 4.14288 17.5734 4.39288C17.7661 4.63246 17.9275 4.85121 18.0525 5.05954C18.188 5.26788 18.2869 5.52829 18.3442 5.83038C18.3859 6.15329 18.438 6.45538 18.5109 6.74704C18.5942 7.03871 18.688 7.33038 18.8025 7.62204C18.9536 7.98663 19.0317 8.346 19.0317 8.70538C19.0421 9.06996 19.1046 9.42413 19.2192 9.76788ZM5.76088 9.35121L5.32338 10.4762L5.69838 11.122L5.57338 11.7887C5.74005 12.0127 5.8338 12.2575 5.86505 12.5179C5.89109 12.7835 5.93276 13.0387 5.99005 13.2887C6.03172 13.5387 6.10463 13.7835 6.21922 14.0179C6.34422 14.2418 6.46922 14.4658 6.59422 14.6845C6.81297 15.1168 7.07859 15.5127 7.38588 15.872C7.70359 16.221 8.09422 16.4918 8.55255 16.6845C9.16192 16.9241 9.72442 16.9554 10.24 16.7887C10.7661 16.622 11.24 16.3304 11.6567 15.9137C12.0838 15.497 12.4536 15.0491 12.7609 14.5595C12.9536 14.2158 13.1359 13.7887 13.3025 13.2887C13.4692 12.7887 13.5369 12.3408 13.5109 11.9345C13.5109 11.6429 13.5317 11.3668 13.5734 11.1012C13.6255 10.8408 13.6619 10.5543 13.6775 10.247C13.7192 9.98663 13.7244 9.721 13.6984 9.45538C13.6828 9.17933 13.6828 8.89288 13.6984 8.60121C13.7244 8.38246 13.7244 8.19496 13.6984 8.03871C13.6671 7.87204 13.6046 7.69496 13.5109 7.49704C13.4119 7.28871 13.3338 7.08038 13.2817 6.87204C13.2244 6.65329 13.1567 6.42933 13.0734 6.20538C12.8911 5.65329 12.6046 5.14288 12.2192 4.68454C11.8286 4.22621 11.4692 3.76788 11.1359 3.30954L10.865 3.45538L10.1567 2.93454C9.87547 3.00746 9.59422 3.0335 9.30255 3.01788C9.0213 3.00746 8.74005 3.01267 8.44838 3.03871L8.36505 3.45538C7.86505 3.78871 7.41192 4.1585 7.01088 4.55954C6.60463 4.96579 6.28172 5.43454 6.03172 5.97621C5.90672 6.26788 5.84422 6.55433 5.84422 6.83038C5.84422 7.11163 5.80776 7.40329 5.74005 7.70538C5.66713 8.02829 5.59942 8.30433 5.53172 8.53871C5.4588 8.77829 5.53692 9.04913 5.76088 9.35121Z" fill="#D72333"/>
</svg>
