<svg width="8" height="8" viewBox="0 0 8 8" fill="none" xmlns="http://www.w3.org/2000/svg">
<path d="M1.83333 7.9375C1.73437 7.9375 1.67708 7.89063 1.66667 7.79167L0 0.166667V0.145833C0 0.052084 0.0468747 0 0.145833 0H0.916667C1.01042 0 1.06771 0.052084 1.08333 0.145833L2.20833 6.125C2.21875 6.15625 2.23437 6.16667 2.25 6.16667C2.26042 6.16667 2.27083 6.15625 2.27083 6.125L3.4375 0.145833C3.44792 0.052084 3.50521 0 3.60417 0H4.3125C4.42188 0 4.47917 0.052084 4.47917 0.145833L5.64583 6.125C5.65625 6.15625 5.66667 6.16667 5.66667 6.16667C5.67708 6.16667 5.69271 6.15625 5.70833 6.125L6.875 0.145833C6.88542 0.052084 6.94271 0 7.04167 0L7.79167 0.0208333C7.91667 0.0208333 7.96354 0.0781253 7.9375 0.1875L6.27083 7.79167C6.27083 7.89063 6.21354 7.9375 6.10417 7.9375H5.3125C5.21354 7.9375 5.15104 7.89063 5.125 7.79167L3.97917 2.0625C3.96354 2.02083 3.94792 2 3.9375 2C3.92187 2 3.91667 2.02083 3.91667 2.0625L2.79167 7.79167C2.77604 7.89063 2.71875 7.9375 2.625 7.9375H1.83333Z" fill="#D72333"/>
</svg>
