<svg width="6" height="8" viewBox="0 0 6 8" fill="none" xmlns="http://www.w3.org/2000/svg">
<path d="M2.02083 7.83333C1.38021 7.83333 0.880208 7.66146 0.520833 7.3125C0.171875 6.95313 0 6.47917 0 5.89583C0 5.72917 0.005208 5.61458 0.0208333 5.54167L0.416667 2.3125C0.484375 1.63542 0.755208 1.07813 1.22917 0.645833C1.69792 0.218749 2.28125 0 2.97917 0C3.61458 0 4.11458 0.182292 4.47917 0.541667C4.83854 0.890625 5.02083 1.36458 5.02083 1.95833C5.02083 2.11458 5.01042 2.22917 5 2.3125L4.58333 5.54167C4.51042 6.22396 4.23958 6.78125 3.77083 7.20833C3.29687 7.625 2.71354 7.83333 2.02083 7.83333ZM2.125 6.875C2.51042 6.875 2.83854 6.75 3.10417 6.5C3.36458 6.23958 3.52083 5.89063 3.5625 5.45833L3.9375 2.375C3.94792 2.30729 3.95833 2.22396 3.95833 2.125C3.95833 1.76563 3.85417 1.47917 3.64583 1.27083C3.44792 1.05208 3.19271 0.9375 2.875 0.9375C2.5 0.9375 2.17708 1.07292 1.91667 1.33333C1.65104 1.59896 1.48958 1.94792 1.4375 2.375L1.0625 5.45833C1.04687 5.51563 1.04167 5.59896 1.04167 5.70833C1.04167 6.05729 1.13542 6.34375 1.33333 6.5625C1.54167 6.77083 1.80208 6.875 2.125 6.875Z" fill="#D51224"/>
</svg>
