<svg width="8" height="11" viewBox="0 0 8 11" fill="none" xmlns="http://www.w3.org/2000/svg">
<path d="M4.58333 6.9165C4.58333 7.01546 4.53125 7.06234 4.4375 7.06234H1.10417C1.0625 7.06234 1.04167 7.08317 1.04167 7.12484V8.18734C1.04167 8.604 1.15104 8.94775 1.375 9.20817C1.60937 9.45817 1.91667 9.58317 2.29167 9.58317C2.59375 9.58317 2.85937 9.49463 3.08333 9.31234C3.30208 9.11963 3.44792 8.86963 3.52083 8.56234C3.54687 8.479 3.59375 8.43734 3.66667 8.43734L4.39583 8.45817C4.4375 8.45817 4.46875 8.4738 4.5 8.49984C4.52604 8.53109 4.54167 8.57275 4.54167 8.62484C4.45833 9.19775 4.21354 9.65609 3.8125 9.99984C3.42187 10.3332 2.91667 10.4998 2.29167 10.4998C1.59375 10.4998 1.04167 10.3019 0.625 9.89567C0.208333 9.479 0 8.93213 0 8.24984V5.104C0 4.43734 0.208333 3.89567 0.625 3.479C1.04167 3.06234 1.59375 2.854 2.29167 2.854C2.98437 2.854 3.54167 3.06234 3.95833 3.479C4.375 3.89567 4.58333 4.43734 4.58333 5.104V6.9165ZM2.29167 3.77067C1.91667 3.77067 1.60937 3.90609 1.375 4.1665C1.15104 4.4165 1.04167 4.74984 1.04167 5.1665V6.14567C1.04167 6.18734 1.0625 6.20817 1.10417 6.20817H3.5C3.54167 6.20817 3.5625 6.18734 3.5625 6.14567V5.1665C3.5625 4.74984 3.44271 4.4165 3.20833 4.1665C2.96875 3.90609 2.66667 3.77067 2.29167 3.77067Z" fill="#D72333"/>
<path d="M6.74658 1.625C6.49658 1.625 6.29346 1.55208 6.14242 1.39583C6.00179 1.24479 5.93408 1.05208 5.93408 0.8125C5.93408 0.5625 6.00179 0.369792 6.14242 0.229167C6.29346 0.0781253 6.49658 0 6.74658 0C6.98096 0 7.17367 0.0781253 7.32992 0.229167C7.48096 0.369792 7.55908 0.5625 7.55908 0.8125C7.55908 1.05208 7.48096 1.24479 7.32992 1.39583C7.17367 1.55208 6.98096 1.625 6.74658 1.625ZM6.37158 10.375C6.27262 10.375 6.22575 10.3281 6.22575 10.2292V3.125C6.22575 3.03125 6.27262 2.97917 6.37158 2.97917H7.12158C7.21533 2.97917 7.26742 3.03125 7.26742 3.125V10.2292C7.26742 10.3281 7.21533 10.375 7.12158 10.375H6.37158Z" fill="#D72333"/>
</svg>
