<svg width="5" height="8" viewBox="0 0 5 8" fill="none" xmlns="http://www.w3.org/2000/svg">
<path d="M2.625 0C3.21875 0 3.67708 0.208333 4 0.625C4.33333 1.03125 4.5 1.59375 4.5 2.3125V7.35417C4.5 7.45313 4.44792 7.5 4.35417 7.5H3.60417C3.50521 7.5 3.45833 7.45313 3.45833 7.35417V2.41667C3.45833 1.93229 3.35417 1.55729 3.14583 1.29167C2.9375 1.03125 2.64583 0.895833 2.27083 0.895833C1.88021 0.895833 1.57292 1.04167 1.35417 1.33333C1.14583 1.61458 1.04167 1.99479 1.04167 2.47917V7.35417C1.04167 7.45313 0.989583 7.5 0.895833 7.5H0.145833C0.0468747 7.5 0 7.45313 0 7.35417V0.25C0 0.156251 0.0468747 0.104167 0.145833 0.104167H0.895833C0.989583 0.104167 1.04167 0.156251 1.04167 0.25V0.708333C1.04167 0.739584 1.04687 0.760416 1.0625 0.770833C1.07292 0.770833 1.08854 0.760416 1.10417 0.729167C1.28125 0.479167 1.50521 0.302083 1.77083 0.1875C2.03125 0.0625 2.31771 0 2.625 0Z" fill="#D72333"/>
</svg>
