<svg width="5" height="11" viewBox="0 0 5 11" fill="none" xmlns="http://www.w3.org/2000/svg">
<path d="M0.145833 10.2292C0.0468747 10.2292 0 10.1823 0 10.0833V0.145833C0 0.052084 0.0468747 0 0.145833 0H2.39583C3.14583 0 3.73958 0.25 4.1875 0.75C4.63021 1.23958 4.85417 1.89063 4.85417 2.70833V7.5C4.85417 8.33333 4.63021 9 4.1875 9.5C3.73958 9.98958 3.14583 10.2292 2.39583 10.2292H0.145833ZM1.02083 9.27083C1.02083 9.30208 1.04167 9.3125 1.08333 9.3125H2.375C2.80208 9.3125 3.14583 9.14583 3.39583 8.8125C3.65625 8.47917 3.79687 8.03125 3.8125 7.45833V2.75C3.8125 2.18229 3.67708 1.72917 3.41667 1.39583C3.16667 1.0625 2.81771 0.895833 2.375 0.895833H1.08333C1.04167 0.895833 1.02083 0.916667 1.02083 0.958333V9.27083Z" fill="#D72333"/>
</svg>
