<svg width="15" height="19" viewBox="0 0 15 19" fill="none" xmlns="http://www.w3.org/2000/svg">
<path d="M0.125 0H8C12.026 0 14.0417 1.55729 14.0417 4.66667C14.0417 6.39063 13.1875 7.69792 11.4792 8.58333C12.5729 8.86458 13.4375 9.375 14.0625 10.125C14.6875 10.8646 15 11.8281 15 13.0208C15 14.8281 14.3854 16.2083 13.1667 17.1667C11.9427 18.1146 10.1667 18.5833 7.83333 18.5833H0V16.3125L0.916667 16.2292C1.45833 16.1771 1.72917 15.9167 1.72917 15.4583V2.45833L0.125 2.375V0ZM5.125 10.125V15.9583H7.75C10.1771 15.9583 11.3958 14.974 11.3958 13C11.3958 12.0729 11.0885 11.3646 10.4792 10.875C9.88021 10.375 9.02083 10.125 7.89583 10.125H5.125ZM5.125 2.58333V7.625H7.20833C8.35938 7.625 9.20833 7.39063 9.75 6.91667C10.3021 6.44792 10.5833 5.78646 10.5833 4.9375C10.5833 4.07813 10.3021 3.47396 9.75 3.125C9.20833 2.76563 8.42188 2.58333 7.39583 2.58333H5.125Z" fill="#D72333"/>
</svg>
