<svg width="10" height="20" viewBox="0 0 10 20" fill="none" xmlns="http://www.w3.org/2000/svg">
<path d="M4.72917 20C3.28125 20 2.13021 19.5781 1.27083 18.7292C0.421875 17.8854 0 16.75 0 15.3333V4.66667C0 3.25 0.421875 2.11979 1.27083 1.27083C2.13021 0.427084 3.28125 0 4.72917 0C6.15625 0 7.30208 0.432292 8.16667 1.29167C9.04167 2.14063 9.47917 3.27083 9.47917 4.6875V5.89583C9.47917 6.07813 9.38021 6.16667 9.1875 6.16667H7.77083C7.57292 6.16667 7.47917 6.07813 7.47917 5.89583V4.625C7.47917 3.75 7.22917 3.05208 6.72917 2.52083C6.22917 1.99479 5.5625 1.72917 4.72917 1.72917C3.90625 1.72917 3.23958 2 2.72917 2.54167C2.21354 3.07292 1.95833 3.76563 1.95833 4.625V15.3542C1.95833 16.2188 2.21354 16.9167 2.72917 17.4583C3.23958 18 3.90625 18.2708 4.72917 18.2708C5.5625 18.2708 6.22917 18.0104 6.72917 17.4792C7.22917 16.9375 7.47917 16.2292 7.47917 15.3542V11.7708C7.47917 11.7031 7.44271 11.6667 7.375 11.6667H4.97917C4.78125 11.6667 4.6875 11.5781 4.6875 11.3958V10.2083C4.6875 10.0312 4.78125 9.9375 4.97917 9.9375H9.1875C9.38021 9.9375 9.47917 10.0312 9.47917 10.2083V15.3333C9.47917 16.75 9.04167 17.8854 8.16667 18.7292C7.30208 19.5781 6.15625 20 4.72917 20Z" fill="#D72333"/>
</svg>
