<svg width="8" height="12" viewBox="0 0 8 12" fill="none" xmlns="http://www.w3.org/2000/svg">
<path d="M5.16667 0.125C5.20833 0.0416667 5.28125 0 5.39583 0H7.25C7.30208 0 7.34375 0.0208333 7.375 0.0625C7.41667 0.0937493 7.4375 0.135416 7.4375 0.1875V10.9792C7.4375 11.0365 7.41667 11.0833 7.375 11.125C7.34375 11.1562 7.30208 11.1667 7.25 11.1667H5.39583C5.33854 11.1667 5.29167 11.1562 5.25 11.125C5.20833 11.0833 5.1875 11.0365 5.1875 10.9792V3.8125C5.1875 3.77083 5.17188 3.75 5.14583 3.75C5.13021 3.75 5.11458 3.76563 5.10417 3.79167L3.85417 6C3.79687 6.08333 3.75521 6.125 3.72917 6.125C3.69792 6.125 3.65625 6.08333 3.60417 6L2.35417 3.79167C2.32292 3.76563 2.29687 3.75 2.27083 3.75C2.25521 3.75 2.25 3.77083 2.25 3.8125V10.9792C2.25 11.0365 2.22917 11.0833 2.1875 11.125C2.15625 11.1562 2.11458 11.1667 2.0625 11.1667H0.208333C0.151041 11.1667 0.104167 11.1562 0.0625 11.125C0.0208333 11.0833 0 11.0365 0 10.9792V0.1875C0 0.135416 0.0208333 0.0937493 0.0625 0.0625C0.104167 0.0208333 0.151041 0 0.208333 0H2.04167C2.13542 0 2.21354 0.0416667 2.27083 0.125L3.6875 2.66667C3.72917 2.70833 3.76042 2.70833 3.79167 2.66667L5.16667 0.125Z" fill="#D72333"/>
</svg>
