<svg width="5" height="9" viewBox="0 0 5 9" fill="none" xmlns="http://www.w3.org/2000/svg">
<path d="M3.77083 0.166667C3.77083 0.057292 3.81771 0 3.91667 0H4.72917C4.83854 0 4.89583 0.057292 4.89583 0.166667V7.91667C4.89583 8.03125 4.83854 8.08333 4.72917 8.08333H3.91667C3.81771 8.08333 3.77083 8.03125 3.77083 7.91667V7.375C3.77083 7.34896 3.75521 7.33333 3.72917 7.33333C3.71354 7.33333 3.69792 7.34896 3.6875 7.375C3.35417 7.91667 2.81771 8.1875 2.08333 8.1875C1.44271 8.1875 0.9375 7.99479 0.5625 7.60417C0.1875 7.21875 0 6.63542 0 5.85417V0.166667C0 0.057292 0.052084 0 0.166667 0H0.979167C1.07292 0 1.125 0.057292 1.125 0.166667V5.60417C1.125 6.13542 1.23437 6.53646 1.45833 6.8125C1.67708 7.07813 2 7.20833 2.41667 7.20833C2.83333 7.20833 3.15625 7.05729 3.39583 6.75C3.64583 6.43229 3.77083 6.01042 3.77083 5.47917V0.166667Z" fill="#D72333"/>
</svg>
