<svg width="6" height="11" viewBox="0 0 6 11" fill="none" xmlns="http://www.w3.org/2000/svg">
<path d="M5.04167 0C5.13542 0 5.1875 0.052084 5.1875 0.145833V0.75C5.1875 0.848959 5.13542 0.895833 5.04167 0.895833H3.10417C3.07292 0.895833 3.0625 0.916667 3.0625 0.958333V10.0833C3.0625 10.1823 3.01042 10.2292 2.91667 10.2292H2.16667C2.06771 10.2292 2.02083 10.1823 2.02083 10.0833V0.958333C2.02083 0.916667 2 0.895833 1.95833 0.895833H0.145833C0.0468747 0.895833 0 0.848959 0 0.75V0.145833C0 0.052084 0.0468747 0 0.145833 0H5.04167Z" fill="#D72333"/>
</svg>
