<svg width="13" height="21" viewBox="0 0 13 21" fill="none" xmlns="http://www.w3.org/2000/svg">
<path d="M12.6042 19.4375C12.6302 19.4792 12.6458 19.5365 12.6458 19.6042C12.6458 19.6458 12.625 19.6875 12.5833 19.7292C12.5521 19.7604 12.5052 19.7708 12.4375 19.7708H10.9167C10.776 19.7708 10.6667 19.7188 10.5833 19.6042L9.4375 17.9167C9.42188 17.8906 9.39583 17.875 9.35417 17.875C9.32292 17.875 9.29688 17.8854 9.27083 17.8958C8.58854 18.6458 7.88021 19.1875 7.14583 19.5208C6.40625 19.8542 5.58333 20.0208 4.66667 20.0208C3.23437 20.0208 2.09375 19.625 1.25 18.8333C0.416667 18.0312 0 16.8906 0 15.4167C0 14.1667 0.296875 13.0833 0.895833 12.1667C1.48958 11.2396 2.3125 10.3333 3.35417 9.45833C3.40625 9.44792 3.41667 9.39583 3.375 9.3125C2.70833 8.3125 2.21354 7.54167 1.89583 7C1.57292 6.44792 1.36458 5.97917 1.27083 5.60417C1.17187 5.21875 1.125 4.78125 1.125 4.29167C1.125 2.98958 1.48958 1.94792 2.22917 1.16667C2.97917 0.390625 3.95833 0 5.16667 0C6.375 0 7.36458 0.395833 8.14583 1.1875C8.92188 1.97917 9.3125 3.01042 9.3125 4.27083C9.3125 5.41146 9.02083 6.38542 8.4375 7.1875C7.85417 7.99479 7.02604 8.85417 5.95833 9.77083C5.90104 9.78646 5.88542 9.83333 5.91667 9.91667C6.66667 10.9583 7.21354 11.75 7.5625 12.2917L9.3125 14.75C9.32292 14.7656 9.34375 14.7708 9.375 14.7708C9.41667 14.7708 9.44792 14.7656 9.47917 14.75C9.72917 14.349 10.1719 13.5938 10.8125 12.4792C10.8542 12.4115 10.9062 12.3698 10.9792 12.3542C11.0469 12.3281 11.125 12.3333 11.2083 12.375L12.2708 12.9792C12.4062 13.0781 12.4375 13.2083 12.3542 13.375C11.7552 14.474 11.151 15.4531 10.5417 16.3125C10.5104 16.3698 10.5104 16.4271 10.5417 16.4792L12.6042 19.4375ZM5.22917 1.8125C4.58854 1.8125 4.07292 2.04167 3.6875 2.5C3.29687 2.94792 3.10417 3.5625 3.10417 4.35417C3.10417 4.86979 3.19792 5.36458 3.39583 5.83333C3.58854 6.29167 4.04167 7.0625 4.75 8.14583C4.79167 8.22917 4.83854 8.23958 4.89583 8.16667C5.67188 7.5 6.27083 6.86979 6.6875 6.27083C7.10417 5.67708 7.3125 5.01042 7.3125 4.27083C7.3125 3.52083 7.11458 2.92708 6.72917 2.47917C6.33854 2.03646 5.83854 1.8125 5.22917 1.8125ZM4.85417 18.2917C5.47917 18.2917 6.05208 18.1406 6.58333 17.8333C7.125 17.5312 7.67708 17.0573 8.25 16.4167C8.27604 16.3646 8.27604 16.3073 8.25 16.25L6.89583 14.3333L4.58333 11.0625C4.54167 11.0104 4.48958 11.0104 4.4375 11.0625C3.64583 11.7448 3.03125 12.4271 2.60417 13.1042C2.1875 13.7708 1.97917 14.5208 1.97917 15.3542C1.97917 16.2292 2.22917 16.9375 2.72917 17.4792C3.23958 18.0208 3.94792 18.2917 4.85417 18.2917Z" fill="#D72333"/>
</svg>
