<svg width="5" height="12" viewBox="0 0 5 12" fill="none" xmlns="http://www.w3.org/2000/svg">
<path d="M3.77083 0.291667C3.77083 0.182292 3.82292 0.125 3.9375 0.125H4.72917C4.83854 0.125 4.89583 0.182292 4.89583 0.291667V7.89583C4.89583 9.02083 4.63021 9.875 4.10417 10.4583C3.58854 11.0417 2.72917 11.3021 1.52083 11.25C1.40625 11.2344 1.35417 11.1771 1.35417 11.0833V10.3958C1.35417 10.2969 1.40625 10.25 1.52083 10.25C2.35417 10.2604 2.9375 10.0677 3.27083 9.66667C3.60417 9.26042 3.77083 8.64583 3.77083 7.8125V7.33333C3.77083 7.32292 3.76042 7.30729 3.75 7.29167C3.73437 7.28125 3.71354 7.28646 3.6875 7.3125C3.52083 7.57813 3.29687 7.78125 3.02083 7.91667C2.73958 8.04167 2.44271 8.10417 2.125 8.10417C1.46875 8.10417 0.947917 7.89063 0.5625 7.45833C0.1875 7.01563 0 6.43229 0 5.70833V2.39583C0 1.66146 0.1875 1.07813 0.5625 0.645833C0.947917 0.218751 1.46875 0 2.125 0C2.44271 0 2.73958 0.072916 3.02083 0.208333C3.29687 0.333333 3.52083 0.531249 3.6875 0.791667C3.71354 0.822916 3.73437 0.833333 3.75 0.833333C3.76042 0.822916 3.77083 0.802084 3.77083 0.770833V0.291667ZM2.45833 7.14583C2.84375 7.14583 3.15625 7.01042 3.39583 6.72917C3.64583 6.45313 3.77083 6.09375 3.77083 5.64583V2.47917C3.77083 2.03646 3.64583 1.67708 3.39583 1.39583C3.15625 1.11979 2.84375 0.979167 2.45833 0.979167C2.05208 0.979167 1.72917 1.11979 1.47917 1.39583C1.22917 1.67708 1.10417 2.03646 1.10417 2.47917V5.64583C1.10417 6.09375 1.22917 6.45313 1.47917 6.72917C1.72917 7.01042 2.05208 7.14583 2.45833 7.14583Z" fill="#D72333"/>
</svg>
