<svg width="8" height="11" viewBox="0 0 8 11" fill="none" xmlns="http://www.w3.org/2000/svg">
<path d="M5.98921 0.104167C6.03088 0.0364587 6.09338 0 6.17671 0H6.96838C7.02046 0 7.06213 0.0156253 7.09338 0.0416667C7.11942 0.072916 7.12463 0.104167 7.11421 0.145833L5.80171 10.8125C5.80171 10.8542 5.78088 10.8958 5.73921 10.9375C5.70796 10.9688 5.6663 10.9792 5.61421 10.9792H4.84338C4.76005 10.9792 4.71838 10.9271 4.71838 10.8125L5.73921 2.41667C5.74963 2.39063 5.74963 2.375 5.73921 2.375C5.72359 2.375 5.70275 2.38542 5.67671 2.39583L3.67671 5.79167C3.64546 5.86458 3.59338 5.89583 3.51005 5.89583C3.42671 5.89583 3.37463 5.86458 3.36421 5.79167L2.17671 2.41667C2.17671 2.39063 2.16109 2.375 2.13505 2.375C2.11942 2.375 2.11421 2.39583 2.11421 2.4375L1.09338 10.8125C1.07775 10.8542 1.05171 10.8958 1.01005 10.9375C0.978794 10.9688 0.947545 10.9792 0.905878 10.9792H0.135045C0.020461 10.9792 -0.0212057 10.9271 0.010045 10.8125L1.30171 0.145833C1.32775 0.052084 1.38505 0 1.46838 0H2.28088C2.37463 0 2.42671 0.0364587 2.42671 0.104167L3.73921 3.72917C3.73921 3.76042 3.74442 3.77083 3.76005 3.77083C3.78609 3.77083 3.80692 3.76042 3.82255 3.72917L5.98921 0.104167Z" fill="#D72333"/>
</svg>
