<svg width="8" height="12" viewBox="0 0 8 12" fill="none" xmlns="http://www.w3.org/2000/svg">
<path d="M5.18131 11.1667C5.05631 11.1667 4.98339 11.1146 4.97297 11L4.72297 9.45833C4.72297 9.40625 4.68651 9.375 4.61881 9.375H2.59797C2.52506 9.375 2.49381 9.40625 2.49381 9.45833L2.24381 11C2.22818 11.1146 2.16047 11.1667 2.03547 11.1667H0.160472C0.0198468 11.1667 -0.0270279 11.099 0.0146388 10.9583L2.34797 0.166667C2.37401 0.057292 2.44172 0 2.55631 0H4.72297C4.83235 0 4.90006 0.057292 4.93131 0.166667L7.24381 10.9583L7.26464 11.0208C7.26464 11.1198 7.20735 11.1667 7.09797 11.1667H5.18131ZM2.82714 7.5625C2.82714 7.61979 2.84797 7.64583 2.88964 7.64583H4.32714C4.36881 7.64583 4.38964 7.61979 4.38964 7.5625L3.63964 3.20833C3.62401 3.16667 3.60318 3.14583 3.57714 3.14583C3.56151 3.14583 3.54589 3.16667 3.53547 3.20833L2.82714 7.5625Z" fill="#D72333"/>
</svg>
