<svg width="6" height="13" viewBox="0 0 6 13" fill="none" xmlns="http://www.w3.org/2000/svg">
<path d="M5.5 0.916667C5.5 1.03125 5.44271 1.08333 5.33333 1.08333H1.3125C1.25521 1.08333 1.22917 1.10417 1.22917 1.14583V5.45833C1.22917 5.5 1.25521 5.52083 1.3125 5.52083H3.83333C3.95833 5.52083 4.02083 5.58333 4.02083 5.70833V6.45833C4.02083 6.57292 3.95833 6.625 3.83333 6.625H1.3125C1.25521 6.625 1.22917 6.64583 1.22917 6.6875V11.0208C1.22917 11.0625 1.25521 11.0833 1.3125 11.0833H5.33333C5.44271 11.0833 5.5 11.1458 5.5 11.2708V12C5.5 12.1146 5.44271 12.1667 5.33333 12.1667H0.166667C0.0520827 12.1667 0 12.1146 0 12V0.1875C0 0.0625 0.0520827 0 0.166667 0H5.33333C5.44271 0 5.5 0.0625 5.5 0.1875V0.916667Z" fill="#D72333"/>
</svg>
