<svg width="8" height="12" viewBox="0 0 8 12" fill="none" xmlns="http://www.w3.org/2000/svg">
<path d="M7.04167 6.27083C7.09375 6.27083 7.13542 6.29167 7.16667 6.33333C7.20833 6.375 7.22917 6.41667 7.22917 6.45833V8.10417C7.22917 8.16146 7.20833 8.20833 7.16667 8.25C7.13542 8.28125 7.09375 8.29167 7.04167 8.29167H6.54167C6.5 8.29167 6.47917 8.32292 6.47917 8.375V10.9167C6.47917 10.974 6.45833 11.0208 6.41667 11.0625C6.375 11.0938 6.32292 11.1042 6.27083 11.1042H4.41667C4.35938 11.1042 4.3125 11.0938 4.27083 11.0625C4.23958 11.0208 4.22917 10.974 4.22917 10.9167V8.375C4.22917 8.32292 4.19792 8.29167 4.14583 8.29167H0.1875C0.130208 8.29167 0.0833333 8.28125 0.0416667 8.25C0.0104173 8.20833 0 8.16146 0 8.10417V6.79167C0 6.70833 0.005208 6.63542 0.0208333 6.5625L2.14583 0.145833C2.17187 0.052084 2.23437 0 2.33333 0H4.35417C4.42188 0 4.46875 0.0208333 4.5 0.0625C4.52604 0.0937507 4.53125 0.140625 4.52083 0.208333L2.60417 6.1875C2.60417 6.24479 2.625 6.27083 2.66667 6.27083H4.14583C4.19792 6.27083 4.22917 6.25 4.22917 6.20833V4.54167C4.22917 4.48958 4.23958 4.44792 4.27083 4.41667C4.3125 4.375 4.35938 4.35417 4.41667 4.35417H6.27083C6.32292 4.35417 6.375 4.375 6.41667 4.41667C6.45833 4.44792 6.47917 4.48958 6.47917 4.54167V6.20833C6.47917 6.25 6.5 6.27083 6.54167 6.27083H7.04167Z" fill="#D72333"/>
</svg>
