<svg width="5" height="11" viewBox="0 0 5 11" fill="none" xmlns="http://www.w3.org/2000/svg">
<path d="M0.145833 10.2292C0.0468747 10.2292 0 10.1823 0 10.0833V9.41667C0 9.36458 0.0104173 9.30208 0.0416667 9.22917L3.60417 0.979167C3.61458 0.953125 3.61458 0.932292 3.60417 0.916667C3.58854 0.906249 3.57292 0.895833 3.5625 0.895833H0.145833C0.0468747 0.895833 0 0.848959 0 0.75V0.145833C0 0.052084 0.0468747 0 0.145833 0H4.58333C4.67708 0 4.72917 0.052084 4.72917 0.145833V0.8125C4.72917 0.854167 4.71354 0.911459 4.6875 0.979167L1.14583 9.25C1.13021 9.26563 1.13021 9.28125 1.14583 9.29167C1.15625 9.30729 1.17187 9.3125 1.1875 9.3125H4.58333C4.67708 9.3125 4.72917 9.36458 4.72917 9.45833V10.0833C4.72917 10.1823 4.67708 10.2292 4.58333 10.2292H0.145833Z" fill="#D72333"/>
</svg>
