<svg width="6" height="11" viewBox="0 0 6 11" fill="none" xmlns="http://www.w3.org/2000/svg">
<path d="M0.166667 10.2292C0.125 10.2292 0.0833333 10.2188 0.0416667 10.1875C0.010416 10.1458 0 10.1042 0 10.0625V8.58333C0 8.5 0.010416 8.42708 0.0416667 8.35417L3.16667 1.85417C3.17708 1.82813 3.17708 1.80729 3.16667 1.79167C3.16667 1.78125 3.15104 1.77083 3.125 1.77083H0.166667C0.125 1.77083 0.0833333 1.76042 0.0416667 1.72917C0.010416 1.6875 0 1.64063 0 1.58333V0.166667C0 0.125 0.010416 0.0937507 0.0416667 0.0625C0.0833333 0.0208333 0.125 0 0.166667 0H5.20833C5.25 0 5.28125 0.0208333 5.3125 0.0625C5.35417 0.0937507 5.375 0.125 5.375 0.166667V1.64583C5.375 1.71875 5.35938 1.78646 5.33333 1.85417L2.20833 8.375C2.19271 8.40625 2.19271 8.42708 2.20833 8.4375C2.21875 8.45313 2.23958 8.45833 2.27083 8.45833H5.20833C5.25 8.45833 5.28125 8.47917 5.3125 8.52083C5.35417 8.55208 5.375 8.58333 5.375 8.625V10.0625C5.375 10.1042 5.35417 10.1458 5.3125 10.1875C5.28125 10.2188 5.25 10.2292 5.20833 10.2292H0.166667Z" fill="#D72333"/>
</svg>
