<svg width="6" height="12" viewBox="0 0 6 12" fill="none" xmlns="http://www.w3.org/2000/svg">
<path d="M1.375 10.1667C1.35937 10.1823 1.35937 10.2031 1.375 10.2292C1.38542 10.2448 1.40104 10.25 1.41667 10.25H5.14583C5.25521 10.25 5.3125 10.3021 5.3125 10.3958V11.0625C5.3125 11.1771 5.25521 11.2292 5.14583 11.2292H0.166667C0.0520827 11.2292 0 11.1771 0 11.0625V10.3542C0 10.2708 0.0260413 10.2031 0.0833333 10.1458C0.401041 9.63542 0.583333 9.34375 0.625 9.27083C1.55208 7.80208 2.29167 6.59896 2.83333 5.66667C3.51042 4.5 3.85417 3.54167 3.85417 2.79167C3.85417 2.23958 3.71875 1.80208 3.45833 1.47917C3.20833 1.14583 2.88021 0.979167 2.47917 0.979167C2.07292 0.979167 1.75 1.14063 1.5 1.45833C1.25 1.78125 1.13021 2.20313 1.14583 2.72917V3.33333C1.14583 3.44792 1.08854 3.5 0.979167 3.5H0.145833C0.0468747 3.5 0 3.44792 0 3.33333V2.70833C0.010416 1.89063 0.25 1.23958 0.708333 0.75C1.17708 0.25 1.78125 0 2.52083 0C3.25521 0 3.85417 0.260417 4.3125 0.770833C4.77083 1.27083 5 1.94792 5 2.79167C5 3.78125 4.625 4.89583 3.875 6.14583C3.48437 6.80208 2.94792 7.66667 2.27083 8.75L1.375 10.1667Z" fill="#D72333"/>
</svg>
