<svg width="13" height="19" viewBox="0 0 13 19" fill="none" xmlns="http://www.w3.org/2000/svg">
<path d="M4.91667 13.2083C4.95833 13.3333 4.98958 13.4792 5.02083 13.6458C5.0625 13.8125 5.14583 13.9323 5.27083 14C5.22917 14.7083 5.16667 15.3906 5.08333 16.0417C5.01042 16.6979 5.0625 17.3854 5.22917 18.1042L4.625 18.75C4.40104 18.7604 4.19271 18.7917 4 18.8333C3.81771 18.875 3.61458 18.9271 3.39583 19L3.35417 18.9583C3.11458 18.8854 2.875 18.8438 2.625 18.8333C2.375 18.8177 2.125 18.8125 1.875 18.8125C1.71875 18.8125 1.54167 18.7812 1.33333 18.7292C1.13542 18.6875 0.963541 18.6979 0.8125 18.7708L0.166667 18.1875L0.375 17.7083L0.1875 17.4375C0.296875 17.1198 0.317708 16.8438 0.25 16.6042C0.192708 16.3542 0.109375 16.0729 0 15.75C0.109375 15.5 0.166667 15.2812 0.166667 15.0833C0.166667 14.8906 0.166667 14.6771 0.166667 14.4375C0.166667 14.2031 0.1875 13.9688 0.229167 13.7292C0.281251 13.4948 0.302083 13.2604 0.291667 13.0208C0.276041 12.7708 0.234375 12.5521 0.166667 12.3542C0.109375 12.1615 0.109375 11.9531 0.166667 11.7292C0.234375 11.4792 0.302083 11.25 0.375 11.0417C0.458333 10.8333 0.489584 10.6042 0.479167 10.3542C0.4375 9.84375 0.380208 9.33333 0.3125 8.83333C0.255208 8.33333 0.239584 7.82813 0.270833 7.3125C0.281251 6.74479 0.239584 6.16667 0.145833 5.58333C0.0468747 4.98958 0.0260413 4.41146 0.0833333 3.85417C0.109375 3.57813 0.151041 3.32292 0.208333 3.08333C0.276041 2.83333 0.322917 2.58333 0.354167 2.33333C0.364584 2.11458 0.343749 1.89063 0.291667 1.66667C0.25 1.43229 0.239584 1.20313 0.270833 0.979167C0.322917 0.578125 0.520833 0.3125 0.854167 0.1875C1.1875 0.0625 1.52083 0 1.85417 0C2.10417 0.0312493 2.34375 0.072916 2.58333 0.125C2.83333 0.166667 3.08333 0.218751 3.33333 0.270833C3.60937 0.328125 3.88542 0.343751 4.16667 0.3125C4.44271 0.286459 4.71875 0.265625 5 0.25C5.58333 0.182292 6.16667 0.161459 6.75 0.1875C7.33333 0.218751 7.91667 0.182292 8.5 0.0833333C8.63542 0.322916 8.84375 0.432292 9.125 0.416667C9.40104 0.406249 9.65104 0.390625 9.875 0.375C10.1927 0.348959 10.5208 0.343751 10.8542 0.354167C11.1979 0.369792 11.5313 0.333333 11.8542 0.25C11.9896 0.208333 12.1146 0.244792 12.2292 0.354167L12.3542 0.458333C12.4792 0.583333 12.5104 0.739583 12.4583 0.916667C12.401 1.05729 12.4219 1.19792 12.5208 1.33333C12.5885 1.40625 12.625 1.48958 12.625 1.58333C12.625 1.68229 12.5885 1.76563 12.5208 1.83333C12.1979 2.22396 11.8229 2.45833 11.3958 2.54167C10.9792 2.61458 10.5104 2.67708 10 2.72917C9.48438 2.80208 8.95833 2.8125 8.41667 2.77083C7.875 2.72917 7.34375 2.61979 6.83333 2.4375C6.58333 2.55208 6.36458 2.64063 6.1875 2.70833C6.00521 2.78125 5.78125 2.79167 5.52083 2.75C5.29688 2.97396 5.16667 3.1875 5.125 3.39583C5.09375 3.59375 5.08333 3.83333 5.08333 4.125C5.06771 4.54167 5.0625 4.96875 5.0625 5.39583C5.0625 5.8125 5.03125 6.22396 4.97917 6.625L5.27083 6.83333C5.17188 7.18229 5.13542 7.5 5.16667 7.79167C5.20833 8.07292 5.23958 8.38542 5.27083 8.72917L5.77083 9.0625C6.02083 8.96875 6.26042 8.89583 6.5 8.85417C6.75 8.80208 7 8.78125 7.25 8.79167C7.44271 8.80729 7.64583 8.84375 7.85417 8.89583C8.0625 8.95313 8.25521 8.91146 8.4375 8.77083C8.60417 8.89583 8.77083 8.99479 8.9375 9.0625C9.10417 9.13542 9.27083 9.20833 9.4375 9.29167C9.54688 9.33333 9.61458 9.41146 9.64583 9.52083C9.67188 9.61979 9.65104 9.70833 9.58333 9.79167C9.66667 10.0312 9.71875 10.2083 9.75 10.3333C9.79167 10.4583 9.78125 10.6406 9.72917 10.875C9.42188 11.0573 9.10938 11.1615 8.79167 11.1875C8.48438 11.2188 8.15625 11.2292 7.8125 11.2292C7.47917 11.2292 7.11458 11.2448 6.72917 11.2708C6.33854 11.3021 5.97917 11.2292 5.64583 11.0625C5.44792 11.2708 5.32292 11.4948 5.27083 11.7292C5.21354 11.9531 5.17188 12.1875 5.14583 12.4375C5.11458 12.6875 5.04167 12.9479 4.91667 13.2083Z" fill="#D72333"/>
</svg>
