<svg width="6" height="12" viewBox="0 0 6 12" fill="none" xmlns="http://www.w3.org/2000/svg">
<path d="M2.60417 11.1042C1.82292 11.1042 1.19271 10.8646 0.708333 10.375C0.234375 9.89063 0 9.25 0 8.45833V7.14583C0 7.03646 0.0468747 6.97917 0.145833 6.97917H0.9375C1.04687 6.97917 1.10417 7.03646 1.10417 7.14583V8.47917C1.10417 8.96875 1.23437 9.36458 1.5 9.66667C1.77604 9.97396 2.14583 10.125 2.60417 10.125C3.03125 10.125 3.38542 9.97396 3.66667 9.66667C3.94271 9.36458 4.08333 8.96875 4.08333 8.47917V0.145833C4.08333 0.052084 4.13542 0 4.25 0H5.04167C5.15104 0 5.20833 0.052084 5.20833 0.145833V8.45833C5.20833 9.25 4.96354 9.89063 4.47917 10.375C3.98958 10.8646 3.36458 11.1042 2.60417 11.1042Z" fill="#D72333"/>
</svg>
