<svg width="9" height="9" viewBox="0 0 9 9" fill="none" xmlns="http://www.w3.org/2000/svg">
<path d="M1.875 8.08333C1.77604 8.08333 1.71875 8.03646 1.70833 7.9375L0 0.1875V0.145833C0 0.0520827 0.0468747 0 0.145833 0H0.9375C1.03125 0 1.08854 0.0520827 1.10417 0.145833L2.25 6.25C2.26042 6.26563 2.27604 6.27083 2.29167 6.27083C2.30208 6.27083 2.3125 6.26563 2.3125 6.25L3.5 0.145833C3.52604 0.0520827 3.58854 0 3.6875 0H4.39583C4.50521 0 4.5625 0.0520827 4.5625 0.145833L5.75 6.25C5.76042 6.26563 5.77083 6.27083 5.77083 6.27083C5.78125 6.27083 5.79688 6.26563 5.8125 6.25L7 0.145833C7.01042 0.0520827 7.06771 0 7.16667 0L7.9375 0.0208333C8.0625 0.0208333 8.10938 0.0833333 8.08333 0.208333L6.39583 7.9375C6.38021 8.03646 6.31771 8.08333 6.20833 8.08333H5.39583C5.29688 8.08333 5.23958 8.03646 5.22917 7.9375L4.04167 2.10417C4.02604 2.0625 4.01042 2.04167 4 2.04167C4 2.04167 3.98958 2.0625 3.97917 2.10417L2.85417 7.9375C2.83854 8.03646 2.77604 8.08333 2.66667 8.08333H1.875Z" fill="#D72333"/>
</svg>
