<svg width="6" height="12" viewBox="0 0 6 12" fill="none" xmlns="http://www.w3.org/2000/svg">
<path d="M2.64583 3.08333C3.38021 3.08333 3.96354 3.32292 4.39583 3.79167C4.83854 4.26563 5.0625 4.90625 5.0625 5.70833V10.9792C5.0625 11.0938 5.01042 11.1458 4.91667 11.1458H4.10417C4.00521 11.1458 3.95833 11.0938 3.95833 10.9792V10.5208C3.95833 10.4948 3.94792 10.4792 3.9375 10.4792C3.92187 10.4792 3.90104 10.4896 3.875 10.5C3.48437 11.0156 2.90625 11.2708 2.14583 11.2708C1.5625 11.2708 1.05208 11.1146 0.625 10.7917C0.208333 10.4583 0 9.86979 0 9.02083C0 8.13542 0.255208 7.48958 0.770833 7.08333C1.28125 6.66667 1.95833 6.45833 2.79167 6.45833H3.89583C3.9375 6.45833 3.95833 6.4375 3.95833 6.39583V5.77083C3.95833 5.26042 3.83333 4.84896 3.58333 4.54167C3.34375 4.22396 3.02604 4.0625 2.625 4.0625C2.30208 4.0625 2.03125 4.16667 1.8125 4.375C1.58854 4.58333 1.45833 4.84896 1.41667 5.16667C1.41667 5.28125 1.35937 5.33333 1.25 5.33333L0.375 5.3125C0.317708 5.3125 0.276041 5.30208 0.25 5.27083C0.234375 5.22917 0.229167 5.1875 0.229167 5.14583C0.281251 4.53646 0.531251 4.04167 0.979167 3.66667C1.4375 3.28125 1.98958 3.08333 2.64583 3.08333ZM2.375 10.2917C2.80208 10.2917 3.17187 10.1562 3.47917 9.875C3.79687 9.59896 3.95833 9.21875 3.95833 8.72917V7.41667C3.95833 7.375 3.9375 7.35417 3.89583 7.35417H2.77083C2.27083 7.35417 1.875 7.48958 1.58333 7.75C1.29167 8.01563 1.14583 8.41146 1.14583 8.9375C1.14583 9.39583 1.25521 9.73958 1.47917 9.95833C1.69792 10.1823 2 10.2917 2.375 10.2917ZM3.79167 1.77083C3.52604 1.77083 3.3125 1.6875 3.14583 1.52083C2.98958 1.35417 2.91667 1.14583 2.91667 0.895833C2.91667 0.635417 2.98958 0.416667 3.14583 0.25C3.3125 0.0833333 3.52604 0 3.79167 0C4.04167 0 4.25 0.0833333 4.41667 0.25C4.58333 0.416667 4.66667 0.635417 4.66667 0.895833C4.66667 1.14583 4.58333 1.35417 4.41667 1.52083C4.25 1.6875 4.04167 1.77083 3.79167 1.77083ZM1.45833 1.77083C1.19271 1.77083 0.979167 1.6875 0.8125 1.52083C0.656251 1.35417 0.583333 1.14583 0.583333 0.895833C0.583333 0.635417 0.656251 0.416667 0.8125 0.25C0.979167 0.0833333 1.19271 0 1.45833 0C1.70833 0 1.91667 0.0833333 2.08333 0.25C2.25 0.416667 2.33333 0.635417 2.33333 0.895833C2.33333 1.14583 2.25 1.35417 2.08333 1.52083C1.91667 1.6875 1.70833 1.77083 1.45833 1.77083Z" fill="#D72333"/>
</svg>
