<svg width="10" height="9" viewBox="0 0 10 9" fill="none" xmlns="http://www.w3.org/2000/svg">
<path d="M7.04167 0C7.73438 0 8.27083 0.260416 8.64583 0.770833C9.03125 1.28646 9.22917 1.99479 9.22917 2.89583V8.75C9.22917 8.86458 9.16667 8.91667 9.04167 8.91667H8.1875C8.0625 8.91667 8 8.86458 8 8.75V3C8 2.40625 7.875 1.9375 7.625 1.60417C7.375 1.26042 7.04688 1.08333 6.64583 1.08333C6.21354 1.08333 5.86458 1.25 5.60417 1.58333C5.35417 1.91667 5.22917 2.375 5.22917 2.95833V8.75C5.22917 8.86458 5.17188 8.91667 5.0625 8.91667H4.16667C4.05208 8.91667 4 8.86458 4 8.75V3C4 2.40625 3.875 1.9375 3.625 1.60417C3.375 1.26042 3.04687 1.08333 2.64583 1.08333C2.21354 1.08333 1.86458 1.25 1.60417 1.58333C1.33854 1.91667 1.20833 2.375 1.20833 2.95833V8.75C1.20833 8.86458 1.15104 8.91667 1.04167 8.91667H0.166667C0.052084 8.91667 0 8.86458 0 8.75V0.291667C0 0.182292 0.052084 0.125 0.166667 0.125H1.04167C1.15104 0.125 1.20833 0.182292 1.20833 0.291667V0.833333C1.20833 0.864584 1.21354 0.885416 1.22917 0.895833C1.25521 0.895833 1.27604 0.885416 1.29167 0.854167C1.51042 0.5625 1.77604 0.348959 2.08333 0.208333C2.38542 0.0729173 2.70833 0 3.04167 0C3.48437 0 3.86458 0.114584 4.1875 0.333333C4.50521 0.541667 4.75521 0.843749 4.9375 1.22917C4.94792 1.26042 4.96354 1.27083 4.97917 1.27083C5.00521 1.27083 5.02604 1.26042 5.04167 1.22917C5.25 0.8125 5.52604 0.510416 5.875 0.3125C6.23438 0.104167 6.625 0 7.04167 0Z" fill="#D72333"/>
</svg>
