<svg width="6" height="12" viewBox="0 0 6 12" fill="none" xmlns="http://www.w3.org/2000/svg">
<path d="M4.3125 3.375C4.3125 3.32292 4.32292 3.28125 4.35417 3.25C4.38021 3.22396 4.42188 3.20833 4.47917 3.20833H5.25C5.34375 3.20833 5.39583 3.26563 5.39583 3.375L4.45833 10.9792C4.42708 11.0938 4.36458 11.1458 4.27083 11.1458H3.5C3.45833 11.1458 3.42187 11.1354 3.39583 11.1042C3.36458 11.0625 3.35937 11.0208 3.375 10.9792L3.4375 10.4583C3.4375 10.4323 3.42708 10.4167 3.41667 10.4167C3.40104 10.4167 3.38542 10.4271 3.375 10.4375C2.98437 10.9792 2.4375 11.25 1.72917 11.25C1.1875 11.25 0.760416 11.1042 0.458333 10.8125C0.151041 10.5104 0 10.0417 0 9.41667C0 9.33333 0.005208 9.18229 0.0208333 8.95833L0.708333 3.375C0.734375 3.26563 0.796875 3.20833 0.895833 3.20833H1.64583C1.73958 3.20833 1.79167 3.26563 1.79167 3.375L1.14583 8.70833C1.11458 8.89063 1.10417 9.01563 1.10417 9.08333C1.10417 9.89063 1.45833 10.2917 2.16667 10.2917C2.56771 10.2917 2.90104 10.1406 3.16667 9.83333C3.42708 9.53125 3.59375 9.11458 3.66667 8.58333L4.3125 3.375ZM4.375 1.77083C4.15104 1.77083 3.96875 1.70313 3.83333 1.5625C3.69271 1.41146 3.625 1.22917 3.625 1.02083C3.625 0.718751 3.71354 0.473959 3.89583 0.291667C4.08854 0.0989587 4.32292 0 4.60417 0C4.82292 0 5.00521 0.072916 5.14583 0.208333C5.28125 0.348959 5.35417 0.536459 5.35417 0.770833C5.35417 1.05208 5.25521 1.28646 5.0625 1.47917C4.88021 1.67708 4.65104 1.77083 4.375 1.77083ZM2.08333 1.77083C1.85937 1.77083 1.67708 1.70313 1.54167 1.5625C1.40104 1.41146 1.33333 1.22917 1.33333 1.02083C1.33333 0.718751 1.42187 0.473959 1.60417 0.291667C1.79687 0.0989587 2.03125 0 2.3125 0C2.53125 0 2.71354 0.072916 2.85417 0.208333C2.98958 0.348959 3.0625 0.536459 3.0625 0.770833C3.0625 1.05208 2.96354 1.28646 2.77083 1.47917C2.58854 1.67708 2.35937 1.77083 2.08333 1.77083Z" fill="#D72333"/>
</svg>
