<svg width="4" height="12" viewBox="0 0 4 12" fill="none" xmlns="http://www.w3.org/2000/svg">
<mask id="mask0_24_2777" style="mask-type:luminance" maskUnits="userSpaceOnUse" x="0" y="0" width="4" height="12">
<path d="M4 0H0V12H4V0Z" fill="white"/>
</mask>
<g mask="url(#mask0_24_2777)">
<mask id="mask1_24_2777" style="mask-type:luminance" maskUnits="userSpaceOnUse" x="0" y="1" width="4" height="9">
<path d="M0.015625 1.3335H3.84896V9.3335H0.015625V1.3335Z" fill="white"/>
</mask>
<g mask="url(#mask1_24_2777)">
<path d="M3.11637 8.84066C3.05908 8.84066 3.02262 8.81462 3.01221 8.75732L2.78304 7.63232C2.78304 7.62191 2.77262 7.61149 2.76221 7.61149C2.76221 7.61149 2.75179 7.61149 2.74137 7.61149H1.09554C1.09554 7.61149 1.08512 7.61149 1.07471 7.61149C1.05908 7.61149 1.05387 7.62191 1.05387 7.63232L0.824707 8.75732C0.824707 8.81462 0.793456 8.84066 0.741374 8.84066H0.28304C0.241374 8.84066 0.210123 8.83545 0.199707 8.81982C0.184082 8.79378 0.184082 8.76774 0.199707 8.73649L1.55387 2.59066C1.56429 2.53857 1.60075 2.50732 1.65804 2.50732H2.19971C2.25179 2.50732 2.28304 2.53857 2.28304 2.59066L3.65804 8.73649V8.75732C3.65804 8.81462 3.62679 8.84066 3.57471 8.84066H3.11637ZM1.17887 7.04899C1.17887 7.06462 1.18408 7.06982 1.19971 7.06982H2.63721C2.64762 7.06982 2.65804 7.06462 2.65804 7.04899L1.92887 3.48649C1.92887 3.47607 1.91846 3.46566 1.90804 3.46566C1.90804 3.46566 1.90804 3.47607 1.90804 3.48649L1.17887 7.04899Z" fill="#D72333"/>
</g>
</g>
</svg>
