<svg width="6" height="11" viewBox="0 0 6 11" fill="none" xmlns="http://www.w3.org/2000/svg">
<path d="M0.145833 10.7083C0.0468747 10.7083 0 10.6615 0 10.5625V0.166667C0 0.057292 0.0468747 0 0.145833 0H0.9375C1.03125 0 1.08333 0.057292 1.08333 0.166667V5.10417C1.08333 5.14583 1.08854 5.17708 1.10417 5.1875C1.13021 5.1875 1.15104 5.17708 1.16667 5.14583L4.10417 0.104167C4.15625 0.0364587 4.21875 0 4.29167 0H5.14583C5.21354 0 5.25521 0.0208333 5.27083 0.0625C5.29688 0.0937493 5.29167 0.135416 5.25 0.1875L2.875 4.33333C2.84375 4.375 2.83854 4.40625 2.85417 4.41667L5.47917 10.5208L5.5 10.5833C5.5 10.6667 5.44792 10.7083 5.35417 10.7083H4.5C4.41667 10.7083 4.35938 10.6667 4.33333 10.5833L2.125 5.39583C2.10937 5.35417 2.08333 5.35417 2.04167 5.39583L1.10417 6.85417C1.08854 6.86979 1.08333 6.89583 1.08333 6.9375V10.5625C1.08333 10.6615 1.03125 10.7083 0.9375 10.7083H0.145833Z" fill="#D72333"/>
</svg>
