<svg width="8" height="12" viewBox="0 0 8 12" fill="none" xmlns="http://www.w3.org/2000/svg">
<path d="M2.47917 11.1042C2.36458 11.1042 2.29687 11.0521 2.27083 10.9375L0.0208333 0.208333L0 0.125C0 0.0416667 0.052084 0 0.166667 0H2.20833C2.34375 0 2.41667 0.057292 2.41667 0.166667L3.52083 7.14583C3.53125 7.1875 3.54687 7.20833 3.5625 7.20833C3.58854 7.20833 3.60417 7.1875 3.60417 7.14583L4.6875 0.166667C4.6875 0.057292 4.75 0 4.875 0H6.875C7.01042 0 7.0625 0.072916 7.02083 0.208333L4.75 10.9375C4.71875 11.0521 4.65104 11.1042 4.54167 11.1042H2.47917Z" fill="#D72333"/>
</svg>
