<svg width="10" height="19" viewBox="0 0 10 19" fill="none" xmlns="http://www.w3.org/2000/svg">
<path d="M7.45833 0.270833C7.45833 0.0937493 7.54167 0 7.70833 0H9.04167C9.21875 0 9.3125 0.0937493 9.3125 0.270833V18.3542C9.3125 18.5365 9.21875 18.625 9.04167 18.625H7.47917C7.33854 18.625 7.23958 18.5573 7.1875 18.4167L2 4.66667C1.96875 4.61458 1.9375 4.59375 1.89583 4.60417C1.86458 4.60417 1.85417 4.63542 1.85417 4.6875L1.89583 18.3542C1.89583 18.5365 1.80208 18.625 1.625 18.625H0.270833C0.0885413 18.625 0 18.5365 0 18.3542V0.270833C0 0.0937493 0.0885413 0 0.270833 0H1.8125C1.94792 0 2.04687 0.0729173 2.10417 0.208333L7.3125 14C7.32292 14.0573 7.35417 14.0781 7.39583 14.0625C7.4375 14.0521 7.45833 14.0208 7.45833 13.9792V0.270833Z" fill="#D72333"/>
</svg>
