<svg width="6" height="14" viewBox="0 0 6 14" fill="none" xmlns="http://www.w3.org/2000/svg">
<path d="M2.95833 13.5C2.05208 13.5 1.33333 13.2396 0.791667 12.7083C0.260416 12.1823 0 11.4792 0 10.6042V5.91667C0 5.04167 0.260416 4.34375 0.791667 3.8125C1.33333 3.28646 2.05208 3.02083 2.95833 3.02083C3.84375 3.02083 4.5625 3.28646 5.10417 3.8125C5.64583 4.34375 5.91667 5.04167 5.91667 5.91667V10.6042C5.91667 11.4792 5.64583 12.1823 5.10417 12.7083C4.5625 13.2396 3.84375 13.5 2.95833 13.5ZM2.95833 11.7292C3.21875 11.7292 3.4375 11.6354 3.60417 11.4375C3.77083 11.2448 3.85417 10.9948 3.85417 10.6875V5.83333C3.85417 5.51563 3.77083 5.26563 3.60417 5.08333C3.4375 4.89063 3.21875 4.79167 2.95833 4.79167C2.67708 4.79167 2.45833 4.89063 2.29167 5.08333C2.13542 5.26563 2.0625 5.51563 2.0625 5.83333V10.6875C2.0625 10.9948 2.13542 11.2448 2.29167 11.4375C2.45833 11.6354 2.67708 11.7292 2.95833 11.7292ZM4.29167 2.29167C3.95833 2.29167 3.67708 2.1875 3.45833 1.97917C3.23437 1.76042 3.125 1.47917 3.125 1.14583C3.125 0.802083 3.22917 0.520833 3.4375 0.3125C3.65625 0.104167 3.94271 0 4.29167 0C4.625 0 4.89583 0.104167 5.10417 0.3125C5.32292 0.520833 5.4375 0.802083 5.4375 1.14583C5.4375 1.47917 5.32292 1.76042 5.10417 1.97917C4.89583 2.1875 4.625 2.29167 4.29167 2.29167ZM1.58333 2.29167C1.25 2.29167 0.968749 2.1875 0.75 1.97917C0.526041 1.76042 0.416667 1.47917 0.416667 1.14583C0.416667 0.802083 0.520833 0.520833 0.729167 0.3125C0.947917 0.104167 1.23437 0 1.58333 0C1.91667 0 2.1875 0.104167 2.39583 0.3125C2.61458 0.520833 2.72917 0.802083 2.72917 1.14583C2.72917 1.47917 2.61458 1.76042 2.39583 1.97917C2.1875 2.1875 1.91667 2.29167 1.58333 2.29167Z" fill="#D72333"/>
</svg>
