<svg width="28" height="38" viewBox="0 0 28 38" fill="none" xmlns="http://www.w3.org/2000/svg">
<mask id="mask0_25_20147" style="mask-type:luminance" maskUnits="userSpaceOnUse" x="0" y="0" width="28" height="38">
<path d="M28 0H0V37.3333H28V0Z" fill="white"/>
</mask>
<g mask="url(#mask0_25_20147)">
<path d="M4.35661 16.0177C3.54932 16.0177 2.90348 15.7573 2.41911 15.2261C1.92953 14.7 1.68994 14.0177 1.68994 13.1844V7.43441C1.68994 6.60107 1.92953 5.92399 2.41911 5.39274C2.90348 4.8667 3.54932 4.60107 4.35661 4.60107C5.15869 4.60107 5.81494 4.8667 6.31494 5.39274C6.81494 5.92399 7.06494 6.60107 7.06494 7.43441V13.1844C7.06494 14.0177 6.81494 14.7 6.31494 15.2261C5.81494 15.7573 5.15869 16.0177 4.35661 16.0177ZM4.35661 15.0177C4.84098 15.0177 5.22119 14.8615 5.50244 14.5386C5.79411 14.2052 5.93994 13.7782 5.93994 13.2469V7.37191C5.93994 6.84587 5.79411 6.42399 5.50244 6.10107C5.22119 5.76774 4.84098 5.60107 4.35661 5.60107C3.89827 5.60107 3.52327 5.76774 3.23161 6.10107C2.93994 6.42399 2.79411 6.84587 2.79411 7.37191V13.2469C2.79411 13.7782 2.93994 14.2052 3.23161 14.5386C3.52327 14.8615 3.89827 15.0177 4.35661 15.0177Z" fill="#D72333"/>
<path d="M9.37988 15.8302C9.11426 15.8302 8.90072 15.7469 8.73405 15.5802C8.5778 15.4032 8.50488 15.1844 8.50488 14.9344C8.50488 14.674 8.5778 14.4552 8.73405 14.2886C8.90072 14.1219 9.11426 14.0386 9.37988 14.0386C9.6403 14.0386 9.85905 14.1219 10.0257 14.2886C10.1924 14.4552 10.2757 14.674 10.2757 14.9344C10.2757 15.1844 10.1924 15.4032 10.0257 15.5802C9.85905 15.7469 9.6403 15.8302 9.37988 15.8302Z" fill="#D72333"/>
<path d="M12.8853 14.7884C12.8696 14.8197 12.8696 14.8405 12.8853 14.8509C12.8957 14.8665 12.9113 14.8717 12.9269 14.8717H16.6561C16.7498 14.8717 16.8019 14.9238 16.8019 15.0176V15.6842C16.8019 15.7988 16.7498 15.8509 16.6561 15.8509H11.6769C11.5623 15.8509 11.5103 15.7988 11.5103 15.6842V14.9759C11.5103 14.8926 11.5311 14.8249 11.5728 14.7676C11.9061 14.2572 12.0936 13.9655 12.1353 13.8926C13.0623 12.4238 13.8019 11.2259 14.3436 10.3092C15.0103 9.14258 15.3436 8.18424 15.3436 7.43424C15.3436 6.88216 15.2186 6.44466 14.9686 6.12174C14.7186 5.78841 14.3853 5.62174 13.9686 5.62174C13.5623 5.62174 13.2394 5.7832 12.9894 6.10091C12.7498 6.42383 12.6353 6.8457 12.6353 7.37174V7.97591C12.6353 8.0905 12.5832 8.14258 12.4894 8.14258H11.6561C11.5571 8.14258 11.5103 8.0905 11.5103 7.97591V7.35091C11.5207 6.5332 11.7603 5.88216 12.2186 5.39258C12.6769 4.89258 13.2707 4.64258 14.0103 4.64258C14.7603 4.64258 15.354 4.90299 15.8019 5.41341C16.2603 5.92904 16.4894 6.60091 16.4894 7.43424C16.4894 8.42383 16.1144 9.53841 15.3644 10.7884C14.9894 11.429 14.453 12.2884 13.7603 13.3717L12.8853 14.7884Z" fill="#D72333"/>
<path d="M22.9735 10.9551C23.0828 11.3457 23.1401 11.8509 23.1401 12.4759C23.1401 12.9499 23.1037 13.3874 23.036 13.7884C22.937 14.4967 22.6818 15.0384 22.2651 15.4134C21.8485 15.7884 21.2912 15.9759 20.5985 15.9759C19.9162 15.9759 19.3693 15.7988 18.9526 15.4342C18.536 15.0592 18.2651 14.5072 18.1401 13.7676L18.0985 13.2884V13.2467C18.0985 13.1634 18.1453 13.1217 18.2443 13.1217H19.0568C19.1506 13.1217 19.2078 13.179 19.2235 13.2884L19.2651 13.6634C19.4318 14.554 19.8745 14.9967 20.5985 14.9967C20.9318 14.9967 21.2078 14.8926 21.4318 14.6842C21.6506 14.4655 21.8068 14.1426 21.8901 13.7259C21.9735 13.3926 22.0151 12.9707 22.0151 12.4551C22.0151 11.929 21.9631 11.4759 21.8693 11.1009C21.6714 10.3665 21.2495 9.99675 20.5985 9.99675C19.8745 9.99675 19.4214 10.3613 19.2443 11.0801C19.2026 11.179 19.1401 11.2259 19.0568 11.2259H18.2443C18.1297 11.2259 18.0776 11.1738 18.0776 11.0592V4.93424C18.0776 4.82487 18.1297 4.76758 18.2443 4.76758H22.7235C22.8328 4.76758 22.8901 4.82487 22.8901 4.93424V5.60091C22.8901 5.69987 22.8328 5.74674 22.7235 5.74674H19.2651C19.2235 5.74674 19.2026 5.76758 19.2026 5.80924L19.1818 9.74675C19.1818 9.76237 19.187 9.77799 19.2026 9.78841C19.2287 9.80404 19.2495 9.79883 19.2651 9.76758C19.4318 9.51758 19.6506 9.33008 19.9318 9.20508C20.2235 9.06966 20.5412 8.99675 20.8901 8.99675C21.4422 8.99675 21.9006 9.17383 22.2651 9.51758C22.6245 9.85091 22.8589 10.3301 22.9735 10.9551Z" fill="#D72333"/>
<path d="M24.7352 15.8509C24.6362 15.8509 24.5894 15.7988 24.5894 15.6842V4.93424C24.5894 4.82487 24.6362 4.76758 24.7352 4.76758H25.5477C25.6571 4.76758 25.7144 4.82487 25.7144 4.93424V15.6842C25.7144 15.7988 25.6571 15.8509 25.5477 15.8509H24.7352Z" fill="#D72333"/>
<path d="M4.35661 33.3976C3.54932 33.3976 2.90348 33.1372 2.41911 32.606C1.92953 32.0799 1.68994 31.3976 1.68994 30.5643V24.8143C1.68994 23.981 1.92953 23.3039 2.41911 22.7726C2.90348 22.2466 3.54932 21.981 4.35661 21.981C5.15869 21.981 5.81494 22.2466 6.31494 22.7726C6.81494 23.3039 7.06494 23.981 7.06494 24.8143V30.5643C7.06494 31.3976 6.81494 32.0799 6.31494 32.606C5.81494 33.1372 5.15869 33.3976 4.35661 33.3976ZM4.35661 32.3976C4.84098 32.3976 5.22119 32.2414 5.50244 31.9185C5.79411 31.5851 5.93994 31.158 5.93994 30.6268V24.7518C5.93994 24.2257 5.79411 23.8039 5.50244 23.481C5.22119 23.1476 4.84098 22.981 4.35661 22.981C3.89827 22.981 3.52327 23.1476 3.23161 23.481C2.93994 23.8039 2.79411 24.2257 2.79411 24.7518V30.6268C2.79411 31.158 2.93994 31.5851 3.23161 31.9185C3.52327 32.2414 3.89827 32.3976 4.35661 32.3976Z" fill="#D72333"/>
<path d="M9.37988 33.2101C9.11426 33.2101 8.90072 33.1268 8.73405 32.9601C8.5778 32.783 8.50488 32.5643 8.50488 32.3143C8.50488 32.0539 8.5778 31.8351 8.73405 31.6685C8.90072 31.5018 9.11426 31.4185 9.37988 31.4185C9.6403 31.4185 9.85905 31.5018 10.0257 31.6685C10.1924 31.8351 10.2757 32.0539 10.2757 32.3143C10.2757 32.5643 10.1924 32.783 10.0257 32.9601C9.85905 33.1268 9.6403 33.2101 9.37988 33.2101Z" fill="#D72333"/>
<path d="M16.6146 28.335C16.724 28.7256 16.7812 29.2308 16.7812 29.8558C16.7812 30.3298 16.7448 30.7673 16.6771 31.1683C16.5781 31.8766 16.3229 32.4183 15.9062 32.7933C15.4896 33.1683 14.9323 33.3558 14.2396 33.3558C13.5573 33.3558 13.0104 33.1787 12.5938 32.8141C12.1771 32.4391 11.9062 31.887 11.7812 31.1475L11.7396 30.6683V30.6266C11.7396 30.5433 11.7865 30.5016 11.8854 30.5016H12.6979C12.7917 30.5016 12.849 30.5589 12.8646 30.6683L12.9062 31.0433C13.0729 31.9339 13.5156 32.3766 14.2396 32.3766C14.5729 32.3766 14.849 32.2725 15.0729 32.0641C15.2917 31.8454 15.4479 31.5225 15.5312 31.1058C15.6146 30.7725 15.6562 30.3506 15.6562 29.835C15.6562 29.3089 15.6042 28.8558 15.5104 28.4808C15.3125 27.7464 14.8906 27.3766 14.2396 27.3766C13.5156 27.3766 13.0625 27.7412 12.8854 28.46C12.8438 28.5589 12.7812 28.6058 12.6979 28.6058H11.8854C11.7708 28.6058 11.7188 28.5537 11.7188 28.4391V22.3141C11.7188 22.2048 11.7708 22.1475 11.8854 22.1475H16.3646C16.474 22.1475 16.5312 22.2048 16.5312 22.3141V22.9808C16.5312 23.0798 16.474 23.1266 16.3646 23.1266H12.9062C12.8646 23.1266 12.8438 23.1475 12.8438 23.1891L12.8229 27.1266C12.8229 27.1423 12.8281 27.1579 12.8438 27.1683C12.8698 27.1839 12.8906 27.1787 12.9062 27.1475C13.0729 26.8975 13.2917 26.71 13.5729 26.585C13.8646 26.4495 14.1823 26.3766 14.5312 26.3766C15.0833 26.3766 15.5417 26.5537 15.9062 26.8975C16.2656 27.2308 16.5 27.71 16.6146 28.335Z" fill="#D72333"/>
<path d="M18.3758 33.2308C18.2769 33.2308 18.23 33.1787 18.23 33.0641V22.3141C18.23 22.2048 18.2769 22.1475 18.3758 22.1475H19.1883C19.2977 22.1475 19.355 22.2048 19.355 22.3141V33.0641C19.355 33.1787 19.2977 33.2308 19.1883 33.2308H18.3758Z" fill="#D72333"/>
</g>
</svg>
