<svg width="5" height="12" viewBox="0 0 5 12" fill="none" xmlns="http://www.w3.org/2000/svg">
<path d="M2.75 0C3.41667 0 3.94792 0.229167 4.35417 0.6875C4.75521 1.13542 4.95833 1.71875 4.95833 2.4375V5.875C4.95833 6.61458 4.75521 7.20313 4.35417 7.64583C3.94792 8.07812 3.41667 8.29167 2.75 8.29167C2.45833 8.29167 2.17708 8.23438 1.91667 8.125C1.65104 8.01563 1.41667 7.84375 1.20833 7.60417C1.19271 7.59375 1.17187 7.59375 1.14583 7.60417C1.13021 7.60417 1.125 7.61979 1.125 7.64583V11.0833C1.125 11.1927 1.07292 11.25 0.979167 11.25H0.166667C0.0520827 11.25 0 11.1927 0 11.0833V0.291667C0 0.182292 0.0520827 0.125 0.166667 0.125H0.979167C1.07292 0.125 1.125 0.182292 1.125 0.291667V0.666667C1.125 0.682292 1.13021 0.697917 1.14583 0.708333C1.17187 0.708333 1.19792 0.697917 1.22917 0.666667C1.42187 0.447917 1.65104 0.281251 1.91667 0.166667C2.19271 0.057292 2.46875 0 2.75 0ZM3.85417 2.52083C3.85417 2.0625 3.71875 1.69792 3.45833 1.41667C3.19271 1.14063 2.85937 1 2.45833 1C2.06771 1 1.75 1.14063 1.5 1.41667C1.25 1.69792 1.125 2.0625 1.125 2.52083V5.79167C1.125 6.23958 1.25 6.60417 1.5 6.89583C1.75 7.17708 2.06771 7.3125 2.45833 7.3125C2.85937 7.3125 3.19271 7.17708 3.45833 6.89583C3.71875 6.60417 3.85417 6.23958 3.85417 5.79167V2.52083Z" fill="#D72333"/>
</svg>
