<svg width="5" height="11" viewBox="0 0 5 11" fill="none" xmlns="http://www.w3.org/2000/svg">
<path d="M1.27083 9.375C1.27083 9.39063 1.27083 9.40625 1.27083 9.41667C1.28125 9.43229 1.30208 9.4375 1.33333 9.4375H4.77083C4.86458 9.4375 4.91667 9.48958 4.91667 9.58333V10.2083C4.91667 10.3073 4.86458 10.3542 4.77083 10.3542H0.166667C0.067708 10.3542 0.0208333 10.3073 0.0208333 10.2083V9.54167C0.0208333 9.47396 0.0416667 9.41146 0.0833333 9.35417C0.385417 8.88542 0.552084 8.61458 0.583333 8.54167C1.44271 7.18229 2.125 6.07813 2.625 5.22917C3.25 4.16146 3.5625 3.28125 3.5625 2.58333C3.5625 2.07292 3.44271 1.66667 3.20833 1.375C2.96875 1.07292 2.66667 0.916667 2.29167 0.916667C1.91667 0.916667 1.60937 1.0625 1.375 1.35417C1.15104 1.64583 1.04687 2.03646 1.0625 2.52083V3.08333C1.0625 3.18229 1.01042 3.22917 0.916667 3.22917H0.145833C0.0468747 3.22917 0 3.18229 0 3.08333V2.5C0.0260413 1.75 0.25 1.14583 0.666667 0.6875C1.09375 0.229167 1.65104 0 2.33333 0C3.01042 0 3.5625 0.239583 3.97917 0.708333C4.40625 1.18229 4.625 1.80729 4.625 2.58333C4.625 3.5 4.27604 4.53125 3.58333 5.66667C3.21875 6.26563 2.72917 7.0625 2.10417 8.0625L1.27083 9.375Z" fill="#D72333"/>
</svg>
