<svg width="6" height="12" viewBox="0 0 6 12" fill="none" xmlns="http://www.w3.org/2000/svg">
<path d="M5.0625 0.833333C5.0625 0.932292 5.00521 0.979167 4.89583 0.979167H1.20833C1.16667 0.979167 1.14583 1 1.14583 1.04167V5C1.14583 5.04167 1.16667 5.0625 1.20833 5.0625H3.52083C3.63021 5.0625 3.6875 5.11979 3.6875 5.22917V5.91667C3.6875 6.03125 3.63021 6.08333 3.52083 6.08333H1.20833C1.16667 6.08333 1.14583 6.10417 1.14583 6.14583V10.1042C1.14583 10.1615 1.16667 10.1875 1.20833 10.1875H4.89583C5.00521 10.1875 5.0625 10.2396 5.0625 10.3333V11C5.0625 11.1146 5.00521 11.1667 4.89583 11.1667H0.166667C0.052084 11.1667 0 11.1146 0 11V0.145833C0 0.0520827 0.052084 0 0.166667 0H4.89583C5.00521 0 5.0625 0.0520827 5.0625 0.145833V0.833333Z" fill="#D72333"/>
</svg>
