<svg width="5" height="9" viewBox="0 0 5 9" fill="none" xmlns="http://www.w3.org/2000/svg">
<path d="M0.166667 8.08333C0.052084 8.08333 0 8.03125 0 7.91667V7.16667C0 7.08333 0.0208333 7.01563 0.0625 6.95833L3.33333 1.125C3.33333 1.09896 3.33333 1.07813 3.33333 1.0625C3.33333 1.05208 3.31771 1.04167 3.29167 1.04167H0.229167C0.114583 1.04167 0.0625 0.994792 0.0625 0.895833V0.166667C0.0625 0.057292 0.114583 0 0.229167 0H4.54167C4.63542 0 4.6875 0.057292 4.6875 0.166667V0.9375C4.6875 1.01042 4.67188 1.07813 4.64583 1.14583L1.35417 6.95833C1.33854 6.98958 1.33333 7.01042 1.33333 7.02083C1.34375 7.03646 1.36458 7.04167 1.39583 7.04167H4.5625C4.67188 7.04167 4.72917 7.09896 4.72917 7.20833V7.91667C4.72917 8.03125 4.67188 8.08333 4.5625 8.08333H0.166667Z" fill="#D72333"/>
</svg>
