<svg width="7" height="11" viewBox="0 0 7 11" fill="none" xmlns="http://www.w3.org/2000/svg">
<path d="M4.1875 0.166667C4.1875 0.125 4.19792 0.0937507 4.22917 0.0625C4.27083 0.0208333 4.3125 0 4.35417 0H6.0625C6.10417 0 6.13542 0.0208333 6.16667 0.0625C6.20833 0.0937507 6.22917 0.125 6.22917 0.166667V10.0625C6.22917 10.1042 6.20833 10.1458 6.16667 10.1875C6.13542 10.2188 6.10417 10.2292 6.0625 10.2292H4.125C4.02604 10.2292 3.96354 10.1823 3.9375 10.0833L2.125 4.41667C2.10937 4.39063 2.08854 4.38542 2.0625 4.39583C2.03125 4.39583 2.02083 4.41146 2.02083 4.4375L2.04167 10.0625C2.04167 10.1042 2.02083 10.1458 1.97917 10.1875C1.94792 10.2188 1.91667 10.2292 1.875 10.2292H0.166667C0.125 10.2292 0.0833333 10.2188 0.0416667 10.1875C0.0104173 10.1458 0 10.1042 0 10.0625V0.166667C0 0.125 0.0104173 0.0937507 0.0416667 0.0625C0.0833333 0.0208333 0.125 0 0.166667 0H2.08333C2.17708 0 2.23958 0.052084 2.27083 0.145833L4.10417 5.79167C4.11458 5.82292 4.13021 5.83333 4.14583 5.83333C4.17188 5.83333 4.1875 5.82292 4.1875 5.79167V0.166667Z" fill="#D72333"/>
</svg>
