<svg width="6" height="12" viewBox="0 0 6 12" fill="none" xmlns="http://www.w3.org/2000/svg">
<path d="M0.1875 11.1667C0.130208 11.1667 0.0833333 11.1562 0.0416667 11.125C0.010416 11.0833 0 11.0365 0 10.9792V0.1875C0 0.135416 0.010416 0.0937493 0.0416667 0.0625C0.0833333 0.0208333 0.130208 0 0.1875 0H2.0625C2.10417 0 2.14583 0.0208333 2.1875 0.0625C2.22917 0.0937493 2.25 0.135416 2.25 0.1875V9.14583C2.25 9.20313 2.27604 9.22917 2.33333 9.22917H5.66667C5.71875 9.22917 5.77083 9.25 5.8125 9.29167C5.85417 9.33333 5.875 9.38542 5.875 9.4375V10.9792C5.875 11.0365 5.85417 11.0833 5.8125 11.125C5.77083 11.1562 5.71875 11.1667 5.66667 11.1667H0.1875Z" fill="#D72333"/>
</svg>
