<svg width="6" height="12" viewBox="0 0 6 12" fill="none" xmlns="http://www.w3.org/2000/svg">
<path d="M4.83333 5.95833C5.01042 6.5 5.10417 7.11458 5.10417 7.79167C5.10417 8.34896 5.04167 8.86458 4.91667 9.33333C4.625 10.6406 3.83854 11.2917 2.5625 11.2917C1.89583 11.2917 1.34375 11.1146 0.916667 10.75C0.484375 10.375 0.213541 9.85417 0.104167 9.1875C0.0312507 8.8125 0 8.40625 0 7.95833C0 7.84896 0.0520827 7.79167 0.166667 7.79167H0.979167C1.08854 7.79167 1.14583 7.84896 1.14583 7.95833C1.14583 8.34896 1.17187 8.69792 1.22917 9C1.40625 9.875 1.85417 10.3125 2.5625 10.3125C2.89583 10.3125 3.17187 10.2188 3.39583 10.0208C3.61458 9.8125 3.77604 9.51563 3.875 9.125C3.95833 8.68229 4 8.20313 4 7.6875C4 7.02083 3.9375 6.46875 3.8125 6.02083C3.69792 5.67708 3.53125 5.41667 3.3125 5.25C3.10417 5.07292 2.85417 4.97917 2.5625 4.97917C2.46354 4.97917 2.33854 5.01042 2.1875 5.0625C2.08854 5.11979 2.02083 5.11979 1.97917 5.0625L1.5625 4.625C1.50521 4.55729 1.5 4.47917 1.54167 4.39583L3.66667 1.0625C3.67708 1.05208 3.67708 1.03646 3.66667 1.02083C3.65104 0.994792 3.63021 0.979167 3.60417 0.979167H0.25C0.135416 0.979167 0.0833333 0.932292 0.0833333 0.833333V0.145833C0.0833333 0.0520827 0.135416 0 0.25 0H4.91667C5.01042 0 5.0625 0.0520827 5.0625 0.145833V0.875C5.0625 0.932292 5.04167 1 5 1.08333L3.02083 4.16667C3.00521 4.19792 3 4.21875 3 4.22917C3.01042 4.24479 3.03125 4.25 3.0625 4.25C3.47917 4.29167 3.83854 4.46875 4.14583 4.77083C4.46354 5.07813 4.69271 5.47396 4.83333 5.95833Z" fill="#D72333"/>
</svg>
