<svg width="6" height="13" viewBox="0 0 6 13" fill="none" xmlns="http://www.w3.org/2000/svg">
<path d="M3.125 3.25C3.83333 3.25 4.38021 3.49479 4.77083 3.97917C5.15625 4.46875 5.35417 5.14583 5.35417 6.02083V12C5.35417 12.1146 5.29167 12.1667 5.16667 12.1667H4.29167C4.17708 12.1667 4.125 12.1146 4.125 12V6.125C4.125 5.55729 4 5.11979 3.75 4.8125C3.5 4.49479 3.15104 4.33333 2.70833 4.33333C2.25 4.33333 1.88542 4.5 1.625 4.83333C1.35937 5.16667 1.22917 5.625 1.22917 6.20833V12C1.22917 12.1146 1.17187 12.1667 1.0625 12.1667H0.166667C0.052084 12.1667 0 12.1146 0 12V0.1875C0 0.0625 0.052084 0 0.166667 0H1.0625C1.17187 0 1.22917 0.0625 1.22917 0.1875V4.10417C1.22917 4.13542 1.23437 4.15625 1.25 4.16667C1.27604 4.16667 1.29687 4.15625 1.3125 4.125C1.52083 3.83333 1.78125 3.61979 2.10417 3.47917C2.42187 3.32813 2.76042 3.25 3.125 3.25Z" fill="#D72333"/>
</svg>
