<svg width="6" height="11" viewBox="0 0 6 11" fill="none" xmlns="http://www.w3.org/2000/svg">
<path d="M4.0657 10.5C3.98236 10.5 3.92507 10.4583 3.89903 10.375L2.98236 5.75C2.98236 5.72396 2.96674 5.70833 2.9407 5.70833H1.66986C1.65424 5.70833 1.63861 5.71875 1.6282 5.72917C1.61257 5.72917 1.60736 5.73958 1.60736 5.75L1.04486 10.3542C1.02924 10.3958 1.0084 10.4323 0.982363 10.4583C0.951112 10.4896 0.919863 10.5 0.878196 10.5H0.128196C0.0292375 10.5 -0.0124292 10.4531 0.00319614 10.3542L1.2532 0.145833C1.27924 0.0520827 1.33653 0 1.41986 0H3.8157C4.45111 0 4.95111 0.218749 5.3157 0.645833C5.6907 1.07813 5.8782 1.65625 5.8782 2.375C5.8782 2.48958 5.86778 2.66146 5.85736 2.89583C5.77403 3.55208 5.5657 4.11458 5.23236 4.58333C4.89903 5.04167 4.48757 5.36979 4.0032 5.5625C3.96153 5.57813 3.9407 5.60417 3.9407 5.64583L4.96153 10.3333V10.375C4.96153 10.4583 4.90945 10.5 4.8157 10.5H4.0657ZM2.2532 0.9375C2.23757 0.9375 2.22195 0.947917 2.21153 0.958333C2.1959 0.958333 2.1907 0.973959 2.1907 1L1.73236 4.79167C1.73236 4.80729 1.73236 4.82292 1.73236 4.83333C1.74278 4.84896 1.7584 4.85417 1.77403 4.85417H3.08653C3.52924 4.85417 3.90945 4.67708 4.23236 4.3125C4.55007 3.95313 4.74278 3.47917 4.8157 2.89583C4.82611 2.80208 4.83653 2.67708 4.83653 2.52083C4.83653 2.03646 4.71674 1.65625 4.48236 1.375C4.2584 1.08333 3.95111 0.9375 3.5657 0.9375H2.2532Z" fill="#D51224"/>
</svg>
