<svg width="6" height="12" viewBox="0 0 6 12" fill="none" xmlns="http://www.w3.org/2000/svg">
<path d="M4.47917 11.1667C4.38021 11.1667 4.3125 11.125 4.27083 11.0417L2.64583 6.10417C2.64583 6.07813 2.625 6.0625 2.58333 6.0625H1.20833C1.16667 6.0625 1.14583 6.08333 1.14583 6.125V11C1.14583 11.1146 1.08854 11.1667 0.979167 11.1667H0.166667C0.052084 11.1667 0 11.1146 0 11V0.145833C0 0.0520827 0.052084 0 0.166667 0H2.79167C3.56771 0 4.19271 0.286459 4.66667 0.854167C5.15104 1.42708 5.39583 2.16667 5.39583 3.08333C5.39583 3.76563 5.23958 4.35417 4.9375 4.85417C4.64583 5.35417 4.23958 5.70833 3.72917 5.91667C3.6875 5.93229 3.67187 5.95833 3.6875 6L5.4375 11V11.0625C5.4375 11.1354 5.38542 11.1667 5.29167 11.1667H4.47917ZM1.20833 0.979167C1.16667 0.979167 1.14583 1 1.14583 1.04167V5.08333C1.14583 5.125 1.16667 5.14583 1.20833 5.14583H2.64583C3.13021 5.14583 3.52083 4.95833 3.8125 4.58333C4.11458 4.20833 4.27083 3.70833 4.27083 3.08333C4.27083 2.44792 4.11458 1.9375 3.8125 1.5625C3.52083 1.17708 3.13021 0.979167 2.64583 0.979167H1.20833Z" fill="#D72333"/>
</svg>
