<svg width="7" height="12" viewBox="0 0 7 12" fill="none" xmlns="http://www.w3.org/2000/svg">
<path d="M3.10417 11.2292C2.48958 11.2292 1.95833 11.1094 1.5 10.875C1.04167 10.625 0.6875 10.2865 0.4375 9.85417C0.1875 9.42708 0.0625 8.92708 0.0625 8.35417V7.89583C0.0625 7.85417 0.0729173 7.8125 0.104167 7.77083C0.145833 7.72917 0.192708 7.70833 0.25 7.70833H2.04167C2.09375 7.70833 2.13542 7.72917 2.16667 7.77083C2.20833 7.8125 2.22917 7.85417 2.22917 7.89583V8.25C2.22917 8.57292 2.3125 8.83333 2.47917 9.04167C2.64583 9.23958 2.85417 9.33333 3.10417 9.33333C3.35417 9.33333 3.5625 9.24479 3.72917 9.0625C3.90625 8.86979 4 8.61979 4 8.3125C4 7.99479 3.88542 7.72396 3.66667 7.5C3.45833 7.28125 3.05208 6.94792 2.45833 6.5C1.92708 6.125 1.5 5.79167 1.16667 5.5C0.843749 5.20833 0.567708 4.84896 0.333333 4.41667C0.109375 3.98958 0 3.49479 0 2.9375C0 2.05208 0.276041 1.34375 0.833333 0.8125C1.38542 0.270833 2.125 0 3.04167 0C3.95833 0 4.69271 0.281249 5.25 0.833333C5.80208 1.39063 6.08333 2.11458 6.08333 3V3.39583C6.08333 3.4375 6.0625 3.47917 6.02083 3.52083C5.98958 3.5625 5.94792 3.58333 5.89583 3.58333H4.10417C4.04688 3.58333 4 3.5625 3.95833 3.52083C3.92708 3.47917 3.91667 3.4375 3.91667 3.39583V2.95833C3.91667 2.64063 3.83333 2.38542 3.66667 2.1875C3.5 1.99479 3.29167 1.89583 3.04167 1.89583C2.79167 1.89583 2.58333 1.98958 2.41667 2.16667C2.26042 2.34896 2.1875 2.60417 2.1875 2.9375C2.1875 3.24479 2.28125 3.52083 2.47917 3.77083C2.6875 4.01042 3.08333 4.34375 3.66667 4.77083C4.30208 5.24479 4.79167 5.63542 5.125 5.9375C5.45833 6.22917 5.71354 6.55729 5.89583 6.91667C6.07292 7.28125 6.16667 7.70833 6.16667 8.20833C6.16667 9.14063 5.88021 9.875 5.3125 10.4167C4.75521 10.9583 4.02083 11.2292 3.10417 11.2292Z" fill="#D72333"/>
</svg>
