<svg width="5" height="9" viewBox="0 0 5 9" fill="none" xmlns="http://www.w3.org/2000/svg">
<path d="M2.4375 8.22917C1.69792 8.22917 1.10937 8.04167 0.666667 7.66667C0.218751 7.28125 0 6.77083 0 6.14583V6.04167C0 5.93229 0.052084 5.875 0.166667 5.875H0.9375C1.03125 5.875 1.08333 5.93229 1.08333 6.04167V6.125C1.08333 6.47396 1.20833 6.76563 1.45833 7C1.70833 7.23958 2.04167 7.35417 2.45833 7.35417C2.83333 7.35417 3.13542 7.23958 3.375 7C3.60937 6.76563 3.72917 6.46875 3.72917 6.10417C3.72917 5.82813 3.65104 5.59896 3.5 5.41667C3.34375 5.22396 3.17187 5.07813 2.97917 4.97917C2.78125 4.86979 2.48958 4.72917 2.10417 4.5625C1.6875 4.38542 1.33854 4.21875 1.0625 4.0625C0.796875 3.89583 0.5625 3.66146 0.354167 3.35417C0.156249 3.05208 0.0625 2.66146 0.0625 2.1875C0.0625 1.51042 0.270833 0.973959 0.6875 0.583333C1.11458 0.197916 1.6875 0 2.39583 0C3.11458 0 3.69271 0.203125 4.125 0.604167C4.55208 1.01042 4.77083 1.54167 4.77083 2.20833V2.25C4.77083 2.36458 4.71354 2.41667 4.60417 2.41667H3.875C3.76042 2.41667 3.70833 2.36458 3.70833 2.25V2.16667C3.70833 1.80729 3.58854 1.51042 3.35417 1.27083C3.11458 1.03646 2.80208 0.916667 2.41667 0.916667C2.02604 0.916667 1.71875 1.03646 1.5 1.27083C1.27604 1.51042 1.16667 1.80729 1.16667 2.16667C1.16667 2.41667 1.22917 2.63542 1.35417 2.8125C1.48958 2.97917 1.66667 3.11979 1.875 3.22917C2.08333 3.34375 2.36458 3.47917 2.72917 3.64583C3.15625 3.84375 3.51042 4.02083 3.79167 4.1875C4.08333 4.35417 4.33333 4.59896 4.54167 4.91667C4.75 5.22396 4.85417 5.60417 4.85417 6.0625C4.85417 6.71875 4.63021 7.24479 4.1875 7.64583C3.75521 8.03646 3.17187 8.22917 2.4375 8.22917Z" fill="#D72333"/>
</svg>
