<svg width="28" height="39" viewBox="0 0 28 39" fill="none" xmlns="http://www.w3.org/2000/svg">
<mask id="mask0_25_20457" style="mask-type:luminance" maskUnits="userSpaceOnUse" x="0" y="0" width="28" height="39">
<path d="M28 0H0V38.6667H28V0Z" fill="white"/>
</mask>
<g mask="url(#mask0_25_20457)">
<path d="M5.1665 15.02C5.13525 15.0513 5.13005 15.0773 5.14567 15.1034C5.15609 15.119 5.17692 15.1242 5.20817 15.1242H8.52067C8.57275 15.1242 8.61442 15.145 8.64567 15.1867C8.68734 15.2179 8.70817 15.2596 8.70817 15.3117V16.8534C8.70817 16.9106 8.68734 16.9575 8.64567 16.9992C8.61442 17.0304 8.57275 17.0409 8.52067 17.0409H2.6665C2.60921 17.0409 2.56234 17.0304 2.52067 16.9992C2.48942 16.9575 2.479 16.9106 2.479 16.8534V15.2492C2.479 15.1554 2.49984 15.0773 2.5415 15.02C2.96859 14.4523 3.27067 14.0721 3.43734 13.8742C4.36442 12.6815 5.02588 11.7804 5.4165 11.1659C5.98421 10.2648 6.27067 9.49919 6.27067 8.87419C6.27067 8.51481 6.19255 8.23877 6.0415 8.04085C5.90088 7.84815 5.71338 7.74919 5.479 7.74919C5.229 7.74919 5.02588 7.84815 4.87484 8.04085C4.73421 8.23877 4.67171 8.48877 4.68734 8.79085V9.43669C4.68734 9.49398 4.6665 9.54085 4.62484 9.58252C4.59359 9.61377 4.55192 9.62419 4.49984 9.62419H2.604C2.56234 9.62419 2.52067 9.61377 2.479 9.58252C2.43734 9.54085 2.4165 9.49398 2.4165 9.43669V8.68669C2.45817 7.82731 2.77067 7.13981 3.354 6.62419C3.93734 6.09814 4.67171 5.83252 5.56234 5.83252C6.44775 5.83252 7.1665 6.11377 7.70817 6.66585C8.26025 7.22314 8.5415 7.96794 8.5415 8.89502C8.5415 9.43669 8.44775 9.95752 8.27067 10.4575C8.104 10.9575 7.81755 11.494 7.4165 12.0617C7.12484 12.494 6.61442 13.1659 5.89567 14.0825L5.1665 15.02Z" fill="#D72333"/>
<path d="M10.7412 17.1035C10.3766 17.1035 10.0798 16.9889 9.84538 16.7493C9.60579 16.515 9.49121 16.2181 9.49121 15.8535C9.49121 15.4941 9.60059 15.1973 9.82454 14.9577C10.0589 14.7233 10.3662 14.6035 10.7412 14.6035C11.1006 14.6035 11.3975 14.7233 11.637 14.9577C11.8714 15.1973 11.9912 15.4941 11.9912 15.8535C11.9912 16.2181 11.8714 16.515 11.637 16.7493C11.3975 16.9889 11.1006 17.1035 10.7412 17.1035Z" fill="#D72333"/>
<path d="M18.8104 12.3534C18.8625 12.7596 18.8937 13.145 18.8937 13.52C18.8937 13.994 18.8729 14.3898 18.8312 14.7075C18.7479 15.4731 18.4562 16.0773 17.9562 16.52C17.4562 16.9523 16.7791 17.1659 15.9354 17.1659C15.0604 17.1659 14.3416 16.9367 13.7896 16.4784C13.2479 16.0096 12.9562 15.3898 12.9146 14.6242C12.8729 14.3325 12.8521 14.0304 12.8521 13.7075C12.8521 13.5825 12.9198 13.52 13.0604 13.52H14.9146C15.0396 13.52 15.1021 13.5825 15.1021 13.7075C15.1021 13.9471 15.1125 14.1659 15.1437 14.3742C15.1698 14.6554 15.2531 14.869 15.3937 15.02C15.5291 15.1763 15.7114 15.2492 15.9354 15.2492C16.1437 15.2492 16.3156 15.1815 16.4562 15.0409C16.5916 14.8898 16.6854 14.6867 16.7271 14.4367C16.7531 14.0617 16.7687 13.6815 16.7687 13.2909C16.7687 12.7909 16.7375 12.4054 16.6854 12.1242C16.6437 11.8742 16.55 11.6867 16.4146 11.5617C16.2896 11.4263 16.1281 11.3534 15.9354 11.3534C15.7791 11.3534 15.6229 11.4263 15.4562 11.5617C15.3989 11.6034 15.3573 11.6242 15.3312 11.6242C15.2896 11.6242 15.2375 11.5981 15.1854 11.5409L14.2479 10.5825C14.2062 10.5409 14.1854 10.494 14.1854 10.4367C14.1854 10.395 14.1958 10.3534 14.2271 10.3117L16.1437 7.95752C16.1541 7.93148 16.1541 7.91064 16.1437 7.89502C16.1437 7.86898 16.1281 7.85335 16.1021 7.85335H13.2479C13.1906 7.85335 13.1437 7.84294 13.1021 7.81169C13.0708 7.77002 13.0604 7.72314 13.0604 7.66585V6.14502C13.0604 6.09294 13.0708 6.05127 13.1021 6.02002C13.1437 5.97835 13.1906 5.95752 13.2479 5.95752H18.6854C18.7375 5.95752 18.7791 5.97835 18.8104 6.02002C18.8521 6.05127 18.8729 6.09294 18.8729 6.14502V7.72835C18.8729 7.81169 18.8416 7.89502 18.7896 7.97835L17.0187 10.2075C17.0187 10.2231 17.0187 10.244 17.0187 10.27C17.0187 10.2856 17.0239 10.2909 17.0396 10.2909C17.5083 10.3325 17.9041 10.5513 18.2271 10.9367C18.5448 11.3117 18.7375 11.7856 18.8104 12.3534Z" fill="#D72333"/>
<path d="M22.9777 17.2077C22.0454 17.2077 21.2954 16.916 20.7277 16.3327C20.1548 15.7493 19.8735 14.9785 19.8735 14.0202V8.97852C19.8735 8.02018 20.1548 7.24935 20.7277 6.66602C21.2954 6.08268 22.0454 5.79102 22.9777 5.79102C23.5871 5.79102 24.1287 5.92643 24.6027 6.18685C25.0715 6.45247 25.436 6.82747 25.686 7.31185C25.9465 7.80143 26.0819 8.35352 26.0819 8.97852V14.0202C26.0819 14.6452 25.9465 15.2025 25.686 15.6868C25.436 16.1764 25.0715 16.5514 24.6027 16.8118C24.1287 17.0723 23.5871 17.2077 22.9777 17.2077ZM22.9777 15.291C23.2381 15.291 23.4465 15.1868 23.6027 14.9785C23.7694 14.7702 23.8527 14.4941 23.8527 14.1452V8.85352C23.8527 8.50977 23.7694 8.22852 23.6027 8.02018C23.4465 7.81185 23.2381 7.70768 22.9777 7.70768C22.7121 7.70768 22.4985 7.81185 22.3319 8.02018C22.1756 8.22852 22.1027 8.50977 22.1027 8.85352V14.1452C22.1027 14.4941 22.1756 14.7702 22.3319 14.9785C22.4985 15.1868 22.7121 15.291 22.9777 15.291Z" fill="#D72333"/>
<path d="M8.53646 29.6082C8.58854 29.6082 8.63021 29.6291 8.66146 29.6707C8.70312 29.702 8.72396 29.7437 8.72396 29.7957V31.4207C8.72396 31.478 8.70312 31.5249 8.66146 31.5666C8.63021 31.5978 8.58854 31.6082 8.53646 31.6082H8.05729C8 31.6082 7.97396 31.6395 7.97396 31.6916V34.2332C7.97396 34.2905 7.95312 34.3374 7.91146 34.3791C7.86979 34.4103 7.82812 34.4207 7.78646 34.4207H5.93229C5.875 34.4207 5.82812 34.4103 5.78646 34.3791C5.75521 34.3374 5.74479 34.2905 5.74479 34.2332V31.6916C5.74479 31.6395 5.71354 31.6082 5.66146 31.6082H1.70312C1.64583 31.6082 1.59896 31.5978 1.55729 31.5666C1.52604 31.5249 1.51562 31.478 1.51562 31.4207V30.1291C1.51562 30.0353 1.52083 29.9572 1.53646 29.8999L3.64062 23.5041C3.68229 23.3947 3.75 23.3374 3.84896 23.3374H5.86979C5.92187 23.3374 5.96354 23.3582 5.99479 23.3999C6.03646 23.4312 6.04167 23.4832 6.01562 23.5666L4.11979 29.5041C4.10417 29.577 4.125 29.6082 4.18229 29.6082H5.66146C5.71354 29.6082 5.74479 29.5822 5.74479 29.5249V27.8791C5.74479 27.827 5.75521 27.7853 5.78646 27.7541C5.82812 27.7124 5.875 27.6916 5.93229 27.6916H7.78646C7.82812 27.6916 7.86979 27.7124 7.91146 27.7541C7.95312 27.7853 7.97396 27.827 7.97396 27.8791V29.5249C7.97396 29.5822 8 29.6082 8.05729 29.6082H8.53646Z" fill="#D72333"/>
<path d="M10.7134 34.4834C10.3488 34.4834 10.0519 34.3688 9.81755 34.1292C9.57796 33.8949 9.46338 33.598 9.46338 33.2334C9.46338 32.874 9.57275 32.5771 9.79671 32.3376C10.0311 32.1032 10.3384 31.9834 10.7134 31.9834C11.0728 31.9834 11.3696 32.1032 11.6092 32.3376C11.8436 32.5771 11.9634 32.874 11.9634 33.2334C11.9634 33.598 11.8436 33.8949 11.6092 34.1292C11.3696 34.3688 11.0728 34.4834 10.7134 34.4834Z" fill="#D72333"/>
<path d="M15.5952 32.3999C15.564 32.4312 15.5588 32.4572 15.5744 32.4832C15.5848 32.4989 15.6056 32.5041 15.6369 32.5041H18.9494C19.0015 32.5041 19.0431 32.5249 19.0744 32.5666C19.116 32.5978 19.1369 32.6395 19.1369 32.6916V34.2332C19.1369 34.2905 19.116 34.3374 19.0744 34.3791C19.0431 34.4103 19.0015 34.4207 18.9494 34.4207H13.0952C13.0379 34.4207 12.991 34.4103 12.9494 34.3791C12.9181 34.3374 12.9077 34.2905 12.9077 34.2332V32.6291C12.9077 32.5353 12.9285 32.4572 12.9702 32.3999C13.3973 31.8322 13.6994 31.452 13.866 31.2541C14.7931 30.0614 15.4546 29.1603 15.8452 28.5457C16.4129 27.6447 16.6994 26.8791 16.6994 26.2541C16.6994 25.8947 16.6213 25.6187 16.4702 25.4207C16.3296 25.228 16.1421 25.1291 15.9077 25.1291C15.6577 25.1291 15.4546 25.228 15.3035 25.4207C15.1629 25.6187 15.1004 25.8687 15.116 26.1707V26.8166C15.116 26.8739 15.0952 26.9207 15.0535 26.9624C15.0223 26.9937 14.9806 27.0041 14.9285 27.0041H13.0327C12.991 27.0041 12.9494 26.9937 12.9077 26.9624C12.866 26.9207 12.8452 26.8739 12.8452 26.8166V26.0666C12.8869 25.2072 13.1994 24.5197 13.7827 24.0041C14.366 23.478 15.1004 23.2124 15.991 23.2124C16.8765 23.2124 17.5952 23.4937 18.1369 24.0457C18.689 24.603 18.9702 25.3478 18.9702 26.2749C18.9702 26.8166 18.8765 27.3374 18.6994 27.8374C18.5327 28.3374 18.2463 28.8739 17.8452 29.4416C17.5535 29.8739 17.0431 30.5457 16.3244 31.4624L15.5952 32.3999Z" fill="#D72333"/>
<path d="M22.9821 34.5876C22.0498 34.5876 21.2998 34.2959 20.7321 33.7126C20.1592 33.1292 19.8779 32.3584 19.8779 31.4001V26.3584C19.8779 25.4001 20.1592 24.6292 20.7321 24.0459C21.2998 23.4626 22.0498 23.1709 22.9821 23.1709C23.5915 23.1709 24.1331 23.3063 24.6071 23.5667C25.0758 23.8324 25.4404 24.2074 25.6904 24.6917C25.9508 25.1813 26.0863 25.7334 26.0863 26.3584V31.4001C26.0863 32.0251 25.9508 32.5824 25.6904 33.0667C25.4404 33.5563 25.0758 33.9313 24.6071 34.1917C24.1331 34.4521 23.5915 34.5876 22.9821 34.5876ZM22.9821 32.6709C23.2425 32.6709 23.4508 32.5667 23.6071 32.3584C23.7738 32.1501 23.8571 31.874 23.8571 31.5251V26.2334C23.8571 25.8896 23.7738 25.6084 23.6071 25.4001C23.4508 25.1917 23.2425 25.0876 22.9821 25.0876C22.7165 25.0876 22.5029 25.1917 22.3363 25.4001C22.18 25.6084 22.1071 25.8896 22.1071 26.2334V31.5251C22.1071 31.874 22.18 32.1501 22.3363 32.3584C22.5029 32.5667 22.7165 32.6709 22.9821 32.6709Z" fill="#D72333"/>
</g>
</svg>
