<svg width="3" height="7" viewBox="0 0 3 7" fill="none" xmlns="http://www.w3.org/2000/svg">
<path d="M2.875 0.479167C2.875 0.536459 2.84375 0.5625 2.79167 0.5625H0.6875C0.656251 0.5625 0.645833 0.578125 0.645833 0.604167V2.875C0.645833 2.90625 0.656251 2.91667 0.6875 2.91667H2C2.06771 2.91667 2.10417 2.94792 2.10417 3V3.39583C2.10417 3.46875 2.06771 3.5 2 3.5H0.6875C0.656251 3.5 0.645833 3.51042 0.645833 3.52083V6.33333C0.645833 6.39063 0.614584 6.41667 0.5625 6.41667H0.0833333C0.0260413 6.41667 0 6.39063 0 6.33333V0.0833333C0 0.0312507 0.0260413 0 0.0833333 0H2.79167C2.84375 0 2.875 0.0312507 2.875 0.0833333V0.479167Z" fill="#D72333"/>
</svg>
