<svg width="5" height="8" viewBox="0 0 5 8" fill="none" xmlns="http://www.w3.org/2000/svg">
<path d="M1.97917 7.75C1.36458 7.75 0.880208 7.59896 0.520833 7.29167C0.171875 6.98958 0 6.58333 0 6.08333C0 5.94792 0.005208 5.84896 0.0208333 5.79167L0.0416667 5.6875C0.0416667 5.64583 0.052084 5.61458 0.0833333 5.58333C0.109375 5.55729 0.151041 5.54167 0.208333 5.54167H0.895833C0.979167 5.54167 1.02083 5.59375 1.02083 5.6875L1 5.77083C0.968751 6.09375 1.05208 6.36458 1.25 6.58333C1.44271 6.80729 1.72917 6.91667 2.10417 6.91667C2.47917 6.91667 2.79167 6.79167 3.04167 6.54167C3.29167 6.28125 3.41667 5.95833 3.41667 5.58333C3.41667 5.36458 3.35417 5.17708 3.22917 5.02083C3.11458 4.86979 2.98437 4.75 2.83333 4.66667C2.67708 4.58333 2.4375 4.45833 2.10417 4.29167C1.78125 4.15625 1.51042 4.01563 1.29167 3.875C1.08333 3.73958 0.901041 3.55208 0.75 3.3125C0.593751 3.0625 0.520833 2.76042 0.520833 2.39583C0.520833 2.26042 0.520833 2.14583 0.520833 2.0625C0.604167 1.42708 0.859375 0.927083 1.29167 0.5625C1.71875 0.1875 2.26042 0 2.91667 0C3.51042 0 3.97917 0.161459 4.3125 0.479167C4.64583 0.802083 4.8125 1.22917 4.8125 1.77083C4.8125 1.91146 4.8125 2.01563 4.8125 2.08333V2.125C4.78125 2.23958 4.72917 2.29167 4.64583 2.29167H3.95833C3.85937 2.29167 3.82292 2.23958 3.85417 2.125V2.04167C3.85417 2 3.85417 1.9375 3.85417 1.85417C3.85417 1.5625 3.75521 1.32813 3.5625 1.14583C3.38021 0.968749 3.13021 0.875 2.8125 0.875C2.46354 0.875 2.17187 0.989584 1.9375 1.20833C1.71354 1.43229 1.57292 1.70833 1.52083 2.04167C1.48958 2.28125 1.52604 2.47917 1.625 2.64583C1.73437 2.8125 1.875 2.95313 2.04167 3.0625C2.20833 3.17708 2.44792 3.30208 2.77083 3.4375C3.13021 3.59375 3.41667 3.74479 3.625 3.89583C3.84375 4.03646 4.04167 4.22917 4.20833 4.47917C4.375 4.72917 4.45833 5.03646 4.45833 5.39583C4.45833 6.10417 4.22917 6.67708 3.77083 7.10417C3.3125 7.53646 2.71354 7.75 1.97917 7.75Z" fill="#D51224"/>
</svg>
