<svg width="3" height="7" viewBox="0 0 3 7" fill="none" xmlns="http://www.w3.org/2000/svg">
<path d="M2.33333 0.104167C2.33333 0.0364587 2.35937 0 2.41667 0H2.875C2.94271 0 2.97917 0.0364587 2.97917 0.104167V6.25C2.97917 6.30729 2.94271 6.33333 2.875 6.33333H2.41667C2.35937 6.33333 2.33333 6.30729 2.33333 6.25V3.47917C2.33333 3.46875 2.31771 3.45833 2.29167 3.45833H0.6875C0.656249 3.45833 0.645833 3.46875 0.645833 3.47917V6.25C0.645833 6.30729 0.614583 6.33333 0.5625 6.33333H0.104167C0.0312493 6.33333 0 6.30729 0 6.25V0.104167C0 0.0364587 0.0312493 0 0.104167 0H0.5625C0.614583 0 0.645833 0.0364587 0.645833 0.104167V2.83333C0.645833 2.86458 0.656249 2.875 0.6875 2.875H2.29167C2.31771 2.875 2.33333 2.86458 2.33333 2.83333V0.104167Z" fill="#D72333"/>
</svg>
