<svg width="2" height="12" viewBox="0 0 2 12" fill="none" xmlns="http://www.w3.org/2000/svg">
<path d="M0.875 1.77083C0.609375 1.77083 0.395833 1.6875 0.229167 1.52083C0.0729173 1.35417 0 1.14583 0 0.895833C0 0.635417 0.0729173 0.416667 0.229167 0.25C0.395833 0.0833333 0.609375 0 0.875 0C1.125 0 1.33333 0.0833333 1.5 0.25C1.66667 0.416667 1.75 0.635417 1.75 0.895833C1.75 1.14583 1.66667 1.35417 1.5 1.52083C1.33333 1.6875 1.125 1.77083 0.875 1.77083ZM0.479167 11.1458C0.380208 11.1458 0.333333 11.0938 0.333333 10.9792V3.375C0.333333 3.26563 0.380208 3.20833 0.479167 3.20833H1.29167C1.38542 3.20833 1.4375 3.26563 1.4375 3.375V10.9792C1.4375 11.0938 1.38542 11.1458 1.29167 11.1458H0.479167Z" fill="#D72333"/>
</svg>
