<svg width="15" height="18" viewBox="0 0 15 18" fill="none" xmlns="http://www.w3.org/2000/svg">
<path d="M0.296028 15.9951H0.275194C0.342902 15.818 0.34811 15.6357 0.296028 15.4534C0.254361 15.2763 0.217902 15.0888 0.191861 14.8909C0.176236 14.6722 0.176236 14.4534 0.191861 14.2451C0.217902 14.0368 0.243945 13.8284 0.275194 13.6201C0.358528 13.2451 0.363736 12.9065 0.296028 12.5993C0.238736 12.2972 0.22311 11.9638 0.254361 11.5993L0.129361 11.5368C0.155402 11.3024 0.197069 11.068 0.254361 10.8284C0.322069 10.594 0.363736 10.3649 0.379361 10.1409C0.405402 9.90654 0.379361 9.68259 0.296028 9.47425C0.22311 9.2555 0.150194 9.03154 0.066861 8.80758L0.191861 8.72425C0.202278 8.43258 0.171028 8.09925 0.0876943 7.72425C0.014777 7.34925 -0.0112644 6.98467 0.00436097 6.62008C0.014777 6.24508 0.129361 5.92738 0.337694 5.66175C0.296028 5.443 0.275194 5.22425 0.275194 5.01592C0.285612 4.80758 0.306444 4.60967 0.337694 4.41175C0.363736 4.17738 0.34811 3.94821 0.296028 3.72425C0.254361 3.5055 0.217902 3.28154 0.191861 3.05758C0.176236 2.71384 0.191861 2.37008 0.233528 2.03675C0.275194 1.70342 0.280402 1.37008 0.254361 1.03675C0.238736 0.844043 0.280402 0.656543 0.379361 0.474251C0.47311 0.297168 0.618945 0.177376 0.816861 0.120084L1.06686 0.0367508C1.28561 -0.00491583 1.51478 -0.0101238 1.75436 0.0159175C1.98874 0.0315428 2.2179 0.0367508 2.44186 0.0367508C2.60853 0.0680002 2.7804 0.0732095 2.96269 0.0575842C3.1554 0.0315428 3.33769 0.0367508 3.50436 0.0784175C3.71269 0.109667 3.91061 0.151334 4.10853 0.203418C4.30124 0.26071 4.50436 0.297168 4.71269 0.307584C5.01478 0.0888349 5.36895 -0.00491583 5.77519 0.0367508C6.19186 0.0784175 6.57728 0.0940428 6.94186 0.0784175C7.00957 0.161751 7.13457 0.219043 7.31686 0.245084C7.50957 0.26071 7.67103 0.281543 7.79603 0.307584C8.04603 0.0888349 8.32207 0.0159175 8.62936 0.0992508C9.07207 0.172168 9.54603 0.286751 10.046 0.453418C10.546 0.609667 10.9887 0.828418 11.3794 1.12008C11.7648 1.41175 12.0252 1.78675 12.1502 2.24508H12.421C12.6554 2.693 12.8481 3.14092 13.0044 3.59925C13.1554 4.05758 13.1762 4.54717 13.0669 5.05758C12.9835 5.44821 12.8481 5.84925 12.671 6.26592C12.4887 6.67217 12.2439 7.01592 11.9419 7.30758C11.9523 7.3805 11.9523 7.45342 11.9419 7.53675C11.9262 7.60967 11.9106 7.67738 11.9002 7.74509L12.1085 7.87009C12.4262 8.01071 12.7023 8.2555 12.9419 8.59925L13.3169 9.14092C13.4523 9.32321 13.5669 9.51592 13.6502 9.72425C13.7439 9.93259 13.8585 10.1305 13.9835 10.3076C14.1606 10.6722 14.2596 11.0107 14.2752 11.3284C14.3012 11.6513 14.2596 12.0055 14.1502 12.3909L14.3169 12.5784C14.2856 12.9013 14.2231 13.1618 14.1294 13.3701C14.0304 13.568 13.8637 13.7815 13.6294 14.0159L13.7335 14.2451L13.3794 14.6409L13.4627 15.0159C13.2544 15.3076 12.9939 15.5472 12.6919 15.7243C12.3846 15.9065 12.0981 16.1305 11.8377 16.3909H11.046C10.8794 16.6722 10.6085 16.8232 10.2335 16.8493C9.86895 16.8597 9.54603 16.8753 9.25436 16.8909C9.04603 16.9013 8.82207 16.9222 8.58769 16.9534C8.36374 16.9795 8.13978 16.9847 7.92103 16.9743C7.75436 16.9586 7.58769 16.9222 7.42103 16.8701C7.26478 16.818 7.11374 16.7868 6.96269 16.7868C6.79603 16.7607 6.62936 16.7763 6.46269 16.8284C6.30644 16.8805 6.1554 16.9222 6.00436 16.9534C5.79603 16.9534 5.58769 16.9118 5.37936 16.8284C5.18144 16.7451 4.97311 16.7138 4.75436 16.7243C4.59811 16.7243 4.44707 16.7659 4.29603 16.8493C4.1554 16.9326 3.99394 16.9847 3.81686 17.0159C3.60853 17.042 3.4054 17.0159 3.21269 16.9326C3.01478 16.8597 2.8429 16.7451 2.69186 16.5784C2.38457 16.6618 2.0929 16.7451 1.81686 16.8284C1.55124 16.9118 1.25436 16.9222 0.921028 16.8701C0.889777 16.9222 0.842902 16.943 0.775194 16.9326C0.717902 16.917 0.676236 16.8961 0.650194 16.8701L0.254361 16.4326L0.296028 15.9951ZM4.71269 13.8076L4.58769 13.8909L4.71269 14.4118C4.86374 14.469 5.01478 14.5055 5.17103 14.5159C5.33769 14.5315 5.50436 14.5524 5.67103 14.5784C5.82207 14.594 5.9679 14.6305 6.10853 14.6826C6.25957 14.7399 6.41061 14.7763 6.56686 14.7868C6.86895 14.8024 7.17103 14.7763 7.46269 14.7034C7.76478 14.6201 8.05644 14.5472 8.33769 14.4743C8.47311 14.3076 8.61895 14.1357 8.77519 13.9534C8.94186 13.7607 9.13457 13.6357 9.35853 13.5784L9.50436 12.8701L9.23353 12.3701C9.3429 12.318 9.42103 12.2399 9.46269 12.1409C9.50436 12.0472 9.54603 11.9482 9.58769 11.8493C9.37936 11.3909 9.21269 10.9274 9.08769 10.4534C8.96269 9.98467 8.73874 9.55238 8.42103 9.16175C7.86374 9.12008 7.30124 9.09404 6.73353 9.07842C6.16061 9.05238 5.59811 9.07842 5.04603 9.16175C4.94707 9.35967 4.80124 9.47425 4.60853 9.51592C4.69186 9.8805 4.71269 10.2451 4.67103 10.6201C4.63978 10.9847 4.61895 11.344 4.60853 11.7034C4.60853 12.0524 4.61895 12.4065 4.65019 12.7659C4.67624 13.1149 4.69707 13.4638 4.71269 13.8076ZM4.67103 5.32842C4.62936 5.62008 4.62936 5.90654 4.67103 6.18258C4.71269 6.44821 4.86895 6.66175 5.15019 6.82842C5.36895 6.95342 5.59811 7.01592 5.83769 7.01592C6.07207 7.0055 6.30644 6.96904 6.54603 6.91175C6.79603 6.85967 7.03561 6.84404 7.27519 6.87008C7.50957 6.59404 7.71269 6.26592 7.87936 5.89092C8.04603 5.51592 8.13978 5.15654 8.17103 4.80758C8.21269 4.48988 8.16061 4.10967 8.02519 3.66175C7.90019 3.21904 7.75436 2.86488 7.58769 2.59925C7.17103 2.55758 6.75436 2.48988 6.33769 2.39092C5.92103 2.29717 5.50436 2.23467 5.08769 2.20342C4.92103 2.443 4.76478 2.7555 4.62936 3.14092C4.48874 3.53154 4.41061 3.92738 4.40019 4.32842C4.40019 4.73467 4.48874 5.068 4.67103 5.32842Z" fill="#D72333"/>
</svg>
