<svg width="5" height="12" viewBox="0 0 5 12" fill="none" xmlns="http://www.w3.org/2000/svg">
<path d="M2.75 0C3.41667 0 3.94792 0.229167 4.35417 0.6875C4.77083 1.13542 4.97917 1.71875 4.97917 2.4375V5.89583C4.97917 6.64583 4.77083 7.24479 4.35417 7.6875C3.94792 8.11979 3.41667 8.33333 2.75 8.33333C2.45833 8.33333 2.17187 8.27604 1.89583 8.16667C1.63021 8.05729 1.40104 7.88542 1.20833 7.64583C1.17708 7.63542 1.15625 7.63542 1.14583 7.64583C1.13021 7.64583 1.125 7.66146 1.125 7.6875V11.1458C1.125 11.2552 1.06771 11.3125 0.958333 11.3125H0.145833C0.0468747 11.3125 0 11.2552 0 11.1458V0.291667C0 0.182292 0.0468747 0.125 0.145833 0.125H0.958333C1.06771 0.125 1.125 0.182292 1.125 0.291667V0.666667C1.125 0.682292 1.13021 0.697917 1.14583 0.708333C1.17187 0.708333 1.19792 0.697917 1.22917 0.666667C1.40625 0.447917 1.63021 0.281251 1.89583 0.166667C2.17187 0.057292 2.45833 0 2.75 0ZM3.85417 2.52083C3.85417 2.0625 3.71875 1.69792 3.45833 1.41667C3.19271 1.14063 2.85937 1 2.45833 1C2.06771 1 1.75 1.14063 1.5 1.41667C1.25 1.69792 1.125 2.0625 1.125 2.52083V5.8125C1.125 6.27083 1.25 6.64583 1.5 6.9375C1.75 7.21875 2.06771 7.35417 2.45833 7.35417C2.85937 7.35417 3.19271 7.21875 3.45833 6.9375C3.71875 6.64583 3.85417 6.27083 3.85417 5.8125V2.52083Z" fill="#D72333"/>
</svg>
