<svg width="14" height="19" viewBox="0 0 14 19" fill="none" xmlns="http://www.w3.org/2000/svg">
<path d="M12.4117 0.854115V1.06245L12.495 1.39578C12.5783 1.68745 12.5367 1.95307 12.37 2.18745C12.2033 2.42703 11.9742 2.55724 11.6825 2.58328C11.5835 2.58328 11.4846 2.58328 11.3908 2.58328C11.2919 2.58328 11.1929 2.57807 11.0992 2.56245C10.7346 2.53641 10.3908 2.51557 10.0575 2.49995C9.72416 2.47391 9.38041 2.47912 9.03666 2.52078C8.66166 2.53641 8.28666 2.56245 7.91166 2.60412C7.54707 2.63537 7.18249 2.6562 6.80749 2.66662C6.52624 2.68224 6.24499 2.68745 5.95332 2.68745C5.66166 2.67703 5.38041 2.73953 5.11999 2.87495C5.08874 3.29162 5.09916 3.68745 5.14082 4.06245C5.19291 4.43745 5.1877 4.82807 5.11999 5.22912C5.0627 5.66141 5.04707 6.08328 5.07832 6.49995C5.11999 6.91662 5.17207 7.33328 5.24499 7.74995L5.76582 8.02078L5.84916 8.24995C6.30749 8.09891 6.78666 8.02078 7.28666 8.02078C7.38041 8.2187 7.52103 8.32287 7.70332 8.33328C7.89603 8.33328 8.08353 8.30203 8.26582 8.22912C8.40124 8.16141 8.54708 8.16141 8.70332 8.22912C8.86999 8.28641 8.98457 8.39057 9.05749 8.54162C9.08353 8.61453 9.10957 8.68745 9.14082 8.77078C9.16687 8.85412 9.1877 8.93745 9.20332 9.02078C9.22937 9.14578 9.23457 9.2812 9.22416 9.41662C9.20853 9.55724 9.21374 9.69787 9.24499 9.83328C9.24499 10.0989 9.1252 10.2916 8.89082 10.4166C8.60957 10.5416 8.33353 10.5989 8.05749 10.5833C7.79187 10.5729 7.5002 10.5416 7.18249 10.4999C6.76582 10.4479 6.40124 10.4687 6.09916 10.5624C5.80749 10.6458 5.5002 10.8281 5.18249 11.1041C5.16687 11.2864 5.13041 11.4947 5.07832 11.7291C5.03666 11.9531 5.08353 12.1406 5.22416 12.2916L4.97416 13.1041L5.36999 13.3958C5.35437 13.7447 5.34916 14.0624 5.34916 14.3541C5.35957 14.6458 5.25541 14.9374 5.03666 15.2291C5.13041 15.427 5.20332 15.6145 5.24499 15.7916C5.29707 15.9583 5.33353 16.1458 5.34916 16.3541C5.54187 16.3125 5.71374 16.2812 5.86999 16.25C6.02103 16.2239 6.17207 16.1614 6.32832 16.0625C6.64603 16.1354 6.96374 16.177 7.28666 16.1875C7.60437 16.1875 7.93249 16.2083 8.26582 16.25C8.60957 16.2656 8.89603 16.2708 9.11999 16.2708C9.33874 16.2604 9.61999 16.1614 9.95332 15.9791C10.7554 16.4531 11.5679 16.5156 12.3908 16.1666C12.5992 16.0833 12.8075 16.1197 13.0158 16.2708L13.1825 16.6458C13.3335 17.3697 13.1929 17.9895 12.7658 18.5C12.5992 18.7187 12.3908 18.7916 12.1408 18.7083C12.0262 18.6666 11.9169 18.6302 11.8075 18.6041C11.6929 18.5625 11.5679 18.5156 11.4325 18.4583L11.3283 18.6458C10.8804 18.5937 10.4637 18.5729 10.0783 18.5833C9.6877 18.5989 9.26582 18.5781 8.80749 18.5208L8.74499 18.7916C8.29708 18.7187 7.88041 18.6666 7.49499 18.625C7.10437 18.5729 6.68249 18.5937 6.22416 18.6875C6.02624 18.6979 5.83874 18.6875 5.66166 18.6458C5.49499 18.6197 5.3127 18.6041 5.11999 18.6041C4.88041 18.6197 4.70853 18.625 4.59916 18.625C4.5002 18.6145 4.34916 18.5729 4.14082 18.5L3.68249 18.7916C3.33353 18.7187 2.98457 18.6562 2.64082 18.6041C2.29187 18.552 1.94291 18.5312 1.59916 18.5416C1.47416 18.5416 1.35957 18.5416 1.26582 18.5416C1.16687 18.5312 1.06791 18.5156 0.974157 18.5C0.750199 18.4479 0.578324 18.3072 0.453324 18.0833C0.338741 17.8645 0.349157 17.6406 0.474157 17.4166C0.40124 17.1822 0.338741 16.9583 0.286657 16.75C0.244991 16.5416 0.203324 16.3229 0.161657 16.0833C0.146032 15.8333 0.15124 15.5781 0.182491 15.3124C0.208532 15.052 0.203324 14.7916 0.161657 14.5416L0.224157 14.4999C0.265824 13.9166 0.265824 13.3333 0.224157 12.7499C0.182491 12.1562 0.192907 11.5572 0.265824 10.9583C0.307491 10.6562 0.328324 10.3541 0.328324 10.0624C0.328324 9.76036 0.312699 9.45307 0.286657 9.14578C0.271032 8.88536 0.234573 8.61974 0.182491 8.35412C0.140824 8.0937 0.104365 7.83328 0.0783238 7.58328C0.0783238 7.37495 0.119991 7.17703 0.203324 6.97912C0.286657 6.78641 0.333532 6.5937 0.349157 6.39578C0.390824 6.17703 0.380408 5.9687 0.328324 5.77078C0.286657 5.56245 0.250199 5.34891 0.224157 5.12495C0.182491 4.93224 0.125199 4.70307 0.0574905 4.43745C0.000198508 4.17703 -0.0154268 3.92703 0.0158238 3.68745C0.0418652 3.43745 0.146032 3.24474 0.328324 3.10412C0.271032 2.81245 0.234573 2.49995 0.224157 2.16662C0.224157 1.83328 0.255408 1.51036 0.328324 1.18745C0.380408 0.885365 0.521032 0.640574 0.744991 0.458282C0.979365 0.281199 1.23457 0.187449 1.51582 0.187449C1.76582 0.177031 2.0002 0.166615 2.22416 0.166615C2.45853 0.166615 2.6877 0.182241 2.91166 0.208282L3.01582 0.104115C3.41687 0.229115 3.80749 0.249949 4.18249 0.166615C4.55749 0.0832821 4.95332 0.0572408 5.36999 0.0832821C5.5627 0.0989075 5.75541 0.135365 5.95332 0.187449C6.16166 0.244741 6.3752 0.270782 6.59916 0.270782C6.79187 0.270782 6.98457 0.244741 7.18249 0.187449C7.39082 0.119741 7.58874 0.0728661 7.78666 0.0416155C8.24499 -0.0260925 8.64603 -0.0104672 8.99499 0.0832821C9.35437 0.182241 9.74499 0.265574 10.1617 0.333282C10.396 0.364533 10.6252 0.348907 10.8492 0.291615C11.0835 0.223907 11.3127 0.166615 11.5367 0.124949C11.771 0.0989075 11.9742 0.156199 12.1408 0.291615C12.3179 0.432241 12.4117 0.619741 12.4117 0.854115Z" fill="#D72333"/>
</svg>
