<svg width="5" height="11" viewBox="0 0 5 11" fill="none" xmlns="http://www.w3.org/2000/svg">
<path d="M2.45833 10.5208C1.71875 10.5208 1.125 10.2865 0.666667 9.8125C0.218751 9.32813 0 8.6875 0 7.89583V2.60417C0 1.82813 0.218751 1.20313 0.666667 0.729167C1.125 0.244792 1.71875 0 2.45833 0C3.20833 0 3.8125 0.244792 4.27083 0.729167C4.72917 1.20313 4.95833 1.82813 4.95833 2.60417V7.89583C4.95833 8.6875 4.72917 9.32813 4.27083 9.8125C3.8125 10.2865 3.20833 10.5208 2.45833 10.5208ZM2.45833 9.60417C2.90104 9.60417 3.25521 9.45833 3.52083 9.16667C3.78125 8.86458 3.91667 8.45833 3.91667 7.95833V2.54167C3.91667 2.05729 3.78125 1.66146 3.52083 1.35417C3.25521 1.05208 2.90104 0.895833 2.45833 0.895833C2.02604 0.895833 1.67708 1.05208 1.41667 1.35417C1.15104 1.66146 1.02083 2.05729 1.02083 2.54167V7.95833C1.02083 8.45833 1.15104 8.86458 1.41667 9.16667C1.67708 9.45833 2.02604 9.60417 2.45833 9.60417Z" fill="#D72333"/>
</svg>
