<svg width="4" height="7" viewBox="0 0 4 7" fill="none" xmlns="http://www.w3.org/2000/svg">
<path d="M2.54167 0.104167C2.54167 0.0364587 2.56771 0 2.625 0H3.08333C3.13542 0 3.16667 0.0364587 3.16667 0.104167V6.25C3.16667 6.30729 3.13542 6.33333 3.08333 6.33333H2.54167C2.5 6.33333 2.46354 6.3125 2.4375 6.27083L0.6875 1.58333C0.671875 1.57292 0.656249 1.5625 0.645833 1.5625C0.645833 1.5625 0.645833 1.57813 0.645833 1.60417V6.25C0.645833 6.30729 0.614583 6.33333 0.5625 6.33333H0.104167C0.0312493 6.33333 0 6.30729 0 6.25V0.104167C0 0.0364587 0.0312493 0 0.104167 0H0.625C0.666667 0 0.697916 0.0312507 0.729167 0.0833333L2.5 4.75C2.5 4.78125 2.50521 4.79167 2.52083 4.79167C2.53125 4.78125 2.54167 4.76563 2.54167 4.75V0.104167Z" fill="#D72333"/>
</svg>
