<svg width="3" height="12" viewBox="0 0 3 12" fill="none" xmlns="http://www.w3.org/2000/svg">
<path d="M1.75 0.0416667C1.81771 0.0156253 1.88542 0 1.95833 0H2.8125C2.92187 0 2.97917 0.0520827 2.97917 0.145833V11C2.97917 11.1146 2.92187 11.1667 2.8125 11.1667H2C1.90104 11.1667 1.85417 11.1146 1.85417 11V1.33333C1.85417 1.32292 1.83854 1.30729 1.8125 1.29167C1.79687 1.28125 1.78125 1.28125 1.77083 1.29167L0.270833 1.79167H0.208333C0.135416 1.79167 0.0885413 1.74479 0.0625 1.64583L0 1.0625V1.04167C0 0.989584 0.0312507 0.932292 0.104167 0.875L1.75 0.0416667Z" fill="#D72333"/>
</svg>
