<svg width="6" height="13" viewBox="0 0 6 13" fill="none" xmlns="http://www.w3.org/2000/svg">
<path d="M4.1875 0.3125C4.1875 0.203125 4.23958 0.145833 4.35417 0.145833H5.25C5.35938 0.145833 5.41667 0.203125 5.41667 0.3125V8.77083C5.41667 10.0052 5.125 10.9427 4.54167 11.5833C3.96875 12.2188 3.02083 12.5104 1.6875 12.4583C1.5625 12.4427 1.5 12.3802 1.5 12.2708V11.5208C1.5 11.4062 1.5625 11.3542 1.6875 11.3542C2.60417 11.3802 3.25 11.1667 3.625 10.7083C4 10.2604 4.1875 9.58333 4.1875 8.66667V8.14583C4.1875 8.11979 4.17188 8.09896 4.14583 8.08333C4.13021 8.07292 4.11458 8.07813 4.10417 8.10417C3.89583 8.39583 3.63542 8.61979 3.33333 8.77083C3.02604 8.92708 2.69792 9 2.35417 9C1.63021 9 1.05208 8.76042 0.625 8.27083C0.208333 7.77083 0 7.125 0 6.33333V2.66667C0 1.86458 0.208333 1.21875 0.625 0.729167C1.05208 0.244792 1.63021 0 2.35417 0C2.69792 0 3.02604 0.0781253 3.33333 0.229167C3.63542 0.369792 3.89583 0.583333 4.10417 0.875C4.11458 0.916667 4.13021 0.9375 4.14583 0.9375C4.17188 0.927084 4.1875 0.895833 4.1875 0.854167V0.3125ZM2.72917 7.91667C3.14583 7.91667 3.48958 7.76563 3.77083 7.45833C4.04688 7.15625 4.1875 6.76042 4.1875 6.27083V2.75C4.1875 2.25 4.04688 1.84896 3.77083 1.54167C3.48958 1.23958 3.14583 1.08333 2.72917 1.08333C2.28125 1.08333 1.92187 1.23958 1.64583 1.54167C1.36458 1.84896 1.22917 2.25 1.22917 2.75V6.27083C1.22917 6.76042 1.36458 7.15625 1.64583 7.45833C1.92187 7.76563 2.28125 7.91667 2.72917 7.91667Z" fill="#D72333"/>
</svg>
