<svg width="5" height="9" viewBox="0 0 5 9" fill="none" xmlns="http://www.w3.org/2000/svg">
<path d="M2.8125 0C3.44792 0 3.94271 0.223959 4.29167 0.666667C4.65104 1.09896 4.83333 1.70313 4.83333 2.47917V7.875C4.83333 7.98958 4.77604 8.04167 4.66667 8.04167H3.875C3.76042 8.04167 3.70833 7.98958 3.70833 7.875V2.58333C3.70833 2.07292 3.59375 1.67708 3.375 1.39583C3.15104 1.10417 2.83854 0.958333 2.4375 0.958333C2.02083 0.958333 1.69271 1.11458 1.45833 1.41667C1.21875 1.72396 1.10417 2.14063 1.10417 2.66667V7.875C1.10417 7.98958 1.05208 8.04167 0.958333 8.04167H0.145833C0.0468747 8.04167 0 7.98958 0 7.875V0.270833C0 0.161459 0.0468747 0.104167 0.145833 0.104167H0.958333C1.05208 0.104167 1.10417 0.161459 1.10417 0.270833V0.770833C1.10417 0.786459 1.10937 0.802083 1.125 0.8125C1.15104 0.828125 1.17187 0.8125 1.1875 0.770833C1.38021 0.520833 1.61458 0.333333 1.89583 0.208333C2.1875 0.0729173 2.48958 0 2.8125 0Z" fill="#D72333"/>
</svg>
