<svg width="6" height="11" viewBox="0 0 6 11" fill="none" xmlns="http://www.w3.org/2000/svg">
<path d="M0.145833 10.9792C0.0468747 10.9792 0 10.9271 0 10.8125V10.1042C0 10.0521 0.0104173 9.98958 0.0416667 9.91667L3.85417 1.04167C3.86458 1.03125 3.86458 1.01563 3.85417 1C3.83854 0.989583 3.82292 0.979167 3.8125 0.979167H0.145833C0.0468747 0.979167 0 0.927084 0 0.8125V0.145833C0 0.052084 0.0468747 0 0.145833 0H4.91667C5.01042 0 5.0625 0.052084 5.0625 0.145833V0.875C5.0625 0.916667 5.04688 0.979167 5.02083 1.0625L1.22917 9.9375C1.21354 9.95313 1.20833 9.96875 1.20833 9.97917C1.21875 9.99479 1.23958 10 1.27083 10H4.91667C5.01042 10 5.0625 10.0573 5.0625 10.1667V10.8125C5.0625 10.9271 5.01042 10.9792 4.91667 10.9792H0.145833Z" fill="#D72333"/>
</svg>
