<svg width="9" height="11" viewBox="0 0 9 11" fill="none" xmlns="http://www.w3.org/2000/svg">
<path d="M2.25 10.9792C2.15104 10.9792 2.08854 10.9323 2.0625 10.8333L0 0.166667V0.145833C0 0.052084 0.0468747 0 0.145833 0H0.979167C1.07292 0 1.13021 0.052084 1.14583 0.145833L2.625 8.39583C2.625 8.41146 2.63021 8.41667 2.64583 8.41667C2.65625 8.41667 2.67187 8.41146 2.6875 8.39583L3.95833 0.145833C3.96875 0.052084 4.02083 0 4.10417 0H4.83333C4.92708 0 4.97917 0.052084 4.97917 0.145833L6.3125 8.39583C6.32292 8.41146 6.33854 8.41667 6.35417 8.41667C6.36458 8.41667 6.375 8.41146 6.375 8.39583L7.72917 0.145833C7.75521 0.052084 7.8125 0 7.89583 0H8.72917C8.77083 0 8.80208 0.0156253 8.83333 0.0416667C8.85938 0.072916 8.86458 0.114583 8.85417 0.166667L6.91667 10.8333C6.90104 10.9323 6.84375 10.9792 6.75 10.9792H5.97917C5.89583 10.9792 5.83854 10.9323 5.8125 10.8333L4.5 2.5625C4.48438 2.53646 4.46875 2.52083 4.45833 2.52083C4.44271 2.52083 4.4375 2.53646 4.4375 2.5625L3.14583 10.8333C3.13021 10.9323 3.08333 10.9792 3 10.9792H2.25Z" fill="#D72333"/>
</svg>
