<svg width="5" height="8" viewBox="0 0 5 8" fill="none" xmlns="http://www.w3.org/2000/svg">
<path d="M2.33333 7.89583C1.625 7.89583 1.05208 7.71875 0.625 7.35417C0.208333 6.99479 0 6.51042 0 5.89583V5.79167C0 5.69792 0.0468747 5.64583 0.145833 5.64583H0.895833C0.989584 5.64583 1.04167 5.69792 1.04167 5.79167V5.89583C1.04167 6.21875 1.15625 6.48958 1.39583 6.70833C1.64583 6.93229 1.95833 7.04167 2.33333 7.04167C2.70833 7.04167 3.00521 6.93229 3.22917 6.70833C3.44792 6.48958 3.5625 6.20313 3.5625 5.85417C3.5625 5.59375 3.48958 5.36979 3.35417 5.1875C3.21354 5.01042 3.04687 4.86979 2.85417 4.77083C2.65625 4.67708 2.375 4.54167 2 4.375C1.60937 4.20833 1.28125 4.05208 1.02083 3.89583C0.755208 3.72917 0.526041 3.51042 0.333333 3.22917C0.151041 2.9375 0.0625 2.5625 0.0625 2.10417C0.0625 1.45313 0.260416 0.9375 0.666667 0.5625C1.06771 0.1875 1.60937 0 2.29167 0C2.98437 0 3.53125 0.197916 3.9375 0.583333C4.35417 0.973959 4.5625 1.48958 4.5625 2.125V2.16667C4.5625 2.26563 4.50521 2.3125 4.39583 2.3125H3.70833C3.59375 2.3125 3.54167 2.26563 3.54167 2.16667V2.08333C3.54167 1.73958 3.42187 1.45313 3.1875 1.22917C2.96354 1.01042 2.67187 0.895833 2.3125 0.895833C1.94792 0.895833 1.65625 1.01563 1.4375 1.25C1.21354 1.47396 1.10417 1.75 1.10417 2.08333C1.10417 2.32292 1.16667 2.53125 1.29167 2.70833C1.42708 2.875 1.59375 3.01563 1.79167 3.125C1.98437 3.22396 2.25521 3.34896 2.60417 3.5C3.02083 3.68229 3.35937 3.85417 3.625 4.02083C3.90104 4.1875 4.13542 4.41667 4.33333 4.70833C4.54167 5 4.64583 5.36979 4.64583 5.8125C4.64583 6.4375 4.4375 6.94792 4.02083 7.33333C3.60417 7.70833 3.04167 7.89583 2.33333 7.89583Z" fill="#D72333"/>
</svg>
