<svg width="11" height="13" viewBox="0 0 11 13" fill="none" xmlns="http://www.w3.org/2000/svg">
<path d="M6.52083 4.79167C6.65625 4.94792 6.77604 5.14063 6.875 5.375C6.96875 5.61458 7.02083 5.89583 7.02083 6.22917C7.02083 6.26042 7.02083 6.30208 7.02083 6.35417C7.02083 6.39583 7.01042 6.4375 7 6.47917C7.52604 6.27083 7.98438 5.95833 8.375 5.54167C8.76042 5.125 9.07292 4.59375 9.3125 3.9375C9.40625 3.6875 9.54167 3.51042 9.70833 3.39583C9.875 3.27083 10.0469 3.20833 10.2292 3.20833C10.4375 3.20833 10.6094 3.27083 10.75 3.39583C10.901 3.52083 10.9792 3.69792 10.9792 3.91667C10.9792 4.03125 10.9583 4.13542 10.9167 4.22917C10.6927 4.92708 10.4271 5.51042 10.125 5.97917C9.81771 6.4375 9.48438 6.82813 9.125 7.14583C8.76042 7.45313 8.36458 7.70313 7.9375 7.89583C7.52083 8.08854 7.07292 8.25521 6.60417 8.39583C6.50521 8.88021 6.31771 9.36458 6.04167 9.85417C5.77604 10.3385 5.44792 10.7812 5.0625 11.1875C4.6875 11.6042 4.27604 11.9271 3.83333 12.1667C3.38542 12.4167 2.9375 12.5417 2.47917 12.5417C2.05208 12.5417 1.64583 12.4479 1.27083 12.2708C0.885416 12.1042 0.578125 11.8542 0.354167 11.5208C0.119792 11.1979 0 10.8333 0 10.4167C0 10.2083 0.0312507 10 0.0833333 9.79167C0.208333 9.40104 0.411459 9.08333 0.6875 8.83333C0.968749 8.59375 1.30208 8.40104 1.6875 8.25C2.07813 8.09375 2.50521 7.95833 2.97917 7.83333C3.23958 7.77604 3.54167 7.71875 3.875 7.64583C4.21875 7.5625 4.5 7.47917 4.70833 7.39583C4.77604 7.20313 4.8125 6.97396 4.8125 6.70833C4.8125 6.54167 4.79167 6.375 4.75 6.20833C4.71875 6.03125 4.65625 5.875 4.5625 5.75C4.33854 5.84896 4.10938 5.89583 3.875 5.89583C3.63542 5.89583 3.40104 5.85417 3.16667 5.77083C2.94271 5.67708 2.75521 5.53646 2.60417 5.35417C2.46354 5.16146 2.39583 4.92708 2.39583 4.64583C2.39583 4.47917 2.42708 4.29167 2.5 4.08333C2.58333 3.875 2.71354 3.68229 2.89583 3.5C3.08854 3.32292 3.35417 3.20313 3.6875 3.14583C3.73958 3.14583 3.79167 3.14583 3.83333 3.14583C3.88542 3.13542 3.94271 3.125 4 3.125C4.21875 3.125 4.44271 3.16146 4.66667 3.22917C4.88542 3.30208 5.08333 3.41146 5.25 3.5625C5.35938 3.47917 5.47917 3.36458 5.60417 3.20833C5.72917 3.05729 5.83333 2.89583 5.91667 2.72917C6 2.5625 6.04167 2.41146 6.04167 2.27083C6.04167 2.14583 5.98958 2.04167 5.89583 1.95833C5.8125 1.875 5.65625 1.83333 5.4375 1.83333H3.77083C3.50521 1.83333 3.30208 1.73958 3.16667 1.54167C3.02604 1.34896 2.95833 1.14063 2.95833 0.916667C2.95833 0.697916 3.02604 0.489583 3.16667 0.291667C3.30208 0.0989587 3.52083 0 3.8125 0H5.5625C6.04688 0 6.47917 0.0989587 6.85417 0.291667C7.22917 0.489583 7.52083 0.744792 7.72917 1.0625C7.94792 1.38542 8.0625 1.73958 8.0625 2.125C8.0625 2.69792 7.91667 3.19792 7.625 3.625C7.33333 4.04167 6.96354 4.43229 6.52083 4.79167ZM4.20833 9.16667C3.91667 9.23438 3.60937 9.31771 3.29167 9.41667C2.98437 9.51042 2.71354 9.625 2.47917 9.75C2.26042 9.875 2.11979 10.0208 2.0625 10.1875C2.01042 10.2812 1.97917 10.375 1.97917 10.4583C1.97917 10.5677 2.02083 10.6667 2.10417 10.75C2.17708 10.8333 2.28646 10.875 2.4375 10.875C2.57292 10.875 2.73958 10.8229 2.9375 10.7292C3.14583 10.6302 3.35937 10.4479 3.58333 10.1875C3.81771 9.9375 4.02604 9.59375 4.20833 9.16667Z" fill="#D72333"/>
</svg>
