<svg width="6" height="12" viewBox="0 0 6 12" fill="none" xmlns="http://www.w3.org/2000/svg">
<path d="M4.91667 6.22917C5.02604 6.63542 5.08333 7.14583 5.08333 7.77083C5.08333 8.24479 5.04688 8.68229 4.97917 9.08333C4.88021 9.80729 4.61458 10.3542 4.1875 10.7292C3.77083 11.1042 3.21354 11.2917 2.52083 11.2917C1.83854 11.2917 1.28125 11.1146 0.854167 10.75C0.4375 10.375 0.171875 9.8125 0.0625 9.0625L0 8.58333V8.54167C0 8.45833 0.0468747 8.41667 0.145833 8.41667H0.958333C1.06771 8.41667 1.13021 8.47396 1.14583 8.58333L1.1875 8.95833C1.35417 9.86458 1.79687 10.3125 2.52083 10.3125C2.86458 10.3125 3.15104 10.2031 3.375 9.97917C3.59375 9.76042 3.75 9.4375 3.83333 9.02083C3.91667 8.6875 3.95833 8.26563 3.95833 7.75C3.95833 7.22396 3.90625 6.76563 3.8125 6.375C3.61458 5.64063 3.1875 5.27083 2.52083 5.27083C1.79687 5.27083 1.34375 5.63542 1.16667 6.35417C1.125 6.45313 1.0625 6.5 0.979167 6.5H0.145833C0.0468747 6.5 0 6.45313 0 6.35417V0.145833C0 0.0520827 0.0468747 0 0.145833 0H4.66667C4.77604 0 4.83333 0.0520827 4.83333 0.145833V0.833333C4.83333 0.932292 4.77604 0.979167 4.66667 0.979167H1.1875C1.14583 0.979167 1.125 1 1.125 1.04167L1.10417 5C1.10417 5.03125 1.10937 5.05208 1.125 5.0625C1.15104 5.0625 1.17187 5.05729 1.1875 5.04167C1.35417 4.78125 1.57292 4.58333 1.85417 4.45833C2.14583 4.32292 2.46354 4.25 2.8125 4.25C3.38021 4.25 3.84375 4.42708 4.20833 4.77083C4.56771 5.10417 4.80208 5.59375 4.91667 6.22917Z" fill="#D72333"/>
</svg>
