<svg width="28" height="8" viewBox="0 0 28 8" fill="none" xmlns="http://www.w3.org/2000/svg">
<path d="M0 4.19638C0 4.19638 1.47396 4.8943 2.81771 6.41513C4.70313 7.19117 6.07292 7.73805 7.59896 7.60784C8.96875 7.01409 11.1667 6.05576 12.5625 4.04013C14.7083 2.97763 16.8542 1.92034 19.0781 0.935963C21.4792 1.06617 23.1094 1.17034 24.4531 2.17555C25.7708 3.05575 27.0156 4.52971 27.375 4.47763C27.5312 4.24326 27.4792 3.75367 27.4271 3.42034C27.1667 3.26409 27.0938 3.5193 27.0677 3.5193C27.0677 3.5193 27.349 3.31617 27.4271 3.42034C27.5312 3.5193 25.4375 0.935963 23.526 0.212005C21.6615 -0.0223701 19.2604 -0.30362 17.0885 0.831796C14.9167 1.73805 12.4844 2.77451 10.8802 4.86825C8.55729 6.15992 8.03646 6.44117 7.41667 6.44117C6.82292 6.49325 4.16146 6.8318 2.34896 4.50367C0.229166 3.31617 0.593751 3.47242 0.541667 3.44638C0.541667 3.44638 0.255208 3.18596 0.151042 3.15992C0.0520843 3.15992 0.052084 3.5193 0.104167 3.6495" fill="#D72333"/>
</svg>
