<svg width="28" height="8" viewBox="0 0 28 8" fill="none" xmlns="http://www.w3.org/2000/svg">
<path d="M0 4.19117C0 4.19117 1.47396 4.88909 2.81771 6.41513C4.70313 7.19117 6.07292 7.73284 7.59896 7.60263C8.96875 7.00888 11.1667 6.05576 12.5625 4.03492C14.7083 2.97763 16.8542 1.91513 19.0781 0.935963C21.4844 1.06617 23.1094 1.16513 24.4531 2.17555C25.776 3.05576 27.0156 4.52971 27.375 4.47763C27.5312 4.24325 27.4792 3.75367 27.4271 3.41513C27.1719 3.25888 27.0938 3.5193 27.0677 3.5193C27.0677 3.5193 27.349 3.31096 27.4271 3.41513C27.5312 3.5193 25.4375 0.935964 23.526 0.212005C21.6615 -0.0223697 19.2604 -0.303621 17.0885 0.831797C14.9167 1.73805 12.4844 2.7693 10.8854 4.86305C8.55729 6.15471 8.04167 6.44117 7.41667 6.44117C6.82292 6.49325 4.16146 6.82659 2.35417 4.50367C0.234375 3.31096 0.593749 3.46721 0.541667 3.44117C0.541667 3.44117 0.260417 3.18596 0.15625 3.15992C0.0520833 3.15992 0.0520827 3.5193 0.104167 3.64951" fill="#D72333"/>
</svg>
