<svg width="28" height="8" viewBox="0 0 28 8" fill="none" xmlns="http://www.w3.org/2000/svg">
<path d="M0 4.19284C0 4.19284 1.47396 4.89075 2.81771 6.4168C4.70833 7.19284 6.07812 7.7345 7.59896 7.6043C8.97396 7.01055 11.1667 6.05221 12.5625 4.03659C14.7083 2.9793 16.8542 1.9168 19.0781 0.93763C21.4844 1.06784 23.1146 1.1668 24.4583 2.17721C25.776 3.05742 27.0156 4.53138 27.3802 4.4793C27.5312 4.24492 27.4792 3.75534 27.4323 3.4168C27.1719 3.26055 27.0938 3.52096 27.0677 3.52096C27.0677 3.52096 27.3542 3.31263 27.4323 3.4168C27.5312 3.52096 25.4375 0.93763 23.526 0.213671C21.6667 -0.0207033 19.2604 -0.307162 17.0885 0.833463C14.9167 1.73971 12.4896 2.77096 10.8854 4.86471C8.55729 6.15638 8.04167 6.44284 7.42188 6.44284C6.82812 6.49492 4.16146 6.82826 2.35417 4.50534C0.234375 3.31263 0.593749 3.46888 0.541667 3.44284C0.541667 3.44284 0.260417 3.18763 0.15625 3.16159C0.0520833 3.16159 0.0520827 3.52096 0.104167 3.65117" fill="#D72333"/>
</svg>
