<svg width="28" height="8" viewBox="0 0 28 8" fill="none" xmlns="http://www.w3.org/2000/svg">
<path d="M0 4.19117C0 4.19117 1.47396 4.88909 2.81771 6.41513C4.70313 7.19117 6.07292 7.73284 7.59896 7.60784C8.96875 7.00888 11.1667 6.0818 12.5625 4.04013C14.7083 2.97763 16.8542 1.92034 19.0781 0.935964C21.4792 1.06617 23.1094 1.17034 24.4531 2.17555C25.7708 3.05576 27.0156 4.52971 27.375 4.47763C27.5312 4.24326 27.4792 3.75367 27.4271 3.42034C27.1667 3.26409 27.0885 3.5193 27.0417 3.5193C27.0417 3.5193 27.3229 3.31617 27.401 3.42034C27.5052 3.5193 25.4115 0.935963 23.4948 0.212005C21.6354 -0.02237 19.2292 -0.30362 17.0625 0.831797C14.8906 1.73805 12.4583 2.7693 10.8542 4.86826C8.53125 6.15992 8.01042 6.44117 7.39062 6.44117C6.79687 6.49326 4.13542 6.8318 2.32292 4.50367C0.203126 3.31617 0.567708 3.46721 0.515625 3.44638C0.515625 3.44638 0.229167 3.18596 0.125 3.15992C0.0260413 3.15992 0.026042 3.5193 0.0729167 3.6495" fill="#D72333"/>
</svg>
