<svg width="233" height="1" viewBox="0 0 233 1" fill="none" xmlns="http://www.w3.org/2000/svg">
<path d="M0 0H1V1H0M2 0H2.99479V1H2M3.99479 0H4.98958V1H3.99479M5.98958 0H6.98438V1H5.98958M7.98438 0H8.97917V1H7.98438M9.97917 0H10.974V1H9.97917M11.974 0H12.9688V1H11.974M13.9688 0H14.9635V1H13.9688M15.9635 0H16.9635V1H15.9635M17.9583 0H18.9583V1H17.9583M19.9531 0H20.9531V1H19.9531M21.9479 0H22.9479V1H21.9479M23.9427 0H24.9427V1H23.9427M25.9375 0H26.9375V1H25.9375M27.9323 0H28.9323V1H27.9323M29.9271 0H30.9271V1H29.9271M31.9219 0H32.9219V1H31.9219M33.9219 0H34.9167V1H33.9219M35.9167 0H36.9115V1H35.9167M37.9115 0H38.9062V1H37.9115M39.9062 0H40.901V1H39.9062M41.901 0H42.8958V1H41.901M43.8958 0H44.8906V1H43.8958M45.8906 0H46.8854V1H45.8906M47.8854 0H48.8802V1H47.8854M49.8802 0H50.8802V1H49.8802M51.875 0H52.875V1H51.875M53.8698 0H54.8698V1H53.8698M55.8646 0H56.8646V1H55.8646M57.8594 0H58.8594V1H57.8594M59.8542 0H60.8542V1H59.8542M61.849 0H62.849V1H61.849M63.8438 0H64.8438V1H63.8438M65.8385 0H66.8385V1H65.8385M67.8385 0H68.8333V1H67.8385M69.8333 0H70.8281V1H69.8333M71.8281 0H72.8229V1H71.8281M73.8229 0H74.8177V1H73.8229M75.8177 0H76.8125V1H75.8177M77.8125 0H78.8073V1H77.8125M79.8073 0H80.8021V1H79.8073M81.8021 0H82.8021V1H81.8021M83.7969 0H84.7969V1H83.7969M85.7917 0H86.7917V1H85.7917M87.7865 0H88.7865V1H87.7865M89.7812 0H90.7812V1H89.7812M91.776 0H92.776V1H91.776M93.7708 0H94.7708V1H93.7708M95.7656 0H96.7656V1H95.7656M97.7604 0H98.7604V1H97.7604M99.7604 0H100.755V1H99.7604M101.755 0H102.75V1H101.755M103.75 0H104.745V1H103.75M105.745 0H106.74V1H105.745M107.74 0H108.734V1H107.74M109.734 0H110.729V1H109.734M111.729 0H112.724V1H111.729M113.724 0H114.719V1H113.724M115.719 0H116.719V1H115.719M117.714 0H118.714V1H117.714M119.708 0H120.708V1H119.708M121.703 0H122.703V1H121.703M123.698 0H124.698V1H123.698M125.693 0H126.693V1H125.693M127.688 0H128.688V1H127.688M129.682 0H130.682V1H129.682M131.677 0H132.677V1H131.677M133.677 0H134.672V1H133.677M135.672 0H136.667V1H135.672M137.667 0H138.661V1H137.667M139.661 0H140.656V1H139.661M141.656 0H142.651V1H141.656M143.651 0H144.646V1H143.651M145.646 0H146.641V1H145.646M147.641 0H148.641V1H147.641M149.635 0H150.635V1H149.635M151.63 0H152.63V1H151.63M153.625 0H154.625V1H153.625M155.62 0H156.62V1H155.62M157.615 0H158.615V1H157.615M159.609 0H160.609V1H159.609M161.604 0H162.604V1H161.604M163.599 0H164.599V1H163.599M165.599 0H166.594V1H165.599M167.594 0H168.589V1H167.594M169.589 0H170.583V1H169.589M171.583 0H172.578V1H171.583M173.578 0H174.573V1H173.578M175.573 0H176.568V1H175.573M177.568 0H178.562V1H177.568M179.562 0H180.557V1H179.562M181.557 0H182.557V1H181.557M183.552 0H184.552V1H183.552M185.547 0H186.547V1H185.547M187.542 0H188.542V1H187.542M189.536 0H190.536V1H189.536M191.531 0H192.531V1H191.531M193.526 0H194.526V1H193.526M195.521 0H196.521V1H195.521M197.516 0H198.516V1H197.516M199.516 0H200.51V1H199.516M201.51 0H202.505V1H201.51M203.505 0H204.5V1H203.505M205.5 0H206.495V1H205.5M207.495 0H208.49V1H207.495M209.49 0H210.484V1H209.49M211.484 0H212.479V1H211.484M213.479 0H214.479V1H213.479M215.474 0H216.474V1H215.474M217.469 0H218.469V1H217.469M219.464 0H220.464V1H219.464M221.458 0H222.458V1H221.458M223.453 0H224.453V1H223.453M225.448 0H226.448V1H225.448M227.443 0H228.443V1H227.443M229.438 0H230.438V1H229.438M231.438 0H232.432V1H231.438" fill="#D72333"/>
</svg>
