<svg width="233" height="1" viewBox="0 0 233 1" fill="none" xmlns="http://www.w3.org/2000/svg">
<path d="M0 0H0.994792V0.994792H0M1.99479 0H2.98958V0.994792H1.99479M3.98958 0H4.98438V0.994792H3.98958M5.98438 0H6.97917V0.994792H5.98438M7.97917 0H8.97917V0.994792H7.97917M9.97396 0H10.974V0.994792H9.97396M11.9688 0H12.9688V0.994792H11.9688M13.9635 0H14.9635V0.994792H13.9635M15.9583 0H16.9583V0.994792H15.9583M17.9531 0H18.9531V0.994792H17.9531M19.9479 0H20.9479V0.994792H19.9479M21.9427 0H22.9427V0.994792H21.9427M23.9375 0H24.9375V0.994792H23.9375M25.9375 0H26.9323V0.994792H25.9375M27.9323 0H28.9271V0.994792H27.9323M29.9271 0H30.9219V0.994792H29.9271M31.9219 0H32.9167V0.994792H31.9219M33.9167 0H34.9115V0.994792H33.9167M35.9115 0H36.9062V0.994792H35.9115M37.9062 0H38.901V0.994792H37.9062M39.901 0H40.8958V0.994792H39.901M41.8958 0H42.8958V0.994792H41.8958M43.8906 0H44.8906V0.994792H43.8906M45.8854 0H46.8854V0.994792H45.8854M47.8802 0H48.8802V0.994792H47.8802M49.875 0H50.875V0.994792H49.875M51.8698 0H52.8698V0.994792H51.8698M53.8646 0H54.8646V0.994792H53.8646M55.8594 0H56.8594V0.994792H55.8594M57.8594 0H58.8542V0.994792H57.8594M59.8542 0H60.849V0.994792H59.8542M61.849 0H62.8438V0.994792H61.849M63.8438 0H64.8385V0.994792H63.8438M65.8385 0H66.8333V0.994792H65.8385M67.8333 0H68.8281V0.994792H67.8333M69.8281 0H70.8229V0.994792H69.8281M71.8229 0H72.8177V0.994792H71.8229M73.8177 0H74.8177V0.994792H73.8177M75.8125 0H76.8125V0.994792H75.8125M77.8073 0H78.8073V0.994792H77.8073M79.8021 0H80.8021V0.994792H79.8021M81.7969 0H82.7969V0.994792H81.7969M83.7917 0H84.7917V0.994792H83.7917M85.7865 0H86.7865V0.994792H85.7865M87.7812 0H88.7812V0.994792H87.7812M89.776 0H90.776V0.994792H89.776M91.776 0H92.7708V0.994792H91.776M93.7708 0H94.7656V0.994792H93.7708M95.7656 0H96.7604V0.994792H95.7656M97.7604 0H98.7552V0.994792H97.7604M99.7552 0H100.75V0.994792H99.7552M101.75 0H102.745V0.994792H101.75M103.745 0H104.74V0.994792H103.745M105.74 0H106.734V0.994792H105.74M107.734 0H108.734V0.994792H107.734M109.729 0H110.729V0.994792H109.729M111.724 0H112.724V0.994792H111.724M113.719 0H114.719V0.994792H113.719M115.714 0H116.714V0.994792H115.714M117.708 0H118.708V0.994792H117.708M119.703 0H120.703V0.994792H119.703M121.698 0H122.698V0.994792H121.698M123.698 0H124.693V0.994792H123.698M125.693 0H126.688V0.994792H125.693M127.688 0H128.682V0.994792H127.688M129.682 0H130.677V0.994792H129.682M131.677 0H132.672V0.994792H131.677M133.672 0H134.667V0.994792H133.672M135.667 0H136.661V0.994792H135.667M137.661 0H138.656V0.994792H137.661M139.656 0H140.656V0.994792H139.656M141.651 0H142.651V0.994792H141.651M143.646 0H144.646V0.994792H143.646M145.641 0H146.641V0.994792H145.641M147.635 0H148.635V0.994792H147.635M149.63 0H150.63V0.994792H149.63M151.625 0H152.625V0.994792H151.625M153.62 0H154.62V0.994792H153.62M155.615 0H156.615V0.994792H155.615M157.615 0H158.609V0.994792H157.615M159.609 0H160.604V0.994792H159.609M161.604 0H162.599V0.994792H161.604M163.599 0H164.594V0.994792H163.599M165.594 0H166.589V0.994792H165.594M167.589 0H168.583V0.994792H167.589M169.583 0H170.578V0.994792H169.583M171.578 0H172.573V0.994792H171.578M173.573 0H174.573V0.994792H173.573M175.568 0H176.568V0.994792H175.568M177.562 0H178.562V0.994792H177.562M179.557 0H180.557V0.994792H179.557M181.552 0H182.552V0.994792H181.552M183.547 0H184.547V0.994792H183.547M185.542 0H186.542V0.994792H185.542M187.536 0H188.536V0.994792H187.536M189.536 0H190.531V0.994792H189.536M191.531 0H192.526V0.994792H191.531M193.526 0H194.521V0.994792H193.526M195.521 0H196.516V0.994792H195.521M197.516 0H198.51V0.994792H197.516M199.51 0H200.505V0.994792H199.51M201.505 0H202.5V0.994792H201.505M203.5 0H204.495V0.994792H203.5M205.495 0H206.495V0.994792H205.495M207.49 0H208.49V0.994792H207.49M209.484 0H210.484V0.994792H209.484M211.479 0H212.479V0.994792H211.479M213.474 0H214.474V0.994792H213.474M215.469 0H216.469V0.994792H215.469M217.464 0H218.464V0.994792H217.464M219.458 0H220.458V0.994792H219.458M221.453 0H222.453V0.994792H221.453M223.453 0H224.448V0.994792H223.453M225.448 0H226.443V0.994792H225.448M227.443 0H228.438V0.994792H227.443M229.438 0H230.432V0.994792H229.438M231.432 0H232.427V0.994792H231.432" fill="#D72333"/>
</svg>
