<svg width="58" height="89" viewBox="0 0 58 89" fill="none" xmlns="http://www.w3.org/2000/svg">
<path d="M56.9004 78.7303C56.1712 78.1991 55.1087 78.1991 55.1087 78.1991C55.1087 78.1991 55.7077 76.7408 55.4421 75.1001C55.1764 73.4439 54.5775 72.8501 54.5775 72.8501C54.5775 72.8501 55.2233 71.7355 53.9733 71.2616C53.2233 70.9855 53.1087 71.6626 53.1087 71.6626C53.1087 71.6626 52.7025 71.272 52.0462 71.0689C51.3744 70.871 50.7858 70.871 50.7858 70.871C50.7858 70.871 51.6504 70.746 51.7806 68.6887C51.916 66.647 49.7806 64.798 49.7806 64.798C49.7806 64.798 50.8431 64.5324 50.5775 63.8085C50.3119 63.0845 49.3171 63.2772 49.3171 63.2772C49.3171 63.2772 49.1296 62.1418 47.9889 62.0845C46.89 62.0376 46.9212 62.8085 46.9212 62.8085C46.9212 62.8085 45.5931 61.9491 44.3327 62.6158C43.0723 63.2772 42.3327 64.3345 42.1348 64.923C41.9368 65.522 42.1348 64.4647 41.4629 63.798C40.7962 63.1314 40.4733 63.0741 40.4733 63.0741C40.4733 63.0741 41.2702 61.8762 40.0671 61.4178C38.8639 60.9595 38.2754 60.5585 37.4785 59.6366C36.6764 58.7095 36.4837 58.4439 36.8066 57.6522C37.14 56.8605 37.6712 55.8033 37.9368 54.0116C38.2025 52.2303 37.9368 51.173 38.2754 50.4387C38.6087 49.7147 38.7389 48.5897 38.4681 47.923C38.2025 47.2564 38.4681 45.6105 37.3379 45.1418C36.2025 44.6835 35.8118 44.6835 35.3379 44.8762C34.8743 45.0741 34.7337 44.4855 33.8118 44.2095C32.6764 43.8762 31.6816 44.4074 30.8848 45.1418C30.0879 45.8658 29.1504 46.6574 28.4941 47.5168C27.8223 48.3814 26.6868 48.3137 28.3535 46.6574C30.0202 45.0012 31.5462 44.0168 32.0775 43.5585C32.6087 43.0949 32.6087 42.3033 31.4056 42.6939C30.2025 43.0949 29.8796 43.3605 29.3483 43.7512C28.8171 44.1418 28.0879 44.2095 29.2806 43.2928C30.4785 42.371 30.8743 42.3033 30.8066 41.6366C30.7337 40.9699 30.541 40.7772 30.1348 40.7772C29.7285 40.7772 30.5983 39.8449 30.3327 39.3189C30.0671 38.7876 30.1921 38.5949 30.4004 38.121C30.5983 37.6626 30.666 37.3293 30.666 37.3293C30.666 37.3293 31.291 37.9595 31.5566 38.3189C31.8327 38.6835 32.7493 39.4074 32.3535 38.6522C31.9629 37.8918 31.7389 37.8605 31.7389 37.6522C31.7389 37.4439 32.0775 37.7095 32.3535 37.9855C32.6296 38.2616 32.9316 38.871 33.9368 39.0741C34.9421 39.2824 35.2546 39.1314 35.4316 38.9855C35.6139 38.8345 35.6712 38.4699 35.1296 38.5585C34.5723 38.6522 34.0879 38.2616 33.5671 37.9491C33.0462 37.6522 32.5618 37.4335 32.4368 37.2251C32.3171 37.0064 32.2858 36.7095 32.8952 37.1939C33.5098 37.673 35.5202 38.2824 36.8066 38.2512C38.0879 38.2147 38.5723 37.7876 38.7598 37.5272C38.9421 37.2512 38.7598 36.9178 38.2754 37.1001C37.7858 37.2824 36.2598 37.397 35.5931 37.1574C34.9212 36.9178 34.7337 36.7928 34.2493 36.4908C33.765 36.1939 33.8223 36.0116 34.7337 36.3085C35.6504 36.6053 36.2285 37.121 38.6087 36.6053C40.9889 36.0897 42.0879 35.5168 42.4837 35.147C42.8743 34.7824 42.7598 34.1158 41.7754 34.5064C40.8066 34.897 39.4316 35.3189 38.1139 35.298C36.7962 35.2616 35.9368 35.1158 35.4889 35.1158C35.0358 35.1158 34.4473 34.6522 36.041 34.8137C37.6243 34.9647 38.4577 34.9647 40.1608 34.4803C41.8691 34.0012 43.1191 33.423 43.765 32.8397C44.416 32.2668 44.6816 31.3814 43.7337 31.6574C42.7858 31.9335 41.5671 31.8033 41.166 32.1366C40.7702 32.4699 40.0671 32.621 39.3587 32.5272C38.6556 32.4387 38.265 32.4126 37.7754 32.6574C37.291 32.897 36.4941 33.173 36.1243 32.9855C35.7546 32.8033 35.6608 32.6574 36.7025 32.4491C37.7441 32.2408 38.6921 32.0585 39.7546 32.0793C40.8171 32.1053 41.1556 31.7824 41.5827 31.4491C42.0098 31.1158 42.3796 30.1418 42.6191 28.9699C42.8639 27.7824 43.015 25.7512 43.3848 24.1991C43.7546 22.6522 43.8483 22.0428 44.2754 21.6835C44.7025 21.3189 44.9785 21.0741 45.166 20.798C45.3483 20.522 45.7077 20.2616 46.0566 20.2251C46.39 20.1939 47.0254 19.746 47.2441 19.3762C47.4525 19.0064 47.4889 18.4908 47.6764 18.3189C47.8587 18.1366 47.5566 17.4699 47.1869 17.1366C46.8171 16.8033 46.7025 16.6522 46.4264 17.022C46.1504 17.3866 45.6035 16.5376 45.4212 17.1678C45.2337 17.8033 44.4733 16.897 44.4473 17.7199C44.416 18.5376 44.1139 19.147 43.4056 18.7199C42.7025 18.298 42.2754 17.9647 41.8796 17.8345C41.4889 17.7199 41.3587 17.3189 41.3014 16.9543C41.2441 16.5845 40.8171 15.6783 40.4837 16.1001C40.1452 16.5272 40.2025 17.2512 40.39 17.8605C40.5775 18.4699 40.7598 18.9178 40.8743 19.5585C40.9889 20.2043 41.0618 20.4074 40.7233 21.2616C40.39 22.1106 40.1139 23.4074 39.6868 24.2564C39.2546 25.1053 38.7702 25.8658 38.4577 26.5324C38.1608 27.1991 37.9733 27.5897 36.9004 27.6835C35.8327 27.772 35.0723 27.5897 34.6296 27.3501C34.2025 27.1053 33.4993 26.7981 32.9577 26.7408C32.4004 26.6835 32.2285 26.0376 31.0358 26.1887C29.8431 26.3345 29.5462 26.4647 29.0462 26.3033C28.5618 26.1522 27.9837 25.8762 27.4629 25.7512C26.9421 25.6366 26.64 25.5689 26.9785 25.121C27.3118 24.6574 27.4629 24.8762 27.7962 24.4543C28.1348 24.0272 28.1921 23.6626 28.5618 23.5116C28.9316 23.3606 29.4525 22.8085 29.416 22.121C29.3848 21.4231 29.1191 20.7303 28.9525 20.121C28.8066 19.5116 28.5254 18.9751 28.7702 18.6053C29.015 18.2408 29.1973 17.8814 29.015 17.6418C28.8275 17.4022 28.8639 17.272 28.8639 17.272C28.8639 17.272 29.1973 17.3866 29.5931 17.3085C29.9837 17.2147 29.6816 17.7355 30.2598 17.6053C30.8379 17.4908 31.3587 17.272 30.9681 16.8814C30.5723 16.4908 30.4785 16.4595 30.8535 16.2512C31.2233 16.0428 31.7389 15.6418 31.2441 15.2512C30.7598 14.8605 31.0931 14.6991 30.7233 14.4595C30.3535 14.2199 30.3535 13.9439 30.6868 13.8866C31.0254 13.8293 31.6973 13.6783 31.7285 13.0689C31.765 12.4595 31.6712 11.7928 31.3379 11.6678C30.9993 11.5533 30.2389 10.7251 30.7806 10.7251C31.3275 10.7251 32.0098 10.246 31.5098 9.83972C31.0254 9.44909 30.8379 9.44909 30.6191 9.69388C30.4108 9.93347 29.765 9.69388 29.916 9.32409C30.0671 8.95951 30.0671 8.53243 30.4004 8.56888C30.7337 8.60013 30.5827 8.04805 31.0723 8.08451C31.5566 8.12097 31.9837 7.53243 31.5931 7.23555C31.1973 6.93347 30.8848 7.1418 30.8275 6.80847C30.7702 6.47513 30.7702 6.11055 30.9785 5.92305C31.1868 5.74076 31.015 4.55847 30.1816 4.92305C29.3587 5.29284 29.1764 5.29284 28.6868 4.95951C28.2025 4.62618 28.0514 4.56888 28.4473 4.35013C28.8379 4.1418 29.6712 3.71992 29.0931 3.16784C28.515 2.61576 28.0514 2.79805 28.1816 2.55847C28.3066 2.31888 27.7546 1.46993 27.4733 1.98555C27.1973 2.50118 26.6764 2.83451 26.3743 2.40743C26.0775 1.98555 26.0775 1.37618 25.4629 1.44388C24.8483 1.50118 24.4577 1.41263 24.4577 1.11055C24.4577 0.813676 23.3014 0.501175 23.5671 1.16784C23.8431 1.83451 23.8118 2.13138 23.416 2.16784C23.0254 2.2043 22.6868 1.77722 22.8952 1.55847C23.1139 1.35013 22.2806 1.35013 22.4681 1.04284C22.6556 0.745966 22.5618 0.225135 22.2233 0.615759C21.89 1.00638 21.3691 1.67305 21.2181 1.33972C21.0671 1.00638 20.5723 0.100134 20.2493 0.397009C19.9108 0.699091 19.6348 0.975134 19.5775 0.584509C19.5202 0.193883 18.7546 -0.269658 18.6868 0.193884C18.6296 0.652217 18.9316 0.949091 18.5358 1.10013C18.1452 1.25118 18.5358 1.94909 17.8066 1.73034C17.0775 1.52722 16.5618 1.52722 16.3743 2.12097C16.1921 2.73034 16.2806 3.21472 15.8535 2.73034C15.4264 2.25118 15.0566 2.30847 15.1504 2.00638C15.2441 1.70951 14.7546 1.06368 14.3848 1.4543C14.015 1.84493 13.9004 2.25118 14.1087 2.39701C14.3171 2.54805 14.291 2.96992 13.7129 3.04284C13.1348 3.10013 12.6504 3.13138 12.7077 3.7668C12.765 4.39701 12.6504 4.52201 12.1868 4.52201C11.7285 4.52201 11.0566 4.91263 11.0306 4.5793C10.9993 4.24597 10.2337 4.00638 10.2337 4.5793C10.2337 5.15743 10.515 5.21472 10.291 5.48555C10.0723 5.76159 9.83268 6.33972 9.95768 6.67305C10.0827 7.00638 10.015 7.15222 10.015 7.15222C10.015 7.15222 10.6504 6.69388 11.0775 6.91263C11.5046 7.12097 12.1452 7.52201 12.3639 8.18868C12.5827 8.85534 12.64 9.00118 12.4889 9.18868C12.3379 9.37097 11.7285 9.3918 12.3639 9.74076C13.0098 10.0689 13.6816 10.1991 13.7962 10.8866C13.9108 11.5897 12.9993 12.1626 12.5723 11.9439C12.1452 11.7355 11.2546 10.7616 10.8587 11.0949C10.4681 11.4283 10.6191 11.7928 10.5827 12.1262C10.5462 12.4595 10.5462 12.4022 10.3952 12.7043C10.2441 13.0012 10.0618 13.8501 10.3952 13.8866C10.7337 13.9178 10.515 14.2199 10.7337 14.4595C10.9421 14.6991 11.1973 14.7928 10.9733 15.0324C10.765 15.2772 10.3379 15.7564 10.8848 15.9751C11.4368 16.1835 11.3431 16.4022 11.2546 16.6418C11.1608 16.8814 11.3431 17.3085 11.6816 17.272C12.015 17.2408 12.166 17.5168 11.9577 17.8501C11.7493 18.1835 11.0098 19.2147 11.9004 19.3658C12.791 19.5116 13.5775 19.6991 13.3327 20.0064C13.0931 20.3085 13.5202 21.246 14.0046 20.9491C14.4889 20.6522 14.8587 20.2824 15.2858 20.6522C15.7181 21.0168 15.4056 21.8345 15.9941 21.7408C16.5723 21.6522 16.6973 21.8918 16.5723 22.1314C16.4421 22.3762 17.0358 22.8345 17.2077 22.6522C17.39 22.4647 17.3587 23.371 17.8431 23.0741C18.3275 22.7772 18.64 22.5585 18.64 22.5585C18.64 22.5585 18.791 23.0168 19.1243 23.2824C19.4629 23.5585 19.6816 23.7408 19.6816 24.0741C19.6816 24.4074 19.7181 24.7772 20.1087 24.9803C20.5046 25.1887 20.7806 25.522 20.7806 25.522C20.7806 25.522 20.2025 25.673 19.89 25.5585C19.5879 25.4387 18.9785 25.1887 18.4889 24.8345C18.0046 24.4647 16.9316 23.6835 15.9577 23.4439C14.9889 23.1991 14.2493 22.3501 13.0931 21.9283C11.9368 21.5012 12.1191 21.2251 11.7858 20.8918C11.4473 20.5585 11.2285 20.7095 11.265 20.3762C11.3014 20.0428 10.8952 19.6522 10.6504 18.9178C10.4108 18.1939 10.1296 16.9178 9.97851 16.1262C9.83268 15.3345 10.0983 14.8137 9.97851 14.4595C9.85351 14.0897 9.73893 14.0897 9.42643 14.2512C9.12435 14.4022 9.23893 13.8605 8.7181 13.7928C8.20247 13.7355 8.10872 13.5845 7.56185 13.7355C7.02018 13.8866 6.43164 13.8866 7.19205 13.5845C7.95768 13.2876 8.3483 13.496 7.83268 12.9751C7.31185 12.4595 7.58789 12.371 7.25455 12.1626C6.91601 11.9543 7.31185 11.5324 7.77018 12.1939C8.23372 12.8605 8.44205 13.0116 8.83789 13.3241C9.22851 13.621 9.6556 13.897 9.7858 13.5428C9.90039 13.173 9.99414 12.8762 9.69205 12.6574C9.38997 12.4491 9.02018 11.8658 9.56705 12.2303C10.1191 12.6001 10.291 12.1939 10.2337 11.8033C10.1764 11.4178 9.90039 10.6574 10.4212 10.6574C10.9421 10.6574 11.1816 10.6939 11.5514 10.8085C11.9212 10.923 12.9525 11.9335 13.2077 11.4387C13.4629 10.9439 13.4473 10.6783 12.8118 10.3449C12.166 10.0116 11.3223 9.88659 11.6243 9.38138C11.9212 8.86576 12.1452 8.35013 11.5306 7.92305C10.916 7.49597 10.1556 7.19909 9.85351 7.88659C9.55143 8.58972 9.85351 8.98034 9.15039 8.79805C8.44205 8.61055 8.25976 9.13138 8.01497 9.31368C7.77018 9.49597 7.1608 9.8293 6.58268 10.2564C6.00455 10.6783 5.66601 11.3814 5.7858 12.4387C5.90039 13.496 5.87435 14.2876 5.90039 15.1939C5.93164 16.1001 6.02539 17.8345 6.29101 18.8033C6.57226 19.7668 6.75456 20.9595 6.81185 21.5585C6.86914 22.1678 6.8483 22.522 7.42643 23.0428C8.00456 23.5585 8.2233 24.1887 8.85872 24.647C9.50455 25.1053 9.99414 25.496 10.5723 26.1053C11.1504 26.7147 11.7598 27.1418 12.9525 27.8293C14.1452 28.5324 14.515 28.7928 14.6296 29.1053C14.7546 29.4022 15.2441 29.8085 13.9577 29.496C12.6764 29.1991 12.4681 28.6106 11.3691 28.5324C10.2702 28.4387 9.2858 28.772 6.94205 27.8658C4.5931 26.9595 3.27539 26.5897 2.45247 26.048C1.63476 25.496 2.06185 24.8345 1.26497 24.3866C0.462889 23.9231 -0.229821 23.4439 0.0722631 25.1783C0.374347 26.9022 1.13476 28.6939 2.24414 29.0012C3.3431 29.3033 4.29101 29.0949 4.98372 29.371C5.69205 29.647 7.0306 29.9439 8.12955 30.3137C9.22851 30.6783 11.6087 31.1626 9.6556 31.2199C7.70247 31.2772 7.27539 30.4022 5.9681 30.0949C4.65039 29.7928 3.88476 29.7616 3.30664 29.7251C2.72851 29.6939 2.27018 29.6939 1.63476 29.3918C0.994138 29.0949 0.233722 28.3605 0.744138 29.6314C1.26497 30.9074 1.56185 31.7564 2.99935 31.9439C4.43164 32.1262 6.81185 32.1835 7.57747 32.5168C8.33789 32.8501 9.22851 33.1262 9.80664 33.2408C10.3848 33.3658 10.3848 33.7564 9.4733 33.6991C8.55664 33.6418 8.37435 33.2772 6.75455 33.0585C5.13476 32.8501 4.0358 32.8501 3.12435 32.5949C2.21289 32.3553 1.22851 32.3241 2.08268 33.2303C2.93685 34.1366 3.49414 34.4699 4.67122 34.8397C5.86393 35.2043 8.06185 35.6522 9.19205 35.5637C10.3275 35.4699 11.5775 35.5637 10.4421 35.8345C9.31185 36.1105 8.54622 36.022 7.48372 36.0793C6.42122 36.1366 5.3431 35.6522 4.82226 35.4699C4.30143 35.2876 2.92643 35.1939 3.63476 35.8918C4.33789 36.5949 5.36914 36.8033 6.5358 37.1105C7.69206 37.4126 8.45247 37.8137 9.95768 37.4126C11.4473 37.022 12.5254 36.8918 11.4473 37.4126C10.3848 37.9283 9.5306 38.2043 8.76497 38.1105C8.00456 38.022 6.99935 37.5012 7.23893 38.147C7.48372 38.7772 8.0983 38.9022 8.73372 38.9022C9.36914 38.9022 10.4681 38.9022 11.7285 38.4439C12.9733 37.9855 13.0671 37.9022 13.2858 37.7199C13.5098 37.5376 13.9004 37.3293 13.5879 37.7772C13.2858 38.2355 12.4889 38.7199 11.9108 38.996C11.3327 39.272 10.1087 38.996 10.4785 39.423C10.8483 39.8449 12.0046 40.147 12.765 39.5376C13.5306 38.9283 13.7754 38.6522 13.9941 38.4439C14.2129 38.2355 14.3848 38.1678 14.2025 38.5689C14.015 38.9595 13.4733 39.423 13.7389 39.5116C14.015 39.6053 14.166 39.423 14.6296 38.8137C15.0931 38.2043 15.2441 37.6626 15.6712 37.4439C16.0983 37.2408 16.4421 37.2043 16.4421 37.2043C16.4421 37.2043 16.9785 38.7199 16.4421 39.3189C15.9108 39.9126 15.7754 41.8918 15.5775 42.7512C15.3796 43.6158 14.3171 45.1991 14.4421 46.6574C14.5723 48.1158 14.515 49.4387 14.1764 50.6887C13.8431 51.9439 13.7129 52.8033 14.041 54.2616C14.3743 55.7199 14.64 56.2512 14.4993 56.9751C14.3639 57.6991 15.4368 58.5585 14.8379 59.4908C14.2337 60.4074 13.1712 62.0637 13.1712 64.3137C13.1712 66.5637 13.5775 69.2095 13.9681 70.5272C14.3743 71.8501 13.9004 72.3085 13.9004 73.0428C13.9004 73.7772 13.3691 73.7095 12.9056 74.7668C12.4421 75.8241 11.9108 76.1574 11.9681 76.6158C12.041 77.0741 12.041 77.4074 12.041 77.4074C11.1712 77.6053 10.2441 77.7408 9.71289 78.7303C9.18164 79.7199 9.18164 80.1887 9.18164 80.1887C9.18164 80.1887 8.38476 78.7303 7.44726 79.2564C6.50976 79.7876 6.45247 80.9803 7.04622 81.5116C7.64518 82.0376 7.9681 82.0376 7.9681 82.0376C7.9681 82.0376 7.19206 82.6574 7.63476 83.4283C8.16601 84.3449 9.49414 83.6939 9.49414 83.6939C9.49414 83.6939 9.63476 84.0949 9.83268 84.4178C10.0254 84.7512 10.291 85.0116 10.291 85.0116C10.291 85.0116 9.57747 85.6001 10.4889 86.0012C11.5514 86.4856 11.5514 85.3345 11.5514 85.3345C11.5514 85.3345 12.5462 85.8658 13.416 85.7356C14.2806 85.6001 14.6764 85.0116 14.6764 85.0116C14.6764 85.0116 14.8691 85.3449 15.3431 85.6106C15.8066 85.8762 16.4785 86.3345 16.4785 86.3345C16.4785 86.3345 15.7025 87.496 16.8014 88.1366C17.8223 88.7356 18.7129 88.3814 18.9993 87.5168C19.1868 86.9751 19.1243 86.7251 19.1243 86.7251C19.1243 86.7251 20.1191 86.9178 20.9889 86.1262C21.8535 85.3345 22.2493 84.7355 22.2493 84.7355C22.2493 84.7355 23.6243 85.371 24.5723 85.1991C25.7962 84.9908 26.0618 84.5741 26.3275 83.9803C26.5983 83.3814 26.7702 83.0168 26.7702 83.0168C26.7702 83.0168 27.4056 84.1522 28.4368 83.5428C29.3223 83.0168 28.9681 82.3501 28.9681 82.3501C28.9681 82.3501 29.2337 82.8085 29.765 82.9439C30.2962 83.0741 30.7025 82.7512 30.7025 82.7512C30.7025 82.7512 30.2493 83.621 30.4577 84.2199C30.6556 84.8189 31.1764 85.4022 31.9733 85.4022C32.666 85.4022 33.1035 84.5428 33.1035 84.5428C33.1035 84.5428 33.64 85.2095 34.0983 84.8762C34.5618 84.5428 34.5046 84.1522 34.5046 84.1522C34.5046 84.1522 36.0983 84.9439 36.9681 84.7512C37.8327 84.5533 38.4368 84.2199 38.4368 84.2199C38.4368 84.2199 38.5046 84.9439 39.5671 84.9439C40.6348 84.9439 41.4316 83.5533 41.4316 83.5533C41.4316 83.5533 42.1035 84.4751 44.4941 84.4178C46.89 84.3449 47.7546 83.6939 47.7546 83.6939C47.7546 83.6939 48.1712 85.1991 49.6296 85.3553C51.1764 85.5428 51.5462 84.5533 51.7441 84.0845C51.9421 83.621 52.0098 83.1626 52.0098 83.1626C52.0098 83.1626 52.9473 83.7616 53.4785 83.0949C54.0098 82.4283 53.5462 81.6366 53.5462 81.6366C53.5462 81.6366 55.2962 82.9803 56.5566 81.798C57.8171 80.6001 57.5358 79.1887 56.8066 78.6626L56.9004 78.7303ZM39.7754 67.772L40.7389 67.5168C40.9108 67.4699 41.0254 67.5168 41.0723 67.7147L41.291 68.5168C41.3379 68.6887 41.2702 68.7928 41.0931 68.8397L40.1348 69.0897C39.9629 69.1366 39.8483 69.0897 39.8014 68.9074L39.5827 68.1053C39.5358 67.9178 39.6035 67.8189 39.7754 67.772ZM27.2806 23.1418C27.14 23.4178 27.1973 23.522 27.0566 23.9126C26.9212 24.2928 26.8483 24.4751 26.4681 24.6158C26.0879 24.7512 26.0202 24.7512 25.5879 24.923C25.1608 25.0949 24.9421 24.9699 24.64 24.923C24.2129 24.8553 24.7129 24.6835 24.9889 24.6158C25.265 24.5428 25.8691 24.4856 26.39 24.1991C26.9212 23.9231 25.7493 24.1991 25.2337 24.2928C24.6973 24.397 24.8014 24.2564 25.0931 24.0845C25.3691 23.9126 25.7285 23.8449 26.1087 23.7408C26.4941 23.6366 26.6764 23.397 26.9212 23.0064C27.1608 22.6262 27.416 22.8658 27.265 23.1418H27.2806ZM27.7389 19.548C27.7389 19.8605 27.6348 19.9751 27.3952 20.2824C27.1504 20.5949 26.9681 20.7303 26.4785 20.6262C26.1348 20.5585 26.0618 20.2824 26.5827 20.1001C27.1139 19.9283 27.1139 19.8605 27.3587 19.4699C27.6035 19.0897 27.7389 19.2251 27.7389 19.5376V19.548ZM24.6764 19.0324C25.2441 18.8605 25.9004 18.8605 26.5358 18.3658C27.1764 17.871 27.8327 17.2512 27.6921 17.9074C27.5566 18.5741 27.5202 18.9855 26.9525 18.9855C26.39 18.9855 26.0775 19.1574 25.5098 19.5116C24.9421 19.8605 24.5618 19.9387 24.6973 20.423C24.8379 20.9126 24.5931 21.397 24.39 20.9855C24.1816 20.5585 24.041 20.522 24.041 20.2512C24.041 19.8241 24.1087 19.2043 24.6764 19.0324ZM24.64 22.9699C25.1035 22.8345 24.9212 22.7303 25.2077 22.4439C25.3483 22.3033 25.416 22.4439 25.6243 22.3033C25.8327 22.1678 25.9733 22.1678 26.2858 22.4543C26.5983 22.7303 26.3639 22.9387 26.0046 22.9699C25.6608 23.0064 25.5462 23.3501 25.0931 23.5689C24.6296 23.7772 24.2493 23.5324 23.7181 23.3293C23.1868 23.121 24.166 23.121 24.6296 22.9803L24.64 22.9699ZM23.5202 24.5116C23.7285 24.3033 23.8691 24.1991 24.2962 24.0845C24.7233 23.9803 24.3275 24.397 24.1191 24.5116C23.916 24.6158 23.916 24.9699 23.7077 25.246C23.4993 25.522 23.3952 25.3137 23.3223 25.1053C23.2546 24.9022 23.291 24.7512 23.5306 24.5116H23.5202ZM19.9681 21.397C18.8483 21.3293 19.3014 20.798 20.0046 20.8345C20.7129 20.871 20.9212 20.6522 21.4056 20.5116C21.9108 20.3658 22.0514 20.397 22.5358 20.4908C22.9212 20.5585 22.7129 20.6262 22.6764 20.9855C22.64 21.3293 22.3639 21.1887 21.6921 21.3293C21.0254 21.4647 21.0931 21.4647 19.9681 21.397ZM20.7806 22.1001C20.4316 21.8553 20.64 21.7876 21.1608 21.8241C21.6921 21.8553 21.6608 21.8918 22.041 21.6835C22.4212 21.4803 22.64 21.4439 22.5358 21.6835C22.4108 21.9855 22.2962 22.2147 21.9004 22.246C21.5202 22.2824 21.1243 22.3501 20.7806 22.1105V22.1001ZM27.3379 67.2199C26.6764 68.4022 26.8848 69.2772 26.8848 69.2772C26.8848 69.2772 25.4264 68.7147 24.6191 69.7355C23.765 70.8241 24.7598 71.9178 24.7598 71.9178C24.7598 71.9178 24.0306 71.8501 23.0254 72.2512C22.0306 72.6522 21.2285 73.3762 21.2285 73.3762C21.2285 73.3762 21.2754 72.3085 20.4785 72.3762C19.6816 72.4439 19.4629 72.8501 19.7025 73.3762C19.89 73.8033 20.0723 73.8814 20.1452 73.9074C19.9941 73.8814 19.1973 73.7928 18.8743 74.7564C18.64 75.4439 19.1035 75.6262 19.3014 75.6991C19.4941 75.7668 19.7025 75.7668 19.7025 75.7668C19.7025 75.7668 19.7754 75.9595 19.7754 76.3658V77.2251C19.7754 77.2251 18.9056 76.5012 18.4421 77.1574C17.9837 77.8241 18.4421 78.3501 18.4421 78.3501C18.4421 78.3501 17.9108 78.1574 17.4525 78.2824C16.9889 78.4074 16.5254 78.6158 16.5254 78.6158C16.5254 78.6158 16.7233 78.1574 16.791 77.6939C16.8587 77.2355 16.8587 76.6366 16.9889 75.6418C17.1139 74.6522 17.3223 73.4595 17.6556 72.8033C17.9941 72.1366 18.2598 71.6053 18.2598 70.022C18.2598 68.4387 18.1921 66.9074 18.4577 65.2668C18.7233 63.6105 19.3223 61.5012 20.0514 60.9022C20.7806 60.3033 21.0462 59.3189 21.1139 58.6522C21.1868 57.9855 21.5202 57.2616 21.7858 56.3397C22.0514 55.4126 22.515 55.147 23.0462 54.4908C23.5775 53.8241 23.2441 53.0324 23.3118 51.8501C23.3796 50.6574 21.9108 50.2668 21.5775 49.8033C21.2441 49.3449 21.0462 48.8189 19.9837 48.3449C18.916 47.8866 19.3118 47.7512 20.3171 48.0116C21.3223 48.2772 21.9108 48.9439 22.4473 49.2668C22.9785 49.6001 23.4368 49.9335 24.3743 50.4595C25.3118 50.9908 25.0462 50.2668 24.9785 49.7928C24.9056 49.3345 25.3118 49.1262 25.9733 48.4022C26.64 47.6783 26.8379 47.6105 26.5723 48.2095C26.3066 48.8033 25.9004 49.5272 25.6348 50.1939C25.3691 50.8605 26.2389 51.6522 26.6296 51.9751C27.0358 52.3085 27.5671 51.9751 27.3014 51.4491C27.0358 50.9178 27.3691 50.5272 27.5671 50.9178C27.765 51.3189 27.8327 51.2512 28.166 50.7824C28.5046 50.3241 28.8952 49.5272 29.1035 48.9335C29.3014 48.3345 29.5671 47.2772 29.5671 47.2772C29.5671 47.2772 29.765 48.4751 29.765 49.0012C29.765 49.5272 29.3014 50.2512 28.7702 51.2512C28.2389 52.2408 29.1764 53.6314 29.9004 53.9647C30.6296 54.298 31.3691 53.8241 31.6348 53.0324C31.9056 52.2408 32.0983 52.173 32.041 52.9647C31.9733 53.7564 31.7754 54.022 31.7077 54.4803C31.6348 54.9387 32.1087 55.996 32.3796 56.397C32.6452 56.8033 32.3796 57.0637 32.2389 57.4543C32.0983 57.8553 32.2389 58.7772 32.3066 59.8345C32.3796 60.8918 32.9785 60.6262 32.5723 61.1522C32.5723 61.1522 32.1087 61.7512 31.9733 62.4751C31.8327 63.1991 32.8379 63.6678 32.8379 63.6678C32.8379 63.6678 32.1087 63.8085 31.3118 64.0012C30.515 64.1991 30.2493 64.5324 30.2493 64.5324C30.2493 64.5324 29.9837 63.6678 29.2546 63.6105C28.5254 63.5428 27.9941 64.0168 27.7858 64.4751C27.5879 64.9335 27.9264 65.7251 28.5827 65.9335C28.5827 65.9335 27.9004 66.3137 27.3848 67.2564L27.3379 67.2199ZM32.1921 80.7408L31.2806 80.9803C31.0931 81.0272 30.9889 80.9803 30.9421 80.798L28.8639 73.0689C28.8171 72.8918 28.8639 72.7928 29.0566 72.746L29.9733 72.5012C30.1556 72.4595 30.2285 72.4908 30.2858 72.6626L32.3796 80.4178C32.4212 80.5897 32.3796 80.6939 32.1921 80.7408ZM33.5098 79.0168C33.2337 79.0845 32.9681 79.0949 32.7337 79.0637L32.4108 77.8814C32.5254 77.9022 32.6452 77.8918 32.7702 77.8553C33.4421 77.673 33.5358 76.996 33.0827 75.3397C32.6296 73.673 32.2129 73.147 31.5462 73.3189C31.416 73.3553 31.3118 73.4126 31.2233 73.4803L30.9108 72.3085C31.0931 72.1574 31.3118 72.0324 31.5775 71.9647C32.9108 71.6053 33.8691 72.4022 34.5618 74.9491C35.2337 77.4335 34.8379 78.647 33.5098 79.0064V79.0168ZM37.5827 77.8345L36.666 78.0741C36.4837 78.121 36.3796 78.0741 36.3327 77.8918L34.0775 69.5272C34.0306 69.3553 34.0775 69.2408 34.2754 69.1939L35.1868 68.9543C35.3587 68.9074 35.4629 68.9751 35.5098 69.147L36.1556 71.5376L36.7129 73.5845L37.7754 77.5116C37.8223 77.6835 37.7754 77.7876 37.5931 77.8345H37.5827ZM40.6348 77.0168L39.7181 77.2616C39.5358 77.3033 39.4316 77.2616 39.3848 77.0741L38.2285 72.7772C38.041 72.1105 37.7858 71.7824 37.2806 71.9178C37.1764 71.9387 37.0931 71.9855 37.015 72.0324L36.6764 70.7824C36.8639 70.6314 37.0931 70.5064 37.3848 70.4335C38.4837 70.1366 39.2441 70.8241 39.5827 72.0793L40.8275 76.6939C40.8743 76.871 40.8275 76.9699 40.6452 77.0168H40.6348ZM43.0931 76.3658L42.1816 76.6053C42.0098 76.6522 41.8952 76.6053 41.8483 76.423L40.1348 70.0793C40.0879 69.9074 40.1608 69.8033 40.3327 69.7564L41.2441 69.5168C41.4212 69.4699 41.5358 69.5168 41.5827 69.6991L43.291 76.0428C43.3379 76.2147 43.2702 76.3189 43.0931 76.3658ZM45.6504 75.6835L44.7389 75.9283C44.5514 75.9751 44.4473 75.9283 44.4004 75.7408L42.1452 67.3814C42.1035 67.2095 42.1452 67.0949 42.3431 67.048L43.2598 66.8085C43.4316 66.7616 43.5358 66.8293 43.5827 67.0012L45.8379 75.3658C45.8796 75.5376 45.8379 75.6418 45.6504 75.6835Z" fill="#D51224"/>
</svg>
