<svg width="28" height="8" viewBox="0 0 28 8" fill="none" xmlns="http://www.w3.org/2000/svg">
<path d="M0 4.19117C0 4.19117 1.47396 4.88909 2.81771 6.41513C4.70833 7.19117 6.07812 7.73284 7.60417 7.60263C8.97396 7.00888 11.1719 6.0818 12.5677 4.03492C14.7135 2.97763 16.8594 1.91513 19.0781 0.935963C21.4844 1.06617 23.1146 1.17034 24.4583 2.17555C25.776 3.05575 27.0156 4.52971 27.3802 4.47763C27.5365 4.24326 27.4844 3.75367 27.4323 3.41513C27.1719 3.26409 27.0938 3.5193 27.0417 3.5193C27.0417 3.5193 27.3281 3.31096 27.4062 3.41513C27.5104 3.5193 25.4167 0.935962 23.5 0.212005C21.6406 -0.0223709 19.2344 -0.303619 17.0625 0.831797C14.8906 1.73805 12.4635 2.7693 10.8594 4.86305C8.53125 6.15471 8.01562 6.44117 7.39583 6.44117C6.80208 6.49326 4.14062 6.8318 2.32812 4.50367C0.208333 3.31096 0.572916 3.46721 0.520833 3.44117C0.520833 3.44117 0.234375 3.18596 0.130208 3.15992C0.0260417 3.15992 0.0260423 3.5193 0.078125 3.64951" fill="#D72333"/>
</svg>
