<svg width="28" height="8" viewBox="0 0 28 8" fill="none" xmlns="http://www.w3.org/2000/svg">
<path d="M0 4.19117C0 4.19117 1.47396 4.88909 2.81771 6.41513C4.70312 7.19117 6.07292 7.73284 7.59896 7.60784C8.96875 7.00888 11.1667 6.05576 12.5625 4.04013C14.7083 2.97763 16.8542 1.92034 19.0781 0.935963C21.4792 1.06617 23.1094 1.17034 24.4531 2.17555C25.7708 3.05575 27.0156 4.52971 27.375 4.47763C27.5313 4.24325 27.4792 3.75367 27.4271 3.41513C27.1667 3.26409 27.0938 3.5193 27.0417 3.5193C27.0417 3.5193 27.3229 3.31617 27.401 3.41513C27.5052 3.5193 25.4115 0.935963 23.5 0.212005C21.6354 -0.0223701 19.2344 -0.30362 17.0625 0.831796C14.8906 1.73805 12.4583 2.7693 10.8542 4.86305C8.53125 6.15992 8.01042 6.44117 7.39062 6.44117C6.79688 6.49325 4.13542 6.8318 2.32292 4.50367C0.203125 3.31617 0.567709 3.46721 0.515625 3.44117C0.515625 3.44117 0.229167 3.18596 0.130208 3.13388C0.0260417 3.13388 0.0260423 3.49326 0.078125 3.62346" fill="#D72333"/>
</svg>
