<svg width="28" height="8" viewBox="0 0 28 8" fill="none" xmlns="http://www.w3.org/2000/svg">
<path d="M0 4.19378C0 4.19378 1.47396 4.8917 2.81771 6.41774C4.70833 7.19378 6.07812 7.73545 7.60417 7.60524C8.97396 7.01149 11.1719 6.0792 12.5677 4.03753C14.7135 2.98024 16.8594 1.91774 19.0781 0.933365C21.4844 1.06357 23.1146 1.16774 24.4583 2.17816C25.776 3.05316 27.0156 4.52712 27.3802 4.47503C27.5365 4.24586 27.4844 3.75107 27.4323 3.41774C27.1719 3.26149 27.0938 3.52191 27.0417 3.52191C27.0417 3.52191 27.3281 3.31357 27.4062 3.41774C27.5104 3.52191 25.4167 0.933366 23.5 0.209407C21.6406 -0.0197597 19.2344 -0.306218 17.0625 0.834407C14.8906 1.73545 12.4635 2.77191 10.8594 4.86566C8.53125 6.15732 8.01562 6.44378 7.39583 6.44378C6.80208 6.49586 4.14062 6.8292 2.32812 4.50107C0.208333 3.31357 0.572916 3.46982 0.520833 3.44378C0.520833 3.44378 0.234375 3.18337 0.130208 3.15732C0.0260417 3.15732 0.0260423 3.52191 0.078125 3.65211" fill="#D72333"/>
</svg>
