<svg width="28" height="8" viewBox="0 0 28 8" fill="none" xmlns="http://www.w3.org/2000/svg">
<path d="M0 4.19284C0 4.19284 1.47396 4.89075 2.81771 6.4168C4.70312 7.19284 6.07812 7.7345 7.59896 7.6043C8.96875 7.01055 11.1667 6.07825 12.5625 4.03659C14.7083 2.9793 16.8542 1.9168 19.0781 0.932421C21.4844 1.06263 23.1146 1.1668 24.4583 2.17721C25.776 3.05221 27.0156 4.52617 27.3802 4.47409C27.5312 4.24492 27.4792 3.75534 27.4271 3.4168C27.1719 3.26055 27.0938 3.52096 27.0417 3.52096C27.0417 3.52096 27.3281 3.31263 27.401 3.4168C27.5052 3.52096 25.4115 0.932421 23.5 0.213671C21.6406 -0.0207033 19.2344 -0.307162 17.0625 0.833463C14.8906 1.7345 12.4635 2.77096 10.8594 4.86471C8.53125 6.15638 8.01563 6.44284 7.39583 6.44284C6.79688 6.49492 4.13542 6.82826 2.32812 4.50013C0.208334 3.31263 0.567708 3.46888 0.515625 3.44284C0.515625 3.44284 0.234375 3.18242 0.130208 3.15638C0.0260417 3.15638 0.0260423 3.52096 0.078125 3.65117" fill="#D72333"/>
</svg>
