<svg width="100%" height="100%" overflow="visible" style="display: block;" viewBox="0 0 59.0034 92.0054" fill="none" xmlns="http://www.w3.org/2000/svg">
<path id="Vector" d="M46.8082 78.6655L45.8716 78.9181C45.677 78.9711 45.5779 78.9127 45.5288 78.7302L43.2145 70.037C43.1654 69.8536 43.2199 69.7413 43.4145 69.6882L44.3511 69.4356C44.5333 69.3871 44.6359 69.4572 44.6841 69.6406L46.9984 78.3329C47.0475 78.5163 46.9903 78.6161 46.8082 78.6655ZM44.1931 79.3702L43.2565 79.6228C43.0744 79.6723 42.9619 79.6183 42.9137 79.4349L41.1575 72.8362C41.1084 72.6528 41.178 72.5503 41.361 72.5009L42.2976 72.2483C42.4797 72.1988 42.5922 72.2537 42.6405 72.4362L44.3975 79.0349C44.4467 79.2183 44.3761 79.3217 44.194 79.3702M41.6566 80.0534L40.72 80.306C40.5245 80.3581 40.4253 80.3015 40.3771 80.1181L39.1888 75.6542C39.004 74.9603 38.7433 74.6088 38.2102 74.7535C38.1058 74.7814 38.0147 74.8218 37.9352 74.8713L37.5897 73.5742C37.7745 73.4213 38.012 73.291 38.3156 73.2092C39.4477 72.9045 40.2245 73.6209 40.5691 74.9171L41.8485 79.7217C41.8967 79.9051 41.8396 80.0048 41.6575 80.0534M38.5218 80.8992L37.5853 81.1518C37.3906 81.204 37.2915 81.1464 37.2424 80.964L34.9282 72.2708C34.8791 72.0874 34.9327 71.975 35.1282 71.922L36.0648 71.6694C36.2469 71.62 36.3496 71.691 36.3978 71.8743L37.0603 74.3625L37.6254 76.483L38.7129 80.5675C38.762 80.7509 38.7049 80.8507 38.5218 80.8992ZM34.3479 82.137C34.0639 82.2134 33.7952 82.226 33.5532 82.1901L33.2247 80.9568C33.3443 80.9783 33.4675 80.9703 33.5961 80.9361C34.2854 80.75 34.3746 80.039 33.9184 78.3239C33.4586 76.5953 33.0309 76.0371 32.3417 76.2232C32.214 76.2583 32.1024 76.314 32.0104 76.3922L31.6845 75.1697C31.8711 75.0133 32.1015 74.8847 32.3702 74.8128C33.7354 74.4443 34.7228 75.2722 35.4273 77.9167C36.1139 80.4956 35.7139 81.7685 34.3479 82.137ZM32.9997 83.9321L32.0631 84.1847C31.8676 84.2377 31.7685 84.1802 31.7203 83.9968L29.5801 75.9589C29.531 75.7755 29.5882 75.6758 29.7837 75.6236L30.7203 75.371C30.9149 75.3189 30.981 75.3567 31.0426 75.5364L33.1899 83.6004C33.239 83.7838 33.1818 83.8836 32.9997 83.9321ZM28.0123 69.8698C27.3391 71.1031 27.5445 72.0074 27.5445 72.0074C27.5445 72.0074 26.0454 71.4231 25.2205 72.4892C24.3374 73.6299 25.3579 74.758 25.3579 74.758C25.3579 74.758 24.6071 74.6879 23.5812 75.1014C22.5562 75.514 21.7357 76.2708 21.7357 76.2708C21.7357 76.2708 21.7866 75.1652 20.967 75.2344C20.1474 75.3027 19.926 75.7261 20.1661 76.2708C20.3581 76.7077 20.551 76.7976 20.6188 76.8165C20.4643 76.7895 19.6456 76.6978 19.3135 77.701C19.0751 78.421 19.5519 78.6098 19.7563 78.679C19.9599 78.7473 20.1661 78.7473 20.1661 78.7473C20.1661 78.7473 20.234 78.954 20.234 79.3666V80.2601C20.234 80.2601 19.3465 79.5042 18.8671 80.1918C18.3894 80.8786 18.8671 81.4296 18.8671 81.4296C18.8671 81.4296 18.3198 81.2228 17.8421 81.3613C17.3644 81.4979 16.8868 81.7038 16.8868 81.7038C16.8868 81.7038 17.0921 81.2228 17.16 80.7419C17.2278 80.2601 17.2278 79.6408 17.3653 78.6089C17.501 77.5778 17.7073 76.3401 18.0483 75.6524C18.3903 74.9647 18.6635 74.4146 18.6635 72.7643C18.6635 71.1139 18.5957 69.5318 18.8689 67.8131C19.1421 66.0945 19.7581 63.894 20.509 63.2746C21.2608 62.6553 21.534 61.6243 21.6036 60.9366C21.6715 60.248 22.0134 59.493 22.2866 58.5294C22.5598 57.5667 23.0375 57.2916 23.5848 56.6048C24.1321 55.9163 23.7901 55.0911 23.858 53.8533C23.9276 52.6155 22.4241 52.203 22.0822 51.722C21.7402 51.2411 21.5348 50.691 20.4429 50.2092C19.3483 49.7274 19.7599 49.5899 20.7849 49.8649C21.8098 50.1391 22.4241 50.8276 22.9696 51.171C23.5169 51.5153 23.9946 51.8596 24.9517 52.4088C25.9088 52.9598 25.6347 52.203 25.5669 51.722C25.499 51.2411 25.9088 51.0344 26.5918 50.2775C27.2749 49.5207 27.4793 49.4523 27.207 50.0717C26.9338 50.691 26.524 51.447 26.2499 52.1346C25.9776 52.8223 26.865 53.6466 27.2749 53.9918C27.6847 54.336 28.232 53.9918 27.9597 53.4407C27.6856 52.8915 28.0275 52.4789 28.2329 52.8915C28.4373 53.3041 28.5052 53.234 28.848 52.7531C29.1882 52.2722 29.5989 51.447 29.8051 50.8276C30.0105 50.2083 30.2828 49.1072 30.2828 49.1072C30.2828 49.1072 30.4873 50.3449 30.4873 50.896C30.4873 51.447 30.0096 52.202 29.4623 53.234C28.915 54.265 29.8721 55.7095 30.623 56.0538C31.3756 56.3981 32.1274 55.9163 32.4006 55.0911C32.6747 54.2659 32.8791 54.1976 32.8104 55.0228C32.7425 55.848 32.5381 56.1221 32.4702 56.6048C32.4006 57.0848 32.88 58.1851 33.1532 58.5977C33.4265 59.0103 33.1532 59.2862 33.0158 59.6988C32.8783 60.1114 33.0158 61.0732 33.0854 62.1744C33.1532 63.2737 33.7684 62.9996 33.3586 63.5488C33.3586 63.5488 32.8809 64.1681 32.7434 64.925C32.6059 65.6819 33.6309 66.1628 33.6309 66.1628C33.6309 66.1628 32.88 66.3012 32.0604 66.5071C31.2408 66.7138 30.9658 67.0563 30.9658 67.0563C30.9658 67.0563 30.6926 66.1628 29.9408 66.0945C29.19 66.0243 28.6427 66.507 28.4382 66.988C28.2338 67.4689 28.5757 68.2941 29.2587 68.4999C29.2587 68.4999 28.5552 68.8882 28.0186 69.8689M21.2715 22.9341C20.9117 22.6797 21.1277 22.6069 21.6688 22.6437C22.2116 22.6806 22.175 22.7165 22.5723 22.4972C22.9696 22.2797 23.1857 22.2437 23.0768 22.4972C22.9428 22.8136 22.825 23.0428 22.4268 23.0797C22.0295 23.1165 21.6322 23.1876 21.2715 22.9341ZM20.442 22.2069C19.2867 22.134 19.7563 21.5893 20.4786 21.6262C21.2009 21.6621 21.417 21.4293 21.9107 21.2864C22.4393 21.1345 22.5696 21.1686 23.0777 21.2621C23.475 21.3349 23.2589 21.4086 23.2232 21.7718C23.1866 22.134 22.8982 21.9893 22.2125 22.134C21.5268 22.2806 21.5991 22.2806 20.4429 22.2069M24.0874 25.4411C24.3053 25.2217 24.4482 25.1139 24.8821 25.0051C25.3151 24.8954 24.9187 25.3323 24.7008 25.4411C24.4848 25.5507 24.4848 25.9139 24.2687 26.2042C24.0508 26.4946 23.9437 26.2762 23.8714 26.0586C23.7991 25.8411 23.8366 25.6937 24.0874 25.4411ZM25.2428 23.8428C25.7133 23.6963 25.5294 23.5903 25.8195 23.2972C25.9651 23.1525 26.0356 23.2936 26.2517 23.1489C26.4677 23.0033 26.6061 23.0114 26.9311 23.3017C27.2561 23.5921 27.0115 23.806 26.6499 23.8428C26.2892 23.8779 26.1802 24.2411 25.7115 24.4595C25.241 24.677 24.8446 24.4226 24.3035 24.2042C23.7607 23.9867 24.7714 23.9867 25.2419 23.8428M25.2794 19.7376C25.8561 19.5551 26.5427 19.5551 27.1918 19.0472C27.8418 18.5376 28.5275 17.8841 28.3837 18.5744C28.2382 19.2648 28.2025 19.7016 27.6257 19.7016C27.049 19.7016 26.724 19.8823 26.1454 20.2455C25.5687 20.6095 25.1705 20.6823 25.316 21.1902C25.4597 21.6999 25.2071 22.2078 24.991 21.7727C24.7731 21.3367 24.6294 21.2999 24.6294 21.0095C24.6294 20.5664 24.7008 19.9192 25.2794 19.7385M28.4204 20.2814C28.4204 20.6086 28.3114 20.7174 28.0588 21.0446C27.8052 21.3718 27.6204 21.5084 27.1186 21.4077C26.7579 21.3349 26.6865 21.0446 27.2275 20.8621C27.7686 20.6814 27.7686 20.6086 28.0222 20.2086C28.2748 19.8086 28.4195 19.9542 28.4195 20.2814M27.9507 24.0235C27.8052 24.3139 27.8704 24.4217 27.7248 24.8217C27.582 25.2199 27.5168 25.4042 27.1195 25.5498C26.724 25.6937 26.6517 25.6937 26.2177 25.877C25.7838 26.0586 25.5472 25.9274 25.2428 25.877C24.8097 25.8042 25.3151 25.6218 25.6044 25.5498C25.8928 25.477 26.5043 25.415 27.0454 25.1247C27.5865 24.8343 26.3972 25.1139 25.8561 25.2217C25.3151 25.3314 25.4231 25.1867 25.7133 25.0042C26.0017 24.8226 26.3633 24.7498 26.7588 24.6411C27.1561 24.5332 27.3374 24.277 27.59 23.8779C27.8418 23.4797 28.0963 23.7341 27.9507 24.0244M40.7843 70.4397L41.7726 70.1727C41.9548 70.1233 42.0664 70.1781 42.119 70.3741L42.3423 71.2119C42.3914 71.3952 42.3208 71.4986 42.1387 71.5472L41.1503 71.8141C40.9682 71.8636 40.8566 71.8096 40.8075 71.6263L40.5843 70.7885C40.5325 70.5925 40.6021 70.4892 40.7843 70.4397ZM58.3596 81.8413C57.607 81.2903 56.5141 81.2903 56.5141 81.2903C56.5141 81.2903 57.1293 79.7774 56.8561 78.0596C56.582 76.3392 55.9668 75.7198 55.9668 75.7198C55.9668 75.7198 56.6275 74.5548 55.3517 74.0694C54.5856 73.7791 54.4642 74.482 54.4642 74.482C54.4642 74.482 54.0544 74.0712 53.3714 73.8627C52.6875 73.656 52.0723 73.656 52.0723 73.656C52.0723 73.656 52.9616 73.5193 53.0973 71.3871C53.2348 69.2559 51.0473 67.3304 51.0473 67.3304C51.0473 67.3304 52.142 67.0545 51.867 66.2994C51.5947 65.5425 50.5697 65.7484 50.5697 65.7484C50.5697 65.7484 50.3768 64.5645 49.2028 64.5106C48.0769 64.4594 48.1099 65.2675 48.1099 65.2675C48.1099 65.2675 46.743 64.3722 45.4457 65.0607C44.1476 65.7484 43.3958 66.8477 43.1904 67.4671C42.9851 68.0855 43.1904 66.9862 42.5074 66.2994C41.8226 65.6109 41.4825 65.5425 41.4825 65.5425C41.4825 65.5425 42.3021 64.3048 41.0726 63.8238C39.8423 63.342 39.2281 62.9286 38.4076 61.9667C37.5879 61.004 37.3817 60.729 37.7236 59.9038C38.0656 59.0786 38.6129 57.9774 38.8861 56.1203C39.1584 54.2632 38.8861 53.1639 39.2281 52.407C39.5682 51.6519 39.7057 50.4825 39.4325 49.7948C39.1584 49.1063 39.4307 47.3876 38.2701 46.9067C37.1076 46.4249 36.6987 46.4249 36.2201 46.6307C35.7425 46.8375 35.6023 46.2262 34.6478 45.944C33.4881 45.5997 32.4631 46.1498 31.6426 46.9067C30.8221 47.6626 29.865 48.4869 29.1828 49.3822C28.498 50.2757 27.3365 50.2074 29.0453 48.4869C30.7533 46.7682 32.3247 45.7372 32.872 45.2563C33.4175 44.7736 33.4175 43.9484 32.1881 44.361C30.9587 44.7736 30.6176 45.0496 30.0703 45.463C29.523 45.8756 28.7721 45.944 30.0024 44.9803C31.2328 44.0185 31.6426 43.9493 31.5729 43.2617C31.5051 42.5749 31.3006 42.3682 30.8899 42.3682C30.4792 42.3682 31.3676 41.4045 31.0953 40.8544C30.8221 40.3061 30.9578 40.0993 31.1631 39.6166C31.3685 39.1357 31.4372 38.7915 31.4372 38.7915C31.4372 38.7915 32.0747 39.4441 32.3568 39.8216C32.639 40.2009 33.5782 40.9578 33.172 40.1686C32.7631 39.3802 32.5443 39.3479 32.5443 39.1276C32.5443 38.9074 32.8899 39.1906 33.172 39.4746C33.4541 39.7569 33.7666 40.3888 34.8005 40.609C35.8353 40.8292 36.1487 40.6728 36.3362 40.5155C36.5255 40.3564 36.5871 39.9798 36.0246 40.0733C35.4603 40.1686 34.9585 39.7569 34.4255 39.4431C33.8925 39.1276 33.3916 38.9065 33.2657 38.6863C33.1407 38.4643 33.1095 38.1496 33.7372 38.6548C34.363 39.1591 36.4317 39.7901 37.7486 39.7578C39.0647 39.7281 39.5664 39.2849 39.7539 39.0009C39.9414 38.7168 39.7539 38.3708 39.2531 38.5595C38.7513 38.7483 37.1844 38.8759 36.4951 38.6234C35.8058 38.3708 35.6166 38.244 35.1157 37.9294C34.6148 37.6139 34.6773 37.4233 35.6166 37.7397C36.5567 38.0553 37.1522 38.5919 39.5977 38.0553C42.0423 37.5186 43.1708 36.9191 43.5779 36.5415C43.986 36.1622 43.8601 35.4691 42.8574 35.8781C41.8548 36.2889 40.445 36.7303 39.0968 36.6988C37.7486 36.6674 36.8701 36.5101 36.4005 36.5101C35.9308 36.5101 35.3344 36.0372 36.9647 36.1936C38.595 36.3528 39.4397 36.3528 41.195 35.8476C42.9521 35.3415 44.2368 34.7428 44.894 34.1433C45.5538 33.5437 45.8341 32.6295 44.8627 32.9136C43.8913 33.1976 42.6378 33.07 42.2298 33.4179C41.8226 33.7648 41.1021 33.9221 40.3816 33.8269C39.6611 33.7334 39.2522 33.701 38.7504 33.9536C38.2495 34.2062 37.4344 34.4902 37.0585 34.2997C36.6817 34.1109 36.5871 33.9536 37.6531 33.7334C38.7191 33.5131 39.6905 33.3226 40.7878 33.354C41.8851 33.3855 42.2289 33.0385 42.669 32.6925C43.1074 32.3446 43.4842 31.336 43.7351 30.1054C43.986 28.874 44.1422 26.7616 44.519 25.1525C44.894 23.5435 44.9895 22.9116 45.427 22.5341C45.8654 22.1547 46.1475 21.9021 46.3368 21.6181C46.5243 21.3358 46.8993 21.0518 47.2448 21.0194C47.5894 20.988 48.2474 20.5151 48.4671 20.1358C48.6858 19.7583 48.718 19.2216 48.9055 19.0311C49.0947 18.8423 48.7813 18.1492 48.4046 17.8014C48.0296 17.4544 47.9037 17.2971 47.6207 17.6764C47.3394 18.054 46.7752 17.1722 46.5868 17.8328C46.3993 18.4944 45.6154 17.5488 45.5841 18.4009C45.5547 19.2531 45.2404 19.8832 44.5199 19.4419C43.7976 18.9996 43.3601 18.6526 42.9529 18.5259C42.544 18.4 42.4199 17.9901 42.3565 17.6117C42.2931 17.2324 41.8557 16.2867 41.5101 16.7281C41.1664 17.1713 41.228 17.9281 41.4173 18.5573C41.6048 19.1893 41.7923 19.6621 41.9182 20.3237C42.0432 20.9871 42.1057 21.2073 41.7601 22.0918C41.4164 22.9736 41.1343 24.3309 40.6959 25.2146C40.2557 26.0964 39.7548 26.8856 39.4406 27.5786C39.129 28.2735 38.9397 28.6834 37.8433 28.7778C36.746 28.8713 35.9621 28.6825 35.5228 28.4308C35.0844 28.1782 34.3639 27.8627 33.7997 27.8007C33.2354 27.7378 33.047 27.0744 31.8256 27.2326C30.6033 27.3899 30.2899 27.5166 29.7882 27.3584C29.2873 27.2011 28.6909 26.9171 28.1579 26.7903C27.6248 26.6645 27.3132 26.6016 27.657 26.1287C28.0025 25.6559 28.1579 25.8761 28.5034 25.4357C28.8471 24.9925 28.9105 24.615 29.2873 24.4559C29.6623 24.2995 30.1953 23.7305 30.1641 23.0051C30.1346 22.2797 29.8525 21.5543 29.6944 20.9232C29.5391 20.2931 29.256 19.725 29.5069 19.3457C29.7578 18.9681 29.9453 18.5888 29.7578 18.3362C29.5703 18.0836 29.5998 17.9587 29.5998 17.9587C29.5998 17.9587 29.9444 18.0845 30.3533 17.9901C30.7605 17.8949 30.4471 18.4315 31.0426 18.3039C31.639 18.178 32.172 17.9578 31.7631 17.547C31.356 17.138 31.2622 17.1056 31.6381 16.8854C32.0131 16.6652 32.5461 16.2535 32.0452 15.8445C31.5444 15.4337 31.889 15.2764 31.5122 15.0238C31.1372 14.7712 31.1355 14.4872 31.481 14.4242C31.8265 14.3604 32.5149 14.2031 32.547 13.5739C32.5783 12.942 32.4845 12.2489 32.1399 12.1213C31.7953 11.9963 31.0113 11.1433 31.5756 11.1433C32.1399 11.1433 32.8291 10.639 32.3283 10.2282C31.8274 9.8183 31.6381 9.8183 31.4185 10.0709C31.1997 10.3235 30.5417 10.0709 30.698 9.69156C30.856 9.31402 30.856 8.87266 31.1988 8.90413C31.5444 8.93379 31.3881 8.36749 31.889 8.39985C32.3899 8.42951 32.8291 7.83175 32.422 7.51623C32.014 7.19982 31.6997 7.42095 31.6381 7.07488C31.5747 6.72701 31.5747 6.34767 31.7944 6.1589C32.0131 5.97014 31.8256 4.73955 30.9792 5.11798C30.1337 5.49732 29.9444 5.49732 29.4435 5.14945C28.9427 4.80157 28.7864 4.73955 29.1927 4.51752C29.6007 4.29729 30.4462 3.85594 29.8516 3.28784C29.2551 2.71974 28.7855 2.9103 28.9105 2.65771C29.0364 2.40512 28.4721 1.52151 28.19 2.05815C27.9079 2.59479 27.3749 2.94176 27.0624 2.49951C26.7481 2.05815 26.7481 1.42713 26.1204 1.49095C25.4945 1.55387 25.0865 1.45949 25.0865 1.14487C25.0865 0.83026 23.8964 0.512951 24.1785 1.2069C24.4598 1.90174 24.4294 2.21635 24.0205 2.24782C23.6134 2.27928 23.2678 1.83882 23.4875 1.61769C23.708 1.39746 22.8607 1.39746 23.0491 1.08105C23.2366 0.76554 23.1437 0.2289 22.7982 0.638796C22.4527 1.04959 21.9214 1.74354 21.7643 1.39746C21.6081 1.04959 21.1045 0.103954 20.7617 0.417668C20.4161 0.734079 20.134 1.01813 20.0724 0.608233C20.0099 0.197439 19.226 -0.275379 19.1626 0.197439C19.0992 0.670257 19.4135 0.986668 19.0064 1.14487C18.5983 1.30128 19.0064 2.02669 18.2546 1.80646C17.5019 1.58623 16.968 1.58623 16.7796 2.21635C16.5921 2.84828 16.6868 3.35256 16.2466 2.84828C15.8082 2.344 15.4332 2.40692 15.5261 2.09141C15.6207 1.775 15.1199 1.11341 14.7422 1.52331C14.3672 1.9341 14.2413 2.344 14.4601 2.50041C14.6797 2.65951 14.6493 3.10087 14.0529 3.16379C13.4574 3.22761 12.9556 3.25727 13.019 3.92066C13.0824 4.58224 12.9556 4.70989 12.486 4.70989C12.0164 4.70989 11.3271 5.11888 11.2959 4.77281C11.2646 4.42584 10.4807 4.17325 10.4807 4.77281C10.4807 5.37237 10.7629 5.4344 10.5432 5.71934C10.3245 6.0034 10.0718 6.60296 10.1986 6.94903C10.3245 7.2969 10.262 7.45331 10.262 7.45331C10.262 7.45331 10.9191 6.98049 11.3593 7.20072C11.7976 7.42095 12.4548 7.83264 12.6735 8.52569C12.894 9.21874 12.9556 9.37784 12.8003 9.56661C12.6423 9.75538 12.0164 9.78684 12.6735 10.1347C13.3333 10.4817 14.0217 10.6075 14.1485 11.3329C14.2735 12.0583 13.3333 12.6579 12.8949 12.4377C12.4548 12.2174 11.5468 11.208 11.1387 11.5541C10.7316 11.901 10.8879 12.2804 10.8566 12.6264C10.8262 12.9743 10.8262 12.9105 10.6691 13.2269C10.5129 13.5424 10.3254 14.4251 10.6691 14.4566C11.0146 14.4881 10.7941 14.8045 11.0146 15.0571C11.2334 15.3096 11.4843 15.4031 11.2655 15.6566C11.0468 15.9092 10.6084 16.4135 11.1709 16.6346C11.7351 16.8548 11.6423 17.076 11.5477 17.3277C11.453 17.5803 11.6405 18.0207 11.986 17.9892C12.3307 17.9587 12.4869 18.2427 12.2682 18.5888C12.0485 18.9358 11.2968 20.0091 12.2048 20.1664C13.1146 20.3237 13.9297 20.5142 13.6771 20.8298C13.4262 21.1435 13.8663 22.1233 14.3672 21.8077C14.8681 21.4922 15.244 21.1129 15.6841 21.4913C16.1225 21.8707 15.8082 22.721 16.4046 22.6275C17.0011 22.5323 17.1252 22.7848 17.0011 23.0374C16.8743 23.29 17.4707 23.7628 17.6582 23.5741C17.8457 23.3853 17.8135 24.3309 18.3153 24.0154C18.8162 23.699 19.1305 23.4788 19.1305 23.4788C19.1305 23.4788 19.2885 23.9534 19.6313 24.2357C19.9769 24.5197 20.1956 24.7103 20.1956 25.0564C20.1956 25.4024 20.2269 25.7836 20.634 26.0038C21.042 26.224 21.3241 26.5701 21.3241 26.5701C21.3241 26.5701 20.7277 26.7292 20.4143 26.6016C20.1027 26.4757 19.4742 26.224 18.9733 25.8447C18.4724 25.4671 17.3743 24.6465 16.3716 24.3939C15.369 24.1413 14.6163 23.2577 13.4244 22.8163C12.2342 22.375 12.4235 22.0909 12.078 21.743C11.7325 21.3952 11.5137 21.5543 11.545 21.2073C11.5762 20.8594 11.1682 20.4504 10.9173 19.6936C10.6664 18.9367 10.3843 17.6117 10.2289 16.791C10.0709 15.9703 10.353 15.4346 10.2289 15.0562C10.1022 14.6768 9.97806 14.6768 9.66467 14.8359C9.3504 14.9923 9.47718 14.4251 8.94416 14.3613C8.41114 14.2993 8.3165 14.1411 7.75223 14.2993C7.18886 14.4557 6.59334 14.4557 7.37724 14.1402C8.16115 13.8265 8.56739 14.0467 8.03437 13.5101C7.50135 12.9743 7.78527 12.8781 7.43974 12.6579C7.09511 12.4377 7.50135 11.9963 7.97276 12.6894C8.44328 13.3824 8.66202 13.5415 9.06916 13.8552C9.47718 14.1716 9.91556 14.4548 10.0423 14.0773C10.1673 13.6979 10.262 13.3824 9.9477 13.1613C9.63342 12.9402 9.25665 12.3406 9.82092 12.7199C10.3852 13.0975 10.5745 12.6885 10.5111 12.2768C10.4486 11.8669 10.1664 11.0786 10.6986 11.0786C11.2307 11.0786 11.4825 11.11 11.8593 11.2377C12.2342 11.3635 13.3003 12.4035 13.5512 11.8992C13.802 11.395 13.802 11.1109 13.144 10.763C12.4851 10.417 11.6066 10.2902 11.9209 9.75358C12.2351 9.21784 12.4539 8.6812 11.828 8.23984C11.2003 7.79849 10.4164 7.48298 10.1031 8.20838C9.79146 8.93379 10.1031 9.34458 9.38254 9.15582C8.66202 8.96525 8.47453 9.50189 8.22365 9.69066C7.97276 9.88122 7.34599 10.2273 6.74958 10.6696C6.15496 11.1109 5.80943 11.8363 5.93621 12.9411C6.06121 14.0458 6.02907 14.8647 6.06121 15.8121C6.09246 16.7578 6.1871 18.5556 6.46834 19.565C6.75048 20.5745 6.93976 21.806 7.00136 22.4361C7.06475 23.068 7.03261 23.4455 7.62902 23.9813C8.22454 24.5179 8.44417 25.1813 9.1013 25.6541C9.76021 26.1269 10.262 26.5377 10.8566 27.1679C11.4521 27.7998 12.0798 28.2411 13.3021 28.9665C14.5243 29.6919 14.9011 29.976 15.0252 30.2915C15.1511 30.6079 15.6529 31.0169 14.336 30.7014C13.0199 30.3868 12.8003 29.7872 11.6718 29.6919C10.5441 29.5985 9.53968 29.9445 7.12725 28.9989C4.71304 28.0524 3.36486 27.6739 2.52025 27.1058C1.67384 26.5377 2.11222 25.8438 1.29707 25.371C0.483701 24.8981 -0.238599 24.393 0.0747848 26.1917C0.389061 27.9903 1.17207 29.8511 2.3015 30.1657C3.42915 30.4812 4.40055 30.2609 5.12106 30.545C5.84336 30.829 7.22278 31.1446 8.35043 31.523C9.47986 31.9023 11.9235 32.4066 9.91824 32.4704C7.91294 32.5325 7.47367 31.6183 6.12639 31.3028C4.77821 30.9864 3.99431 30.9558 3.39879 30.9234C2.80417 30.8929 2.33275 30.8929 1.67563 30.5774C1.01851 30.2609 0.233709 29.5041 0.766728 30.8299C1.29796 32.1549 1.61224 33.0376 3.08452 33.2273C4.55858 33.4161 7.00315 33.4799 7.78616 33.826C8.57006 34.1738 9.47986 34.4579 10.0745 34.5828C10.67 34.7096 10.67 35.1195 9.73074 35.0574C8.7897 34.9936 8.60221 34.6143 6.93976 34.3941C5.27998 34.1738 4.15055 34.1738 3.2104 33.9212C2.27025 33.6687 1.26761 33.6372 2.14437 34.5828C3.02291 35.5303 3.58718 35.8763 4.80946 36.2557C6.03085 36.6332 8.28793 37.1078 9.44772 37.0125C10.6066 36.9173 11.8923 37.0125 10.7334 37.2966C9.57271 37.5806 8.78881 37.4854 7.6933 37.5492C6.59602 37.613 5.49873 37.1078 4.96571 36.9173C4.43269 36.7285 3.02291 36.6332 3.74342 37.3604C4.46394 38.0858 5.52998 38.306 6.72012 38.6225C7.91205 38.938 8.69595 39.3479 10.2316 38.938C11.7673 38.5272 12.8646 38.4013 11.7673 38.938C10.67 39.4746 9.79324 39.7569 9.00755 39.6634C8.22365 39.5681 7.18975 39.0315 7.44153 39.6948C7.69241 40.3564 8.31829 40.4841 8.97719 40.4841C9.6361 40.4841 10.7637 40.4841 12.0485 40.0095C13.3342 39.5366 13.4271 39.4431 13.6458 39.2526C13.8663 39.0638 14.2735 38.8436 13.9601 39.3164C13.6467 39.7892 12.8324 40.2944 12.2369 40.5776C11.6405 40.8616 10.387 40.5776 10.7646 41.0207C11.1396 41.4621 12.3316 41.7776 13.1155 41.1466C13.8994 40.5164 14.1485 40.2324 14.369 40.0104C14.5886 39.7901 14.7761 39.7281 14.5886 40.1371C14.4011 40.547 13.836 41.0207 14.1181 41.1151C14.4002 41.2104 14.5565 41.0216 15.0261 40.3897C15.4966 39.7578 15.6538 39.1915 16.0922 38.9694C16.5305 38.7483 16.8868 38.7231 16.8868 38.7231C16.8868 38.7231 17.4323 40.3052 16.8868 40.9245C16.3395 41.543 16.2029 43.6059 15.9975 44.4994C15.7922 45.3929 14.6993 47.0433 14.8368 48.557C14.9725 50.0699 14.9047 51.4452 14.5627 52.7513C14.2226 54.0574 14.0851 54.9518 14.4252 56.4646C14.7672 57.9783 15.0404 58.5294 14.9047 59.2853C14.7672 60.0422 15.8618 60.9357 15.2449 61.8984C14.6297 62.8602 13.5369 64.5807 13.5369 66.9178C13.5369 69.255 13.9467 72.0065 14.3565 73.3809C14.7663 74.7571 14.2886 75.238 14.2886 75.9949C14.2886 76.7517 13.7413 76.6834 13.2637 77.7837C12.786 78.883 12.2387 79.2282 12.3066 79.7091C12.3762 80.1909 12.3762 80.5343 12.3762 80.5343C11.4869 80.741 10.5316 80.8768 9.98431 81.9087C9.437 82.9397 9.437 83.4224 9.437 83.4224C9.437 83.4224 8.61738 81.9087 7.66116 82.4597C6.70405 83.0107 6.63619 84.2485 7.25135 84.7977C7.86473 85.3488 8.20668 85.3488 8.20668 85.3488C8.20668 85.3488 7.41206 85.9879 7.86473 86.7933C8.40578 87.7533 9.77896 87.0675 9.77896 87.0675C9.77896 87.0675 9.91645 87.4818 10.1209 87.8243C10.3254 88.1686 10.5986 88.4437 10.5986 88.4437C10.5986 88.4437 9.86735 89.0477 10.8039 89.4747C11.8985 89.9727 11.8967 88.787 11.8967 88.787C11.8967 88.787 12.9217 89.3363 13.811 89.1996C14.6984 89.0621 15.1092 88.4428 15.1092 88.4428C15.1092 88.4428 15.3145 88.787 15.7922 89.0621C16.2716 89.3363 16.9546 89.819 16.9546 89.819C16.9546 89.819 16.1582 91.0298 17.2921 91.6995C18.3332 92.317 19.2519 91.9475 19.5519 91.0567C19.7394 90.4967 19.6876 90.2316 19.6876 90.2316C19.6876 90.2316 20.7126 90.4374 21.6018 89.6122C22.4893 88.787 22.9 88.1677 22.9 88.1677C22.9 88.1677 24.3107 88.8203 25.2919 88.6486C26.5454 88.4311 26.8231 88.0014 27.0972 87.383C27.3704 86.7636 27.5463 86.3798 27.5463 86.3798C27.5463 86.3798 28.1989 87.5681 29.2543 86.9308C30.1685 86.3771 29.8016 85.693 29.8016 85.693C29.8016 85.693 30.0748 86.174 30.6203 86.3124C31.1676 86.449 31.5774 86.1065 31.5774 86.1065C31.5774 86.1065 31.1203 87.0126 31.3256 87.6311C31.531 88.2486 32.0604 88.8643 32.8774 88.8563C33.5898 88.85 34.038 87.9628 34.038 87.9628C34.038 87.9628 34.5853 88.6504 35.063 88.3061C35.5425 87.9628 35.4728 87.5502 35.4728 87.5502C35.4728 87.5502 37.1121 88.3753 38.0022 88.1695C38.8897 87.9628 39.5048 87.6185 39.5048 87.6185C39.5048 87.6185 39.5727 88.3753 40.6673 88.3753C41.7619 88.3753 42.5797 86.9308 42.5797 86.9308C42.5797 86.9308 43.2628 87.8926 45.7225 87.8243C48.1823 87.756 49.0715 87.0675 49.0715 87.0675C49.0715 87.0675 49.501 88.627 50.9956 88.8023C52.5884 88.9875 52.9651 87.9628 53.1723 87.48C53.3767 86.9991 53.4446 86.5182 53.4446 86.5182C53.4446 86.5182 54.4017 87.1376 54.9472 86.4481C55.4945 85.7605 55.0169 84.9362 55.0169 84.9362C55.0169 84.9362 56.8052 86.3384 58.1043 85.1007C59.4025 83.8629 59.1167 82.3914 58.365 81.8413" fill="var(--fill-0, #F9F1DA)"/>
</svg>
