<svg xmlns="http://www.w3.org/2000/svg" fill="none" overflow="visible" style="display:block" viewBox="0 0 59.003 92.005"><path fill="var(--fill-0, #f9f1da)" d="m46.808 78.666-.936.252c-.195.053-.294-.005-.343-.188l-2.315-8.693c-.049-.183.006-.296.2-.349l.937-.252c.182-.049.285.021.333.205l2.314 8.692c.05.183-.008.283-.19.332m-2.615.704-.936.253c-.183.05-.295-.005-.343-.188l-1.757-6.599c-.049-.183.021-.286.204-.335l.937-.253c.182-.05.294.006.343.188l1.757 6.599c.049.183-.022.287-.204.335m-2.537.683-.937.253c-.195.052-.295-.004-.343-.188l-1.188-4.464c-.185-.694-.446-1.045-.979-.9a1 1 0 0 0-.275.117l-.345-1.297c.184-.153.422-.283.726-.365 1.132-.305 1.908.412 2.253 1.708l1.28 4.805c.048.183-.01.283-.191.331m-3.136.846-.937.253c-.194.052-.294-.006-.343-.188l-2.314-8.693c-.049-.184.005-.296.2-.349l.937-.253c.182-.049.285.022.333.205l.662 2.489.565 2.12 1.088 4.084c.049.184-.008.284-.191.332m-4.174 1.238a1.95 1.95 0 0 1-.795.053l-.328-1.233q.179.03.371-.02c.69-.187.779-.898.322-2.613-.46-1.729-.887-2.287-1.576-2.1a.85.85 0 0 0-.332.168l-.325-1.222c.186-.157.417-.285.685-.357 1.365-.369 2.353.46 3.057 3.104.687 2.579.287 3.852-1.08 4.22M33 83.932l-.937.253c-.195.053-.295-.005-.343-.188l-2.14-8.038c-.049-.184.008-.283.204-.335l.936-.253c.195-.052.261-.014.323.165L33.19 83.6c.049.184-.008.284-.19.332M28.012 69.87c-.673 1.233-.468 2.137-.468 2.137s-1.499-.584-2.323.482c-.884 1.14.137 2.269.137 2.269s-.75-.07-1.777.343c-1.025.413-1.845 1.17-1.845 1.17s.05-1.106-.769-1.037-1.041.492-.8 1.037c.191.437.384.527.452.546-.155-.027-.973-.12-1.305.884-.239.72.238.909.442.978s.41.068.41.068.068.207.068.62v.893s-.888-.756-1.367-.068c-.478.687 0 1.238 0 1.238s-.547-.207-1.025-.069-.955.343-.955.343.205-.481.273-.962c.068-.482.068-1.101.205-2.133.136-1.031.342-2.269.683-2.957.342-.687.616-1.237.616-2.888s-.068-3.232.205-4.95c.273-1.72.89-3.92 1.64-4.54.752-.619 1.025-1.65 1.095-2.337.068-.689.41-1.444.683-2.408.273-.962.75-1.237 1.298-1.924.547-.689.205-1.514.273-2.752.07-1.238-1.434-1.65-1.776-2.131s-.547-1.031-1.64-1.513c-1.094-.482-.682-.62.343-.344 1.025.274 1.64.963 2.185 1.306.547.344 1.025.689 1.982 1.238.957.55.683-.206.615-.687-.068-.48.342-.688 1.025-1.444q1.024-1.136.615-.206c-.273.619-.683 1.375-.957 2.063-.272.687.615 1.512 1.025 1.857.41.344.957 0 .685-.551-.274-.55.067-.962.273-.55.204.413.272.343.615-.138.34-.48.75-1.306.957-1.925.206-.62.478-1.72.478-1.72s.204 1.237.204 1.788-.477 1.306-1.025 2.338c-.547 1.031.41 2.475 1.161 2.82.753.344 1.504-.138 1.778-.963s.478-.893.41-.068c-.069.825-.273 1.1-.34 1.582-.07.48.409 1.58.682 1.993.273.412 0 .688-.137 1.1-.138.413 0 1.375.07 2.476.067 1.1.682.826.273 1.375 0 0-.478.62-.616 1.376-.137.757.888 1.238.888 1.238s-.751.138-1.57.344c-.82.207-1.095.55-1.095.55s-.273-.894-1.025-.963a1.49 1.49 0 0 0-1.503.894c-.204.48.138 1.306.82 1.512 0 0-.703.388-1.24 1.369m-6.747-46.935c-.36-.254-.143-.327.398-.29.543.037.506.073.903-.147.398-.217.614-.253.505 0-.134.317-.252.546-.65.583s-.795.108-1.155-.146m-.829-.727c-1.155-.073-.686-.618.037-.58.722.035.938-.198 1.432-.34.528-.152.659-.118 1.167-.025.397.073.18.147.145.51-.036.362-.325.217-1.01.362-.686.147-.614.147-1.77.073m3.644 3.234c.218-.22.361-.327.795-.436.433-.11.037.327-.181.436-.216.11-.216.473-.432.763-.218.29-.325.072-.398-.145-.072-.218-.034-.365.216-.618m1.156-1.598c.47-.147.286-.253.577-.546.145-.145.216-.003.432-.148.216-.146.354-.138.68.153.324.29.08.504-.282.54-.36.036-.47.4-.938.617-.471.218-.867-.036-1.408-.255-.543-.217.467-.217.938-.361m.037-4.105c.577-.183 1.264-.183 1.913-.69.65-.51 1.335-1.164 1.192-.474-.146.69-.181 1.128-.758 1.128s-.902.18-1.48.543c-.577.364-.976.437-.83.945.144.51-.109 1.018-.325.583-.218-.436-.362-.473-.362-.764 0-.443.072-1.09.65-1.27m3.141.542c0 .328-.109.436-.361.764-.254.327-.439.463-.94.363-.361-.073-.433-.363.108-.546.542-.18.542-.253.795-.653s.398-.255.398.072m-.47 3.742c-.145.29-.08.399-.225.799-.143.398-.208.582-.606.728-.395.144-.467.144-.901.327-.434.182-.67.05-.975 0-.433-.073.072-.255.361-.327s.9-.135 1.441-.425-.648-.011-1.189.097c-.54.11-.433-.035-.143-.218.289-.181.65-.254 1.046-.363.397-.108.578-.364.831-.763.252-.398.506-.144.36.146M40.785 70.44l.989-.267c.182-.05.293.005.346.201l.223.838c.05.183-.021.287-.203.335l-.989.267c-.182.05-.293-.004-.343-.188l-.223-.838c-.052-.195.018-.299.2-.348m17.575 11.4c-.753-.55-1.846-.55-1.846-.55s.615-1.514.342-3.231c-.274-1.72-.89-2.34-.89-2.34s.661-1.165-.614-1.65c-.766-.29-.888.412-.888.412s-.41-.41-1.093-.62c-.684-.206-1.299-.206-1.299-.206s.89-.137 1.025-2.269c.138-2.131-2.05-4.057-2.05-4.057s1.095-.275.82-1.03c-.272-.757-1.297-.552-1.297-.552s-.193-1.184-1.367-1.237c-1.126-.052-1.093.757-1.093.757s-1.367-.896-2.664-.207c-1.298.687-2.05 1.787-2.256 2.406-.205.618 0-.48-.683-1.168-.684-.688-1.024-.757-1.024-.757s.82-1.237-.41-1.718c-1.23-.482-1.845-.895-2.665-1.857-.82-.963-1.026-1.238-.684-2.063s.889-1.927 1.162-3.784 0-2.956.342-3.713c.34-.755.478-1.924.204-2.612s-.001-2.407-1.162-2.888c-1.162-.482-1.571-.482-2.05-.276-.477.206-.618-.405-1.572-.687-1.16-.344-2.185.206-3.005.963-.82.756-1.778 1.58-2.46 2.475-.685.894-1.846.825-.138-.895s3.28-2.75 3.827-3.23c.545-.483.545-1.309-.684-.896s-1.57.689-2.118 1.102-1.298.481-.068-.483c1.23-.961 1.64-1.03 1.57-1.718-.067-.687-.271-.894-.682-.894-.41 0 .478-.964.205-1.514-.273-.548-.137-.755.068-1.237.206-.481.274-.825.274-.825s.638.652.92 1.03c.282.379 1.221 1.136.815.347-.409-.789-.628-.821-.628-1.041s.346.063.628.347c.282.282.595.914 1.629 1.134s1.348.064 1.535-.093c.19-.16.251-.536-.311-.443-.565.096-1.066-.316-1.6-.63-.532-.315-1.033-.536-1.16-.757-.124-.222-.156-.536.472-.031.626.504 2.695 1.135 4.012 1.103 1.316-.03 1.817-.473 2.005-.757s0-.63-.5-.441c-.503.188-2.07.316-2.759.063-.69-.252-.878-.379-1.38-.694-.5-.315-.438-.506.502-.19s1.535.853 3.98.316 3.574-1.136 3.98-1.514c.409-.379.283-1.072-.72-.663s-2.412.852-3.76.82c-1.348-.03-2.227-.188-2.697-.188s-1.066-.473.565-.316c1.63.159 2.475.159 4.23-.346 1.757-.506 3.042-1.105 3.699-1.705.66-.6.94-1.514-.031-1.23-.972.285-2.225.157-2.633.505-.407.347-1.128.504-1.848.409-.72-.094-1.13-.126-1.632.127-.5.252-1.316.536-1.691.346-.377-.19-.472-.346.594-.567s2.038-.41 3.135-.379c1.097.032 1.44-.316 1.881-.661.438-.348.815-1.357 1.066-2.588s.407-3.343.784-4.953c.375-1.608.47-2.24.908-2.618.438-.38.72-.632.91-.916.187-.282.562-.566.908-.599.344-.031 1.002-.504 1.222-.883.219-.378.251-.914.439-1.105.189-.189-.125-.882-.501-1.23-.375-.347-.501-.504-.784-.125-.282.378-.846-.504-1.034.157s-.972-.284-1.003.568-.344 1.482-1.064 1.04c-.722-.441-1.16-.788-1.567-.915-.409-.126-.533-.536-.597-.914-.063-.38-.5-1.325-.846-.884-.344.443-.282 1.2-.093 1.83s.375 1.104.501 1.766c.125.663.188.883-.158 1.768-.344.882-.626 2.239-1.064 3.123-.44.881-.941 1.67-1.255 2.364-.312.694-.501 1.104-1.598 1.199-1.097.093-1.88-.095-2.32-.347-.439-.253-1.16-.568-1.723-.63-.565-.063-.753-.727-1.974-.568-1.223.157-1.536.284-2.038.125-.5-.157-1.097-.44-1.63-.568-.533-.125-.845-.188-.501-.661.346-.473.5-.253.846-.693.344-.444.407-.821.784-.98.375-.157.908-.726.877-1.45-.03-.726-.312-1.452-.47-2.083-.155-.63-.438-1.198-.187-1.577.25-.378.438-.757.25-1.01-.187-.252-.157-.377-.157-.377s.344.125.753.031c.407-.095.094.442.69.314.596-.126 1.129-.346.72-.757-.407-.409-.5-.441-.125-.662.375-.22.908-.632.407-1.04-.5-.411-.156-.569-.533-.821-.375-.253-.377-.537-.031-.6.345-.064 1.034-.22 1.066-.85.031-.632-.062-1.325-.407-1.453-.345-.125-1.129-.978-.564-.978.564 0 1.253-.504.752-.915-.5-.41-.69-.41-.91-.157-.218.252-.876 0-.72-.38.158-.377.158-.818.5-.787.346.03.19-.537.691-.504.5.03.94-.568.533-.884-.408-.316-.722-.095-.784-.441-.063-.348-.063-.727.156-.916.22-.189.032-1.42-.815-1.041-.845.38-1.035.38-1.535.031-.501-.347-.658-.41-.251-.631.408-.22 1.253-.662.659-1.23-.597-.568-1.067-.378-.942-.63.126-.253-.438-1.136-.72-.6-.282.537-.815.884-1.128.442-.314-.442-.314-1.073-.942-1.009-.626.063-1.033-.032-1.033-.346 0-.315-1.19-.632-.909.062.282.695.251 1.01-.158 1.04-.407.032-.752-.408-.532-.63.22-.22-.627-.22-.439-.536.188-.315.095-.852-.25-.442-.346.41-.878 1.105-1.035.758s-.66-1.293-1.002-.98c-.346.317-.628.601-.69.191s-.846-.883-.91-.41c-.063.472.252.789-.156.947-.408.156 0 .882-.751.661-.753-.22-1.287-.22-1.475.41-.188.632-.093 1.137-.533.632-.439-.504-.814-.441-.72-.757s-.407-.978-.785-.568c-.375.411-.5.821-.282.977.22.16.19.6-.407.664-.596.064-1.097.093-1.034.757.063.661-.063.789-.533.789s-1.159.409-1.19.063c-.031-.347-.815-.6-.815 0s.282.661.062.946c-.218.284-.471.884-.344 1.23.126.348.063.504.063.504s.657-.473 1.097-.252 1.096.632 1.315 1.325c.22.693.282.852.126 1.04-.158.19-.784.22-.127.569.66.347 1.349.473 1.476 1.198.125.725-.816 1.325-1.254 1.105-.44-.22-1.348-1.23-1.756-.884-.407.347-.251.726-.282 1.072-.03.348-.03.285-.188.6-.156.316-.344 1.2 0 1.23.346.032.125.349.346.601.218.253.47.346.25.6-.218.252-.657.756-.094.978.564.22.471.441.377.693-.095.252.092.693.438.661.345-.03.5.254.282.6-.22.347-.971 1.42-.063 1.577.91.158 1.725.348 1.472.664-.25.314.19 1.293.69.978.501-.316.877-.695 1.317-.317.438.38.124 1.23.72 1.137.597-.096.721.157.597.41-.127.252.47.725.657.536s.155.757.657.441c.501-.316.816-.536.816-.536s.157.474.5.757c.346.284.565.474.565.82s.03.728.438.948.69.566.69.566-.596.16-.91.032c-.311-.126-.94-.378-1.44-.757-.502-.378-1.6-1.198-2.602-1.451-1.003-.253-1.756-1.136-2.948-1.578-1.19-.441-1-.725-1.346-1.073-.345-.348-.564-.189-.533-.536s-.377-.757-.628-1.513c-.25-.757-.533-2.082-.688-2.903-.158-.82.124-1.356 0-1.735-.127-.38-.25-.38-.564-.22-.315.156-.188-.41-.72-.475-.534-.062-.629-.22-1.193-.062-.563.157-1.159.157-.375-.159.784-.314 1.19-.093.657-.63-.533-.536-.249-.632-.594-.852s.061-.662.533.031c.47.693.689.852 1.096 1.166.408.317.847.6.973.222.125-.38.22-.695-.094-.916-.315-.22-.691-.82-.127-.441.564.377.754-.032.69-.443-.062-.41-.345-1.198.188-1.198s.784.031 1.16.159c.375.126 1.441 1.165 1.692.661s.251-.788-.407-1.136c-.659-.346-1.537-.473-1.223-1.01.314-.535.533-1.072-.093-1.513-.628-.442-1.412-.757-1.725-.032-.312.726 0 1.137-.72.948-.721-.19-.908.346-1.16.535-.25.19-.877.536-1.473.979-.595.44-.94 1.166-.814 2.271.125 1.105.093 1.924.125 2.871.031.946.126 2.744.407 3.753.282 1.01.472 2.241.533 2.871.064.632.032 1.01.628 1.545.596.537.815 1.2 1.472 1.673.66.473 1.161.884 1.756 1.514.595.632 1.223 1.073 2.445 1.799 1.222.725 1.6 1.009 1.723 1.325.126.316.628.725-.689.41s-1.536-.915-2.664-1.01c-1.128-.093-2.132.253-4.545-.693-2.414-.947-3.762-1.325-4.607-1.893s-.408-1.262-1.223-1.735c-.813-.473-1.536-.978-1.222.82.314 1.8 1.097 3.66 2.227 3.975 1.127.315 2.099.095 2.82.379s2.1.6 3.228.978c1.13.38 3.574.884 1.568.947s-2.444-.852-3.792-1.167c-1.348-.317-2.132-.347-2.727-.38-.595-.03-1.066-.03-1.723-.346s-1.442-1.073-.91.253c.532 1.325.846 2.208 2.319 2.397 1.474.19 3.918.253 4.701.599.784.348 1.694.632 2.289.757.595.127.595.537-.344.474-.941-.063-1.129-.443-2.791-.663-1.66-.22-2.79-.22-3.73-.473-.94-.252-1.942-.284-1.066.662.879.947 1.443 1.293 2.665 1.673 1.222.377 3.479.852 4.639.757 1.159-.096 2.444 0 1.285.284s-1.944.188-3.04.252-2.194-.441-2.727-.632c-.533-.189-1.943-.284-1.223.443.72.726 1.787.946 2.977 1.263 1.192.315 1.976.725 3.512.315 1.535-.41 2.633-.537 1.535 0-1.097.537-1.974.819-2.76.725-.783-.095-1.817-.631-1.565.032.25.661.876.79 1.535.79.66 0 1.787 0 3.072-.475 1.285-.473 1.378-.567 1.597-.757s.627-.41.314.063-1.128.978-1.723 1.262c-.597.284-1.85 0-1.472.443.375.441 1.567.757 2.35.126.784-.63 1.034-.915 1.254-1.137.22-.22.407-.282.22.127-.188.41-.753.884-.47.978.281.095.438-.093.907-.725s.628-1.199 1.066-1.42c.439-.222.795-.247.795-.247s.545 1.582 0 2.202c-.547.618-.684 2.68-.89 3.574s-1.298 2.544-1.16 4.058c.136 1.513.068 2.888-.274 4.194-.34 1.306-.478 2.2-.138 3.714.342 1.513.615 2.064.48 2.82-.138.757.957 1.65.34 2.613-.615.962-1.708 2.683-1.708 5.02s.41 5.088.82 6.463-.068 1.857-.068 2.614-.548.688-1.025 1.789c-.478 1.099-1.025 1.444-.957 1.925.07.482.07.825.07.825-.89.207-1.845.343-2.393 1.375-.547 1.03-.547 1.513-.547 1.513s-.82-1.513-1.776-.962-1.025 1.789-.41 2.338c.614.55.956.55.956.55s-.795.64-.342 1.445c.54.96 1.914.274 1.914.274s.137.415.342.757c.204.345.478.62.478.62s-.732.604.205 1.03c1.095.499 1.093-.687 1.093-.687s1.025.55 1.914.413c.887-.138 1.298-.757 1.298-.757s.206.344.683.62c.48.273 1.163.756 1.163.756s-.797 1.21.337 1.88c1.041.618 1.96.249 2.26-.642.187-.56.136-.825.136-.825s1.025.205 1.914-.62c.887-.825 1.298-1.444 1.298-1.444s1.41.652 2.392.48c1.253-.217 1.531-.647 1.805-1.265.273-.62.45-1.003.45-1.003s.652 1.188 1.707.55c.915-.553.548-1.237.548-1.237s.273.481.818.62c.548.136.957-.207.957-.207s-.457.907-.251 1.525c.205.618.734 1.233 1.551 1.225.713-.006 1.161-.893 1.161-.893s.547.687 1.025.343c.48-.343.41-.756.41-.756s1.64.825 2.53.62c.887-.207 1.502-.552 1.502-.552s.068.757 1.162.757c1.095 0 1.913-1.444 1.913-1.444s.683.962 3.142.893c2.46-.068 3.35-.757 3.35-.757s.429 1.56 1.924 1.735c1.592.185 1.97-.84 2.176-1.322.205-.48.273-.962.273-.962s.957.62 1.502-.07c.547-.687.07-1.512.07-1.512s1.788 1.402 3.087.165c1.299-1.238 1.013-2.71.261-3.26"/></svg>